M48
METRIC,LZ,000.000
;FILE_FORMAT=3:3
;TYPE=PLATED
;Layer: PTH_Through
;EasyEDA v6.5.42, 2024-04-02 15:40:29
;8b502a5043014c5c8b579c1251e0877e,acb5ada5342d49438264df6f97d5643c,10
;Gerber Generator version 0.2
;Holesize 1 = 0.501 mm
T01C0.501
;Holesize 2 = 0.701 mm
T02C0.701
;Holesize 3 = 0.722 mm
T03C0.722
;Holesize 4 = 0.889 mm
T04C0.889
;Holesize 5 = 0.900 mm
T05C0.900
;Holesize 6 = 1.000 mm
T06C1.000
;Holesize 7 = 1.040 mm
T07C1.040
;Holesize 8 = 1.301 mm
T08C1.301
;Holesize 9 = 3.000 mm
T09C3.000
%
G05
G90
T01
X081276Y045499
X069551Y039757
X072645Y028238
X081453Y034367
X050326Y007473
X032779Y051926
X077974Y054874
X030981Y049660
T02
X014986Y048271
X014986Y049773
T03
X070978Y064912
X070978Y062912
X070978Y060912
X070978Y058912
X070978Y056912
X070978Y054912
X070978Y052912
X070978Y050912
X084978Y050912
X084978Y052912
X084978Y054912
X084978Y056912
X084978Y058912
X084978Y060912
X084978Y062912
X084978Y064912
T04
X064505Y009764
X067045Y009764
X069585Y009764
X072125Y009764
X074665Y009764
X077205Y009764
T05
X070855Y030973
X070855Y041133
X070855Y016495
X070855Y026655
T06
X025568Y056125
X025568Y062125
X059168Y068125
X059168Y050125
T07
X056379Y-009159G85X056384Y-009159
X056379Y-006619G85X056384Y-006619
X056379Y-004079G85X056384Y-004079
X056379Y-001539G85X056384Y-001539
X056379Y001001G85X056384Y001001
X056379Y003541G85X056384Y003541
X056379Y006081G85X056384Y006081
X056379Y008621G85X056384Y008621
X056379Y011161G85X056384Y011161
X056379Y013701G85X056384Y013701
X056379Y016241G85X056384Y016241
X056379Y018781G85X056384Y018781
X056379Y021321G85X056384Y021321
X056379Y023861G85X056384Y023861
X056379Y026401G85X056384Y026401
X056379Y028941G85X056384Y028941
X056379Y031481G85X056384Y031481
X056379Y034021G85X056384Y034021
X056379Y036561G85X056384Y036561
X030979Y-006619G85X030984Y-006619
X030979Y-004079G85X030984Y-004079
X030979Y-001539G85X030984Y-001539
X030979Y001001G85X030984Y001001
X030979Y003541G85X030984Y003541
X030979Y006081G85X030984Y006081
X030979Y008621G85X030984Y008621
X030979Y011161G85X030984Y011161
X030979Y013701G85X030984Y013701
X030979Y016241G85X030984Y016241
X030979Y018781G85X030984Y018781
X030979Y021321G85X030984Y021321
X030979Y023861G85X030984Y023861
X030979Y026401G85X030984Y026401
X030979Y028941G85X030984Y028941
X030979Y031481G85X030984Y031481
X030979Y-009159G85X030984Y-009159
X030979Y034021G85X030984Y034021
X030979Y036561G85X030984Y036561
X060063Y036561
X060063Y021321
X060063Y023861
X060063Y026401
X060063Y028941
X060063Y031481
X060063Y034021
X060063Y006081
X060063Y008621
X060063Y011161
X060063Y013701
X060063Y016241
X060063Y018781
X060063Y003541
X060063Y001001
X060063Y-001539
X060063Y-004079
X060063Y-006619
X060063Y-009159
X027170Y-009159
X027170Y-006619
X027170Y-004079
X027170Y-001539
X027170Y001001
X027170Y003541
X027170Y006081
X027170Y008621
X027170Y011161
X027170Y013701
X027170Y016241
X027170Y018781
X027170Y021321
X027170Y023861
X027170Y026401
X027170Y028941
X027170Y031481
X027170Y034021
X027170Y036561
T08
X015367Y006949
X015367Y001941
X087238Y013483
X087238Y018492
X087238Y002180
X087238Y007189
X087238Y-009250
X087238Y-004241
X087238Y036089
X087238Y041098
X015367Y061559
X015367Y056551
X015494Y-004481
X015494Y-009489
X015367Y029682
X015367Y024674
X015367Y018252
X015367Y013244
X087238Y024786
X087238Y029795
X015367Y040858
X015367Y035850
T09
X015000Y070000
X089000Y070000
X015000Y-015000
X089000Y-015000
M30
