G04 Layer: TopSolderMaskLayer*
G04 EasyEDA v6.5.42, 2024-04-02 15:40:29*
G04 8b502a5043014c5c8b579c1251e0877e,acb5ada5342d49438264df6f97d5643c,10*
G04 Gerber Generator version 0.2*
G04 Scale: 100 percent, Rotated: No, Reflected: No *
G04 Dimensions in millimeters *
G04 leading zeros omitted , absolute positions ,4 integer and 5 decimal *
%FSLAX45Y45*%
%MOMM*%

%AMMACRO1*1,1,$1,$2,$3*1,1,$1,$4,$5*1,1,$1,0-$2,0-$3*1,1,$1,0-$4,0-$5*20,1,$1,$2,$3,$4,$5,0*20,1,$1,$4,$5,0-$2,0-$3,0*20,1,$1,0-$2,0-$3,0-$4,0-$5,0*20,1,$1,0-$4,0-$5,$2,$3,0*4,1,4,$2,$3,$4,$5,0-$2,0-$3,0-$4,0-$5,$2,$3,0*%
%ADD10C,2.1016*%
%ADD11C,1.9812*%
%ADD12C,1.6764*%
%ADD13MACRO1,0.1016X0.7874X-0.7874X-0.7874X-0.7874*%
%ADD14MACRO1,0.2032X1.75X0.6X1.75X-0.6*%
%ADD15C,2.0500*%
%ADD16MACRO1,0.3X-0.875X0.875X0.875X0.875*%
%ADD17C,1.6617*%
%ADD18MACRO1,0.1016X-0.78X0.78X0.78X0.78*%
%ADD19C,1.2032*%
%ADD20R,1.3016X4.9016*%
%ADD21C,4.1016*%
%ADD22C,1.6616*%

%LPD*%
D10*
G01*
X1536700Y694944D03*
G01*
X1536700Y194055D03*
D11*
G01*
X7085507Y3097301D03*
G01*
X7085507Y4113301D03*
G01*
X7085507Y1649501D03*
G01*
X7085507Y2665501D03*
D10*
G01*
X8723807Y1348257D03*
G01*
X8723807Y1849145D03*
G01*
X8723807Y217957D03*
G01*
X8723807Y718845D03*
G01*
X8723807Y-925042D03*
G01*
X8723807Y-424154D03*
G01*
X8723807Y3608857D03*
G01*
X8723807Y4109745D03*
D12*
G01*
X6450507Y976401D03*
G01*
X6704507Y976401D03*
G01*
X6958507Y976401D03*
G01*
X7212507Y976401D03*
G01*
X7466507Y976401D03*
D13*
G01*
X7720507Y976414D03*
D14*
G01*
X7097800Y6491198D03*
G01*
X7097800Y6291198D03*
G01*
X7097800Y6091199D03*
G01*
X7097800Y5891199D03*
G01*
X7097800Y5691200D03*
G01*
X7097800Y5491200D03*
G01*
X7097800Y5291201D03*
G01*
X7097800Y5091201D03*
G01*
X8497797Y5091201D03*
G01*
X8497797Y5291201D03*
G01*
X8497797Y5491200D03*
G01*
X8497797Y5691200D03*
G01*
X8497797Y5891199D03*
G01*
X8497797Y6091199D03*
G01*
X8497797Y6291198D03*
G01*
X8497797Y6491198D03*
D15*
G01*
X2556789Y5612511D03*
G01*
X2556789Y6212509D03*
G01*
X5916802Y6812508D03*
D16*
G01*
X5916803Y5012486D03*
D10*
G01*
X1536700Y6155944D03*
G01*
X1536700Y5655055D03*
D17*
G01*
X5638114Y-915898D03*
G01*
X5638114Y-661898D03*
G01*
X5638114Y-407898D03*
G01*
X5638114Y-153898D03*
G01*
X5638114Y100101D03*
G01*
X5638114Y354101D03*
G01*
X5638114Y608101D03*
G01*
X5638114Y862101D03*
G01*
X5638114Y1116101D03*
G01*
X5638114Y1370101D03*
G01*
X5638114Y1624101D03*
G01*
X5638114Y1878101D03*
G01*
X5638114Y2132101D03*
G01*
X5638114Y2386101D03*
G01*
X5638114Y2640101D03*
G01*
X5638114Y2894101D03*
G01*
X5638114Y3148101D03*
G01*
X5638114Y3402101D03*
G01*
X5638114Y3656101D03*
G01*
X3098114Y-661898D03*
G01*
X3098114Y-407898D03*
G01*
X3098114Y-153898D03*
G01*
X3098114Y100101D03*
G01*
X3098114Y354101D03*
G01*
X3098114Y608101D03*
G01*
X3098114Y862101D03*
G01*
X3098114Y1116101D03*
G01*
X3098114Y1370101D03*
G01*
X3098114Y1624101D03*
G01*
X3098114Y1878101D03*
G01*
X3098114Y2132101D03*
G01*
X3098114Y2386101D03*
G01*
X3098114Y2640101D03*
G01*
X3098114Y2894101D03*
G01*
X3098114Y3148101D03*
G01*
X3098114Y-915898D03*
G01*
X3098114Y3402101D03*
D18*
G01*
X3098114Y3656114D03*
D19*
G01*
X1498600Y4827143D03*
G01*
X1498600Y4977256D03*
D10*
G01*
X1549400Y-448055D03*
G01*
X1549400Y-948944D03*
G01*
X1536700Y2968244D03*
G01*
X1536700Y2467355D03*
G01*
X1536700Y1825244D03*
G01*
X1536700Y1324355D03*
D20*
G01*
X8078190Y7150100D03*
G01*
X7568184Y7150100D03*
G01*
X7823200Y7150100D03*
D10*
G01*
X8723807Y2478557D03*
G01*
X8723807Y2979445D03*
G01*
X1536700Y4085844D03*
G01*
X1536700Y3584955D03*
D21*
G01*
X1499996Y6999986D03*
G01*
X8899982Y6999986D03*
G01*
X1499996Y-1499996D03*
G01*
X8899982Y-1499996D03*
D22*
G01*
X6006287Y3656101D03*
G01*
X6006287Y2132101D03*
G01*
X6006287Y2386101D03*
G01*
X6006287Y2640101D03*
G01*
X6006287Y2894101D03*
G01*
X6006287Y3148101D03*
G01*
X6006287Y3402101D03*
G01*
X6006287Y608101D03*
G01*
X6006287Y862101D03*
G01*
X6006287Y1116101D03*
G01*
X6006287Y1370101D03*
G01*
X6006287Y1624101D03*
G01*
X6006287Y1878101D03*
G01*
X6006287Y354101D03*
G01*
X6006287Y100101D03*
G01*
X6006287Y-153898D03*
G01*
X6006287Y-407898D03*
G01*
X6006287Y-661898D03*
G01*
X6006287Y-915898D03*
G01*
X2716987Y-915898D03*
G01*
X2716987Y-661898D03*
G01*
X2716987Y-407898D03*
G01*
X2716987Y-153898D03*
G01*
X2716987Y100101D03*
G01*
X2716987Y354101D03*
G01*
X2716987Y608101D03*
G01*
X2716987Y862101D03*
G01*
X2716987Y1116101D03*
G01*
X2716987Y1370101D03*
G01*
X2716987Y1624101D03*
G01*
X2716987Y1878101D03*
G01*
X2716987Y2132101D03*
G01*
X2716987Y2386101D03*
G01*
X2716987Y2640101D03*
G01*
X2716987Y2894101D03*
G01*
X2716987Y3148101D03*
G01*
X2716987Y3402101D03*
G01*
X2716987Y3656101D03*
M02*
