G04 Layer: TopLayer*
G04 EasyEDA v6.5.42, 2024-04-02 15:40:29*
G04 8b502a5043014c5c8b579c1251e0877e,acb5ada5342d49438264df6f97d5643c,10*
G04 Gerber Generator version 0.2*
G04 Scale: 100 percent, Rotated: No, Reflected: No *
G04 Dimensions in millimeters *
G04 leading zeros omitted , absolute positions ,4 integer and 5 decimal *
%FSLAX45Y45*%
%MOMM*%

%ADD10C,1.0000*%
%ADD11C,0.8000*%
%ADD12R,1.2000X4.8000*%
%ADD13C,2.0000*%
%ADD14C,1.8796*%
%ADD15C,1.5748*%
%ADD16R,1.5748X1.5748*%
%ADD17R,3.5000X1.2000*%
%ADD18C,1.7500*%
%ADD19R,1.7500X1.7500*%
%ADD20C,1.5601*%
%ADD21R,1.5601X1.5601*%
%ADD22C,4.0000*%
%ADD23C,1.5600*%
%ADD24C,0.0131*%

%LPD*%
G36*
X9298381Y-1853590D02*
G01*
X1064717Y-1828292D01*
X1060856Y-1827530D01*
X1057554Y-1825345D01*
X1055319Y-1822043D01*
X1054557Y-1818132D01*
X1041958Y7355331D01*
X1042720Y7359192D01*
X1044905Y7362494D01*
X1048207Y7364730D01*
X1052118Y7365492D01*
X7457541Y7365492D01*
X7461402Y7364730D01*
X7464704Y7362494D01*
X7466888Y7359243D01*
X7467701Y7355331D01*
X7467701Y7276439D01*
X7531811Y7276439D01*
X7531811Y7355331D01*
X7532624Y7359243D01*
X7534808Y7362494D01*
X7538110Y7364730D01*
X7541971Y7365492D01*
X7594396Y7365492D01*
X7598257Y7364730D01*
X7601559Y7362494D01*
X7603744Y7359243D01*
X7604556Y7355331D01*
X7604556Y7276439D01*
X7668717Y7276439D01*
X7668717Y7355331D01*
X7669479Y7359243D01*
X7671663Y7362494D01*
X7674965Y7364730D01*
X7678877Y7365492D01*
X7712506Y7365492D01*
X7716418Y7364730D01*
X7719720Y7362494D01*
X7721904Y7359243D01*
X7722666Y7355331D01*
X7722666Y6910628D01*
X7723530Y6902196D01*
X7725816Y6894626D01*
X7729524Y6887616D01*
X7732115Y6883603D01*
X7732674Y6880148D01*
X7732674Y6861759D01*
X7731912Y6857847D01*
X7729728Y6854545D01*
X7459878Y6584696D01*
X7456576Y6582511D01*
X7452664Y6581698D01*
X7302703Y6581698D01*
X7299299Y6582308D01*
X7295286Y6584848D01*
X7288275Y6588556D01*
X7280706Y6590893D01*
X7272324Y6591706D01*
X6923278Y6591706D01*
X6914896Y6590893D01*
X6907326Y6588556D01*
X6900316Y6584848D01*
X6894169Y6579819D01*
X6889140Y6573672D01*
X6885431Y6566662D01*
X6883095Y6559092D01*
X6882282Y6550710D01*
X6882282Y6431686D01*
X6883095Y6423304D01*
X6885431Y6415735D01*
X6889140Y6408724D01*
X6894169Y6402578D01*
X6898487Y6399072D01*
X6901230Y6395567D01*
X6902196Y6391198D01*
X6901230Y6386880D01*
X6898487Y6383324D01*
X6894169Y6379819D01*
X6889140Y6373672D01*
X6885431Y6366662D01*
X6883095Y6359093D01*
X6882282Y6350711D01*
X6882282Y6327546D01*
X7003948Y6327546D01*
X7003948Y6380530D01*
X7004710Y6384442D01*
X7006945Y6387693D01*
X7010196Y6389928D01*
X7014108Y6390690D01*
X7181494Y6390690D01*
X7185355Y6389928D01*
X7188657Y6387693D01*
X7190892Y6384442D01*
X7191654Y6380530D01*
X7191654Y6327546D01*
X7313320Y6327546D01*
X7313320Y6350711D01*
X7312456Y6359093D01*
X7310170Y6366662D01*
X7306462Y6373672D01*
X7301382Y6379819D01*
X7297877Y6382664D01*
X7295286Y6385915D01*
X7294219Y6389878D01*
X7294778Y6393942D01*
X7296912Y6397498D01*
X7300315Y6399885D01*
X7304328Y6400698D01*
X7494117Y6400698D01*
X7503820Y6401206D01*
X7506512Y6401511D01*
X7518603Y6404000D01*
X7530287Y6408115D01*
X7541259Y6413804D01*
X7549184Y6419189D01*
X7551369Y6420916D01*
X7558531Y6427419D01*
X7887004Y6755841D01*
X7893507Y6763054D01*
X7900619Y6773164D01*
X7901990Y6775551D01*
X7906258Y6784136D01*
X7907324Y6786676D01*
X7910372Y6795770D01*
X7911084Y6798462D01*
X7913217Y6810603D01*
X7913725Y6820306D01*
X7913725Y6880199D01*
X7914284Y6883603D01*
X7916824Y6887616D01*
X7920583Y6894626D01*
X7922869Y6902196D01*
X7923682Y6910628D01*
X7923682Y7355331D01*
X7924444Y7359243D01*
X7926679Y7362494D01*
X7929981Y7364730D01*
X7933842Y7365492D01*
X7967522Y7365492D01*
X7971434Y7364730D01*
X7974685Y7362494D01*
X7976920Y7359243D01*
X7977682Y7355331D01*
X7977682Y7276439D01*
X8041843Y7276439D01*
X8041843Y7355331D01*
X8042605Y7359243D01*
X8044840Y7362494D01*
X8048091Y7364730D01*
X8052003Y7365492D01*
X8104378Y7365492D01*
X8108289Y7364730D01*
X8111540Y7362494D01*
X8113775Y7359243D01*
X8114538Y7355331D01*
X8114538Y7276439D01*
X8178698Y7276439D01*
X8178698Y7355331D01*
X8179460Y7359243D01*
X8181695Y7362494D01*
X8184946Y7364730D01*
X8188858Y7365492D01*
X9285833Y7365492D01*
X9289694Y7364730D01*
X9292996Y7362545D01*
X9295180Y7359243D01*
X9295993Y7355331D01*
X9308592Y1633931D01*
X9308592Y-1843430D01*
X9307830Y-1847291D01*
X9305594Y-1850593D01*
X9302292Y-1852828D01*
G37*

%LPC*%
G36*
X1489202Y-1740255D02*
G01*
X1510792Y-1740255D01*
X1532280Y-1738325D01*
X1553514Y-1734464D01*
X1574292Y-1728724D01*
X1594510Y-1721154D01*
X1613966Y-1711807D01*
X1632508Y-1700733D01*
X1649933Y-1688033D01*
X1666189Y-1673860D01*
X1681124Y-1658213D01*
X1694586Y-1641348D01*
X1706473Y-1623364D01*
X1716684Y-1604365D01*
X1725168Y-1584502D01*
X1731822Y-1563979D01*
X1736648Y-1542948D01*
X1739544Y-1521561D01*
X1740509Y-1500022D01*
X1739544Y-1478432D01*
X1736648Y-1457045D01*
X1731822Y-1436014D01*
X1725168Y-1415491D01*
X1716684Y-1395679D01*
X1706473Y-1376629D01*
X1694586Y-1358646D01*
X1681124Y-1341780D01*
X1666189Y-1326184D01*
X1649933Y-1311960D01*
X1632508Y-1299311D01*
X1613966Y-1288237D01*
X1594510Y-1278839D01*
X1574292Y-1271270D01*
X1553514Y-1265529D01*
X1532280Y-1261668D01*
X1510792Y-1259738D01*
X1489202Y-1259738D01*
X1467713Y-1261668D01*
X1446479Y-1265529D01*
X1425702Y-1271270D01*
X1405483Y-1278839D01*
X1386027Y-1288237D01*
X1367485Y-1299311D01*
X1350060Y-1311960D01*
X1333804Y-1326184D01*
X1318869Y-1341780D01*
X1305407Y-1358646D01*
X1293520Y-1376629D01*
X1283309Y-1395679D01*
X1274826Y-1415491D01*
X1268171Y-1436014D01*
X1263345Y-1457045D01*
X1260449Y-1478432D01*
X1259484Y-1500022D01*
X1260449Y-1521561D01*
X1263345Y-1542948D01*
X1268171Y-1563979D01*
X1274826Y-1584502D01*
X1283309Y-1604365D01*
X1293520Y-1623364D01*
X1305407Y-1641348D01*
X1318869Y-1658213D01*
X1333804Y-1673860D01*
X1350060Y-1688033D01*
X1367485Y-1700733D01*
X1386027Y-1711807D01*
X1405483Y-1721154D01*
X1425702Y-1728724D01*
X1446479Y-1734464D01*
X1467713Y-1738325D01*
G37*
G36*
X8889187Y-1740255D02*
G01*
X8910777Y-1740255D01*
X8932265Y-1738325D01*
X8953500Y-1734464D01*
X8974277Y-1728724D01*
X8994495Y-1721154D01*
X9013952Y-1711807D01*
X9032494Y-1700733D01*
X9049918Y-1688033D01*
X9066174Y-1673860D01*
X9081109Y-1658213D01*
X9094571Y-1641348D01*
X9106458Y-1623364D01*
X9116669Y-1604365D01*
X9125153Y-1584502D01*
X9131808Y-1563979D01*
X9136634Y-1542948D01*
X9139529Y-1521561D01*
X9140494Y-1500022D01*
X9139529Y-1478432D01*
X9136634Y-1457045D01*
X9131808Y-1436014D01*
X9125153Y-1415491D01*
X9116669Y-1395679D01*
X9106458Y-1376629D01*
X9094571Y-1358646D01*
X9081109Y-1341780D01*
X9066174Y-1326184D01*
X9049918Y-1311960D01*
X9032494Y-1299311D01*
X9013952Y-1288237D01*
X8994495Y-1278839D01*
X8974277Y-1271270D01*
X8953500Y-1265529D01*
X8932265Y-1261668D01*
X8910777Y-1259738D01*
X8889187Y-1259738D01*
X8867698Y-1261668D01*
X8846464Y-1265529D01*
X8825687Y-1271270D01*
X8805468Y-1278839D01*
X8786012Y-1288237D01*
X8767470Y-1299311D01*
X8750046Y-1311960D01*
X8733790Y-1326184D01*
X8718854Y-1341780D01*
X8705392Y-1358646D01*
X8693505Y-1376629D01*
X8683294Y-1395679D01*
X8674811Y-1415491D01*
X8668156Y-1436014D01*
X8663330Y-1457045D01*
X8660434Y-1478432D01*
X8659469Y-1500022D01*
X8660434Y-1521561D01*
X8663330Y-1542948D01*
X8668156Y-1563979D01*
X8674811Y-1584502D01*
X8683294Y-1604365D01*
X8693505Y-1623364D01*
X8705392Y-1641348D01*
X8718854Y-1658213D01*
X8733790Y-1673860D01*
X8750046Y-1688033D01*
X8767470Y-1700733D01*
X8786012Y-1711807D01*
X8805468Y-1721154D01*
X8825687Y-1728724D01*
X8846464Y-1734464D01*
X8867698Y-1738325D01*
G37*
G36*
X1803400Y-1283360D02*
G01*
X3224123Y-1283309D01*
X3233470Y-1282446D01*
X3236061Y-1281988D01*
X3245205Y-1279702D01*
X3247694Y-1278890D01*
X3256381Y-1275283D01*
X3258718Y-1274114D01*
X3268929Y-1267764D01*
X3276193Y-1261719D01*
X4924501Y386638D01*
X4927752Y388975D01*
X4931664Y389839D01*
X4935626Y389128D01*
X4938979Y386943D01*
X4941265Y383641D01*
X4942027Y379679D01*
X4942027Y-554583D01*
X4942535Y-564235D01*
X4944668Y-576427D01*
X4948428Y-588213D01*
X4953762Y-599338D01*
X4955133Y-601726D01*
X4960569Y-609650D01*
X4962245Y-611784D01*
X4968748Y-618998D01*
X5497982Y-1148232D01*
X5505145Y-1154734D01*
X5515254Y-1161846D01*
X5517642Y-1163218D01*
X5526227Y-1167485D01*
X5528767Y-1168552D01*
X5540552Y-1172311D01*
X5552694Y-1174445D01*
X5562396Y-1174902D01*
X6086094Y-1174902D01*
X6095796Y-1174445D01*
X6107938Y-1172311D01*
X6119723Y-1168552D01*
X6122263Y-1167485D01*
X6130848Y-1163218D01*
X6133236Y-1161846D01*
X6143345Y-1154734D01*
X6150508Y-1148232D01*
X7784338Y485546D01*
X7790840Y492759D01*
X7797901Y502869D01*
X7799324Y505256D01*
X7803591Y513842D01*
X7804658Y516382D01*
X7807706Y525475D01*
X7808417Y528167D01*
X7810195Y537616D01*
X7810500Y540308D01*
X7811008Y550011D01*
X7811008Y852220D01*
X7811668Y855776D01*
X7813548Y858926D01*
X7816392Y861161D01*
X7821726Y864057D01*
X7827873Y869086D01*
X7832902Y875182D01*
X7836611Y882192D01*
X7838948Y889762D01*
X7839760Y898194D01*
X7839760Y1054658D01*
X7838948Y1063040D01*
X7836611Y1070660D01*
X7832902Y1077620D01*
X7827873Y1083767D01*
X7821726Y1088796D01*
X7814716Y1092555D01*
X7807147Y1094841D01*
X7798765Y1095654D01*
X7642250Y1095654D01*
X7633868Y1094841D01*
X7626299Y1092555D01*
X7619288Y1088796D01*
X7613142Y1083767D01*
X7608112Y1077620D01*
X7604404Y1070660D01*
X7602067Y1063040D01*
X7601254Y1054658D01*
X7601254Y898194D01*
X7602067Y889762D01*
X7604404Y882192D01*
X7608112Y875182D01*
X7613142Y869086D01*
X7619288Y864057D01*
X7624622Y861161D01*
X7627467Y858926D01*
X7629347Y855776D01*
X7630007Y852220D01*
X7630007Y591464D01*
X7629245Y587552D01*
X7627010Y584250D01*
X6140297Y-902512D01*
X6136589Y-904849D01*
X6132271Y-905408D01*
X6128105Y-904138D01*
X6124854Y-901242D01*
X6123127Y-897229D01*
X6121044Y-886409D01*
X6116472Y-872286D01*
X6110122Y-858824D01*
X6102146Y-846226D01*
X6092647Y-834796D01*
X6081826Y-824585D01*
X6069787Y-815848D01*
X6056731Y-808685D01*
X6042914Y-803198D01*
X6028486Y-799490D01*
X6024270Y-798982D01*
X6020358Y-797610D01*
X6017260Y-794766D01*
X6015634Y-790956D01*
X6015634Y-786790D01*
X6017260Y-782980D01*
X6020358Y-780186D01*
X6024270Y-778814D01*
X6028486Y-778256D01*
X6042914Y-774598D01*
X6056731Y-769112D01*
X6069787Y-761949D01*
X6081826Y-753160D01*
X6092647Y-743000D01*
X6102146Y-731520D01*
X6110122Y-718972D01*
X6116472Y-705510D01*
X6121044Y-691337D01*
X6123838Y-676757D01*
X6124752Y-661873D01*
X6123838Y-647039D01*
X6121044Y-632409D01*
X6116472Y-618286D01*
X6110122Y-604824D01*
X6102146Y-592226D01*
X6092647Y-580796D01*
X6081826Y-570585D01*
X6069787Y-561848D01*
X6056731Y-554685D01*
X6042914Y-549198D01*
X6028486Y-545490D01*
X6024270Y-544982D01*
X6020358Y-543610D01*
X6017260Y-540766D01*
X6015634Y-536956D01*
X6015634Y-532790D01*
X6017260Y-528980D01*
X6020358Y-526186D01*
X6024270Y-524814D01*
X6028486Y-524256D01*
X6042914Y-520598D01*
X6056731Y-515112D01*
X6069787Y-507949D01*
X6081826Y-499160D01*
X6092647Y-489000D01*
X6102146Y-477520D01*
X6110122Y-464972D01*
X6116472Y-451510D01*
X6121044Y-437337D01*
X6123838Y-422757D01*
X6124752Y-407873D01*
X6123838Y-393039D01*
X6121044Y-378409D01*
X6116472Y-364286D01*
X6110122Y-350824D01*
X6102146Y-338226D01*
X6092647Y-326796D01*
X6081826Y-316585D01*
X6069787Y-307848D01*
X6056731Y-300685D01*
X6042914Y-295198D01*
X6028486Y-291490D01*
X6024270Y-290982D01*
X6020358Y-289610D01*
X6017260Y-286766D01*
X6015634Y-282956D01*
X6015634Y-278790D01*
X6017260Y-274980D01*
X6020358Y-272186D01*
X6024270Y-270814D01*
X6028486Y-270256D01*
X6042914Y-266598D01*
X6056731Y-261112D01*
X6069787Y-253949D01*
X6081826Y-245160D01*
X6092647Y-235000D01*
X6102146Y-223520D01*
X6110122Y-210972D01*
X6116472Y-197510D01*
X6121044Y-183337D01*
X6123838Y-168757D01*
X6124752Y-153873D01*
X6123838Y-139039D01*
X6121044Y-124409D01*
X6116472Y-110286D01*
X6110122Y-96824D01*
X6102146Y-84226D01*
X6092647Y-72796D01*
X6081826Y-62585D01*
X6069787Y-53848D01*
X6056731Y-46685D01*
X6042914Y-41198D01*
X6028486Y-37490D01*
X6024270Y-36982D01*
X6020358Y-35610D01*
X6017260Y-32766D01*
X6015634Y-28956D01*
X6015634Y-24790D01*
X6017260Y-20980D01*
X6020358Y-18186D01*
X6024270Y-16814D01*
X6028486Y-16256D01*
X6042914Y-12598D01*
X6056731Y-7112D01*
X6069787Y50D01*
X6081826Y8839D01*
X6092647Y18999D01*
X6102146Y30480D01*
X6110122Y43027D01*
X6116472Y56489D01*
X6121044Y70662D01*
X6123838Y85242D01*
X6124752Y100126D01*
X6123838Y114960D01*
X6121044Y129590D01*
X6116472Y143713D01*
X6110122Y157175D01*
X6102146Y169773D01*
X6092647Y181203D01*
X6081826Y191414D01*
X6069787Y200152D01*
X6056731Y207314D01*
X6042914Y212801D01*
X6028486Y216509D01*
X6024270Y217017D01*
X6020358Y218389D01*
X6017260Y221234D01*
X6015634Y225044D01*
X6015634Y229209D01*
X6017260Y233019D01*
X6020358Y235813D01*
X6024270Y237185D01*
X6028486Y237744D01*
X6042914Y241401D01*
X6056731Y246888D01*
X6069787Y254050D01*
X6081826Y262839D01*
X6092647Y272999D01*
X6102146Y284480D01*
X6110122Y297027D01*
X6116472Y310489D01*
X6121044Y324662D01*
X6123838Y339242D01*
X6124752Y354126D01*
X6123838Y368960D01*
X6121044Y383590D01*
X6116472Y397713D01*
X6110122Y411175D01*
X6102146Y423773D01*
X6092647Y435203D01*
X6081826Y445414D01*
X6069787Y454151D01*
X6056731Y461314D01*
X6042914Y466801D01*
X6028486Y470509D01*
X6024270Y471017D01*
X6020358Y472389D01*
X6017260Y475234D01*
X6015634Y479043D01*
X6015634Y483209D01*
X6017260Y487019D01*
X6020358Y489813D01*
X6024270Y491185D01*
X6028486Y491743D01*
X6042914Y495401D01*
X6056731Y500888D01*
X6069787Y508050D01*
X6081826Y516839D01*
X6092647Y526999D01*
X6102146Y538480D01*
X6110122Y551027D01*
X6116472Y564489D01*
X6121044Y578662D01*
X6123838Y593242D01*
X6124752Y608126D01*
X6123838Y622960D01*
X6121044Y637590D01*
X6116472Y651713D01*
X6110122Y665175D01*
X6102146Y677773D01*
X6092647Y689203D01*
X6081826Y699414D01*
X6069787Y708152D01*
X6056731Y715314D01*
X6042914Y720801D01*
X6028486Y724509D01*
X6024270Y725017D01*
X6020358Y726389D01*
X6017260Y729234D01*
X6015634Y733044D01*
X6015634Y737209D01*
X6017260Y741019D01*
X6020358Y743813D01*
X6024270Y745185D01*
X6028486Y745744D01*
X6042914Y749401D01*
X6056731Y754888D01*
X6069787Y762050D01*
X6081826Y770839D01*
X6092647Y780999D01*
X6102146Y792480D01*
X6110122Y805027D01*
X6116472Y818489D01*
X6121044Y832662D01*
X6123838Y847242D01*
X6124752Y862126D01*
X6123838Y876960D01*
X6121044Y891590D01*
X6116472Y905713D01*
X6110122Y919175D01*
X6102146Y931773D01*
X6092647Y943203D01*
X6081826Y953414D01*
X6069787Y962152D01*
X6056731Y969314D01*
X6042914Y974801D01*
X6028486Y978509D01*
X6024270Y979017D01*
X6020358Y980389D01*
X6017260Y983234D01*
X6015634Y987044D01*
X6015634Y991209D01*
X6017260Y995019D01*
X6020358Y997813D01*
X6024270Y999185D01*
X6028486Y999744D01*
X6042914Y1003401D01*
X6056731Y1008887D01*
X6069787Y1016050D01*
X6081826Y1024839D01*
X6092647Y1034999D01*
X6102146Y1046480D01*
X6110122Y1059027D01*
X6116472Y1072489D01*
X6121044Y1086662D01*
X6123838Y1101242D01*
X6124752Y1116126D01*
X6123838Y1130960D01*
X6121044Y1145590D01*
X6116472Y1159713D01*
X6110122Y1173175D01*
X6102146Y1185773D01*
X6092647Y1197203D01*
X6081826Y1207414D01*
X6069787Y1216152D01*
X6056731Y1223314D01*
X6042914Y1228801D01*
X6028486Y1232509D01*
X6024270Y1233017D01*
X6020358Y1234389D01*
X6017260Y1237234D01*
X6015634Y1241044D01*
X6015634Y1245209D01*
X6017260Y1249019D01*
X6020358Y1251813D01*
X6024270Y1253185D01*
X6028486Y1253744D01*
X6042914Y1257401D01*
X6056731Y1262888D01*
X6069787Y1270050D01*
X6081826Y1278839D01*
X6092647Y1288999D01*
X6102146Y1300480D01*
X6110122Y1313027D01*
X6116472Y1326489D01*
X6121044Y1340662D01*
X6123838Y1355242D01*
X6124752Y1370126D01*
X6123838Y1384960D01*
X6121044Y1399590D01*
X6116472Y1413713D01*
X6110122Y1427175D01*
X6102146Y1439773D01*
X6092647Y1451203D01*
X6081826Y1461414D01*
X6069787Y1470152D01*
X6056731Y1477314D01*
X6042914Y1482801D01*
X6028486Y1486509D01*
X6024270Y1487017D01*
X6020358Y1488389D01*
X6017260Y1491234D01*
X6015634Y1495044D01*
X6015634Y1499209D01*
X6017260Y1503019D01*
X6020358Y1505813D01*
X6024270Y1507185D01*
X6028486Y1507744D01*
X6042914Y1511401D01*
X6056731Y1516888D01*
X6069787Y1524050D01*
X6081826Y1532839D01*
X6092647Y1542999D01*
X6102146Y1554480D01*
X6110122Y1567027D01*
X6116472Y1580489D01*
X6121044Y1594662D01*
X6123838Y1609242D01*
X6124752Y1624126D01*
X6123838Y1638960D01*
X6121044Y1653590D01*
X6116472Y1667713D01*
X6110122Y1681175D01*
X6102146Y1693773D01*
X6092647Y1705203D01*
X6081826Y1715414D01*
X6069787Y1724152D01*
X6056731Y1731314D01*
X6042914Y1736801D01*
X6028486Y1740509D01*
X6024270Y1741017D01*
X6020358Y1742389D01*
X6017260Y1745234D01*
X6015634Y1749043D01*
X6015634Y1753209D01*
X6017260Y1757019D01*
X6020358Y1759813D01*
X6024270Y1761185D01*
X6028486Y1761743D01*
X6042914Y1765401D01*
X6056731Y1770888D01*
X6069787Y1778050D01*
X6081826Y1786839D01*
X6092647Y1796999D01*
X6102146Y1808480D01*
X6110122Y1821027D01*
X6116472Y1834489D01*
X6121044Y1848662D01*
X6123838Y1863242D01*
X6124752Y1878126D01*
X6123838Y1892960D01*
X6121044Y1907590D01*
X6116472Y1921713D01*
X6110122Y1935175D01*
X6102146Y1947773D01*
X6092647Y1959203D01*
X6081826Y1969414D01*
X6069787Y1978152D01*
X6056731Y1985314D01*
X6042914Y1990801D01*
X6028486Y1994509D01*
X6013704Y1996389D01*
X5998870Y1996389D01*
X5984087Y1994509D01*
X5969660Y1990801D01*
X5955842Y1985314D01*
X5942787Y1978152D01*
X5940907Y1976780D01*
X5936843Y1975002D01*
X5932424Y1975154D01*
X5928461Y1977186D01*
X5925718Y1980692D01*
X5924753Y1985010D01*
X5924753Y2025243D01*
X5925718Y2029561D01*
X5928461Y2033066D01*
X5932424Y2035048D01*
X5936843Y2035200D01*
X5940907Y2033473D01*
X5942787Y2032050D01*
X5955842Y2024888D01*
X5960922Y2022906D01*
X5960922Y2086762D01*
X5934913Y2086762D01*
X5931052Y2087524D01*
X5927750Y2089759D01*
X5925566Y2093010D01*
X5924753Y2096922D01*
X5924753Y2167280D01*
X5925566Y2171192D01*
X5927750Y2174494D01*
X5931052Y2176678D01*
X5934913Y2177440D01*
X5960922Y2177440D01*
X5960922Y2241346D01*
X5955842Y2239314D01*
X5942787Y2232152D01*
X5940907Y2230780D01*
X5936843Y2229002D01*
X5932424Y2229154D01*
X5928461Y2231186D01*
X5925718Y2234692D01*
X5924753Y2239010D01*
X5924753Y2279243D01*
X5925718Y2283561D01*
X5928461Y2287066D01*
X5932424Y2289048D01*
X5936843Y2289200D01*
X5940907Y2287473D01*
X5942787Y2286050D01*
X5955842Y2278888D01*
X5969660Y2273401D01*
X5984087Y2269744D01*
X5998870Y2267864D01*
X6006490Y2267864D01*
X6010351Y2267102D01*
X6013653Y2264867D01*
X6048654Y2229866D01*
X6050838Y2226564D01*
X6051651Y2222703D01*
X6051651Y2177440D01*
X6096863Y2177440D01*
X6100775Y2176678D01*
X6104077Y2174494D01*
X6239357Y2039213D01*
X6241542Y2035911D01*
X6242304Y2032000D01*
X6242354Y1609293D01*
X6243675Y1597304D01*
X6245961Y1588211D01*
X6246774Y1585671D01*
X6250381Y1576984D01*
X6251549Y1574647D01*
X6256426Y1566570D01*
X6257950Y1564436D01*
X6263944Y1557223D01*
X6708343Y1112723D01*
X6710527Y1109472D01*
X6711340Y1105662D01*
X6710629Y1101801D01*
X6708495Y1098499D01*
X6705295Y1096264D01*
X6701485Y1095400D01*
X6693509Y1095146D01*
X6678980Y1092860D01*
X6664858Y1088847D01*
X6651345Y1083157D01*
X6638645Y1075791D01*
X6626910Y1066952D01*
X6616395Y1056741D01*
X6607200Y1045311D01*
X6599478Y1032814D01*
X6593331Y1019505D01*
X6588861Y1005484D01*
X6587591Y998677D01*
X6586169Y995070D01*
X6583476Y992225D01*
X6579870Y990650D01*
X6575958Y990549D01*
X6572300Y991869D01*
X6569456Y994562D01*
X6567779Y998067D01*
X6564122Y1012545D01*
X6558838Y1026261D01*
X6551879Y1039164D01*
X6543395Y1051153D01*
X6533489Y1062024D01*
X6522364Y1071575D01*
X6510121Y1079652D01*
X6496964Y1086205D01*
X6483146Y1091082D01*
X6468821Y1094232D01*
X6454190Y1095603D01*
X6439509Y1095146D01*
X6424980Y1092860D01*
X6410858Y1088847D01*
X6397345Y1083157D01*
X6384645Y1075791D01*
X6372910Y1066952D01*
X6362395Y1056741D01*
X6353200Y1045311D01*
X6345478Y1032814D01*
X6339332Y1019505D01*
X6334861Y1005484D01*
X6332169Y991057D01*
X6331254Y976426D01*
X6332169Y961745D01*
X6334861Y947318D01*
X6339332Y933348D01*
X6345478Y919987D01*
X6353200Y907542D01*
X6362395Y896112D01*
X6372910Y885850D01*
X6384645Y877011D01*
X6397345Y869696D01*
X6410858Y863955D01*
X6424980Y859942D01*
X6439509Y857707D01*
X6454190Y857250D01*
X6468821Y858621D01*
X6483146Y861720D01*
X6496964Y866597D01*
X6510121Y873150D01*
X6522364Y881278D01*
X6533489Y890828D01*
X6543395Y901649D01*
X6551879Y913637D01*
X6558838Y926592D01*
X6564122Y940257D01*
X6567779Y954735D01*
X6569456Y958291D01*
X6572300Y960932D01*
X6575958Y962304D01*
X6579870Y962152D01*
X6583476Y960577D01*
X6586169Y957783D01*
X6587591Y954125D01*
X6588861Y947318D01*
X6593331Y933348D01*
X6599478Y919987D01*
X6607200Y907542D01*
X6616395Y896112D01*
X6626910Y885850D01*
X6638645Y877011D01*
X6651345Y869696D01*
X6664858Y863955D01*
X6678980Y859942D01*
X6693509Y857707D01*
X6708190Y857250D01*
X6722821Y858621D01*
X6737146Y861720D01*
X6750964Y866597D01*
X6764121Y873150D01*
X6776364Y881278D01*
X6787489Y890828D01*
X6797395Y901649D01*
X6805879Y913637D01*
X6812838Y926592D01*
X6818122Y940257D01*
X6821779Y954735D01*
X6823456Y958291D01*
X6826300Y960932D01*
X6829958Y962304D01*
X6833870Y962152D01*
X6837476Y960577D01*
X6840169Y957783D01*
X6841591Y954125D01*
X6842861Y947318D01*
X6847331Y933348D01*
X6853478Y919987D01*
X6861200Y907542D01*
X6870395Y896112D01*
X6880910Y885850D01*
X6892645Y877011D01*
X6905345Y869696D01*
X6918858Y863955D01*
X6932980Y859942D01*
X6947509Y857707D01*
X6962190Y857250D01*
X6976821Y858621D01*
X6991146Y861720D01*
X7004964Y866597D01*
X7018121Y873150D01*
X7030364Y881278D01*
X7041489Y890828D01*
X7051395Y901649D01*
X7059879Y913637D01*
X7066838Y926592D01*
X7072122Y940257D01*
X7075779Y954735D01*
X7077456Y958291D01*
X7080300Y960932D01*
X7083958Y962304D01*
X7087870Y962152D01*
X7091476Y960577D01*
X7094169Y957783D01*
X7095591Y954125D01*
X7096861Y947318D01*
X7101331Y933348D01*
X7107478Y919987D01*
X7115200Y907542D01*
X7124395Y896112D01*
X7134910Y885850D01*
X7146645Y877011D01*
X7159345Y869696D01*
X7172858Y863955D01*
X7186980Y859942D01*
X7201509Y857707D01*
X7216190Y857250D01*
X7230821Y858621D01*
X7245146Y861720D01*
X7258964Y866597D01*
X7272121Y873150D01*
X7284364Y881278D01*
X7295489Y890828D01*
X7305395Y901649D01*
X7313879Y913637D01*
X7320838Y926592D01*
X7326122Y940257D01*
X7329728Y954481D01*
X7331506Y969060D01*
X7331506Y983742D01*
X7329627Y998677D01*
X7326122Y1012545D01*
X7320838Y1026261D01*
X7313879Y1039164D01*
X7305395Y1051153D01*
X7295489Y1062024D01*
X7284364Y1071575D01*
X7272121Y1079652D01*
X7258964Y1086205D01*
X7245146Y1091082D01*
X7230821Y1094232D01*
X7216190Y1095603D01*
X7211872Y1095451D01*
X7207808Y1096162D01*
X7204354Y1098448D01*
X6599885Y1702917D01*
X6597700Y1706168D01*
X6596888Y1710080D01*
X6596837Y2640838D01*
X6595973Y2650185D01*
X6595516Y2652776D01*
X6593281Y2661920D01*
X6592468Y2664409D01*
X6588861Y2673096D01*
X6582816Y2683510D01*
X6581292Y2685643D01*
X6575298Y2692908D01*
X6127750Y3140506D01*
X6125667Y3143554D01*
X6124803Y3147110D01*
X6123838Y3162960D01*
X6121044Y3177590D01*
X6116472Y3191713D01*
X6110122Y3205175D01*
X6102146Y3217773D01*
X6092647Y3229203D01*
X6081826Y3239414D01*
X6069787Y3248152D01*
X6056731Y3255314D01*
X6042914Y3260801D01*
X6028486Y3264509D01*
X6024270Y3265017D01*
X6020358Y3266389D01*
X6017260Y3269234D01*
X6015634Y3273044D01*
X6015634Y3277209D01*
X6017260Y3281019D01*
X6020358Y3283813D01*
X6024270Y3285185D01*
X6028486Y3285744D01*
X6042914Y3289401D01*
X6056731Y3294887D01*
X6069787Y3302050D01*
X6081826Y3310839D01*
X6092647Y3320999D01*
X6102146Y3332479D01*
X6110122Y3345027D01*
X6116472Y3358489D01*
X6121044Y3372662D01*
X6123838Y3387242D01*
X6124752Y3402126D01*
X6123838Y3416960D01*
X6121044Y3431590D01*
X6116472Y3445713D01*
X6110122Y3459175D01*
X6102146Y3471773D01*
X6092647Y3483203D01*
X6081826Y3493414D01*
X6069787Y3502151D01*
X6056731Y3509314D01*
X6042914Y3514801D01*
X6028486Y3518509D01*
X6013704Y3520389D01*
X5998870Y3520389D01*
X5984087Y3518509D01*
X5969660Y3514801D01*
X5955842Y3509314D01*
X5942787Y3502151D01*
X5940907Y3500780D01*
X5936843Y3499002D01*
X5932424Y3499154D01*
X5928461Y3501186D01*
X5925718Y3504692D01*
X5924753Y3509010D01*
X5924753Y3549243D01*
X5925718Y3553561D01*
X5928461Y3557066D01*
X5932424Y3559048D01*
X5936843Y3559200D01*
X5940907Y3557473D01*
X5942787Y3556050D01*
X5955842Y3548887D01*
X5960922Y3546906D01*
X5960922Y3610762D01*
X5934913Y3610762D01*
X5931052Y3611524D01*
X5927750Y3613759D01*
X5925566Y3617010D01*
X5924753Y3620922D01*
X5924753Y3689451D01*
X5925566Y3693363D01*
X5927750Y3696665D01*
X5929579Y3698494D01*
X5932881Y3700678D01*
X5936742Y3701440D01*
X5960922Y3701440D01*
X5960922Y3725621D01*
X5961735Y3729532D01*
X5963920Y3732834D01*
X6260896Y4029811D01*
X6264198Y4032046D01*
X6268110Y4032808D01*
X6866026Y4032808D01*
X6869988Y4031996D01*
X6873290Y4029760D01*
X6875475Y4026408D01*
X6876186Y4022445D01*
X6875322Y4018534D01*
X6870039Y4006646D01*
X6866585Y3994556D01*
X6864807Y3982008D01*
X6864807Y3969410D01*
X6866585Y3956913D01*
X6870039Y3944772D01*
X6875170Y3933240D01*
X6881875Y3922522D01*
X6890003Y3912870D01*
X6899351Y3904437D01*
X6909816Y3897376D01*
X6921195Y3891838D01*
X6926884Y3889705D01*
X6928713Y3888232D01*
X7181037Y3635908D01*
X7183221Y3632606D01*
X7184034Y3628694D01*
X7184034Y3211576D01*
X7183018Y3207207D01*
X7180275Y3203702D01*
X7176312Y3201720D01*
X7171842Y3201619D01*
X7167778Y3203397D01*
X7159396Y3209645D01*
X7145883Y3217468D01*
X7138873Y3220516D01*
X7138873Y3150666D01*
X7173874Y3150666D01*
X7177735Y3149904D01*
X7181037Y3147669D01*
X7183221Y3144367D01*
X7184034Y3140506D01*
X7184034Y3054146D01*
X7183221Y3050235D01*
X7181037Y3046933D01*
X7177735Y3044748D01*
X7173874Y3043986D01*
X7138873Y3043986D01*
X7138873Y2974136D01*
X7145883Y2977134D01*
X7159396Y2984957D01*
X7167778Y2991205D01*
X7171842Y2993034D01*
X7176312Y2992932D01*
X7180275Y2990900D01*
X7183018Y2987395D01*
X7184034Y2983077D01*
X7184034Y2867101D01*
X7183120Y2862935D01*
X7179513Y2854756D01*
X7176008Y2842666D01*
X7174280Y2830118D01*
X7174280Y2817520D01*
X7176008Y2805023D01*
X7179513Y2792882D01*
X7183678Y2783484D01*
X7184542Y2779166D01*
X7183526Y2774848D01*
X7180732Y2771444D01*
X7176770Y2769463D01*
X7172350Y2769412D01*
X7168337Y2771190D01*
X7159396Y2777845D01*
X7145883Y2785668D01*
X7131507Y2791866D01*
X7116521Y2796336D01*
X7101128Y2799080D01*
X7085533Y2799994D01*
X7069886Y2799080D01*
X7054494Y2796336D01*
X7039508Y2791866D01*
X7025182Y2785668D01*
X7011619Y2777845D01*
X6999071Y2768549D01*
X6987692Y2757779D01*
X6977634Y2745790D01*
X6969048Y2732735D01*
X6962038Y2718765D01*
X6956704Y2704084D01*
X6953097Y2688844D01*
X6951268Y2673350D01*
X6951268Y2657703D01*
X6953097Y2642158D01*
X6956704Y2626969D01*
X6962038Y2612237D01*
X6969048Y2598267D01*
X6977634Y2585212D01*
X6987692Y2573223D01*
X6999071Y2562504D01*
X7011619Y2553157D01*
X7025182Y2545334D01*
X7039508Y2539136D01*
X7054494Y2534666D01*
X7069886Y2531973D01*
X7085533Y2531059D01*
X7100417Y2531922D01*
X7104634Y2531262D01*
X7108190Y2528976D01*
X7907426Y1729739D01*
X7909610Y1726438D01*
X7910423Y1722526D01*
X7910474Y-194970D01*
X7911338Y-204317D01*
X7911795Y-206908D01*
X7914030Y-216052D01*
X7914843Y-218541D01*
X7918450Y-227228D01*
X7924495Y-237642D01*
X7926019Y-239775D01*
X7932013Y-247040D01*
X8581999Y-897077D01*
X8583879Y-899617D01*
X8584844Y-902563D01*
X8584895Y-905713D01*
X8583828Y-913028D01*
X8583371Y-929030D01*
X8584742Y-945032D01*
X8587943Y-960729D01*
X8592870Y-976020D01*
X8599576Y-990600D01*
X8607856Y-1004316D01*
X8617610Y-1017016D01*
X8628786Y-1028547D01*
X8641232Y-1038707D01*
X8654745Y-1047343D01*
X8669121Y-1054455D01*
X8684209Y-1059840D01*
X8699855Y-1063447D01*
X8715806Y-1065276D01*
X8731808Y-1065276D01*
X8747760Y-1063447D01*
X8763406Y-1059840D01*
X8778494Y-1054455D01*
X8792870Y-1047343D01*
X8806383Y-1038707D01*
X8818829Y-1028547D01*
X8830005Y-1017016D01*
X8839758Y-1004316D01*
X8848039Y-990600D01*
X8854744Y-976020D01*
X8859672Y-960729D01*
X8862872Y-945032D01*
X8864244Y-929030D01*
X8863787Y-913028D01*
X8861501Y-897128D01*
X8857437Y-881634D01*
X8851595Y-866648D01*
X8844127Y-852474D01*
X8835085Y-839216D01*
X8824569Y-827125D01*
X8812733Y-816254D01*
X8799779Y-806856D01*
X8785809Y-798931D01*
X8771026Y-792734D01*
X8755634Y-788212D01*
X8739835Y-785469D01*
X8723833Y-784555D01*
X8707780Y-785469D01*
X8704732Y-785977D01*
X8701481Y-786028D01*
X8698433Y-785063D01*
X8695791Y-783183D01*
X8074406Y-161747D01*
X8072221Y-158496D01*
X8071408Y-154584D01*
X8071358Y1762912D01*
X8070494Y1772310D01*
X8070037Y1774901D01*
X8067802Y1783994D01*
X8066989Y1786534D01*
X8063382Y1795221D01*
X8057337Y1805635D01*
X8055813Y1807768D01*
X8049818Y1814982D01*
X7221931Y2642971D01*
X7220102Y2645410D01*
X7219086Y2648305D01*
X7218984Y2651302D01*
X7219746Y2657703D01*
X7219746Y2673350D01*
X7217918Y2688844D01*
X7214311Y2704084D01*
X7208977Y2718765D01*
X7201966Y2732735D01*
X7200950Y2734259D01*
X7199477Y2737916D01*
X7199528Y2741879D01*
X7201052Y2745536D01*
X7203846Y2748330D01*
X7207503Y2749804D01*
X7211466Y2749804D01*
X7215124Y2748280D01*
X7219289Y2745486D01*
X7230618Y2739948D01*
X7242657Y2736037D01*
X7255052Y2733852D01*
X7267702Y2733395D01*
X7280249Y2734716D01*
X7292492Y2737764D01*
X7304176Y2742488D01*
X7315149Y2748838D01*
X7325055Y2756611D01*
X7333843Y2765653D01*
X7341260Y2775864D01*
X7347203Y2787040D01*
X7351522Y2798876D01*
X7354112Y2811221D01*
X7355027Y2823819D01*
X7354112Y2836418D01*
X7351522Y2848762D01*
X7347203Y2860649D01*
X7345324Y2864764D01*
X7345019Y2867202D01*
X7344968Y3669080D01*
X7344105Y3678478D01*
X7343648Y3681069D01*
X7341412Y3690162D01*
X7340600Y3692702D01*
X7336993Y3701389D01*
X7330948Y3711803D01*
X7329424Y3713937D01*
X7323429Y3721150D01*
X7082891Y3961739D01*
X7080758Y3964940D01*
X7079945Y3968750D01*
X7080605Y3972560D01*
X7082637Y3975811D01*
X7085736Y3978097D01*
X7089495Y3979062D01*
X7101128Y3979773D01*
X7116521Y3982465D01*
X7131507Y3986936D01*
X7145883Y3993134D01*
X7159396Y4000957D01*
X7171944Y4010304D01*
X7183323Y4021023D01*
X7193381Y4033012D01*
X7201966Y4046067D01*
X7208977Y4060037D01*
X7214311Y4074769D01*
X7217918Y4089958D01*
X7219746Y4105503D01*
X7219746Y4121150D01*
X7217918Y4136644D01*
X7214311Y4151884D01*
X7208977Y4166565D01*
X7201966Y4180535D01*
X7193991Y4192676D01*
X7192416Y4196740D01*
X7192721Y4201058D01*
X7194753Y4204868D01*
X7198258Y4207510D01*
X7202474Y4208424D01*
X7255560Y4208424D01*
X7259472Y4207662D01*
X7262774Y4205427D01*
X8057540Y3410661D01*
X8059115Y3408629D01*
X8065414Y3394303D01*
X8072120Y3383584D01*
X8080197Y3373882D01*
X8089595Y3365449D01*
X8100059Y3358387D01*
X8111388Y3352850D01*
X8123428Y3348939D01*
X8135823Y3346754D01*
X8148472Y3346348D01*
X8161020Y3347669D01*
X8173262Y3350717D01*
X8184946Y3355441D01*
X8195919Y3361740D01*
X8205825Y3369513D01*
X8214614Y3378606D01*
X8222030Y3388817D01*
X8227974Y3399942D01*
X8232292Y3411829D01*
X8234883Y3424174D01*
X8235797Y3436772D01*
X8234883Y3449370D01*
X8232292Y3461715D01*
X8227974Y3473551D01*
X8222030Y3484727D01*
X8214614Y3494938D01*
X8205825Y3503980D01*
X8195919Y3511753D01*
X8184946Y3518103D01*
X8174888Y3522167D01*
X8171535Y3524402D01*
X7348016Y4347819D01*
X7340803Y4353814D01*
X7338618Y4355338D01*
X7330592Y4360214D01*
X7328204Y4361383D01*
X7319518Y4364990D01*
X7317028Y4365802D01*
X7307884Y4368088D01*
X7305294Y4368495D01*
X7293051Y4369460D01*
X6080506Y4369460D01*
X6076594Y4370222D01*
X6073292Y4372406D01*
X6071108Y4375708D01*
X6070346Y4379620D01*
X6071108Y4383481D01*
X6073292Y4386783D01*
X6547815Y4861255D01*
X6551117Y4863490D01*
X6554978Y4864252D01*
X7308088Y4864303D01*
X7317435Y4865166D01*
X7320025Y4865624D01*
X7329170Y4867910D01*
X7331659Y4868722D01*
X7340346Y4872329D01*
X7342733Y4873498D01*
X7352944Y4879848D01*
X7360158Y4885893D01*
X7689545Y5215178D01*
X7692847Y5217363D01*
X7696708Y5218176D01*
X7700619Y5217363D01*
X7703921Y5215178D01*
X7706106Y5211876D01*
X7706868Y5208016D01*
X7706868Y4166514D01*
X7707375Y4156811D01*
X7709509Y4144670D01*
X7710220Y4141978D01*
X7713268Y4132884D01*
X7714335Y4130344D01*
X7718602Y4121759D01*
X7719974Y4119372D01*
X7727086Y4109262D01*
X7733588Y4102049D01*
X8393480Y3442157D01*
X8395716Y3438855D01*
X8396478Y3434943D01*
X8396478Y955954D01*
X8396986Y946251D01*
X8397290Y943559D01*
X8399068Y934110D01*
X8399780Y931418D01*
X8402828Y922324D01*
X8403894Y919784D01*
X8408162Y911199D01*
X8409584Y908812D01*
X8416645Y898702D01*
X8423148Y891489D01*
X8580729Y733958D01*
X8583015Y730504D01*
X8583726Y726440D01*
X8583371Y714857D01*
X8583625Y711809D01*
X8583066Y707440D01*
X8580678Y703732D01*
X8469782Y592836D01*
X8463280Y585622D01*
X8461603Y583488D01*
X8454796Y573176D01*
X8450529Y564540D01*
X8449462Y562000D01*
X8446414Y552907D01*
X8445703Y550265D01*
X8443925Y540816D01*
X8443112Y528421D01*
X8443112Y-233679D01*
X8443620Y-243382D01*
X8443925Y-246075D01*
X8445703Y-255524D01*
X8446414Y-258216D01*
X8449462Y-267309D01*
X8450529Y-269849D01*
X8454796Y-278434D01*
X8456218Y-280822D01*
X8463280Y-290931D01*
X8469782Y-298145D01*
X8580729Y-409041D01*
X8583015Y-412496D01*
X8583726Y-416559D01*
X8583371Y-428142D01*
X8584742Y-444144D01*
X8587943Y-459841D01*
X8592870Y-475132D01*
X8599576Y-489712D01*
X8607856Y-503428D01*
X8617610Y-516128D01*
X8628786Y-527659D01*
X8641232Y-537819D01*
X8654745Y-546455D01*
X8669121Y-553567D01*
X8684209Y-558952D01*
X8699855Y-562559D01*
X8715806Y-564388D01*
X8731808Y-564388D01*
X8747760Y-562559D01*
X8763406Y-558952D01*
X8778494Y-553567D01*
X8792870Y-546455D01*
X8806383Y-537819D01*
X8818829Y-527659D01*
X8830005Y-516128D01*
X8839758Y-503428D01*
X8848039Y-489712D01*
X8854744Y-475132D01*
X8859672Y-459841D01*
X8862872Y-444144D01*
X8864244Y-428142D01*
X8863787Y-412140D01*
X8861501Y-396240D01*
X8857437Y-380746D01*
X8851595Y-365760D01*
X8844127Y-351586D01*
X8835085Y-338328D01*
X8824569Y-326237D01*
X8812733Y-315366D01*
X8799779Y-305968D01*
X8785809Y-298043D01*
X8771026Y-291846D01*
X8755634Y-287324D01*
X8739835Y-284581D01*
X8723833Y-283667D01*
X8716518Y-284073D01*
X8712352Y-283413D01*
X8708745Y-281127D01*
X8627110Y-199440D01*
X8624874Y-196138D01*
X8624112Y-192227D01*
X8624112Y96875D01*
X8624824Y100584D01*
X8626856Y103784D01*
X8629904Y106070D01*
X8633612Y106984D01*
X8637371Y106527D01*
X8641232Y104292D01*
X8654745Y95656D01*
X8669121Y88544D01*
X8684209Y83159D01*
X8699855Y79552D01*
X8715806Y77724D01*
X8731808Y77724D01*
X8747760Y79552D01*
X8763406Y83159D01*
X8778494Y88544D01*
X8792870Y95656D01*
X8806383Y104292D01*
X8818829Y114452D01*
X8830005Y125983D01*
X8839758Y138684D01*
X8848039Y152400D01*
X8854744Y166979D01*
X8859672Y182270D01*
X8862872Y197967D01*
X8864244Y213969D01*
X8863787Y229971D01*
X8861501Y245871D01*
X8857437Y261366D01*
X8851595Y276352D01*
X8844127Y290525D01*
X8835085Y303784D01*
X8824569Y315874D01*
X8812733Y326745D01*
X8799779Y336143D01*
X8785809Y344068D01*
X8771026Y350266D01*
X8755634Y354787D01*
X8739835Y357530D01*
X8723833Y358444D01*
X8707780Y357530D01*
X8691981Y354787D01*
X8676589Y350266D01*
X8661806Y344068D01*
X8647836Y336143D01*
X8640267Y330657D01*
X8636203Y328879D01*
X8631732Y329031D01*
X8627821Y331012D01*
X8625078Y334518D01*
X8624112Y338836D01*
X8624112Y486968D01*
X8624874Y490829D01*
X8627110Y494131D01*
X8708542Y575614D01*
X8711844Y577799D01*
X8715756Y578612D01*
X8731808Y578612D01*
X8747760Y580440D01*
X8763406Y584047D01*
X8778494Y589432D01*
X8792870Y596544D01*
X8806383Y605180D01*
X8818829Y615340D01*
X8830005Y626872D01*
X8839758Y639572D01*
X8848039Y653288D01*
X8854744Y667867D01*
X8859672Y683158D01*
X8862872Y698855D01*
X8864244Y714857D01*
X8863787Y730859D01*
X8861501Y746760D01*
X8857437Y762254D01*
X8851595Y777240D01*
X8844127Y791413D01*
X8835085Y804672D01*
X8824569Y816762D01*
X8812733Y827633D01*
X8799779Y837031D01*
X8785809Y844956D01*
X8771026Y851153D01*
X8755634Y855675D01*
X8739835Y858418D01*
X8723833Y859332D01*
X8716518Y858926D01*
X8712352Y859586D01*
X8708745Y861872D01*
X8580475Y990193D01*
X8578240Y993495D01*
X8577478Y997407D01*
X8577478Y1284325D01*
X8578240Y1288186D01*
X8580374Y1291437D01*
X8583625Y1293672D01*
X8587435Y1294485D01*
X8591296Y1293825D01*
X8594598Y1291742D01*
X8596884Y1288542D01*
X8599576Y1282700D01*
X8607856Y1268984D01*
X8617610Y1256284D01*
X8628786Y1244752D01*
X8641232Y1234592D01*
X8654745Y1225956D01*
X8669121Y1218844D01*
X8684209Y1213459D01*
X8699855Y1209852D01*
X8715806Y1208024D01*
X8731808Y1208024D01*
X8747760Y1209852D01*
X8763406Y1213459D01*
X8778494Y1218844D01*
X8792870Y1225956D01*
X8806383Y1234592D01*
X8818829Y1244752D01*
X8830005Y1256284D01*
X8839758Y1268984D01*
X8848039Y1282700D01*
X8854744Y1297279D01*
X8859672Y1312570D01*
X8862872Y1328267D01*
X8864244Y1344269D01*
X8863787Y1360271D01*
X8861501Y1376172D01*
X8857437Y1391666D01*
X8851595Y1406652D01*
X8844127Y1420825D01*
X8835085Y1434084D01*
X8824569Y1446174D01*
X8812733Y1457045D01*
X8799779Y1466443D01*
X8785809Y1474368D01*
X8771026Y1480566D01*
X8755634Y1485087D01*
X8739835Y1487830D01*
X8723833Y1488744D01*
X8707780Y1487830D01*
X8691981Y1485087D01*
X8676589Y1480566D01*
X8661806Y1474368D01*
X8647836Y1466443D01*
X8634882Y1457045D01*
X8623046Y1446174D01*
X8612530Y1434084D01*
X8603488Y1420825D01*
X8596630Y1407820D01*
X8593734Y1404416D01*
X8589670Y1402588D01*
X8585200Y1402689D01*
X8581237Y1404670D01*
X8578443Y1408176D01*
X8577478Y1412544D01*
X8577478Y1785213D01*
X8578240Y1789074D01*
X8580374Y1792325D01*
X8582964Y1794103D01*
X8580475Y1795780D01*
X8578240Y1799082D01*
X8577478Y1802942D01*
X8577478Y1895348D01*
X8578240Y1899259D01*
X8580475Y1902510D01*
X8583371Y1904492D01*
X8581237Y1905558D01*
X8578443Y1909064D01*
X8577478Y1913432D01*
X8577478Y2414625D01*
X8578240Y2418486D01*
X8580374Y2421737D01*
X8583625Y2423972D01*
X8587435Y2424785D01*
X8591296Y2424125D01*
X8594598Y2422042D01*
X8596884Y2418842D01*
X8599576Y2413000D01*
X8607856Y2399284D01*
X8617610Y2386584D01*
X8628786Y2375052D01*
X8641232Y2364892D01*
X8654745Y2356256D01*
X8669121Y2349144D01*
X8684209Y2343759D01*
X8699855Y2340152D01*
X8715806Y2338324D01*
X8731808Y2338324D01*
X8747760Y2340152D01*
X8763406Y2343759D01*
X8778494Y2349144D01*
X8792870Y2356256D01*
X8806383Y2364892D01*
X8818829Y2375052D01*
X8830005Y2386584D01*
X8839758Y2399284D01*
X8848039Y2413000D01*
X8854744Y2427579D01*
X8859672Y2442870D01*
X8862872Y2458567D01*
X8864244Y2474569D01*
X8863787Y2490571D01*
X8861501Y2506472D01*
X8857437Y2521966D01*
X8851595Y2536952D01*
X8844127Y2551125D01*
X8835085Y2564384D01*
X8824569Y2576474D01*
X8812733Y2587345D01*
X8799779Y2596743D01*
X8785809Y2604668D01*
X8771026Y2610866D01*
X8755634Y2615387D01*
X8739835Y2618130D01*
X8723833Y2619044D01*
X8707780Y2618130D01*
X8691981Y2615387D01*
X8676589Y2610866D01*
X8661806Y2604668D01*
X8647836Y2596743D01*
X8634882Y2587345D01*
X8623046Y2576474D01*
X8612530Y2564384D01*
X8603488Y2551125D01*
X8596630Y2538120D01*
X8593734Y2534716D01*
X8589670Y2532888D01*
X8585200Y2532989D01*
X8581237Y2534970D01*
X8578443Y2538476D01*
X8577478Y2542844D01*
X8577478Y2915513D01*
X8578240Y2919374D01*
X8580374Y2922625D01*
X8582964Y2924403D01*
X8580475Y2926080D01*
X8578240Y2929382D01*
X8577478Y2933242D01*
X8577478Y3025648D01*
X8578240Y3029559D01*
X8580475Y3032810D01*
X8583371Y3034792D01*
X8581237Y3035858D01*
X8578443Y3039364D01*
X8577478Y3043732D01*
X8577478Y3476396D01*
X8576970Y3486099D01*
X8576665Y3488791D01*
X8574887Y3498240D01*
X8574176Y3500932D01*
X8571128Y3510026D01*
X8570061Y3512565D01*
X8565794Y3521151D01*
X8564372Y3523538D01*
X8557310Y3533648D01*
X8550808Y3540861D01*
X7890865Y4200753D01*
X7888681Y4204055D01*
X7887919Y4207967D01*
X7887919Y5487009D01*
X7887055Y5499709D01*
X7884515Y5511800D01*
X7880400Y5523433D01*
X7874711Y5534355D01*
X7866684Y5545582D01*
X7857947Y5554624D01*
X7847990Y5562396D01*
X7837017Y5568746D01*
X7830921Y5571286D01*
X7827619Y5573522D01*
X7825435Y5576824D01*
X7824673Y5580684D01*
X7825435Y5584545D01*
X7827670Y5587847D01*
X8030159Y5790336D01*
X8033562Y5792571D01*
X8037525Y5793333D01*
X8041487Y5792419D01*
X8044789Y5790082D01*
X8046923Y5786577D01*
X8047481Y5782564D01*
X8047075Y5775756D01*
X8047075Y4593183D01*
X8046212Y4589018D01*
X8042554Y4580839D01*
X8039100Y4568748D01*
X8037322Y4556201D01*
X8037322Y4543602D01*
X8039100Y4531106D01*
X8042554Y4518964D01*
X8047685Y4507433D01*
X8054390Y4496714D01*
X8062518Y4487062D01*
X8071866Y4478629D01*
X8082330Y4471568D01*
X8093709Y4466031D01*
X8105698Y4462119D01*
X8118144Y4459935D01*
X8130743Y4459478D01*
X8143290Y4460798D01*
X8155533Y4463846D01*
X8167268Y4468571D01*
X8178190Y4474921D01*
X8188147Y4482693D01*
X8196884Y4491736D01*
X8204352Y4501946D01*
X8210245Y4513122D01*
X8214563Y4524959D01*
X8217204Y4537303D01*
X8218068Y4549902D01*
X8217204Y4562500D01*
X8214563Y4574844D01*
X8210245Y4586732D01*
X8208416Y4590846D01*
X8208111Y4593285D01*
X8208111Y5738520D01*
X8208873Y5742381D01*
X8211058Y5745683D01*
X8273084Y5807710D01*
X8276386Y5809945D01*
X8280298Y5810707D01*
X8282736Y5810707D01*
X8287054Y5809742D01*
X8290559Y5806998D01*
X8294217Y5802579D01*
X8298484Y5799074D01*
X8301228Y5795568D01*
X8302193Y5791200D01*
X8301228Y5786831D01*
X8298484Y5783326D01*
X8294217Y5779820D01*
X8289137Y5773674D01*
X8285429Y5766663D01*
X8283143Y5759094D01*
X8282279Y5750712D01*
X8282279Y5631688D01*
X8283143Y5623306D01*
X8285429Y5615736D01*
X8289137Y5608726D01*
X8294217Y5602579D01*
X8298484Y5599074D01*
X8301228Y5595569D01*
X8302193Y5591200D01*
X8301228Y5586831D01*
X8298484Y5583326D01*
X8294217Y5579821D01*
X8289137Y5573674D01*
X8285429Y5566664D01*
X8283143Y5559094D01*
X8282279Y5550712D01*
X8282279Y5431688D01*
X8283143Y5423306D01*
X8285429Y5415737D01*
X8289137Y5408726D01*
X8294217Y5402580D01*
X8298484Y5399074D01*
X8301228Y5395569D01*
X8302193Y5391200D01*
X8301228Y5386832D01*
X8298484Y5383326D01*
X8294217Y5379821D01*
X8289137Y5373674D01*
X8285429Y5366664D01*
X8283143Y5359095D01*
X8282279Y5350713D01*
X8282279Y5231688D01*
X8283143Y5223306D01*
X8285429Y5215737D01*
X8289137Y5208727D01*
X8294217Y5202580D01*
X8298484Y5199075D01*
X8301228Y5195519D01*
X8302244Y5191201D01*
X8301228Y5186832D01*
X8298484Y5183327D01*
X8294217Y5179822D01*
X8289137Y5173675D01*
X8285429Y5166664D01*
X8283143Y5159095D01*
X8282279Y5150713D01*
X8282279Y5031689D01*
X8283143Y5023307D01*
X8285429Y5015738D01*
X8289137Y5008727D01*
X8294217Y5002580D01*
X8300313Y4997551D01*
X8307324Y4993843D01*
X8314893Y4991506D01*
X8323325Y4990693D01*
X8672322Y4990693D01*
X8680704Y4991506D01*
X8688273Y4993843D01*
X8695283Y4997551D01*
X8701430Y5002580D01*
X8706459Y5008727D01*
X8710168Y5015738D01*
X8712504Y5023307D01*
X8713317Y5031689D01*
X8713317Y5150713D01*
X8712504Y5159095D01*
X8710168Y5166664D01*
X8706459Y5173675D01*
X8701430Y5179822D01*
X8697112Y5183327D01*
X8694369Y5186832D01*
X8693404Y5191201D01*
X8694369Y5195519D01*
X8697112Y5199075D01*
X8701430Y5202580D01*
X8706459Y5208727D01*
X8710168Y5215737D01*
X8712504Y5223306D01*
X8713317Y5231688D01*
X8713317Y5350713D01*
X8712504Y5359095D01*
X8710168Y5366664D01*
X8706459Y5373674D01*
X8701430Y5379821D01*
X8697112Y5383326D01*
X8694369Y5386832D01*
X8693404Y5391200D01*
X8694369Y5395569D01*
X8697112Y5399074D01*
X8701430Y5402580D01*
X8706459Y5408726D01*
X8710168Y5415737D01*
X8712504Y5423306D01*
X8713317Y5431688D01*
X8713317Y5550712D01*
X8712504Y5559094D01*
X8710168Y5566664D01*
X8706459Y5573674D01*
X8701430Y5579821D01*
X8697112Y5583326D01*
X8694369Y5586831D01*
X8693404Y5591200D01*
X8694369Y5595569D01*
X8697112Y5599074D01*
X8701430Y5602579D01*
X8706459Y5608726D01*
X8710168Y5615736D01*
X8712504Y5623306D01*
X8713317Y5631688D01*
X8713317Y5750712D01*
X8712504Y5759094D01*
X8710168Y5766663D01*
X8706459Y5773674D01*
X8701430Y5779820D01*
X8697112Y5783326D01*
X8694369Y5786831D01*
X8693404Y5791200D01*
X8694369Y5795568D01*
X8697112Y5799074D01*
X8701430Y5802579D01*
X8706459Y5808726D01*
X8710168Y5815736D01*
X8712504Y5823305D01*
X8713317Y5831687D01*
X8713317Y5950712D01*
X8712504Y5959094D01*
X8710168Y5966663D01*
X8706459Y5973673D01*
X8701430Y5979820D01*
X8697112Y5983325D01*
X8694369Y5986830D01*
X8693404Y5991199D01*
X8694369Y5995568D01*
X8697112Y5999073D01*
X8701430Y6002578D01*
X8706459Y6008725D01*
X8710168Y6015736D01*
X8712504Y6023305D01*
X8713317Y6031687D01*
X8713317Y6150711D01*
X8712504Y6159093D01*
X8710168Y6166662D01*
X8706459Y6173673D01*
X8701430Y6179820D01*
X8697112Y6183325D01*
X8694369Y6186830D01*
X8693404Y6191199D01*
X8694369Y6195568D01*
X8697112Y6199073D01*
X8701430Y6202578D01*
X8706459Y6208725D01*
X8710168Y6215735D01*
X8712504Y6223304D01*
X8713317Y6231686D01*
X8713317Y6350711D01*
X8712504Y6359093D01*
X8710168Y6366662D01*
X8706459Y6373672D01*
X8701430Y6379819D01*
X8697112Y6383324D01*
X8694369Y6386880D01*
X8693404Y6391198D01*
X8694369Y6395567D01*
X8697112Y6399072D01*
X8701430Y6402578D01*
X8706459Y6408724D01*
X8710168Y6415735D01*
X8712504Y6423304D01*
X8713317Y6431686D01*
X8713317Y6550710D01*
X8712504Y6559092D01*
X8710168Y6566662D01*
X8706459Y6573672D01*
X8701430Y6579819D01*
X8695283Y6584848D01*
X8688273Y6588556D01*
X8680704Y6590893D01*
X8672322Y6591706D01*
X8323325Y6591706D01*
X8314893Y6590893D01*
X8307324Y6588556D01*
X8300313Y6584848D01*
X8294217Y6579819D01*
X8289137Y6573672D01*
X8285429Y6566662D01*
X8283143Y6559092D01*
X8282279Y6550710D01*
X8282279Y6431686D01*
X8283143Y6423304D01*
X8285429Y6415735D01*
X8289137Y6408724D01*
X8294217Y6402578D01*
X8298484Y6399072D01*
X8301228Y6395567D01*
X8302244Y6391198D01*
X8301228Y6386880D01*
X8298484Y6383324D01*
X8294217Y6379819D01*
X8289137Y6373672D01*
X8285429Y6366662D01*
X8283143Y6359093D01*
X8282279Y6350711D01*
X8282279Y6231686D01*
X8283143Y6223304D01*
X8285429Y6215735D01*
X8289137Y6208725D01*
X8294217Y6202578D01*
X8298484Y6199073D01*
X8301228Y6195568D01*
X8302193Y6191199D01*
X8301228Y6186830D01*
X8298484Y6183325D01*
X8294217Y6179820D01*
X8290610Y6175451D01*
X8287105Y6172708D01*
X8282736Y6171742D01*
X8214309Y6171641D01*
X8204962Y6170777D01*
X8202371Y6170371D01*
X8193227Y6168085D01*
X8190738Y6167272D01*
X8182051Y6163665D01*
X8179714Y6162497D01*
X8171637Y6157620D01*
X8169503Y6156096D01*
X8162239Y6150102D01*
X7608316Y5596178D01*
X7602321Y5588914D01*
X7600797Y5586780D01*
X7594752Y5576366D01*
X7591145Y5567680D01*
X7590332Y5565190D01*
X7588097Y5556046D01*
X7587640Y5553456D01*
X7586776Y5544108D01*
X7586725Y5344261D01*
X7585913Y5340350D01*
X7583728Y5337098D01*
X7330643Y5084013D01*
X7327341Y5081778D01*
X7323480Y5081016D01*
X7319568Y5081778D01*
X7316266Y5084013D01*
X7314082Y5087315D01*
X7313320Y5091176D01*
X7313320Y5150713D01*
X7312456Y5159095D01*
X7310170Y5166664D01*
X7306462Y5173675D01*
X7301382Y5179822D01*
X7297115Y5183327D01*
X7294372Y5186832D01*
X7293356Y5191201D01*
X7294372Y5195519D01*
X7297115Y5199075D01*
X7301382Y5202580D01*
X7306462Y5208727D01*
X7310170Y5215737D01*
X7312456Y5223306D01*
X7313320Y5231688D01*
X7313320Y5350713D01*
X7312456Y5359095D01*
X7310170Y5366664D01*
X7306462Y5373674D01*
X7301382Y5379821D01*
X7297115Y5383326D01*
X7294372Y5386832D01*
X7293406Y5391200D01*
X7294372Y5395569D01*
X7297115Y5399074D01*
X7301382Y5402580D01*
X7306462Y5408726D01*
X7310170Y5415737D01*
X7312456Y5423306D01*
X7313320Y5431688D01*
X7313320Y5550712D01*
X7312456Y5559094D01*
X7310170Y5566664D01*
X7306462Y5573674D01*
X7301382Y5579821D01*
X7297115Y5583326D01*
X7294372Y5586831D01*
X7293406Y5591200D01*
X7294372Y5595569D01*
X7297115Y5599074D01*
X7301382Y5602579D01*
X7306462Y5608726D01*
X7310170Y5615736D01*
X7312456Y5623306D01*
X7313320Y5631688D01*
X7313320Y5750712D01*
X7312456Y5759094D01*
X7310170Y5766663D01*
X7306462Y5773674D01*
X7301382Y5779820D01*
X7297115Y5783326D01*
X7294372Y5786831D01*
X7293406Y5791200D01*
X7294372Y5795568D01*
X7297115Y5799074D01*
X7301382Y5802579D01*
X7306462Y5808726D01*
X7310170Y5815736D01*
X7312456Y5823305D01*
X7313320Y5831687D01*
X7313320Y5950712D01*
X7312456Y5959094D01*
X7310170Y5966663D01*
X7306462Y5973673D01*
X7301382Y5979820D01*
X7297115Y5983325D01*
X7294372Y5986830D01*
X7293406Y5991199D01*
X7294372Y5995568D01*
X7297115Y5999073D01*
X7301382Y6002578D01*
X7306462Y6008725D01*
X7310170Y6015736D01*
X7312456Y6023305D01*
X7313320Y6031687D01*
X7313320Y6150711D01*
X7312456Y6159093D01*
X7310170Y6166662D01*
X7306462Y6173673D01*
X7301382Y6179820D01*
X7297115Y6183325D01*
X7294372Y6186830D01*
X7293406Y6191199D01*
X7294372Y6195568D01*
X7297115Y6199073D01*
X7301382Y6202578D01*
X7306462Y6208725D01*
X7310170Y6215735D01*
X7312456Y6223304D01*
X7313320Y6231686D01*
X7313320Y6254851D01*
X7191654Y6254851D01*
X7191654Y6201867D01*
X7190892Y6197955D01*
X7188657Y6194704D01*
X7185355Y6192469D01*
X7181494Y6191707D01*
X7014108Y6191707D01*
X7010196Y6192469D01*
X7006945Y6194704D01*
X7004710Y6197955D01*
X7003948Y6201867D01*
X7003948Y6254851D01*
X6882282Y6254851D01*
X6882282Y6231686D01*
X6883095Y6223304D01*
X6885431Y6215735D01*
X6889140Y6208725D01*
X6894169Y6202578D01*
X6898487Y6199073D01*
X6901230Y6195568D01*
X6902196Y6191199D01*
X6901230Y6186830D01*
X6898487Y6183325D01*
X6894169Y6179820D01*
X6889140Y6173673D01*
X6885431Y6166662D01*
X6883095Y6159093D01*
X6882282Y6150711D01*
X6882282Y6031687D01*
X6883095Y6023305D01*
X6885431Y6015736D01*
X6889140Y6008725D01*
X6894169Y6002578D01*
X6898487Y5999073D01*
X6901230Y5995568D01*
X6902196Y5991199D01*
X6901230Y5986830D01*
X6898487Y5983325D01*
X6894169Y5979820D01*
X6889140Y5973673D01*
X6885431Y5966663D01*
X6883095Y5959094D01*
X6882282Y5950712D01*
X6882282Y5831687D01*
X6883095Y5823305D01*
X6885431Y5815736D01*
X6889140Y5808726D01*
X6894169Y5802579D01*
X6898487Y5799074D01*
X6901230Y5795568D01*
X6902196Y5791200D01*
X6901230Y5786831D01*
X6898487Y5783326D01*
X6894169Y5779820D01*
X6889140Y5773674D01*
X6885431Y5766663D01*
X6883095Y5759094D01*
X6882282Y5750712D01*
X6882282Y5631688D01*
X6883095Y5623306D01*
X6885431Y5615736D01*
X6889140Y5608726D01*
X6894169Y5602579D01*
X6898487Y5599074D01*
X6901230Y5595569D01*
X6902196Y5591200D01*
X6901230Y5586831D01*
X6898487Y5583326D01*
X6894169Y5579821D01*
X6890613Y5575452D01*
X6887108Y5572709D01*
X6882739Y5571744D01*
X3383584Y5571642D01*
X3374237Y5570778D01*
X3371646Y5570372D01*
X3362502Y5568086D01*
X3360013Y5567273D01*
X3351326Y5563666D01*
X3348939Y5562498D01*
X3340912Y5557621D01*
X3338728Y5556097D01*
X3331514Y5550103D01*
X2872333Y5090922D01*
X2866339Y5083708D01*
X2864815Y5081574D01*
X2858770Y5071160D01*
X2855163Y5062474D01*
X2854350Y5059934D01*
X2852115Y5050840D01*
X2851658Y5048250D01*
X2850794Y5038852D01*
X2850743Y3691331D01*
X2849930Y3687318D01*
X2847594Y3683965D01*
X2844139Y3681831D01*
X2840126Y3681171D01*
X2836164Y3682187D01*
X2832912Y3684625D01*
X2830880Y3688181D01*
X2827172Y3699713D01*
X2820822Y3713175D01*
X2812846Y3725773D01*
X2803347Y3737203D01*
X2792526Y3747414D01*
X2780487Y3756151D01*
X2767431Y3763314D01*
X2753614Y3768801D01*
X2739186Y3772509D01*
X2724404Y3774389D01*
X2709570Y3774389D01*
X2694787Y3772509D01*
X2680360Y3768801D01*
X2666542Y3763314D01*
X2653487Y3756151D01*
X2641447Y3747414D01*
X2630627Y3737203D01*
X2621127Y3725773D01*
X2613152Y3713175D01*
X2606802Y3699713D01*
X2602230Y3685590D01*
X2599436Y3670960D01*
X2598521Y3656126D01*
X2599436Y3641242D01*
X2602230Y3626662D01*
X2606802Y3612489D01*
X2613152Y3599027D01*
X2621127Y3586479D01*
X2630627Y3574999D01*
X2641447Y3564839D01*
X2653487Y3556050D01*
X2666542Y3548887D01*
X2680360Y3543401D01*
X2694787Y3539744D01*
X2699004Y3539185D01*
X2702915Y3537813D01*
X2706014Y3535019D01*
X2707640Y3531209D01*
X2707640Y3527044D01*
X2706014Y3523234D01*
X2702915Y3520389D01*
X2699004Y3519017D01*
X2694787Y3518509D01*
X2680360Y3514801D01*
X2666542Y3509314D01*
X2653487Y3502151D01*
X2641447Y3493414D01*
X2630627Y3483203D01*
X2621127Y3471773D01*
X2613152Y3459175D01*
X2606802Y3445713D01*
X2602230Y3431590D01*
X2599436Y3416960D01*
X2598521Y3402126D01*
X2599436Y3387242D01*
X2602230Y3372662D01*
X2606802Y3358489D01*
X2613152Y3345027D01*
X2621127Y3332479D01*
X2630627Y3320999D01*
X2641447Y3310839D01*
X2653487Y3302050D01*
X2666542Y3294887D01*
X2680360Y3289401D01*
X2694787Y3285744D01*
X2699004Y3285185D01*
X2702915Y3283813D01*
X2706014Y3281019D01*
X2707640Y3277209D01*
X2707640Y3273044D01*
X2706014Y3269234D01*
X2702915Y3266389D01*
X2699004Y3265017D01*
X2694787Y3264509D01*
X2680360Y3260801D01*
X2666542Y3255314D01*
X2653487Y3248152D01*
X2641447Y3239414D01*
X2630627Y3229203D01*
X2621127Y3217773D01*
X2613152Y3205175D01*
X2606802Y3191713D01*
X2602230Y3177590D01*
X2599436Y3162960D01*
X2598521Y3148126D01*
X2599436Y3133242D01*
X2602230Y3118662D01*
X2606802Y3104489D01*
X2613152Y3091027D01*
X2621127Y3078480D01*
X2630627Y3066999D01*
X2641447Y3056839D01*
X2653487Y3048050D01*
X2666542Y3040888D01*
X2680360Y3035401D01*
X2694787Y3031744D01*
X2699004Y3031185D01*
X2702915Y3029813D01*
X2706014Y3027019D01*
X2707640Y3023209D01*
X2707640Y3019044D01*
X2706014Y3015234D01*
X2702915Y3012389D01*
X2699004Y3011017D01*
X2694787Y3010509D01*
X2680360Y3006801D01*
X2666542Y3001314D01*
X2653487Y2994152D01*
X2641447Y2985414D01*
X2630627Y2975203D01*
X2621127Y2963773D01*
X2613152Y2951175D01*
X2606802Y2937713D01*
X2602230Y2923590D01*
X2599436Y2908960D01*
X2598521Y2894126D01*
X2599436Y2879242D01*
X2602230Y2864662D01*
X2606802Y2850489D01*
X2613152Y2837027D01*
X2621127Y2824480D01*
X2630627Y2812999D01*
X2641447Y2802839D01*
X2653487Y2794050D01*
X2666542Y2786888D01*
X2680360Y2781401D01*
X2694787Y2777744D01*
X2699004Y2777185D01*
X2702915Y2775813D01*
X2706014Y2773019D01*
X2707640Y2769209D01*
X2707640Y2765044D01*
X2706014Y2761234D01*
X2702915Y2758389D01*
X2699004Y2757017D01*
X2694787Y2756509D01*
X2680360Y2752801D01*
X2666542Y2747314D01*
X2653487Y2740152D01*
X2641447Y2731414D01*
X2630627Y2721203D01*
X2621127Y2709773D01*
X2613152Y2697175D01*
X2606802Y2683713D01*
X2602230Y2669590D01*
X2599436Y2654960D01*
X2598521Y2640126D01*
X2599436Y2625242D01*
X2602230Y2610662D01*
X2606802Y2596489D01*
X2613152Y2583027D01*
X2621127Y2570480D01*
X2630627Y2558999D01*
X2641447Y2548839D01*
X2653487Y2540050D01*
X2666542Y2532888D01*
X2680360Y2527401D01*
X2694787Y2523744D01*
X2699004Y2523185D01*
X2702915Y2521813D01*
X2706014Y2519019D01*
X2707640Y2515209D01*
X2707640Y2511044D01*
X2706014Y2507234D01*
X2702915Y2504389D01*
X2699004Y2503017D01*
X2694787Y2502509D01*
X2680360Y2498801D01*
X2666542Y2493314D01*
X2653487Y2486152D01*
X2641447Y2477414D01*
X2630627Y2467203D01*
X2621127Y2455773D01*
X2613152Y2443175D01*
X2606802Y2429713D01*
X2602230Y2415590D01*
X2599436Y2400960D01*
X2598521Y2386126D01*
X2599436Y2371242D01*
X2602230Y2356662D01*
X2606802Y2342489D01*
X2613152Y2329027D01*
X2621127Y2316480D01*
X2630627Y2304999D01*
X2641447Y2294839D01*
X2653487Y2286050D01*
X2666542Y2278888D01*
X2680360Y2273401D01*
X2694787Y2269744D01*
X2699004Y2269185D01*
X2702915Y2267813D01*
X2706014Y2265019D01*
X2707640Y2261209D01*
X2707640Y2257044D01*
X2706014Y2253234D01*
X2702915Y2250389D01*
X2699004Y2249017D01*
X2694787Y2248509D01*
X2680360Y2244801D01*
X2666542Y2239314D01*
X2653487Y2232152D01*
X2641447Y2223414D01*
X2630627Y2213203D01*
X2621127Y2201773D01*
X2613152Y2189175D01*
X2606802Y2175713D01*
X2602230Y2161590D01*
X2599436Y2146960D01*
X2598521Y2132126D01*
X2599436Y2117242D01*
X2602230Y2102662D01*
X2606802Y2088489D01*
X2613152Y2075027D01*
X2621127Y2062480D01*
X2630627Y2050999D01*
X2641447Y2040839D01*
X2653487Y2032050D01*
X2666542Y2024888D01*
X2680360Y2019401D01*
X2694787Y2015743D01*
X2699004Y2015185D01*
X2702915Y2013813D01*
X2706014Y2011019D01*
X2707640Y2007209D01*
X2707640Y2003043D01*
X2706014Y1999234D01*
X2702915Y1996389D01*
X2699004Y1995017D01*
X2694787Y1994509D01*
X2680360Y1990801D01*
X2666542Y1985314D01*
X2653487Y1978152D01*
X2641447Y1969414D01*
X2630627Y1959203D01*
X2621127Y1947773D01*
X2613152Y1935175D01*
X2606802Y1921713D01*
X2602230Y1907590D01*
X2599436Y1892960D01*
X2598521Y1878126D01*
X2599436Y1863242D01*
X2602230Y1848662D01*
X2606802Y1834489D01*
X2613152Y1821027D01*
X2621127Y1808480D01*
X2630627Y1796999D01*
X2641447Y1786839D01*
X2653487Y1778050D01*
X2666542Y1770888D01*
X2680360Y1765401D01*
X2694787Y1761743D01*
X2699004Y1761185D01*
X2702915Y1759813D01*
X2706014Y1757019D01*
X2707640Y1753209D01*
X2707640Y1749043D01*
X2706014Y1745234D01*
X2702915Y1742389D01*
X2699004Y1741017D01*
X2694787Y1740509D01*
X2680360Y1736801D01*
X2666542Y1731314D01*
X2653487Y1724152D01*
X2641447Y1715414D01*
X2630627Y1705203D01*
X2621127Y1693773D01*
X2613152Y1681175D01*
X2606802Y1667713D01*
X2602230Y1653590D01*
X2599436Y1638960D01*
X2598521Y1624126D01*
X2599436Y1609242D01*
X2602230Y1594662D01*
X2606802Y1580489D01*
X2613152Y1567027D01*
X2621127Y1554480D01*
X2630627Y1542999D01*
X2641447Y1532839D01*
X2653487Y1524050D01*
X2666542Y1516888D01*
X2680360Y1511401D01*
X2694787Y1507744D01*
X2699004Y1507185D01*
X2702915Y1505813D01*
X2706014Y1503019D01*
X2707640Y1499209D01*
X2707640Y1495044D01*
X2706014Y1491234D01*
X2702915Y1488389D01*
X2699004Y1487017D01*
X2694787Y1486509D01*
X2680360Y1482801D01*
X2666542Y1477314D01*
X2653487Y1470152D01*
X2641447Y1461414D01*
X2630627Y1451203D01*
X2621127Y1439773D01*
X2613152Y1427175D01*
X2606802Y1413713D01*
X2602230Y1399590D01*
X2599436Y1384960D01*
X2598521Y1370126D01*
X2599436Y1355242D01*
X2602230Y1340662D01*
X2606802Y1326489D01*
X2613152Y1313027D01*
X2621127Y1300480D01*
X2630627Y1288999D01*
X2641447Y1278839D01*
X2653487Y1270050D01*
X2666542Y1262888D01*
X2680360Y1257401D01*
X2694787Y1253744D01*
X2699004Y1253185D01*
X2702915Y1251813D01*
X2706014Y1249019D01*
X2707640Y1245209D01*
X2707640Y1241044D01*
X2706014Y1237234D01*
X2702915Y1234389D01*
X2699004Y1233017D01*
X2694787Y1232509D01*
X2680360Y1228801D01*
X2666542Y1223314D01*
X2653487Y1216152D01*
X2641447Y1207414D01*
X2630627Y1197203D01*
X2621127Y1185773D01*
X2613152Y1173175D01*
X2606802Y1159713D01*
X2602230Y1145590D01*
X2599436Y1130960D01*
X2598521Y1116126D01*
X2599436Y1101242D01*
X2602230Y1086662D01*
X2606802Y1072489D01*
X2613152Y1059027D01*
X2621127Y1046480D01*
X2630627Y1034999D01*
X2641447Y1024839D01*
X2653487Y1016050D01*
X2666542Y1008887D01*
X2680360Y1003401D01*
X2694787Y999744D01*
X2699004Y999185D01*
X2702915Y997813D01*
X2706014Y995019D01*
X2707640Y991209D01*
X2707640Y987044D01*
X2706014Y983234D01*
X2702915Y980389D01*
X2699004Y979017D01*
X2694787Y978509D01*
X2680360Y974801D01*
X2666542Y969314D01*
X2653487Y962152D01*
X2641447Y953414D01*
X2630627Y943203D01*
X2621127Y931773D01*
X2613152Y919175D01*
X2606802Y905713D01*
X2602230Y891590D01*
X2599436Y876960D01*
X2598521Y862126D01*
X2599436Y847242D01*
X2602230Y832662D01*
X2606802Y818489D01*
X2613152Y805027D01*
X2621127Y792480D01*
X2630627Y780999D01*
X2641447Y770839D01*
X2653487Y762050D01*
X2666542Y754888D01*
X2680360Y749401D01*
X2694787Y745744D01*
X2699004Y745185D01*
X2702915Y743813D01*
X2706014Y741019D01*
X2707640Y737209D01*
X2707640Y733044D01*
X2706014Y729234D01*
X2702915Y726389D01*
X2699004Y725017D01*
X2694787Y724509D01*
X2680360Y720801D01*
X2666542Y715314D01*
X2653487Y708152D01*
X2641447Y699414D01*
X2630627Y689203D01*
X2621127Y677773D01*
X2613152Y665175D01*
X2606802Y651713D01*
X2602230Y637590D01*
X2599436Y622960D01*
X2598521Y608126D01*
X2599436Y593242D01*
X2602230Y578662D01*
X2606802Y564489D01*
X2613152Y551027D01*
X2621127Y538480D01*
X2630627Y526999D01*
X2641447Y516839D01*
X2653487Y508050D01*
X2666542Y500888D01*
X2680360Y495401D01*
X2694787Y491743D01*
X2709570Y489864D01*
X2724404Y489864D01*
X2739186Y491743D01*
X2753614Y495401D01*
X2767431Y500888D01*
X2780487Y508050D01*
X2792526Y516839D01*
X2803347Y526999D01*
X2812846Y538480D01*
X2820822Y551027D01*
X2827172Y564489D01*
X2831744Y578662D01*
X2834538Y593242D01*
X2835452Y608126D01*
X2834538Y622960D01*
X2831744Y637590D01*
X2827172Y651713D01*
X2820822Y665175D01*
X2812846Y677773D01*
X2803347Y689203D01*
X2792526Y699414D01*
X2780487Y708152D01*
X2767431Y715314D01*
X2753614Y720801D01*
X2739186Y724509D01*
X2734970Y725017D01*
X2731058Y726389D01*
X2727960Y729234D01*
X2726334Y733044D01*
X2726334Y737209D01*
X2727960Y741019D01*
X2731058Y743813D01*
X2734970Y745185D01*
X2739186Y745744D01*
X2753614Y749401D01*
X2767431Y754888D01*
X2780487Y762050D01*
X2792526Y770839D01*
X2803347Y780999D01*
X2812846Y792480D01*
X2820822Y805027D01*
X2827172Y818489D01*
X2831744Y832662D01*
X2834538Y847242D01*
X2835452Y862126D01*
X2834538Y876960D01*
X2831744Y891590D01*
X2827172Y905713D01*
X2820822Y919175D01*
X2812846Y931773D01*
X2803347Y943203D01*
X2792526Y953414D01*
X2780487Y962152D01*
X2767431Y969314D01*
X2753614Y974801D01*
X2739186Y978509D01*
X2734970Y979017D01*
X2731058Y980389D01*
X2727960Y983234D01*
X2726334Y987044D01*
X2726334Y991209D01*
X2727960Y995019D01*
X2731058Y997813D01*
X2734970Y999185D01*
X2739186Y999744D01*
X2753614Y1003401D01*
X2767431Y1008887D01*
X2780487Y1016050D01*
X2792526Y1024839D01*
X2803347Y1034999D01*
X2812846Y1046480D01*
X2820822Y1059027D01*
X2827172Y1072489D01*
X2831744Y1086662D01*
X2834538Y1101242D01*
X2835452Y1116126D01*
X2834538Y1130960D01*
X2831744Y1145590D01*
X2827172Y1159713D01*
X2820822Y1173175D01*
X2812846Y1185773D01*
X2803347Y1197203D01*
X2792526Y1207414D01*
X2780487Y1216152D01*
X2767431Y1223314D01*
X2753614Y1228801D01*
X2739186Y1232509D01*
X2734970Y1233017D01*
X2731058Y1234389D01*
X2727960Y1237234D01*
X2726334Y1241044D01*
X2726334Y1245209D01*
X2727960Y1249019D01*
X2731058Y1251813D01*
X2734970Y1253185D01*
X2739186Y1253744D01*
X2753614Y1257401D01*
X2767431Y1262888D01*
X2780487Y1270050D01*
X2792526Y1278839D01*
X2803347Y1288999D01*
X2812846Y1300480D01*
X2820822Y1313027D01*
X2827172Y1326489D01*
X2831744Y1340662D01*
X2834538Y1355242D01*
X2835452Y1370126D01*
X2834538Y1384960D01*
X2831744Y1399590D01*
X2827172Y1413713D01*
X2820822Y1427175D01*
X2812846Y1439773D01*
X2803347Y1451203D01*
X2792526Y1461414D01*
X2780487Y1470152D01*
X2767431Y1477314D01*
X2753614Y1482801D01*
X2739186Y1486509D01*
X2734970Y1487017D01*
X2731058Y1488389D01*
X2727960Y1491234D01*
X2726334Y1495044D01*
X2726334Y1499209D01*
X2727960Y1503019D01*
X2731058Y1505813D01*
X2734970Y1507185D01*
X2739186Y1507744D01*
X2753614Y1511401D01*
X2767431Y1516888D01*
X2780487Y1524050D01*
X2792526Y1532839D01*
X2803347Y1542999D01*
X2812846Y1554480D01*
X2820822Y1567027D01*
X2827172Y1580489D01*
X2830880Y1592021D01*
X2832912Y1595577D01*
X2836164Y1598066D01*
X2840126Y1599031D01*
X2844139Y1598422D01*
X2847594Y1596237D01*
X2849930Y1592884D01*
X2850743Y1588922D01*
X2850794Y1534160D01*
X2851658Y1524812D01*
X2852115Y1522222D01*
X2854350Y1513078D01*
X2855163Y1510588D01*
X2858770Y1501902D01*
X2864815Y1491488D01*
X2866339Y1489354D01*
X2872333Y1482090D01*
X2976676Y1377696D01*
X2978759Y1374698D01*
X2979623Y1371142D01*
X2980537Y1355242D01*
X2983331Y1340662D01*
X2987954Y1326489D01*
X2994304Y1313027D01*
X3002229Y1300480D01*
X3011728Y1288999D01*
X3022600Y1278839D01*
X3034639Y1270050D01*
X3047644Y1262888D01*
X3061512Y1257401D01*
X3075889Y1253744D01*
X3080105Y1253185D01*
X3084017Y1251813D01*
X3087065Y1249019D01*
X3088741Y1245209D01*
X3088741Y1241044D01*
X3087065Y1237234D01*
X3084017Y1234389D01*
X3080105Y1233017D01*
X3075889Y1232509D01*
X3061512Y1228801D01*
X3047644Y1223314D01*
X3034639Y1216152D01*
X3022600Y1207414D01*
X3011728Y1197203D01*
X3002229Y1185773D01*
X2994304Y1173175D01*
X2987954Y1159713D01*
X2983331Y1145590D01*
X2980537Y1130960D01*
X2979623Y1116126D01*
X2980537Y1101242D01*
X2983331Y1086662D01*
X2987954Y1072489D01*
X2994304Y1059027D01*
X3002229Y1046480D01*
X3011728Y1034999D01*
X3022600Y1024839D01*
X3034639Y1016050D01*
X3047644Y1008887D01*
X3061512Y1003401D01*
X3075889Y999744D01*
X3080105Y999185D01*
X3084017Y997813D01*
X3087065Y995019D01*
X3088741Y991209D01*
X3088741Y987044D01*
X3087065Y983234D01*
X3084017Y980389D01*
X3080105Y979017D01*
X3075889Y978509D01*
X3061512Y974801D01*
X3047644Y969314D01*
X3034639Y962152D01*
X3022600Y953414D01*
X3011728Y943203D01*
X3002229Y931773D01*
X2994304Y919175D01*
X2987954Y905713D01*
X2983331Y891590D01*
X2980537Y876960D01*
X2979623Y862126D01*
X2980537Y847242D01*
X2983331Y832662D01*
X2987954Y818489D01*
X2994304Y805027D01*
X3002229Y792480D01*
X3011728Y780999D01*
X3022600Y770839D01*
X3034639Y762050D01*
X3047644Y754888D01*
X3061512Y749401D01*
X3075889Y745744D01*
X3080105Y745185D01*
X3084017Y743813D01*
X3087065Y741019D01*
X3088741Y737209D01*
X3088741Y733044D01*
X3087065Y729234D01*
X3084017Y726389D01*
X3080105Y725017D01*
X3075889Y724509D01*
X3061512Y720801D01*
X3047644Y715314D01*
X3034639Y708152D01*
X3022600Y699414D01*
X3011728Y689203D01*
X3002229Y677773D01*
X2994304Y665175D01*
X2987954Y651713D01*
X2983331Y637590D01*
X2980537Y622960D01*
X2979623Y608126D01*
X2980537Y593242D01*
X2983331Y578662D01*
X2987954Y564489D01*
X2994304Y551027D01*
X3002229Y538480D01*
X3011728Y526999D01*
X3022600Y516839D01*
X3034639Y508050D01*
X3047644Y500888D01*
X3061512Y495401D01*
X3075889Y491743D01*
X3090672Y489864D01*
X3105556Y489864D01*
X3120339Y491743D01*
X3134715Y495401D01*
X3148584Y500888D01*
X3161588Y508050D01*
X3173628Y516839D01*
X3184499Y526999D01*
X3193999Y538480D01*
X3201924Y551027D01*
X3208274Y564489D01*
X3212896Y578662D01*
X3215690Y593242D01*
X3216605Y608126D01*
X3215690Y622960D01*
X3212896Y637590D01*
X3208274Y651713D01*
X3201924Y665175D01*
X3193999Y677773D01*
X3184499Y689203D01*
X3173628Y699414D01*
X3161588Y708152D01*
X3148584Y715314D01*
X3134715Y720801D01*
X3120339Y724509D01*
X3116122Y725017D01*
X3112211Y726389D01*
X3109163Y729234D01*
X3107486Y733044D01*
X3107486Y737209D01*
X3109163Y741019D01*
X3112211Y743813D01*
X3116122Y745185D01*
X3120339Y745744D01*
X3134715Y749401D01*
X3148584Y754888D01*
X3161588Y762050D01*
X3173628Y770839D01*
X3184499Y780999D01*
X3193999Y792480D01*
X3201924Y805027D01*
X3208274Y818489D01*
X3212896Y832662D01*
X3215690Y847242D01*
X3216605Y863142D01*
X3217468Y866698D01*
X3219551Y869696D01*
X3789426Y1439672D01*
X3795420Y1446885D01*
X3796944Y1449019D01*
X3801821Y1457096D01*
X3802989Y1459433D01*
X3806596Y1468120D01*
X3807409Y1470660D01*
X3809695Y1479753D01*
X3811015Y1491742D01*
X3811066Y2120290D01*
X3811828Y2124202D01*
X3814013Y2127504D01*
X3942283Y2255774D01*
X3945585Y2257958D01*
X3949496Y2258720D01*
X3953357Y2257958D01*
X3956659Y2255774D01*
X3958844Y2252472D01*
X3959656Y2248560D01*
X3959656Y1079703D01*
X3958844Y1075791D01*
X3956659Y1072540D01*
X3195878Y311759D01*
X3192576Y309524D01*
X3188716Y308762D01*
X3143453Y308762D01*
X3143453Y263550D01*
X3142691Y259638D01*
X3140506Y256336D01*
X3105505Y221335D01*
X3102203Y219151D01*
X3098292Y218389D01*
X3090672Y218389D01*
X3075889Y216509D01*
X3061512Y212801D01*
X3047644Y207314D01*
X3034639Y200152D01*
X3022600Y191414D01*
X3011728Y181203D01*
X3002229Y169773D01*
X2994304Y157175D01*
X2987954Y143713D01*
X2983331Y129590D01*
X2980537Y114960D01*
X2979623Y100126D01*
X2980537Y85242D01*
X2983331Y70662D01*
X2987954Y56489D01*
X2994304Y43027D01*
X3002229Y30480D01*
X3011728Y18999D01*
X3022600Y8839D01*
X3034639Y50D01*
X3047644Y-7112D01*
X3061512Y-12598D01*
X3075889Y-16256D01*
X3080105Y-16814D01*
X3084017Y-18186D01*
X3087065Y-20980D01*
X3088741Y-24790D01*
X3088741Y-28956D01*
X3087065Y-32766D01*
X3084017Y-35610D01*
X3080105Y-36982D01*
X3075889Y-37490D01*
X3061512Y-41198D01*
X3047644Y-46685D01*
X3034639Y-53848D01*
X3022600Y-62585D01*
X3011728Y-72796D01*
X3002229Y-84226D01*
X2994304Y-96824D01*
X2987954Y-110286D01*
X2983331Y-124409D01*
X2980537Y-139039D01*
X2979623Y-153873D01*
X2980537Y-168757D01*
X2983331Y-183337D01*
X2987954Y-197510D01*
X2994304Y-210972D01*
X3002229Y-223520D01*
X3011728Y-235000D01*
X3022600Y-245160D01*
X3034639Y-253949D01*
X3047644Y-261112D01*
X3061512Y-266598D01*
X3075889Y-270256D01*
X3080105Y-270814D01*
X3084017Y-272186D01*
X3087065Y-274980D01*
X3088741Y-278790D01*
X3088741Y-282956D01*
X3087065Y-286766D01*
X3084017Y-289610D01*
X3080105Y-290982D01*
X3075889Y-291490D01*
X3061512Y-295198D01*
X3047644Y-300685D01*
X3034639Y-307848D01*
X3022600Y-316585D01*
X3011728Y-326796D01*
X3002229Y-338226D01*
X2994304Y-350824D01*
X2987954Y-364286D01*
X2983331Y-378409D01*
X2980537Y-393039D01*
X2979623Y-407873D01*
X2980537Y-422757D01*
X2983331Y-437337D01*
X2987954Y-451510D01*
X2994304Y-464972D01*
X3002229Y-477520D01*
X3011728Y-489000D01*
X3022600Y-499160D01*
X3034639Y-507949D01*
X3047644Y-515112D01*
X3061512Y-520598D01*
X3075889Y-524256D01*
X3080105Y-524814D01*
X3084017Y-526186D01*
X3087065Y-528980D01*
X3088741Y-532790D01*
X3088741Y-536956D01*
X3087065Y-540766D01*
X3084017Y-543610D01*
X3080105Y-544982D01*
X3075889Y-545490D01*
X3061512Y-549198D01*
X3047644Y-554685D01*
X3034639Y-561848D01*
X3022600Y-570585D01*
X3011728Y-580796D01*
X3002229Y-592226D01*
X2994304Y-604824D01*
X2987954Y-618286D01*
X2983331Y-632409D01*
X2980537Y-647039D01*
X2979623Y-661873D01*
X2980537Y-676757D01*
X2983331Y-691337D01*
X2987954Y-705510D01*
X2994304Y-718972D01*
X3002229Y-731520D01*
X3011728Y-743000D01*
X3022600Y-753160D01*
X3034639Y-761949D01*
X3047644Y-769112D01*
X3061512Y-774598D01*
X3075889Y-778256D01*
X3080105Y-778814D01*
X3084017Y-780186D01*
X3087065Y-782980D01*
X3088741Y-786790D01*
X3088741Y-790956D01*
X3087065Y-794766D01*
X3084017Y-797610D01*
X3080105Y-798982D01*
X3075889Y-799490D01*
X3061512Y-803198D01*
X3047644Y-808685D01*
X3034639Y-815848D01*
X3022600Y-824585D01*
X3011728Y-834796D01*
X3002229Y-846226D01*
X2994304Y-858824D01*
X2987954Y-872286D01*
X2983331Y-886409D01*
X2980537Y-901039D01*
X2979623Y-915873D01*
X2980537Y-930757D01*
X2983331Y-945337D01*
X2987954Y-959510D01*
X2994304Y-972972D01*
X2999435Y-981100D01*
X3000908Y-985164D01*
X3000603Y-989431D01*
X2998520Y-993241D01*
X2995066Y-995781D01*
X2990850Y-996696D01*
X2824226Y-996696D01*
X2820009Y-995781D01*
X2816555Y-993241D01*
X2814472Y-989431D01*
X2814167Y-985164D01*
X2815640Y-981100D01*
X2820822Y-972972D01*
X2826359Y-961237D01*
X2762351Y-961237D01*
X2762351Y-986536D01*
X2761538Y-990447D01*
X2759354Y-993749D01*
X2756052Y-995934D01*
X2752191Y-996696D01*
X2681782Y-996696D01*
X2677922Y-995934D01*
X2674620Y-993749D01*
X2672435Y-990447D01*
X2671622Y-986536D01*
X2671622Y-961237D01*
X2607614Y-961237D01*
X2613152Y-972972D01*
X2618333Y-981100D01*
X2619806Y-985164D01*
X2619502Y-989431D01*
X2617419Y-993241D01*
X2613964Y-995781D01*
X2609748Y-996696D01*
X2216150Y-996696D01*
X2212238Y-995934D01*
X2208936Y-993749D01*
X1691182Y-475996D01*
X1689354Y-473456D01*
X1688388Y-470509D01*
X1688338Y-467359D01*
X1689354Y-460095D01*
X1689811Y-444042D01*
X1688439Y-428040D01*
X1685289Y-412343D01*
X1680311Y-397103D01*
X1673656Y-382473D01*
X1665376Y-368757D01*
X1655572Y-356057D01*
X1644396Y-344525D01*
X1632000Y-334416D01*
X1618488Y-325729D01*
X1604111Y-318668D01*
X1588973Y-313232D01*
X1573377Y-309626D01*
X1557426Y-307797D01*
X1541373Y-307797D01*
X1525422Y-309626D01*
X1509826Y-313232D01*
X1494688Y-318668D01*
X1480312Y-325729D01*
X1466799Y-334416D01*
X1454404Y-344525D01*
X1443228Y-356057D01*
X1433423Y-368757D01*
X1425143Y-382473D01*
X1418488Y-397103D01*
X1413510Y-412343D01*
X1410360Y-428040D01*
X1408988Y-444042D01*
X1409446Y-460095D01*
X1411732Y-475945D01*
X1415796Y-491490D01*
X1421587Y-506425D01*
X1429105Y-520598D01*
X1438148Y-533857D01*
X1448663Y-545947D01*
X1460449Y-556818D01*
X1473454Y-566267D01*
X1487424Y-574141D01*
X1502206Y-580390D01*
X1517599Y-584911D01*
X1533398Y-587654D01*
X1549400Y-588568D01*
X1565402Y-587654D01*
X1568500Y-587095D01*
X1571752Y-587044D01*
X1574800Y-588010D01*
X1577441Y-589940D01*
X2092502Y-1105001D01*
X2094687Y-1108303D01*
X2095500Y-1112164D01*
X2094687Y-1116076D01*
X2092502Y-1119378D01*
X2089200Y-1121562D01*
X2085339Y-1122324D01*
X1840890Y-1122324D01*
X1836978Y-1121562D01*
X1833676Y-1119378D01*
X1691182Y-976884D01*
X1689354Y-974344D01*
X1688388Y-971397D01*
X1688338Y-968248D01*
X1689354Y-960983D01*
X1689811Y-944930D01*
X1688439Y-928928D01*
X1685289Y-913231D01*
X1680311Y-897991D01*
X1673656Y-883361D01*
X1665376Y-869645D01*
X1655572Y-856945D01*
X1644396Y-845413D01*
X1632000Y-835304D01*
X1618488Y-826617D01*
X1604111Y-819556D01*
X1588973Y-814120D01*
X1573377Y-810514D01*
X1557426Y-808685D01*
X1541373Y-808685D01*
X1525422Y-810514D01*
X1509826Y-814120D01*
X1494688Y-819556D01*
X1480312Y-826617D01*
X1466799Y-835304D01*
X1454404Y-845413D01*
X1443228Y-856945D01*
X1433423Y-869645D01*
X1425143Y-883361D01*
X1418488Y-897991D01*
X1413510Y-913231D01*
X1410360Y-928928D01*
X1408988Y-944930D01*
X1409446Y-960983D01*
X1411732Y-976833D01*
X1415796Y-992378D01*
X1421587Y-1007313D01*
X1429105Y-1021486D01*
X1438148Y-1034745D01*
X1448663Y-1046835D01*
X1460449Y-1057706D01*
X1473454Y-1067155D01*
X1487424Y-1075029D01*
X1502206Y-1081278D01*
X1517599Y-1085799D01*
X1533398Y-1088542D01*
X1549400Y-1089456D01*
X1565402Y-1088542D01*
X1568500Y-1087983D01*
X1571752Y-1087932D01*
X1574800Y-1088898D01*
X1577441Y-1090828D01*
X1748434Y-1261719D01*
X1755648Y-1267764D01*
X1765858Y-1274114D01*
X1768246Y-1275283D01*
X1776933Y-1278890D01*
X1779422Y-1279702D01*
X1788566Y-1281988D01*
X1791157Y-1282446D01*
X1800504Y-1283309D01*
G37*
G36*
X2762351Y-870559D02*
G01*
X2826359Y-870559D01*
X2820822Y-858824D01*
X2812846Y-846226D01*
X2803347Y-834796D01*
X2792526Y-824585D01*
X2780487Y-815848D01*
X2767431Y-808685D01*
X2762351Y-806653D01*
G37*
G36*
X2607614Y-870559D02*
G01*
X2671622Y-870559D01*
X2671622Y-806653D01*
X2666542Y-808685D01*
X2653487Y-815848D01*
X2641447Y-824585D01*
X2630627Y-834796D01*
X2621127Y-846226D01*
X2613152Y-858824D01*
G37*
G36*
X2709570Y-780135D02*
G01*
X2724404Y-780135D01*
X2739186Y-778256D01*
X2753614Y-774598D01*
X2767431Y-769112D01*
X2780487Y-761949D01*
X2792526Y-753160D01*
X2803347Y-743000D01*
X2812846Y-731520D01*
X2820822Y-718972D01*
X2827172Y-705510D01*
X2831744Y-691337D01*
X2834538Y-676757D01*
X2835452Y-661873D01*
X2834538Y-647039D01*
X2831744Y-632409D01*
X2827172Y-618286D01*
X2820822Y-604824D01*
X2812846Y-592226D01*
X2803347Y-580796D01*
X2792526Y-570585D01*
X2780487Y-561848D01*
X2767431Y-554685D01*
X2753614Y-549198D01*
X2739186Y-545490D01*
X2734970Y-544982D01*
X2731058Y-543610D01*
X2727960Y-540766D01*
X2726334Y-536956D01*
X2726334Y-532790D01*
X2727960Y-528980D01*
X2731058Y-526186D01*
X2734970Y-524814D01*
X2739186Y-524256D01*
X2753614Y-520598D01*
X2767431Y-515112D01*
X2780487Y-507949D01*
X2792526Y-499160D01*
X2803347Y-489000D01*
X2812846Y-477520D01*
X2820822Y-464972D01*
X2827172Y-451510D01*
X2831744Y-437337D01*
X2834538Y-422757D01*
X2835452Y-407873D01*
X2834538Y-393039D01*
X2831744Y-378409D01*
X2827172Y-364286D01*
X2820822Y-350824D01*
X2812846Y-338226D01*
X2803347Y-326796D01*
X2792526Y-316585D01*
X2780487Y-307848D01*
X2767431Y-300685D01*
X2753614Y-295198D01*
X2739186Y-291490D01*
X2734970Y-290982D01*
X2731058Y-289610D01*
X2727960Y-286766D01*
X2726334Y-282956D01*
X2726334Y-278790D01*
X2727960Y-274980D01*
X2731058Y-272186D01*
X2734970Y-270814D01*
X2739186Y-270256D01*
X2753614Y-266598D01*
X2767431Y-261112D01*
X2780487Y-253949D01*
X2792526Y-245160D01*
X2803347Y-235000D01*
X2812846Y-223520D01*
X2820822Y-210972D01*
X2827172Y-197510D01*
X2831744Y-183337D01*
X2834538Y-168757D01*
X2835452Y-153873D01*
X2834538Y-139039D01*
X2831744Y-124409D01*
X2827172Y-110286D01*
X2820822Y-96824D01*
X2812846Y-84226D01*
X2803347Y-72796D01*
X2792526Y-62585D01*
X2780487Y-53848D01*
X2767431Y-46685D01*
X2753614Y-41198D01*
X2739186Y-37490D01*
X2734970Y-36982D01*
X2731058Y-35610D01*
X2727960Y-32766D01*
X2726334Y-28956D01*
X2726334Y-24790D01*
X2727960Y-20980D01*
X2731058Y-18186D01*
X2734970Y-16814D01*
X2739186Y-16256D01*
X2753614Y-12598D01*
X2767431Y-7112D01*
X2780487Y50D01*
X2792526Y8839D01*
X2803347Y18999D01*
X2812846Y30480D01*
X2820822Y43027D01*
X2827172Y56489D01*
X2831744Y70662D01*
X2834538Y85242D01*
X2835452Y100126D01*
X2834538Y114960D01*
X2831744Y129590D01*
X2827172Y143713D01*
X2820822Y157175D01*
X2812846Y169773D01*
X2803347Y181203D01*
X2792526Y191414D01*
X2780487Y200152D01*
X2767431Y207314D01*
X2753614Y212801D01*
X2739186Y216509D01*
X2724404Y218389D01*
X2709570Y218389D01*
X2694787Y216509D01*
X2680360Y212801D01*
X2666542Y207314D01*
X2653487Y200152D01*
X2641447Y191414D01*
X2630627Y181203D01*
X2621127Y169773D01*
X2613152Y157175D01*
X2606802Y143713D01*
X2602230Y129590D01*
X2599436Y114960D01*
X2598521Y100126D01*
X2599436Y85242D01*
X2602230Y70662D01*
X2606802Y56489D01*
X2613152Y43027D01*
X2621127Y30480D01*
X2630627Y18999D01*
X2641447Y8839D01*
X2653487Y50D01*
X2666542Y-7112D01*
X2680360Y-12598D01*
X2694787Y-16256D01*
X2699004Y-16814D01*
X2702915Y-18186D01*
X2706014Y-20980D01*
X2707640Y-24790D01*
X2707640Y-28956D01*
X2706014Y-32766D01*
X2702915Y-35610D01*
X2699004Y-36982D01*
X2694787Y-37490D01*
X2680360Y-41198D01*
X2666542Y-46685D01*
X2653487Y-53848D01*
X2641447Y-62585D01*
X2630627Y-72796D01*
X2621127Y-84226D01*
X2613152Y-96824D01*
X2606802Y-110286D01*
X2602230Y-124409D01*
X2599436Y-139039D01*
X2598521Y-153873D01*
X2599436Y-168757D01*
X2602230Y-183337D01*
X2606802Y-197510D01*
X2613152Y-210972D01*
X2621127Y-223520D01*
X2630627Y-235000D01*
X2641447Y-245160D01*
X2653487Y-253949D01*
X2666542Y-261112D01*
X2680360Y-266598D01*
X2694787Y-270256D01*
X2699004Y-270814D01*
X2702915Y-272186D01*
X2706014Y-274980D01*
X2707640Y-278790D01*
X2707640Y-282956D01*
X2706014Y-286766D01*
X2702915Y-289610D01*
X2699004Y-290982D01*
X2694787Y-291490D01*
X2680360Y-295198D01*
X2666542Y-300685D01*
X2653487Y-307848D01*
X2641447Y-316585D01*
X2630627Y-326796D01*
X2621127Y-338226D01*
X2613152Y-350824D01*
X2606802Y-364286D01*
X2602230Y-378409D01*
X2599436Y-393039D01*
X2598521Y-407873D01*
X2599436Y-422757D01*
X2602230Y-437337D01*
X2606802Y-451510D01*
X2613152Y-464972D01*
X2621127Y-477520D01*
X2630627Y-489000D01*
X2641447Y-499160D01*
X2653487Y-507949D01*
X2666542Y-515112D01*
X2680360Y-520598D01*
X2694787Y-524256D01*
X2699004Y-524814D01*
X2702915Y-526186D01*
X2706014Y-528980D01*
X2707640Y-532790D01*
X2707640Y-536956D01*
X2706014Y-540766D01*
X2702915Y-543610D01*
X2699004Y-544982D01*
X2694787Y-545490D01*
X2680360Y-549198D01*
X2666542Y-554685D01*
X2653487Y-561848D01*
X2641447Y-570585D01*
X2630627Y-580796D01*
X2621127Y-592226D01*
X2613152Y-604824D01*
X2606802Y-618286D01*
X2602230Y-632409D01*
X2599436Y-647039D01*
X2598521Y-661873D01*
X2599436Y-676757D01*
X2602230Y-691337D01*
X2606802Y-705510D01*
X2613152Y-718972D01*
X2621127Y-731520D01*
X2630627Y-743000D01*
X2641447Y-753160D01*
X2653487Y-761949D01*
X2666542Y-769112D01*
X2680360Y-774598D01*
X2694787Y-778256D01*
G37*
G36*
X1593037Y65582D02*
G01*
X1598676Y67970D01*
X1612646Y75844D01*
X1625650Y85293D01*
X1637436Y96164D01*
X1647952Y108254D01*
X1656994Y121513D01*
X1664512Y135686D01*
X1665274Y137718D01*
X1593037Y137718D01*
G37*
G36*
X1480362Y65582D02*
G01*
X1480362Y137718D01*
X1408125Y137718D01*
X1408887Y135686D01*
X1416405Y121513D01*
X1425448Y108254D01*
X1435963Y96164D01*
X1447749Y85293D01*
X1460754Y75844D01*
X1474724Y67970D01*
G37*
G36*
X3052775Y244856D02*
G01*
X3052775Y308762D01*
X2988767Y308762D01*
X2994304Y297027D01*
X3002229Y284480D01*
X3011728Y272999D01*
X3022600Y262839D01*
X3034639Y254050D01*
X3047644Y246888D01*
G37*
G36*
X2762351Y244906D02*
G01*
X2767431Y246888D01*
X2780487Y254050D01*
X2792526Y262839D01*
X2803347Y272999D01*
X2812846Y284480D01*
X2820822Y297027D01*
X2826359Y308762D01*
X2762351Y308762D01*
G37*
G36*
X2671622Y244906D02*
G01*
X2671622Y308762D01*
X2607614Y308762D01*
X2613152Y297027D01*
X2621127Y284480D01*
X2630627Y272999D01*
X2641447Y262839D01*
X2653487Y254050D01*
X2666542Y246888D01*
G37*
G36*
X1408226Y250393D02*
G01*
X1480362Y250393D01*
X1480362Y322630D01*
X1467612Y316382D01*
X1454099Y307695D01*
X1441704Y297586D01*
X1430528Y286054D01*
X1420723Y273354D01*
X1412443Y259638D01*
G37*
G36*
X1593037Y250393D02*
G01*
X1665173Y250393D01*
X1660956Y259638D01*
X1652676Y273354D01*
X1642872Y286054D01*
X1631696Y297586D01*
X1619300Y307695D01*
X1605788Y316382D01*
X1593037Y322630D01*
G37*
G36*
X2762351Y399440D02*
G01*
X2826359Y399440D01*
X2820822Y411175D01*
X2812846Y423773D01*
X2803347Y435203D01*
X2792526Y445414D01*
X2780487Y454151D01*
X2767431Y461314D01*
X2762351Y463346D01*
G37*
G36*
X2607614Y399440D02*
G01*
X2671622Y399440D01*
X2671622Y463346D01*
X2666542Y461314D01*
X2653487Y454151D01*
X2641447Y445414D01*
X2630627Y435203D01*
X2621127Y423773D01*
X2613152Y411175D01*
G37*
G36*
X2988767Y399440D02*
G01*
X3052775Y399440D01*
X3052775Y463346D01*
X3047644Y461314D01*
X3034639Y454151D01*
X3022600Y445414D01*
X3011728Y435203D01*
X3002229Y423773D01*
X2994304Y411175D01*
G37*
G36*
X3143453Y399440D02*
G01*
X3207461Y399440D01*
X3201924Y411175D01*
X3193999Y423773D01*
X3184499Y435203D01*
X3173628Y445414D01*
X3161588Y454151D01*
X3148584Y461314D01*
X3143453Y463346D01*
G37*
G36*
X1536700Y554431D02*
G01*
X1552702Y555345D01*
X1568500Y558088D01*
X1583893Y562610D01*
X1598676Y568858D01*
X1612646Y576732D01*
X1625650Y586181D01*
X1637436Y597052D01*
X1647952Y609142D01*
X1656994Y622401D01*
X1664512Y636574D01*
X1670304Y651510D01*
X1674368Y667054D01*
X1676654Y682904D01*
X1677111Y698957D01*
X1675739Y714959D01*
X1672589Y730656D01*
X1667611Y745896D01*
X1660956Y760526D01*
X1652676Y774242D01*
X1642872Y786942D01*
X1631696Y798474D01*
X1619300Y808583D01*
X1605788Y817270D01*
X1591411Y824331D01*
X1576273Y829767D01*
X1560677Y833374D01*
X1544726Y835202D01*
X1528673Y835202D01*
X1512722Y833374D01*
X1497126Y829767D01*
X1481988Y824331D01*
X1467612Y817270D01*
X1454099Y808583D01*
X1441704Y798474D01*
X1430528Y786942D01*
X1420723Y774242D01*
X1412443Y760526D01*
X1405788Y745896D01*
X1400810Y730656D01*
X1397660Y714959D01*
X1396288Y698957D01*
X1396746Y682904D01*
X1399032Y667054D01*
X1403096Y651510D01*
X1408887Y636574D01*
X1416405Y622401D01*
X1425448Y609142D01*
X1435963Y597052D01*
X1447749Y586181D01*
X1460754Y576732D01*
X1474724Y568858D01*
X1489506Y562610D01*
X1504899Y558088D01*
X1520698Y555345D01*
G37*
G36*
X7512100Y866292D02*
G01*
X7526121Y873150D01*
X7538364Y881278D01*
X7549489Y890828D01*
X7559395Y901649D01*
X7567879Y913637D01*
X7574838Y926592D01*
X7576413Y930706D01*
X7512202Y930706D01*
G37*
G36*
X7420813Y866546D02*
G01*
X7420813Y930706D01*
X7356551Y930706D01*
X7361478Y919987D01*
X7369200Y907542D01*
X7378395Y896112D01*
X7388910Y885850D01*
X7400645Y877011D01*
X7413345Y869696D01*
G37*
G36*
X7356551Y1022146D02*
G01*
X7420813Y1022146D01*
X7420813Y1086307D01*
X7413345Y1083157D01*
X7400645Y1075791D01*
X7388910Y1066952D01*
X7378395Y1056741D01*
X7369200Y1045311D01*
X7361478Y1032814D01*
G37*
G36*
X7512253Y1022146D02*
G01*
X7576413Y1022146D01*
X7574838Y1026261D01*
X7567879Y1039164D01*
X7559395Y1051153D01*
X7549489Y1062024D01*
X7538364Y1071575D01*
X7526121Y1079652D01*
X7512253Y1086459D01*
G37*
G36*
X1480362Y1195882D02*
G01*
X1480362Y1268018D01*
X1408125Y1268018D01*
X1408887Y1265986D01*
X1416405Y1251813D01*
X1425448Y1238554D01*
X1435963Y1226464D01*
X1447749Y1215593D01*
X1460754Y1206144D01*
X1474724Y1198270D01*
G37*
G36*
X1593037Y1195882D02*
G01*
X1598676Y1198270D01*
X1612646Y1206144D01*
X1625650Y1215593D01*
X1637436Y1226464D01*
X1647952Y1238554D01*
X1656994Y1251813D01*
X1664512Y1265986D01*
X1665274Y1268018D01*
X1593037Y1268018D01*
G37*
G36*
X1593037Y1380693D02*
G01*
X1665173Y1380693D01*
X1660956Y1389938D01*
X1652676Y1403654D01*
X1642872Y1416354D01*
X1631696Y1427886D01*
X1619300Y1437995D01*
X1605788Y1446682D01*
X1593037Y1452930D01*
G37*
G36*
X1408226Y1380693D02*
G01*
X1480362Y1380693D01*
X1480362Y1452930D01*
X1467612Y1446682D01*
X1454099Y1437995D01*
X1441704Y1427886D01*
X1430528Y1416354D01*
X1420723Y1403654D01*
X1412443Y1389938D01*
G37*
G36*
X7032193Y1526336D02*
G01*
X7032193Y1596186D01*
X6962089Y1596186D01*
X6969048Y1582267D01*
X6977634Y1569212D01*
X6987692Y1557223D01*
X6999071Y1546504D01*
X7011619Y1537157D01*
X7025182Y1529334D01*
G37*
G36*
X7138873Y1526336D02*
G01*
X7145883Y1529334D01*
X7159396Y1537157D01*
X7171944Y1546504D01*
X7183323Y1557223D01*
X7193381Y1569212D01*
X7201966Y1582267D01*
X7208926Y1596186D01*
X7138873Y1596186D01*
G37*
G36*
X1536700Y1684731D02*
G01*
X1552702Y1685645D01*
X1568500Y1688388D01*
X1583893Y1692910D01*
X1598676Y1699158D01*
X1612646Y1707032D01*
X1625650Y1716481D01*
X1637436Y1727352D01*
X1647952Y1739442D01*
X1656994Y1752701D01*
X1664512Y1766874D01*
X1670304Y1781810D01*
X1674368Y1797354D01*
X1676654Y1813204D01*
X1677111Y1829257D01*
X1675739Y1845259D01*
X1672589Y1860956D01*
X1667611Y1876196D01*
X1660956Y1890826D01*
X1652676Y1904542D01*
X1642872Y1917242D01*
X1631696Y1928774D01*
X1619300Y1938883D01*
X1605788Y1947570D01*
X1591411Y1954631D01*
X1576273Y1960067D01*
X1560677Y1963674D01*
X1544726Y1965502D01*
X1528673Y1965502D01*
X1512722Y1963674D01*
X1497126Y1960067D01*
X1481988Y1954631D01*
X1467612Y1947570D01*
X1454099Y1938883D01*
X1441704Y1928774D01*
X1430528Y1917242D01*
X1420723Y1904542D01*
X1412443Y1890826D01*
X1405788Y1876196D01*
X1400810Y1860956D01*
X1397660Y1845259D01*
X1396288Y1829257D01*
X1396746Y1813204D01*
X1399032Y1797354D01*
X1403096Y1781810D01*
X1408887Y1766874D01*
X1416405Y1752701D01*
X1425448Y1739442D01*
X1435963Y1727352D01*
X1447749Y1716481D01*
X1460754Y1707032D01*
X1474724Y1699158D01*
X1489506Y1692910D01*
X1504899Y1688388D01*
X1520698Y1685645D01*
G37*
G36*
X6962089Y1702866D02*
G01*
X7032193Y1702866D01*
X7032193Y1772716D01*
X7025182Y1769668D01*
X7011619Y1761845D01*
X6999071Y1752549D01*
X6987692Y1741779D01*
X6977634Y1729790D01*
X6969048Y1716735D01*
G37*
G36*
X7138873Y1702866D02*
G01*
X7208926Y1702866D01*
X7201966Y1716735D01*
X7193381Y1729790D01*
X7183323Y1741779D01*
X7171944Y1752549D01*
X7159396Y1761845D01*
X7145883Y1769668D01*
X7138873Y1772716D01*
G37*
G36*
X8780170Y1720545D02*
G01*
X8792870Y1726844D01*
X8806383Y1735480D01*
X8818829Y1745640D01*
X8830005Y1757172D01*
X8839758Y1769872D01*
X8848039Y1783588D01*
X8852255Y1792782D01*
X8780170Y1792782D01*
G37*
G36*
X8667445Y1720545D02*
G01*
X8667445Y1792782D01*
X8594293Y1792782D01*
X8596884Y1789430D01*
X8599576Y1783588D01*
X8607856Y1769872D01*
X8617610Y1757172D01*
X8628786Y1745640D01*
X8641232Y1735480D01*
X8654745Y1726844D01*
G37*
G36*
X8780170Y1905507D02*
G01*
X8852357Y1905507D01*
X8851595Y1907539D01*
X8844127Y1921713D01*
X8835085Y1934972D01*
X8824569Y1947062D01*
X8812733Y1957933D01*
X8799779Y1967331D01*
X8785809Y1975256D01*
X8780170Y1977593D01*
G37*
G36*
X8593886Y1905507D02*
G01*
X8667445Y1905507D01*
X8667445Y1977593D01*
X8661806Y1975256D01*
X8647836Y1967331D01*
X8634882Y1957933D01*
X8623046Y1947062D01*
X8612530Y1934972D01*
X8603488Y1921713D01*
X8596630Y1908708D01*
G37*
G36*
X6051651Y2022906D02*
G01*
X6056731Y2024888D01*
X6069787Y2032050D01*
X6081826Y2040839D01*
X6092647Y2050999D01*
X6102146Y2062480D01*
X6110122Y2075027D01*
X6115659Y2086762D01*
X6051651Y2086762D01*
G37*
G36*
X1593037Y2338882D02*
G01*
X1598676Y2341270D01*
X1612646Y2349144D01*
X1625650Y2358593D01*
X1637436Y2369464D01*
X1647952Y2381554D01*
X1656994Y2394813D01*
X1664512Y2408986D01*
X1665274Y2411018D01*
X1593037Y2411018D01*
G37*
G36*
X1480362Y2338882D02*
G01*
X1480362Y2411018D01*
X1408125Y2411018D01*
X1408887Y2408986D01*
X1416405Y2394813D01*
X1425448Y2381554D01*
X1435963Y2369464D01*
X1447749Y2358593D01*
X1460754Y2349144D01*
X1474724Y2341270D01*
G37*
G36*
X1408226Y2523693D02*
G01*
X1480362Y2523693D01*
X1480362Y2595930D01*
X1467612Y2589682D01*
X1454099Y2580995D01*
X1441704Y2570886D01*
X1430528Y2559354D01*
X1420723Y2546654D01*
X1412443Y2532938D01*
G37*
G36*
X1593037Y2523693D02*
G01*
X1665173Y2523693D01*
X1660956Y2532938D01*
X1652676Y2546654D01*
X1642872Y2559354D01*
X1631696Y2570886D01*
X1619300Y2580995D01*
X1605788Y2589682D01*
X1593037Y2595930D01*
G37*
G36*
X1536700Y2827731D02*
G01*
X1552702Y2828645D01*
X1568500Y2831388D01*
X1583893Y2835910D01*
X1598676Y2842158D01*
X1612646Y2850032D01*
X1625650Y2859481D01*
X1637436Y2870352D01*
X1647952Y2882442D01*
X1656994Y2895701D01*
X1664512Y2909874D01*
X1670304Y2924810D01*
X1674368Y2940354D01*
X1676654Y2956204D01*
X1677111Y2972257D01*
X1675739Y2988259D01*
X1672589Y3003956D01*
X1667611Y3019196D01*
X1660956Y3033826D01*
X1652676Y3047542D01*
X1642872Y3060242D01*
X1631696Y3071774D01*
X1619300Y3081883D01*
X1605788Y3090570D01*
X1591411Y3097631D01*
X1576273Y3103067D01*
X1560677Y3106674D01*
X1544726Y3108502D01*
X1528673Y3108502D01*
X1512722Y3106674D01*
X1497126Y3103067D01*
X1481988Y3097631D01*
X1467612Y3090570D01*
X1454099Y3081883D01*
X1441704Y3071774D01*
X1430528Y3060242D01*
X1420723Y3047542D01*
X1412443Y3033826D01*
X1405788Y3019196D01*
X1400810Y3003956D01*
X1397660Y2988259D01*
X1396288Y2972257D01*
X1396746Y2956204D01*
X1399032Y2940354D01*
X1403096Y2924810D01*
X1408887Y2909874D01*
X1416405Y2895701D01*
X1425448Y2882442D01*
X1435963Y2870352D01*
X1447749Y2859481D01*
X1460754Y2850032D01*
X1474724Y2842158D01*
X1489506Y2835910D01*
X1504899Y2831388D01*
X1520698Y2828645D01*
G37*
G36*
X8780170Y2850845D02*
G01*
X8792870Y2857144D01*
X8806383Y2865780D01*
X8818829Y2875940D01*
X8830005Y2887472D01*
X8839758Y2900172D01*
X8848039Y2913888D01*
X8852255Y2923082D01*
X8780170Y2923082D01*
G37*
G36*
X8667445Y2850845D02*
G01*
X8667445Y2923082D01*
X8594293Y2923082D01*
X8596884Y2919730D01*
X8599576Y2913888D01*
X8607856Y2900172D01*
X8617610Y2887472D01*
X8628786Y2875940D01*
X8641232Y2865780D01*
X8654745Y2857144D01*
G37*
G36*
X7032193Y2974136D02*
G01*
X7032193Y3043986D01*
X6962089Y3043986D01*
X6969048Y3030067D01*
X6977634Y3017012D01*
X6987692Y3005023D01*
X6999071Y2994304D01*
X7011619Y2984957D01*
X7025182Y2977134D01*
G37*
G36*
X8780170Y3035808D02*
G01*
X8852357Y3035808D01*
X8851595Y3037840D01*
X8844127Y3052013D01*
X8835085Y3065272D01*
X8824569Y3077362D01*
X8812733Y3088233D01*
X8799779Y3097631D01*
X8785809Y3105556D01*
X8780170Y3107893D01*
G37*
G36*
X8593886Y3035808D02*
G01*
X8667445Y3035808D01*
X8667445Y3107893D01*
X8661806Y3105556D01*
X8647836Y3097631D01*
X8634882Y3088233D01*
X8623046Y3077362D01*
X8612530Y3065272D01*
X8603488Y3052013D01*
X8596630Y3039008D01*
G37*
G36*
X6962089Y3150666D02*
G01*
X7032193Y3150666D01*
X7032193Y3220516D01*
X7025182Y3217468D01*
X7011619Y3209645D01*
X6999071Y3200349D01*
X6987692Y3189579D01*
X6977634Y3177590D01*
X6969048Y3164535D01*
G37*
G36*
X1593037Y3456482D02*
G01*
X1598676Y3458870D01*
X1612646Y3466744D01*
X1625650Y3476193D01*
X1637436Y3487064D01*
X1647952Y3499154D01*
X1656994Y3512413D01*
X1664512Y3526586D01*
X1665274Y3528618D01*
X1593037Y3528618D01*
G37*
G36*
X1480362Y3456482D02*
G01*
X1480362Y3528618D01*
X1408125Y3528618D01*
X1408887Y3526586D01*
X1416405Y3512413D01*
X1425448Y3499154D01*
X1435963Y3487064D01*
X1447749Y3476193D01*
X1460754Y3466744D01*
X1474724Y3458870D01*
G37*
G36*
X8715806Y3468624D02*
G01*
X8731808Y3468624D01*
X8747760Y3470452D01*
X8763406Y3474059D01*
X8778494Y3479444D01*
X8792870Y3486556D01*
X8806383Y3495192D01*
X8818829Y3505352D01*
X8830005Y3516884D01*
X8839758Y3529584D01*
X8848039Y3543300D01*
X8854744Y3557879D01*
X8859672Y3573170D01*
X8862872Y3588867D01*
X8864244Y3604869D01*
X8863787Y3620871D01*
X8861501Y3636772D01*
X8857437Y3652265D01*
X8851595Y3667251D01*
X8844127Y3681425D01*
X8835085Y3694684D01*
X8824569Y3706774D01*
X8812733Y3717645D01*
X8799779Y3727043D01*
X8785809Y3734968D01*
X8771026Y3741165D01*
X8755634Y3745687D01*
X8739835Y3748430D01*
X8723833Y3749344D01*
X8707780Y3748430D01*
X8691981Y3745687D01*
X8676589Y3741165D01*
X8661806Y3734968D01*
X8647836Y3727043D01*
X8634882Y3717645D01*
X8623046Y3706774D01*
X8612530Y3694684D01*
X8603488Y3681425D01*
X8596020Y3667251D01*
X8590178Y3652265D01*
X8586114Y3636772D01*
X8583828Y3620871D01*
X8583371Y3604869D01*
X8584742Y3588867D01*
X8587943Y3573170D01*
X8592870Y3557879D01*
X8599576Y3543300D01*
X8607856Y3529584D01*
X8617610Y3516884D01*
X8628786Y3505352D01*
X8641232Y3495192D01*
X8654745Y3486556D01*
X8669121Y3479444D01*
X8684209Y3474059D01*
X8699855Y3470452D01*
G37*
G36*
X6051651Y3546906D02*
G01*
X6056731Y3548887D01*
X6069787Y3556050D01*
X6081826Y3564839D01*
X6092647Y3574999D01*
X6102146Y3586479D01*
X6110122Y3599027D01*
X6115659Y3610762D01*
X6051651Y3610762D01*
G37*
G36*
X1593037Y3641293D02*
G01*
X1665173Y3641293D01*
X1660956Y3650538D01*
X1652676Y3664254D01*
X1642872Y3676954D01*
X1631696Y3688486D01*
X1619300Y3698595D01*
X1605788Y3707282D01*
X1593037Y3713530D01*
G37*
G36*
X1408226Y3641293D02*
G01*
X1480362Y3641293D01*
X1480362Y3713530D01*
X1467612Y3707282D01*
X1454099Y3698595D01*
X1441704Y3688486D01*
X1430528Y3676954D01*
X1420723Y3664254D01*
X1412443Y3650538D01*
G37*
G36*
X6051651Y3701440D02*
G01*
X6115659Y3701440D01*
X6110122Y3713175D01*
X6102146Y3725773D01*
X6092647Y3737203D01*
X6081826Y3747414D01*
X6069787Y3756151D01*
X6056731Y3763314D01*
X6051651Y3765346D01*
G37*
G36*
X1536700Y3945331D02*
G01*
X1552702Y3946245D01*
X1568500Y3948988D01*
X1583893Y3953510D01*
X1598676Y3959758D01*
X1612646Y3967632D01*
X1625650Y3977081D01*
X1637436Y3987952D01*
X1647952Y4000042D01*
X1656994Y4013301D01*
X1664512Y4027474D01*
X1670304Y4042410D01*
X1674368Y4057954D01*
X1676654Y4073804D01*
X1677111Y4089857D01*
X1675739Y4105859D01*
X1672589Y4121556D01*
X1667611Y4136796D01*
X1660956Y4151426D01*
X1652676Y4165142D01*
X1642872Y4177842D01*
X1631696Y4189374D01*
X1619300Y4199483D01*
X1605788Y4208170D01*
X1591411Y4215231D01*
X1576273Y4220667D01*
X1560677Y4224274D01*
X1544726Y4226102D01*
X1528673Y4226102D01*
X1524762Y4226864D01*
X1521460Y4229100D01*
X1447596Y4302963D01*
X1445412Y4306265D01*
X1444650Y4310126D01*
X1444650Y4736795D01*
X1445463Y4740757D01*
X1447800Y4744110D01*
X1451254Y4746294D01*
X1455267Y4746904D01*
X1459230Y4745888D01*
X1464716Y4743246D01*
X1467256Y4742434D01*
X1467256Y4795774D01*
X1454810Y4795774D01*
X1450898Y4796536D01*
X1447596Y4798771D01*
X1445412Y4802073D01*
X1444650Y4805934D01*
X1444650Y4848352D01*
X1445412Y4852212D01*
X1447596Y4855514D01*
X1450898Y4857699D01*
X1454810Y4858512D01*
X1467256Y4858512D01*
X1467256Y4876596D01*
X1468018Y4880508D01*
X1470202Y4883810D01*
X1473504Y4885994D01*
X1477416Y4886756D01*
X1501648Y4886807D01*
X1510893Y4887620D01*
X1517904Y4888941D01*
X1522323Y4888788D01*
X1526286Y4886807D01*
X1528978Y4883302D01*
X1529943Y4878984D01*
X1529943Y4858512D01*
X1583232Y4858512D01*
X1581251Y4863947D01*
X1575358Y4875072D01*
X1567942Y4885283D01*
X1558391Y4895088D01*
X1556207Y4898440D01*
X1555496Y4902301D01*
X1556308Y4906162D01*
X1558544Y4909464D01*
X1564792Y4915560D01*
X1567891Y4919014D01*
X1572564Y4925161D01*
X1575308Y4929225D01*
X1578965Y4935677D01*
X1581251Y4940401D01*
X1583893Y4947005D01*
X1585569Y4952288D01*
X1587195Y4958892D01*
X1588211Y4964633D01*
X1588871Y4971084D01*
X1589125Y4977231D01*
X1588871Y4983429D01*
X1588211Y4989880D01*
X1587195Y4995672D01*
X1585569Y5002225D01*
X1583893Y5007559D01*
X1581251Y5014112D01*
X1578965Y5018836D01*
X1575308Y5025288D01*
X1572564Y5029403D01*
X1567891Y5035499D01*
X1564792Y5039004D01*
X1559102Y5044592D01*
X1555800Y5047437D01*
X1549095Y5052364D01*
X1545691Y5054549D01*
X1538173Y5058664D01*
X1534769Y5060238D01*
X1526438Y5063388D01*
X1523136Y5064353D01*
X1511147Y5066893D01*
X1498244Y5067757D01*
X1429410Y5067757D01*
X1419707Y5067300D01*
X1407515Y5065166D01*
X1404874Y5064455D01*
X1395780Y5061407D01*
X1393240Y5060340D01*
X1384604Y5056073D01*
X1382268Y5054701D01*
X1374292Y5049266D01*
X1372158Y5047589D01*
X1364945Y5041087D01*
X1290320Y4966462D01*
X1283817Y4959248D01*
X1276705Y4949139D01*
X1275334Y4946751D01*
X1271066Y4938166D01*
X1270000Y4935626D01*
X1266952Y4926533D01*
X1266240Y4923840D01*
X1264107Y4911699D01*
X1263599Y4901996D01*
X1263599Y4268673D01*
X1264107Y4259021D01*
X1266240Y4246829D01*
X1270000Y4235043D01*
X1275334Y4223918D01*
X1276705Y4221530D01*
X1282141Y4213606D01*
X1283817Y4211472D01*
X1290320Y4204258D01*
X1393596Y4100982D01*
X1395933Y4097274D01*
X1396542Y4092905D01*
X1396288Y4089857D01*
X1396746Y4073804D01*
X1399032Y4057954D01*
X1403096Y4042410D01*
X1408887Y4027474D01*
X1416405Y4013301D01*
X1425448Y4000042D01*
X1435963Y3987952D01*
X1447749Y3977081D01*
X1460754Y3967632D01*
X1474724Y3959758D01*
X1489506Y3953510D01*
X1504899Y3948988D01*
X1520698Y3946245D01*
G37*
G36*
X8715806Y3969512D02*
G01*
X8731808Y3969512D01*
X8747760Y3971340D01*
X8763406Y3974947D01*
X8778494Y3980332D01*
X8792870Y3987444D01*
X8806383Y3996080D01*
X8818829Y4006240D01*
X8830005Y4017772D01*
X8839758Y4030472D01*
X8848039Y4044187D01*
X8854744Y4058767D01*
X8859672Y4074058D01*
X8862872Y4089755D01*
X8864244Y4105757D01*
X8863787Y4121759D01*
X8861501Y4137660D01*
X8857437Y4153154D01*
X8851595Y4168140D01*
X8844127Y4182313D01*
X8835085Y4195572D01*
X8824569Y4207662D01*
X8812733Y4218533D01*
X8799779Y4227931D01*
X8785809Y4235856D01*
X8771026Y4242054D01*
X8755634Y4246575D01*
X8739835Y4249318D01*
X8723833Y4250232D01*
X8707780Y4249318D01*
X8691981Y4246575D01*
X8676589Y4242054D01*
X8661806Y4235856D01*
X8647836Y4227931D01*
X8634882Y4218533D01*
X8623046Y4207662D01*
X8612530Y4195572D01*
X8603488Y4182313D01*
X8596020Y4168140D01*
X8590178Y4153154D01*
X8586114Y4137660D01*
X8583828Y4121759D01*
X8583371Y4105757D01*
X8584742Y4089755D01*
X8587943Y4074058D01*
X8592870Y4058767D01*
X8599576Y4044187D01*
X8607856Y4030472D01*
X8617610Y4017772D01*
X8628786Y4006240D01*
X8641232Y3996080D01*
X8654745Y3987444D01*
X8669121Y3980332D01*
X8684209Y3974947D01*
X8699855Y3971340D01*
G37*
G36*
X1529943Y4742434D02*
G01*
X1538274Y4745837D01*
X1549196Y4752136D01*
X1559153Y4759909D01*
X1567891Y4768951D01*
X1575358Y4779213D01*
X1581251Y4790338D01*
X1583232Y4795774D01*
X1529943Y4795774D01*
G37*
G36*
X2556814Y5484520D02*
G01*
X2572207Y5485434D01*
X2587447Y5488228D01*
X2602179Y5492851D01*
X2616301Y5499150D01*
X2629509Y5507177D01*
X2641650Y5516676D01*
X2652623Y5527649D01*
X2662123Y5539790D01*
X2670149Y5552998D01*
X2676448Y5567121D01*
X2681071Y5581853D01*
X2683865Y5597093D01*
X2684780Y5612485D01*
X2683865Y5627928D01*
X2681071Y5643118D01*
X2676448Y5657900D01*
X2670149Y5671972D01*
X2662123Y5685231D01*
X2652623Y5697372D01*
X2641650Y5708294D01*
X2629509Y5717844D01*
X2616301Y5725820D01*
X2602179Y5732170D01*
X2587447Y5736793D01*
X2572207Y5739536D01*
X2556814Y5740501D01*
X2541371Y5739536D01*
X2526182Y5736793D01*
X2511399Y5732170D01*
X2497328Y5725820D01*
X2484069Y5717844D01*
X2471928Y5708294D01*
X2461006Y5697372D01*
X2451455Y5685231D01*
X2443480Y5671972D01*
X2437130Y5657900D01*
X2432507Y5643118D01*
X2429764Y5627928D01*
X2428798Y5612485D01*
X2429764Y5597093D01*
X2432507Y5581853D01*
X2437130Y5567121D01*
X2443480Y5552998D01*
X2451455Y5539790D01*
X2461006Y5527649D01*
X2471928Y5516676D01*
X2484069Y5507177D01*
X2497328Y5499150D01*
X2511399Y5492851D01*
X2526182Y5488228D01*
X2541371Y5485434D01*
G37*
G36*
X1536700Y5514543D02*
G01*
X1552702Y5515457D01*
X1568500Y5518200D01*
X1583893Y5522722D01*
X1598676Y5528970D01*
X1612646Y5536844D01*
X1625650Y5546293D01*
X1637436Y5557164D01*
X1647952Y5569254D01*
X1656994Y5582513D01*
X1664512Y5596686D01*
X1670304Y5611622D01*
X1674368Y5627166D01*
X1676654Y5643016D01*
X1677111Y5659069D01*
X1675739Y5675071D01*
X1672589Y5690768D01*
X1667611Y5706008D01*
X1660956Y5720638D01*
X1652676Y5734354D01*
X1642872Y5747054D01*
X1631696Y5758586D01*
X1619300Y5768695D01*
X1605788Y5777382D01*
X1591411Y5784443D01*
X1576273Y5789879D01*
X1560677Y5793486D01*
X1544726Y5795314D01*
X1528673Y5795314D01*
X1512722Y5793486D01*
X1497126Y5789879D01*
X1481988Y5784443D01*
X1467612Y5777382D01*
X1454099Y5768695D01*
X1441704Y5758586D01*
X1430528Y5747054D01*
X1420723Y5734354D01*
X1412443Y5720638D01*
X1405788Y5706008D01*
X1400810Y5690768D01*
X1397660Y5675071D01*
X1396288Y5659069D01*
X1396746Y5643016D01*
X1399032Y5627166D01*
X1403096Y5611622D01*
X1408887Y5596686D01*
X1416405Y5582513D01*
X1425448Y5569254D01*
X1435963Y5557164D01*
X1447749Y5546293D01*
X1460754Y5536844D01*
X1474724Y5528970D01*
X1489506Y5522722D01*
X1504899Y5518200D01*
X1520698Y5515457D01*
G37*
G36*
X1536700Y6015431D02*
G01*
X1552702Y6016345D01*
X1568500Y6019088D01*
X1583893Y6023610D01*
X1598676Y6029858D01*
X1612646Y6037732D01*
X1625650Y6047181D01*
X1637436Y6058052D01*
X1647952Y6070142D01*
X1656994Y6083401D01*
X1664512Y6097574D01*
X1670304Y6112510D01*
X1674368Y6128054D01*
X1676654Y6143904D01*
X1677111Y6159957D01*
X1675739Y6175959D01*
X1672589Y6191656D01*
X1667611Y6206896D01*
X1660956Y6221526D01*
X1652676Y6235242D01*
X1642872Y6247942D01*
X1631696Y6259474D01*
X1619300Y6269583D01*
X1605788Y6278270D01*
X1591411Y6285331D01*
X1576273Y6290767D01*
X1560677Y6294374D01*
X1544726Y6296202D01*
X1528673Y6296202D01*
X1512722Y6294374D01*
X1497126Y6290767D01*
X1481988Y6285331D01*
X1467612Y6278270D01*
X1454099Y6269583D01*
X1441704Y6259474D01*
X1430528Y6247942D01*
X1420723Y6235242D01*
X1412443Y6221526D01*
X1405788Y6206896D01*
X1400810Y6191656D01*
X1397660Y6175959D01*
X1396288Y6159957D01*
X1396746Y6143904D01*
X1399032Y6128054D01*
X1403096Y6112510D01*
X1408887Y6097574D01*
X1416405Y6083401D01*
X1425448Y6070142D01*
X1435963Y6058052D01*
X1447749Y6047181D01*
X1460754Y6037732D01*
X1474724Y6029858D01*
X1489506Y6023610D01*
X1504899Y6019088D01*
X1520698Y6016345D01*
G37*
G36*
X2556814Y6084519D02*
G01*
X2572207Y6085433D01*
X2587447Y6088227D01*
X2602179Y6092850D01*
X2616301Y6099149D01*
X2629509Y6107176D01*
X2641650Y6116675D01*
X2652623Y6127648D01*
X2662123Y6139789D01*
X2670149Y6152997D01*
X2676448Y6167120D01*
X2681071Y6181852D01*
X2683865Y6197092D01*
X2684780Y6212484D01*
X2683865Y6227927D01*
X2681071Y6243116D01*
X2676448Y6257899D01*
X2670149Y6271971D01*
X2662123Y6285230D01*
X2652623Y6297371D01*
X2641650Y6308293D01*
X2629509Y6317843D01*
X2616301Y6325819D01*
X2602179Y6332169D01*
X2587447Y6336792D01*
X2572207Y6339535D01*
X2556814Y6340500D01*
X2541371Y6339535D01*
X2526182Y6336792D01*
X2511399Y6332169D01*
X2497328Y6325819D01*
X2484069Y6317843D01*
X2471928Y6308293D01*
X2461006Y6297371D01*
X2451455Y6285230D01*
X2443480Y6271971D01*
X2437130Y6257899D01*
X2432507Y6243116D01*
X2429764Y6227927D01*
X2428798Y6212484D01*
X2429764Y6197092D01*
X2432507Y6181852D01*
X2437130Y6167120D01*
X2443480Y6152997D01*
X2451455Y6139789D01*
X2461006Y6127648D01*
X2471928Y6116675D01*
X2484069Y6107176D01*
X2497328Y6099149D01*
X2511399Y6092850D01*
X2526182Y6088227D01*
X2541371Y6085433D01*
G37*
G36*
X5866688Y6694931D02*
G01*
X5866688Y6762394D01*
X5799226Y6762394D01*
X5803493Y6752996D01*
X5811469Y6739788D01*
X5821019Y6727647D01*
X5831941Y6716674D01*
X5844082Y6707174D01*
X5857341Y6699148D01*
G37*
G36*
X5966917Y6694931D02*
G01*
X5976264Y6699148D01*
X5989523Y6707174D01*
X6001664Y6716674D01*
X6012586Y6727647D01*
X6022136Y6739788D01*
X6030112Y6752996D01*
X6034328Y6762394D01*
X5966917Y6762394D01*
G37*
G36*
X1489202Y6759752D02*
G01*
X1510792Y6759752D01*
X1532280Y6761683D01*
X1553514Y6765493D01*
X1574292Y6771284D01*
X1594510Y6778853D01*
X1613966Y6788200D01*
X1632508Y6799275D01*
X1649933Y6811975D01*
X1666189Y6826148D01*
X1681124Y6841744D01*
X1694586Y6858609D01*
X1706473Y6876643D01*
X1716684Y6895642D01*
X1725168Y6915505D01*
X1731822Y6936028D01*
X1736648Y6957059D01*
X1739544Y6978446D01*
X1740509Y6999986D01*
X1739544Y7021525D01*
X1736648Y7042912D01*
X1731822Y7063943D01*
X1725168Y7084466D01*
X1716684Y7104329D01*
X1706473Y7123328D01*
X1694586Y7141362D01*
X1681124Y7158228D01*
X1666189Y7173823D01*
X1649933Y7187996D01*
X1632508Y7200696D01*
X1613966Y7211771D01*
X1594510Y7221118D01*
X1574292Y7228687D01*
X1553514Y7234428D01*
X1532280Y7238288D01*
X1510792Y7240219D01*
X1489202Y7240219D01*
X1467713Y7238288D01*
X1446479Y7234428D01*
X1425702Y7228687D01*
X1405483Y7221118D01*
X1386027Y7211771D01*
X1367485Y7200696D01*
X1350060Y7187996D01*
X1333804Y7173823D01*
X1318869Y7158228D01*
X1305407Y7141362D01*
X1293520Y7123328D01*
X1283309Y7104329D01*
X1274826Y7084466D01*
X1268171Y7063943D01*
X1263345Y7042912D01*
X1260449Y7021525D01*
X1259484Y6999986D01*
X1260449Y6978446D01*
X1263345Y6957059D01*
X1268171Y6936028D01*
X1274826Y6915505D01*
X1283309Y6895642D01*
X1293520Y6876643D01*
X1305407Y6858609D01*
X1318869Y6841744D01*
X1333804Y6826148D01*
X1350060Y6811975D01*
X1367485Y6799275D01*
X1386027Y6788200D01*
X1405483Y6778853D01*
X1425702Y6771284D01*
X1446479Y6765493D01*
X1467713Y6761683D01*
G37*
G36*
X8889187Y6759752D02*
G01*
X8910777Y6759752D01*
X8932265Y6761683D01*
X8953500Y6765493D01*
X8974277Y6771284D01*
X8994495Y6778853D01*
X9013952Y6788200D01*
X9032494Y6799275D01*
X9049918Y6811975D01*
X9066174Y6826148D01*
X9081109Y6841744D01*
X9094571Y6858609D01*
X9106458Y6876643D01*
X9116669Y6895642D01*
X9125153Y6915505D01*
X9131808Y6936028D01*
X9136634Y6957059D01*
X9139529Y6978446D01*
X9140494Y6999986D01*
X9139529Y7021525D01*
X9136634Y7042912D01*
X9131808Y7063943D01*
X9125153Y7084466D01*
X9116669Y7104329D01*
X9106458Y7123328D01*
X9094571Y7141362D01*
X9081109Y7158228D01*
X9066174Y7173823D01*
X9049918Y7187996D01*
X9032494Y7200696D01*
X9013952Y7211771D01*
X8994495Y7221118D01*
X8974277Y7228687D01*
X8953500Y7234428D01*
X8932265Y7238288D01*
X8910777Y7240219D01*
X8889187Y7240219D01*
X8867698Y7238288D01*
X8846464Y7234428D01*
X8825687Y7228687D01*
X8805468Y7221118D01*
X8786012Y7211771D01*
X8767470Y7200696D01*
X8750046Y7187996D01*
X8733790Y7173823D01*
X8718854Y7158228D01*
X8705392Y7141362D01*
X8693505Y7123328D01*
X8683294Y7104329D01*
X8674811Y7084466D01*
X8668156Y7063943D01*
X8663330Y7042912D01*
X8660434Y7021525D01*
X8659469Y6999986D01*
X8660434Y6978446D01*
X8663330Y6957059D01*
X8668156Y6936028D01*
X8674811Y6915505D01*
X8683294Y6895642D01*
X8693505Y6876643D01*
X8705392Y6858609D01*
X8718854Y6841744D01*
X8733790Y6826148D01*
X8750046Y6811975D01*
X8767470Y6799275D01*
X8786012Y6788200D01*
X8805468Y6778853D01*
X8825687Y6771284D01*
X8846464Y6765493D01*
X8867698Y6761683D01*
G37*
G36*
X5966917Y6862622D02*
G01*
X6034328Y6862622D01*
X6030112Y6871970D01*
X6022136Y6885228D01*
X6012586Y6897370D01*
X6001664Y6908292D01*
X5989523Y6917842D01*
X5976264Y6925818D01*
X5966917Y6930034D01*
G37*
G36*
X5799226Y6862622D02*
G01*
X5866688Y6862622D01*
X5866688Y6930034D01*
X5857341Y6925818D01*
X5844082Y6917842D01*
X5831941Y6908292D01*
X5821019Y6897370D01*
X5811469Y6885228D01*
X5803493Y6871970D01*
G37*
G36*
X7508697Y6869582D02*
G01*
X7531811Y6869582D01*
X7531811Y7023760D01*
X7467701Y7023760D01*
X7467701Y6910628D01*
X7468514Y6902196D01*
X7470800Y6894626D01*
X7474559Y6887616D01*
X7479588Y6881520D01*
X7485684Y6876440D01*
X7492695Y6872731D01*
X7500315Y6870446D01*
G37*
G36*
X8018678Y6869582D02*
G01*
X8041843Y6869582D01*
X8041843Y7023760D01*
X7977682Y7023760D01*
X7977682Y6910628D01*
X7978495Y6902196D01*
X7980832Y6894626D01*
X7984540Y6887616D01*
X7989570Y6881520D01*
X7995716Y6876440D01*
X8002727Y6872731D01*
X8010296Y6870446D01*
G37*
G36*
X8114538Y6869582D02*
G01*
X8137702Y6869582D01*
X8146084Y6870446D01*
X8153653Y6872731D01*
X8160664Y6876440D01*
X8166811Y6881520D01*
X8171840Y6887616D01*
X8175548Y6894626D01*
X8177885Y6902196D01*
X8178698Y6910628D01*
X8178698Y7023760D01*
X8114538Y7023760D01*
G37*
G36*
X7604556Y6869582D02*
G01*
X7627670Y6869582D01*
X7636052Y6870446D01*
X7643672Y6872731D01*
X7650683Y6876440D01*
X7656779Y6881520D01*
X7661808Y6887616D01*
X7665567Y6894626D01*
X7667853Y6902196D01*
X7668717Y6910628D01*
X7668717Y7023760D01*
X7604556Y7023760D01*
G37*

%LPD*%
G36*
X8236203Y5971336D02*
G01*
X8232190Y5971895D01*
X8228736Y5974029D01*
X8226348Y5977331D01*
X8225485Y5981293D01*
X8226196Y5985256D01*
X8228431Y5988659D01*
X8247532Y6007709D01*
X8250834Y6009944D01*
X8254695Y6010706D01*
X8282736Y6010706D01*
X8287054Y6009741D01*
X8290559Y6006998D01*
X8294217Y6002578D01*
X8298484Y5999073D01*
X8301228Y5995568D01*
X8302193Y5991199D01*
X8301228Y5986830D01*
X8298484Y5983325D01*
X8294217Y5979820D01*
X8290610Y5975451D01*
X8287105Y5972708D01*
X8282736Y5971743D01*
X8243011Y5971743D01*
G37*

%LPD*%
G36*
X3185210Y5002326D02*
G01*
X3181146Y5004155D01*
X3178251Y5007610D01*
X3175457Y5013045D01*
X3167430Y5024221D01*
X3158642Y5033264D01*
X3148736Y5041036D01*
X3137712Y5047386D01*
X3126282Y5052060D01*
X3114040Y5055158D01*
X3101492Y5056479D01*
X3090011Y5056174D01*
X3086049Y5056886D01*
X3082696Y5059019D01*
X3080410Y5062321D01*
X3079597Y5066284D01*
X3080359Y5070195D01*
X3082594Y5073548D01*
X3175762Y5166715D01*
X3179267Y5169001D01*
X3183432Y5169712D01*
X3187496Y5168646D01*
X3190748Y5166055D01*
X3192932Y5161686D01*
X3196539Y5153507D01*
X3197453Y5149392D01*
X3197453Y5012283D01*
X3196437Y5007914D01*
X3193694Y5004409D01*
X3189681Y5002377D01*
G37*

%LPD*%
G36*
X3023819Y3495497D02*
G01*
X3019399Y3495649D01*
X3015437Y3497630D01*
X3012694Y3501136D01*
X3011728Y3505454D01*
X3011728Y3527450D01*
X3012541Y3531311D01*
X3014726Y3534613D01*
X3018028Y3536848D01*
X3021888Y3537610D01*
X3069844Y3537610D01*
X3073958Y3536746D01*
X3077311Y3534308D01*
X3079445Y3530752D01*
X3080004Y3526637D01*
X3078784Y3522624D01*
X3076143Y3519424D01*
X3072384Y3517595D01*
X3061512Y3514801D01*
X3047644Y3509314D01*
X3034639Y3502151D01*
X3027883Y3497275D01*
G37*

%LPD*%
G36*
X3187496Y3484372D02*
G01*
X3183636Y3485083D01*
X3180334Y3487115D01*
X3173628Y3493414D01*
X3161588Y3502151D01*
X3148584Y3509314D01*
X3134715Y3514801D01*
X3123844Y3517595D01*
X3120085Y3519424D01*
X3117443Y3522624D01*
X3116224Y3526637D01*
X3116783Y3530752D01*
X3118916Y3534308D01*
X3122269Y3536746D01*
X3126384Y3537610D01*
X3175609Y3537610D01*
X3188055Y3538931D01*
X3191713Y3537965D01*
X3194761Y3535679D01*
X3196742Y3532530D01*
X3197453Y3528822D01*
X3197453Y3494532D01*
X3196691Y3490722D01*
X3194558Y3487420D01*
X3191306Y3485235D01*
G37*

%LPD*%
G36*
X2840126Y3427171D02*
G01*
X2836164Y3428187D01*
X2832912Y3430625D01*
X2830880Y3434181D01*
X2827172Y3445713D01*
X2820822Y3459175D01*
X2812846Y3471773D01*
X2803347Y3483203D01*
X2792526Y3493414D01*
X2780487Y3502151D01*
X2767431Y3509314D01*
X2753614Y3514801D01*
X2739186Y3518509D01*
X2734970Y3519017D01*
X2731058Y3520389D01*
X2727960Y3523234D01*
X2726334Y3527044D01*
X2726334Y3531209D01*
X2727960Y3535019D01*
X2731058Y3537813D01*
X2734970Y3539185D01*
X2739186Y3539744D01*
X2753614Y3543401D01*
X2767431Y3548887D01*
X2780487Y3556050D01*
X2792526Y3564839D01*
X2803347Y3574999D01*
X2812846Y3586479D01*
X2820822Y3599027D01*
X2827172Y3612489D01*
X2830880Y3624021D01*
X2832912Y3627577D01*
X2836164Y3630066D01*
X2840126Y3631031D01*
X2844139Y3630422D01*
X2847594Y3628237D01*
X2849930Y3624884D01*
X2850743Y3620922D01*
X2850743Y3437331D01*
X2849930Y3433318D01*
X2847594Y3429965D01*
X2844139Y3427831D01*
G37*

%LPD*%
G36*
X5936843Y3245002D02*
G01*
X5932424Y3245154D01*
X5928461Y3247186D01*
X5925718Y3250692D01*
X5924753Y3255010D01*
X5924753Y3295243D01*
X5925718Y3299561D01*
X5928461Y3303066D01*
X5932424Y3305048D01*
X5936843Y3305200D01*
X5940907Y3303473D01*
X5942787Y3302050D01*
X5955842Y3294887D01*
X5969660Y3289401D01*
X5984087Y3285744D01*
X5988304Y3285185D01*
X5992215Y3283813D01*
X5995314Y3281019D01*
X5996940Y3277209D01*
X5996940Y3273044D01*
X5995314Y3269234D01*
X5992215Y3266389D01*
X5988304Y3265017D01*
X5984087Y3264509D01*
X5969660Y3260801D01*
X5955842Y3255314D01*
X5942787Y3248152D01*
X5940907Y3246780D01*
G37*

%LPD*%
G36*
X3023819Y3241497D02*
G01*
X3019399Y3241649D01*
X3015437Y3243630D01*
X3012694Y3247136D01*
X3011728Y3251453D01*
X3011728Y3298748D01*
X3012694Y3303066D01*
X3015437Y3306572D01*
X3019399Y3308604D01*
X3023819Y3308756D01*
X3027883Y3306978D01*
X3034639Y3302050D01*
X3047644Y3294887D01*
X3061512Y3289401D01*
X3075889Y3285744D01*
X3080105Y3285185D01*
X3084017Y3283813D01*
X3087065Y3281019D01*
X3088741Y3277209D01*
X3088741Y3273044D01*
X3087065Y3269234D01*
X3084017Y3266389D01*
X3080105Y3265017D01*
X3075889Y3264509D01*
X3061512Y3260801D01*
X3047644Y3255314D01*
X3034639Y3248152D01*
X3027883Y3243275D01*
G37*

%LPD*%
G36*
X3187496Y3230372D02*
G01*
X3183636Y3231083D01*
X3180334Y3233115D01*
X3173628Y3239414D01*
X3161588Y3248152D01*
X3148584Y3255314D01*
X3134715Y3260801D01*
X3120339Y3264509D01*
X3116122Y3265017D01*
X3112211Y3266389D01*
X3109163Y3269234D01*
X3107486Y3273044D01*
X3107486Y3277209D01*
X3109163Y3281019D01*
X3112211Y3283813D01*
X3116122Y3285185D01*
X3120339Y3285744D01*
X3134715Y3289401D01*
X3148584Y3294887D01*
X3161588Y3302050D01*
X3173628Y3310839D01*
X3180334Y3317087D01*
X3183636Y3319170D01*
X3187496Y3319830D01*
X3191306Y3319018D01*
X3194558Y3316782D01*
X3196691Y3313531D01*
X3197453Y3309670D01*
X3197453Y3240532D01*
X3196691Y3236722D01*
X3194558Y3233420D01*
X3191306Y3231235D01*
G37*

%LPD*%
G36*
X5753862Y3194151D02*
G01*
X5750001Y3194812D01*
X5746699Y3196844D01*
X5744413Y3199993D01*
X5741924Y3205175D01*
X5733999Y3217773D01*
X5724499Y3229203D01*
X5713628Y3239414D01*
X5701588Y3248152D01*
X5688584Y3255314D01*
X5674715Y3260801D01*
X5660339Y3264509D01*
X5656122Y3265017D01*
X5652211Y3266389D01*
X5649163Y3269234D01*
X5647486Y3273044D01*
X5647486Y3277209D01*
X5649163Y3281019D01*
X5652211Y3283813D01*
X5656122Y3285185D01*
X5660339Y3285744D01*
X5674715Y3289401D01*
X5688584Y3294887D01*
X5701588Y3302050D01*
X5713628Y3310839D01*
X5724499Y3320999D01*
X5733999Y3332479D01*
X5741924Y3345027D01*
X5744413Y3350260D01*
X5746699Y3353358D01*
X5750001Y3355441D01*
X5753862Y3356051D01*
X5757672Y3355238D01*
X5760872Y3353003D01*
X5763006Y3349751D01*
X5763768Y3345891D01*
X5763768Y3204311D01*
X5763006Y3200501D01*
X5760872Y3197250D01*
X5757672Y3195015D01*
G37*

%LPD*%
G36*
X2840126Y3173171D02*
G01*
X2836164Y3174187D01*
X2832912Y3176625D01*
X2830880Y3180181D01*
X2827172Y3191713D01*
X2820822Y3205175D01*
X2812846Y3217773D01*
X2803347Y3229203D01*
X2792526Y3239414D01*
X2780487Y3248152D01*
X2767431Y3255314D01*
X2753614Y3260801D01*
X2739186Y3264509D01*
X2734970Y3265017D01*
X2731058Y3266389D01*
X2727960Y3269234D01*
X2726334Y3273044D01*
X2726334Y3277209D01*
X2727960Y3281019D01*
X2731058Y3283813D01*
X2734970Y3285185D01*
X2739186Y3285744D01*
X2753614Y3289401D01*
X2767431Y3294887D01*
X2780487Y3302050D01*
X2792526Y3310839D01*
X2803347Y3320999D01*
X2812846Y3332479D01*
X2820822Y3345027D01*
X2827172Y3358489D01*
X2830880Y3370021D01*
X2832912Y3373577D01*
X2836164Y3376066D01*
X2840126Y3377031D01*
X2844139Y3376422D01*
X2847594Y3374237D01*
X2849930Y3370884D01*
X2850743Y3366922D01*
X2850743Y3183331D01*
X2849930Y3179318D01*
X2847594Y3175965D01*
X2844139Y3173831D01*
G37*

%LPD*%
G36*
X5936843Y2991002D02*
G01*
X5932424Y2991154D01*
X5928461Y2993186D01*
X5925718Y2996692D01*
X5924753Y3001010D01*
X5924753Y3041243D01*
X5925718Y3045561D01*
X5928461Y3049066D01*
X5932424Y3051048D01*
X5936843Y3051200D01*
X5940907Y3049473D01*
X5942787Y3048050D01*
X5955842Y3040888D01*
X5969660Y3035401D01*
X5984087Y3031744D01*
X5988304Y3031185D01*
X5992215Y3029813D01*
X5995314Y3027019D01*
X5996940Y3023209D01*
X5996940Y3019044D01*
X5995314Y3015234D01*
X5992215Y3012389D01*
X5988304Y3011017D01*
X5984087Y3010509D01*
X5969660Y3006801D01*
X5955842Y3001314D01*
X5942787Y2994152D01*
X5940907Y2992780D01*
G37*

%LPD*%
G36*
X3023819Y2987497D02*
G01*
X3019399Y2987649D01*
X3015437Y2989630D01*
X3012694Y2993136D01*
X3011728Y2997454D01*
X3011728Y3044748D01*
X3012694Y3049066D01*
X3015437Y3052572D01*
X3019399Y3054604D01*
X3023819Y3054756D01*
X3027883Y3052978D01*
X3034639Y3048050D01*
X3047644Y3040888D01*
X3061512Y3035401D01*
X3075889Y3031744D01*
X3080105Y3031185D01*
X3084017Y3029813D01*
X3087065Y3027019D01*
X3088741Y3023209D01*
X3088741Y3019044D01*
X3087065Y3015234D01*
X3084017Y3012389D01*
X3080105Y3011017D01*
X3075889Y3010509D01*
X3061512Y3006801D01*
X3047644Y3001314D01*
X3034639Y2994152D01*
X3027883Y2989275D01*
G37*

%LPD*%
G36*
X3187496Y2976372D02*
G01*
X3183636Y2977083D01*
X3180334Y2979115D01*
X3173628Y2985414D01*
X3161588Y2994152D01*
X3148584Y3001314D01*
X3134715Y3006801D01*
X3120339Y3010509D01*
X3116122Y3011017D01*
X3112211Y3012389D01*
X3109163Y3015234D01*
X3107486Y3019044D01*
X3107486Y3023209D01*
X3109163Y3027019D01*
X3112211Y3029813D01*
X3116122Y3031185D01*
X3120339Y3031744D01*
X3134715Y3035401D01*
X3148584Y3040888D01*
X3161588Y3048050D01*
X3173628Y3056839D01*
X3180334Y3063087D01*
X3183636Y3065170D01*
X3187496Y3065830D01*
X3191306Y3065018D01*
X3194558Y3062782D01*
X3196691Y3059531D01*
X3197453Y3055670D01*
X3197453Y2986532D01*
X3196691Y2982722D01*
X3194558Y2979420D01*
X3191306Y2977235D01*
G37*

%LPD*%
G36*
X5753862Y2940151D02*
G01*
X5750001Y2940812D01*
X5746699Y2942844D01*
X5744413Y2945993D01*
X5741924Y2951175D01*
X5733999Y2963773D01*
X5724499Y2975203D01*
X5713628Y2985414D01*
X5701588Y2994152D01*
X5688584Y3001314D01*
X5674715Y3006801D01*
X5660339Y3010509D01*
X5656122Y3011017D01*
X5652211Y3012389D01*
X5649163Y3015234D01*
X5647486Y3019044D01*
X5647486Y3023209D01*
X5649163Y3027019D01*
X5652211Y3029813D01*
X5656122Y3031185D01*
X5660339Y3031744D01*
X5674715Y3035401D01*
X5688584Y3040888D01*
X5701588Y3048050D01*
X5713628Y3056839D01*
X5724499Y3066999D01*
X5733999Y3078480D01*
X5741924Y3091027D01*
X5744413Y3096260D01*
X5746699Y3099358D01*
X5750001Y3101441D01*
X5753862Y3102051D01*
X5757672Y3101238D01*
X5760872Y3099003D01*
X5763006Y3095752D01*
X5763768Y3091891D01*
X5763768Y2950311D01*
X5763006Y2946501D01*
X5760872Y2943250D01*
X5757672Y2941015D01*
G37*

%LPD*%
G36*
X2840126Y2919171D02*
G01*
X2836164Y2920187D01*
X2832912Y2922625D01*
X2830880Y2926181D01*
X2827172Y2937713D01*
X2820822Y2951175D01*
X2812846Y2963773D01*
X2803347Y2975203D01*
X2792526Y2985414D01*
X2780487Y2994152D01*
X2767431Y3001314D01*
X2753614Y3006801D01*
X2739186Y3010509D01*
X2734970Y3011017D01*
X2731058Y3012389D01*
X2727960Y3015234D01*
X2726334Y3019044D01*
X2726334Y3023209D01*
X2727960Y3027019D01*
X2731058Y3029813D01*
X2734970Y3031185D01*
X2739186Y3031744D01*
X2753614Y3035401D01*
X2767431Y3040888D01*
X2780487Y3048050D01*
X2792526Y3056839D01*
X2803347Y3066999D01*
X2812846Y3078480D01*
X2820822Y3091027D01*
X2827172Y3104489D01*
X2830880Y3116021D01*
X2832912Y3119577D01*
X2836164Y3122066D01*
X2840126Y3123031D01*
X2844139Y3122422D01*
X2847594Y3120237D01*
X2849930Y3116884D01*
X2850743Y3112922D01*
X2850743Y2929331D01*
X2849930Y2925318D01*
X2847594Y2921965D01*
X2844139Y2919831D01*
G37*

%LPD*%
G36*
X5936843Y2737002D02*
G01*
X5932424Y2737154D01*
X5928461Y2739186D01*
X5925718Y2742692D01*
X5924753Y2747010D01*
X5924753Y2787243D01*
X5925718Y2791561D01*
X5928461Y2795066D01*
X5932424Y2797048D01*
X5936843Y2797200D01*
X5940907Y2795473D01*
X5942787Y2794050D01*
X5955842Y2786888D01*
X5969660Y2781401D01*
X5984087Y2777744D01*
X5988304Y2777185D01*
X5992215Y2775813D01*
X5995314Y2773019D01*
X5996940Y2769209D01*
X5996940Y2765044D01*
X5995314Y2761234D01*
X5992215Y2758389D01*
X5988304Y2757017D01*
X5984087Y2756509D01*
X5969660Y2752801D01*
X5955842Y2747314D01*
X5942787Y2740152D01*
X5940907Y2738780D01*
G37*

%LPD*%
G36*
X3023819Y2733497D02*
G01*
X3019399Y2733649D01*
X3015437Y2735630D01*
X3012694Y2739136D01*
X3011728Y2743454D01*
X3011728Y2790748D01*
X3012694Y2795066D01*
X3015437Y2798572D01*
X3019399Y2800604D01*
X3023819Y2800756D01*
X3027883Y2798978D01*
X3034639Y2794050D01*
X3047644Y2786888D01*
X3061512Y2781401D01*
X3075889Y2777744D01*
X3080105Y2777185D01*
X3084017Y2775813D01*
X3087065Y2773019D01*
X3088741Y2769209D01*
X3088741Y2765044D01*
X3087065Y2761234D01*
X3084017Y2758389D01*
X3080105Y2757017D01*
X3075889Y2756509D01*
X3061512Y2752801D01*
X3047644Y2747314D01*
X3034639Y2740152D01*
X3027883Y2735275D01*
G37*

%LPD*%
G36*
X3187496Y2722372D02*
G01*
X3183636Y2723083D01*
X3180334Y2725115D01*
X3173628Y2731414D01*
X3161588Y2740152D01*
X3148584Y2747314D01*
X3134715Y2752801D01*
X3120339Y2756509D01*
X3116122Y2757017D01*
X3112211Y2758389D01*
X3109163Y2761234D01*
X3107486Y2765044D01*
X3107486Y2769209D01*
X3109163Y2773019D01*
X3112211Y2775813D01*
X3116122Y2777185D01*
X3120339Y2777744D01*
X3134715Y2781401D01*
X3148584Y2786888D01*
X3161588Y2794050D01*
X3173628Y2802839D01*
X3180334Y2809087D01*
X3183636Y2811170D01*
X3187496Y2811830D01*
X3191306Y2811018D01*
X3194558Y2808782D01*
X3196691Y2805531D01*
X3197453Y2801670D01*
X3197453Y2732532D01*
X3196691Y2728722D01*
X3194558Y2725420D01*
X3191306Y2723235D01*
G37*

%LPD*%
G36*
X5753862Y2686151D02*
G01*
X5750001Y2686812D01*
X5746699Y2688844D01*
X5744413Y2691993D01*
X5741924Y2697175D01*
X5733999Y2709773D01*
X5724499Y2721203D01*
X5713628Y2731414D01*
X5701588Y2740152D01*
X5688584Y2747314D01*
X5674715Y2752801D01*
X5660339Y2756509D01*
X5656122Y2757017D01*
X5652211Y2758389D01*
X5649163Y2761234D01*
X5647486Y2765044D01*
X5647486Y2769209D01*
X5649163Y2773019D01*
X5652211Y2775813D01*
X5656122Y2777185D01*
X5660339Y2777744D01*
X5674715Y2781401D01*
X5688584Y2786888D01*
X5701588Y2794050D01*
X5713628Y2802839D01*
X5724499Y2812999D01*
X5733999Y2824480D01*
X5741924Y2837027D01*
X5744413Y2842260D01*
X5746699Y2845358D01*
X5750001Y2847441D01*
X5753862Y2848051D01*
X5757672Y2847238D01*
X5760872Y2845003D01*
X5763006Y2841752D01*
X5763768Y2837891D01*
X5763768Y2696311D01*
X5763006Y2692501D01*
X5760872Y2689250D01*
X5757672Y2687015D01*
G37*

%LPD*%
G36*
X2840126Y2665171D02*
G01*
X2836164Y2666187D01*
X2832912Y2668625D01*
X2830880Y2672181D01*
X2827172Y2683713D01*
X2820822Y2697175D01*
X2812846Y2709773D01*
X2803347Y2721203D01*
X2792526Y2731414D01*
X2780487Y2740152D01*
X2767431Y2747314D01*
X2753614Y2752801D01*
X2739186Y2756509D01*
X2734970Y2757017D01*
X2731058Y2758389D01*
X2727960Y2761234D01*
X2726334Y2765044D01*
X2726334Y2769209D01*
X2727960Y2773019D01*
X2731058Y2775813D01*
X2734970Y2777185D01*
X2739186Y2777744D01*
X2753614Y2781401D01*
X2767431Y2786888D01*
X2780487Y2794050D01*
X2792526Y2802839D01*
X2803347Y2812999D01*
X2812846Y2824480D01*
X2820822Y2837027D01*
X2827172Y2850489D01*
X2830880Y2862021D01*
X2832912Y2865577D01*
X2836164Y2868066D01*
X2840126Y2869031D01*
X2844139Y2868422D01*
X2847594Y2866237D01*
X2849930Y2862884D01*
X2850743Y2858922D01*
X2850743Y2675331D01*
X2849930Y2671318D01*
X2847594Y2667965D01*
X2844139Y2665831D01*
G37*

%LPD*%
G36*
X5936843Y2483002D02*
G01*
X5932424Y2483154D01*
X5928461Y2485186D01*
X5925718Y2488692D01*
X5924753Y2493010D01*
X5924753Y2533243D01*
X5925718Y2537561D01*
X5928461Y2541066D01*
X5932424Y2543048D01*
X5936843Y2543200D01*
X5940907Y2541473D01*
X5942787Y2540050D01*
X5955842Y2532888D01*
X5969660Y2527401D01*
X5984087Y2523744D01*
X5988304Y2523185D01*
X5992215Y2521813D01*
X5995314Y2519019D01*
X5996940Y2515209D01*
X5996940Y2511044D01*
X5995314Y2507234D01*
X5992215Y2504389D01*
X5988304Y2503017D01*
X5984087Y2502509D01*
X5969660Y2498801D01*
X5955842Y2493314D01*
X5942787Y2486152D01*
X5940907Y2484780D01*
G37*

%LPD*%
G36*
X3023819Y2479497D02*
G01*
X3019399Y2479649D01*
X3015437Y2481630D01*
X3012694Y2485136D01*
X3011728Y2489454D01*
X3011728Y2536748D01*
X3012694Y2541066D01*
X3015437Y2544572D01*
X3019399Y2546604D01*
X3023819Y2546756D01*
X3027883Y2544978D01*
X3034639Y2540050D01*
X3047644Y2532888D01*
X3061512Y2527401D01*
X3075889Y2523744D01*
X3080105Y2523185D01*
X3084017Y2521813D01*
X3087065Y2519019D01*
X3088741Y2515209D01*
X3088741Y2511044D01*
X3087065Y2507234D01*
X3084017Y2504389D01*
X3080105Y2503017D01*
X3075889Y2502509D01*
X3061512Y2498801D01*
X3047644Y2493314D01*
X3034639Y2486152D01*
X3027883Y2481275D01*
G37*

%LPD*%
G36*
X3187496Y2468372D02*
G01*
X3183636Y2469083D01*
X3180334Y2471115D01*
X3173628Y2477414D01*
X3161588Y2486152D01*
X3148584Y2493314D01*
X3134715Y2498801D01*
X3120339Y2502509D01*
X3116122Y2503017D01*
X3112211Y2504389D01*
X3109163Y2507234D01*
X3107486Y2511044D01*
X3107486Y2515209D01*
X3109163Y2519019D01*
X3112211Y2521813D01*
X3116122Y2523185D01*
X3120339Y2523744D01*
X3134715Y2527401D01*
X3148584Y2532888D01*
X3161588Y2540050D01*
X3173628Y2548839D01*
X3180334Y2555087D01*
X3183636Y2557170D01*
X3187496Y2557830D01*
X3191306Y2557018D01*
X3194558Y2554782D01*
X3196691Y2551531D01*
X3197453Y2547670D01*
X3197453Y2478532D01*
X3196691Y2474722D01*
X3194558Y2471420D01*
X3191306Y2469235D01*
G37*

%LPD*%
G36*
X5753862Y2432151D02*
G01*
X5750001Y2432812D01*
X5746699Y2434844D01*
X5744413Y2437993D01*
X5741924Y2443175D01*
X5733999Y2455773D01*
X5724499Y2467203D01*
X5713628Y2477414D01*
X5701588Y2486152D01*
X5688584Y2493314D01*
X5674715Y2498801D01*
X5660339Y2502509D01*
X5656122Y2503017D01*
X5652211Y2504389D01*
X5649163Y2507234D01*
X5647486Y2511044D01*
X5647486Y2515209D01*
X5649163Y2519019D01*
X5652211Y2521813D01*
X5656122Y2523185D01*
X5660339Y2523744D01*
X5674715Y2527401D01*
X5688584Y2532888D01*
X5701588Y2540050D01*
X5713628Y2548839D01*
X5724499Y2558999D01*
X5733999Y2570480D01*
X5741924Y2583027D01*
X5744413Y2588260D01*
X5746699Y2591358D01*
X5750001Y2593441D01*
X5753862Y2594051D01*
X5757672Y2593238D01*
X5760872Y2591003D01*
X5763006Y2587752D01*
X5763768Y2583891D01*
X5763768Y2442311D01*
X5763006Y2438501D01*
X5760872Y2435250D01*
X5757672Y2433015D01*
G37*

%LPD*%
G36*
X2840126Y2411171D02*
G01*
X2836164Y2412187D01*
X2832912Y2414625D01*
X2830880Y2418181D01*
X2827172Y2429713D01*
X2820822Y2443175D01*
X2812846Y2455773D01*
X2803347Y2467203D01*
X2792526Y2477414D01*
X2780487Y2486152D01*
X2767431Y2493314D01*
X2753614Y2498801D01*
X2739186Y2502509D01*
X2734970Y2503017D01*
X2731058Y2504389D01*
X2727960Y2507234D01*
X2726334Y2511044D01*
X2726334Y2515209D01*
X2727960Y2519019D01*
X2731058Y2521813D01*
X2734970Y2523185D01*
X2739186Y2523744D01*
X2753614Y2527401D01*
X2767431Y2532888D01*
X2780487Y2540050D01*
X2792526Y2548839D01*
X2803347Y2558999D01*
X2812846Y2570480D01*
X2820822Y2583027D01*
X2827172Y2596489D01*
X2830880Y2608021D01*
X2832912Y2611577D01*
X2836164Y2614066D01*
X2840126Y2615031D01*
X2844139Y2614422D01*
X2847594Y2612237D01*
X2849930Y2608884D01*
X2850743Y2604922D01*
X2850743Y2421331D01*
X2849930Y2417318D01*
X2847594Y2413965D01*
X2844139Y2411831D01*
G37*

%LPD*%
G36*
X3023819Y2225497D02*
G01*
X3019399Y2225649D01*
X3015437Y2227630D01*
X3012694Y2231136D01*
X3011728Y2235454D01*
X3011728Y2282748D01*
X3012694Y2287066D01*
X3015437Y2290572D01*
X3019399Y2292604D01*
X3023819Y2292756D01*
X3027883Y2290978D01*
X3034639Y2286050D01*
X3047644Y2278888D01*
X3061512Y2273401D01*
X3075889Y2269744D01*
X3080105Y2269185D01*
X3084017Y2267813D01*
X3087065Y2265019D01*
X3088741Y2261209D01*
X3088741Y2257044D01*
X3087065Y2253234D01*
X3084017Y2250389D01*
X3080105Y2249017D01*
X3075889Y2248509D01*
X3061512Y2244801D01*
X3047644Y2239314D01*
X3034639Y2232152D01*
X3027883Y2227275D01*
G37*

%LPD*%
G36*
X3187496Y2214372D02*
G01*
X3183636Y2215083D01*
X3180334Y2217115D01*
X3173628Y2223414D01*
X3161588Y2232152D01*
X3148584Y2239314D01*
X3134715Y2244801D01*
X3120339Y2248509D01*
X3116122Y2249017D01*
X3112211Y2250389D01*
X3109163Y2253234D01*
X3107486Y2257044D01*
X3107486Y2261209D01*
X3109163Y2265019D01*
X3112211Y2267813D01*
X3116122Y2269185D01*
X3120339Y2269744D01*
X3134715Y2273401D01*
X3148584Y2278888D01*
X3161588Y2286050D01*
X3173628Y2294839D01*
X3180334Y2301087D01*
X3183636Y2303170D01*
X3187496Y2303830D01*
X3191306Y2303018D01*
X3194558Y2300782D01*
X3196691Y2297531D01*
X3197453Y2293670D01*
X3197453Y2224532D01*
X3196691Y2220722D01*
X3194558Y2217420D01*
X3191306Y2215235D01*
G37*

%LPD*%
G36*
X2840126Y2157171D02*
G01*
X2836164Y2158187D01*
X2832912Y2160625D01*
X2830880Y2164181D01*
X2827172Y2175713D01*
X2820822Y2189175D01*
X2812846Y2201773D01*
X2803347Y2213203D01*
X2792526Y2223414D01*
X2780487Y2232152D01*
X2767431Y2239314D01*
X2753614Y2244801D01*
X2739186Y2248509D01*
X2734970Y2249017D01*
X2731058Y2250389D01*
X2727960Y2253234D01*
X2726334Y2257044D01*
X2726334Y2261209D01*
X2727960Y2265019D01*
X2731058Y2267813D01*
X2734970Y2269185D01*
X2739186Y2269744D01*
X2753614Y2273401D01*
X2767431Y2278888D01*
X2780487Y2286050D01*
X2792526Y2294839D01*
X2803347Y2304999D01*
X2812846Y2316480D01*
X2820822Y2329027D01*
X2827172Y2342489D01*
X2830880Y2354021D01*
X2832912Y2357577D01*
X2836164Y2360066D01*
X2840126Y2361031D01*
X2844139Y2360422D01*
X2847594Y2358237D01*
X2849930Y2354884D01*
X2850743Y2350922D01*
X2850743Y2167331D01*
X2849930Y2163318D01*
X2847594Y2159965D01*
X2844139Y2157831D01*
G37*

%LPD*%
G36*
X3023819Y1971497D02*
G01*
X3019399Y1971649D01*
X3015437Y1973630D01*
X3012694Y1977136D01*
X3011728Y1981454D01*
X3011728Y2028748D01*
X3012694Y2033066D01*
X3015437Y2036572D01*
X3019399Y2038604D01*
X3023819Y2038756D01*
X3027883Y2036978D01*
X3034639Y2032050D01*
X3047644Y2024888D01*
X3061512Y2019401D01*
X3075889Y2015743D01*
X3080105Y2015185D01*
X3084017Y2013813D01*
X3087065Y2011019D01*
X3088741Y2007209D01*
X3088741Y2003043D01*
X3087065Y1999234D01*
X3084017Y1996389D01*
X3080105Y1995017D01*
X3075889Y1994509D01*
X3061512Y1990801D01*
X3047644Y1985314D01*
X3034639Y1978152D01*
X3027883Y1973275D01*
G37*

%LPD*%
G36*
X3187496Y1960372D02*
G01*
X3183636Y1961083D01*
X3180334Y1963115D01*
X3173628Y1969414D01*
X3161588Y1978152D01*
X3148584Y1985314D01*
X3134715Y1990801D01*
X3120339Y1994509D01*
X3116122Y1995017D01*
X3112211Y1996389D01*
X3109163Y1999234D01*
X3107486Y2003043D01*
X3107486Y2007209D01*
X3109163Y2011019D01*
X3112211Y2013813D01*
X3116122Y2015185D01*
X3120339Y2015743D01*
X3134715Y2019401D01*
X3148584Y2024888D01*
X3161588Y2032050D01*
X3173628Y2040839D01*
X3180334Y2047087D01*
X3183636Y2049170D01*
X3187496Y2049830D01*
X3191306Y2049018D01*
X3194558Y2046782D01*
X3196691Y2043531D01*
X3197453Y2039670D01*
X3197453Y1970532D01*
X3196691Y1966722D01*
X3194558Y1963420D01*
X3191306Y1961235D01*
G37*

%LPD*%
G36*
X2840126Y1903171D02*
G01*
X2836164Y1904187D01*
X2832912Y1906625D01*
X2830880Y1910181D01*
X2827172Y1921713D01*
X2820822Y1935175D01*
X2812846Y1947773D01*
X2803347Y1959203D01*
X2792526Y1969414D01*
X2780487Y1978152D01*
X2767431Y1985314D01*
X2753614Y1990801D01*
X2739186Y1994509D01*
X2734970Y1995017D01*
X2731058Y1996389D01*
X2727960Y1999234D01*
X2726334Y2003043D01*
X2726334Y2007209D01*
X2727960Y2011019D01*
X2731058Y2013813D01*
X2734970Y2015185D01*
X2739186Y2015743D01*
X2753614Y2019401D01*
X2767431Y2024888D01*
X2780487Y2032050D01*
X2792526Y2040839D01*
X2803347Y2050999D01*
X2812846Y2062480D01*
X2820822Y2075027D01*
X2827172Y2088489D01*
X2830880Y2100021D01*
X2832912Y2103577D01*
X2836164Y2106066D01*
X2840126Y2107031D01*
X2844139Y2106422D01*
X2847594Y2104237D01*
X2849930Y2100884D01*
X2850743Y2096922D01*
X2850743Y1913331D01*
X2849930Y1909318D01*
X2847594Y1905965D01*
X2844139Y1903831D01*
G37*

%LPD*%
G36*
X5936843Y1721002D02*
G01*
X5932424Y1721154D01*
X5928461Y1723186D01*
X5925718Y1726692D01*
X5924753Y1731010D01*
X5924753Y1771243D01*
X5925718Y1775561D01*
X5928461Y1779066D01*
X5932424Y1781048D01*
X5936843Y1781200D01*
X5940907Y1779473D01*
X5942787Y1778050D01*
X5955842Y1770888D01*
X5969660Y1765401D01*
X5984087Y1761743D01*
X5988304Y1761185D01*
X5992215Y1759813D01*
X5995314Y1757019D01*
X5996940Y1753209D01*
X5996940Y1749043D01*
X5995314Y1745234D01*
X5992215Y1742389D01*
X5988304Y1741017D01*
X5984087Y1740509D01*
X5969660Y1736801D01*
X5955842Y1731314D01*
X5942787Y1724152D01*
X5940907Y1722780D01*
G37*

%LPD*%
G36*
X3023819Y1717497D02*
G01*
X3019399Y1717649D01*
X3015437Y1719630D01*
X3012694Y1723136D01*
X3011728Y1727454D01*
X3011728Y1774748D01*
X3012694Y1779066D01*
X3015437Y1782572D01*
X3019399Y1784604D01*
X3023819Y1784756D01*
X3027883Y1782978D01*
X3034639Y1778050D01*
X3047644Y1770888D01*
X3061512Y1765401D01*
X3075889Y1761743D01*
X3080105Y1761185D01*
X3084017Y1759813D01*
X3087065Y1757019D01*
X3088741Y1753209D01*
X3088741Y1749043D01*
X3087065Y1745234D01*
X3084017Y1742389D01*
X3080105Y1741017D01*
X3075889Y1740509D01*
X3061512Y1736801D01*
X3047644Y1731314D01*
X3034639Y1724152D01*
X3027883Y1719275D01*
G37*

%LPD*%
G36*
X3187496Y1706372D02*
G01*
X3183636Y1707083D01*
X3180334Y1709115D01*
X3173628Y1715414D01*
X3161588Y1724152D01*
X3148584Y1731314D01*
X3134715Y1736801D01*
X3120339Y1740509D01*
X3116122Y1741017D01*
X3112211Y1742389D01*
X3109163Y1745234D01*
X3107486Y1749043D01*
X3107486Y1753209D01*
X3109163Y1757019D01*
X3112211Y1759813D01*
X3116122Y1761185D01*
X3120339Y1761743D01*
X3134715Y1765401D01*
X3148584Y1770888D01*
X3161588Y1778050D01*
X3173628Y1786839D01*
X3180334Y1793087D01*
X3183636Y1795170D01*
X3187496Y1795830D01*
X3191306Y1795018D01*
X3194558Y1792782D01*
X3196691Y1789531D01*
X3197453Y1785670D01*
X3197453Y1716532D01*
X3196691Y1712722D01*
X3194558Y1709420D01*
X3191306Y1707235D01*
G37*

%LPD*%
G36*
X5753862Y1670151D02*
G01*
X5750001Y1670812D01*
X5746699Y1672843D01*
X5744413Y1675993D01*
X5741924Y1681175D01*
X5733999Y1693773D01*
X5724499Y1705203D01*
X5713628Y1715414D01*
X5701588Y1724152D01*
X5688584Y1731314D01*
X5674715Y1736801D01*
X5660339Y1740509D01*
X5656122Y1741017D01*
X5652211Y1742389D01*
X5649163Y1745234D01*
X5647486Y1749043D01*
X5647486Y1753209D01*
X5649163Y1757019D01*
X5652211Y1759813D01*
X5656122Y1761185D01*
X5660339Y1761743D01*
X5674715Y1765401D01*
X5688584Y1770888D01*
X5701588Y1778050D01*
X5713628Y1786839D01*
X5724499Y1796999D01*
X5733999Y1808480D01*
X5741924Y1821027D01*
X5744413Y1826260D01*
X5746699Y1829358D01*
X5750001Y1831441D01*
X5753862Y1832051D01*
X5757672Y1831238D01*
X5760872Y1829003D01*
X5763006Y1825752D01*
X5763768Y1821891D01*
X5763768Y1680311D01*
X5763006Y1676501D01*
X5760872Y1673250D01*
X5757672Y1671015D01*
G37*

%LPD*%
G36*
X2840126Y1649171D02*
G01*
X2836164Y1650187D01*
X2832912Y1652625D01*
X2830880Y1656181D01*
X2827172Y1667713D01*
X2820822Y1681175D01*
X2812846Y1693773D01*
X2803347Y1705203D01*
X2792526Y1715414D01*
X2780487Y1724152D01*
X2767431Y1731314D01*
X2753614Y1736801D01*
X2739186Y1740509D01*
X2734970Y1741017D01*
X2731058Y1742389D01*
X2727960Y1745234D01*
X2726334Y1749043D01*
X2726334Y1753209D01*
X2727960Y1757019D01*
X2731058Y1759813D01*
X2734970Y1761185D01*
X2739186Y1761743D01*
X2753614Y1765401D01*
X2767431Y1770888D01*
X2780487Y1778050D01*
X2792526Y1786839D01*
X2803347Y1796999D01*
X2812846Y1808480D01*
X2820822Y1821027D01*
X2827172Y1834489D01*
X2830880Y1846021D01*
X2832912Y1849577D01*
X2836164Y1852066D01*
X2840126Y1853031D01*
X2844139Y1852422D01*
X2847594Y1850237D01*
X2849930Y1846884D01*
X2850743Y1842922D01*
X2850743Y1659331D01*
X2849930Y1655318D01*
X2847594Y1651965D01*
X2844139Y1649831D01*
G37*

%LPD*%
G36*
X6441592Y1611833D02*
G01*
X6437477Y1612493D01*
X6433972Y1614779D01*
X6406286Y1642465D01*
X6404102Y1645767D01*
X6403340Y1649679D01*
X6403289Y2072386D01*
X6401968Y2084374D01*
X6399682Y2093468D01*
X6398869Y2096007D01*
X6395262Y2104694D01*
X6394094Y2107031D01*
X6389217Y2115108D01*
X6387693Y2117242D01*
X6381699Y2124456D01*
X6127750Y2378506D01*
X6125667Y2381554D01*
X6124803Y2385110D01*
X6123838Y2400960D01*
X6121044Y2415590D01*
X6116472Y2429713D01*
X6110122Y2443175D01*
X6102146Y2455773D01*
X6092647Y2467203D01*
X6081826Y2477414D01*
X6069787Y2486152D01*
X6056731Y2493314D01*
X6042914Y2498801D01*
X6028486Y2502509D01*
X6024270Y2503017D01*
X6020358Y2504389D01*
X6017260Y2507234D01*
X6015634Y2511044D01*
X6015634Y2515209D01*
X6017260Y2519019D01*
X6020358Y2521813D01*
X6024270Y2523185D01*
X6028486Y2523744D01*
X6042914Y2527401D01*
X6056731Y2532888D01*
X6069787Y2540050D01*
X6081826Y2548839D01*
X6092647Y2558999D01*
X6102146Y2570480D01*
X6110122Y2583027D01*
X6116472Y2596489D01*
X6121044Y2610662D01*
X6123838Y2625242D01*
X6124752Y2640126D01*
X6123838Y2654960D01*
X6121044Y2669590D01*
X6116472Y2683713D01*
X6110122Y2697175D01*
X6102146Y2709773D01*
X6092647Y2721203D01*
X6081826Y2731414D01*
X6069787Y2740152D01*
X6056731Y2747314D01*
X6042914Y2752801D01*
X6028486Y2756509D01*
X6024270Y2757017D01*
X6020358Y2758389D01*
X6017260Y2761234D01*
X6015634Y2765044D01*
X6015634Y2769209D01*
X6017260Y2773019D01*
X6020358Y2775813D01*
X6024270Y2777185D01*
X6028486Y2777744D01*
X6042914Y2781401D01*
X6056731Y2786888D01*
X6069787Y2794050D01*
X6081826Y2802839D01*
X6092647Y2812999D01*
X6102146Y2824480D01*
X6110122Y2837027D01*
X6116472Y2850489D01*
X6121044Y2864662D01*
X6123838Y2879242D01*
X6124651Y2892044D01*
X6125616Y2895752D01*
X6127902Y2898851D01*
X6131204Y2900883D01*
X6135014Y2901543D01*
X6138773Y2900730D01*
X6141974Y2898597D01*
X6432905Y2607614D01*
X6435090Y2604312D01*
X6435902Y2600452D01*
X6435953Y1669694D01*
X6436817Y1660347D01*
X6437274Y1657756D01*
X6439509Y1648612D01*
X6440322Y1646123D01*
X6443929Y1637436D01*
X6449872Y1627225D01*
X6451244Y1623263D01*
X6450888Y1619097D01*
X6448907Y1615440D01*
X6445656Y1612849D01*
G37*

%LPD*%
G36*
X5936843Y1467002D02*
G01*
X5932424Y1467154D01*
X5928461Y1469186D01*
X5925718Y1472692D01*
X5924753Y1477010D01*
X5924753Y1517243D01*
X5925718Y1521561D01*
X5928461Y1525066D01*
X5932424Y1527048D01*
X5936843Y1527200D01*
X5940907Y1525473D01*
X5942787Y1524050D01*
X5955842Y1516888D01*
X5969660Y1511401D01*
X5984087Y1507744D01*
X5988304Y1507185D01*
X5992215Y1505813D01*
X5995314Y1503019D01*
X5996940Y1499209D01*
X5996940Y1495044D01*
X5995314Y1491234D01*
X5992215Y1488389D01*
X5988304Y1487017D01*
X5984087Y1486509D01*
X5969660Y1482801D01*
X5955842Y1477314D01*
X5942787Y1470152D01*
X5940907Y1468780D01*
G37*

%LPD*%
G36*
X3187496Y1452372D02*
G01*
X3183636Y1453083D01*
X3180334Y1455115D01*
X3173628Y1461414D01*
X3161588Y1470152D01*
X3148584Y1477314D01*
X3134715Y1482801D01*
X3120339Y1486509D01*
X3116122Y1487017D01*
X3112211Y1488389D01*
X3109163Y1491234D01*
X3107486Y1495044D01*
X3107486Y1499209D01*
X3109163Y1503019D01*
X3112211Y1505813D01*
X3116122Y1507185D01*
X3120339Y1507744D01*
X3134715Y1511401D01*
X3148584Y1516888D01*
X3161588Y1524050D01*
X3173628Y1532839D01*
X3180334Y1539087D01*
X3183636Y1541170D01*
X3187496Y1541830D01*
X3191306Y1541018D01*
X3194558Y1538782D01*
X3196691Y1535531D01*
X3197453Y1531670D01*
X3197453Y1462532D01*
X3196691Y1458722D01*
X3194558Y1455420D01*
X3191306Y1453235D01*
G37*

%LPD*%
G36*
X5753862Y1416151D02*
G01*
X5750001Y1416812D01*
X5746699Y1418844D01*
X5744413Y1421993D01*
X5741924Y1427175D01*
X5733999Y1439773D01*
X5724499Y1451203D01*
X5713628Y1461414D01*
X5701588Y1470152D01*
X5688584Y1477314D01*
X5674715Y1482801D01*
X5660339Y1486509D01*
X5656122Y1487017D01*
X5652211Y1488389D01*
X5649163Y1491234D01*
X5647486Y1495044D01*
X5647486Y1499209D01*
X5649163Y1503019D01*
X5652211Y1505813D01*
X5656122Y1507185D01*
X5660339Y1507744D01*
X5674715Y1511401D01*
X5688584Y1516888D01*
X5701588Y1524050D01*
X5713628Y1532839D01*
X5724499Y1542999D01*
X5733999Y1554480D01*
X5741924Y1567027D01*
X5744413Y1572260D01*
X5746699Y1575358D01*
X5750001Y1577441D01*
X5753862Y1578051D01*
X5757672Y1577238D01*
X5760872Y1575003D01*
X5763006Y1571752D01*
X5763768Y1567891D01*
X5763768Y1426311D01*
X5763006Y1422501D01*
X5760872Y1419250D01*
X5757672Y1417015D01*
G37*

%LPD*%
G36*
X3352749Y1235252D02*
G01*
X3348685Y1236268D01*
X3345434Y1238859D01*
X3343452Y1242517D01*
X3343097Y1246682D01*
X3344468Y1250645D01*
X3350412Y1260856D01*
X3354019Y1269542D01*
X3354832Y1272032D01*
X3357067Y1281176D01*
X3357524Y1283766D01*
X3358387Y1293114D01*
X3358438Y5149240D01*
X3358743Y5151729D01*
X3360623Y5155844D01*
X3364941Y5167680D01*
X3367532Y5180025D01*
X3368446Y5192623D01*
X3367532Y5205222D01*
X3364941Y5217566D01*
X3360623Y5229453D01*
X3354679Y5240578D01*
X3347262Y5250789D01*
X3338474Y5259882D01*
X3328568Y5267655D01*
X3317595Y5273954D01*
X3307181Y5278170D01*
X3303879Y5280355D01*
X3301644Y5283657D01*
X3300831Y5287568D01*
X3301593Y5291480D01*
X3303828Y5294782D01*
X3416757Y5407710D01*
X3420059Y5409946D01*
X3423970Y5410708D01*
X6882739Y5410708D01*
X6887057Y5409742D01*
X6890562Y5406999D01*
X6894169Y5402580D01*
X6898487Y5399074D01*
X6901230Y5395569D01*
X6902196Y5391200D01*
X6901230Y5386832D01*
X6898487Y5383326D01*
X6894169Y5379821D01*
X6889140Y5373674D01*
X6885431Y5366664D01*
X6883095Y5359095D01*
X6882282Y5350713D01*
X6882282Y5231688D01*
X6883095Y5223306D01*
X6885431Y5215737D01*
X6889140Y5208727D01*
X6894169Y5202580D01*
X6898487Y5199075D01*
X6901230Y5195519D01*
X6902196Y5191201D01*
X6901230Y5186832D01*
X6898487Y5183327D01*
X6894169Y5179822D01*
X6889140Y5173675D01*
X6885431Y5166664D01*
X6883095Y5159095D01*
X6882282Y5150713D01*
X6882282Y5035448D01*
X6881520Y5031536D01*
X6879336Y5028234D01*
X6876034Y5026050D01*
X6872122Y5025288D01*
X6514592Y5025186D01*
X6505244Y5024323D01*
X6502654Y5023916D01*
X6493510Y5021630D01*
X6491020Y5020818D01*
X6482334Y5017211D01*
X6479997Y5016042D01*
X6471920Y5011166D01*
X6469786Y5009642D01*
X6462522Y5003647D01*
X3671671Y2212746D01*
X3665677Y2205532D01*
X3664153Y2203399D01*
X3659276Y2195322D01*
X3658108Y2192985D01*
X3654501Y2184298D01*
X3653688Y2181758D01*
X3651402Y2172665D01*
X3650081Y2160676D01*
X3650030Y1532128D01*
X3649268Y1528216D01*
X3647084Y1524914D01*
X3360369Y1238199D01*
X3356864Y1235913D01*
G37*

%LPC*%
G36*
X5829808Y4884470D02*
G01*
X6003798Y4884470D01*
X6012180Y4885283D01*
X6019800Y4887620D01*
X6026759Y4891328D01*
X6032906Y4896358D01*
X6037935Y4902504D01*
X6041694Y4909515D01*
X6043980Y4917084D01*
X6044793Y4925466D01*
X6044793Y5099507D01*
X6043980Y5107889D01*
X6041694Y5115458D01*
X6037935Y5122468D01*
X6032906Y5128615D01*
X6026759Y5133644D01*
X6019800Y5137353D01*
X6012180Y5139690D01*
X6003798Y5140502D01*
X5829808Y5140502D01*
X5821426Y5139690D01*
X5813806Y5137353D01*
X5806846Y5133644D01*
X5800699Y5128615D01*
X5795670Y5122468D01*
X5791911Y5115458D01*
X5789625Y5107889D01*
X5788812Y5099507D01*
X5788812Y4925466D01*
X5789625Y4917084D01*
X5791911Y4909515D01*
X5795670Y4902504D01*
X5800699Y4896358D01*
X5806846Y4891328D01*
X5813806Y4887620D01*
X5821426Y4885283D01*
G37*

%LPD*%
G36*
X5936843Y1213002D02*
G01*
X5932424Y1213154D01*
X5928461Y1215186D01*
X5925718Y1218692D01*
X5924753Y1223010D01*
X5924753Y1263243D01*
X5925718Y1267561D01*
X5928461Y1271066D01*
X5932424Y1273048D01*
X5936843Y1273200D01*
X5940907Y1271473D01*
X5942787Y1270050D01*
X5955842Y1262888D01*
X5969660Y1257401D01*
X5984087Y1253744D01*
X5988304Y1253185D01*
X5992215Y1251813D01*
X5995314Y1249019D01*
X5996940Y1245209D01*
X5996940Y1241044D01*
X5995314Y1237234D01*
X5992215Y1234389D01*
X5988304Y1233017D01*
X5984087Y1232509D01*
X5969660Y1228801D01*
X5955842Y1223314D01*
X5942787Y1216152D01*
X5940907Y1214780D01*
G37*

%LPD*%
G36*
X5753862Y1162151D02*
G01*
X5750001Y1162812D01*
X5746699Y1164844D01*
X5744413Y1167993D01*
X5741924Y1173175D01*
X5733999Y1185773D01*
X5724499Y1197203D01*
X5713628Y1207414D01*
X5701588Y1216152D01*
X5688584Y1223314D01*
X5674715Y1228801D01*
X5660339Y1232509D01*
X5656122Y1233017D01*
X5652211Y1234389D01*
X5649163Y1237234D01*
X5647486Y1241044D01*
X5647486Y1245209D01*
X5649163Y1249019D01*
X5652211Y1251813D01*
X5656122Y1253185D01*
X5660339Y1253744D01*
X5674715Y1257401D01*
X5688584Y1262888D01*
X5701588Y1270050D01*
X5713628Y1278839D01*
X5724499Y1288999D01*
X5733999Y1300480D01*
X5741924Y1313027D01*
X5744413Y1318260D01*
X5746699Y1321358D01*
X5750001Y1323441D01*
X5753862Y1324051D01*
X5757672Y1323238D01*
X5760872Y1321003D01*
X5763006Y1317752D01*
X5763768Y1313891D01*
X5763768Y1172311D01*
X5763006Y1168501D01*
X5760872Y1165250D01*
X5757672Y1163015D01*
G37*

%LPD*%
G36*
X5936843Y959002D02*
G01*
X5932424Y959154D01*
X5928461Y961186D01*
X5925718Y964692D01*
X5924753Y969010D01*
X5924753Y1009243D01*
X5925718Y1013561D01*
X5928461Y1017066D01*
X5932424Y1019048D01*
X5936843Y1019200D01*
X5940907Y1017473D01*
X5942787Y1016050D01*
X5955842Y1008887D01*
X5969660Y1003401D01*
X5984087Y999744D01*
X5988304Y999185D01*
X5992215Y997813D01*
X5995314Y995019D01*
X5996940Y991209D01*
X5996940Y987044D01*
X5995314Y983234D01*
X5992215Y980389D01*
X5988304Y979017D01*
X5984087Y978509D01*
X5969660Y974801D01*
X5955842Y969314D01*
X5942787Y962152D01*
X5940907Y960780D01*
G37*

%LPD*%
G36*
X5753862Y908151D02*
G01*
X5750001Y908812D01*
X5746699Y910844D01*
X5744413Y913993D01*
X5741924Y919175D01*
X5733999Y931773D01*
X5724499Y943203D01*
X5713628Y953414D01*
X5701588Y962152D01*
X5688584Y969314D01*
X5674715Y974801D01*
X5660339Y978509D01*
X5656122Y979017D01*
X5652211Y980389D01*
X5649163Y983234D01*
X5647486Y987044D01*
X5647486Y991209D01*
X5649163Y995019D01*
X5652211Y997813D01*
X5656122Y999185D01*
X5660339Y999744D01*
X5674715Y1003401D01*
X5688584Y1008887D01*
X5701588Y1016050D01*
X5713628Y1024839D01*
X5724499Y1034999D01*
X5733999Y1046480D01*
X5741924Y1059027D01*
X5744413Y1064260D01*
X5746699Y1067358D01*
X5750001Y1069441D01*
X5753862Y1070051D01*
X5757672Y1069238D01*
X5760872Y1067003D01*
X5763006Y1063752D01*
X5763768Y1059891D01*
X5763768Y918311D01*
X5763006Y914501D01*
X5760872Y911250D01*
X5757672Y909015D01*
G37*

%LPD*%
G36*
X5936843Y705002D02*
G01*
X5932424Y705154D01*
X5928461Y707186D01*
X5925718Y710692D01*
X5924753Y715010D01*
X5924753Y755243D01*
X5925718Y759561D01*
X5928461Y763066D01*
X5932424Y765048D01*
X5936843Y765200D01*
X5940907Y763473D01*
X5942787Y762050D01*
X5955842Y754888D01*
X5969660Y749401D01*
X5984087Y745744D01*
X5988304Y745185D01*
X5992215Y743813D01*
X5995314Y741019D01*
X5996940Y737209D01*
X5996940Y733044D01*
X5995314Y729234D01*
X5992215Y726389D01*
X5988304Y725017D01*
X5984087Y724509D01*
X5969660Y720801D01*
X5955842Y715314D01*
X5942787Y708152D01*
X5940907Y706780D01*
G37*

%LPD*%
G36*
X5753862Y654151D02*
G01*
X5750001Y654812D01*
X5746699Y656844D01*
X5744413Y659993D01*
X5741924Y665175D01*
X5733999Y677773D01*
X5724499Y689203D01*
X5713628Y699414D01*
X5701588Y708152D01*
X5688584Y715314D01*
X5674715Y720801D01*
X5660339Y724509D01*
X5656122Y725017D01*
X5652211Y726389D01*
X5649163Y729234D01*
X5647486Y733044D01*
X5647486Y737209D01*
X5649163Y741019D01*
X5652211Y743813D01*
X5656122Y745185D01*
X5660339Y745744D01*
X5674715Y749401D01*
X5688584Y754888D01*
X5701588Y762050D01*
X5713628Y770839D01*
X5724499Y780999D01*
X5733999Y792480D01*
X5741924Y805027D01*
X5744413Y810260D01*
X5746699Y813358D01*
X5750001Y815441D01*
X5753862Y816051D01*
X5757672Y815238D01*
X5760872Y813003D01*
X5763006Y809752D01*
X5763768Y805891D01*
X5763768Y664311D01*
X5763006Y660501D01*
X5760872Y657250D01*
X5757672Y655015D01*
G37*

%LPD*%
G36*
X5936843Y451002D02*
G01*
X5932424Y451154D01*
X5928461Y453186D01*
X5925718Y456692D01*
X5924753Y461009D01*
X5924753Y501243D01*
X5925718Y505561D01*
X5928461Y509066D01*
X5932424Y511048D01*
X5936843Y511200D01*
X5940907Y509473D01*
X5942787Y508050D01*
X5955842Y500888D01*
X5969660Y495401D01*
X5984087Y491743D01*
X5988304Y491185D01*
X5992215Y489813D01*
X5995314Y487019D01*
X5996940Y483209D01*
X5996940Y479043D01*
X5995314Y475234D01*
X5992215Y472389D01*
X5988304Y471017D01*
X5984087Y470509D01*
X5969660Y466801D01*
X5955842Y461314D01*
X5942787Y454151D01*
X5940907Y452780D01*
G37*

%LPD*%
G36*
X5753862Y400151D02*
G01*
X5750001Y400812D01*
X5746699Y402844D01*
X5744413Y405993D01*
X5741924Y411175D01*
X5733999Y423773D01*
X5724499Y435203D01*
X5713628Y445414D01*
X5701588Y454151D01*
X5688584Y461314D01*
X5674715Y466801D01*
X5660339Y470509D01*
X5656122Y471017D01*
X5652211Y472389D01*
X5649163Y475234D01*
X5647486Y479043D01*
X5647486Y483209D01*
X5649163Y487019D01*
X5652211Y489813D01*
X5656122Y491185D01*
X5660339Y491743D01*
X5674715Y495401D01*
X5688584Y500888D01*
X5701588Y508050D01*
X5713628Y516839D01*
X5724499Y526999D01*
X5733999Y538480D01*
X5741924Y551027D01*
X5744413Y556260D01*
X5746699Y559358D01*
X5750001Y561441D01*
X5753862Y562051D01*
X5757672Y561238D01*
X5760872Y559003D01*
X5763006Y555752D01*
X5763768Y551891D01*
X5763768Y410311D01*
X5763006Y406501D01*
X5760872Y403250D01*
X5757672Y401015D01*
G37*

%LPD*%
G36*
X4525365Y219303D02*
G01*
X4521504Y220065D01*
X4518202Y222300D01*
X4516018Y225602D01*
X4515205Y229463D01*
X4515205Y1907133D01*
X4516018Y1911045D01*
X4518202Y1914347D01*
X5502452Y2898597D01*
X5505653Y2900730D01*
X5509412Y2901543D01*
X5513222Y2900883D01*
X5516473Y2898851D01*
X5518759Y2895752D01*
X5519775Y2892044D01*
X5520537Y2879242D01*
X5523331Y2864662D01*
X5527954Y2850489D01*
X5534304Y2837027D01*
X5542229Y2824480D01*
X5551728Y2812999D01*
X5562600Y2802839D01*
X5574639Y2794050D01*
X5587644Y2786888D01*
X5601512Y2781401D01*
X5615889Y2777744D01*
X5620105Y2777185D01*
X5624017Y2775813D01*
X5627065Y2773019D01*
X5628741Y2769209D01*
X5628741Y2765044D01*
X5627065Y2761234D01*
X5624017Y2758389D01*
X5620105Y2757017D01*
X5615889Y2756509D01*
X5601512Y2752801D01*
X5587644Y2747314D01*
X5574639Y2740152D01*
X5562600Y2731414D01*
X5551728Y2721203D01*
X5542229Y2709773D01*
X5534304Y2697175D01*
X5527954Y2683713D01*
X5523331Y2669590D01*
X5520537Y2654960D01*
X5519623Y2640126D01*
X5520537Y2625242D01*
X5523331Y2610662D01*
X5527954Y2596489D01*
X5534304Y2583027D01*
X5542229Y2570480D01*
X5551728Y2558999D01*
X5562600Y2548839D01*
X5574639Y2540050D01*
X5587644Y2532888D01*
X5601512Y2527401D01*
X5615889Y2523744D01*
X5620105Y2523185D01*
X5624017Y2521813D01*
X5627065Y2519019D01*
X5628741Y2515209D01*
X5628741Y2511044D01*
X5627065Y2507234D01*
X5624017Y2504389D01*
X5620105Y2503017D01*
X5615889Y2502509D01*
X5601512Y2498801D01*
X5587644Y2493314D01*
X5574639Y2486152D01*
X5562600Y2477414D01*
X5551728Y2467203D01*
X5542229Y2455773D01*
X5534304Y2443175D01*
X5527954Y2429713D01*
X5523331Y2415590D01*
X5520537Y2400960D01*
X5519623Y2385110D01*
X5518759Y2381504D01*
X5516676Y2378506D01*
X4806137Y1667916D01*
X4800142Y1660652D01*
X4798618Y1658518D01*
X4793742Y1650441D01*
X4792573Y1648104D01*
X4788966Y1639417D01*
X4788154Y1636928D01*
X4785868Y1627784D01*
X4784547Y1615846D01*
X4784496Y478434D01*
X4783734Y474522D01*
X4781550Y471271D01*
X4532579Y222300D01*
X4529277Y220065D01*
G37*

%LPD*%
G36*
X5936843Y197002D02*
G01*
X5932424Y197154D01*
X5928461Y199186D01*
X5925718Y202692D01*
X5924753Y207010D01*
X5924753Y247243D01*
X5925718Y251561D01*
X5928461Y255066D01*
X5932424Y257048D01*
X5936843Y257200D01*
X5940907Y255473D01*
X5942787Y254050D01*
X5955842Y246888D01*
X5969660Y241401D01*
X5984087Y237744D01*
X5988304Y237185D01*
X5992215Y235813D01*
X5995314Y233019D01*
X5996940Y229209D01*
X5996940Y225044D01*
X5995314Y221234D01*
X5992215Y218389D01*
X5988304Y217017D01*
X5984087Y216509D01*
X5969660Y212801D01*
X5955842Y207314D01*
X5942787Y200152D01*
X5940907Y198780D01*
G37*

%LPD*%
G36*
X5753862Y146151D02*
G01*
X5750001Y146812D01*
X5746699Y148844D01*
X5744413Y151993D01*
X5741924Y157175D01*
X5733999Y169773D01*
X5724499Y181203D01*
X5713628Y191414D01*
X5701588Y200152D01*
X5688584Y207314D01*
X5674715Y212801D01*
X5660339Y216509D01*
X5656122Y217017D01*
X5652211Y218389D01*
X5649163Y221234D01*
X5647486Y225044D01*
X5647486Y229209D01*
X5649163Y233019D01*
X5652211Y235813D01*
X5656122Y237185D01*
X5660339Y237744D01*
X5674715Y241401D01*
X5688584Y246888D01*
X5701588Y254050D01*
X5713628Y262839D01*
X5724499Y272999D01*
X5733999Y284480D01*
X5741924Y297027D01*
X5744413Y302260D01*
X5746699Y305358D01*
X5750001Y307441D01*
X5753862Y308051D01*
X5757672Y307238D01*
X5760872Y305003D01*
X5763006Y301752D01*
X5763768Y297891D01*
X5763768Y156311D01*
X5763006Y152501D01*
X5760872Y149250D01*
X5757672Y147015D01*
G37*

%LPD*%
G36*
X5512816Y-902004D02*
G01*
X5508447Y-901395D01*
X5504789Y-899058D01*
X5126024Y-520293D01*
X5123840Y-516991D01*
X5123078Y-513130D01*
X5123078Y746963D01*
X5122214Y759612D01*
X5119674Y771702D01*
X5115560Y783336D01*
X5109870Y794308D01*
X5101844Y805484D01*
X5093106Y814527D01*
X5083149Y822299D01*
X5072176Y828649D01*
X5062677Y832662D01*
X5050790Y835964D01*
X5048453Y836421D01*
X5035905Y837742D01*
X5026202Y837590D01*
X5023256Y837336D01*
X5014010Y835863D01*
X5010810Y835152D01*
X5002123Y832561D01*
X4998770Y831291D01*
X4990795Y827582D01*
X4987391Y825753D01*
X4980279Y821182D01*
X4976926Y818692D01*
X4970729Y813409D01*
X4967528Y810260D01*
X4963261Y805484D01*
X4960010Y803046D01*
X4956098Y802081D01*
X4952085Y802690D01*
X4948631Y804875D01*
X4946345Y808228D01*
X4945532Y812190D01*
X4945532Y1575460D01*
X4946294Y1579321D01*
X4948478Y1582623D01*
X5540349Y2174494D01*
X5543651Y2176678D01*
X5547512Y2177440D01*
X5592775Y2177440D01*
X5592775Y2222703D01*
X5593537Y2226564D01*
X5595721Y2229866D01*
X5630722Y2264867D01*
X5634024Y2267102D01*
X5637936Y2267864D01*
X5645556Y2267864D01*
X5660339Y2269744D01*
X5674715Y2273401D01*
X5688584Y2278888D01*
X5701588Y2286050D01*
X5713628Y2294839D01*
X5724499Y2304999D01*
X5733999Y2316480D01*
X5741924Y2329027D01*
X5744413Y2334260D01*
X5746699Y2337358D01*
X5750001Y2339441D01*
X5753862Y2340051D01*
X5757672Y2339238D01*
X5760872Y2337003D01*
X5763006Y2333752D01*
X5763768Y2329891D01*
X5763768Y2188311D01*
X5763006Y2184501D01*
X5760872Y2181250D01*
X5757672Y2179015D01*
X5753862Y2178151D01*
X5750001Y2178812D01*
X5746699Y2180844D01*
X5744413Y2183993D01*
X5741924Y2189175D01*
X5733999Y2201773D01*
X5724499Y2213203D01*
X5713628Y2223414D01*
X5701588Y2232152D01*
X5688584Y2239314D01*
X5683453Y2241346D01*
X5683453Y2177440D01*
X5753608Y2177440D01*
X5757468Y2176678D01*
X5760770Y2174494D01*
X5762955Y2171192D01*
X5763768Y2167280D01*
X5763768Y2096922D01*
X5762955Y2093010D01*
X5760770Y2089759D01*
X5757468Y2087524D01*
X5753608Y2086762D01*
X5683453Y2086762D01*
X5683453Y2022856D01*
X5688584Y2024888D01*
X5701588Y2032050D01*
X5713628Y2040839D01*
X5724499Y2050999D01*
X5733999Y2062480D01*
X5741924Y2075027D01*
X5744413Y2080260D01*
X5746699Y2083358D01*
X5750001Y2085441D01*
X5753862Y2086051D01*
X5757672Y2085238D01*
X5760872Y2083003D01*
X5763006Y2079752D01*
X5763768Y2075891D01*
X5763768Y1934311D01*
X5763006Y1930501D01*
X5760872Y1927250D01*
X5757672Y1925015D01*
X5753862Y1924151D01*
X5750001Y1924812D01*
X5746699Y1926843D01*
X5744413Y1929993D01*
X5741924Y1935175D01*
X5733999Y1947773D01*
X5724499Y1959203D01*
X5713628Y1969414D01*
X5701588Y1978152D01*
X5688584Y1985314D01*
X5674715Y1990801D01*
X5660339Y1994509D01*
X5645556Y1996389D01*
X5630672Y1996389D01*
X5615889Y1994509D01*
X5601512Y1990801D01*
X5587644Y1985314D01*
X5574639Y1978152D01*
X5562600Y1969414D01*
X5551728Y1959203D01*
X5542229Y1947773D01*
X5534304Y1935175D01*
X5527954Y1921713D01*
X5523331Y1907590D01*
X5520537Y1892960D01*
X5519623Y1878126D01*
X5520537Y1863242D01*
X5523331Y1848662D01*
X5527954Y1834489D01*
X5534304Y1821027D01*
X5542229Y1808480D01*
X5551728Y1796999D01*
X5562600Y1786839D01*
X5574639Y1778050D01*
X5587644Y1770888D01*
X5601512Y1765401D01*
X5615889Y1761743D01*
X5620105Y1761185D01*
X5624017Y1759813D01*
X5627065Y1757019D01*
X5628741Y1753209D01*
X5628741Y1749043D01*
X5627065Y1745234D01*
X5624017Y1742389D01*
X5620105Y1741017D01*
X5615889Y1740509D01*
X5601512Y1736801D01*
X5587644Y1731314D01*
X5574639Y1724152D01*
X5562600Y1715414D01*
X5551728Y1705203D01*
X5542229Y1693773D01*
X5534304Y1681175D01*
X5527954Y1667713D01*
X5523331Y1653590D01*
X5520537Y1638960D01*
X5519623Y1624126D01*
X5520537Y1609242D01*
X5523331Y1594662D01*
X5527954Y1580489D01*
X5534304Y1567027D01*
X5542229Y1554480D01*
X5551728Y1542999D01*
X5562600Y1532839D01*
X5574639Y1524050D01*
X5587644Y1516888D01*
X5601512Y1511401D01*
X5615889Y1507744D01*
X5620105Y1507185D01*
X5624017Y1505813D01*
X5627065Y1503019D01*
X5628741Y1499209D01*
X5628741Y1495044D01*
X5627065Y1491234D01*
X5624017Y1488389D01*
X5620105Y1487017D01*
X5615889Y1486509D01*
X5601512Y1482801D01*
X5587644Y1477314D01*
X5574639Y1470152D01*
X5562600Y1461414D01*
X5551728Y1451203D01*
X5542229Y1439773D01*
X5534304Y1427175D01*
X5527954Y1413713D01*
X5523331Y1399590D01*
X5520537Y1384960D01*
X5519623Y1370126D01*
X5520537Y1355242D01*
X5523331Y1340662D01*
X5527954Y1326489D01*
X5534304Y1313027D01*
X5542229Y1300480D01*
X5551728Y1288999D01*
X5562600Y1278839D01*
X5574639Y1270050D01*
X5587644Y1262888D01*
X5601512Y1257401D01*
X5615889Y1253744D01*
X5620105Y1253185D01*
X5624017Y1251813D01*
X5627065Y1249019D01*
X5628741Y1245209D01*
X5628741Y1241044D01*
X5627065Y1237234D01*
X5624017Y1234389D01*
X5620105Y1233017D01*
X5615889Y1232509D01*
X5601512Y1228801D01*
X5587644Y1223314D01*
X5574639Y1216152D01*
X5562600Y1207414D01*
X5551728Y1197203D01*
X5542229Y1185773D01*
X5534304Y1173175D01*
X5527954Y1159713D01*
X5523331Y1145590D01*
X5520537Y1130960D01*
X5519623Y1116126D01*
X5520537Y1101242D01*
X5523331Y1086662D01*
X5527954Y1072489D01*
X5534304Y1059027D01*
X5542229Y1046480D01*
X5551728Y1034999D01*
X5562600Y1024839D01*
X5574639Y1016050D01*
X5587644Y1008887D01*
X5601512Y1003401D01*
X5615889Y999744D01*
X5620105Y999185D01*
X5624017Y997813D01*
X5627065Y995019D01*
X5628741Y991209D01*
X5628741Y987044D01*
X5627065Y983234D01*
X5624017Y980389D01*
X5620105Y979017D01*
X5615889Y978509D01*
X5601512Y974801D01*
X5587644Y969314D01*
X5574639Y962152D01*
X5562600Y953414D01*
X5551728Y943203D01*
X5542229Y931773D01*
X5534304Y919175D01*
X5527954Y905713D01*
X5523331Y891590D01*
X5520537Y876960D01*
X5519623Y862126D01*
X5520537Y847242D01*
X5523331Y832662D01*
X5527954Y818489D01*
X5534304Y805027D01*
X5542229Y792480D01*
X5551728Y780999D01*
X5562600Y770839D01*
X5574639Y762050D01*
X5587644Y754888D01*
X5601512Y749401D01*
X5615889Y745744D01*
X5620105Y745185D01*
X5624017Y743813D01*
X5627065Y741019D01*
X5628741Y737209D01*
X5628741Y733044D01*
X5627065Y729234D01*
X5624017Y726389D01*
X5620105Y725017D01*
X5615889Y724509D01*
X5601512Y720801D01*
X5587644Y715314D01*
X5574639Y708152D01*
X5562600Y699414D01*
X5551728Y689203D01*
X5542229Y677773D01*
X5534304Y665175D01*
X5527954Y651713D01*
X5523331Y637590D01*
X5520537Y622960D01*
X5519623Y608126D01*
X5520537Y593242D01*
X5523331Y578662D01*
X5527954Y564489D01*
X5534304Y551027D01*
X5542229Y538480D01*
X5551728Y526999D01*
X5562600Y516839D01*
X5574639Y508050D01*
X5587644Y500888D01*
X5601512Y495401D01*
X5615889Y491743D01*
X5620105Y491185D01*
X5624017Y489813D01*
X5627065Y487019D01*
X5628741Y483209D01*
X5628741Y479043D01*
X5627065Y475234D01*
X5624017Y472389D01*
X5620105Y471017D01*
X5615889Y470509D01*
X5601512Y466801D01*
X5587644Y461314D01*
X5574639Y454151D01*
X5562600Y445414D01*
X5551728Y435203D01*
X5542229Y423773D01*
X5534304Y411175D01*
X5527954Y397713D01*
X5523331Y383590D01*
X5520537Y368960D01*
X5519623Y354126D01*
X5520537Y339242D01*
X5523331Y324662D01*
X5527954Y310489D01*
X5534304Y297027D01*
X5542229Y284480D01*
X5551728Y272999D01*
X5562600Y262839D01*
X5574639Y254050D01*
X5587644Y246888D01*
X5601512Y241401D01*
X5615889Y237744D01*
X5620105Y237185D01*
X5624017Y235813D01*
X5627065Y233019D01*
X5628741Y229209D01*
X5628741Y225044D01*
X5627065Y221234D01*
X5624017Y218389D01*
X5620105Y217017D01*
X5615889Y216509D01*
X5601512Y212801D01*
X5587644Y207314D01*
X5574639Y200152D01*
X5562600Y191414D01*
X5551728Y181203D01*
X5542229Y169773D01*
X5534304Y157175D01*
X5527954Y143713D01*
X5523331Y129590D01*
X5520537Y114960D01*
X5519623Y100126D01*
X5520537Y85242D01*
X5523331Y70662D01*
X5527954Y56489D01*
X5534304Y43027D01*
X5542229Y30480D01*
X5551728Y18999D01*
X5562600Y8839D01*
X5574639Y50D01*
X5587644Y-7112D01*
X5601512Y-12598D01*
X5615889Y-16256D01*
X5620105Y-16814D01*
X5624017Y-18186D01*
X5627065Y-20980D01*
X5628741Y-24790D01*
X5628741Y-28956D01*
X5627065Y-32766D01*
X5624017Y-35610D01*
X5620105Y-36982D01*
X5615889Y-37490D01*
X5601512Y-41198D01*
X5587644Y-46685D01*
X5574639Y-53848D01*
X5562600Y-62585D01*
X5551728Y-72796D01*
X5542229Y-84226D01*
X5534304Y-96824D01*
X5527954Y-110286D01*
X5523331Y-124409D01*
X5520537Y-139039D01*
X5519623Y-153873D01*
X5520537Y-168757D01*
X5523331Y-183337D01*
X5527954Y-197510D01*
X5534304Y-210972D01*
X5542229Y-223520D01*
X5551728Y-235000D01*
X5562600Y-245160D01*
X5574639Y-253949D01*
X5587644Y-261112D01*
X5601512Y-266598D01*
X5615889Y-270256D01*
X5620105Y-270814D01*
X5624017Y-272186D01*
X5627065Y-274980D01*
X5628741Y-278790D01*
X5628741Y-282956D01*
X5627065Y-286766D01*
X5624017Y-289610D01*
X5620105Y-290982D01*
X5615889Y-291490D01*
X5601512Y-295198D01*
X5587644Y-300685D01*
X5574639Y-307848D01*
X5562600Y-316585D01*
X5551728Y-326796D01*
X5542229Y-338226D01*
X5534304Y-350824D01*
X5527954Y-364286D01*
X5523331Y-378409D01*
X5520537Y-393039D01*
X5519623Y-407873D01*
X5520537Y-422757D01*
X5523331Y-437337D01*
X5527954Y-451510D01*
X5534304Y-464972D01*
X5542229Y-477520D01*
X5551728Y-489000D01*
X5562600Y-499160D01*
X5574639Y-507949D01*
X5587644Y-515112D01*
X5601512Y-520598D01*
X5615889Y-524256D01*
X5620105Y-524814D01*
X5624017Y-526186D01*
X5627065Y-528980D01*
X5628741Y-532790D01*
X5628741Y-536956D01*
X5627065Y-540766D01*
X5624017Y-543610D01*
X5620105Y-544982D01*
X5615889Y-545490D01*
X5601512Y-549198D01*
X5587644Y-554685D01*
X5574639Y-561848D01*
X5562600Y-570585D01*
X5551728Y-580796D01*
X5542229Y-592226D01*
X5534304Y-604824D01*
X5527954Y-618286D01*
X5523331Y-632409D01*
X5520537Y-647039D01*
X5519623Y-661873D01*
X5520537Y-676757D01*
X5523331Y-691337D01*
X5527954Y-705510D01*
X5534304Y-718972D01*
X5542229Y-731520D01*
X5551728Y-743000D01*
X5562600Y-753160D01*
X5574639Y-761949D01*
X5587644Y-769112D01*
X5601512Y-774598D01*
X5615889Y-778256D01*
X5620105Y-778814D01*
X5624017Y-780186D01*
X5627065Y-782980D01*
X5628741Y-786790D01*
X5628741Y-790956D01*
X5627065Y-794766D01*
X5624017Y-797610D01*
X5620105Y-798982D01*
X5615889Y-799490D01*
X5601512Y-803198D01*
X5587644Y-808685D01*
X5574639Y-815848D01*
X5562600Y-824585D01*
X5551728Y-834796D01*
X5542229Y-846226D01*
X5534304Y-858824D01*
X5527954Y-872286D01*
X5523331Y-886409D01*
X5521960Y-893775D01*
X5520232Y-897788D01*
X5516981Y-900734D01*
G37*

%LPC*%
G36*
X5592775Y2022856D02*
G01*
X5592775Y2086762D01*
X5528767Y2086762D01*
X5534304Y2075027D01*
X5542229Y2062480D01*
X5551728Y2050999D01*
X5562600Y2040839D01*
X5574639Y2032050D01*
X5587644Y2024888D01*
G37*

%LPD*%
G36*
X3224682Y-908405D02*
G01*
X3220466Y-907135D01*
X3217214Y-904189D01*
X3215487Y-900176D01*
X3212896Y-886409D01*
X3208274Y-872286D01*
X3201924Y-858824D01*
X3193999Y-846226D01*
X3184499Y-834796D01*
X3173628Y-824585D01*
X3161588Y-815848D01*
X3148584Y-808685D01*
X3134715Y-803198D01*
X3120339Y-799490D01*
X3116122Y-798982D01*
X3112211Y-797610D01*
X3109163Y-794766D01*
X3107486Y-790956D01*
X3107486Y-786790D01*
X3109163Y-782980D01*
X3112211Y-780186D01*
X3116122Y-778814D01*
X3120339Y-778256D01*
X3134715Y-774598D01*
X3148584Y-769112D01*
X3161588Y-761949D01*
X3173628Y-753160D01*
X3184499Y-743000D01*
X3193999Y-731520D01*
X3201924Y-718972D01*
X3208274Y-705510D01*
X3212896Y-691337D01*
X3215690Y-676757D01*
X3216605Y-661873D01*
X3215690Y-647039D01*
X3212896Y-632409D01*
X3208274Y-618286D01*
X3201924Y-604824D01*
X3193999Y-592226D01*
X3184499Y-580796D01*
X3173628Y-570585D01*
X3161588Y-561848D01*
X3148584Y-554685D01*
X3134715Y-549198D01*
X3120339Y-545490D01*
X3116122Y-544982D01*
X3112211Y-543610D01*
X3109163Y-540766D01*
X3107486Y-536956D01*
X3107486Y-532790D01*
X3109163Y-528980D01*
X3112211Y-526186D01*
X3116122Y-524814D01*
X3120339Y-524256D01*
X3134715Y-520598D01*
X3148584Y-515112D01*
X3161588Y-507949D01*
X3173628Y-499160D01*
X3184499Y-489000D01*
X3193999Y-477520D01*
X3201924Y-464972D01*
X3208274Y-451510D01*
X3212896Y-437337D01*
X3215690Y-422757D01*
X3216605Y-407873D01*
X3215690Y-393039D01*
X3212896Y-378409D01*
X3208274Y-364286D01*
X3201924Y-350824D01*
X3193999Y-338226D01*
X3184499Y-326796D01*
X3173628Y-316585D01*
X3161588Y-307848D01*
X3148584Y-300685D01*
X3134715Y-295198D01*
X3120339Y-291490D01*
X3116122Y-290982D01*
X3112211Y-289610D01*
X3109163Y-286766D01*
X3107486Y-282956D01*
X3107486Y-278790D01*
X3109163Y-274980D01*
X3112211Y-272186D01*
X3116122Y-270814D01*
X3120339Y-270256D01*
X3134715Y-266598D01*
X3148584Y-261112D01*
X3161588Y-253949D01*
X3173628Y-245160D01*
X3184499Y-235000D01*
X3193999Y-223520D01*
X3201924Y-210972D01*
X3208274Y-197510D01*
X3212896Y-183337D01*
X3215690Y-168757D01*
X3216605Y-153873D01*
X3215690Y-139039D01*
X3212896Y-124409D01*
X3208274Y-110286D01*
X3201924Y-96824D01*
X3193999Y-84226D01*
X3184499Y-72796D01*
X3173628Y-62585D01*
X3161588Y-53848D01*
X3148584Y-46685D01*
X3134715Y-41198D01*
X3120339Y-37490D01*
X3116122Y-36982D01*
X3112211Y-35610D01*
X3109163Y-32766D01*
X3107486Y-28956D01*
X3107486Y-24790D01*
X3109163Y-20980D01*
X3112211Y-18186D01*
X3116122Y-16814D01*
X3120339Y-16256D01*
X3134715Y-12598D01*
X3148584Y-7112D01*
X3161588Y50D01*
X3173628Y8839D01*
X3184499Y18999D01*
X3193999Y30480D01*
X3201924Y43027D01*
X3208274Y56489D01*
X3212896Y70662D01*
X3215690Y85242D01*
X3216605Y101142D01*
X3217468Y104698D01*
X3219551Y107696D01*
X4099051Y987247D01*
X4105046Y994511D01*
X4106570Y996645D01*
X4112615Y1007059D01*
X4116222Y1015746D01*
X4117035Y1018235D01*
X4119270Y1027379D01*
X4119727Y1029969D01*
X4120591Y1039317D01*
X4120642Y2259279D01*
X4121454Y2263190D01*
X4123639Y2266492D01*
X5555640Y3698494D01*
X5558942Y3700678D01*
X5562803Y3701440D01*
X5592775Y3701440D01*
X5592775Y3731412D01*
X5593537Y3735273D01*
X5595721Y3738575D01*
X6062573Y4205427D01*
X6065875Y4207662D01*
X6069787Y4208424D01*
X6199073Y4208424D01*
X6202984Y4207662D01*
X6206236Y4205427D01*
X6208471Y4202125D01*
X6209233Y4198264D01*
X6208471Y4194352D01*
X6206236Y4191101D01*
X6202984Y4188866D01*
X6195466Y4185767D01*
X6193078Y4184599D01*
X6185052Y4179722D01*
X6182868Y4178198D01*
X6175654Y4172204D01*
X5785358Y3781907D01*
X5779363Y3774694D01*
X5777839Y3772560D01*
X5771794Y3762146D01*
X5768187Y3753459D01*
X5767374Y3750919D01*
X5765139Y3741826D01*
X5764682Y3739235D01*
X5763818Y3729939D01*
X5763768Y3712260D01*
X5763006Y3708450D01*
X5760872Y3705199D01*
X5757672Y3703015D01*
X5753862Y3702151D01*
X5750001Y3702812D01*
X5746699Y3704844D01*
X5744413Y3707993D01*
X5741924Y3713175D01*
X5733999Y3725773D01*
X5724499Y3737203D01*
X5713628Y3747414D01*
X5701588Y3756151D01*
X5688584Y3763314D01*
X5683453Y3765346D01*
X5683453Y3701440D01*
X5753608Y3701440D01*
X5757468Y3700678D01*
X5760770Y3698494D01*
X5762955Y3695192D01*
X5763768Y3691280D01*
X5763768Y3620922D01*
X5762955Y3617010D01*
X5760770Y3613759D01*
X5757468Y3611524D01*
X5753608Y3610762D01*
X5683453Y3610762D01*
X5683453Y3546856D01*
X5688584Y3548887D01*
X5701588Y3556050D01*
X5713628Y3564839D01*
X5724499Y3574999D01*
X5733999Y3586479D01*
X5741924Y3599027D01*
X5744413Y3604260D01*
X5746699Y3607358D01*
X5750001Y3609441D01*
X5753862Y3610051D01*
X5757672Y3609238D01*
X5760872Y3607003D01*
X5763006Y3603751D01*
X5763768Y3599891D01*
X5763768Y3458311D01*
X5763006Y3454501D01*
X5760872Y3451250D01*
X5757672Y3449015D01*
X5753862Y3448151D01*
X5750001Y3448812D01*
X5746699Y3450844D01*
X5744413Y3453993D01*
X5741924Y3459175D01*
X5733999Y3471773D01*
X5724499Y3483203D01*
X5713628Y3493414D01*
X5701588Y3502151D01*
X5688584Y3509314D01*
X5674715Y3514801D01*
X5660339Y3518509D01*
X5645556Y3520389D01*
X5630672Y3520389D01*
X5615889Y3518509D01*
X5601512Y3514801D01*
X5587644Y3509314D01*
X5574639Y3502151D01*
X5562600Y3493414D01*
X5551728Y3483203D01*
X5542229Y3471773D01*
X5534304Y3459175D01*
X5527954Y3445713D01*
X5523331Y3431590D01*
X5520537Y3416960D01*
X5519623Y3402126D01*
X5520537Y3387242D01*
X5523331Y3372662D01*
X5527954Y3358489D01*
X5534304Y3345027D01*
X5542229Y3332479D01*
X5551728Y3320999D01*
X5562600Y3310839D01*
X5574639Y3302050D01*
X5587644Y3294887D01*
X5601512Y3289401D01*
X5615889Y3285744D01*
X5620105Y3285185D01*
X5624017Y3283813D01*
X5627065Y3281019D01*
X5628741Y3277209D01*
X5628741Y3273044D01*
X5627065Y3269234D01*
X5624017Y3266389D01*
X5620105Y3265017D01*
X5615889Y3264509D01*
X5601512Y3260801D01*
X5587644Y3255314D01*
X5574639Y3248152D01*
X5562600Y3239414D01*
X5551728Y3229203D01*
X5542229Y3217773D01*
X5534304Y3205175D01*
X5527954Y3191713D01*
X5523331Y3177590D01*
X5520537Y3162960D01*
X5519623Y3147110D01*
X5518759Y3143504D01*
X5516676Y3140506D01*
X4375810Y1999589D01*
X4369816Y1992375D01*
X4368292Y1990242D01*
X4362246Y1979828D01*
X4358640Y1971141D01*
X4357827Y1968601D01*
X4355592Y1959508D01*
X4355134Y1956917D01*
X4354271Y1947519D01*
X4354220Y220268D01*
X4353407Y216357D01*
X4351223Y213106D01*
X3232658Y-905459D01*
X3229000Y-907846D01*
G37*

%LPC*%
G36*
X5592775Y3546856D02*
G01*
X5592775Y3610762D01*
X5528767Y3610762D01*
X5534304Y3599027D01*
X5542229Y3586479D01*
X5551728Y3574999D01*
X5562600Y3564839D01*
X5574639Y3556050D01*
X5587644Y3548887D01*
G37*

%LPD*%
G36*
X5747156Y-993902D02*
G01*
X5742940Y-992987D01*
X5739485Y-990396D01*
X5737402Y-986637D01*
X5737098Y-982370D01*
X5738571Y-978306D01*
X5741924Y-972972D01*
X5748274Y-959510D01*
X5752896Y-945337D01*
X5755690Y-930757D01*
X5756605Y-915873D01*
X5755690Y-901039D01*
X5752896Y-886409D01*
X5748274Y-872286D01*
X5741924Y-858824D01*
X5733999Y-846226D01*
X5724499Y-834796D01*
X5713628Y-824585D01*
X5701588Y-815848D01*
X5688584Y-808685D01*
X5674715Y-803198D01*
X5660339Y-799490D01*
X5656122Y-798982D01*
X5652211Y-797610D01*
X5649163Y-794766D01*
X5647486Y-790956D01*
X5647486Y-786790D01*
X5649163Y-782980D01*
X5652211Y-780186D01*
X5656122Y-778814D01*
X5660339Y-778256D01*
X5674715Y-774598D01*
X5688584Y-769112D01*
X5701588Y-761949D01*
X5713628Y-753160D01*
X5724499Y-743000D01*
X5733999Y-731520D01*
X5741924Y-718972D01*
X5748274Y-705510D01*
X5752896Y-691337D01*
X5755690Y-676757D01*
X5756605Y-661873D01*
X5755690Y-647039D01*
X5752896Y-632409D01*
X5748274Y-618286D01*
X5741924Y-604824D01*
X5733999Y-592226D01*
X5724499Y-580796D01*
X5713628Y-570585D01*
X5701588Y-561848D01*
X5688584Y-554685D01*
X5674715Y-549198D01*
X5660339Y-545490D01*
X5656122Y-544982D01*
X5652211Y-543610D01*
X5649163Y-540766D01*
X5647486Y-536956D01*
X5647486Y-532790D01*
X5649163Y-528980D01*
X5652211Y-526186D01*
X5656122Y-524814D01*
X5660339Y-524256D01*
X5674715Y-520598D01*
X5688584Y-515112D01*
X5701588Y-507949D01*
X5713628Y-499160D01*
X5724499Y-489000D01*
X5733999Y-477520D01*
X5741924Y-464972D01*
X5748274Y-451510D01*
X5752896Y-437337D01*
X5755690Y-422757D01*
X5756605Y-407873D01*
X5755690Y-393039D01*
X5752896Y-378409D01*
X5748274Y-364286D01*
X5741924Y-350824D01*
X5733999Y-338226D01*
X5724499Y-326796D01*
X5713628Y-316585D01*
X5701588Y-307848D01*
X5688584Y-300685D01*
X5674715Y-295198D01*
X5660339Y-291490D01*
X5656122Y-290982D01*
X5652211Y-289610D01*
X5649163Y-286766D01*
X5647486Y-282956D01*
X5647486Y-278790D01*
X5649163Y-274980D01*
X5652211Y-272186D01*
X5656122Y-270814D01*
X5660339Y-270256D01*
X5674715Y-266598D01*
X5688584Y-261112D01*
X5701588Y-253949D01*
X5713628Y-245160D01*
X5724499Y-235000D01*
X5733999Y-223520D01*
X5741924Y-210972D01*
X5748274Y-197510D01*
X5752896Y-183337D01*
X5755690Y-168757D01*
X5756605Y-153873D01*
X5755690Y-139039D01*
X5752896Y-124409D01*
X5748274Y-110286D01*
X5741924Y-96824D01*
X5733999Y-84226D01*
X5724499Y-72796D01*
X5713628Y-62585D01*
X5701588Y-53848D01*
X5688584Y-46685D01*
X5674715Y-41198D01*
X5660339Y-37490D01*
X5656122Y-36982D01*
X5652211Y-35610D01*
X5649163Y-32766D01*
X5647486Y-28956D01*
X5647486Y-24790D01*
X5649163Y-20980D01*
X5652211Y-18186D01*
X5656122Y-16814D01*
X5660339Y-16256D01*
X5674715Y-12598D01*
X5688584Y-7112D01*
X5701588Y50D01*
X5713628Y8839D01*
X5724499Y18999D01*
X5733999Y30480D01*
X5741924Y43027D01*
X5744413Y48260D01*
X5746699Y51358D01*
X5750001Y53441D01*
X5753862Y54051D01*
X5757672Y53238D01*
X5760872Y51003D01*
X5763006Y47752D01*
X5763768Y43891D01*
X5763818Y5334D01*
X5764682Y-4064D01*
X5765139Y-6654D01*
X5767374Y-15747D01*
X5768187Y-18288D01*
X5771794Y-26974D01*
X5777839Y-37388D01*
X5779363Y-39522D01*
X5785358Y-46736D01*
X5884824Y-146304D01*
X5886907Y-149301D01*
X5887770Y-152857D01*
X5888736Y-168757D01*
X5891530Y-183337D01*
X5896102Y-197510D01*
X5902452Y-210972D01*
X5910427Y-223520D01*
X5919927Y-235000D01*
X5930747Y-245160D01*
X5942787Y-253949D01*
X5955842Y-261112D01*
X5969660Y-266598D01*
X5984087Y-270256D01*
X5988304Y-270814D01*
X5992215Y-272186D01*
X5995314Y-274980D01*
X5996940Y-278790D01*
X5996940Y-282956D01*
X5995314Y-286766D01*
X5992215Y-289610D01*
X5988304Y-290982D01*
X5984087Y-291490D01*
X5969660Y-295198D01*
X5955842Y-300685D01*
X5942787Y-307848D01*
X5930747Y-316585D01*
X5919927Y-326796D01*
X5910427Y-338226D01*
X5902452Y-350824D01*
X5896102Y-364286D01*
X5891530Y-378409D01*
X5888736Y-393039D01*
X5887821Y-407873D01*
X5888736Y-422757D01*
X5891530Y-437337D01*
X5896102Y-451510D01*
X5902452Y-464972D01*
X5910427Y-477520D01*
X5919927Y-489000D01*
X5930747Y-499160D01*
X5942787Y-507949D01*
X5955842Y-515112D01*
X5969660Y-520598D01*
X5984087Y-524256D01*
X5988304Y-524814D01*
X5992215Y-526186D01*
X5995314Y-528980D01*
X5996940Y-532790D01*
X5996940Y-536956D01*
X5995314Y-540766D01*
X5992215Y-543610D01*
X5988304Y-544982D01*
X5984087Y-545490D01*
X5969660Y-549198D01*
X5955842Y-554685D01*
X5942787Y-561848D01*
X5930747Y-570585D01*
X5919927Y-580796D01*
X5910427Y-592226D01*
X5902452Y-604824D01*
X5896102Y-618286D01*
X5891530Y-632409D01*
X5888736Y-647039D01*
X5887821Y-661873D01*
X5888736Y-676757D01*
X5891530Y-691337D01*
X5896102Y-705510D01*
X5902452Y-718972D01*
X5910427Y-731520D01*
X5919927Y-743000D01*
X5930747Y-753160D01*
X5942787Y-761949D01*
X5955842Y-769112D01*
X5969660Y-774598D01*
X5984087Y-778256D01*
X5988304Y-778814D01*
X5992215Y-780186D01*
X5995314Y-782980D01*
X5996940Y-786790D01*
X5996940Y-790956D01*
X5995314Y-794766D01*
X5992215Y-797610D01*
X5988304Y-798982D01*
X5984087Y-799490D01*
X5969660Y-803198D01*
X5955842Y-808685D01*
X5942787Y-815848D01*
X5930747Y-824585D01*
X5919927Y-834796D01*
X5910427Y-846226D01*
X5902452Y-858824D01*
X5896102Y-872286D01*
X5891530Y-886409D01*
X5888736Y-901039D01*
X5887821Y-915873D01*
X5888736Y-930757D01*
X5891530Y-945337D01*
X5896102Y-959510D01*
X5902452Y-972972D01*
X5905855Y-978306D01*
X5907328Y-982370D01*
X5907024Y-986637D01*
X5904941Y-990396D01*
X5901486Y-992987D01*
X5897270Y-993902D01*
G37*

%LPD*%
D10*
X1648028Y305396D02*
G01*
X1536700Y194068D01*
X2716987Y354114D02*
G01*
X1696745Y354114D01*
X1648028Y305396D01*
X1536700Y1324368D02*
G01*
X1343710Y1131379D01*
X1343710Y609714D01*
X1648028Y305396D01*
X7085507Y3097314D02*
G01*
X6526707Y3656114D01*
X6006287Y3656114D01*
X3098114Y354114D02*
G01*
X2893237Y149237D01*
X2893237Y-739635D01*
X2716987Y-915885D01*
X8723807Y1849158D02*
G01*
X8914002Y2039353D01*
X8914002Y2789262D01*
X8723807Y2979458D01*
X7466507Y976414D02*
G01*
X7085507Y1357414D01*
X7085507Y1649514D01*
X8078190Y6985088D02*
G01*
X8370570Y6985088D01*
X8915958Y6439700D01*
X8915958Y3171609D01*
X8723807Y2979458D01*
X8078190Y6985088D02*
G01*
X8078190Y6820039D01*
X8078190Y7150112D02*
G01*
X8078190Y6985088D01*
X8078190Y6820039D02*
G01*
X7549362Y6291211D01*
X7097801Y6291211D01*
X7097801Y6291211D02*
G01*
X6832727Y6291211D01*
X7568184Y7150112D02*
G01*
X7568184Y6820039D01*
X7568184Y6820039D02*
G01*
X7060742Y6820039D01*
X6832600Y6591896D01*
X6832600Y6291338D01*
X6832727Y6291211D01*
D11*
X5638114Y2386114D02*
G01*
X4865014Y1613014D01*
X4865014Y440880D01*
X3221278Y-1202855D01*
X1803323Y-1202855D01*
X1549400Y-948931D01*
X6958507Y976414D02*
G01*
X6322822Y1612099D01*
X6322822Y2069579D01*
X6006287Y2386114D01*
X1549400Y-448043D02*
G01*
X2178583Y-1077226D01*
X3174771Y-1077226D01*
X4434713Y182714D01*
X4434713Y1944712D01*
X5638114Y3148114D01*
X7212507Y976414D02*
G01*
X6516395Y1672526D01*
X6516395Y2638005D01*
X6006287Y3148114D01*
X8127593Y4549914D02*
G01*
X8127593Y5776074D01*
X8242731Y5891212D01*
X8497798Y5891212D02*
G01*
X8242731Y5891212D01*
X7264527Y2823832D02*
G01*
X7264527Y3666274D01*
X6955078Y3975722D01*
X7085507Y4113314D02*
G01*
X6230543Y4113314D01*
X5844260Y3727030D01*
X5844260Y8140D01*
X6006287Y-153885D01*
X3098114Y100114D02*
G01*
X4040149Y1042149D01*
X4040149Y2296858D01*
X6032220Y4288929D01*
X7293127Y4288929D01*
X8145297Y3436759D01*
D10*
X7720507Y976414D02*
G01*
X7720507Y549744D01*
X6086347Y-1084414D01*
X5562142Y-1084414D01*
X5032552Y-554824D01*
X5032552Y747306D01*
X1536700Y4085856D02*
G01*
X1354124Y4268431D01*
X1354124Y4902263D01*
X1429130Y4977269D01*
X1498600Y4977269D01*
D11*
X8242731Y6091212D02*
G01*
X8217154Y6091212D01*
X7667218Y5541276D01*
X7667218Y5306707D01*
X7305268Y4944757D01*
X6517436Y4944757D01*
X3730548Y2157869D01*
X3730548Y1494548D01*
X3098114Y862114D01*
X8497798Y6091212D02*
G01*
X8242731Y6091212D01*
X3098114Y1116114D02*
G01*
X3277946Y1295946D01*
X3277946Y5192636D01*
X7097801Y5491213D02*
G01*
X3386404Y5491213D01*
X2931236Y5036045D01*
X2931236Y1536992D01*
X3098114Y1370114D01*
X8723807Y-925029D02*
G01*
X7990916Y-192138D01*
X7990916Y1760105D01*
X7085507Y2665514D01*
D10*
X7797393Y5487377D02*
G01*
X7797393Y4166247D01*
X8486978Y3476663D01*
X8486978Y955687D01*
X8723807Y718858D01*
X3098114Y3656114D02*
G01*
X3098114Y4966042D01*
X8723807Y-424141D02*
G01*
X8533612Y-233946D01*
X8533612Y528662D01*
X8723807Y718858D01*
X7823200Y7150112D02*
G01*
X7823200Y6820039D01*
X7823200Y6820039D02*
G01*
X7494371Y6491211D01*
X7097801Y6491211D01*
D12*
G01*
X8078190Y7150100D03*
G01*
X7568184Y7150100D03*
G01*
X7823200Y7150100D03*
D13*
G01*
X1536700Y694944D03*
G01*
X1536700Y194055D03*
D14*
G01*
X7085507Y3097301D03*
G01*
X7085507Y4113301D03*
G01*
X7085507Y1649501D03*
G01*
X7085507Y2665501D03*
D13*
G01*
X8723807Y1348257D03*
G01*
X8723807Y1849145D03*
G01*
X8723807Y217957D03*
G01*
X8723807Y718845D03*
G01*
X8723807Y-925042D03*
G01*
X8723807Y-424154D03*
G01*
X8723807Y3608857D03*
G01*
X8723807Y4109745D03*
D15*
G01*
X6450507Y976401D03*
G01*
X6704507Y976401D03*
G01*
X6958507Y976401D03*
G01*
X7212507Y976401D03*
G01*
X7466507Y976401D03*
D16*
G01*
X7720507Y976401D03*
D17*
G01*
X7097801Y6491198D03*
G01*
X7097801Y6291198D03*
G01*
X7097801Y6091199D03*
G01*
X7097801Y5891199D03*
G01*
X7097801Y5691200D03*
G01*
X7097801Y5491200D03*
G01*
X7097801Y5291201D03*
G01*
X7097801Y5091201D03*
G01*
X8497798Y5091201D03*
G01*
X8497798Y5291201D03*
G01*
X8497798Y5491200D03*
G01*
X8497798Y5691200D03*
G01*
X8497798Y5891199D03*
G01*
X8497798Y6091199D03*
G01*
X8497798Y6291198D03*
G01*
X8497798Y6491198D03*
D18*
G01*
X2556789Y5612511D03*
G01*
X2556789Y6212509D03*
G01*
X5916802Y6812508D03*
D19*
G01*
X5916802Y5012486D03*
D13*
G01*
X1536700Y6155944D03*
G01*
X1536700Y5655055D03*
D20*
G01*
X5638114Y-915898D03*
G01*
X5638114Y-661898D03*
G01*
X5638114Y-407898D03*
G01*
X5638114Y-153898D03*
G01*
X5638114Y100101D03*
G01*
X5638114Y354101D03*
G01*
X5638114Y608101D03*
G01*
X5638114Y862101D03*
G01*
X5638114Y1116101D03*
G01*
X5638114Y1370101D03*
G01*
X5638114Y1624101D03*
G01*
X5638114Y1878101D03*
G01*
X5638114Y2132101D03*
G01*
X5638114Y2386101D03*
G01*
X5638114Y2640101D03*
G01*
X5638114Y2894101D03*
G01*
X5638114Y3148101D03*
G01*
X5638114Y3402101D03*
G01*
X5638114Y3656101D03*
G01*
X3098114Y-661898D03*
G01*
X3098114Y-407898D03*
G01*
X3098114Y-153898D03*
G01*
X3098114Y100101D03*
G01*
X3098114Y354101D03*
G01*
X3098114Y608101D03*
G01*
X3098114Y862101D03*
G01*
X3098114Y1116101D03*
G01*
X3098114Y1370101D03*
G01*
X3098114Y1624101D03*
G01*
X3098114Y1878101D03*
G01*
X3098114Y2132101D03*
G01*
X3098114Y2386101D03*
G01*
X3098114Y2640101D03*
G01*
X3098114Y2894101D03*
G01*
X3098114Y3148101D03*
G01*
X3098114Y-915898D03*
G01*
X3098114Y3402101D03*
D21*
G01*
X3098114Y3656101D03*
D10*
G01*
X1498600Y4827143D03*
G01*
X1498600Y4977256D03*
D13*
G01*
X1549400Y-448055D03*
G01*
X1549400Y-948944D03*
G01*
X1536700Y2968244D03*
G01*
X1536700Y2467355D03*
G01*
X1536700Y1825244D03*
G01*
X1536700Y1324355D03*
G01*
X8723807Y2478557D03*
G01*
X8723807Y2979445D03*
G01*
X1536700Y4085844D03*
G01*
X1536700Y3584955D03*
D22*
G01*
X1499996Y6999986D03*
G01*
X8899982Y6999986D03*
G01*
X1499996Y-1499996D03*
G01*
X8899982Y-1499996D03*
D23*
G01*
X6006287Y3656101D03*
G01*
X6006287Y2132101D03*
G01*
X6006287Y2386101D03*
G01*
X6006287Y2640101D03*
G01*
X6006287Y2894101D03*
G01*
X6006287Y3148101D03*
G01*
X6006287Y3402101D03*
G01*
X6006287Y608101D03*
G01*
X6006287Y862101D03*
G01*
X6006287Y1116101D03*
G01*
X6006287Y1370101D03*
G01*
X6006287Y1624101D03*
G01*
X6006287Y1878101D03*
G01*
X6006287Y354101D03*
G01*
X6006287Y100101D03*
G01*
X6006287Y-153898D03*
G01*
X6006287Y-407898D03*
G01*
X6006287Y-661898D03*
G01*
X6006287Y-915898D03*
G01*
X2716987Y-915898D03*
G01*
X2716987Y-661898D03*
G01*
X2716987Y-407898D03*
G01*
X2716987Y-153898D03*
G01*
X2716987Y100101D03*
G01*
X2716987Y354101D03*
G01*
X2716987Y608101D03*
G01*
X2716987Y862101D03*
G01*
X2716987Y1116101D03*
G01*
X2716987Y1370101D03*
G01*
X2716987Y1624101D03*
G01*
X2716987Y1878101D03*
G01*
X2716987Y2132101D03*
G01*
X2716987Y2386101D03*
G01*
X2716987Y2640101D03*
G01*
X2716987Y2894101D03*
G01*
X2716987Y3148101D03*
G01*
X2716987Y3402101D03*
G01*
X2716987Y3656101D03*
D10*
G01*
X8127593Y4549902D03*
G01*
X6955078Y3975709D03*
G01*
X7264527Y2823819D03*
G01*
X8145297Y3436746D03*
G01*
X5032552Y747293D03*
G01*
X3277946Y5192623D03*
G01*
X7797393Y5487365D03*
G01*
X3098114Y4966030D03*
M02*
