M48
METRIC,LZ,000.000
;FILE_FORMAT=3:3
;TYPE=PLATED
;Layer: PTH_Through
;EasyEDA v6.5.42, 2024-04-02 14:52:46
;5a13a6d2cfb54f0dbe7fbbe2e4b841dc,acb5ada5342d49438264df6f97d5643c,10
;Gerber Generator version 0.2
;Holesize 1 = 0.400 mm
T01C0.400
;Holesize 2 = 0.722 mm
T02C0.722
;Holesize 3 = 0.889 mm
T03C0.889
;Holesize 4 = 0.900 mm
T04C0.900
;Holesize 5 = 0.915 mm
T05C0.915
;Holesize 6 = 1.301 mm
T06C1.301
%
G05
G90
T01
X052946Y060180
X043337Y060180
X035987Y068896
X048783Y068513
X052123Y068513
X065440Y069522
X066460Y071332
X017811Y069317
X023900Y056373
X045172Y068253
X039398Y069731
X043337Y057477
X048293Y070738
X065522Y062484
X064105Y063901
X049804Y069674
X038903Y068661
X032747Y070510
X050816Y062054
T02
X062118Y065166
X060118Y065166
X058118Y065166
X056118Y065166
X054118Y065166
X052118Y065166
X050118Y065166
X048118Y065166
X048118Y051166
X050118Y051166
X052118Y051166
X054118Y051166
X056118Y051166
X058118Y051166
X060118Y051166
X062118Y051166
T03
X038578Y064016
X038578Y061476
X038578Y058936
X038578Y056396
X038578Y053856
X038578Y051316
T04
X018542Y073025
X018542Y075565
X021082Y073025
X021082Y075565
X023622Y073025
X023622Y075565
X026162Y073025
X026162Y075565
X028702Y073025
X028702Y075565
X031242Y073025
X031242Y075565
X033782Y073025
X033782Y075565
X036322Y073025
X036322Y075565
X038862Y073025
X038862Y075565
X041402Y073025
X041402Y075565
X043942Y073025
X043942Y075565
X046482Y073025
X046482Y075565
X049022Y073025
X049022Y075565
X051562Y073025
X051562Y075565
X054102Y073025
X054102Y075565
X056642Y073025
X056642Y075565
X059182Y073025
X059182Y075565
X061722Y073025
X061722Y075565
X064262Y073025
X064262Y075565
X066802Y073025
X066802Y075565
T05
X042164Y068707
X042164Y055626
T06
X016002Y067147
X016002Y062139
X016002Y054447
X016002Y049439
M30
