G04 Layer: BottomSolderMaskLayer*
G04 EasyEDA v6.5.42, 2024-04-02 14:52:46*
G04 5a13a6d2cfb54f0dbe7fbbe2e4b841dc,acb5ada5342d49438264df6f97d5643c,10*
G04 Gerber Generator version 0.2*
G04 Scale: 100 percent, Rotated: No, Reflected: No *
G04 Dimensions in millimeters *
G04 leading zeros omitted , absolute positions ,4 integer and 5 decimal *
%FSLAX45Y45*%
%MOMM*%

%AMMACRO1*1,1,$1,$2,$3*1,1,$1,$4,$5*1,1,$1,0-$2,0-$3*1,1,$1,0-$4,0-$5*20,1,$1,$2,$3,$4,$5,0*20,1,$1,$4,$5,0-$2,0-$3,0*20,1,$1,0-$2,0-$3,0-$4,0-$5,0*20,1,$1,0-$4,0-$5,$2,$3,0*4,1,4,$2,$3,$4,$5,0-$2,0-$3,0-$4,0-$5,$2,$3,0*%
%ADD10C,1.6764*%
%ADD11R,1.6764X1.6764*%
%ADD12C,2.1016*%
%ADD13MACRO1,0.2032X0.6X-1.25X-0.6X-1.25*%
%ADD14MACRO1,0.1016X-2.4X0.6X2.4X0.6*%
%ADD15C,1.7780*%
%ADD16C,1.6256*%

%LPD*%
D10*
G01*
X3857752Y6401562D03*
G01*
X3857752Y6147562D03*
G01*
X3857752Y5893562D03*
G01*
X3857752Y5639562D03*
G01*
X3857752Y5385562D03*
D11*
G01*
X3857752Y5131562D03*
D12*
G01*
X1600200Y6714744D03*
G01*
X1600200Y6213855D03*
G01*
X1600200Y5444744D03*
G01*
X1600200Y4943855D03*
D13*
G01*
X6211801Y6516601D03*
G01*
X6011798Y6516601D03*
G01*
X5811799Y6516601D03*
G01*
X5611799Y6516601D03*
G01*
X5411800Y6516601D03*
G01*
X5211800Y6516601D03*
G01*
X5011801Y6516601D03*
G01*
X4811798Y6516601D03*
G01*
X4811798Y5116598D03*
G01*
X5011801Y5116598D03*
G01*
X5211800Y5116598D03*
G01*
X5411800Y5116598D03*
G01*
X5611799Y5116598D03*
G01*
X5811799Y5116598D03*
G01*
X6011798Y5116598D03*
G01*
X6211801Y5116598D03*
D14*
G01*
X7277105Y6020803D03*
G01*
X7277105Y5510796D03*
D15*
G01*
X1854200Y7302500D03*
G01*
X1854200Y7556500D03*
G01*
X2108200Y7302500D03*
G01*
X2108200Y7556500D03*
G01*
X2362200Y7302500D03*
G01*
X2362200Y7556500D03*
G01*
X2616200Y7302500D03*
G01*
X2616200Y7556500D03*
G01*
X2870200Y7302500D03*
G01*
X2870200Y7556500D03*
G01*
X3124200Y7302500D03*
G01*
X3124200Y7556500D03*
G01*
X3378200Y7302500D03*
G01*
X3378200Y7556500D03*
G01*
X3632200Y7302500D03*
G01*
X3632200Y7556500D03*
G01*
X3886200Y7302500D03*
G01*
X3886200Y7556500D03*
G01*
X4140200Y7302500D03*
G01*
X4140200Y7556500D03*
G01*
X4394200Y7302500D03*
G01*
X4394200Y7556500D03*
G01*
X4648200Y7302500D03*
G01*
X4648200Y7556500D03*
G01*
X4902200Y7302500D03*
G01*
X4902200Y7556500D03*
G01*
X5156200Y7302500D03*
G01*
X5156200Y7556500D03*
G01*
X5410200Y7302500D03*
G01*
X5410200Y7556500D03*
G01*
X5664200Y7302500D03*
G01*
X5664200Y7556500D03*
G01*
X5918200Y7302500D03*
G01*
X5918200Y7556500D03*
G01*
X6172200Y7302500D03*
G01*
X6172200Y7556500D03*
G01*
X6426200Y7302500D03*
G01*
X6426200Y7556500D03*
G01*
X6680200Y7302500D03*
G01*
X6680200Y7556500D03*
D16*
G01*
X4216400Y6870700D03*
G01*
X4216400Y5562600D03*
M02*
