M48
METRIC,LZ,000.000
;FILE_FORMAT=3:3
;TYPE=PLATED
;Layer: PTH_Through
;EasyEDA v6.5.42, 2024-04-02 15:40:40
;3ff643a6e98b40ca98db11d284ab65ea,acb5ada5342d49438264df6f97d5643c,10
;Gerber Generator version 0.2
;Holesize 1 = 0.301 mm
T01C0.301
;Holesize 2 = 0.310 mm
T02C0.310
;Holesize 3 = 0.800 mm
T03C0.800
;Holesize 4 = 0.889 mm
T04C0.889
;Holesize 5 = 1.000 mm
T05C1.000
;Holesize 6 = 1.040 mm
T06C1.040
;Holesize 7 = 1.301 mm
T07C1.301
;Holesize 8 = 3.000 mm
T08C3.000
%
G05
G90
T01
X-004599Y-019395
X-080484Y-065561
X-018641Y-039147
X-042334Y-056642
X-029073Y-010399
T02
X-044577Y-100330
X-015875Y-100330
X-068453Y-100330
X-068707Y-063627
X-016256Y-063754
X-044196Y-063627
X-068326Y-032639
X-015650Y-031252
X-069723Y-006477
X-017399Y-006477
T03
X-039385Y-010399
X-039385Y-012399
X-039385Y-014399
X-039385Y-016399
X-039385Y-018399
X-039385Y-020399
X-039385Y-022399
X-039385Y-024399
X-025385Y-024399
X-025385Y-022399
X-025385Y-020399
X-025385Y-018399
X-025385Y-016399
X-025385Y-014399
X-025385Y-012399
X-025385Y-010399
T04
X-005871Y-094244
X-020857Y-094244
X-005856Y-083244
X-020857Y-083195
T05
X-039018Y-031252
X-036478Y-031252
X-033938Y-031252
X-031398Y-031252
X-028858Y-031252
X-026318Y-031252
X-039526Y-049032
X-036986Y-049032
X-034446Y-049032
X-031906Y-049032
X-029366Y-049032
X-026826Y-049032
X-041050Y-077988
X-043590Y-077988
X-046130Y-077988
X-048670Y-077988
T06
X-078864Y-010923G85X-078870Y-010923
X-078864Y-013463G85X-078870Y-013463
X-078864Y-016003G85X-078870Y-016003
X-078864Y-018543G85X-078870Y-018543
X-078864Y-021083G85X-078870Y-021083
X-078864Y-023623G85X-078870Y-023623
X-078864Y-026163G85X-078870Y-026163
X-078864Y-028703G85X-078870Y-028703
X-078864Y-031243G85X-078870Y-031243
X-078864Y-033783G85X-078870Y-033783
X-078864Y-036323G85X-078870Y-036323
X-078864Y-038863G85X-078870Y-038863
X-078864Y-041403G85X-078870Y-041403
X-078864Y-043943G85X-078870Y-043943
X-078864Y-046483G85X-078870Y-046483
X-078864Y-049023G85X-078870Y-049023
X-078864Y-051563G85X-078870Y-051563
X-078864Y-054103G85X-078870Y-054103
X-078864Y-056643G85X-078870Y-056643
X-053464Y-013463G85X-053470Y-013463
X-053464Y-016003G85X-053470Y-016003
X-053464Y-018543G85X-053470Y-018543
X-053464Y-021083G85X-053470Y-021083
X-053464Y-023623G85X-053470Y-023623
X-053464Y-026163G85X-053470Y-026163
X-053464Y-028703G85X-053470Y-028703
X-053464Y-031243G85X-053470Y-031243
X-053464Y-033783G85X-053470Y-033783
X-053464Y-036323G85X-053470Y-036323
X-053464Y-038863G85X-053470Y-038863
X-053464Y-041403G85X-053470Y-041403
X-053464Y-043943G85X-053470Y-043943
X-053464Y-046483G85X-053470Y-046483
X-053464Y-049023G85X-053470Y-049023
X-053464Y-051563G85X-053470Y-051563
X-053464Y-010923G85X-053470Y-010923
X-053464Y-054103G85X-053470Y-054103
X-053464Y-056643G85X-053470Y-056643
X-083947Y-010922
X-083947Y-013462
X-083947Y-016002
X-083947Y-018542
X-083947Y-021209
X-083947Y-023749
X-083947Y-038989
X-083947Y-036449
X-083947Y-033782
X-083947Y-031242
X-083947Y-028702
X-083947Y-026162
X-083947Y-054229
X-083947Y-051689
X-083947Y-049022
X-083947Y-046482
X-083947Y-043942
X-083947Y-041402
X-083947Y-056642
X-048387Y-041402
X-048387Y-043942
X-048387Y-046482
X-048387Y-049022
X-048387Y-051689
X-048387Y-054229
X-048387Y-026162
X-048387Y-028702
X-048387Y-031242
X-048387Y-033782
X-048387Y-036449
X-048387Y-038989
X-048387Y-023749
X-048387Y-021209
X-048387Y-018542
X-048387Y-016002
X-048387Y-013462
X-048387Y-010922
X-048387Y-056642
T07
X-006252Y-038738
X-006252Y-033729
X-006252Y-076683
X-006252Y-071674
X-006252Y-065888
X-006252Y-060879
X-006289Y-044738
X-006289Y-054898
X-006289Y-049818
X-006252Y-027740
X-006252Y-022731
X-079658Y-078913
X-079658Y-083922
X-079658Y-067991
X-079658Y-073000
X-079658Y-089708
X-079658Y-094717
T08
X-083755Y-100000
X-005756Y-100000
X-005756Y-006500
X-083755Y-006500
M30
