G04 Layer: TopSilkscreenLayer*
G04 EasyEDA v6.5.42, 2024-04-02 15:40:40*
G04 3ff643a6e98b40ca98db11d284ab65ea,acb5ada5342d49438264df6f97d5643c,10*
G04 Gerber Generator version 0.2*
G04 Scale: 100 percent, Rotated: No, Reflected: No *
G04 Dimensions in millimeters *
G04 leading zeros omitted , absolute positions ,4 integer and 5 decimal *
%FSLAX45Y45*%
%MOMM*%

%ADD10C,0.2032*%
%ADD11C,0.1524*%
%ADD12C,0.2540*%
%ADD13C,0.2030*%
%ADD14C,0.1270*%
%ADD15C,0.1999*%
%ADD16C,0.6000*%
%ADD17C,0.0151*%

%LPD*%
G36*
X-3950309Y-9973767D02*
G01*
X-3988917Y-9984232D01*
X-3988917Y-9991801D01*
X-3967835Y-9993630D01*
X-3967835Y-10053066D01*
X-3971848Y-10048849D01*
X-3975862Y-10045344D01*
X-3979875Y-10042550D01*
X-3983990Y-10040366D01*
X-3988104Y-10038689D01*
X-3992270Y-10037622D01*
X-3996537Y-10036962D01*
X-4000855Y-10036759D01*
X-4006545Y-10037064D01*
X-4011980Y-10037927D01*
X-4017213Y-10039350D01*
X-4022191Y-10041331D01*
X-4026915Y-10043820D01*
X-4031335Y-10046766D01*
X-4035399Y-10050221D01*
X-4039158Y-10054183D01*
X-4042562Y-10058552D01*
X-4045610Y-10063378D01*
X-4048201Y-10068661D01*
X-4050385Y-10074300D01*
X-4052112Y-10080294D01*
X-4053382Y-10086695D01*
X-4054195Y-10093452D01*
X-4054431Y-10100056D01*
X-4032351Y-10100056D01*
X-4031996Y-10091470D01*
X-4031030Y-10083749D01*
X-4029456Y-10076891D01*
X-4027373Y-10070896D01*
X-4024782Y-10065664D01*
X-4021734Y-10061244D01*
X-4018279Y-10057536D01*
X-4014470Y-10054590D01*
X-4010406Y-10052304D01*
X-4006037Y-10050729D01*
X-4001515Y-10049814D01*
X-3996791Y-10049459D01*
X-3990289Y-10050170D01*
X-3983532Y-10052354D01*
X-3976268Y-10056469D01*
X-3968343Y-10062667D01*
X-3968343Y-10135057D01*
X-3975303Y-10141915D01*
X-3982110Y-10146284D01*
X-3989222Y-10148620D01*
X-3997045Y-10149332D01*
X-4002024Y-10148976D01*
X-4006697Y-10148062D01*
X-4011117Y-10146487D01*
X-4015232Y-10144252D01*
X-4018991Y-10141356D01*
X-4022293Y-10137698D01*
X-4025239Y-10133380D01*
X-4027728Y-10128250D01*
X-4029710Y-10122408D01*
X-4031132Y-10115753D01*
X-4032046Y-10108285D01*
X-4032351Y-10100056D01*
X-4054431Y-10100056D01*
X-4054195Y-10107269D01*
X-4053484Y-10113670D01*
X-4052315Y-10119817D01*
X-4050690Y-10125608D01*
X-4048658Y-10131044D01*
X-4046220Y-10136124D01*
X-4043426Y-10140848D01*
X-4040174Y-10145115D01*
X-4036618Y-10148976D01*
X-4032707Y-10152380D01*
X-4028440Y-10155326D01*
X-4023918Y-10157764D01*
X-4019042Y-10159695D01*
X-4013911Y-10161117D01*
X-4008526Y-10161981D01*
X-4002887Y-10162235D01*
X-3997350Y-10161930D01*
X-3992219Y-10161016D01*
X-3987444Y-10159492D01*
X-3982974Y-10157460D01*
X-3978757Y-10154869D01*
X-3974795Y-10151770D01*
X-3971086Y-10148214D01*
X-3967581Y-10144201D01*
X-3966311Y-10161524D01*
X-3927449Y-10158933D01*
X-3927449Y-10151059D01*
X-3947769Y-10148824D01*
X-3947769Y-10011359D01*
X-3947007Y-9975596D01*
G37*
G36*
X-4728311Y-9977374D02*
G01*
X-4734712Y-9978491D01*
X-4739894Y-9981692D01*
X-4743297Y-9986568D01*
X-4744567Y-9992817D01*
X-4743297Y-9999014D01*
X-4739894Y-10003942D01*
X-4734712Y-10007142D01*
X-4728311Y-10008311D01*
X-4722063Y-10007142D01*
X-4716983Y-10003942D01*
X-4713579Y-9999014D01*
X-4712309Y-9992817D01*
X-4713579Y-9986568D01*
X-4716983Y-9981692D01*
X-4722063Y-9978491D01*
G37*
G36*
X-3602329Y-9981438D02*
G01*
X-3669639Y-10198811D01*
X-3655923Y-10198811D01*
X-3589121Y-9981438D01*
G37*
G36*
X-3526637Y-9987991D02*
G01*
X-3532784Y-9988296D01*
X-3538778Y-9989058D01*
X-3544519Y-9990378D01*
X-3550005Y-9992156D01*
X-3555136Y-9994493D01*
X-3559860Y-9997389D01*
X-3564178Y-10000792D01*
X-3567937Y-10004704D01*
X-3571189Y-10009124D01*
X-3573779Y-10014102D01*
X-3575710Y-10019588D01*
X-3576929Y-10025583D01*
X-3574694Y-10028885D01*
X-3571900Y-10031374D01*
X-3568649Y-10032949D01*
X-3564991Y-10033457D01*
X-3560470Y-10032644D01*
X-3556711Y-10030002D01*
X-3553663Y-10025126D01*
X-3551275Y-10017709D01*
X-3546195Y-9999472D01*
X-3542334Y-9998659D01*
X-3535578Y-9997998D01*
X-3532733Y-9997948D01*
X-3526028Y-9998557D01*
X-3519982Y-10000437D01*
X-3514750Y-10003485D01*
X-3510330Y-10007600D01*
X-3506774Y-10012730D01*
X-3504133Y-10018826D01*
X-3502558Y-10025735D01*
X-3501999Y-10033457D01*
X-3502253Y-10038486D01*
X-3502964Y-10043464D01*
X-3504184Y-10048494D01*
X-3505860Y-10053574D01*
X-3508044Y-10058755D01*
X-3510737Y-10064038D01*
X-3513988Y-10069525D01*
X-3517696Y-10075214D01*
X-3521913Y-10081107D01*
X-3531971Y-10093756D01*
X-3575913Y-10143490D01*
X-3575913Y-10158933D01*
X-3473043Y-10158933D01*
X-3473043Y-10139680D01*
X-3559911Y-10139680D01*
X-3517493Y-10095534D01*
X-3502101Y-10078415D01*
X-3494379Y-10068661D01*
X-3488486Y-10059974D01*
X-3486150Y-10055860D01*
X-3484270Y-10051846D01*
X-3482746Y-10047935D01*
X-3481578Y-10044074D01*
X-3480765Y-10040162D01*
X-3480308Y-10036251D01*
X-3480155Y-10032238D01*
X-3480460Y-10025888D01*
X-3481374Y-10019944D01*
X-3482898Y-10014356D01*
X-3485032Y-10009225D01*
X-3487826Y-10004552D01*
X-3491280Y-10000386D01*
X-3495446Y-9996779D01*
X-3500272Y-9993731D01*
X-3505758Y-9991293D01*
X-3512007Y-9989515D01*
X-3518966Y-9988397D01*
G37*
G36*
X-3722979Y-9988753D02*
G01*
X-3774541Y-10002469D01*
X-3774541Y-10011156D01*
X-3741267Y-10007803D01*
X-3741521Y-10146233D01*
X-3777335Y-10151059D01*
X-3777335Y-10158933D01*
X-3684879Y-10158933D01*
X-3684879Y-10151059D01*
X-3720185Y-10146233D01*
X-3720642Y-10116058D01*
X-3720693Y-10027361D01*
X-3719677Y-9991293D01*
G37*
G36*
X-5548477Y-9991293D02*
G01*
X-5548477Y-9999980D01*
X-5525109Y-10002469D01*
X-5524703Y-10030002D01*
X-5524601Y-10103713D01*
X-5525109Y-10147757D01*
X-5548477Y-10150348D01*
X-5548477Y-10158933D01*
X-5424271Y-10158933D01*
X-5422493Y-10111943D01*
X-5435447Y-10111943D01*
X-5443829Y-10148316D01*
X-5501233Y-10148316D01*
X-5501690Y-10115753D01*
X-5501538Y-10019080D01*
X-5501233Y-10002469D01*
X-5477865Y-9999980D01*
X-5477865Y-9991293D01*
G37*
G36*
X-5268061Y-9991293D02*
G01*
X-5268061Y-9999980D01*
X-5244693Y-10002469D01*
X-5244185Y-10046766D01*
X-5244185Y-10071049D01*
X-5221325Y-10071049D01*
X-5221224Y-10029088D01*
X-5220817Y-10001199D01*
X-5199227Y-10001199D01*
X-5192928Y-10001504D01*
X-5187238Y-10002266D01*
X-5182108Y-10003485D01*
X-5177536Y-10005263D01*
X-5173573Y-10007447D01*
X-5170119Y-10010140D01*
X-5167274Y-10013238D01*
X-5164937Y-10016744D01*
X-5163159Y-10020706D01*
X-5161889Y-10025075D01*
X-5161127Y-10029850D01*
X-5160873Y-10035032D01*
X-5161178Y-10040112D01*
X-5161991Y-10044887D01*
X-5163413Y-10049408D01*
X-5165344Y-10053624D01*
X-5167884Y-10057434D01*
X-5170932Y-10060838D01*
X-5174589Y-10063835D01*
X-5178755Y-10066375D01*
X-5183479Y-10068356D01*
X-5188762Y-10069830D01*
X-5194604Y-10070744D01*
X-5201005Y-10071049D01*
X-5244185Y-10071049D01*
X-5244287Y-10120325D01*
X-5244693Y-10147757D01*
X-5268061Y-10150348D01*
X-5268061Y-10158933D01*
X-5197449Y-10158933D01*
X-5197449Y-10150348D01*
X-5220817Y-10147503D01*
X-5221224Y-10120325D01*
X-5221325Y-10080701D01*
X-5208117Y-10080701D01*
X-5200904Y-10080955D01*
X-5194706Y-10081768D01*
X-5189524Y-10083241D01*
X-5185206Y-10085527D01*
X-5181600Y-10088829D01*
X-5178602Y-10093147D01*
X-5176164Y-10098735D01*
X-5174081Y-10105593D01*
X-5163667Y-10145522D01*
X-5160721Y-10152938D01*
X-5155844Y-10157866D01*
X-5148478Y-10160660D01*
X-5138267Y-10161524D01*
X-5132781Y-10161320D01*
X-5127802Y-10160812D01*
X-5123383Y-10160000D01*
X-5119471Y-10158933D01*
X-5119471Y-10150348D01*
X-5138775Y-10148519D01*
X-5150459Y-10109149D01*
X-5152796Y-10102392D01*
X-5155387Y-10096550D01*
X-5158333Y-10091572D01*
X-5161737Y-10087406D01*
X-5165547Y-10084003D01*
X-5169916Y-10081260D01*
X-5174843Y-10079177D01*
X-5180431Y-10077653D01*
X-5173573Y-10076180D01*
X-5167274Y-10074148D01*
X-5161635Y-10071709D01*
X-5156555Y-10068814D01*
X-5152085Y-10065562D01*
X-5148224Y-10062006D01*
X-5144922Y-10058095D01*
X-5142280Y-10053929D01*
X-5140198Y-10049510D01*
X-5138674Y-10044938D01*
X-5137810Y-10040162D01*
X-5137505Y-10035235D01*
X-5137759Y-10030206D01*
X-5138521Y-10025430D01*
X-5139842Y-10020909D01*
X-5141569Y-10016693D01*
X-5143855Y-10012781D01*
X-5146598Y-10009174D01*
X-5149748Y-10005872D01*
X-5153406Y-10002926D01*
X-5157520Y-10000234D01*
X-5162042Y-9997897D01*
X-5166969Y-9995916D01*
X-5172354Y-9994290D01*
X-5178094Y-9993020D01*
X-5184241Y-9992055D01*
X-5190794Y-9991496D01*
X-5197703Y-9991293D01*
G37*
G36*
X-4918557Y-9991293D02*
G01*
X-4918557Y-9999980D01*
X-4895443Y-10002469D01*
X-4894935Y-10046766D01*
X-4894935Y-10071049D01*
X-4872075Y-10071049D01*
X-4871974Y-10029088D01*
X-4871567Y-10001199D01*
X-4849977Y-10001199D01*
X-4843678Y-10001504D01*
X-4837988Y-10002266D01*
X-4832858Y-10003485D01*
X-4828286Y-10005263D01*
X-4824323Y-10007447D01*
X-4820869Y-10010140D01*
X-4818024Y-10013238D01*
X-4815687Y-10016744D01*
X-4813909Y-10020706D01*
X-4812639Y-10025075D01*
X-4811877Y-10029850D01*
X-4811623Y-10035032D01*
X-4811877Y-10040112D01*
X-4812741Y-10044887D01*
X-4814112Y-10049408D01*
X-4816043Y-10053624D01*
X-4818532Y-10057434D01*
X-4821580Y-10060838D01*
X-4825187Y-10063835D01*
X-4829403Y-10066375D01*
X-4834128Y-10068356D01*
X-4839411Y-10069830D01*
X-4845304Y-10070744D01*
X-4851755Y-10071049D01*
X-4894935Y-10071049D01*
X-4895037Y-10120325D01*
X-4895443Y-10147757D01*
X-4918557Y-10150348D01*
X-4918557Y-10158933D01*
X-4848199Y-10158933D01*
X-4848199Y-10150348D01*
X-4871567Y-10147503D01*
X-4871974Y-10120325D01*
X-4872075Y-10080701D01*
X-4858867Y-10080701D01*
X-4851603Y-10080955D01*
X-4845456Y-10081768D01*
X-4840224Y-10083241D01*
X-4835804Y-10085527D01*
X-4832146Y-10088829D01*
X-4829149Y-10093147D01*
X-4826660Y-10098735D01*
X-4824577Y-10105593D01*
X-4814417Y-10145522D01*
X-4811471Y-10152938D01*
X-4806492Y-10157866D01*
X-4799126Y-10160660D01*
X-4789017Y-10161524D01*
X-4783378Y-10161320D01*
X-4778349Y-10160812D01*
X-4773879Y-10160000D01*
X-4769967Y-10158933D01*
X-4769967Y-10150348D01*
X-4789525Y-10148519D01*
X-4801209Y-10109149D01*
X-4803444Y-10102392D01*
X-4806035Y-10096550D01*
X-4808982Y-10091572D01*
X-4812385Y-10087406D01*
X-4816246Y-10084003D01*
X-4820615Y-10081260D01*
X-4825593Y-10079177D01*
X-4831181Y-10077653D01*
X-4824323Y-10076180D01*
X-4818024Y-10074148D01*
X-4812334Y-10071709D01*
X-4807254Y-10068814D01*
X-4802733Y-10065562D01*
X-4798822Y-10062006D01*
X-4795520Y-10058095D01*
X-4792827Y-10053929D01*
X-4790694Y-10049510D01*
X-4789220Y-10044938D01*
X-4788306Y-10040162D01*
X-4788001Y-10035235D01*
X-4788255Y-10030206D01*
X-4789068Y-10025430D01*
X-4790338Y-10020909D01*
X-4792116Y-10016693D01*
X-4794402Y-10012781D01*
X-4797145Y-10009174D01*
X-4800346Y-10005872D01*
X-4804054Y-10002926D01*
X-4808169Y-10000234D01*
X-4812690Y-9997897D01*
X-4817668Y-9995916D01*
X-4823053Y-9994290D01*
X-4828844Y-9993020D01*
X-4834991Y-9992055D01*
X-4841544Y-9991496D01*
X-4848453Y-9991293D01*
G37*
G36*
X-4372711Y-9991293D02*
G01*
X-4372711Y-9999980D01*
X-4354931Y-10002469D01*
X-4352391Y-10005517D01*
X-4352899Y-10147249D01*
X-4373981Y-10150348D01*
X-4373981Y-10158933D01*
X-4314799Y-10158933D01*
X-4314799Y-10150348D01*
X-4341469Y-10146741D01*
X-4341977Y-10020249D01*
X-4239615Y-10160457D01*
X-4230725Y-10160457D01*
X-4230471Y-10002977D01*
X-4209643Y-9999980D01*
X-4209643Y-9991293D01*
X-4268825Y-9991293D01*
X-4268825Y-9999980D01*
X-4241901Y-10003282D01*
X-4241647Y-10119309D01*
X-4334103Y-9991293D01*
G37*
G36*
X-5342991Y-10036759D02*
G01*
X-5348427Y-10037064D01*
X-5353862Y-10037826D01*
X-5359146Y-10039096D01*
X-5364276Y-10040823D01*
X-5369255Y-10043109D01*
X-5373979Y-10045903D01*
X-5378450Y-10049154D01*
X-5382666Y-10052862D01*
X-5386476Y-10057130D01*
X-5389930Y-10061803D01*
X-5392978Y-10067036D01*
X-5395518Y-10072674D01*
X-5397601Y-10078821D01*
X-5399125Y-10085425D01*
X-5400090Y-10092486D01*
X-5400395Y-10100056D01*
X-5377535Y-10100056D01*
X-5377281Y-10091674D01*
X-5376468Y-10084003D01*
X-5375198Y-10076992D01*
X-5373420Y-10070693D01*
X-5371185Y-10065054D01*
X-5368442Y-10060178D01*
X-5365292Y-10056012D01*
X-5361635Y-10052608D01*
X-5357622Y-10049916D01*
X-5353151Y-10047986D01*
X-5348274Y-10046817D01*
X-5342991Y-10046411D01*
X-5337708Y-10046817D01*
X-5332831Y-10047986D01*
X-5328361Y-10049916D01*
X-5324348Y-10052608D01*
X-5320690Y-10056012D01*
X-5317540Y-10060178D01*
X-5314797Y-10065054D01*
X-5312562Y-10070693D01*
X-5310784Y-10076992D01*
X-5309514Y-10084003D01*
X-5308701Y-10091674D01*
X-5308447Y-10100056D01*
X-5308701Y-10108336D01*
X-5309514Y-10115905D01*
X-5310784Y-10122814D01*
X-5312562Y-10129012D01*
X-5314797Y-10134498D01*
X-5317540Y-10139273D01*
X-5320690Y-10143337D01*
X-5324348Y-10146639D01*
X-5328361Y-10149230D01*
X-5332831Y-10151110D01*
X-5337708Y-10152227D01*
X-5342991Y-10152583D01*
X-5348274Y-10152227D01*
X-5353151Y-10151110D01*
X-5357622Y-10149230D01*
X-5361635Y-10146639D01*
X-5365292Y-10143337D01*
X-5368442Y-10139273D01*
X-5371185Y-10134498D01*
X-5373420Y-10129012D01*
X-5375198Y-10122814D01*
X-5376468Y-10115905D01*
X-5377281Y-10108336D01*
X-5377535Y-10100056D01*
X-5400395Y-10100056D01*
X-5400090Y-10107523D01*
X-5399125Y-10114534D01*
X-5397601Y-10121036D01*
X-5395569Y-10127132D01*
X-5393029Y-10132720D01*
X-5389981Y-10137800D01*
X-5386578Y-10142423D01*
X-5382717Y-10146588D01*
X-5378551Y-10150246D01*
X-5374081Y-10153396D01*
X-5369356Y-10156139D01*
X-5364378Y-10158323D01*
X-5359247Y-10160050D01*
X-5353913Y-10161270D01*
X-5348478Y-10162032D01*
X-5342991Y-10162235D01*
X-5337505Y-10162032D01*
X-5332120Y-10161270D01*
X-5326837Y-10160050D01*
X-5321655Y-10158374D01*
X-5316677Y-10156190D01*
X-5311902Y-10153497D01*
X-5307431Y-10150297D01*
X-5303215Y-10146690D01*
X-5299354Y-10142524D01*
X-5295900Y-10137902D01*
X-5292801Y-10132822D01*
X-5290210Y-10127234D01*
X-5288127Y-10121138D01*
X-5286603Y-10114584D01*
X-5285638Y-10107574D01*
X-5285333Y-10100056D01*
X-5285638Y-10092436D01*
X-5286603Y-10085374D01*
X-5288127Y-10078720D01*
X-5290210Y-10072573D01*
X-5292801Y-10066883D01*
X-5295900Y-10061702D01*
X-5299354Y-10057028D01*
X-5303215Y-10052761D01*
X-5307431Y-10049052D01*
X-5311902Y-10045801D01*
X-5316677Y-10043058D01*
X-5321655Y-10040823D01*
X-5326837Y-10039045D01*
X-5332120Y-10037775D01*
X-5337505Y-10037013D01*
G37*
G36*
X-5052669Y-10036759D02*
G01*
X-5058968Y-10037013D01*
X-5064963Y-10037724D01*
X-5070551Y-10038892D01*
X-5075732Y-10040518D01*
X-5080558Y-10042601D01*
X-5084927Y-10045039D01*
X-5088839Y-10047884D01*
X-5092344Y-10051135D01*
X-5095341Y-10054793D01*
X-5097780Y-10058755D01*
X-5099761Y-10063124D01*
X-5101183Y-10067798D01*
X-5100066Y-10071862D01*
X-5097780Y-10074859D01*
X-5094427Y-10076789D01*
X-5090007Y-10077399D01*
X-5085537Y-10076688D01*
X-5081930Y-10074452D01*
X-5079238Y-10070795D01*
X-5077307Y-10065766D01*
X-5072481Y-10048443D01*
X-5065014Y-10046970D01*
X-5058257Y-10046411D01*
X-5052415Y-10046766D01*
X-5047437Y-10047833D01*
X-5043322Y-10049764D01*
X-5040020Y-10052710D01*
X-5037531Y-10056876D01*
X-5035753Y-10062311D01*
X-5034737Y-10069169D01*
X-5034381Y-10077653D01*
X-5034381Y-10085324D01*
X-5049469Y-10089184D01*
X-5056682Y-10091420D01*
X-5070805Y-10096601D01*
X-5077510Y-10099497D01*
X-5083352Y-10102392D01*
X-5088382Y-10105288D01*
X-5092598Y-10108234D01*
X-5096052Y-10111282D01*
X-5098846Y-10114381D01*
X-5101031Y-10117531D01*
X-5102606Y-10120833D01*
X-5103672Y-10124236D01*
X-5104293Y-10127996D01*
X-5083149Y-10127996D01*
X-5082946Y-10124592D01*
X-5082235Y-10121138D01*
X-5080812Y-10117683D01*
X-5078526Y-10114178D01*
X-5075224Y-10110673D01*
X-5070703Y-10107218D01*
X-5064861Y-10103815D01*
X-5057495Y-10100564D01*
X-5047183Y-10097058D01*
X-5034381Y-10093198D01*
X-5034381Y-10132822D01*
X-5043474Y-10139832D01*
X-5050485Y-10144353D01*
X-5056581Y-10146792D01*
X-5062829Y-10147503D01*
X-5070957Y-10146385D01*
X-5077358Y-10142880D01*
X-5081625Y-10136835D01*
X-5083149Y-10127996D01*
X-5104293Y-10127996D01*
X-5104485Y-10131501D01*
X-5103825Y-10138613D01*
X-5101894Y-10144810D01*
X-5098846Y-10150094D01*
X-5094833Y-10154412D01*
X-5089956Y-10157815D01*
X-5084318Y-10160304D01*
X-5078120Y-10161778D01*
X-5071465Y-10162235D01*
X-5066030Y-10161930D01*
X-5061102Y-10160965D01*
X-5056479Y-10159390D01*
X-5052110Y-10157155D01*
X-5047792Y-10154310D01*
X-5043373Y-10150805D01*
X-5033873Y-10141966D01*
X-5031232Y-10150195D01*
X-5026507Y-10156393D01*
X-5019852Y-10160355D01*
X-5011521Y-10161727D01*
X-5005324Y-10161066D01*
X-4999685Y-10158780D01*
X-4994554Y-10154767D01*
X-4989931Y-10148824D01*
X-4994503Y-10143998D01*
X-4996891Y-10146690D01*
X-4999278Y-10148671D01*
X-5001818Y-10149890D01*
X-5004663Y-10150348D01*
X-5008473Y-10149484D01*
X-5011318Y-10146792D01*
X-5013147Y-10141864D01*
X-5013807Y-10134346D01*
X-5013807Y-10079990D01*
X-5014061Y-10072573D01*
X-5014874Y-10065918D01*
X-5016144Y-10060025D01*
X-5018024Y-10054894D01*
X-5020411Y-10050424D01*
X-5023358Y-10046665D01*
X-5026812Y-10043515D01*
X-5030876Y-10041026D01*
X-5035448Y-10039146D01*
X-5040630Y-10037826D01*
X-5046370Y-10037013D01*
G37*
G36*
X-4622393Y-10036759D02*
G01*
X-4628083Y-10037064D01*
X-4633671Y-10037876D01*
X-4639106Y-10039248D01*
X-4644390Y-10041077D01*
X-4649470Y-10043464D01*
X-4654296Y-10046360D01*
X-4658817Y-10049713D01*
X-4663033Y-10053523D01*
X-4666894Y-10057841D01*
X-4670348Y-10062616D01*
X-4673396Y-10067798D01*
X-4675987Y-10073436D01*
X-4678019Y-10079482D01*
X-4679543Y-10085933D01*
X-4680508Y-10092791D01*
X-4680813Y-10100056D01*
X-4680559Y-10107015D01*
X-4679797Y-10113619D01*
X-4678527Y-10119918D01*
X-4676749Y-10125811D01*
X-4674514Y-10131348D01*
X-4671872Y-10136479D01*
X-4668774Y-10141153D01*
X-4665268Y-10145420D01*
X-4661408Y-10149230D01*
X-4657090Y-10152634D01*
X-4652467Y-10155478D01*
X-4647488Y-10157917D01*
X-4642154Y-10159796D01*
X-4636566Y-10161168D01*
X-4630623Y-10161981D01*
X-4624425Y-10162235D01*
X-4616043Y-10161727D01*
X-4608322Y-10160152D01*
X-4601413Y-10157612D01*
X-4595164Y-10154158D01*
X-4589729Y-10149738D01*
X-4585004Y-10144455D01*
X-4581093Y-10138410D01*
X-4577943Y-10131501D01*
X-4583023Y-10129266D01*
X-4586274Y-10133482D01*
X-4589881Y-10137241D01*
X-4593844Y-10140492D01*
X-4598162Y-10143236D01*
X-4602784Y-10145420D01*
X-4607610Y-10146995D01*
X-4612741Y-10147960D01*
X-4618075Y-10148316D01*
X-4623917Y-10147909D01*
X-4629454Y-10146792D01*
X-4634636Y-10144912D01*
X-4639411Y-10142372D01*
X-4643780Y-10139070D01*
X-4647742Y-10135108D01*
X-4651146Y-10130485D01*
X-4654042Y-10125202D01*
X-4656378Y-10119258D01*
X-4658055Y-10112705D01*
X-4659122Y-10105491D01*
X-4659477Y-10097719D01*
X-4659172Y-10089896D01*
X-4658207Y-10082631D01*
X-4656683Y-10076027D01*
X-4654600Y-10069982D01*
X-4652010Y-10064597D01*
X-4648860Y-10059873D01*
X-4645253Y-10055860D01*
X-4641240Y-10052507D01*
X-4636770Y-10049865D01*
X-4631893Y-10047986D01*
X-4626660Y-10046817D01*
X-4621123Y-10046411D01*
X-4617923Y-10046563D01*
X-4611014Y-10047732D01*
X-4607407Y-10048748D01*
X-4602835Y-10066477D01*
X-4601210Y-10071201D01*
X-4598568Y-10074808D01*
X-4594707Y-10077094D01*
X-4589373Y-10077907D01*
X-4585411Y-10077399D01*
X-4582312Y-10075722D01*
X-4579975Y-10072878D01*
X-4578451Y-10068814D01*
X-4579620Y-10064242D01*
X-4581398Y-10059974D01*
X-4583734Y-10055961D01*
X-4586528Y-10052253D01*
X-4589780Y-10048849D01*
X-4593488Y-10045852D01*
X-4597552Y-10043210D01*
X-4601972Y-10040975D01*
X-4606696Y-10039197D01*
X-4611725Y-10037876D01*
X-4616958Y-10037064D01*
G37*
G36*
X-4500473Y-10036759D02*
G01*
X-4506214Y-10037064D01*
X-4511852Y-10037927D01*
X-4517288Y-10039350D01*
X-4522520Y-10041331D01*
X-4527499Y-10043820D01*
X-4532274Y-10046766D01*
X-4536694Y-10050221D01*
X-4540808Y-10054183D01*
X-4544517Y-10058552D01*
X-4547870Y-10063378D01*
X-4550816Y-10068661D01*
X-4553254Y-10074300D01*
X-4555236Y-10080294D01*
X-4556658Y-10086695D01*
X-4556981Y-10089083D01*
X-4535779Y-10089083D01*
X-4534865Y-10082022D01*
X-4533442Y-10075621D01*
X-4531512Y-10069880D01*
X-4529226Y-10064851D01*
X-4526534Y-10060432D01*
X-4523536Y-10056622D01*
X-4520234Y-10053472D01*
X-4516780Y-10050881D01*
X-4513122Y-10048900D01*
X-4509363Y-10047528D01*
X-4505553Y-10046716D01*
X-4501743Y-10046411D01*
X-4495901Y-10047020D01*
X-4490567Y-10048798D01*
X-4485843Y-10051542D01*
X-4481830Y-10055148D01*
X-4478528Y-10059466D01*
X-4476089Y-10064445D01*
X-4474565Y-10069880D01*
X-4474057Y-10075672D01*
X-4474616Y-10081209D01*
X-4476699Y-10085527D01*
X-4480814Y-10088372D01*
X-4487519Y-10089388D01*
X-4556981Y-10089083D01*
X-4557572Y-10093452D01*
X-4557877Y-10100564D01*
X-4557623Y-10107676D01*
X-4556810Y-10114432D01*
X-4555540Y-10120782D01*
X-4553762Y-10126675D01*
X-4551527Y-10132161D01*
X-4548886Y-10137241D01*
X-4545787Y-10141864D01*
X-4542282Y-10146080D01*
X-4538370Y-10149789D01*
X-4534052Y-10153040D01*
X-4529429Y-10155834D01*
X-4524451Y-10158120D01*
X-4519168Y-10159898D01*
X-4513529Y-10161219D01*
X-4507636Y-10161981D01*
X-4501489Y-10162235D01*
X-4493514Y-10161727D01*
X-4486046Y-10160254D01*
X-4479239Y-10157815D01*
X-4472990Y-10154462D01*
X-4467402Y-10150348D01*
X-4462373Y-10145420D01*
X-4458004Y-10139832D01*
X-4454245Y-10133533D01*
X-4459071Y-10130282D01*
X-4462475Y-10134092D01*
X-4466031Y-10137597D01*
X-4469790Y-10140645D01*
X-4473854Y-10143286D01*
X-4478274Y-10145420D01*
X-4483150Y-10146995D01*
X-4488484Y-10147960D01*
X-4494377Y-10148316D01*
X-4500321Y-10147960D01*
X-4505909Y-10146893D01*
X-4511090Y-10145166D01*
X-4515916Y-10142728D01*
X-4520285Y-10139578D01*
X-4524146Y-10135768D01*
X-4527550Y-10131247D01*
X-4530445Y-10126014D01*
X-4532731Y-10120122D01*
X-4534458Y-10113518D01*
X-4535576Y-10106202D01*
X-4536033Y-10098227D01*
X-4455515Y-10098532D01*
X-4454702Y-10095738D01*
X-4454144Y-10092486D01*
X-4453737Y-10084511D01*
X-4454144Y-10077399D01*
X-4455312Y-10070744D01*
X-4457242Y-10064648D01*
X-4459884Y-10059060D01*
X-4463135Y-10054031D01*
X-4466996Y-10049611D01*
X-4471466Y-10045801D01*
X-4476394Y-10042601D01*
X-4481830Y-10040112D01*
X-4487672Y-10038283D01*
X-4493920Y-10037165D01*
G37*
G36*
X-4134459Y-10036759D02*
G01*
X-4139895Y-10037064D01*
X-4145279Y-10037826D01*
X-4150563Y-10039096D01*
X-4155694Y-10040823D01*
X-4160672Y-10043109D01*
X-4165396Y-10045903D01*
X-4169816Y-10049154D01*
X-4173982Y-10052862D01*
X-4177792Y-10057130D01*
X-4181246Y-10061803D01*
X-4184243Y-10067036D01*
X-4186783Y-10072674D01*
X-4188815Y-10078821D01*
X-4190339Y-10085425D01*
X-4191304Y-10092486D01*
X-4191609Y-10100056D01*
X-4168749Y-10100056D01*
X-4168495Y-10091674D01*
X-4167733Y-10084003D01*
X-4166463Y-10076992D01*
X-4164736Y-10070693D01*
X-4162501Y-10065054D01*
X-4159808Y-10060178D01*
X-4156659Y-10056012D01*
X-4153052Y-10052608D01*
X-4149039Y-10049916D01*
X-4144568Y-10047986D01*
X-4139742Y-10046817D01*
X-4134459Y-10046411D01*
X-4129176Y-10046817D01*
X-4124299Y-10047986D01*
X-4119829Y-10049916D01*
X-4115815Y-10052608D01*
X-4112158Y-10056012D01*
X-4109008Y-10060178D01*
X-4106265Y-10065054D01*
X-4104030Y-10070693D01*
X-4102252Y-10076992D01*
X-4100982Y-10084003D01*
X-4100169Y-10091674D01*
X-4099915Y-10100056D01*
X-4100169Y-10108336D01*
X-4100982Y-10115905D01*
X-4102252Y-10122814D01*
X-4104030Y-10129012D01*
X-4106265Y-10134498D01*
X-4109008Y-10139273D01*
X-4112158Y-10143337D01*
X-4115815Y-10146639D01*
X-4119829Y-10149230D01*
X-4124299Y-10151110D01*
X-4129176Y-10152227D01*
X-4134459Y-10152583D01*
X-4139742Y-10152227D01*
X-4144568Y-10151110D01*
X-4149039Y-10149230D01*
X-4153052Y-10146639D01*
X-4156659Y-10143337D01*
X-4159808Y-10139273D01*
X-4162501Y-10134498D01*
X-4164736Y-10129012D01*
X-4166463Y-10122814D01*
X-4167733Y-10115905D01*
X-4168495Y-10108336D01*
X-4168749Y-10100056D01*
X-4191609Y-10100056D01*
X-4191304Y-10107523D01*
X-4190339Y-10114534D01*
X-4188866Y-10121036D01*
X-4186834Y-10127132D01*
X-4184294Y-10132720D01*
X-4181297Y-10137800D01*
X-4177893Y-10142423D01*
X-4174083Y-10146588D01*
X-4169918Y-10150246D01*
X-4165498Y-10153396D01*
X-4160774Y-10156139D01*
X-4155795Y-10158323D01*
X-4150664Y-10160050D01*
X-4145381Y-10161270D01*
X-4139946Y-10162032D01*
X-4134459Y-10162235D01*
X-4128973Y-10162032D01*
X-4123537Y-10161270D01*
X-4118203Y-10160050D01*
X-4113022Y-10158374D01*
X-4108043Y-10156190D01*
X-4103268Y-10153497D01*
X-4098747Y-10150297D01*
X-4094581Y-10146690D01*
X-4090720Y-10142524D01*
X-4087266Y-10137902D01*
X-4084218Y-10132822D01*
X-4081678Y-10127234D01*
X-4079595Y-10121138D01*
X-4078071Y-10114584D01*
X-4077106Y-10107574D01*
X-4076801Y-10100056D01*
X-4077106Y-10092436D01*
X-4078071Y-10085374D01*
X-4079595Y-10078720D01*
X-4081678Y-10072573D01*
X-4084269Y-10066883D01*
X-4087368Y-10061702D01*
X-4090822Y-10057028D01*
X-4094683Y-10052761D01*
X-4098899Y-10049052D01*
X-4103370Y-10045801D01*
X-4108145Y-10043058D01*
X-4113123Y-10040823D01*
X-4118305Y-10039045D01*
X-4123588Y-10037775D01*
X-4128973Y-10037013D01*
G37*
G36*
X-3854551Y-10036759D02*
G01*
X-3860241Y-10037064D01*
X-3865829Y-10037927D01*
X-3871264Y-10039350D01*
X-3876497Y-10041331D01*
X-3881475Y-10043820D01*
X-3886200Y-10046766D01*
X-3890670Y-10050221D01*
X-3894785Y-10054183D01*
X-3898544Y-10058552D01*
X-3901897Y-10063378D01*
X-3904843Y-10068661D01*
X-3907332Y-10074300D01*
X-3909314Y-10080294D01*
X-3910736Y-10086695D01*
X-3911059Y-10089083D01*
X-3889857Y-10089083D01*
X-3888943Y-10082022D01*
X-3887520Y-10075621D01*
X-3885590Y-10069880D01*
X-3883304Y-10064851D01*
X-3880561Y-10060432D01*
X-3877564Y-10056622D01*
X-3874262Y-10053472D01*
X-3870756Y-10050881D01*
X-3867099Y-10048900D01*
X-3863289Y-10047528D01*
X-3859428Y-10046716D01*
X-3855567Y-10046411D01*
X-3849776Y-10047020D01*
X-3844544Y-10048798D01*
X-3839870Y-10051542D01*
X-3835857Y-10055148D01*
X-3832606Y-10059466D01*
X-3830167Y-10064445D01*
X-3828643Y-10069880D01*
X-3828135Y-10075672D01*
X-3828643Y-10081209D01*
X-3830675Y-10085527D01*
X-3834790Y-10088372D01*
X-3841597Y-10089388D01*
X-3911059Y-10089083D01*
X-3911650Y-10093452D01*
X-3911955Y-10100564D01*
X-3911701Y-10107676D01*
X-3910888Y-10114432D01*
X-3909618Y-10120782D01*
X-3907840Y-10126675D01*
X-3905605Y-10132161D01*
X-3902964Y-10137241D01*
X-3899865Y-10141864D01*
X-3896360Y-10146080D01*
X-3892448Y-10149789D01*
X-3888130Y-10153040D01*
X-3883507Y-10155834D01*
X-3878529Y-10158120D01*
X-3873246Y-10159898D01*
X-3867607Y-10161219D01*
X-3861714Y-10161981D01*
X-3855567Y-10162235D01*
X-3847490Y-10161727D01*
X-3840022Y-10160254D01*
X-3833114Y-10157815D01*
X-3826865Y-10154462D01*
X-3821226Y-10150348D01*
X-3816197Y-10145420D01*
X-3811828Y-10139832D01*
X-3808069Y-10133533D01*
X-3813149Y-10130282D01*
X-3816553Y-10134092D01*
X-3820109Y-10137597D01*
X-3823868Y-10140645D01*
X-3827932Y-10143286D01*
X-3832351Y-10145420D01*
X-3837228Y-10146995D01*
X-3842562Y-10147960D01*
X-3848455Y-10148316D01*
X-3854399Y-10147960D01*
X-3859987Y-10146893D01*
X-3865168Y-10145166D01*
X-3869994Y-10142728D01*
X-3874312Y-10139578D01*
X-3878224Y-10135768D01*
X-3881577Y-10131247D01*
X-3884422Y-10126014D01*
X-3886708Y-10120122D01*
X-3888384Y-10113518D01*
X-3889451Y-10106202D01*
X-3889857Y-10098227D01*
X-3809593Y-10098532D01*
X-3808729Y-10095738D01*
X-3808120Y-10092486D01*
X-3807714Y-10088727D01*
X-3807561Y-10084511D01*
X-3807968Y-10077399D01*
X-3809187Y-10070744D01*
X-3811117Y-10064648D01*
X-3813759Y-10059060D01*
X-3817061Y-10054031D01*
X-3820972Y-10049611D01*
X-3825443Y-10045801D01*
X-3830421Y-10042601D01*
X-3835857Y-10040112D01*
X-3841699Y-10038283D01*
X-3847947Y-10037165D01*
G37*
G36*
X-4720691Y-10037064D02*
G01*
X-4759045Y-10050475D01*
X-4759045Y-10058146D01*
X-4738725Y-10059924D01*
X-4738166Y-10075367D01*
X-4737963Y-10093198D01*
X-4738116Y-10126980D01*
X-4738471Y-10148519D01*
X-4757775Y-10151059D01*
X-4757775Y-10158933D01*
X-4700117Y-10158933D01*
X-4700117Y-10151059D01*
X-4717135Y-10148519D01*
X-4717491Y-10126980D01*
X-4717643Y-10072827D01*
X-4717135Y-10039299D01*
G37*
G36*
X-7291425Y-9733483D02*
G01*
X-7297470Y-9733686D01*
X-7303363Y-9734245D01*
X-7309053Y-9735159D01*
X-7314641Y-9736429D01*
X-7320025Y-9738055D01*
X-7325258Y-9739985D01*
X-7330287Y-9742271D01*
X-7335113Y-9744811D01*
X-7339685Y-9747707D01*
X-7344105Y-9750907D01*
X-7348220Y-9754362D01*
X-7352131Y-9758070D01*
X-7355789Y-9762083D01*
X-7359142Y-9766350D01*
X-7362291Y-9770872D01*
X-7365085Y-9775596D01*
X-7367625Y-9780574D01*
X-7369860Y-9785807D01*
X-7371791Y-9791192D01*
X-7373366Y-9796830D01*
X-7374636Y-9802622D01*
X-7375499Y-9808616D01*
X-7376058Y-9814814D01*
X-7376261Y-9821164D01*
X-7376058Y-9827564D01*
X-7375550Y-9833813D01*
X-7374686Y-9839858D01*
X-7373467Y-9845700D01*
X-7371943Y-9851339D01*
X-7370064Y-9856774D01*
X-7367930Y-9861956D01*
X-7365441Y-9866934D01*
X-7362698Y-9871659D01*
X-7359650Y-9876129D01*
X-7356297Y-9880396D01*
X-7352690Y-9884359D01*
X-7348829Y-9888067D01*
X-7344714Y-9891471D01*
X-7340346Y-9894620D01*
X-7335774Y-9897414D01*
X-7330948Y-9899954D01*
X-7325918Y-9902190D01*
X-7320635Y-9904069D01*
X-7315149Y-9905644D01*
X-7309510Y-9906914D01*
X-7303668Y-9907778D01*
X-7297623Y-9908336D01*
X-7291425Y-9908540D01*
X-7284720Y-9908336D01*
X-7278166Y-9907828D01*
X-7271715Y-9906965D01*
X-7265416Y-9905695D01*
X-7259218Y-9904018D01*
X-7253122Y-9901986D01*
X-7247077Y-9899497D01*
X-7241133Y-9896551D01*
X-7240879Y-9859772D01*
X-7254595Y-9859772D01*
X-7260691Y-9891522D01*
X-7267905Y-9894366D01*
X-7275118Y-9896246D01*
X-7282281Y-9897262D01*
X-7289393Y-9897567D01*
X-7294727Y-9897414D01*
X-7299858Y-9896805D01*
X-7304836Y-9895840D01*
X-7309612Y-9894468D01*
X-7314184Y-9892690D01*
X-7318502Y-9890556D01*
X-7322616Y-9888016D01*
X-7326528Y-9885070D01*
X-7330135Y-9881819D01*
X-7333538Y-9878110D01*
X-7336637Y-9874097D01*
X-7339431Y-9869678D01*
X-7341971Y-9864902D01*
X-7344206Y-9859721D01*
X-7346137Y-9854184D01*
X-7347712Y-9848291D01*
X-7348981Y-9842042D01*
X-7349845Y-9835438D01*
X-7350404Y-9828479D01*
X-7350607Y-9821164D01*
X-7350404Y-9813848D01*
X-7349794Y-9806889D01*
X-7348829Y-9800285D01*
X-7347458Y-9794036D01*
X-7345781Y-9788144D01*
X-7343749Y-9782606D01*
X-7341412Y-9777425D01*
X-7338720Y-9772650D01*
X-7335774Y-9768179D01*
X-7332573Y-9764115D01*
X-7329119Y-9760407D01*
X-7325359Y-9757105D01*
X-7321397Y-9754158D01*
X-7317231Y-9751568D01*
X-7312863Y-9749434D01*
X-7308342Y-9747605D01*
X-7303617Y-9746234D01*
X-7298740Y-9745218D01*
X-7293762Y-9744608D01*
X-7288631Y-9744456D01*
X-7282180Y-9744760D01*
X-7275779Y-9745878D01*
X-7269429Y-9747859D01*
X-7262977Y-9750806D01*
X-7256881Y-9782556D01*
X-7243165Y-9782556D01*
X-7243419Y-9745980D01*
X-7249617Y-9742627D01*
X-7255865Y-9739934D01*
X-7262063Y-9737750D01*
X-7268159Y-9736124D01*
X-7274204Y-9734905D01*
X-7280148Y-9734092D01*
X-7285888Y-9733635D01*
G37*
G36*
X-7141565Y-9733483D02*
G01*
X-7146493Y-9733686D01*
X-7151370Y-9734194D01*
X-7156145Y-9735007D01*
X-7160920Y-9736175D01*
X-7165594Y-9737699D01*
X-7170166Y-9739477D01*
X-7174636Y-9741611D01*
X-7178954Y-9744049D01*
X-7183120Y-9746792D01*
X-7187184Y-9749790D01*
X-7191044Y-9753142D01*
X-7194702Y-9756749D01*
X-7198156Y-9760661D01*
X-7201357Y-9764826D01*
X-7204405Y-9769297D01*
X-7207148Y-9774021D01*
X-7209637Y-9779050D01*
X-7211822Y-9784283D01*
X-7213752Y-9789820D01*
X-7215327Y-9795611D01*
X-7216597Y-9801606D01*
X-7217511Y-9807905D01*
X-7218070Y-9814407D01*
X-7218273Y-9821164D01*
X-7192365Y-9821164D01*
X-7192264Y-9815271D01*
X-7191908Y-9809429D01*
X-7191298Y-9803688D01*
X-7189368Y-9792563D01*
X-7186422Y-9782048D01*
X-7184593Y-9777120D01*
X-7182459Y-9772446D01*
X-7180122Y-9768027D01*
X-7177481Y-9763912D01*
X-7174585Y-9760102D01*
X-7171436Y-9756648D01*
X-7167981Y-9753549D01*
X-7164273Y-9750856D01*
X-7160310Y-9748621D01*
X-7156043Y-9746843D01*
X-7151522Y-9745522D01*
X-7146696Y-9744710D01*
X-7141565Y-9744456D01*
X-7136485Y-9744710D01*
X-7131710Y-9745522D01*
X-7127189Y-9746843D01*
X-7123023Y-9748621D01*
X-7119061Y-9750856D01*
X-7115403Y-9753549D01*
X-7112050Y-9756648D01*
X-7108901Y-9760102D01*
X-7106056Y-9763912D01*
X-7103516Y-9768027D01*
X-7101179Y-9772446D01*
X-7099096Y-9777120D01*
X-7097318Y-9782048D01*
X-7095744Y-9787229D01*
X-7093407Y-9798050D01*
X-7091984Y-9809429D01*
X-7091629Y-9815271D01*
X-7091629Y-9827006D01*
X-7091984Y-9832848D01*
X-7093407Y-9844227D01*
X-7095744Y-9855047D01*
X-7097318Y-9860229D01*
X-7099096Y-9865156D01*
X-7101179Y-9869830D01*
X-7103516Y-9874250D01*
X-7106056Y-9878364D01*
X-7108901Y-9882174D01*
X-7112050Y-9885629D01*
X-7115403Y-9888728D01*
X-7119061Y-9891420D01*
X-7123023Y-9893655D01*
X-7127189Y-9895433D01*
X-7131710Y-9896754D01*
X-7136485Y-9897567D01*
X-7141565Y-9897872D01*
X-7146696Y-9897567D01*
X-7151522Y-9896754D01*
X-7156043Y-9895433D01*
X-7160310Y-9893655D01*
X-7164273Y-9891420D01*
X-7167981Y-9888728D01*
X-7171436Y-9885629D01*
X-7174585Y-9882174D01*
X-7177481Y-9878364D01*
X-7180122Y-9874250D01*
X-7182459Y-9869830D01*
X-7184593Y-9865156D01*
X-7186422Y-9860229D01*
X-7189368Y-9849713D01*
X-7191298Y-9838588D01*
X-7191908Y-9832848D01*
X-7192365Y-9821164D01*
X-7218273Y-9821164D01*
X-7218070Y-9828123D01*
X-7217511Y-9834829D01*
X-7216597Y-9841230D01*
X-7215327Y-9847376D01*
X-7213752Y-9853218D01*
X-7211872Y-9858806D01*
X-7209688Y-9864090D01*
X-7207199Y-9869068D01*
X-7204456Y-9873792D01*
X-7201458Y-9878212D01*
X-7198207Y-9882327D01*
X-7194753Y-9886188D01*
X-7191146Y-9889693D01*
X-7187285Y-9892944D01*
X-7183272Y-9895890D01*
X-7179056Y-9898481D01*
X-7174738Y-9900818D01*
X-7170267Y-9902850D01*
X-7165695Y-9904577D01*
X-7161022Y-9906000D01*
X-7156246Y-9907117D01*
X-7151420Y-9907879D01*
X-7141565Y-9908540D01*
X-7136638Y-9908336D01*
X-7131812Y-9907828D01*
X-7126986Y-9907016D01*
X-7122261Y-9905847D01*
X-7117588Y-9904374D01*
X-7113066Y-9902596D01*
X-7108596Y-9900513D01*
X-7104329Y-9898126D01*
X-7100163Y-9895382D01*
X-7096150Y-9892385D01*
X-7092340Y-9889083D01*
X-7088682Y-9885476D01*
X-7085279Y-9881616D01*
X-7082078Y-9877450D01*
X-7079081Y-9873030D01*
X-7076389Y-9868306D01*
X-7073900Y-9863277D01*
X-7071715Y-9858044D01*
X-7069836Y-9852507D01*
X-7068261Y-9846767D01*
X-7067042Y-9840722D01*
X-7066127Y-9834422D01*
X-7065568Y-9827920D01*
X-7065365Y-9821164D01*
X-7065568Y-9814204D01*
X-7066127Y-9807498D01*
X-7067042Y-9801098D01*
X-7068312Y-9795002D01*
X-7069886Y-9789109D01*
X-7071817Y-9783572D01*
X-7074001Y-9778238D01*
X-7076490Y-9773259D01*
X-7079234Y-9768535D01*
X-7082231Y-9764064D01*
X-7085431Y-9759950D01*
X-7088886Y-9756089D01*
X-7092543Y-9752533D01*
X-7096353Y-9749282D01*
X-7100366Y-9746284D01*
X-7104532Y-9743643D01*
X-7108850Y-9741306D01*
X-7113270Y-9739223D01*
X-7117791Y-9737496D01*
X-7122414Y-9736074D01*
X-7127138Y-9734956D01*
X-7131913Y-9734143D01*
G37*
G36*
X-5557875Y-9733483D02*
G01*
X-5564073Y-9733686D01*
X-5570118Y-9734245D01*
X-5575960Y-9735210D01*
X-5581650Y-9736480D01*
X-5587136Y-9738106D01*
X-5592419Y-9740036D01*
X-5597499Y-9742322D01*
X-5602376Y-9744964D01*
X-5606999Y-9747859D01*
X-5611368Y-9751060D01*
X-5615533Y-9754514D01*
X-5619394Y-9758273D01*
X-5623052Y-9762286D01*
X-5626404Y-9766554D01*
X-5629452Y-9771075D01*
X-5632246Y-9775850D01*
X-5634786Y-9780828D01*
X-5636971Y-9786010D01*
X-5638850Y-9791395D01*
X-5640374Y-9797034D01*
X-5641594Y-9802774D01*
X-5642508Y-9808718D01*
X-5643016Y-9814864D01*
X-5643219Y-9821164D01*
X-5643067Y-9827463D01*
X-5642508Y-9833559D01*
X-5641644Y-9839553D01*
X-5640425Y-9845344D01*
X-5638901Y-9850932D01*
X-5637072Y-9856317D01*
X-5634939Y-9861499D01*
X-5632450Y-9866477D01*
X-5629706Y-9871202D01*
X-5626658Y-9875723D01*
X-5623356Y-9879990D01*
X-5619800Y-9883952D01*
X-5615940Y-9887712D01*
X-5611825Y-9891166D01*
X-5607507Y-9894316D01*
X-5602935Y-9897211D01*
X-5598109Y-9899802D01*
X-5593080Y-9902037D01*
X-5587796Y-9903968D01*
X-5582361Y-9905593D01*
X-5576722Y-9906863D01*
X-5570880Y-9907778D01*
X-5564835Y-9908336D01*
X-5558637Y-9908540D01*
X-5551119Y-9908286D01*
X-5543905Y-9907524D01*
X-5536946Y-9906355D01*
X-5530189Y-9904730D01*
X-5523585Y-9902647D01*
X-5517083Y-9900158D01*
X-5510580Y-9897262D01*
X-5504027Y-9894011D01*
X-5503875Y-9858654D01*
X-5503519Y-9835388D01*
X-5488279Y-9833864D01*
X-5488279Y-9825177D01*
X-5553557Y-9825177D01*
X-5553557Y-9833864D01*
X-5526887Y-9835896D01*
X-5526633Y-9892538D01*
X-5533440Y-9894824D01*
X-5540298Y-9896398D01*
X-5547309Y-9897313D01*
X-5554573Y-9897567D01*
X-5560212Y-9897364D01*
X-5565648Y-9896754D01*
X-5570829Y-9895687D01*
X-5575808Y-9894265D01*
X-5580532Y-9892385D01*
X-5585053Y-9890150D01*
X-5589270Y-9887508D01*
X-5593232Y-9884511D01*
X-5596940Y-9881108D01*
X-5600344Y-9877348D01*
X-5603443Y-9873234D01*
X-5606288Y-9868763D01*
X-5608777Y-9863988D01*
X-5611012Y-9858806D01*
X-5612892Y-9853320D01*
X-5614466Y-9847529D01*
X-5615686Y-9841382D01*
X-5616600Y-9834930D01*
X-5617108Y-9828174D01*
X-5617311Y-9821164D01*
X-5617108Y-9814001D01*
X-5616549Y-9807143D01*
X-5615584Y-9800640D01*
X-5614314Y-9794443D01*
X-5612688Y-9788601D01*
X-5610707Y-9783064D01*
X-5608421Y-9777882D01*
X-5605830Y-9773056D01*
X-5602935Y-9768586D01*
X-5599734Y-9764522D01*
X-5596331Y-9760762D01*
X-5592622Y-9757410D01*
X-5588660Y-9754412D01*
X-5584494Y-9751771D01*
X-5580126Y-9749536D01*
X-5575554Y-9747707D01*
X-5570728Y-9746284D01*
X-5565749Y-9745268D01*
X-5560618Y-9744659D01*
X-5555335Y-9744456D01*
X-5547766Y-9744862D01*
X-5540552Y-9746234D01*
X-5533644Y-9748520D01*
X-5526887Y-9751822D01*
X-5520791Y-9782759D01*
X-5507329Y-9782759D01*
X-5507837Y-9745980D01*
X-5513070Y-9742932D01*
X-5518454Y-9740341D01*
X-5524144Y-9738207D01*
X-5530088Y-9736480D01*
X-5536387Y-9735159D01*
X-5543092Y-9734245D01*
X-5550255Y-9733686D01*
G37*
G36*
X-4377283Y-9733483D02*
G01*
X-4383481Y-9733686D01*
X-4389526Y-9734245D01*
X-4395368Y-9735210D01*
X-4401058Y-9736480D01*
X-4406544Y-9738106D01*
X-4411827Y-9740036D01*
X-4416907Y-9742322D01*
X-4421784Y-9744964D01*
X-4426407Y-9747859D01*
X-4430776Y-9751060D01*
X-4434941Y-9754514D01*
X-4438802Y-9758273D01*
X-4442460Y-9762286D01*
X-4445812Y-9766554D01*
X-4448860Y-9771075D01*
X-4451654Y-9775850D01*
X-4454194Y-9780828D01*
X-4456379Y-9786010D01*
X-4458258Y-9791395D01*
X-4459782Y-9797034D01*
X-4461002Y-9802774D01*
X-4461916Y-9808718D01*
X-4462424Y-9814864D01*
X-4462627Y-9821164D01*
X-4462475Y-9827463D01*
X-4461916Y-9833559D01*
X-4461052Y-9839553D01*
X-4459833Y-9845344D01*
X-4458309Y-9850932D01*
X-4456480Y-9856317D01*
X-4454347Y-9861499D01*
X-4451858Y-9866477D01*
X-4449114Y-9871202D01*
X-4446066Y-9875723D01*
X-4442764Y-9879990D01*
X-4439208Y-9883952D01*
X-4435348Y-9887712D01*
X-4431233Y-9891166D01*
X-4426915Y-9894316D01*
X-4422343Y-9897211D01*
X-4417517Y-9899802D01*
X-4412488Y-9902037D01*
X-4407204Y-9903968D01*
X-4401769Y-9905593D01*
X-4396130Y-9906863D01*
X-4390288Y-9907778D01*
X-4384243Y-9908336D01*
X-4378045Y-9908540D01*
X-4370578Y-9908286D01*
X-4363415Y-9907524D01*
X-4356455Y-9906355D01*
X-4349750Y-9904730D01*
X-4343146Y-9902647D01*
X-4336592Y-9900158D01*
X-4330141Y-9897262D01*
X-4323689Y-9894011D01*
X-4323384Y-9852710D01*
X-4322927Y-9835388D01*
X-4307941Y-9833864D01*
X-4307941Y-9825177D01*
X-4372965Y-9825177D01*
X-4372965Y-9833864D01*
X-4346549Y-9835896D01*
X-4346194Y-9859264D01*
X-4346041Y-9892538D01*
X-4353001Y-9894824D01*
X-4359859Y-9896398D01*
X-4366869Y-9897313D01*
X-4374235Y-9897567D01*
X-4379874Y-9897364D01*
X-4385310Y-9896754D01*
X-4390491Y-9895687D01*
X-4395470Y-9894265D01*
X-4400194Y-9892385D01*
X-4404664Y-9890150D01*
X-4408830Y-9887508D01*
X-4412792Y-9884511D01*
X-4416450Y-9881108D01*
X-4419854Y-9877348D01*
X-4422952Y-9873234D01*
X-4425746Y-9868763D01*
X-4428286Y-9863988D01*
X-4430471Y-9858806D01*
X-4432350Y-9853320D01*
X-4433925Y-9847529D01*
X-4435144Y-9841382D01*
X-4436008Y-9834930D01*
X-4436516Y-9828174D01*
X-4436719Y-9821164D01*
X-4436516Y-9814001D01*
X-4435957Y-9807143D01*
X-4435043Y-9800640D01*
X-4433722Y-9794443D01*
X-4432096Y-9788601D01*
X-4430166Y-9783064D01*
X-4427880Y-9777882D01*
X-4425289Y-9773056D01*
X-4422394Y-9768586D01*
X-4419244Y-9764522D01*
X-4415840Y-9760762D01*
X-4412132Y-9757410D01*
X-4408220Y-9754412D01*
X-4404055Y-9751771D01*
X-4399635Y-9749536D01*
X-4395063Y-9747707D01*
X-4390237Y-9746284D01*
X-4385259Y-9745268D01*
X-4380077Y-9744659D01*
X-4374743Y-9744456D01*
X-4367174Y-9744862D01*
X-4359960Y-9746234D01*
X-4353153Y-9748520D01*
X-4346549Y-9751822D01*
X-4340199Y-9782759D01*
X-4326737Y-9782759D01*
X-4327245Y-9745980D01*
X-4332478Y-9742932D01*
X-4337862Y-9740341D01*
X-4343552Y-9738207D01*
X-4349496Y-9736480D01*
X-4355795Y-9735159D01*
X-4362500Y-9734245D01*
X-4369663Y-9733686D01*
G37*
G36*
X-2589123Y-9733483D02*
G01*
X-2595168Y-9733686D01*
X-2601061Y-9734245D01*
X-2606751Y-9735159D01*
X-2612339Y-9736429D01*
X-2617724Y-9738055D01*
X-2622956Y-9739985D01*
X-2627985Y-9742271D01*
X-2632811Y-9744811D01*
X-2637383Y-9747707D01*
X-2641803Y-9750907D01*
X-2645918Y-9754362D01*
X-2649829Y-9758070D01*
X-2653487Y-9762083D01*
X-2656840Y-9766350D01*
X-2659989Y-9770872D01*
X-2662783Y-9775596D01*
X-2665323Y-9780574D01*
X-2667558Y-9785807D01*
X-2669489Y-9791192D01*
X-2671064Y-9796830D01*
X-2672334Y-9802622D01*
X-2673197Y-9808616D01*
X-2673756Y-9814814D01*
X-2673959Y-9821164D01*
X-2673756Y-9827564D01*
X-2673248Y-9833813D01*
X-2672384Y-9839858D01*
X-2671165Y-9845700D01*
X-2669641Y-9851339D01*
X-2667762Y-9856774D01*
X-2665628Y-9861956D01*
X-2663139Y-9866934D01*
X-2660396Y-9871659D01*
X-2657348Y-9876129D01*
X-2653995Y-9880396D01*
X-2650388Y-9884359D01*
X-2646527Y-9888067D01*
X-2642412Y-9891471D01*
X-2638044Y-9894620D01*
X-2633472Y-9897414D01*
X-2628646Y-9899954D01*
X-2623616Y-9902190D01*
X-2618333Y-9904069D01*
X-2612847Y-9905644D01*
X-2607208Y-9906914D01*
X-2601366Y-9907778D01*
X-2595321Y-9908336D01*
X-2589123Y-9908540D01*
X-2582418Y-9908336D01*
X-2575864Y-9907828D01*
X-2569413Y-9906965D01*
X-2563114Y-9905695D01*
X-2556916Y-9904018D01*
X-2550820Y-9901986D01*
X-2544775Y-9899497D01*
X-2538831Y-9896551D01*
X-2538577Y-9859772D01*
X-2552293Y-9859772D01*
X-2558389Y-9891522D01*
X-2565603Y-9894366D01*
X-2572816Y-9896246D01*
X-2579979Y-9897262D01*
X-2587091Y-9897567D01*
X-2592425Y-9897414D01*
X-2597556Y-9896805D01*
X-2602534Y-9895840D01*
X-2607310Y-9894468D01*
X-2611882Y-9892690D01*
X-2616200Y-9890556D01*
X-2620314Y-9888016D01*
X-2624226Y-9885070D01*
X-2627833Y-9881819D01*
X-2631236Y-9878110D01*
X-2634335Y-9874097D01*
X-2637129Y-9869678D01*
X-2639669Y-9864902D01*
X-2641904Y-9859721D01*
X-2643835Y-9854184D01*
X-2645410Y-9848291D01*
X-2646680Y-9842042D01*
X-2647543Y-9835438D01*
X-2648102Y-9828479D01*
X-2648305Y-9821164D01*
X-2648102Y-9813848D01*
X-2647492Y-9806889D01*
X-2646527Y-9800285D01*
X-2645156Y-9794036D01*
X-2643479Y-9788144D01*
X-2641447Y-9782606D01*
X-2639110Y-9777425D01*
X-2636418Y-9772650D01*
X-2633472Y-9768179D01*
X-2630271Y-9764115D01*
X-2626817Y-9760407D01*
X-2623058Y-9757105D01*
X-2619095Y-9754158D01*
X-2614930Y-9751568D01*
X-2610612Y-9749434D01*
X-2606040Y-9747605D01*
X-2601315Y-9746234D01*
X-2596438Y-9745218D01*
X-2591460Y-9744608D01*
X-2586329Y-9744456D01*
X-2579878Y-9744760D01*
X-2573528Y-9745878D01*
X-2567127Y-9747859D01*
X-2560675Y-9750806D01*
X-2554579Y-9782556D01*
X-2540863Y-9782556D01*
X-2541117Y-9745980D01*
X-2547315Y-9742627D01*
X-2553563Y-9739934D01*
X-2559761Y-9737750D01*
X-2565908Y-9736124D01*
X-2571902Y-9734905D01*
X-2577846Y-9734092D01*
X-2583586Y-9733635D01*
G37*
G36*
X-3207105Y-9733991D02*
G01*
X-3219958Y-9736124D01*
X-3226054Y-9737598D01*
X-3231946Y-9739325D01*
X-3237636Y-9741255D01*
X-3243122Y-9743440D01*
X-3248355Y-9745878D01*
X-3253333Y-9748520D01*
X-3258108Y-9751364D01*
X-3262680Y-9754412D01*
X-3271113Y-9761169D01*
X-3274974Y-9764826D01*
X-3281984Y-9772599D01*
X-3288080Y-9781082D01*
X-3290722Y-9785502D01*
X-3293160Y-9790125D01*
X-3295345Y-9794849D01*
X-3297275Y-9799675D01*
X-3298951Y-9804603D01*
X-3300374Y-9809683D01*
X-3301542Y-9814864D01*
X-3302457Y-9820097D01*
X-3303117Y-9825482D01*
X-3303533Y-9833051D01*
X-3281781Y-9833051D01*
X-3281781Y-9828225D01*
X-3274060Y-9822586D01*
X-3265932Y-9818827D01*
X-3257651Y-9816693D01*
X-3249523Y-9816033D01*
X-3243072Y-9816642D01*
X-3237280Y-9818420D01*
X-3232200Y-9821468D01*
X-3227882Y-9825786D01*
X-3224428Y-9831374D01*
X-3221888Y-9838334D01*
X-3220364Y-9846665D01*
X-3219805Y-9856419D01*
X-3220059Y-9863175D01*
X-3220770Y-9869373D01*
X-3221888Y-9874910D01*
X-3223463Y-9879888D01*
X-3225444Y-9884308D01*
X-3227832Y-9888118D01*
X-3230524Y-9891318D01*
X-3233572Y-9893960D01*
X-3236976Y-9895992D01*
X-3240633Y-9897465D01*
X-3244545Y-9898329D01*
X-3248761Y-9898583D01*
X-3252520Y-9898329D01*
X-3256076Y-9897567D01*
X-3259429Y-9896297D01*
X-3262579Y-9894468D01*
X-3265525Y-9892182D01*
X-3268268Y-9889337D01*
X-3270758Y-9885984D01*
X-3272993Y-9882124D01*
X-3274974Y-9877755D01*
X-3276752Y-9872878D01*
X-3278276Y-9867544D01*
X-3279495Y-9861651D01*
X-3280511Y-9855250D01*
X-3281222Y-9848342D01*
X-3281629Y-9840976D01*
X-3281781Y-9833051D01*
X-3303533Y-9833051D01*
X-3303625Y-9836353D01*
X-3303371Y-9844582D01*
X-3302660Y-9852355D01*
X-3301492Y-9859721D01*
X-3299866Y-9866579D01*
X-3297783Y-9872980D01*
X-3295294Y-9878872D01*
X-3292348Y-9884308D01*
X-3289046Y-9889185D01*
X-3285337Y-9893554D01*
X-3281273Y-9897364D01*
X-3276803Y-9900666D01*
X-3272028Y-9903358D01*
X-3266897Y-9905492D01*
X-3261410Y-9907016D01*
X-3255619Y-9907930D01*
X-3249523Y-9908235D01*
X-3243986Y-9908032D01*
X-3238652Y-9907320D01*
X-3233572Y-9906152D01*
X-3228746Y-9904526D01*
X-3224225Y-9902494D01*
X-3220008Y-9900005D01*
X-3216097Y-9897059D01*
X-3212541Y-9893706D01*
X-3209340Y-9889947D01*
X-3206496Y-9885832D01*
X-3204006Y-9881260D01*
X-3201974Y-9876332D01*
X-3200349Y-9870998D01*
X-3199180Y-9865309D01*
X-3198469Y-9859264D01*
X-3198215Y-9852914D01*
X-3198571Y-9845446D01*
X-3199688Y-9838486D01*
X-3201517Y-9832086D01*
X-3203956Y-9826193D01*
X-3207054Y-9820910D01*
X-3210763Y-9816236D01*
X-3215030Y-9812172D01*
X-3219805Y-9808819D01*
X-3225088Y-9806127D01*
X-3230880Y-9804196D01*
X-3237077Y-9802977D01*
X-3243681Y-9802622D01*
X-3248761Y-9802876D01*
X-3253790Y-9803638D01*
X-3258718Y-9804958D01*
X-3263493Y-9806736D01*
X-3268116Y-9809073D01*
X-3272637Y-9811918D01*
X-3276904Y-9815271D01*
X-3281019Y-9819132D01*
X-3280206Y-9813086D01*
X-3279140Y-9807295D01*
X-3277768Y-9801707D01*
X-3276142Y-9796322D01*
X-3274161Y-9791141D01*
X-3271875Y-9786213D01*
X-3269335Y-9781540D01*
X-3266440Y-9777018D01*
X-3263239Y-9772751D01*
X-3259734Y-9768738D01*
X-3255873Y-9764877D01*
X-3251708Y-9761321D01*
X-3247186Y-9757918D01*
X-3242310Y-9754768D01*
X-3237128Y-9751872D01*
X-3231591Y-9749129D01*
X-3225698Y-9746691D01*
X-3219450Y-9744405D01*
X-3212795Y-9742424D01*
X-3205835Y-9740646D01*
G37*
G36*
X-3000349Y-9733991D02*
G01*
X-3006039Y-9734245D01*
X-3011525Y-9734905D01*
X-3016758Y-9735972D01*
X-3021736Y-9737547D01*
X-3026359Y-9739528D01*
X-3030677Y-9741966D01*
X-3034588Y-9744862D01*
X-3038094Y-9748215D01*
X-3041091Y-9752025D01*
X-3043631Y-9756292D01*
X-3045663Y-9761067D01*
X-3047085Y-9766249D01*
X-3045053Y-9770313D01*
X-3042361Y-9772954D01*
X-3039160Y-9774478D01*
X-3035401Y-9774885D01*
X-3030270Y-9773970D01*
X-3026410Y-9771176D01*
X-3023463Y-9766452D01*
X-3021177Y-9759696D01*
X-3017113Y-9745167D01*
X-3013760Y-9744456D01*
X-3007766Y-9743948D01*
X-3005175Y-9743948D01*
X-2998165Y-9744456D01*
X-2991916Y-9746030D01*
X-2986582Y-9748621D01*
X-2982112Y-9752228D01*
X-2978607Y-9756749D01*
X-2976016Y-9762236D01*
X-2974441Y-9768636D01*
X-2973933Y-9775901D01*
X-2974238Y-9781387D01*
X-2975102Y-9786366D01*
X-2976524Y-9790938D01*
X-2978454Y-9795052D01*
X-2980893Y-9798710D01*
X-2983839Y-9801910D01*
X-2987243Y-9804654D01*
X-2991104Y-9806940D01*
X-2995371Y-9808667D01*
X-3000044Y-9809937D01*
X-3005074Y-9810699D01*
X-3010509Y-9810953D01*
X-3020415Y-9810953D01*
X-3020415Y-9822180D01*
X-3008477Y-9822180D01*
X-3002280Y-9822434D01*
X-2996590Y-9823348D01*
X-2991459Y-9824821D01*
X-2986887Y-9826853D01*
X-2982823Y-9829393D01*
X-2979318Y-9832441D01*
X-2976372Y-9835997D01*
X-2973933Y-9840010D01*
X-2972054Y-9844430D01*
X-2970682Y-9849307D01*
X-2969869Y-9854590D01*
X-2969615Y-9860280D01*
X-2969920Y-9865766D01*
X-2970733Y-9870948D01*
X-2972155Y-9875774D01*
X-2974086Y-9880244D01*
X-2976524Y-9884308D01*
X-2979470Y-9887915D01*
X-2982976Y-9891064D01*
X-2986938Y-9893706D01*
X-2991358Y-9895789D01*
X-2996285Y-9897313D01*
X-3001670Y-9898278D01*
X-3007461Y-9898583D01*
X-3010916Y-9898532D01*
X-3017977Y-9897668D01*
X-3021685Y-9896856D01*
X-3025749Y-9881819D01*
X-3028086Y-9874453D01*
X-3030880Y-9869322D01*
X-3034538Y-9866325D01*
X-3039465Y-9865309D01*
X-3043224Y-9865817D01*
X-3046526Y-9867290D01*
X-3049320Y-9869830D01*
X-3051657Y-9873488D01*
X-3050235Y-9879228D01*
X-3048254Y-9884410D01*
X-3045714Y-9889083D01*
X-3042716Y-9893198D01*
X-3039211Y-9896805D01*
X-3035249Y-9899904D01*
X-3030931Y-9902494D01*
X-3026156Y-9904577D01*
X-3021025Y-9906203D01*
X-3015538Y-9907371D01*
X-3009747Y-9908032D01*
X-3003651Y-9908235D01*
X-2997555Y-9908032D01*
X-2991713Y-9907320D01*
X-2986125Y-9906203D01*
X-2980893Y-9904679D01*
X-2975965Y-9902698D01*
X-2971342Y-9900361D01*
X-2967126Y-9897719D01*
X-2963214Y-9894671D01*
X-2959760Y-9891318D01*
X-2956661Y-9887661D01*
X-2954020Y-9883749D01*
X-2951835Y-9879533D01*
X-2950057Y-9875113D01*
X-2948787Y-9870440D01*
X-2948025Y-9865563D01*
X-2947771Y-9860483D01*
X-2948025Y-9855047D01*
X-2948838Y-9849866D01*
X-2950210Y-9844938D01*
X-2952089Y-9840315D01*
X-2954578Y-9835997D01*
X-2957626Y-9832035D01*
X-2961233Y-9828479D01*
X-2965450Y-9825228D01*
X-2970276Y-9822434D01*
X-2975711Y-9820046D01*
X-2981756Y-9818065D01*
X-2988411Y-9816541D01*
X-2980334Y-9813544D01*
X-2973222Y-9809784D01*
X-2967126Y-9805365D01*
X-2962046Y-9800285D01*
X-2958084Y-9794697D01*
X-2955188Y-9788550D01*
X-2953461Y-9781946D01*
X-2952851Y-9774885D01*
X-2953207Y-9768992D01*
X-2954324Y-9763404D01*
X-2956153Y-9758222D01*
X-2958693Y-9753447D01*
X-2961843Y-9749180D01*
X-2965653Y-9745319D01*
X-2970072Y-9741966D01*
X-2975051Y-9739223D01*
X-2980588Y-9736988D01*
X-2986684Y-9735362D01*
X-2993288Y-9734346D01*
G37*
G36*
X-2705201Y-9733991D02*
G01*
X-2718054Y-9736124D01*
X-2724150Y-9737598D01*
X-2730042Y-9739325D01*
X-2735732Y-9741255D01*
X-2741218Y-9743440D01*
X-2746451Y-9745878D01*
X-2751429Y-9748520D01*
X-2756204Y-9751364D01*
X-2760776Y-9754412D01*
X-2769209Y-9761169D01*
X-2776728Y-9768636D01*
X-2780080Y-9772599D01*
X-2786176Y-9781082D01*
X-2788818Y-9785502D01*
X-2791256Y-9790125D01*
X-2793441Y-9794849D01*
X-2795371Y-9799675D01*
X-2797048Y-9804603D01*
X-2798470Y-9809683D01*
X-2799638Y-9814864D01*
X-2800553Y-9820097D01*
X-2801213Y-9825482D01*
X-2801629Y-9833051D01*
X-2779623Y-9833051D01*
X-2779623Y-9828225D01*
X-2771952Y-9822586D01*
X-2763875Y-9818827D01*
X-2755646Y-9816693D01*
X-2747365Y-9816033D01*
X-2740964Y-9816642D01*
X-2735224Y-9818420D01*
X-2730144Y-9821468D01*
X-2725826Y-9825786D01*
X-2722372Y-9831374D01*
X-2719781Y-9838334D01*
X-2718206Y-9846665D01*
X-2717647Y-9856419D01*
X-2717901Y-9863175D01*
X-2718612Y-9869373D01*
X-2719781Y-9874910D01*
X-2721406Y-9879888D01*
X-2723388Y-9884308D01*
X-2725775Y-9888118D01*
X-2728518Y-9891318D01*
X-2731617Y-9893960D01*
X-2735021Y-9895992D01*
X-2738678Y-9897465D01*
X-2742641Y-9898329D01*
X-2746857Y-9898583D01*
X-2750616Y-9898329D01*
X-2754172Y-9897567D01*
X-2757525Y-9896297D01*
X-2760675Y-9894468D01*
X-2763570Y-9892182D01*
X-2766263Y-9889337D01*
X-2768752Y-9885984D01*
X-2770936Y-9882124D01*
X-2772918Y-9877755D01*
X-2774696Y-9872878D01*
X-2776169Y-9867544D01*
X-2777388Y-9861651D01*
X-2778353Y-9855250D01*
X-2779064Y-9848342D01*
X-2779471Y-9840976D01*
X-2779623Y-9833051D01*
X-2801629Y-9833051D01*
X-2801721Y-9836353D01*
X-2801467Y-9844582D01*
X-2800756Y-9852355D01*
X-2799588Y-9859721D01*
X-2797962Y-9866579D01*
X-2795879Y-9872980D01*
X-2793339Y-9878872D01*
X-2790444Y-9884308D01*
X-2787142Y-9889185D01*
X-2783382Y-9893554D01*
X-2779318Y-9897364D01*
X-2774848Y-9900666D01*
X-2770022Y-9903358D01*
X-2764840Y-9905492D01*
X-2759303Y-9907016D01*
X-2753512Y-9907930D01*
X-2747365Y-9908235D01*
X-2741828Y-9908032D01*
X-2736494Y-9907320D01*
X-2731414Y-9906152D01*
X-2726639Y-9904526D01*
X-2722118Y-9902494D01*
X-2717952Y-9900005D01*
X-2714040Y-9897059D01*
X-2710484Y-9893706D01*
X-2707335Y-9889947D01*
X-2704490Y-9885832D01*
X-2702052Y-9881260D01*
X-2700020Y-9876332D01*
X-2698445Y-9870998D01*
X-2697276Y-9865309D01*
X-2696565Y-9859264D01*
X-2696311Y-9852914D01*
X-2696667Y-9845446D01*
X-2697784Y-9838486D01*
X-2699613Y-9832086D01*
X-2702052Y-9826193D01*
X-2705150Y-9820910D01*
X-2708859Y-9816236D01*
X-2713126Y-9812172D01*
X-2717901Y-9808819D01*
X-2723184Y-9806127D01*
X-2728976Y-9804196D01*
X-2735173Y-9802977D01*
X-2741777Y-9802622D01*
X-2746857Y-9802876D01*
X-2751886Y-9803638D01*
X-2756814Y-9804958D01*
X-2761538Y-9806736D01*
X-2766161Y-9809073D01*
X-2770581Y-9811918D01*
X-2774848Y-9815271D01*
X-2778861Y-9819132D01*
X-2778048Y-9813086D01*
X-2776982Y-9807295D01*
X-2775610Y-9801707D01*
X-2773984Y-9796322D01*
X-2772003Y-9791141D01*
X-2769717Y-9786213D01*
X-2767177Y-9781540D01*
X-2764282Y-9777018D01*
X-2761081Y-9772751D01*
X-2757576Y-9768738D01*
X-2753715Y-9764877D01*
X-2749550Y-9761321D01*
X-2745028Y-9757918D01*
X-2740152Y-9754768D01*
X-2734970Y-9751872D01*
X-2729433Y-9749129D01*
X-2723540Y-9746691D01*
X-2717292Y-9744405D01*
X-2710637Y-9742424D01*
X-2703677Y-9740646D01*
G37*
G36*
X-3107283Y-9734753D02*
G01*
X-3179425Y-9838182D01*
X-3168751Y-9838182D01*
X-3113379Y-9758375D01*
X-3113379Y-9838182D01*
X-3179425Y-9838182D01*
X-3181197Y-9840722D01*
X-3181197Y-9852914D01*
X-3113379Y-9852914D01*
X-3113379Y-9904933D01*
X-3093313Y-9904933D01*
X-3093313Y-9852914D01*
X-3066897Y-9852914D01*
X-3066897Y-9838182D01*
X-3093313Y-9838182D01*
X-3093313Y-9734753D01*
G37*
G36*
X-2856331Y-9734753D02*
G01*
X-2928473Y-9838182D01*
X-2917799Y-9838182D01*
X-2862427Y-9758375D01*
X-2862427Y-9838182D01*
X-2928473Y-9838182D01*
X-2930245Y-9840722D01*
X-2930245Y-9852914D01*
X-2862427Y-9852914D01*
X-2862427Y-9904933D01*
X-2842361Y-9904933D01*
X-2842361Y-9852914D01*
X-2815691Y-9852914D01*
X-2815691Y-9838182D01*
X-2842361Y-9838182D01*
X-2842361Y-9734753D01*
G37*
G36*
X-7048347Y-9737293D02*
G01*
X-7048347Y-9745980D01*
X-7025487Y-9748774D01*
X-7025741Y-9893046D01*
X-7048347Y-9896348D01*
X-7048347Y-9904933D01*
X-6992213Y-9904933D01*
X-6992213Y-9896348D01*
X-7014057Y-9893046D01*
X-7014108Y-9812070D01*
X-7015327Y-9761474D01*
X-6956907Y-9904933D01*
X-6946239Y-9904933D01*
X-6889597Y-9760966D01*
X-6889902Y-9861042D01*
X-6890359Y-9893757D01*
X-6911949Y-9896348D01*
X-6911949Y-9904933D01*
X-6843877Y-9904933D01*
X-6843877Y-9896348D01*
X-6866991Y-9893757D01*
X-6867448Y-9860534D01*
X-6867296Y-9764979D01*
X-6866991Y-9748469D01*
X-6843623Y-9745980D01*
X-6843623Y-9737293D01*
X-6891883Y-9737293D01*
X-6946239Y-9876485D01*
X-7002627Y-9737293D01*
G37*
G36*
X-6821017Y-9737293D02*
G01*
X-6821017Y-9745980D01*
X-6797649Y-9748469D01*
X-6797395Y-9828022D01*
X-6774535Y-9828022D01*
X-6774332Y-9763912D01*
X-6774027Y-9747199D01*
X-6758025Y-9747199D01*
X-6750862Y-9747504D01*
X-6744411Y-9748418D01*
X-6738569Y-9749891D01*
X-6733438Y-9751923D01*
X-6728917Y-9754514D01*
X-6725056Y-9757664D01*
X-6721805Y-9761321D01*
X-6719214Y-9765487D01*
X-6717182Y-9770160D01*
X-6715709Y-9775342D01*
X-6714896Y-9780981D01*
X-6714591Y-9787077D01*
X-6714845Y-9792970D01*
X-6715658Y-9798507D01*
X-6717030Y-9803688D01*
X-6718960Y-9808413D01*
X-6721551Y-9812731D01*
X-6724751Y-9816592D01*
X-6728612Y-9819944D01*
X-6733133Y-9822738D01*
X-6738366Y-9825024D01*
X-6744360Y-9826650D01*
X-6751066Y-9827666D01*
X-6758533Y-9828022D01*
X-6797395Y-9828022D01*
X-6797649Y-9893757D01*
X-6821017Y-9896348D01*
X-6821017Y-9904933D01*
X-6750151Y-9904933D01*
X-6750151Y-9896348D01*
X-6774027Y-9893503D01*
X-6774484Y-9865512D01*
X-6774535Y-9837877D01*
X-6761073Y-9837877D01*
X-6751980Y-9837623D01*
X-6743598Y-9836861D01*
X-6735927Y-9835591D01*
X-6728917Y-9833864D01*
X-6722516Y-9831679D01*
X-6716775Y-9829139D01*
X-6711696Y-9826193D01*
X-6707174Y-9822891D01*
X-6703263Y-9819284D01*
X-6699910Y-9815322D01*
X-6697116Y-9811156D01*
X-6694830Y-9806736D01*
X-6693153Y-9802063D01*
X-6691934Y-9797237D01*
X-6691223Y-9792258D01*
X-6690969Y-9787077D01*
X-6691223Y-9781641D01*
X-6691934Y-9776409D01*
X-6693153Y-9771481D01*
X-6694881Y-9766808D01*
X-6697065Y-9762388D01*
X-6699758Y-9758273D01*
X-6702958Y-9754514D01*
X-6706666Y-9751060D01*
X-6710832Y-9747961D01*
X-6715506Y-9745218D01*
X-6720687Y-9742881D01*
X-6726326Y-9740900D01*
X-6732473Y-9739376D01*
X-6739128Y-9738258D01*
X-6746290Y-9737547D01*
X-6753961Y-9737293D01*
G37*
G36*
X-6679285Y-9737293D02*
G01*
X-6679285Y-9745980D01*
X-6658203Y-9748469D01*
X-6657949Y-9841230D01*
X-6657746Y-9848138D01*
X-6657238Y-9854692D01*
X-6656324Y-9860838D01*
X-6655104Y-9866528D01*
X-6653530Y-9871862D01*
X-6651650Y-9876790D01*
X-6649466Y-9881362D01*
X-6646976Y-9885527D01*
X-6644182Y-9889337D01*
X-6641084Y-9892792D01*
X-6637731Y-9895840D01*
X-6634124Y-9898583D01*
X-6630263Y-9900970D01*
X-6626199Y-9903002D01*
X-6621830Y-9904730D01*
X-6617258Y-9906101D01*
X-6612483Y-9907168D01*
X-6607505Y-9907930D01*
X-6602323Y-9908387D01*
X-6596989Y-9908540D01*
X-6591909Y-9908387D01*
X-6586931Y-9907879D01*
X-6582206Y-9907117D01*
X-6577634Y-9906000D01*
X-6573266Y-9904577D01*
X-6569100Y-9902799D01*
X-6565138Y-9900666D01*
X-6561429Y-9898176D01*
X-6557924Y-9895281D01*
X-6554673Y-9892080D01*
X-6551726Y-9888423D01*
X-6549034Y-9884410D01*
X-6546596Y-9879990D01*
X-6544462Y-9875164D01*
X-6542633Y-9869932D01*
X-6541109Y-9864242D01*
X-6539890Y-9858146D01*
X-6539026Y-9851593D01*
X-6538518Y-9844582D01*
X-6538315Y-9837166D01*
X-6538061Y-9748977D01*
X-6515709Y-9745980D01*
X-6515709Y-9737293D01*
X-6575653Y-9737293D01*
X-6575653Y-9745980D01*
X-6549237Y-9749485D01*
X-6548983Y-9831019D01*
X-6549135Y-9839147D01*
X-6549694Y-9846614D01*
X-6550558Y-9853422D01*
X-6551726Y-9859619D01*
X-6553301Y-9865207D01*
X-6555181Y-9870236D01*
X-6557416Y-9874707D01*
X-6560007Y-9878618D01*
X-6562902Y-9882022D01*
X-6566204Y-9884918D01*
X-6569811Y-9887305D01*
X-6573723Y-9889236D01*
X-6578041Y-9890709D01*
X-6582664Y-9891725D01*
X-6587642Y-9892334D01*
X-6592925Y-9892538D01*
X-6597650Y-9892334D01*
X-6602171Y-9891826D01*
X-6606438Y-9890963D01*
X-6610502Y-9889642D01*
X-6614261Y-9887966D01*
X-6617716Y-9885832D01*
X-6620916Y-9883190D01*
X-6623862Y-9880142D01*
X-6626453Y-9876536D01*
X-6628739Y-9872421D01*
X-6630720Y-9867747D01*
X-6632346Y-9862515D01*
X-6633667Y-9856673D01*
X-6634581Y-9850221D01*
X-6635140Y-9843109D01*
X-6635343Y-9835388D01*
X-6635140Y-9765131D01*
X-6634835Y-9748774D01*
X-6609435Y-9745980D01*
X-6609435Y-9737293D01*
G37*
G36*
X-6502247Y-9737293D02*
G01*
X-6504279Y-9782048D01*
X-6491579Y-9782048D01*
X-6484721Y-9748469D01*
X-6445351Y-9748469D01*
X-6445148Y-9781590D01*
X-6445148Y-9871760D01*
X-6445351Y-9893503D01*
X-6471259Y-9896348D01*
X-6471259Y-9904933D01*
X-6395821Y-9904933D01*
X-6395821Y-9896348D01*
X-6421729Y-9893503D01*
X-6422085Y-9871557D01*
X-6422237Y-9792716D01*
X-6421729Y-9748469D01*
X-6382359Y-9748469D01*
X-6375247Y-9782048D01*
X-6363309Y-9782048D01*
X-6364833Y-9737293D01*
G37*
G36*
X-6347053Y-9737293D02*
G01*
X-6347053Y-9745980D01*
X-6323685Y-9748469D01*
X-6323177Y-9792766D01*
X-6323279Y-9866325D01*
X-6323685Y-9893757D01*
X-6347053Y-9896348D01*
X-6347053Y-9904933D01*
X-6218021Y-9904933D01*
X-6216751Y-9860280D01*
X-6228943Y-9860280D01*
X-6235547Y-9894011D01*
X-6299809Y-9894011D01*
X-6300266Y-9860330D01*
X-6300317Y-9824669D01*
X-6262471Y-9824669D01*
X-6258915Y-9849053D01*
X-6248755Y-9849053D01*
X-6248755Y-9789922D01*
X-6258915Y-9789922D01*
X-6262725Y-9814814D01*
X-6300317Y-9814814D01*
X-6300216Y-9775647D01*
X-6299809Y-9748469D01*
X-6240373Y-9748469D01*
X-6233769Y-9781540D01*
X-6221577Y-9781540D01*
X-6222847Y-9737293D01*
G37*
G36*
X-6196177Y-9737293D02*
G01*
X-6196177Y-9745980D01*
X-6172809Y-9748469D01*
X-6172301Y-9792766D01*
X-6172301Y-9817049D01*
X-6149441Y-9817049D01*
X-6149340Y-9775088D01*
X-6148933Y-9747199D01*
X-6127343Y-9747199D01*
X-6121044Y-9747504D01*
X-6115354Y-9748266D01*
X-6110224Y-9749485D01*
X-6105652Y-9751263D01*
X-6101689Y-9753447D01*
X-6098286Y-9756140D01*
X-6095390Y-9759238D01*
X-6093053Y-9762744D01*
X-6091275Y-9766706D01*
X-6090005Y-9771075D01*
X-6089243Y-9775850D01*
X-6088989Y-9781032D01*
X-6089294Y-9786112D01*
X-6090107Y-9790887D01*
X-6091529Y-9795408D01*
X-6093460Y-9799624D01*
X-6096000Y-9803434D01*
X-6099048Y-9806838D01*
X-6102705Y-9809835D01*
X-6106871Y-9812375D01*
X-6111595Y-9814356D01*
X-6116878Y-9815830D01*
X-6122720Y-9816744D01*
X-6129121Y-9817049D01*
X-6172301Y-9817049D01*
X-6172403Y-9866325D01*
X-6172809Y-9893757D01*
X-6196177Y-9896348D01*
X-6196177Y-9904933D01*
X-6125565Y-9904933D01*
X-6125565Y-9896348D01*
X-6148933Y-9893503D01*
X-6149340Y-9866325D01*
X-6149441Y-9826701D01*
X-6136233Y-9826701D01*
X-6129020Y-9826955D01*
X-6122822Y-9827768D01*
X-6117640Y-9829241D01*
X-6113322Y-9831527D01*
X-6109716Y-9834829D01*
X-6106718Y-9839147D01*
X-6104280Y-9844735D01*
X-6102197Y-9851593D01*
X-6091783Y-9891522D01*
X-6088837Y-9898938D01*
X-6083960Y-9903866D01*
X-6076594Y-9906660D01*
X-6066383Y-9907524D01*
X-6060897Y-9907320D01*
X-6055918Y-9906812D01*
X-6051499Y-9906000D01*
X-6047587Y-9904933D01*
X-6047587Y-9896348D01*
X-6066891Y-9894519D01*
X-6078575Y-9855149D01*
X-6080912Y-9848392D01*
X-6083503Y-9842550D01*
X-6086449Y-9837572D01*
X-6089853Y-9833406D01*
X-6093663Y-9830003D01*
X-6098032Y-9827260D01*
X-6102959Y-9825177D01*
X-6108547Y-9823653D01*
X-6101689Y-9822180D01*
X-6095390Y-9820148D01*
X-6089751Y-9817709D01*
X-6084671Y-9814814D01*
X-6080201Y-9811562D01*
X-6076340Y-9808006D01*
X-6073038Y-9804095D01*
X-6070396Y-9799929D01*
X-6068314Y-9795510D01*
X-6066790Y-9790938D01*
X-6065926Y-9786162D01*
X-6065621Y-9781235D01*
X-6065875Y-9776206D01*
X-6066637Y-9771430D01*
X-6067958Y-9766909D01*
X-6069685Y-9762693D01*
X-6071971Y-9758781D01*
X-6074714Y-9755174D01*
X-6077864Y-9751872D01*
X-6081522Y-9748926D01*
X-6085636Y-9746234D01*
X-6090158Y-9743897D01*
X-6095085Y-9741916D01*
X-6100470Y-9740290D01*
X-6106210Y-9739020D01*
X-6112357Y-9738055D01*
X-6118910Y-9737496D01*
X-6125819Y-9737293D01*
G37*
G36*
X-5974435Y-9737293D02*
G01*
X-5974435Y-9745980D01*
X-5951067Y-9748469D01*
X-5950559Y-9792766D01*
X-5950661Y-9866325D01*
X-5951067Y-9893757D01*
X-5974435Y-9896348D01*
X-5974435Y-9904933D01*
X-5845403Y-9904933D01*
X-5844133Y-9860280D01*
X-5856325Y-9860280D01*
X-5862929Y-9894011D01*
X-5927191Y-9894011D01*
X-5927648Y-9860330D01*
X-5927699Y-9824669D01*
X-5889853Y-9824669D01*
X-5886297Y-9849053D01*
X-5876137Y-9849053D01*
X-5876137Y-9789922D01*
X-5886297Y-9789922D01*
X-5890107Y-9814814D01*
X-5927699Y-9814814D01*
X-5927598Y-9775647D01*
X-5927191Y-9748469D01*
X-5867755Y-9748469D01*
X-5861151Y-9781540D01*
X-5848959Y-9781540D01*
X-5850229Y-9737293D01*
G37*
G36*
X-5823813Y-9737293D02*
G01*
X-5823813Y-9745980D01*
X-5806033Y-9748469D01*
X-5803493Y-9751517D01*
X-5804001Y-9893249D01*
X-5825083Y-9896348D01*
X-5825083Y-9904933D01*
X-5765901Y-9904933D01*
X-5765901Y-9896348D01*
X-5792571Y-9892741D01*
X-5793079Y-9766249D01*
X-5690971Y-9906457D01*
X-5682081Y-9906457D01*
X-5681827Y-9748977D01*
X-5660745Y-9745980D01*
X-5660745Y-9737293D01*
X-5719927Y-9737293D01*
X-5719927Y-9745980D01*
X-5693257Y-9749282D01*
X-5692749Y-9865309D01*
X-5785205Y-9737293D01*
G37*
G36*
X-5475325Y-9737293D02*
G01*
X-5475325Y-9745980D01*
X-5451957Y-9748469D01*
X-5451449Y-9792766D01*
X-5451551Y-9866325D01*
X-5451957Y-9893757D01*
X-5475325Y-9896348D01*
X-5475325Y-9904933D01*
X-5404967Y-9904933D01*
X-5404967Y-9896348D01*
X-5428335Y-9893503D01*
X-5428538Y-9871557D01*
X-5428538Y-9781590D01*
X-5428335Y-9748469D01*
X-5404967Y-9745980D01*
X-5404967Y-9737293D01*
G37*
G36*
X-5382869Y-9737293D02*
G01*
X-5382869Y-9745980D01*
X-5365089Y-9748469D01*
X-5362549Y-9751517D01*
X-5363057Y-9893249D01*
X-5384139Y-9896348D01*
X-5384139Y-9904933D01*
X-5324957Y-9904933D01*
X-5324957Y-9896348D01*
X-5351627Y-9892741D01*
X-5352135Y-9766249D01*
X-5250027Y-9906457D01*
X-5240883Y-9906457D01*
X-5240883Y-9748977D01*
X-5219801Y-9745980D01*
X-5219801Y-9737293D01*
X-5278983Y-9737293D01*
X-5278983Y-9745980D01*
X-5252313Y-9749282D01*
X-5251805Y-9865309D01*
X-5344261Y-9737293D01*
G37*
G36*
X-5200751Y-9737293D02*
G01*
X-5200751Y-9745980D01*
X-5177383Y-9748469D01*
X-5176875Y-9792766D01*
X-5176977Y-9866325D01*
X-5177383Y-9893757D01*
X-5200751Y-9896348D01*
X-5200751Y-9904933D01*
X-5071719Y-9904933D01*
X-5070449Y-9860280D01*
X-5082895Y-9860280D01*
X-5089499Y-9894011D01*
X-5153761Y-9894011D01*
X-5154015Y-9824669D01*
X-5116169Y-9824669D01*
X-5112867Y-9849053D01*
X-5102453Y-9849053D01*
X-5102453Y-9789922D01*
X-5112867Y-9789922D01*
X-5116423Y-9814814D01*
X-5154015Y-9814814D01*
X-5153761Y-9748469D01*
X-5094325Y-9748469D01*
X-5087721Y-9781540D01*
X-5075275Y-9781540D01*
X-5076545Y-9737293D01*
G37*
G36*
X-5049875Y-9737293D02*
G01*
X-5049875Y-9745980D01*
X-5026507Y-9748469D01*
X-5025999Y-9792766D01*
X-5026101Y-9866325D01*
X-5026507Y-9893757D01*
X-5049875Y-9896348D01*
X-5049875Y-9904933D01*
X-4920843Y-9904933D01*
X-4919573Y-9860280D01*
X-4932019Y-9860280D01*
X-4938623Y-9894011D01*
X-5002885Y-9894011D01*
X-5003139Y-9824669D01*
X-4965293Y-9824669D01*
X-4961991Y-9849053D01*
X-4951577Y-9849053D01*
X-4951577Y-9789922D01*
X-4961991Y-9789922D01*
X-4965547Y-9814814D01*
X-5003139Y-9814814D01*
X-5002885Y-9748469D01*
X-4943449Y-9748469D01*
X-4936845Y-9781540D01*
X-4924399Y-9781540D01*
X-4925669Y-9737293D01*
G37*
G36*
X-4898999Y-9737293D02*
G01*
X-4898999Y-9745980D01*
X-4875631Y-9748469D01*
X-4875123Y-9792766D01*
X-4875123Y-9817049D01*
X-4852263Y-9817049D01*
X-4852009Y-9747199D01*
X-4830165Y-9747199D01*
X-4823917Y-9747504D01*
X-4818278Y-9748266D01*
X-4813198Y-9749485D01*
X-4808677Y-9751263D01*
X-4804714Y-9753447D01*
X-4801311Y-9756140D01*
X-4798466Y-9759238D01*
X-4796129Y-9762744D01*
X-4794351Y-9766706D01*
X-4793081Y-9771075D01*
X-4792319Y-9775850D01*
X-4792065Y-9781032D01*
X-4792319Y-9786112D01*
X-4793183Y-9790887D01*
X-4794554Y-9795408D01*
X-4796485Y-9799624D01*
X-4798974Y-9803434D01*
X-4802022Y-9806838D01*
X-4805578Y-9809835D01*
X-4809744Y-9812375D01*
X-4814468Y-9814356D01*
X-4819751Y-9815830D01*
X-4825542Y-9816744D01*
X-4831943Y-9817049D01*
X-4875123Y-9817049D01*
X-4875225Y-9866325D01*
X-4875631Y-9893757D01*
X-4898999Y-9896348D01*
X-4898999Y-9904933D01*
X-4828641Y-9904933D01*
X-4828641Y-9896348D01*
X-4852009Y-9893503D01*
X-4852263Y-9826701D01*
X-4839055Y-9826701D01*
X-4831842Y-9826955D01*
X-4825644Y-9827768D01*
X-4820462Y-9829241D01*
X-4816144Y-9831527D01*
X-4812538Y-9834829D01*
X-4809540Y-9839147D01*
X-4807102Y-9844735D01*
X-4805019Y-9851593D01*
X-4794859Y-9891522D01*
X-4791913Y-9898938D01*
X-4786934Y-9903866D01*
X-4779568Y-9906660D01*
X-4769459Y-9907524D01*
X-4763820Y-9907320D01*
X-4758791Y-9906812D01*
X-4754321Y-9906000D01*
X-4750409Y-9904933D01*
X-4750409Y-9896348D01*
X-4769967Y-9894519D01*
X-4781397Y-9855149D01*
X-4783734Y-9848392D01*
X-4786325Y-9842550D01*
X-4789271Y-9837572D01*
X-4792675Y-9833406D01*
X-4796485Y-9830003D01*
X-4800854Y-9827260D01*
X-4805781Y-9825177D01*
X-4811369Y-9823653D01*
X-4804562Y-9822180D01*
X-4798314Y-9820148D01*
X-4792675Y-9817709D01*
X-4787595Y-9814814D01*
X-4783124Y-9811562D01*
X-4779213Y-9808006D01*
X-4775962Y-9804095D01*
X-4773269Y-9799929D01*
X-4771136Y-9795510D01*
X-4769662Y-9790938D01*
X-4768748Y-9786162D01*
X-4768443Y-9781235D01*
X-4768697Y-9776206D01*
X-4769459Y-9771430D01*
X-4770780Y-9766909D01*
X-4772507Y-9762693D01*
X-4774793Y-9758781D01*
X-4777536Y-9755174D01*
X-4780737Y-9751872D01*
X-4784394Y-9748926D01*
X-4788509Y-9746234D01*
X-4793030Y-9743897D01*
X-4798009Y-9741916D01*
X-4803394Y-9740290D01*
X-4809185Y-9739020D01*
X-4815382Y-9738055D01*
X-4821936Y-9737496D01*
X-4828895Y-9737293D01*
G37*
G36*
X-4735677Y-9737293D02*
G01*
X-4735677Y-9745980D01*
X-4712563Y-9748469D01*
X-4712055Y-9792766D01*
X-4712157Y-9866325D01*
X-4712563Y-9893757D01*
X-4735677Y-9896348D01*
X-4735677Y-9904933D01*
X-4665319Y-9904933D01*
X-4665319Y-9896348D01*
X-4688687Y-9893503D01*
X-4689043Y-9871557D01*
X-4689195Y-9792716D01*
X-4688687Y-9748469D01*
X-4665319Y-9745980D01*
X-4665319Y-9737293D01*
G37*
G36*
X-4643475Y-9737293D02*
G01*
X-4643475Y-9745980D01*
X-4625695Y-9748469D01*
X-4623155Y-9751517D01*
X-4623663Y-9893249D01*
X-4644491Y-9896348D01*
X-4644491Y-9904933D01*
X-4585309Y-9904933D01*
X-4585309Y-9896348D01*
X-4612233Y-9892741D01*
X-4612487Y-9766249D01*
X-4510379Y-9906457D01*
X-4501489Y-9906457D01*
X-4501235Y-9748977D01*
X-4480153Y-9745980D01*
X-4480153Y-9737293D01*
X-4539335Y-9737293D01*
X-4539335Y-9745980D01*
X-4512665Y-9749282D01*
X-4512157Y-9865309D01*
X-4604867Y-9737293D01*
G37*
G36*
X-4234281Y-9737293D02*
G01*
X-4234281Y-9745980D01*
X-4210913Y-9748469D01*
X-4210405Y-9792766D01*
X-4210405Y-9817049D01*
X-4187545Y-9817049D01*
X-4187444Y-9775088D01*
X-4187037Y-9747199D01*
X-4165447Y-9747199D01*
X-4159148Y-9747504D01*
X-4153458Y-9748266D01*
X-4148328Y-9749485D01*
X-4143806Y-9751263D01*
X-4139895Y-9753447D01*
X-4136491Y-9756140D01*
X-4133646Y-9759238D01*
X-4131360Y-9762744D01*
X-4129582Y-9766706D01*
X-4128312Y-9771075D01*
X-4127601Y-9775850D01*
X-4127347Y-9781032D01*
X-4127601Y-9786112D01*
X-4128465Y-9790887D01*
X-4129836Y-9795408D01*
X-4131767Y-9799624D01*
X-4134256Y-9803434D01*
X-4137304Y-9806838D01*
X-4140860Y-9809835D01*
X-4145026Y-9812375D01*
X-4149750Y-9814356D01*
X-4155033Y-9815830D01*
X-4160824Y-9816744D01*
X-4167225Y-9817049D01*
X-4210405Y-9817049D01*
X-4210507Y-9866325D01*
X-4210913Y-9893757D01*
X-4234281Y-9896348D01*
X-4234281Y-9904933D01*
X-4163923Y-9904933D01*
X-4163923Y-9896348D01*
X-4187037Y-9893503D01*
X-4187444Y-9866325D01*
X-4187545Y-9826701D01*
X-4174337Y-9826701D01*
X-4167124Y-9826955D01*
X-4160926Y-9827768D01*
X-4155744Y-9829241D01*
X-4151426Y-9831527D01*
X-4147820Y-9834829D01*
X-4144822Y-9839147D01*
X-4142384Y-9844735D01*
X-4140301Y-9851593D01*
X-4129887Y-9891522D01*
X-4127042Y-9898938D01*
X-4122165Y-9903866D01*
X-4114850Y-9906660D01*
X-4104741Y-9907524D01*
X-4099102Y-9907320D01*
X-4094073Y-9906812D01*
X-4089603Y-9906000D01*
X-4085691Y-9904933D01*
X-4085691Y-9896348D01*
X-4104995Y-9894519D01*
X-4116679Y-9855149D01*
X-4119016Y-9848392D01*
X-4121607Y-9842550D01*
X-4124553Y-9837572D01*
X-4127957Y-9833406D01*
X-4131767Y-9830003D01*
X-4136136Y-9827260D01*
X-4141063Y-9825177D01*
X-4146651Y-9823653D01*
X-4139844Y-9822180D01*
X-4133596Y-9820148D01*
X-4127957Y-9817709D01*
X-4122877Y-9814814D01*
X-4118406Y-9811562D01*
X-4114495Y-9808006D01*
X-4111244Y-9804095D01*
X-4108551Y-9799929D01*
X-4106418Y-9795510D01*
X-4104944Y-9790938D01*
X-4104030Y-9786162D01*
X-4103725Y-9781235D01*
X-4103979Y-9776206D01*
X-4104741Y-9771430D01*
X-4106062Y-9766909D01*
X-4107789Y-9762693D01*
X-4110075Y-9758781D01*
X-4112818Y-9755174D01*
X-4116019Y-9751872D01*
X-4119676Y-9748926D01*
X-4123791Y-9746234D01*
X-4128312Y-9743897D01*
X-4133291Y-9741916D01*
X-4138676Y-9740290D01*
X-4144467Y-9739020D01*
X-4150664Y-9738055D01*
X-4157218Y-9737496D01*
X-4164177Y-9737293D01*
G37*
G36*
X-4072737Y-9737293D02*
G01*
X-4072737Y-9745980D01*
X-4049877Y-9748774D01*
X-4049877Y-9893046D01*
X-4072737Y-9896348D01*
X-4072737Y-9904933D01*
X-4016603Y-9904933D01*
X-4016603Y-9896348D01*
X-4038447Y-9893046D01*
X-4038498Y-9812070D01*
X-4039717Y-9761474D01*
X-3981297Y-9904933D01*
X-3970375Y-9904933D01*
X-3913987Y-9760966D01*
X-3914292Y-9861042D01*
X-3914749Y-9893757D01*
X-3936339Y-9896348D01*
X-3936339Y-9904933D01*
X-3868267Y-9904933D01*
X-3868267Y-9896348D01*
X-3891381Y-9893757D01*
X-3891838Y-9860534D01*
X-3891686Y-9764979D01*
X-3891381Y-9748469D01*
X-3868013Y-9745980D01*
X-3868013Y-9737293D01*
X-3916273Y-9737293D01*
X-3970375Y-9876485D01*
X-4027017Y-9737293D01*
G37*
G36*
X-3846423Y-9737293D02*
G01*
X-3846423Y-9745980D01*
X-3825595Y-9748469D01*
X-3825341Y-9841230D01*
X-3825138Y-9848138D01*
X-3824630Y-9854692D01*
X-3823715Y-9860838D01*
X-3822496Y-9866528D01*
X-3820922Y-9871862D01*
X-3819042Y-9876790D01*
X-3816807Y-9881362D01*
X-3814318Y-9885527D01*
X-3811524Y-9889337D01*
X-3808476Y-9892792D01*
X-3805072Y-9895840D01*
X-3801465Y-9898583D01*
X-3797604Y-9900970D01*
X-3793490Y-9903002D01*
X-3789121Y-9904730D01*
X-3784549Y-9906101D01*
X-3779723Y-9907168D01*
X-3774744Y-9907930D01*
X-3769512Y-9908387D01*
X-3764127Y-9908540D01*
X-3759047Y-9908387D01*
X-3754170Y-9907879D01*
X-3749395Y-9907117D01*
X-3744874Y-9906000D01*
X-3740505Y-9904577D01*
X-3736340Y-9902799D01*
X-3732377Y-9900666D01*
X-3728669Y-9898176D01*
X-3725164Y-9895281D01*
X-3721912Y-9892080D01*
X-3718966Y-9888423D01*
X-3716223Y-9884410D01*
X-3713784Y-9879990D01*
X-3711651Y-9875164D01*
X-3709822Y-9869932D01*
X-3708247Y-9864242D01*
X-3707028Y-9858146D01*
X-3706164Y-9851593D01*
X-3705656Y-9844582D01*
X-3705453Y-9837166D01*
X-3705199Y-9748977D01*
X-3682847Y-9745980D01*
X-3682847Y-9737293D01*
X-3742791Y-9737293D01*
X-3742791Y-9745980D01*
X-3716375Y-9749485D01*
X-3716121Y-9831019D01*
X-3716274Y-9839147D01*
X-3716832Y-9846614D01*
X-3717696Y-9853422D01*
X-3718864Y-9859619D01*
X-3720439Y-9865207D01*
X-3722319Y-9870236D01*
X-3724554Y-9874707D01*
X-3727145Y-9878618D01*
X-3730040Y-9882022D01*
X-3733342Y-9884918D01*
X-3736949Y-9887305D01*
X-3740861Y-9889236D01*
X-3745179Y-9890709D01*
X-3749801Y-9891725D01*
X-3754780Y-9892334D01*
X-3760063Y-9892538D01*
X-3764787Y-9892334D01*
X-3769309Y-9891826D01*
X-3773576Y-9890963D01*
X-3777640Y-9889642D01*
X-3781399Y-9887966D01*
X-3784854Y-9885832D01*
X-3788054Y-9883190D01*
X-3791000Y-9880142D01*
X-3793591Y-9876536D01*
X-3795877Y-9872421D01*
X-3797858Y-9867747D01*
X-3799484Y-9862515D01*
X-3800805Y-9856673D01*
X-3801719Y-9850221D01*
X-3802278Y-9843109D01*
X-3802481Y-9835388D01*
X-3802278Y-9765131D01*
X-3801973Y-9748774D01*
X-3776573Y-9745980D01*
X-3776573Y-9737293D01*
G37*
G36*
X-3669385Y-9737293D02*
G01*
X-3671417Y-9782048D01*
X-3658971Y-9782048D01*
X-3652113Y-9748469D01*
X-3612743Y-9748469D01*
X-3612337Y-9776002D01*
X-3612235Y-9849764D01*
X-3612743Y-9893503D01*
X-3638397Y-9896348D01*
X-3638397Y-9904933D01*
X-3562959Y-9904933D01*
X-3562959Y-9896348D01*
X-3588867Y-9893503D01*
X-3589223Y-9871557D01*
X-3589375Y-9792716D01*
X-3588867Y-9748469D01*
X-3549497Y-9748469D01*
X-3542385Y-9782048D01*
X-3530447Y-9782048D01*
X-3531971Y-9737293D01*
G37*
G36*
X-3516223Y-9737293D02*
G01*
X-3518255Y-9782048D01*
X-3505809Y-9782048D01*
X-3498951Y-9748469D01*
X-3459581Y-9748469D01*
X-3459175Y-9776002D01*
X-3459073Y-9849764D01*
X-3459581Y-9893503D01*
X-3485235Y-9896348D01*
X-3485235Y-9904933D01*
X-3409797Y-9904933D01*
X-3409797Y-9896348D01*
X-3435705Y-9893503D01*
X-3436061Y-9871557D01*
X-3436213Y-9792716D01*
X-3435705Y-9748469D01*
X-3396335Y-9748469D01*
X-3389223Y-9782048D01*
X-3377285Y-9782048D01*
X-3378809Y-9737293D01*
G37*
G36*
X-2516733Y-9737293D02*
G01*
X-2516733Y-9745980D01*
X-2493365Y-9748469D01*
X-2493111Y-9828022D01*
X-2470251Y-9828022D01*
X-2470048Y-9763912D01*
X-2469743Y-9747199D01*
X-2453741Y-9747199D01*
X-2446578Y-9747504D01*
X-2440127Y-9748418D01*
X-2434285Y-9749891D01*
X-2429154Y-9751923D01*
X-2424633Y-9754514D01*
X-2420772Y-9757664D01*
X-2417521Y-9761321D01*
X-2414930Y-9765487D01*
X-2412898Y-9770160D01*
X-2411425Y-9775342D01*
X-2410612Y-9780981D01*
X-2410307Y-9787077D01*
X-2410561Y-9792970D01*
X-2411374Y-9798507D01*
X-2412746Y-9803688D01*
X-2414676Y-9808413D01*
X-2417267Y-9812731D01*
X-2420467Y-9816592D01*
X-2424328Y-9819944D01*
X-2428849Y-9822738D01*
X-2434082Y-9825024D01*
X-2440076Y-9826650D01*
X-2446782Y-9827666D01*
X-2454249Y-9828022D01*
X-2493111Y-9828022D01*
X-2493365Y-9893757D01*
X-2516733Y-9896348D01*
X-2516733Y-9904933D01*
X-2445867Y-9904933D01*
X-2445867Y-9896348D01*
X-2469743Y-9893503D01*
X-2470200Y-9865512D01*
X-2470251Y-9837877D01*
X-2456789Y-9837877D01*
X-2447696Y-9837623D01*
X-2439263Y-9836861D01*
X-2431542Y-9835591D01*
X-2424531Y-9833864D01*
X-2418130Y-9831679D01*
X-2412390Y-9829139D01*
X-2407259Y-9826193D01*
X-2402789Y-9822891D01*
X-2398877Y-9819284D01*
X-2395524Y-9815322D01*
X-2392781Y-9811156D01*
X-2390546Y-9806736D01*
X-2388819Y-9802063D01*
X-2387600Y-9797237D01*
X-2386939Y-9792258D01*
X-2386685Y-9787077D01*
X-2386939Y-9781641D01*
X-2387650Y-9776409D01*
X-2388870Y-9771481D01*
X-2390597Y-9766808D01*
X-2392781Y-9762388D01*
X-2395474Y-9758273D01*
X-2398674Y-9754514D01*
X-2402382Y-9751060D01*
X-2406548Y-9747961D01*
X-2411222Y-9745218D01*
X-2416403Y-9742881D01*
X-2422042Y-9740900D01*
X-2428189Y-9739376D01*
X-2434844Y-9738258D01*
X-2442006Y-9737547D01*
X-2449677Y-9737293D01*
G37*
G36*
X-2371699Y-9737293D02*
G01*
X-2371699Y-9745980D01*
X-2348331Y-9748469D01*
X-2347823Y-9792766D01*
X-2347925Y-9866325D01*
X-2348331Y-9893757D01*
X-2371699Y-9896348D01*
X-2371699Y-9904933D01*
X-2242667Y-9904933D01*
X-2241397Y-9860280D01*
X-2253589Y-9860280D01*
X-2260193Y-9894011D01*
X-2324455Y-9894011D01*
X-2324912Y-9860330D01*
X-2324963Y-9824669D01*
X-2287117Y-9824669D01*
X-2283561Y-9849053D01*
X-2273401Y-9849053D01*
X-2273401Y-9789922D01*
X-2283561Y-9789922D01*
X-2287371Y-9814814D01*
X-2324963Y-9814814D01*
X-2324862Y-9775647D01*
X-2324455Y-9748469D01*
X-2265019Y-9748469D01*
X-2258415Y-9781540D01*
X-2246223Y-9781540D01*
X-2247493Y-9737293D01*
G37*
D10*
X-8428888Y-8777244D02*
G01*
X-8428888Y-8943360D01*
X-8511946Y-8860302D02*
G01*
X-8345576Y-8860302D01*
X-8430412Y-9551436D02*
G01*
X-8430412Y-9717806D01*
X-8428888Y-7672344D02*
G01*
X-8428888Y-7838460D01*
X-8511946Y-7755402D02*
G01*
X-8345576Y-7755402D01*
X-8430412Y-8446536D02*
G01*
X-8430412Y-8612906D01*
X-8428888Y-6567444D02*
G01*
X-8428888Y-6733560D01*
X-8511946Y-6650502D02*
G01*
X-8345576Y-6650502D01*
X-8430412Y-7379736D02*
G01*
X-8430412Y-7546106D01*
D11*
X-229768Y-6621292D02*
G01*
X-240182Y-6631706D01*
X-245262Y-6647200D01*
X-245262Y-6668028D01*
X-240182Y-6683522D01*
X-229768Y-6693936D01*
X-219354Y-6693936D01*
X-208940Y-6688856D01*
X-203606Y-6683522D01*
X-198526Y-6673108D01*
X-188112Y-6641866D01*
X-183032Y-6631706D01*
X-177698Y-6626372D01*
X-167284Y-6621292D01*
X-151790Y-6621292D01*
X-141376Y-6631706D01*
X-136296Y-6647200D01*
X-136296Y-6668028D01*
X-141376Y-6683522D01*
X-151790Y-6693936D01*
X-219354Y-6044412D02*
G01*
X-229768Y-6049746D01*
X-240182Y-6060160D01*
X-245262Y-6070574D01*
X-245262Y-6091148D01*
X-240182Y-6101562D01*
X-229768Y-6111976D01*
X-219354Y-6117310D01*
X-203606Y-6122390D01*
X-177698Y-6122390D01*
X-162204Y-6117310D01*
X-151790Y-6111976D01*
X-141376Y-6101562D01*
X-136296Y-6091148D01*
X-136296Y-6070574D01*
X-141376Y-6060160D01*
X-151790Y-6049746D01*
X-162204Y-6044412D01*
X-177698Y-6044412D01*
X-177698Y-6070574D02*
G01*
X-177698Y-6044412D01*
X-245262Y-5509280D02*
G01*
X-136296Y-5550936D01*
X-245262Y-5509280D02*
G01*
X-136296Y-5467878D01*
X-172618Y-5535442D02*
G01*
X-172618Y-5483372D01*
X-232562Y-5013980D02*
G01*
X-123596Y-5055636D01*
X-232562Y-5013980D02*
G01*
X-123596Y-4972578D01*
X-159918Y-5040142D02*
G01*
X-159918Y-4988072D01*
X-232562Y-4560336D02*
G01*
X-123596Y-4560336D01*
X-232562Y-4487692D02*
G01*
X-159918Y-4560336D01*
X-185826Y-4534428D02*
G01*
X-123596Y-4487692D01*
X-229768Y-3916700D02*
G01*
X-136296Y-3916700D01*
X-183032Y-3963436D02*
G01*
X-183032Y-3869964D01*
X-206654Y-3377412D02*
G01*
X-217068Y-3382746D01*
X-227482Y-3393160D01*
X-232562Y-3403574D01*
X-232562Y-3424148D01*
X-227482Y-3434562D01*
X-217068Y-3444976D01*
X-206654Y-3450310D01*
X-190906Y-3455390D01*
X-164998Y-3455390D01*
X-149504Y-3450310D01*
X-139090Y-3444976D01*
X-128676Y-3434562D01*
X-123596Y-3424148D01*
X-123596Y-3403574D01*
X-128676Y-3393160D01*
X-139090Y-3382746D01*
X-149504Y-3377412D01*
X-164998Y-3377412D01*
X-164998Y-3403574D02*
G01*
X-164998Y-3377412D01*
X-232562Y-2896636D02*
G01*
X-123596Y-2896636D01*
X-232562Y-2896636D02*
G01*
X-232562Y-2849900D01*
X-227482Y-2834406D01*
X-222148Y-2829072D01*
X-211734Y-2823992D01*
X-201320Y-2823992D01*
X-190906Y-2829072D01*
X-185826Y-2834406D01*
X-180746Y-2849900D01*
X-180746Y-2896636D01*
X-180746Y-2860314D02*
G01*
X-123596Y-2823992D01*
X-232562Y-2789702D02*
G01*
X-123596Y-2716804D01*
X-232562Y-2716804D02*
G01*
X-123596Y-2789702D01*
X-232562Y-2339614D02*
G01*
X-123596Y-2339614D01*
X-232562Y-2375936D02*
G01*
X-232562Y-2303292D01*
X-232562Y-2269002D02*
G01*
X-123596Y-2196104D01*
X-232562Y-2196104D02*
G01*
X-123596Y-2269002D01*
X-2668168Y-3345200D02*
G01*
X-2574696Y-3345200D01*
X-2621432Y-3391936D02*
G01*
X-2621432Y-3298464D01*
X-2718968Y-5110500D02*
G01*
X-2625496Y-5110500D01*
X-2672232Y-5157236D02*
G01*
X-2672232Y-5063764D01*
X-3734968Y-1808500D02*
G01*
X-3641496Y-1808500D01*
X-3688232Y-1855236D02*
G01*
X-3688232Y-1761764D01*
X-242468Y-7713492D02*
G01*
X-252882Y-7723906D01*
X-257962Y-7739400D01*
X-257962Y-7760228D01*
X-252882Y-7775722D01*
X-242468Y-7786136D01*
X-232054Y-7786136D01*
X-221640Y-7781056D01*
X-216306Y-7775722D01*
X-211226Y-7765308D01*
X-200812Y-7734066D01*
X-195732Y-7723906D01*
X-190398Y-7718572D01*
X-179984Y-7713492D01*
X-164490Y-7713492D01*
X-154076Y-7723906D01*
X-148996Y-7739400D01*
X-148996Y-7760228D01*
X-154076Y-7775722D01*
X-164490Y-7786136D01*
X-232054Y-7136612D02*
G01*
X-242468Y-7141946D01*
X-252882Y-7152360D01*
X-257962Y-7162774D01*
X-257962Y-7183348D01*
X-252882Y-7193762D01*
X-242468Y-7204176D01*
X-232054Y-7209510D01*
X-216306Y-7214590D01*
X-190398Y-7214590D01*
X-174904Y-7209510D01*
X-164490Y-7204176D01*
X-154076Y-7193762D01*
X-148996Y-7183348D01*
X-148996Y-7162774D01*
X-154076Y-7152360D01*
X-164490Y-7141946D01*
X-174904Y-7136612D01*
X-190398Y-7136612D01*
X-190398Y-7162774D02*
G01*
X-190398Y-7136612D01*
X-4206646Y-8039120D02*
G01*
X-4164990Y-8148086D01*
X-4123588Y-8039120D02*
G01*
X-4164990Y-8148086D01*
X-4089298Y-8039120D02*
G01*
X-4083964Y-8044200D01*
X-4078884Y-8039120D01*
X-4083964Y-8033786D01*
X-4089298Y-8039120D01*
X-4083964Y-8075442D02*
G01*
X-4083964Y-8148086D01*
X-4044594Y-8075442D02*
G01*
X-4044594Y-8148086D01*
X-4044594Y-8096270D02*
G01*
X-4028846Y-8080776D01*
X-4018686Y-8075442D01*
X-4002938Y-8075442D01*
X-3992524Y-8080776D01*
X-3987444Y-8096270D01*
X-3987444Y-8148086D01*
X-4573168Y-8065028D02*
G01*
X-4578502Y-8054614D01*
X-4588916Y-8044200D01*
X-4599076Y-8039120D01*
X-4619904Y-8039120D01*
X-4630318Y-8044200D01*
X-4640732Y-8054614D01*
X-4646066Y-8065028D01*
X-4651146Y-8080776D01*
X-4651146Y-8106684D01*
X-4646066Y-8122178D01*
X-4640732Y-8132592D01*
X-4630318Y-8143006D01*
X-4619904Y-8148086D01*
X-4599076Y-8148086D01*
X-4588916Y-8143006D01*
X-4578502Y-8132592D01*
X-4573168Y-8122178D01*
X-4573168Y-8106684D01*
X-4599076Y-8106684D02*
G01*
X-4573168Y-8106684D01*
X-4917846Y-8039120D02*
G01*
X-4917846Y-8148086D01*
X-4917846Y-8039120D02*
G01*
X-4871110Y-8039120D01*
X-4855616Y-8044200D01*
X-4850282Y-8049534D01*
X-4845202Y-8059948D01*
X-4845202Y-8070362D01*
X-4850282Y-8080776D01*
X-4855616Y-8085856D01*
X-4871110Y-8090936D01*
X-4917846Y-8090936D02*
G01*
X-4871110Y-8090936D01*
X-4855616Y-8096270D01*
X-4850282Y-8101350D01*
X-4845202Y-8111764D01*
X-4845202Y-8127512D01*
X-4850282Y-8137926D01*
X-4855616Y-8143006D01*
X-4871110Y-8148086D01*
X-4917846Y-8148086D01*
X-4331868Y-8065028D02*
G01*
X-4337202Y-8054614D01*
X-4347616Y-8044200D01*
X-4357776Y-8039120D01*
X-4378604Y-8039120D01*
X-4389018Y-8044200D01*
X-4399432Y-8054614D01*
X-4404766Y-8065028D01*
X-4409846Y-8080776D01*
X-4409846Y-8106684D01*
X-4404766Y-8122178D01*
X-4399432Y-8132592D01*
X-4389018Y-8143006D01*
X-4378604Y-8148086D01*
X-4357776Y-8148086D01*
X-4347616Y-8143006D01*
X-4337202Y-8132592D01*
X-4331868Y-8122178D01*
X-4331868Y-8106684D01*
X-4357776Y-8106684D02*
G01*
X-4331868Y-8106684D01*
X250504Y-977887D02*
G01*
X250504Y-1086853D01*
X250504Y-977887D02*
G01*
X297240Y-977887D01*
X312734Y-982967D01*
X318068Y-988301D01*
X323148Y-998715D01*
X323148Y-1009129D01*
X318068Y-1019543D01*
X312734Y-1024623D01*
X297240Y-1029703D01*
X250504Y-1029703D01*
X286826Y-1029703D02*
G01*
X323148Y-1086853D01*
X357438Y-977887D02*
G01*
X357438Y-1086853D01*
X357438Y-977887D02*
G01*
X425002Y-977887D01*
X357438Y-1029703D02*
G01*
X399094Y-1029703D01*
X459292Y-998715D02*
G01*
X469706Y-993381D01*
X485454Y-977887D01*
X485454Y-1086853D01*
X-673100Y-9625584D02*
G01*
X-673100Y-9734550D01*
X-638809Y-9625584D02*
G01*
X-638809Y-9734550D01*
X-638809Y-9625584D02*
G01*
X-566165Y-9734550D01*
X-566165Y-9625584D02*
G01*
X-566165Y-9734550D01*
X-485140Y-9641078D02*
G01*
X-485140Y-9734550D01*
X-531875Y-9687813D02*
G01*
X-438150Y-9687813D01*
X-2159101Y-9625558D02*
G01*
X-2159101Y-9734778D01*
X-2124811Y-9625558D02*
G01*
X-2124811Y-9734778D01*
X-2124811Y-9625558D02*
G01*
X-2051913Y-9734778D01*
X-2051913Y-9625558D02*
G01*
X-2051913Y-9734778D01*
X-2017623Y-9687788D02*
G01*
X-1924151Y-9687788D01*
X-756158Y-8025384D02*
G01*
X-766572Y-8030463D01*
X-776986Y-8040878D01*
X-782320Y-8051292D01*
X-787400Y-8067039D01*
X-787400Y-8092947D01*
X-782320Y-8108442D01*
X-776986Y-8118855D01*
X-766572Y-8129270D01*
X-756158Y-8134350D01*
X-735329Y-8134350D01*
X-725170Y-8129270D01*
X-714756Y-8118855D01*
X-709422Y-8108442D01*
X-704341Y-8092947D01*
X-704341Y-8067039D01*
X-709422Y-8051292D01*
X-714756Y-8040878D01*
X-725170Y-8030463D01*
X-735329Y-8025384D01*
X-756158Y-8025384D01*
X-670052Y-8025384D02*
G01*
X-670052Y-8103362D01*
X-664718Y-8118855D01*
X-654304Y-8129270D01*
X-638809Y-8134350D01*
X-628395Y-8134350D01*
X-612902Y-8129270D01*
X-602488Y-8118855D01*
X-597154Y-8103362D01*
X-597154Y-8025384D01*
X-526541Y-8025384D02*
G01*
X-526541Y-8134350D01*
X-562863Y-8025384D02*
G01*
X-490220Y-8025384D01*
X-409193Y-8040878D02*
G01*
X-409193Y-8134350D01*
X-455929Y-8087613D02*
G01*
X-362458Y-8087613D01*
X-2203958Y-8012684D02*
G01*
X-2214372Y-8017763D01*
X-2224786Y-8028178D01*
X-2230120Y-8038592D01*
X-2235200Y-8054339D01*
X-2235200Y-8080247D01*
X-2230120Y-8095742D01*
X-2224786Y-8106155D01*
X-2214372Y-8116570D01*
X-2203958Y-8121650D01*
X-2183129Y-8121650D01*
X-2172970Y-8116570D01*
X-2162556Y-8106155D01*
X-2157222Y-8095742D01*
X-2152141Y-8080247D01*
X-2152141Y-8054339D01*
X-2157222Y-8038592D01*
X-2162556Y-8028178D01*
X-2172970Y-8017763D01*
X-2183129Y-8012684D01*
X-2203958Y-8012684D01*
X-2117852Y-8012684D02*
G01*
X-2117852Y-8090662D01*
X-2112518Y-8106155D01*
X-2102104Y-8116570D01*
X-2086609Y-8121650D01*
X-2076195Y-8121650D01*
X-2060702Y-8116570D01*
X-2050288Y-8106155D01*
X-2044954Y-8090662D01*
X-2044954Y-8012684D01*
X-1974341Y-8012684D02*
G01*
X-1974341Y-8121650D01*
X-2010663Y-8012684D02*
G01*
X-1938020Y-8012684D01*
X-1903729Y-8074913D02*
G01*
X-1810258Y-8074913D01*
X-6362700Y-6274810D02*
G01*
X-6362700Y-6196832D01*
X-6367779Y-6181338D01*
X-6378193Y-6170924D01*
X-6393941Y-6165844D01*
X-6404356Y-6165844D01*
X-6419850Y-6170924D01*
X-6430263Y-6181338D01*
X-6435343Y-6196832D01*
X-6435343Y-6274810D01*
X-6474968Y-6248902D02*
G01*
X-6474968Y-6253982D01*
X-6480047Y-6264396D01*
X-6485381Y-6269730D01*
X-6495795Y-6274810D01*
X-6516370Y-6274810D01*
X-6526784Y-6269730D01*
X-6532118Y-6264396D01*
X-6537197Y-6253982D01*
X-6537197Y-6243568D01*
X-6532118Y-6233154D01*
X-6521704Y-6217660D01*
X-6469634Y-6165844D01*
X-6542531Y-6165844D01*
X-1286662Y-3607836D02*
G01*
X-1208684Y-3607836D01*
X-1193190Y-3602756D01*
X-1182776Y-3592342D01*
X-1177696Y-3576594D01*
X-1177696Y-3566180D01*
X-1182776Y-3550686D01*
X-1193190Y-3540272D01*
X-1208684Y-3535192D01*
X-1286662Y-3535192D01*
X-1286662Y-3500902D02*
G01*
X-1177696Y-3500902D01*
X-1177696Y-3500902D02*
G01*
X-1177696Y-3438418D01*
X-1286662Y-3367806D02*
G01*
X-1177696Y-3367806D01*
X-1286662Y-3404128D02*
G01*
X-1286662Y-3331484D01*
X-1286662Y-3297194D02*
G01*
X-1177696Y-3297194D01*
X-1286662Y-3297194D02*
G01*
X-1286662Y-3250458D01*
X-1281582Y-3234710D01*
X-1276248Y-3229630D01*
X-1265834Y-3224296D01*
X-1255420Y-3224296D01*
X-1245006Y-3229630D01*
X-1239926Y-3234710D01*
X-1234846Y-3250458D01*
X-1234846Y-3297194D01*
X-1234846Y-3260872D02*
G01*
X-1177696Y-3224296D01*
X-1286662Y-3148604D02*
G01*
X-1177696Y-3190006D01*
X-1286662Y-3148604D02*
G01*
X-1177696Y-3106948D01*
X-1214018Y-3174512D02*
G01*
X-1214018Y-3122696D01*
X-1271168Y-3000014D02*
G01*
X-1281582Y-3010428D01*
X-1286662Y-3025922D01*
X-1286662Y-3046750D01*
X-1281582Y-3062244D01*
X-1271168Y-3072658D01*
X-1260754Y-3072658D01*
X-1250340Y-3067578D01*
X-1245006Y-3062244D01*
X-1239926Y-3051830D01*
X-1229512Y-3020842D01*
X-1224432Y-3010428D01*
X-1219098Y-3005094D01*
X-1208684Y-3000014D01*
X-1193190Y-3000014D01*
X-1182776Y-3010428D01*
X-1177696Y-3025922D01*
X-1177696Y-3046750D01*
X-1182776Y-3062244D01*
X-1193190Y-3072658D01*
X-1286662Y-2934482D02*
G01*
X-1281582Y-2944896D01*
X-1271168Y-2955310D01*
X-1260754Y-2960390D01*
X-1245006Y-2965724D01*
X-1219098Y-2965724D01*
X-1203604Y-2960390D01*
X-1193190Y-2955310D01*
X-1182776Y-2944896D01*
X-1177696Y-2934482D01*
X-1177696Y-2913654D01*
X-1182776Y-2903240D01*
X-1193190Y-2892826D01*
X-1203604Y-2887746D01*
X-1219098Y-2882666D01*
X-1245006Y-2882666D01*
X-1260754Y-2887746D01*
X-1271168Y-2892826D01*
X-1281582Y-2903240D01*
X-1286662Y-2913654D01*
X-1286662Y-2934482D01*
X-1286662Y-2848376D02*
G01*
X-1177696Y-2848376D01*
X-1286662Y-2848376D02*
G01*
X-1177696Y-2775478D01*
X-1286662Y-2775478D02*
G01*
X-1177696Y-2775478D01*
X-1286662Y-2741188D02*
G01*
X-1177696Y-2741188D01*
X-1260754Y-2628920D02*
G01*
X-1271168Y-2634254D01*
X-1281582Y-2644668D01*
X-1286662Y-2655082D01*
X-1286662Y-2675656D01*
X-1281582Y-2686070D01*
X-1271168Y-2696484D01*
X-1260754Y-2701818D01*
X-1245006Y-2706898D01*
X-1219098Y-2706898D01*
X-1203604Y-2701818D01*
X-1193190Y-2696484D01*
X-1182776Y-2686070D01*
X-1177696Y-2675656D01*
X-1177696Y-2655082D01*
X-1182776Y-2644668D01*
X-1193190Y-2634254D01*
X-1203604Y-2628920D01*
X-1286662Y-2563642D02*
G01*
X-1281582Y-2579136D01*
X-1265834Y-2589550D01*
X-1239926Y-2594630D01*
X-1224432Y-2594630D01*
X-1198270Y-2589550D01*
X-1182776Y-2579136D01*
X-1177696Y-2563642D01*
X-1177696Y-2553228D01*
X-1182776Y-2537480D01*
X-1198270Y-2527066D01*
X-1224432Y-2521986D01*
X-1239926Y-2521986D01*
X-1265834Y-2527066D01*
X-1281582Y-2537480D01*
X-1286662Y-2553228D01*
X-1286662Y-2563642D01*
X-1265834Y-2487696D02*
G01*
X-1271168Y-2477282D01*
X-1286662Y-2461788D01*
X-1177696Y-2461788D01*
X-1245768Y-7510292D02*
G01*
X-1256182Y-7520706D01*
X-1261262Y-7536200D01*
X-1261262Y-7557028D01*
X-1256182Y-7572522D01*
X-1245768Y-7582936D01*
X-1235354Y-7582936D01*
X-1224940Y-7577856D01*
X-1219606Y-7572522D01*
X-1214526Y-7562108D01*
X-1204112Y-7530866D01*
X-1199032Y-7520706D01*
X-1193698Y-7515372D01*
X-1183284Y-7510292D01*
X-1167790Y-7510292D01*
X-1157376Y-7520706D01*
X-1152296Y-7536200D01*
X-1152296Y-7557028D01*
X-1157376Y-7572522D01*
X-1167790Y-7582936D01*
X-1261262Y-7476002D02*
G01*
X-1152296Y-7449840D01*
X-1261262Y-7423932D02*
G01*
X-1152296Y-7449840D01*
X-1261262Y-7423932D02*
G01*
X-1152296Y-7398024D01*
X-1261262Y-7372116D02*
G01*
X-1152296Y-7398024D01*
X-1235354Y-7332492D02*
G01*
X-1240434Y-7332492D01*
X-1250848Y-7327412D01*
X-1256182Y-7322078D01*
X-1261262Y-7311664D01*
X-1261262Y-7290836D01*
X-1256182Y-7280676D01*
X-1250848Y-7275342D01*
X-1240434Y-7270262D01*
X-1230020Y-7270262D01*
X-1219606Y-7275342D01*
X-1204112Y-7285756D01*
X-1152296Y-7337826D01*
X-1152296Y-7264928D01*
X-1233068Y-6379992D02*
G01*
X-1243482Y-6390406D01*
X-1248562Y-6405900D01*
X-1248562Y-6426728D01*
X-1243482Y-6442222D01*
X-1233068Y-6452636D01*
X-1222654Y-6452636D01*
X-1212240Y-6447556D01*
X-1206906Y-6442222D01*
X-1201826Y-6431808D01*
X-1191412Y-6400566D01*
X-1186332Y-6390406D01*
X-1180998Y-6385072D01*
X-1170584Y-6379992D01*
X-1155090Y-6379992D01*
X-1144676Y-6390406D01*
X-1139596Y-6405900D01*
X-1139596Y-6426728D01*
X-1144676Y-6442222D01*
X-1155090Y-6452636D01*
X-1248562Y-6345702D02*
G01*
X-1139596Y-6319540D01*
X-1248562Y-6293632D02*
G01*
X-1139596Y-6319540D01*
X-1248562Y-6293632D02*
G01*
X-1139596Y-6267724D01*
X-1248562Y-6241816D02*
G01*
X-1139596Y-6267724D01*
X-1227734Y-6207526D02*
G01*
X-1233068Y-6197112D01*
X-1248562Y-6181364D01*
X-1139596Y-6181364D01*
X-1286662Y-5398536D02*
G01*
X-1177696Y-5398536D01*
X-1177696Y-5398536D02*
G01*
X-1177696Y-5336306D01*
X-1286662Y-5302016D02*
G01*
X-1177696Y-5302016D01*
X-1286662Y-5302016D02*
G01*
X-1286662Y-5234452D01*
X-1234846Y-5302016D02*
G01*
X-1234846Y-5260360D01*
X-1177696Y-5302016D02*
G01*
X-1177696Y-5234452D01*
X-1286662Y-5200162D02*
G01*
X-1177696Y-5200162D01*
X-1286662Y-5200162D02*
G01*
X-1286662Y-5163586D01*
X-1281582Y-5148092D01*
X-1271168Y-5137678D01*
X-1260754Y-5132598D01*
X-1245006Y-5127264D01*
X-1219098Y-5127264D01*
X-1203604Y-5132598D01*
X-1193190Y-5137678D01*
X-1182776Y-5148092D01*
X-1177696Y-5163586D01*
X-1177696Y-5200162D01*
X-1141120Y-5092974D02*
G01*
X-1141120Y-4999502D01*
X-1286662Y-4965212D02*
G01*
X-1177696Y-4965212D01*
X-1177696Y-4965212D02*
G01*
X-1177696Y-4902982D01*
X-1286662Y-4837450D02*
G01*
X-1281582Y-4847864D01*
X-1271168Y-4858278D01*
X-1260754Y-4863358D01*
X-1245006Y-4868692D01*
X-1219098Y-4868692D01*
X-1203604Y-4863358D01*
X-1193190Y-4858278D01*
X-1182776Y-4847864D01*
X-1177696Y-4837450D01*
X-1177696Y-4816622D01*
X-1182776Y-4806208D01*
X-1193190Y-4795794D01*
X-1203604Y-4790714D01*
X-1219098Y-4785380D01*
X-1245006Y-4785380D01*
X-1260754Y-4790714D01*
X-1271168Y-4795794D01*
X-1281582Y-4806208D01*
X-1286662Y-4816622D01*
X-1286662Y-4837450D01*
X-1286662Y-4751090D02*
G01*
X-1177696Y-4751090D01*
X-1286662Y-4751090D02*
G01*
X-1286662Y-4704354D01*
X-1281582Y-4688860D01*
X-1276248Y-4683526D01*
X-1265834Y-4678446D01*
X-1255420Y-4678446D01*
X-1245006Y-4683526D01*
X-1239926Y-4688860D01*
X-1234846Y-4704354D01*
X-1234846Y-4751090D01*
X-1234846Y-4714768D02*
G01*
X-1177696Y-4678446D01*
X-1286662Y-4602500D02*
G01*
X-1177696Y-4644156D01*
X-1286662Y-4602500D02*
G01*
X-1177696Y-4561098D01*
X-1214018Y-4628662D02*
G01*
X-1214018Y-4576592D01*
X-7342530Y-7938536D02*
G01*
X-7451496Y-7938536D01*
X-7342530Y-7938536D02*
G01*
X-7342530Y-7985272D01*
X-7347610Y-8000766D01*
X-7352944Y-8006100D01*
X-7363358Y-8011180D01*
X-7373772Y-8011180D01*
X-7384186Y-8006100D01*
X-7389266Y-8000766D01*
X-7394346Y-7985272D01*
X-7394346Y-7938536D02*
G01*
X-7394346Y-7985272D01*
X-7399680Y-8000766D01*
X-7404760Y-8006100D01*
X-7415174Y-8011180D01*
X-7430922Y-8011180D01*
X-7441336Y-8006100D01*
X-7446416Y-8000766D01*
X-7451496Y-7985272D01*
X-7451496Y-7938536D01*
X-7342530Y-8087126D02*
G01*
X-7451496Y-8045470D01*
X-7342530Y-8087126D02*
G01*
X-7451496Y-8128782D01*
X-7415174Y-8061218D02*
G01*
X-7415174Y-8113034D01*
X-7342530Y-8199394D02*
G01*
X-7451496Y-8199394D01*
X-7342530Y-8163072D02*
G01*
X-7342530Y-8235716D01*
X-7342530Y-8306328D02*
G01*
X-7451496Y-8306328D01*
X-7342530Y-8270006D02*
G01*
X-7342530Y-8342650D01*
X-7342530Y-6782836D02*
G01*
X-7451496Y-6782836D01*
X-7342530Y-6782836D02*
G01*
X-7342530Y-6829572D01*
X-7347610Y-6845066D01*
X-7352944Y-6850400D01*
X-7363358Y-6855480D01*
X-7378852Y-6855480D01*
X-7389266Y-6850400D01*
X-7394346Y-6845066D01*
X-7399680Y-6829572D01*
X-7399680Y-6782836D01*
X-7342530Y-6921012D02*
G01*
X-7347610Y-6910598D01*
X-7358024Y-6900184D01*
X-7368438Y-6895104D01*
X-7384186Y-6889770D01*
X-7410094Y-6889770D01*
X-7425588Y-6895104D01*
X-7436002Y-6900184D01*
X-7446416Y-6910598D01*
X-7451496Y-6921012D01*
X-7451496Y-6941840D01*
X-7446416Y-6952254D01*
X-7436002Y-6962668D01*
X-7425588Y-6967748D01*
X-7410094Y-6973082D01*
X-7384186Y-6973082D01*
X-7368438Y-6967748D01*
X-7358024Y-6962668D01*
X-7347610Y-6952254D01*
X-7342530Y-6941840D01*
X-7342530Y-6921012D01*
X-7342530Y-7007372D02*
G01*
X-7451496Y-7033280D01*
X-7342530Y-7059188D02*
G01*
X-7451496Y-7033280D01*
X-7342530Y-7059188D02*
G01*
X-7451496Y-7085096D01*
X-7342530Y-7111258D02*
G01*
X-7451496Y-7085096D01*
X-7342530Y-7145548D02*
G01*
X-7451496Y-7145548D01*
X-7342530Y-7145548D02*
G01*
X-7342530Y-7213112D01*
X-7394346Y-7145548D02*
G01*
X-7394346Y-7186950D01*
X-7451496Y-7145548D02*
G01*
X-7451496Y-7213112D01*
X-7342530Y-7247402D02*
G01*
X-7451496Y-7247402D01*
X-7342530Y-7247402D02*
G01*
X-7342530Y-7294138D01*
X-7347610Y-7309632D01*
X-7352944Y-7314966D01*
X-7363358Y-7320046D01*
X-7373772Y-7320046D01*
X-7384186Y-7314966D01*
X-7389266Y-7309632D01*
X-7394346Y-7294138D01*
X-7394346Y-7247402D01*
X-7394346Y-7283724D02*
G01*
X-7451496Y-7320046D01*
X-7358024Y-9039880D02*
G01*
X-7347610Y-9029466D01*
X-7342530Y-9013972D01*
X-7342530Y-8993144D01*
X-7347610Y-8977650D01*
X-7358024Y-8967236D01*
X-7368438Y-8967236D01*
X-7378852Y-8972316D01*
X-7384186Y-8977650D01*
X-7389266Y-8988064D01*
X-7399680Y-9019306D01*
X-7404760Y-9029466D01*
X-7410094Y-9034800D01*
X-7420508Y-9039880D01*
X-7436002Y-9039880D01*
X-7446416Y-9029466D01*
X-7451496Y-9013972D01*
X-7451496Y-8993144D01*
X-7446416Y-8977650D01*
X-7436002Y-8967236D01*
X-7342530Y-9105412D02*
G01*
X-7347610Y-9094998D01*
X-7358024Y-9084584D01*
X-7368438Y-9079504D01*
X-7384186Y-9074170D01*
X-7410094Y-9074170D01*
X-7425588Y-9079504D01*
X-7436002Y-9084584D01*
X-7446416Y-9094998D01*
X-7451496Y-9105412D01*
X-7451496Y-9126240D01*
X-7446416Y-9136654D01*
X-7436002Y-9147068D01*
X-7425588Y-9152148D01*
X-7410094Y-9157482D01*
X-7384186Y-9157482D01*
X-7368438Y-9152148D01*
X-7358024Y-9147068D01*
X-7347610Y-9136654D01*
X-7342530Y-9126240D01*
X-7342530Y-9105412D01*
X-7342530Y-9191772D02*
G01*
X-7451496Y-9191772D01*
X-7451496Y-9191772D02*
G01*
X-7451496Y-9254002D01*
X-7342530Y-9329948D02*
G01*
X-7451496Y-9288292D01*
X-7342530Y-9329948D02*
G01*
X-7451496Y-9371350D01*
X-7415174Y-9303786D02*
G01*
X-7415174Y-9355856D01*
X-7342530Y-9405640D02*
G01*
X-7451496Y-9405640D01*
X-7342530Y-9405640D02*
G01*
X-7342530Y-9452376D01*
X-7347610Y-9468124D01*
X-7352944Y-9473204D01*
X-7363358Y-9478538D01*
X-7373772Y-9478538D01*
X-7384186Y-9473204D01*
X-7389266Y-9468124D01*
X-7394346Y-9452376D01*
X-7394346Y-9405640D01*
X-7394346Y-9442216D02*
G01*
X-7451496Y-9478538D01*
X-3431946Y-2844820D02*
G01*
X-3431946Y-2953786D01*
X-3431946Y-2844820D02*
G01*
X-3385210Y-2844820D01*
X-3369716Y-2849900D01*
X-3364382Y-2855234D01*
X-3359302Y-2865648D01*
X-3359302Y-2876062D01*
X-3364382Y-2886476D01*
X-3369716Y-2891556D01*
X-3385210Y-2896636D01*
X-3431946Y-2896636D02*
G01*
X-3385210Y-2896636D01*
X-3369716Y-2901970D01*
X-3364382Y-2907050D01*
X-3359302Y-2917464D01*
X-3359302Y-2933212D01*
X-3364382Y-2943626D01*
X-3369716Y-2948706D01*
X-3385210Y-2953786D01*
X-3431946Y-2953786D01*
X-3325012Y-2844820D02*
G01*
X-3325012Y-2953786D01*
X-3325012Y-2844820D02*
G01*
X-3283356Y-2953786D01*
X-3241700Y-2844820D02*
G01*
X-3283356Y-2953786D01*
X-3241700Y-2844820D02*
G01*
X-3241700Y-2953786D01*
X-3207410Y-2844820D02*
G01*
X-3207410Y-2953786D01*
X-3207410Y-2844820D02*
G01*
X-3139846Y-2844820D01*
X-3207410Y-2896636D02*
G01*
X-3166008Y-2896636D01*
X-3207410Y-2953786D02*
G01*
X-3139846Y-2953786D01*
X-4003446Y-4508520D02*
G01*
X-3961790Y-4617486D01*
X-3920388Y-4508520D02*
G01*
X-3961790Y-4617486D01*
X-3854856Y-4508520D02*
G01*
X-3865270Y-4513600D01*
X-3875684Y-4524014D01*
X-3880764Y-4534428D01*
X-3886098Y-4550176D01*
X-3886098Y-4576084D01*
X-3880764Y-4591578D01*
X-3875684Y-4601992D01*
X-3865270Y-4612406D01*
X-3854856Y-4617486D01*
X-3834028Y-4617486D01*
X-3823614Y-4612406D01*
X-3813200Y-4601992D01*
X-3808120Y-4591578D01*
X-3802786Y-4576084D01*
X-3802786Y-4550176D01*
X-3808120Y-4534428D01*
X-3813200Y-4524014D01*
X-3823614Y-4513600D01*
X-3834028Y-4508520D01*
X-3854856Y-4508520D01*
X-3768496Y-4508520D02*
G01*
X-3768496Y-4617486D01*
X-3768496Y-4617486D02*
G01*
X-3706266Y-4617486D01*
X-3635654Y-4508520D02*
G01*
X-3635654Y-4617486D01*
X-3671976Y-4508520D02*
G01*
X-3599332Y-4508520D01*
X-3523386Y-4508520D02*
G01*
X-3565042Y-4617486D01*
X-3523386Y-4508520D02*
G01*
X-3481730Y-4617486D01*
X-3549294Y-4581164D02*
G01*
X-3497478Y-4581164D01*
X-3369716Y-4534428D02*
G01*
X-3374796Y-4524014D01*
X-3385210Y-4513600D01*
X-3395624Y-4508520D01*
X-3416452Y-4508520D01*
X-3426866Y-4513600D01*
X-3437026Y-4524014D01*
X-3442360Y-4534428D01*
X-3447440Y-4550176D01*
X-3447440Y-4576084D01*
X-3442360Y-4591578D01*
X-3437026Y-4601992D01*
X-3426866Y-4612406D01*
X-3416452Y-4617486D01*
X-3395624Y-4617486D01*
X-3385210Y-4612406D01*
X-3374796Y-4601992D01*
X-3369716Y-4591578D01*
X-3369716Y-4576084D01*
X-3395624Y-4576084D02*
G01*
X-3369716Y-4576084D01*
X-3335426Y-4508520D02*
G01*
X-3335426Y-4617486D01*
X-3335426Y-4508520D02*
G01*
X-3267862Y-4508520D01*
X-3335426Y-4560336D02*
G01*
X-3293770Y-4560336D01*
X-3335426Y-4617486D02*
G01*
X-3267862Y-4617486D01*
X-3160674Y-4524014D02*
G01*
X-3171088Y-4513600D01*
X-3186836Y-4508520D01*
X-3207410Y-4508520D01*
X-3223158Y-4513600D01*
X-3233572Y-4524014D01*
X-3233572Y-4534428D01*
X-3228238Y-4544842D01*
X-3223158Y-4550176D01*
X-3212744Y-4555256D01*
X-3181502Y-4565670D01*
X-3171088Y-4570750D01*
X-3166008Y-4576084D01*
X-3160674Y-4586498D01*
X-3160674Y-4601992D01*
X-3171088Y-4612406D01*
X-3186836Y-4617486D01*
X-3207410Y-4617486D01*
X-3223158Y-4612406D01*
X-3233572Y-4601992D01*
X-3126384Y-4508520D02*
G01*
X-3126384Y-4617486D01*
X-3126384Y-4508520D02*
G01*
X-3058820Y-4508520D01*
X-3126384Y-4560336D02*
G01*
X-3084982Y-4560336D01*
X-3126384Y-4617486D02*
G01*
X-3058820Y-4617486D01*
X-3024530Y-4508520D02*
G01*
X-3024530Y-4617486D01*
X-3024530Y-4508520D02*
G01*
X-2951886Y-4617486D01*
X-2951886Y-4508520D02*
G01*
X-2951886Y-4617486D01*
X-2844952Y-4524014D02*
G01*
X-2855366Y-4513600D01*
X-2870860Y-4508520D01*
X-2891688Y-4508520D01*
X-2907182Y-4513600D01*
X-2917596Y-4524014D01*
X-2917596Y-4534428D01*
X-2912516Y-4544842D01*
X-2907182Y-4550176D01*
X-2896768Y-4555256D01*
X-2865526Y-4565670D01*
X-2855366Y-4570750D01*
X-2850032Y-4576084D01*
X-2844952Y-4586498D01*
X-2844952Y-4601992D01*
X-2855366Y-4612406D01*
X-2870860Y-4617486D01*
X-2891688Y-4617486D01*
X-2907182Y-4612406D01*
X-2917596Y-4601992D01*
X-2779420Y-4508520D02*
G01*
X-2789834Y-4513600D01*
X-2800248Y-4524014D01*
X-2805328Y-4534428D01*
X-2810662Y-4550176D01*
X-2810662Y-4576084D01*
X-2805328Y-4591578D01*
X-2800248Y-4601992D01*
X-2789834Y-4612406D01*
X-2779420Y-4617486D01*
X-2758592Y-4617486D01*
X-2748178Y-4612406D01*
X-2737764Y-4601992D01*
X-2732684Y-4591578D01*
X-2727350Y-4576084D01*
X-2727350Y-4550176D01*
X-2732684Y-4534428D01*
X-2737764Y-4524014D01*
X-2748178Y-4513600D01*
X-2758592Y-4508520D01*
X-2779420Y-4508520D01*
X-2693060Y-4508520D02*
G01*
X-2693060Y-4617486D01*
X-2693060Y-4508520D02*
G01*
X-2646324Y-4508520D01*
X-2630830Y-4513600D01*
X-2625496Y-4518934D01*
X-2620416Y-4529348D01*
X-2620416Y-4539762D01*
X-2625496Y-4550176D01*
X-2630830Y-4555256D01*
X-2646324Y-4560336D01*
X-2693060Y-4560336D01*
X-2656738Y-4560336D02*
G01*
X-2620416Y-4617486D01*
X-2234184Y-1739894D02*
G01*
X-2343150Y-1739894D01*
X-2343150Y-1739894D02*
G01*
X-2343150Y-1802124D01*
X-2234184Y-1867656D02*
G01*
X-2239263Y-1857242D01*
X-2249677Y-1846828D01*
X-2260091Y-1841748D01*
X-2275840Y-1836414D01*
X-2301747Y-1836414D01*
X-2317241Y-1841748D01*
X-2327656Y-1846828D01*
X-2338070Y-1857242D01*
X-2343150Y-1867656D01*
X-2343150Y-1888484D01*
X-2338070Y-1898898D01*
X-2327656Y-1909312D01*
X-2317241Y-1914392D01*
X-2301747Y-1919726D01*
X-2275840Y-1919726D01*
X-2260091Y-1914392D01*
X-2249677Y-1909312D01*
X-2239263Y-1898898D01*
X-2234184Y-1888484D01*
X-2234184Y-1867656D01*
X-2234184Y-1954016D02*
G01*
X-2343150Y-1954016D01*
X-2234184Y-1954016D02*
G01*
X-2234184Y-2000752D01*
X-2239263Y-2016246D01*
X-2244597Y-2021580D01*
X-2255011Y-2026660D01*
X-2265425Y-2026660D01*
X-2275840Y-2021580D01*
X-2280920Y-2016246D01*
X-2286000Y-2000752D01*
X-2286000Y-1954016D01*
X-2286000Y-1990338D02*
G01*
X-2343150Y-2026660D01*
X-2234184Y-2102606D02*
G01*
X-2343150Y-2060950D01*
X-2234184Y-2102606D02*
G01*
X-2343150Y-2144008D01*
X-2306827Y-2076444D02*
G01*
X-2306827Y-2128514D01*
X-5035715Y-7406916D02*
G01*
X-5046129Y-7396502D01*
X-5061623Y-7391422D01*
X-5082451Y-7391422D01*
X-5097945Y-7396502D01*
X-5108359Y-7406916D01*
X-5108359Y-7417330D01*
X-5103279Y-7427744D01*
X-5097945Y-7433078D01*
X-5087531Y-7438158D01*
X-5056289Y-7448572D01*
X-5046129Y-7453652D01*
X-5040795Y-7458986D01*
X-5035715Y-7469400D01*
X-5035715Y-7484894D01*
X-5046129Y-7495308D01*
X-5061623Y-7500388D01*
X-5082451Y-7500388D01*
X-5097945Y-7495308D01*
X-5108359Y-7484894D01*
X-4970183Y-7391422D02*
G01*
X-4980597Y-7396502D01*
X-4991011Y-7406916D01*
X-4996091Y-7417330D01*
X-5001425Y-7433078D01*
X-5001425Y-7458986D01*
X-4996091Y-7474480D01*
X-4991011Y-7484894D01*
X-4980597Y-7495308D01*
X-4970183Y-7500388D01*
X-4949355Y-7500388D01*
X-4938941Y-7495308D01*
X-4928527Y-7484894D01*
X-4923447Y-7474480D01*
X-4918113Y-7458986D01*
X-4918113Y-7433078D01*
X-4923447Y-7417330D01*
X-4928527Y-7406916D01*
X-4938941Y-7396502D01*
X-4949355Y-7391422D01*
X-4970183Y-7391422D01*
X-4883823Y-7391422D02*
G01*
X-4883823Y-7500388D01*
X-4883823Y-7500388D02*
G01*
X-4821593Y-7500388D01*
X-4745647Y-7391422D02*
G01*
X-4787303Y-7500388D01*
X-4745647Y-7391422D02*
G01*
X-4704245Y-7500388D01*
X-4771809Y-7464066D02*
G01*
X-4719739Y-7464066D01*
X-4669955Y-7391422D02*
G01*
X-4669955Y-7500388D01*
X-4669955Y-7391422D02*
G01*
X-4623219Y-7391422D01*
X-4607471Y-7396502D01*
X-4602391Y-7401836D01*
X-4597057Y-7412250D01*
X-4597057Y-7422664D01*
X-4602391Y-7433078D01*
X-4607471Y-7438158D01*
X-4623219Y-7443238D01*
X-4669955Y-7443238D01*
X-4633379Y-7443238D02*
G01*
X-4597057Y-7500388D01*
X-4484789Y-7417330D02*
G01*
X-4490123Y-7406916D01*
X-4500537Y-7396502D01*
X-4510951Y-7391422D01*
X-4531779Y-7391422D01*
X-4541939Y-7396502D01*
X-4552353Y-7406916D01*
X-4557687Y-7417330D01*
X-4562767Y-7433078D01*
X-4562767Y-7458986D01*
X-4557687Y-7474480D01*
X-4552353Y-7484894D01*
X-4541939Y-7495308D01*
X-4531779Y-7500388D01*
X-4510951Y-7500388D01*
X-4500537Y-7495308D01*
X-4490123Y-7484894D01*
X-4484789Y-7474480D01*
X-4450499Y-7391422D02*
G01*
X-4450499Y-7500388D01*
X-4377855Y-7391422D02*
G01*
X-4377855Y-7500388D01*
X-4450499Y-7443238D02*
G01*
X-4377855Y-7443238D01*
X-4301909Y-7391422D02*
G01*
X-4343565Y-7500388D01*
X-4301909Y-7391422D02*
G01*
X-4260507Y-7500388D01*
X-4328071Y-7464066D02*
G01*
X-4276001Y-7464066D01*
X-4226217Y-7391422D02*
G01*
X-4226217Y-7500388D01*
X-4226217Y-7391422D02*
G01*
X-4179481Y-7391422D01*
X-4163733Y-7396502D01*
X-4158653Y-7401836D01*
X-4153319Y-7412250D01*
X-4153319Y-7422664D01*
X-4158653Y-7433078D01*
X-4163733Y-7438158D01*
X-4179481Y-7443238D01*
X-4226217Y-7443238D01*
X-4189895Y-7443238D02*
G01*
X-4153319Y-7500388D01*
X-4041305Y-7417330D02*
G01*
X-4046385Y-7406916D01*
X-4056799Y-7396502D01*
X-4067213Y-7391422D01*
X-4088041Y-7391422D01*
X-4098455Y-7396502D01*
X-4108869Y-7406916D01*
X-4113949Y-7417330D01*
X-4119029Y-7433078D01*
X-4119029Y-7458986D01*
X-4113949Y-7474480D01*
X-4108869Y-7484894D01*
X-4098455Y-7495308D01*
X-4088041Y-7500388D01*
X-4067213Y-7500388D01*
X-4056799Y-7495308D01*
X-4046385Y-7484894D01*
X-4041305Y-7474480D01*
X-4041305Y-7458986D01*
X-4067213Y-7458986D02*
G01*
X-4041305Y-7458986D01*
X-4007015Y-7391422D02*
G01*
X-4007015Y-7500388D01*
X-4007015Y-7391422D02*
G01*
X-3939451Y-7391422D01*
X-4007015Y-7443238D02*
G01*
X-3965359Y-7443238D01*
X-4007015Y-7500388D02*
G01*
X-3939451Y-7500388D01*
X-3905161Y-7391422D02*
G01*
X-3905161Y-7500388D01*
X-3905161Y-7391422D02*
G01*
X-3858425Y-7391422D01*
X-3842677Y-7396502D01*
X-3837597Y-7401836D01*
X-3832263Y-7412250D01*
X-3832263Y-7422664D01*
X-3837597Y-7433078D01*
X-3842677Y-7438158D01*
X-3858425Y-7443238D01*
X-3905161Y-7443238D01*
X-3868839Y-7443238D02*
G01*
X-3832263Y-7500388D01*
D12*
X564916Y-1739887D02*
G01*
X657443Y-1204259D01*
X925954Y-1739887D02*
G01*
X213205Y-1739887D01*
X925954Y-1204259D02*
G01*
X213205Y-1206266D01*
X213205Y-1148201D02*
G01*
X213205Y-1798203D01*
X213205Y-1798203D02*
G01*
X60805Y-1798203D01*
X925954Y-1739887D02*
G01*
X981400Y-1739887D01*
X925954Y-1204259D02*
G01*
X980338Y-1204259D01*
X981400Y-1203200D01*
X981400Y-1741200D01*
X213205Y-1148201D02*
G01*
X60805Y-1148201D01*
X60805Y-1790697D01*
X925954Y-1204259D02*
G01*
X925954Y-1739887D01*
X838873Y-1739887D02*
G01*
X925954Y-1204259D01*
X838873Y-1204259D02*
G01*
X838873Y-1739887D01*
X749973Y-1739887D02*
G01*
X838873Y-1204259D01*
X749973Y-1204259D02*
G01*
X749973Y-1739887D01*
X657443Y-1739887D02*
G01*
X749973Y-1204259D01*
X657443Y-1204259D02*
G01*
X657443Y-1739887D01*
X564916Y-1204259D02*
G01*
X564916Y-1739887D01*
D10*
X-460146Y-9551436D02*
G01*
X-714146Y-9551436D01*
X-714146Y-9297436D01*
X-460146Y-9297436D01*
X-460146Y-9487936D01*
D13*
X-460146Y-9551436D02*
G01*
X-460146Y-9487936D01*
D10*
X-1958746Y-9551436D02*
G01*
X-2212746Y-9551436D01*
X-2212746Y-9297436D01*
X-1958746Y-9297436D01*
X-1958746Y-9487936D01*
D13*
X-1958746Y-9551436D02*
G01*
X-1958746Y-9487936D01*
D10*
X-458622Y-8451362D02*
G01*
X-712622Y-8451362D01*
X-712622Y-8197362D01*
X-458622Y-8197362D01*
X-458622Y-8387862D01*
D13*
X-458622Y-8451362D02*
G01*
X-458622Y-8387862D01*
D10*
X-1958746Y-8446536D02*
G01*
X-2212746Y-8446536D01*
X-2212746Y-8192536D01*
X-1958746Y-8192536D01*
X-1958746Y-8383036D01*
D13*
X-1958746Y-8446536D02*
G01*
X-1958746Y-8383036D01*
D14*
X-8011693Y-963340D02*
G01*
X-5221706Y-963340D01*
X-5221706Y-963340D02*
G01*
X-5221706Y-6403334D01*
X-8011693Y-6403334D01*
X-8011693Y-963340D01*
D12*
X-403453Y-4123329D02*
G01*
X-403453Y-3123331D01*
X-1017879Y-4123862D02*
G01*
X-1035245Y-4163334D01*
X-935245Y-4163334D01*
X-954938Y-4123862D01*
X-1085245Y-4123329D02*
G01*
X-1085245Y-3123331D01*
X-1085245Y-4123329D02*
G01*
X-325247Y-4123329D01*
X-1085245Y-3123331D02*
G01*
X-325247Y-3123331D01*
X-325247Y-4123329D02*
G01*
X-325247Y-3123331D01*
X-865327Y-4123329D02*
G01*
X-865327Y-3123331D01*
X-403453Y-7917835D02*
G01*
X-403453Y-6917837D01*
X-1017879Y-7918368D02*
G01*
X-1035245Y-7957840D01*
X-935245Y-7957840D01*
X-954938Y-7918368D01*
X-1085245Y-7917835D02*
G01*
X-1085245Y-6917837D01*
X-1085245Y-7917835D02*
G01*
X-325247Y-7917835D01*
X-1085245Y-6917837D02*
G01*
X-325247Y-6917837D01*
X-325247Y-7917835D02*
G01*
X-325247Y-6917837D01*
X-865327Y-7917835D02*
G01*
X-865327Y-6917837D01*
X-403453Y-6838335D02*
G01*
X-403453Y-5838337D01*
X-1017879Y-6838868D02*
G01*
X-1035245Y-6878340D01*
X-935245Y-6878340D01*
X-954938Y-6838868D01*
X-1085245Y-6838335D02*
G01*
X-1085245Y-5838337D01*
X-1085245Y-6838335D02*
G01*
X-325247Y-6838335D01*
X-1085245Y-5838337D02*
G01*
X-325247Y-5838337D01*
X-325247Y-6838335D02*
G01*
X-325247Y-5838337D01*
X-865327Y-6838335D02*
G01*
X-865327Y-5838337D01*
X-329948Y-5412808D02*
G01*
X-415792Y-5412808D01*
X-451865Y-5448876D01*
X-451865Y-5531934D01*
X-329948Y-5568251D02*
G01*
X-415797Y-5568251D01*
X-451865Y-5532183D01*
X-451865Y-5449125D01*
X-329943Y-4904811D02*
G01*
X-415787Y-4904811D01*
X-451860Y-4940876D01*
X-451860Y-5023934D01*
X-329943Y-5060248D02*
G01*
X-415792Y-5060248D01*
X-451860Y-5024186D01*
X-451860Y-4941128D01*
X-329948Y-4552264D02*
G01*
X-415797Y-4552264D01*
X-451865Y-4516196D01*
X-451865Y-4433138D01*
X-329948Y-4396821D02*
G01*
X-415792Y-4396821D01*
X-451865Y-4432889D01*
X-451865Y-4515947D01*
X-407149Y-5743823D02*
G01*
X-407149Y-4219821D01*
X-1021575Y-5743821D02*
G01*
X-1038938Y-5783818D01*
X-938944Y-5783818D01*
X-958631Y-5743821D01*
X-1088941Y-5743823D02*
G01*
X-1088941Y-4219821D01*
X-1088941Y-5743821D02*
G01*
X-328942Y-5743821D01*
X-1088941Y-4219821D02*
G01*
X-328942Y-4219821D01*
X-328942Y-5743823D02*
G01*
X-328942Y-4219821D01*
X-869022Y-5743823D02*
G01*
X-869022Y-4219821D01*
X-403453Y-3023509D02*
G01*
X-403453Y-2023511D01*
X-1017879Y-3024042D02*
G01*
X-1035245Y-3063514D01*
X-935245Y-3063514D01*
X-954938Y-3024042D01*
X-1085245Y-3023509D02*
G01*
X-1085245Y-2023511D01*
X-1085245Y-3023509D02*
G01*
X-325247Y-3023509D01*
X-1085245Y-2023511D02*
G01*
X-325247Y-2023511D01*
X-325247Y-3023509D02*
G01*
X-325247Y-2023511D01*
X-865327Y-3023509D02*
G01*
X-865327Y-2023511D01*
X-8187639Y-7641737D02*
G01*
X-8187639Y-8641735D01*
X-7573213Y-7641203D02*
G01*
X-7555847Y-7601732D01*
X-7655847Y-7601732D01*
X-7636154Y-7641203D01*
X-7505847Y-7641737D02*
G01*
X-7505847Y-8641735D01*
X-7505847Y-7641737D02*
G01*
X-8265845Y-7641737D01*
X-7505847Y-8641735D02*
G01*
X-8265845Y-8641735D01*
X-8265845Y-7641737D02*
G01*
X-8265845Y-8641735D01*
X-7725765Y-7641737D02*
G01*
X-7725765Y-8641735D01*
X-8187639Y-6549537D02*
G01*
X-8187639Y-7549535D01*
X-7573213Y-6549003D02*
G01*
X-7555847Y-6509532D01*
X-7655847Y-6509532D01*
X-7636154Y-6549003D01*
X-7505847Y-6549537D02*
G01*
X-7505847Y-7549535D01*
X-7505847Y-6549537D02*
G01*
X-8265845Y-6549537D01*
X-7505847Y-7549535D02*
G01*
X-8265845Y-7549535D01*
X-8265845Y-6549537D02*
G01*
X-8265845Y-7549535D01*
X-7725765Y-6549537D02*
G01*
X-7725765Y-7549535D01*
X-8187639Y-8721237D02*
G01*
X-8187639Y-9721235D01*
X-7573213Y-8720703D02*
G01*
X-7555847Y-8681232D01*
X-7655847Y-8681232D01*
X-7636154Y-8720703D01*
X-7505847Y-8721237D02*
G01*
X-7505847Y-9721235D01*
X-7505847Y-8721237D02*
G01*
X-8265845Y-8721237D01*
X-7505847Y-9721235D02*
G01*
X-8265845Y-9721235D01*
X-8265845Y-8721237D02*
G01*
X-8265845Y-9721235D01*
X-7725765Y-8721237D02*
G01*
X-7725765Y-9721235D01*
D10*
X-2695346Y-3252236D02*
G01*
X-2504846Y-3252236D01*
X-2504846Y-2998236D01*
X-4028846Y-2998236D01*
X-4028846Y-3252236D01*
D13*
X-4028846Y-3252236D02*
G01*
X-2695346Y-3252236D01*
D10*
X-2746146Y-5030236D02*
G01*
X-2555646Y-5030236D01*
X-2555646Y-4776236D01*
X-4079646Y-4776236D01*
X-4079646Y-5030236D01*
D13*
X-4079646Y-5030236D02*
G01*
X-2746146Y-5030236D01*
D12*
X-2388488Y-939896D02*
G01*
X-2388488Y-2539893D01*
X-4088485Y-2539893D01*
X-4088485Y-939896D01*
X-2388488Y-939896D01*
D10*
X-4994033Y-7925838D02*
G01*
X-4994033Y-7671838D01*
X-3978033Y-7671838D01*
X-3978033Y-7925838D01*
X-4168533Y-7925838D01*
D13*
X-4994033Y-7925838D02*
G01*
X-4168533Y-7925838D01*
D15*
G75*
G01*
X-5166716Y-5664322D02*
G03*
X-5166690Y-5663890I10001J-372D01*
D16*
G75*
G01
X-3578504Y-1089889D02*
G03X-3578504Y-1089889I-59995J0D01*
D12*
X-7155154Y-7611643D02*
G01*
X-2655163Y-7611643D01*
X-2655163Y-9611639D01*
X-7155154Y-9611639D01*
X-7155154Y-7611643D01*
X-2235047Y-8178342D02*
G01*
X-435051Y-8178342D01*
X-435051Y-9578339D01*
X-2235047Y-9578339D01*
X-2235047Y-8178342D01*
X-4511446Y-4661941D02*
G01*
X-2011451Y-4661941D01*
X-2011451Y-6861937D01*
X-4511446Y-6861937D01*
X-4511446Y-4661941D01*
X-4016146Y-2985541D02*
G01*
X-2516149Y-2985541D01*
X-2516149Y-4185539D01*
X-4016146Y-4185539D01*
X-4016146Y-2985541D01*
M02*
