G04 Layer: BottomLayer*
G04 EasyEDA v6.5.42, 2024-04-02 15:40:40*
G04 3ff643a6e98b40ca98db11d284ab65ea,acb5ada5342d49438264df6f97d5643c,10*
G04 Gerber Generator version 0.2*
G04 Scale: 100 percent, Rotated: No, Reflected: No *
G04 Dimensions in millimeters *
G04 leading zeros omitted , absolute positions ,4 integer and 5 decimal *
%FSLAX45Y45*%
%MOMM*%

%AMMACRO1*21,1,$1,$2,0,0,$3*%
%ADD10C,1.0000*%
%ADD11C,0.8000*%
%ADD12R,4.8000X1.2000*%
%ADD13R,1.5748X1.5748*%
%ADD14C,1.5601*%
%ADD15R,1.5601X1.5601*%
%ADD16C,2.0000*%
%ADD17C,1.6000*%
%ADD18MACRO1,1.6X1.2X0.7004*%
%ADD19R,3.5000X1.2000*%
%ADD20MACRO1,1.6X1.2X-179.2996*%
%ADD21C,4.0000*%
%ADD22C,0.6200*%
%ADD23C,1.5600*%
%ADD24C,0.7000*%
%ADD25C,0.0132*%

%LPD*%
G36*
X-8853932Y-10261092D02*
G01*
X-8857843Y-10260330D01*
X-8861094Y-10258094D01*
X-8863330Y-10254843D01*
X-8864092Y-10250932D01*
X-8864092Y-404368D01*
X-8863330Y-400456D01*
X-8861094Y-397205D01*
X-8857843Y-394970D01*
X-8853932Y-394208D01*
X27940Y-394208D01*
X31851Y-394970D01*
X35102Y-397205D01*
X37338Y-400456D01*
X38100Y-404368D01*
X38100Y-1107440D01*
X37490Y-1110945D01*
X35661Y-1114044D01*
X32918Y-1116330D01*
X29514Y-1117498D01*
X22860Y-1118514D01*
X20320Y-1118616D01*
X10922Y-1117650D01*
X-102260Y-1117650D01*
X-102260Y-1181811D01*
X-4673Y-1181811D01*
X-762Y-1182624D01*
X2540Y-1184808D01*
X4724Y-1188110D01*
X5486Y-1191971D01*
X5486Y-1244396D01*
X4724Y-1248257D01*
X2540Y-1251559D01*
X-762Y-1253744D01*
X-4673Y-1254556D01*
X-102260Y-1254556D01*
X-102260Y-1318666D01*
X-4673Y-1318666D01*
X-762Y-1319479D01*
X2540Y-1321663D01*
X4724Y-1324965D01*
X5486Y-1328826D01*
X5486Y-1617522D01*
X4724Y-1621383D01*
X2540Y-1624685D01*
X-762Y-1626920D01*
X-4673Y-1627682D01*
X-102260Y-1627682D01*
X-102260Y-1691843D01*
X-4673Y-1691843D01*
X-762Y-1692605D01*
X2540Y-1694789D01*
X4724Y-1698091D01*
X5486Y-1702003D01*
X5486Y-1754378D01*
X4724Y-1758289D01*
X2540Y-1761540D01*
X-762Y-1763775D01*
X-4673Y-1764538D01*
X-102260Y-1764538D01*
X-102260Y-1828698D01*
X10871Y-1828698D01*
X20523Y-1827682D01*
X23418Y-1827784D01*
X29768Y-1828952D01*
X33070Y-1830171D01*
X35763Y-1832457D01*
X37490Y-1835505D01*
X38100Y-1838960D01*
X38100Y-10250932D01*
X37338Y-10254843D01*
X35102Y-10258094D01*
X31851Y-10260330D01*
X27940Y-10261092D01*
G37*

%LPC*%
G36*
X-469188Y-10215422D02*
G01*
X-461619Y-10211765D01*
X-443077Y-10200690D01*
X-425602Y-10187990D01*
X-409346Y-10173817D01*
X-394462Y-10158222D01*
X-381000Y-10141356D01*
X-369112Y-10123322D01*
X-359968Y-10106304D01*
X-469188Y-10106304D01*
G37*
G36*
X-681888Y-10215422D02*
G01*
X-681888Y-10106304D01*
X-791159Y-10106304D01*
X-782015Y-10123322D01*
X-770128Y-10141356D01*
X-756666Y-10158222D01*
X-741781Y-10173817D01*
X-725525Y-10187990D01*
X-708050Y-10200690D01*
X-689508Y-10211765D01*
G37*
G36*
X-8481872Y-10215422D02*
G01*
X-8481872Y-10106304D01*
X-8591143Y-10106304D01*
X-8581999Y-10123322D01*
X-8570112Y-10141356D01*
X-8556650Y-10158222D01*
X-8541766Y-10173817D01*
X-8525510Y-10187990D01*
X-8508034Y-10200690D01*
X-8489492Y-10211765D01*
G37*
G36*
X-8269173Y-10215422D02*
G01*
X-8261603Y-10211765D01*
X-8243062Y-10200690D01*
X-8225586Y-10187990D01*
X-8209330Y-10173817D01*
X-8194446Y-10158222D01*
X-8180984Y-10141356D01*
X-8169097Y-10123322D01*
X-8159953Y-10106304D01*
X-8269173Y-10106304D01*
G37*
G36*
X-4479544Y-10101021D02*
G01*
X-4479544Y-10054844D01*
X-4525721Y-10054844D01*
X-4521403Y-10065461D01*
X-4515510Y-10075011D01*
X-4508246Y-10083546D01*
X-4499711Y-10090810D01*
X-4490161Y-10096703D01*
G37*
G36*
X-4435856Y-10101021D02*
G01*
X-4425238Y-10096703D01*
X-4415688Y-10090810D01*
X-4407154Y-10083546D01*
X-4399889Y-10075011D01*
X-4393996Y-10065461D01*
X-4389678Y-10054844D01*
X-4435856Y-10054844D01*
G37*
G36*
X-1565656Y-10101021D02*
G01*
X-1555038Y-10096703D01*
X-1545488Y-10090810D01*
X-1536954Y-10083546D01*
X-1529689Y-10075011D01*
X-1523796Y-10065461D01*
X-1519478Y-10054844D01*
X-1565656Y-10054844D01*
G37*
G36*
X-1609344Y-10101021D02*
G01*
X-1609344Y-10054844D01*
X-1655521Y-10054844D01*
X-1651203Y-10065461D01*
X-1645310Y-10075011D01*
X-1638046Y-10083546D01*
X-1629511Y-10090810D01*
X-1619961Y-10096703D01*
G37*
G36*
X-6867144Y-10101021D02*
G01*
X-6867144Y-10054844D01*
X-6913321Y-10054844D01*
X-6909003Y-10065461D01*
X-6903110Y-10075011D01*
X-6895846Y-10083546D01*
X-6887311Y-10090810D01*
X-6877761Y-10096703D01*
G37*
G36*
X-6823456Y-10101021D02*
G01*
X-6812838Y-10096703D01*
X-6803288Y-10090810D01*
X-6794753Y-10083546D01*
X-6787489Y-10075011D01*
X-6781596Y-10065461D01*
X-6777278Y-10054844D01*
X-6823456Y-10054844D01*
G37*
G36*
X-4435856Y-10011156D02*
G01*
X-4389678Y-10011156D01*
X-4393996Y-10000538D01*
X-4399889Y-9990988D01*
X-4407154Y-9982454D01*
X-4415688Y-9975189D01*
X-4425238Y-9969296D01*
X-4435856Y-9964978D01*
G37*
G36*
X-4525721Y-10011156D02*
G01*
X-4479544Y-10011156D01*
X-4479544Y-9964978D01*
X-4490161Y-9969296D01*
X-4499711Y-9975189D01*
X-4508246Y-9982454D01*
X-4515510Y-9990988D01*
X-4521403Y-10000538D01*
G37*
G36*
X-1655521Y-10011156D02*
G01*
X-1609344Y-10011156D01*
X-1609344Y-9964978D01*
X-1619961Y-9969296D01*
X-1629511Y-9975189D01*
X-1638046Y-9982454D01*
X-1645310Y-9990988D01*
X-1651203Y-10000538D01*
G37*
G36*
X-6823456Y-10011156D02*
G01*
X-6777278Y-10011156D01*
X-6781596Y-10000538D01*
X-6787489Y-9990988D01*
X-6794753Y-9982454D01*
X-6803288Y-9975189D01*
X-6812838Y-9969296D01*
X-6823456Y-9964978D01*
G37*
G36*
X-1565656Y-10011156D02*
G01*
X-1519478Y-10011156D01*
X-1523796Y-10000538D01*
X-1529689Y-9990988D01*
X-1536954Y-9982454D01*
X-1545488Y-9975189D01*
X-1555038Y-9969296D01*
X-1565656Y-9964978D01*
G37*
G36*
X-6913321Y-10011156D02*
G01*
X-6867144Y-10011156D01*
X-6867144Y-9964978D01*
X-6877761Y-9969296D01*
X-6887311Y-9975189D01*
X-6895846Y-9982454D01*
X-6903110Y-9990988D01*
X-6909003Y-10000538D01*
G37*
G36*
X-791159Y-9893604D02*
G01*
X-681888Y-9893604D01*
X-681888Y-9784537D01*
X-689508Y-9788194D01*
X-708050Y-9799269D01*
X-725525Y-9811969D01*
X-741781Y-9826142D01*
X-756666Y-9841738D01*
X-770128Y-9858603D01*
X-782015Y-9876637D01*
G37*
G36*
X-469188Y-9893604D02*
G01*
X-359968Y-9893604D01*
X-369112Y-9876637D01*
X-381000Y-9858603D01*
X-394462Y-9841738D01*
X-409346Y-9826142D01*
X-425602Y-9811969D01*
X-443077Y-9799269D01*
X-461619Y-9788194D01*
X-469188Y-9784537D01*
G37*
G36*
X-8269173Y-9893604D02*
G01*
X-8159953Y-9893604D01*
X-8169097Y-9876637D01*
X-8180984Y-9858603D01*
X-8194446Y-9841738D01*
X-8209330Y-9826142D01*
X-8225586Y-9811969D01*
X-8243062Y-9799269D01*
X-8261603Y-9788194D01*
X-8269173Y-9784537D01*
G37*
G36*
X-8591143Y-9893604D02*
G01*
X-8481872Y-9893604D01*
X-8481872Y-9784537D01*
X-8489492Y-9788194D01*
X-8508034Y-9799269D01*
X-8525510Y-9811969D01*
X-8541766Y-9826142D01*
X-8556650Y-9841738D01*
X-8570112Y-9858603D01*
X-8581999Y-9876637D01*
G37*
G36*
X-7965846Y-9612172D02*
G01*
X-7949844Y-9611258D01*
X-7934045Y-9608515D01*
X-7918653Y-9603994D01*
X-7903870Y-9597745D01*
X-7889900Y-9589871D01*
X-7876895Y-9580422D01*
X-7865109Y-9569602D01*
X-7861706Y-9565690D01*
X-7858252Y-9563100D01*
X-7854035Y-9562185D01*
X-6032144Y-9562185D01*
X-6019698Y-9561372D01*
X-6010249Y-9559594D01*
X-6007608Y-9558883D01*
X-5998514Y-9555835D01*
X-5995974Y-9554768D01*
X-5987338Y-9550501D01*
X-5977026Y-9543694D01*
X-5974892Y-9542018D01*
X-5967679Y-9535515D01*
X-4353661Y-7921447D01*
X-4350816Y-7919466D01*
X-4347514Y-7918551D01*
X-4339082Y-7917688D01*
X-4324654Y-7914335D01*
X-4310735Y-7909204D01*
X-4297527Y-7902448D01*
X-4285234Y-7894116D01*
X-4274108Y-7884312D01*
X-4264253Y-7873238D01*
X-4255820Y-7860995D01*
X-4248962Y-7847838D01*
X-4244746Y-7836509D01*
X-4242612Y-7833106D01*
X-4239361Y-7830769D01*
X-4235450Y-7829905D01*
X-4231538Y-7830566D01*
X-4228134Y-7832750D01*
X-4225899Y-7836001D01*
X-4225036Y-7839913D01*
X-4224782Y-7859826D01*
X-4223867Y-7868208D01*
X-4221480Y-7875727D01*
X-4217670Y-7882686D01*
X-4212539Y-7888782D01*
X-4206341Y-7893710D01*
X-4199331Y-7897368D01*
X-4191711Y-7899603D01*
X-4183278Y-7900314D01*
X-4024325Y-7898384D01*
X-4015943Y-7897418D01*
X-4008374Y-7895031D01*
X-4001414Y-7891221D01*
X-3995369Y-7886090D01*
X-3990390Y-7879943D01*
X-3986733Y-7872882D01*
X-3984548Y-7865262D01*
X-3983786Y-7856880D01*
X-3985260Y-7737856D01*
X-3986174Y-7729474D01*
X-3988562Y-7721904D01*
X-3992422Y-7714996D01*
X-3997502Y-7708900D01*
X-4003700Y-7703972D01*
X-4010761Y-7700314D01*
X-4018381Y-7698079D01*
X-4026763Y-7697368D01*
X-4073601Y-7697927D01*
X-4077563Y-7697165D01*
X-4080916Y-7694980D01*
X-4214012Y-7561834D01*
X-4221226Y-7555331D01*
X-4223359Y-7553655D01*
X-4233672Y-7546848D01*
X-4242308Y-7542580D01*
X-4244848Y-7541514D01*
X-4253941Y-7538466D01*
X-4256582Y-7537754D01*
X-4266031Y-7535976D01*
X-4278477Y-7535164D01*
X-7968843Y-7535164D01*
X-7981289Y-7535976D01*
X-7990738Y-7537754D01*
X-7993380Y-7538466D01*
X-8002473Y-7541514D01*
X-8005013Y-7542580D01*
X-8013649Y-7546848D01*
X-8023961Y-7553655D01*
X-8026095Y-7555331D01*
X-8033308Y-7561834D01*
X-8225536Y-7754061D01*
X-8232038Y-7761274D01*
X-8233714Y-7763408D01*
X-8240522Y-7773720D01*
X-8244789Y-7782356D01*
X-8245856Y-7784896D01*
X-8248903Y-7793990D01*
X-8249615Y-7796631D01*
X-8251393Y-7806080D01*
X-8252206Y-7818526D01*
X-8252206Y-8774684D01*
X-8251698Y-8784386D01*
X-8251393Y-8787079D01*
X-8249615Y-8796528D01*
X-8245856Y-8808313D01*
X-8244789Y-8810853D01*
X-8240522Y-8819438D01*
X-8239099Y-8821826D01*
X-8232038Y-8831935D01*
X-8225536Y-8839098D01*
X-8108950Y-8955684D01*
X-8106613Y-8959392D01*
X-8106003Y-8963761D01*
X-8106257Y-8966758D01*
X-8105800Y-8982811D01*
X-8103514Y-8998712D01*
X-8099450Y-9014206D01*
X-8093659Y-9029141D01*
X-8086140Y-9043314D01*
X-8077098Y-9056573D01*
X-8066582Y-9068714D01*
X-8054797Y-9079534D01*
X-8041792Y-9088983D01*
X-8027822Y-9096857D01*
X-8013039Y-9103106D01*
X-7997647Y-9107627D01*
X-7981848Y-9110370D01*
X-7965846Y-9111284D01*
X-7949844Y-9110370D01*
X-7934045Y-9107627D01*
X-7918653Y-9103106D01*
X-7903870Y-9096857D01*
X-7889900Y-9088983D01*
X-7876895Y-9079534D01*
X-7865109Y-9068714D01*
X-7854594Y-9056573D01*
X-7845552Y-9043314D01*
X-7838033Y-9029141D01*
X-7832242Y-9014206D01*
X-7828127Y-8998712D01*
X-7825892Y-8982811D01*
X-7825435Y-8966758D01*
X-7826806Y-8950807D01*
X-7829956Y-8935059D01*
X-7834934Y-8919819D01*
X-7841589Y-8905240D01*
X-7849870Y-8891473D01*
X-7859674Y-8878773D01*
X-7870850Y-8867292D01*
X-7883245Y-8857132D01*
X-7896758Y-8848445D01*
X-7911134Y-8841384D01*
X-7926273Y-8835999D01*
X-7941868Y-8832342D01*
X-7957820Y-8830513D01*
X-7973923Y-8830513D01*
X-7977784Y-8829751D01*
X-7981086Y-8827566D01*
X-8068208Y-8740444D01*
X-8070443Y-8737142D01*
X-8071205Y-8733231D01*
X-8071205Y-8508949D01*
X-8070240Y-8504631D01*
X-8067497Y-8501126D01*
X-8063585Y-8499094D01*
X-8059115Y-8498992D01*
X-8055051Y-8500719D01*
X-8041792Y-8510371D01*
X-8027822Y-8518245D01*
X-8013039Y-8524494D01*
X-7997647Y-8529015D01*
X-7981848Y-8531758D01*
X-7965846Y-8532672D01*
X-7949844Y-8531758D01*
X-7934045Y-8529015D01*
X-7918653Y-8524494D01*
X-7903870Y-8518245D01*
X-7889900Y-8510371D01*
X-7876895Y-8500922D01*
X-7865109Y-8490102D01*
X-7861706Y-8486190D01*
X-7858252Y-8483600D01*
X-7854035Y-8482685D01*
X-5206644Y-8482685D01*
X-5195316Y-8482025D01*
X-5191302Y-8482584D01*
X-5187797Y-8484717D01*
X-5185460Y-8488019D01*
X-5184546Y-8491982D01*
X-5185257Y-8495944D01*
X-5187543Y-8499348D01*
X-6066383Y-9378188D01*
X-6069685Y-9380423D01*
X-6073546Y-9381185D01*
X-7853934Y-9381185D01*
X-7857845Y-9380372D01*
X-7861198Y-9378086D01*
X-7870850Y-9368180D01*
X-7883245Y-9358020D01*
X-7896758Y-9349333D01*
X-7911134Y-9342272D01*
X-7926273Y-9336887D01*
X-7941868Y-9333230D01*
X-7957820Y-9331401D01*
X-7973872Y-9331401D01*
X-7989824Y-9333230D01*
X-8005419Y-9336887D01*
X-8020558Y-9342272D01*
X-8034934Y-9349333D01*
X-8048447Y-9358020D01*
X-8060842Y-9368180D01*
X-8072018Y-9379661D01*
X-8081822Y-9392361D01*
X-8090103Y-9406128D01*
X-8096758Y-9420707D01*
X-8101736Y-9435947D01*
X-8104886Y-9451695D01*
X-8106257Y-9467646D01*
X-8105800Y-9483699D01*
X-8103514Y-9499600D01*
X-8099450Y-9515094D01*
X-8093659Y-9530029D01*
X-8086140Y-9544202D01*
X-8077098Y-9557461D01*
X-8066582Y-9569602D01*
X-8054797Y-9580422D01*
X-8041792Y-9589871D01*
X-8027822Y-9597745D01*
X-8013039Y-9603994D01*
X-7997647Y-9608515D01*
X-7981848Y-9611258D01*
G37*
G36*
X-2163978Y-9543694D02*
G01*
X-2007514Y-9543694D01*
X-1999132Y-9542830D01*
X-1991512Y-9540544D01*
X-1984502Y-9536836D01*
X-1978406Y-9531807D01*
X-1973376Y-9525660D01*
X-1969617Y-9518650D01*
X-1967331Y-9511080D01*
X-1966518Y-9502698D01*
X-1966518Y-9346184D01*
X-1967331Y-9337802D01*
X-1969617Y-9330232D01*
X-1973376Y-9323222D01*
X-1978406Y-9317075D01*
X-1984502Y-9312046D01*
X-1991512Y-9308338D01*
X-1999132Y-9306001D01*
X-2007514Y-9305188D01*
X-2163978Y-9305188D01*
X-2172360Y-9306001D01*
X-2179980Y-9308338D01*
X-2186940Y-9312046D01*
X-2193086Y-9317075D01*
X-2198116Y-9323222D01*
X-2201875Y-9330232D01*
X-2204161Y-9337802D01*
X-2204974Y-9346184D01*
X-2204974Y-9502698D01*
X-2204161Y-9511080D01*
X-2201875Y-9518650D01*
X-2198116Y-9525660D01*
X-2193086Y-9531807D01*
X-2186940Y-9536836D01*
X-2179980Y-9540544D01*
X-2172360Y-9542830D01*
G37*
G36*
X-665378Y-9543694D02*
G01*
X-508914Y-9543694D01*
X-500532Y-9542830D01*
X-492912Y-9540544D01*
X-485901Y-9536836D01*
X-479806Y-9531807D01*
X-474776Y-9525660D01*
X-471017Y-9518650D01*
X-468731Y-9511080D01*
X-467918Y-9502698D01*
X-467918Y-9346184D01*
X-468731Y-9337802D01*
X-471017Y-9330232D01*
X-474776Y-9323222D01*
X-479806Y-9317075D01*
X-485901Y-9312046D01*
X-492912Y-9308338D01*
X-500532Y-9306001D01*
X-508914Y-9305188D01*
X-665378Y-9305188D01*
X-673760Y-9306001D01*
X-681380Y-9308338D01*
X-688340Y-9312046D01*
X-694486Y-9317075D01*
X-699516Y-9323222D01*
X-703275Y-9330232D01*
X-705561Y-9337802D01*
X-706374Y-9346184D01*
X-706374Y-9502698D01*
X-705561Y-9511080D01*
X-703275Y-9518650D01*
X-699516Y-9525660D01*
X-694486Y-9531807D01*
X-688340Y-9536836D01*
X-681380Y-9540544D01*
X-673760Y-9542830D01*
G37*
G36*
X-663854Y-8443620D02*
G01*
X-507390Y-8443620D01*
X-499008Y-8442756D01*
X-491388Y-8440470D01*
X-484378Y-8436762D01*
X-478282Y-8431733D01*
X-473252Y-8425586D01*
X-469493Y-8418576D01*
X-467207Y-8411006D01*
X-466394Y-8402624D01*
X-466394Y-8246109D01*
X-467207Y-8237728D01*
X-469493Y-8230158D01*
X-473252Y-8223148D01*
X-478282Y-8217001D01*
X-484378Y-8211972D01*
X-491388Y-8208264D01*
X-499008Y-8205927D01*
X-507390Y-8205114D01*
X-663854Y-8205114D01*
X-672236Y-8205927D01*
X-679856Y-8208264D01*
X-686816Y-8211972D01*
X-692962Y-8217001D01*
X-697992Y-8223148D01*
X-701751Y-8230158D01*
X-704037Y-8237728D01*
X-704850Y-8246109D01*
X-704850Y-8402624D01*
X-704037Y-8411006D01*
X-701751Y-8418576D01*
X-697992Y-8425586D01*
X-692962Y-8431733D01*
X-686816Y-8436762D01*
X-679856Y-8440470D01*
X-672236Y-8442756D01*
G37*
G36*
X-2163978Y-8438794D02*
G01*
X-2131466Y-8438794D01*
X-2131466Y-8365236D01*
X-2204974Y-8365236D01*
X-2204974Y-8397798D01*
X-2204161Y-8406180D01*
X-2201875Y-8413750D01*
X-2198116Y-8420760D01*
X-2193086Y-8426907D01*
X-2186940Y-8431936D01*
X-2179980Y-8435644D01*
X-2172360Y-8437930D01*
G37*
G36*
X-2040026Y-8438794D02*
G01*
X-2007514Y-8438794D01*
X-1999132Y-8437930D01*
X-1991512Y-8435644D01*
X-1984502Y-8431936D01*
X-1978406Y-8426907D01*
X-1973376Y-8420760D01*
X-1969617Y-8413750D01*
X-1967331Y-8406180D01*
X-1966518Y-8397798D01*
X-1966518Y-8365236D01*
X-2040026Y-8365236D01*
G37*
G36*
X-2204974Y-8273796D02*
G01*
X-2131466Y-8273796D01*
X-2131466Y-8200288D01*
X-2163978Y-8200288D01*
X-2172360Y-8201101D01*
X-2179980Y-8203438D01*
X-2186940Y-8207146D01*
X-2193086Y-8212175D01*
X-2198116Y-8218322D01*
X-2201875Y-8225332D01*
X-2204161Y-8232902D01*
X-2204974Y-8241284D01*
G37*
G36*
X-2040026Y-8273796D02*
G01*
X-1966518Y-8273796D01*
X-1966518Y-8241284D01*
X-1967331Y-8232902D01*
X-1969617Y-8225332D01*
X-1973376Y-8218322D01*
X-1978406Y-8212175D01*
X-1984502Y-8207146D01*
X-1991512Y-8203438D01*
X-1999132Y-8201101D01*
X-2007514Y-8200288D01*
X-2040026Y-8200288D01*
G37*
G36*
X-633272Y-7808518D02*
G01*
X-617220Y-7808518D01*
X-601268Y-7806690D01*
X-585673Y-7803083D01*
X-570534Y-7797698D01*
X-556158Y-7790586D01*
X-542645Y-7781950D01*
X-530250Y-7771790D01*
X-519074Y-7760258D01*
X-509270Y-7747558D01*
X-500989Y-7733842D01*
X-494334Y-7719263D01*
X-489356Y-7703972D01*
X-486206Y-7688275D01*
X-484835Y-7672273D01*
X-485292Y-7656271D01*
X-487527Y-7640370D01*
X-491642Y-7624876D01*
X-497433Y-7609890D01*
X-504951Y-7595717D01*
X-513994Y-7582509D01*
X-524510Y-7570368D01*
X-536295Y-7559497D01*
X-549300Y-7550099D01*
X-563270Y-7542225D01*
X-578053Y-7535976D01*
X-593445Y-7531455D01*
X-609244Y-7528712D01*
X-625246Y-7527798D01*
X-641248Y-7528712D01*
X-644347Y-7529220D01*
X-647598Y-7529271D01*
X-650646Y-7528306D01*
X-653288Y-7526426D01*
X-1094028Y-7085685D01*
X-1096213Y-7082383D01*
X-1096975Y-7078472D01*
X-1096213Y-7074611D01*
X-1094028Y-7071309D01*
X-1090726Y-7069124D01*
X-1086815Y-7068312D01*
X-1021435Y-7068261D01*
X-1012088Y-7067397D01*
X-1009497Y-7066940D01*
X-1000353Y-7064705D01*
X-997864Y-7063892D01*
X-989177Y-7060285D01*
X-978763Y-7054240D01*
X-976630Y-7052716D01*
X-969365Y-7046722D01*
X-653237Y-6730593D01*
X-650798Y-6728815D01*
X-647903Y-6727799D01*
X-644855Y-6727698D01*
X-633272Y-6729018D01*
X-617220Y-6729018D01*
X-601268Y-6727190D01*
X-585673Y-6723583D01*
X-570534Y-6718198D01*
X-556158Y-6711086D01*
X-542645Y-6702450D01*
X-530250Y-6692290D01*
X-519074Y-6680758D01*
X-509270Y-6668058D01*
X-500989Y-6654342D01*
X-494334Y-6639763D01*
X-489356Y-6624472D01*
X-486206Y-6608775D01*
X-484835Y-6592773D01*
X-485292Y-6576771D01*
X-487527Y-6560870D01*
X-491642Y-6545376D01*
X-497433Y-6530390D01*
X-504951Y-6516217D01*
X-513994Y-6503009D01*
X-524510Y-6490868D01*
X-536295Y-6479997D01*
X-549300Y-6470599D01*
X-563270Y-6462725D01*
X-578053Y-6456476D01*
X-593445Y-6451955D01*
X-609244Y-6449212D01*
X-625246Y-6448298D01*
X-641248Y-6449212D01*
X-657047Y-6451955D01*
X-672439Y-6456476D01*
X-687222Y-6462725D01*
X-701192Y-6470599D01*
X-714197Y-6479997D01*
X-725982Y-6490868D01*
X-736498Y-6503009D01*
X-745540Y-6516217D01*
X-753059Y-6530390D01*
X-758850Y-6545376D01*
X-762914Y-6560870D01*
X-765200Y-6576771D01*
X-765657Y-6592773D01*
X-764286Y-6608876D01*
X-764895Y-6613194D01*
X-767232Y-6616903D01*
X-1054658Y-6904329D01*
X-1057960Y-6906514D01*
X-1061821Y-6907326D01*
X-4555998Y-6907326D01*
X-4560062Y-6906463D01*
X-4563465Y-6904024D01*
X-4565599Y-6900418D01*
X-4566107Y-6896252D01*
X-4564888Y-6892239D01*
X-4562144Y-6889089D01*
X-4558385Y-6887260D01*
X-4554169Y-6886244D01*
X-4545126Y-6883247D01*
X-4542586Y-6882180D01*
X-4534001Y-6877913D01*
X-4531614Y-6876491D01*
X-4521504Y-6869430D01*
X-4514342Y-6862927D01*
X-2657754Y-5006340D01*
X-2654503Y-5004155D01*
X-2650693Y-5003342D01*
X-2601925Y-5002784D01*
X-2593543Y-5001818D01*
X-2585974Y-4999431D01*
X-2578049Y-4995011D01*
X-2575661Y-4994097D01*
X-2573121Y-4993741D01*
X-1654962Y-4993741D01*
X-1645259Y-4993233D01*
X-1642567Y-4992928D01*
X-1633118Y-4991150D01*
X-1621332Y-4987391D01*
X-1618792Y-4986324D01*
X-1610207Y-4982057D01*
X-1607820Y-4980635D01*
X-1597710Y-4973574D01*
X-1590548Y-4967071D01*
X-640486Y-4017010D01*
X-637184Y-4014825D01*
X-633272Y-4014012D01*
X-617220Y-4014012D01*
X-601268Y-4012184D01*
X-585673Y-4008577D01*
X-570534Y-4003192D01*
X-556158Y-3996080D01*
X-542645Y-3987444D01*
X-530402Y-3977386D01*
X-527050Y-3975608D01*
X-523290Y-3975150D01*
X-519633Y-3976065D01*
X-516534Y-3978300D01*
X-514502Y-3981551D01*
X-513791Y-3985260D01*
X-513791Y-4366006D01*
X-514553Y-4369816D01*
X-516686Y-4373067D01*
X-519887Y-4375302D01*
X-523697Y-4376166D01*
X-527507Y-4375505D01*
X-530860Y-4373473D01*
X-540004Y-4365091D01*
X-553008Y-4355642D01*
X-566928Y-4347768D01*
X-572566Y-4345381D01*
X-572566Y-4417466D01*
X-523951Y-4417466D01*
X-520090Y-4418279D01*
X-516788Y-4420463D01*
X-514604Y-4423765D01*
X-513791Y-4427626D01*
X-513791Y-4520031D01*
X-514604Y-4523892D01*
X-516788Y-4527194D01*
X-520090Y-4529429D01*
X-523951Y-4530191D01*
X-572566Y-4530191D01*
X-572566Y-4602429D01*
X-559866Y-4596180D01*
X-546354Y-4587494D01*
X-533958Y-4577334D01*
X-531266Y-4574590D01*
X-527964Y-4572304D01*
X-524052Y-4571492D01*
X-520141Y-4572254D01*
X-516839Y-4574438D01*
X-514604Y-4577740D01*
X-513791Y-4581652D01*
X-513791Y-4748631D01*
X-514604Y-4752492D01*
X-516788Y-4755794D01*
X-600964Y-4839970D01*
X-603554Y-4841849D01*
X-606653Y-4842814D01*
X-609854Y-4842764D01*
X-612902Y-4842256D01*
X-628954Y-4841341D01*
X-644956Y-4842256D01*
X-660755Y-4844999D01*
X-676148Y-4849520D01*
X-690930Y-4855768D01*
X-704900Y-4863642D01*
X-717854Y-4873091D01*
X-729691Y-4883912D01*
X-740206Y-4896053D01*
X-749249Y-4909261D01*
X-756716Y-4923485D01*
X-762558Y-4938420D01*
X-766622Y-4953914D01*
X-768908Y-4969814D01*
X-769366Y-4985867D01*
X-767994Y-5001818D01*
X-764794Y-5017566D01*
X-759866Y-5032806D01*
X-753211Y-5047386D01*
X-744931Y-5061153D01*
X-735126Y-5073853D01*
X-723950Y-5085334D01*
X-711504Y-5095494D01*
X-698042Y-5104180D01*
X-683615Y-5111242D01*
X-668528Y-5116626D01*
X-652881Y-5120284D01*
X-636981Y-5122113D01*
X-620928Y-5122113D01*
X-604977Y-5120284D01*
X-589381Y-5116626D01*
X-574243Y-5111242D01*
X-559866Y-5104180D01*
X-546354Y-5095494D01*
X-533958Y-5085334D01*
X-522782Y-5073853D01*
X-512978Y-5061153D01*
X-504698Y-5047386D01*
X-498043Y-5032806D01*
X-493064Y-5017566D01*
X-489864Y-5001818D01*
X-488492Y-4985867D01*
X-488950Y-4969814D01*
X-490016Y-4962499D01*
X-489966Y-4959350D01*
X-489000Y-4956403D01*
X-487121Y-4953863D01*
X-374396Y-4841087D01*
X-368401Y-4833823D01*
X-366877Y-4831689D01*
X-360832Y-4821275D01*
X-357225Y-4812588D01*
X-356412Y-4810099D01*
X-354177Y-4800955D01*
X-353720Y-4798364D01*
X-352856Y-4789017D01*
X-352856Y-3790645D01*
X-353720Y-3781298D01*
X-354177Y-3778707D01*
X-356412Y-3769563D01*
X-357225Y-3767074D01*
X-360832Y-3758387D01*
X-366877Y-3747973D01*
X-368401Y-3745839D01*
X-374396Y-3738575D01*
X-481126Y-3631844D01*
X-488391Y-3625850D01*
X-490524Y-3624326D01*
X-500938Y-3618280D01*
X-509625Y-3614674D01*
X-512114Y-3613861D01*
X-521258Y-3611626D01*
X-523849Y-3611168D01*
X-533196Y-3610305D01*
X-4633366Y-3610305D01*
X-4642713Y-3611168D01*
X-4645304Y-3611626D01*
X-4654448Y-3613861D01*
X-4656937Y-3614674D01*
X-4665624Y-3618280D01*
X-4668012Y-3619500D01*
X-4676038Y-3624326D01*
X-4678222Y-3625850D01*
X-4685436Y-3631844D01*
X-4703013Y-3649370D01*
X-4706213Y-3651504D01*
X-4709972Y-3652316D01*
X-4713782Y-3651656D01*
X-4717084Y-3649675D01*
X-4719370Y-3646576D01*
X-4720336Y-3642817D01*
X-4721148Y-3630066D01*
X-4723942Y-3615436D01*
X-4728514Y-3601262D01*
X-4734864Y-3587800D01*
X-4742840Y-3575253D01*
X-4752340Y-3563772D01*
X-4763160Y-3553612D01*
X-4775200Y-3544874D01*
X-4788255Y-3537661D01*
X-4802073Y-3532225D01*
X-4816500Y-3528517D01*
X-4831232Y-3526637D01*
X-4846116Y-3526637D01*
X-4860899Y-3528517D01*
X-4875326Y-3532225D01*
X-4889144Y-3537661D01*
X-4902200Y-3544874D01*
X-4909108Y-3549904D01*
X-4911953Y-3551326D01*
X-4915103Y-3551834D01*
X-5255666Y-3551834D01*
X-5259374Y-3551123D01*
X-5262626Y-3549040D01*
X-5271160Y-3541014D01*
X-5283200Y-3532276D01*
X-5296255Y-3525113D01*
X-5310073Y-3519627D01*
X-5324500Y-3515918D01*
X-5328666Y-3515410D01*
X-5332628Y-3514039D01*
X-5335676Y-3511245D01*
X-5337352Y-3507384D01*
X-5337352Y-3503218D01*
X-5335676Y-3499408D01*
X-5332628Y-3496614D01*
X-5328666Y-3495243D01*
X-5324500Y-3494735D01*
X-5310073Y-3491026D01*
X-5296255Y-3485540D01*
X-5283200Y-3478377D01*
X-5271160Y-3469640D01*
X-5262626Y-3461613D01*
X-5259425Y-3459530D01*
X-5255666Y-3458819D01*
X-4929581Y-3458819D01*
X-4925872Y-3459530D01*
X-4922621Y-3461613D01*
X-4914239Y-3469487D01*
X-4902200Y-3478225D01*
X-4889144Y-3485387D01*
X-4875326Y-3490874D01*
X-4860899Y-3494582D01*
X-4846116Y-3496462D01*
X-4831232Y-3496462D01*
X-4816500Y-3494582D01*
X-4802073Y-3490874D01*
X-4788255Y-3485387D01*
X-4775200Y-3478225D01*
X-4763160Y-3469487D01*
X-4752340Y-3459327D01*
X-4742840Y-3447846D01*
X-4734864Y-3435299D01*
X-4728514Y-3421786D01*
X-4723942Y-3407664D01*
X-4721148Y-3393033D01*
X-4720234Y-3378200D01*
X-4719624Y-3373120D01*
X-4717237Y-3369513D01*
X-4713579Y-3367227D01*
X-4709312Y-3366617D01*
X-4705146Y-3367887D01*
X-4699000Y-3371342D01*
X-4690516Y-3374847D01*
X-4688027Y-3375660D01*
X-4678883Y-3377946D01*
X-4666945Y-3379266D01*
X-2544775Y-3379266D01*
X-2532837Y-3377946D01*
X-2523693Y-3375660D01*
X-2521204Y-3374847D01*
X-2512517Y-3371240D01*
X-2510180Y-3370072D01*
X-2502103Y-3365195D01*
X-2499969Y-3363671D01*
X-2492705Y-3357676D01*
X-2220010Y-3084982D01*
X-2214016Y-3077768D01*
X-2212492Y-3075584D01*
X-2207666Y-3067558D01*
X-2206447Y-3065170D01*
X-2202840Y-3056483D01*
X-2202027Y-3053994D01*
X-2199792Y-3044850D01*
X-2199335Y-3042259D01*
X-2198471Y-3032912D01*
X-2198471Y-2041601D01*
X-2199335Y-2032254D01*
X-2199792Y-2029663D01*
X-2202027Y-2020519D01*
X-2202840Y-2018030D01*
X-2206447Y-2009343D01*
X-2207666Y-2006955D01*
X-2212492Y-1998929D01*
X-2214016Y-1996744D01*
X-2219960Y-1989582D01*
X-2228596Y-1980946D01*
X-2235758Y-1975002D01*
X-2237943Y-1973478D01*
X-2245969Y-1968652D01*
X-2248357Y-1967433D01*
X-2257044Y-1963826D01*
X-2259533Y-1963013D01*
X-2268677Y-1960778D01*
X-2271268Y-1960321D01*
X-2280615Y-1959457D01*
X-2323439Y-1959406D01*
X-2327757Y-1958441D01*
X-2331262Y-1955698D01*
X-2334869Y-1951278D01*
X-2339187Y-1947722D01*
X-2341930Y-1944217D01*
X-2342896Y-1939899D01*
X-2341930Y-1935530D01*
X-2339187Y-1932025D01*
X-2334869Y-1928520D01*
X-2329840Y-1922373D01*
X-2326132Y-1915363D01*
X-2323795Y-1907793D01*
X-2322982Y-1899412D01*
X-2322982Y-1780387D01*
X-2323795Y-1772005D01*
X-2326132Y-1764385D01*
X-2329840Y-1757425D01*
X-2334869Y-1751279D01*
X-2339187Y-1747723D01*
X-2341930Y-1744218D01*
X-2342896Y-1739900D01*
X-2341930Y-1735531D01*
X-2339187Y-1732025D01*
X-2334869Y-1728520D01*
X-2331313Y-1724101D01*
X-2327808Y-1721408D01*
X-2323439Y-1720392D01*
X-2280615Y-1720342D01*
X-2271268Y-1719478D01*
X-2268677Y-1719021D01*
X-2259533Y-1716786D01*
X-2257044Y-1715973D01*
X-2248357Y-1712366D01*
X-2245969Y-1711147D01*
X-2237943Y-1706321D01*
X-2235758Y-1704797D01*
X-2228545Y-1698802D01*
X-2211019Y-1681276D01*
X-2205075Y-1674114D01*
X-2203551Y-1671929D01*
X-2198725Y-1663903D01*
X-2197506Y-1661515D01*
X-2193899Y-1652828D01*
X-2193086Y-1650339D01*
X-2190851Y-1641195D01*
X-2190394Y-1638604D01*
X-2189530Y-1629257D01*
X-2189480Y-1348130D01*
X-2188667Y-1344218D01*
X-2186482Y-1340916D01*
X-2183180Y-1338732D01*
X-2179320Y-1337970D01*
X-2175408Y-1338732D01*
X-2172106Y-1340916D01*
X-767029Y-2745994D01*
X-765200Y-2748534D01*
X-764184Y-2751531D01*
X-764184Y-2754630D01*
X-765200Y-2761945D01*
X-765657Y-2777947D01*
X-764286Y-2793949D01*
X-761136Y-2809646D01*
X-756158Y-2824937D01*
X-749503Y-2839516D01*
X-741222Y-2853232D01*
X-731418Y-2865932D01*
X-720242Y-2877464D01*
X-707847Y-2887624D01*
X-694334Y-2896260D01*
X-679958Y-2903372D01*
X-664819Y-2908757D01*
X-649224Y-2912364D01*
X-633272Y-2914192D01*
X-617220Y-2914192D01*
X-601268Y-2912364D01*
X-585673Y-2908757D01*
X-570534Y-2903372D01*
X-556158Y-2896260D01*
X-542645Y-2887624D01*
X-530250Y-2877464D01*
X-519074Y-2865932D01*
X-509270Y-2853232D01*
X-500989Y-2839516D01*
X-494334Y-2824937D01*
X-489356Y-2809646D01*
X-486206Y-2793949D01*
X-484835Y-2777947D01*
X-485292Y-2761945D01*
X-487527Y-2746044D01*
X-491642Y-2730550D01*
X-497433Y-2715564D01*
X-504951Y-2701391D01*
X-513994Y-2688183D01*
X-524510Y-2676042D01*
X-536295Y-2665171D01*
X-549300Y-2655773D01*
X-563270Y-2647899D01*
X-578053Y-2641650D01*
X-593445Y-2637129D01*
X-609244Y-2634386D01*
X-625246Y-2633472D01*
X-641248Y-2634386D01*
X-644347Y-2634894D01*
X-647598Y-2634945D01*
X-650646Y-2633980D01*
X-653288Y-2632100D01*
X-2065782Y-1219606D01*
X-2067966Y-1216304D01*
X-2068728Y-1212392D01*
X-2068728Y-917549D01*
X-2067966Y-913637D01*
X-2065782Y-910336D01*
X-2062480Y-908151D01*
X-2058568Y-907389D01*
X-2054707Y-908151D01*
X-2051405Y-910336D01*
X-756056Y-2205685D01*
X-753872Y-2208936D01*
X-753059Y-2212746D01*
X-753770Y-2216556D01*
X-758850Y-2229662D01*
X-762914Y-2245156D01*
X-765200Y-2261057D01*
X-765657Y-2277059D01*
X-764286Y-2293061D01*
X-761136Y-2308758D01*
X-756158Y-2324049D01*
X-749503Y-2338628D01*
X-741222Y-2352344D01*
X-731418Y-2365044D01*
X-720242Y-2376576D01*
X-707847Y-2386736D01*
X-694334Y-2395372D01*
X-679958Y-2402484D01*
X-664819Y-2407869D01*
X-649224Y-2411476D01*
X-633272Y-2413304D01*
X-617220Y-2413304D01*
X-601268Y-2411476D01*
X-585673Y-2407869D01*
X-570534Y-2402484D01*
X-556158Y-2395372D01*
X-542645Y-2386736D01*
X-530250Y-2376576D01*
X-519074Y-2365044D01*
X-509270Y-2352344D01*
X-500989Y-2338628D01*
X-494334Y-2324049D01*
X-489356Y-2308758D01*
X-486206Y-2293061D01*
X-484835Y-2277059D01*
X-485292Y-2261057D01*
X-487527Y-2245156D01*
X-491642Y-2229662D01*
X-497433Y-2214676D01*
X-504951Y-2200503D01*
X-513994Y-2187295D01*
X-524510Y-2175154D01*
X-536295Y-2164283D01*
X-549300Y-2154885D01*
X-563270Y-2147011D01*
X-578053Y-2140762D01*
X-598525Y-2134870D01*
X-601014Y-2133041D01*
X-2153716Y-580390D01*
X-2160930Y-574395D01*
X-2163114Y-572871D01*
X-2171141Y-568045D01*
X-2173528Y-566826D01*
X-2182215Y-563219D01*
X-2184704Y-562406D01*
X-2193848Y-560171D01*
X-2196439Y-559714D01*
X-2205786Y-558850D01*
X-5658612Y-558850D01*
X-5667959Y-559714D01*
X-5670550Y-560171D01*
X-5679694Y-562406D01*
X-5682183Y-563219D01*
X-5690870Y-566826D01*
X-5693257Y-568045D01*
X-5701284Y-572871D01*
X-5703468Y-574395D01*
X-5710682Y-580390D01*
X-7751013Y-2620670D01*
X-7754213Y-2622804D01*
X-7757972Y-2623616D01*
X-7761782Y-2623007D01*
X-7765084Y-2620975D01*
X-7767370Y-2617876D01*
X-7768336Y-2614117D01*
X-7769148Y-2601468D01*
X-7771942Y-2586837D01*
X-7776514Y-2572715D01*
X-7782864Y-2559253D01*
X-7790840Y-2546654D01*
X-7800340Y-2535224D01*
X-7811160Y-2525014D01*
X-7823200Y-2516276D01*
X-7836255Y-2509113D01*
X-7850073Y-2503627D01*
X-7864500Y-2499918D01*
X-7868666Y-2499410D01*
X-7872628Y-2498039D01*
X-7875676Y-2495245D01*
X-7877352Y-2491384D01*
X-7877352Y-2487218D01*
X-7875676Y-2483408D01*
X-7872628Y-2480614D01*
X-7868666Y-2479243D01*
X-7864500Y-2478735D01*
X-7850073Y-2475026D01*
X-7836255Y-2469540D01*
X-7823200Y-2462377D01*
X-7811160Y-2453640D01*
X-7800340Y-2443429D01*
X-7790840Y-2431948D01*
X-7782864Y-2419400D01*
X-7776514Y-2405938D01*
X-7771942Y-2391765D01*
X-7769148Y-2377186D01*
X-7768183Y-2362301D01*
X-7769148Y-2347468D01*
X-7771942Y-2332837D01*
X-7776514Y-2318715D01*
X-7782864Y-2305253D01*
X-7790840Y-2292654D01*
X-7800340Y-2281224D01*
X-7811160Y-2271014D01*
X-7823200Y-2262276D01*
X-7836255Y-2255113D01*
X-7850073Y-2249627D01*
X-7864500Y-2245918D01*
X-7868666Y-2245410D01*
X-7872628Y-2244039D01*
X-7875676Y-2241245D01*
X-7877352Y-2237384D01*
X-7877352Y-2233218D01*
X-7875676Y-2229408D01*
X-7872628Y-2226614D01*
X-7868666Y-2225243D01*
X-7864500Y-2224735D01*
X-7850073Y-2221026D01*
X-7836255Y-2215540D01*
X-7823200Y-2208377D01*
X-7811160Y-2199640D01*
X-7800340Y-2189429D01*
X-7790840Y-2177948D01*
X-7782864Y-2165400D01*
X-7776514Y-2151938D01*
X-7771942Y-2137765D01*
X-7769148Y-2123186D01*
X-7768183Y-2108301D01*
X-7769148Y-2093468D01*
X-7771942Y-2078837D01*
X-7776514Y-2064715D01*
X-7782864Y-2051253D01*
X-7790840Y-2038654D01*
X-7800340Y-2027224D01*
X-7811160Y-2017014D01*
X-7823200Y-2008276D01*
X-7836255Y-2001113D01*
X-7850073Y-1995627D01*
X-7864500Y-1991918D01*
X-7868666Y-1991410D01*
X-7872628Y-1990039D01*
X-7875676Y-1987245D01*
X-7877352Y-1983384D01*
X-7877352Y-1979218D01*
X-7875676Y-1975408D01*
X-7872628Y-1972614D01*
X-7868666Y-1971243D01*
X-7864500Y-1970735D01*
X-7850073Y-1967026D01*
X-7836255Y-1961540D01*
X-7823200Y-1954377D01*
X-7811160Y-1945639D01*
X-7800340Y-1935429D01*
X-7790840Y-1923948D01*
X-7782864Y-1911400D01*
X-7776514Y-1897938D01*
X-7771942Y-1883765D01*
X-7769148Y-1869186D01*
X-7768183Y-1854301D01*
X-7769148Y-1839468D01*
X-7771942Y-1824837D01*
X-7776514Y-1810715D01*
X-7782864Y-1797253D01*
X-7790840Y-1784654D01*
X-7800340Y-1773224D01*
X-7811160Y-1763014D01*
X-7823200Y-1754276D01*
X-7836255Y-1747113D01*
X-7850073Y-1741627D01*
X-7864500Y-1737918D01*
X-7868666Y-1737410D01*
X-7872628Y-1736039D01*
X-7875676Y-1733245D01*
X-7877352Y-1729384D01*
X-7877352Y-1725218D01*
X-7875676Y-1721408D01*
X-7872628Y-1718614D01*
X-7868666Y-1717243D01*
X-7864500Y-1716735D01*
X-7850073Y-1713026D01*
X-7836255Y-1707540D01*
X-7823200Y-1700377D01*
X-7811160Y-1691639D01*
X-7800340Y-1681429D01*
X-7790840Y-1669948D01*
X-7782864Y-1657400D01*
X-7776514Y-1643938D01*
X-7771942Y-1629765D01*
X-7769148Y-1615186D01*
X-7768183Y-1600301D01*
X-7769148Y-1585468D01*
X-7771942Y-1570837D01*
X-7776514Y-1556715D01*
X-7782864Y-1543253D01*
X-7790840Y-1530654D01*
X-7800340Y-1519224D01*
X-7811160Y-1509014D01*
X-7823200Y-1500276D01*
X-7836255Y-1493113D01*
X-7850073Y-1487627D01*
X-7864500Y-1483918D01*
X-7868666Y-1483410D01*
X-7872628Y-1482039D01*
X-7875676Y-1479245D01*
X-7877352Y-1475384D01*
X-7877352Y-1471218D01*
X-7875676Y-1467408D01*
X-7872628Y-1464614D01*
X-7868666Y-1463243D01*
X-7864500Y-1462735D01*
X-7850073Y-1459026D01*
X-7836255Y-1453540D01*
X-7823200Y-1446377D01*
X-7811160Y-1437640D01*
X-7800340Y-1427429D01*
X-7790840Y-1415948D01*
X-7782864Y-1403400D01*
X-7776514Y-1389938D01*
X-7771942Y-1375765D01*
X-7769148Y-1361186D01*
X-7768183Y-1346301D01*
X-7769148Y-1331468D01*
X-7771942Y-1316837D01*
X-7776514Y-1302715D01*
X-7782864Y-1289253D01*
X-7790840Y-1276654D01*
X-7800340Y-1265224D01*
X-7811160Y-1255014D01*
X-7823200Y-1246276D01*
X-7836255Y-1239113D01*
X-7850073Y-1233627D01*
X-7864500Y-1229918D01*
X-7868666Y-1229410D01*
X-7872628Y-1228039D01*
X-7875676Y-1225245D01*
X-7877352Y-1221384D01*
X-7877352Y-1217218D01*
X-7875676Y-1213408D01*
X-7872628Y-1210614D01*
X-7868666Y-1209243D01*
X-7864500Y-1208735D01*
X-7850073Y-1205026D01*
X-7836255Y-1199540D01*
X-7823200Y-1192377D01*
X-7811160Y-1183640D01*
X-7800340Y-1173429D01*
X-7790840Y-1161948D01*
X-7782864Y-1149400D01*
X-7776514Y-1135938D01*
X-7771942Y-1121765D01*
X-7769148Y-1107186D01*
X-7768183Y-1092301D01*
X-7769148Y-1077468D01*
X-7771942Y-1062837D01*
X-7776514Y-1048715D01*
X-7782864Y-1035253D01*
X-7790840Y-1022654D01*
X-7800340Y-1011224D01*
X-7811160Y-1001014D01*
X-7823200Y-992276D01*
X-7836255Y-985113D01*
X-7850073Y-979627D01*
X-7864500Y-975918D01*
X-7879283Y-974090D01*
X-7894116Y-974090D01*
X-7908899Y-975918D01*
X-7923326Y-979627D01*
X-7937144Y-985113D01*
X-7950200Y-992276D01*
X-7962239Y-1001014D01*
X-7970774Y-1009040D01*
X-7974025Y-1011123D01*
X-7977733Y-1011834D01*
X-8303514Y-1011834D01*
X-8307273Y-1011123D01*
X-8310473Y-1009040D01*
X-8319160Y-1000912D01*
X-8331200Y-992174D01*
X-8344255Y-984961D01*
X-8358073Y-979525D01*
X-8372500Y-975817D01*
X-8387232Y-973937D01*
X-8402116Y-973937D01*
X-8416899Y-975817D01*
X-8431326Y-979525D01*
X-8445144Y-984961D01*
X-8458200Y-992174D01*
X-8470239Y-1000912D01*
X-8481060Y-1011072D01*
X-8490559Y-1022553D01*
X-8498535Y-1035100D01*
X-8504885Y-1048562D01*
X-8509457Y-1062736D01*
X-8512251Y-1077366D01*
X-8513165Y-1092200D01*
X-8512251Y-1107033D01*
X-8509457Y-1121664D01*
X-8504885Y-1135786D01*
X-8498535Y-1149299D01*
X-8490559Y-1161846D01*
X-8481060Y-1173327D01*
X-8470239Y-1183487D01*
X-8458200Y-1192225D01*
X-8445144Y-1199388D01*
X-8431326Y-1204874D01*
X-8416899Y-1208582D01*
X-8412683Y-1209090D01*
X-8408771Y-1210462D01*
X-8405672Y-1213307D01*
X-8404047Y-1217117D01*
X-8404047Y-1221282D01*
X-8405672Y-1225092D01*
X-8408771Y-1227937D01*
X-8412683Y-1229258D01*
X-8416899Y-1229817D01*
X-8431326Y-1233525D01*
X-8445144Y-1238961D01*
X-8458200Y-1246174D01*
X-8470239Y-1254912D01*
X-8481060Y-1265072D01*
X-8490559Y-1276553D01*
X-8498535Y-1289100D01*
X-8504885Y-1302562D01*
X-8509457Y-1316736D01*
X-8512251Y-1331366D01*
X-8513165Y-1346200D01*
X-8512251Y-1361033D01*
X-8509457Y-1375664D01*
X-8504885Y-1389786D01*
X-8498535Y-1403299D01*
X-8490559Y-1415846D01*
X-8481060Y-1427327D01*
X-8470239Y-1437487D01*
X-8458200Y-1446225D01*
X-8445144Y-1453388D01*
X-8431326Y-1458874D01*
X-8416899Y-1462582D01*
X-8412683Y-1463090D01*
X-8408771Y-1464462D01*
X-8405672Y-1467307D01*
X-8404047Y-1471117D01*
X-8404047Y-1475282D01*
X-8405672Y-1479092D01*
X-8408771Y-1481937D01*
X-8412683Y-1483258D01*
X-8416899Y-1483817D01*
X-8431326Y-1487525D01*
X-8445144Y-1492961D01*
X-8458200Y-1500174D01*
X-8470239Y-1508912D01*
X-8481060Y-1519072D01*
X-8490559Y-1530553D01*
X-8498535Y-1543100D01*
X-8504885Y-1556562D01*
X-8509457Y-1570736D01*
X-8512251Y-1585366D01*
X-8513165Y-1600200D01*
X-8512251Y-1615033D01*
X-8509457Y-1629664D01*
X-8504885Y-1643786D01*
X-8498535Y-1657299D01*
X-8490559Y-1669846D01*
X-8481060Y-1681327D01*
X-8470239Y-1691487D01*
X-8458200Y-1700225D01*
X-8445144Y-1707388D01*
X-8431326Y-1712874D01*
X-8416899Y-1716582D01*
X-8412683Y-1717090D01*
X-8408771Y-1718462D01*
X-8405672Y-1721307D01*
X-8404047Y-1725117D01*
X-8404047Y-1729282D01*
X-8405672Y-1733092D01*
X-8408771Y-1735937D01*
X-8412683Y-1737258D01*
X-8416899Y-1737817D01*
X-8431326Y-1741525D01*
X-8445144Y-1746961D01*
X-8458200Y-1754174D01*
X-8470239Y-1762912D01*
X-8481060Y-1773072D01*
X-8490559Y-1784553D01*
X-8498535Y-1797100D01*
X-8504885Y-1810562D01*
X-8509457Y-1824736D01*
X-8512251Y-1839366D01*
X-8513165Y-1854200D01*
X-8512251Y-1869033D01*
X-8509457Y-1883664D01*
X-8504885Y-1897786D01*
X-8498535Y-1911299D01*
X-8490559Y-1923846D01*
X-8481060Y-1935327D01*
X-8470239Y-1945487D01*
X-8458200Y-1954225D01*
X-8445144Y-1961388D01*
X-8431326Y-1966874D01*
X-8416899Y-1970582D01*
X-8402116Y-1972462D01*
X-8387232Y-1972462D01*
X-8372500Y-1970582D01*
X-8358073Y-1966874D01*
X-8344255Y-1961388D01*
X-8331200Y-1954225D01*
X-8319160Y-1945487D01*
X-8310778Y-1937613D01*
X-8307527Y-1935530D01*
X-8303818Y-1934819D01*
X-7977733Y-1934819D01*
X-7973974Y-1935530D01*
X-7970774Y-1937613D01*
X-7962239Y-1945639D01*
X-7950200Y-1954377D01*
X-7937144Y-1961540D01*
X-7923326Y-1967026D01*
X-7908899Y-1970735D01*
X-7904734Y-1971243D01*
X-7900771Y-1972614D01*
X-7897723Y-1975408D01*
X-7896047Y-1979218D01*
X-7896047Y-1983384D01*
X-7897723Y-1987245D01*
X-7900771Y-1990039D01*
X-7904734Y-1991410D01*
X-7908899Y-1991918D01*
X-7923326Y-1995627D01*
X-7937144Y-2001113D01*
X-7950200Y-2008276D01*
X-7962239Y-2017014D01*
X-7970774Y-2025040D01*
X-7974025Y-2027123D01*
X-7977733Y-2027834D01*
X-8318296Y-2027834D01*
X-8321446Y-2027326D01*
X-8324291Y-2025904D01*
X-8331200Y-2020874D01*
X-8344255Y-2013661D01*
X-8358073Y-2008225D01*
X-8372500Y-2004517D01*
X-8387232Y-2002637D01*
X-8402116Y-2002637D01*
X-8416899Y-2004517D01*
X-8431326Y-2008225D01*
X-8445144Y-2013661D01*
X-8458200Y-2020874D01*
X-8470239Y-2029612D01*
X-8481060Y-2039772D01*
X-8490559Y-2051253D01*
X-8498535Y-2063800D01*
X-8504885Y-2077262D01*
X-8509457Y-2091436D01*
X-8512251Y-2106015D01*
X-8513216Y-2121916D01*
X-8514080Y-2125472D01*
X-8516162Y-2128520D01*
X-8623554Y-2235962D01*
X-8629548Y-2243175D01*
X-8631072Y-2245360D01*
X-8635898Y-2253386D01*
X-8637117Y-2255774D01*
X-8640724Y-2264460D01*
X-8641537Y-2266950D01*
X-8643772Y-2276094D01*
X-8644229Y-2278684D01*
X-8645093Y-2288032D01*
X-8645093Y-6634378D01*
X-8644229Y-6643725D01*
X-8643772Y-6646316D01*
X-8641537Y-6655460D01*
X-8640724Y-6657949D01*
X-8637117Y-6666636D01*
X-8631072Y-6677050D01*
X-8629548Y-6679184D01*
X-8623554Y-6686448D01*
X-8131302Y-7178700D01*
X-8124037Y-7184694D01*
X-8121903Y-7186218D01*
X-8111490Y-7192264D01*
X-8102803Y-7195870D01*
X-8100314Y-7196683D01*
X-8091373Y-7198868D01*
X-8084921Y-7199731D01*
X-8080959Y-7201153D01*
X-8077860Y-7204049D01*
X-8076285Y-7207961D01*
X-8076387Y-7212177D01*
X-8078216Y-7215987D01*
X-8081822Y-7220661D01*
X-8090103Y-7234428D01*
X-8094319Y-7243622D01*
X-8022183Y-7243622D01*
X-8022183Y-7210450D01*
X-8021421Y-7206589D01*
X-8019237Y-7203287D01*
X-8015935Y-7201103D01*
X-8012023Y-7200290D01*
X-7919669Y-7200290D01*
X-7915757Y-7201103D01*
X-7912455Y-7203287D01*
X-7910271Y-7206589D01*
X-7909509Y-7210450D01*
X-7909509Y-7243622D01*
X-7837373Y-7243622D01*
X-7841589Y-7234428D01*
X-7849870Y-7220661D01*
X-7852968Y-7216648D01*
X-7854848Y-7212584D01*
X-7854797Y-7208113D01*
X-7852816Y-7204100D01*
X-7849311Y-7201306D01*
X-7844942Y-7200290D01*
X-1211275Y-7200290D01*
X-1207414Y-7201103D01*
X-1204112Y-7203287D01*
X-767029Y-7640320D01*
X-765200Y-7642859D01*
X-764184Y-7645857D01*
X-764184Y-7648956D01*
X-765200Y-7656271D01*
X-765657Y-7672273D01*
X-764286Y-7688275D01*
X-761136Y-7703972D01*
X-756158Y-7719263D01*
X-749503Y-7733842D01*
X-741222Y-7747558D01*
X-731418Y-7760258D01*
X-720242Y-7771790D01*
X-707847Y-7781950D01*
X-694334Y-7790586D01*
X-679958Y-7797698D01*
X-664819Y-7803083D01*
X-649224Y-7806690D01*
G37*
G36*
X-7909509Y-7428433D02*
G01*
X-7903870Y-7426045D01*
X-7889900Y-7418171D01*
X-7876895Y-7408722D01*
X-7865109Y-7397902D01*
X-7854594Y-7385761D01*
X-7845552Y-7372502D01*
X-7838033Y-7358329D01*
X-7837271Y-7356348D01*
X-7909509Y-7356348D01*
G37*
G36*
X-8022183Y-7428433D02*
G01*
X-8022183Y-7356348D01*
X-8094421Y-7356348D01*
X-8093608Y-7358329D01*
X-8086140Y-7372502D01*
X-8077098Y-7385761D01*
X-8066582Y-7397902D01*
X-8054797Y-7408722D01*
X-8041792Y-7418171D01*
X-8027822Y-7426045D01*
G37*
G36*
X-681583Y-7295997D02*
G01*
X-681583Y-7223759D01*
X-753719Y-7223759D01*
X-749503Y-7232954D01*
X-741222Y-7246670D01*
X-731418Y-7259370D01*
X-720242Y-7270902D01*
X-707847Y-7281062D01*
X-694334Y-7289698D01*
G37*
G36*
X-568909Y-7295997D02*
G01*
X-556158Y-7289698D01*
X-542645Y-7281062D01*
X-530250Y-7270902D01*
X-519074Y-7259370D01*
X-509270Y-7246670D01*
X-500989Y-7232954D01*
X-496773Y-7223759D01*
X-568909Y-7223759D01*
G37*
G36*
X-568909Y-7111034D02*
G01*
X-496671Y-7111034D01*
X-497433Y-7109002D01*
X-504951Y-7094829D01*
X-513994Y-7081621D01*
X-524510Y-7069480D01*
X-536295Y-7058609D01*
X-549300Y-7049211D01*
X-563270Y-7041337D01*
X-568909Y-7038949D01*
G37*
G36*
X-753821Y-7111034D02*
G01*
X-681583Y-7111034D01*
X-681583Y-7038949D01*
X-687222Y-7041337D01*
X-701192Y-7049211D01*
X-714197Y-7058609D01*
X-725982Y-7069480D01*
X-736498Y-7081621D01*
X-745540Y-7094829D01*
X-753059Y-7109002D01*
G37*
G36*
X-1647443Y-6443421D02*
G01*
X-1647443Y-6397244D01*
X-1693621Y-6397244D01*
X-1689303Y-6407861D01*
X-1683410Y-6417411D01*
X-1676146Y-6425946D01*
X-1667611Y-6433210D01*
X-1658061Y-6439103D01*
G37*
G36*
X-1603756Y-6443421D02*
G01*
X-1593138Y-6439103D01*
X-1583588Y-6433210D01*
X-1575054Y-6425946D01*
X-1567789Y-6417411D01*
X-1561896Y-6407861D01*
X-1557578Y-6397244D01*
X-1603756Y-6397244D01*
G37*
G36*
X-1603756Y-6353556D02*
G01*
X-1557578Y-6353556D01*
X-1561896Y-6342938D01*
X-1567789Y-6333388D01*
X-1575054Y-6324854D01*
X-1583588Y-6317589D01*
X-1593138Y-6311696D01*
X-1603756Y-6307378D01*
G37*
G36*
X-1693621Y-6353556D02*
G01*
X-1647443Y-6353556D01*
X-1647443Y-6307378D01*
X-1658061Y-6311696D01*
X-1667611Y-6317589D01*
X-1676146Y-6324854D01*
X-1683410Y-6333388D01*
X-1689303Y-6342938D01*
G37*
G36*
X-681583Y-6216497D02*
G01*
X-681583Y-6144260D01*
X-753719Y-6144260D01*
X-749503Y-6153454D01*
X-741222Y-6167170D01*
X-731418Y-6179870D01*
X-720242Y-6191402D01*
X-707847Y-6201562D01*
X-694334Y-6210198D01*
G37*
G36*
X-568909Y-6216497D02*
G01*
X-556158Y-6210198D01*
X-542645Y-6201562D01*
X-530250Y-6191402D01*
X-519074Y-6179870D01*
X-509270Y-6167170D01*
X-500989Y-6153454D01*
X-496773Y-6144260D01*
X-568909Y-6144260D01*
G37*
G36*
X-568909Y-6031534D02*
G01*
X-496671Y-6031534D01*
X-497433Y-6029502D01*
X-504951Y-6015329D01*
X-513994Y-6002121D01*
X-524510Y-5989980D01*
X-536295Y-5979109D01*
X-549300Y-5969711D01*
X-563270Y-5961837D01*
X-568909Y-5959449D01*
G37*
G36*
X-753821Y-6031534D02*
G01*
X-681583Y-6031534D01*
X-681583Y-5959449D01*
X-687222Y-5961837D01*
X-701192Y-5969711D01*
X-714197Y-5979109D01*
X-725982Y-5989980D01*
X-736498Y-6002121D01*
X-745540Y-6015329D01*
X-753059Y-6029502D01*
G37*
G36*
X-636981Y-5630113D02*
G01*
X-620928Y-5630113D01*
X-604977Y-5628284D01*
X-589381Y-5624626D01*
X-574243Y-5619242D01*
X-559866Y-5612180D01*
X-546354Y-5603494D01*
X-533958Y-5593334D01*
X-522782Y-5581853D01*
X-512978Y-5569153D01*
X-504698Y-5555386D01*
X-498043Y-5540806D01*
X-493064Y-5525566D01*
X-489864Y-5509818D01*
X-488492Y-5493867D01*
X-488950Y-5477814D01*
X-491235Y-5461914D01*
X-495300Y-5446420D01*
X-501142Y-5431485D01*
X-508609Y-5417312D01*
X-517702Y-5404053D01*
X-528167Y-5391912D01*
X-540004Y-5381091D01*
X-553008Y-5371642D01*
X-566928Y-5363768D01*
X-581710Y-5357520D01*
X-597103Y-5352999D01*
X-612902Y-5350256D01*
X-628954Y-5349341D01*
X-644956Y-5350256D01*
X-660755Y-5352999D01*
X-676148Y-5357520D01*
X-690930Y-5363768D01*
X-704900Y-5371642D01*
X-717854Y-5381091D01*
X-729691Y-5391912D01*
X-740206Y-5404053D01*
X-749249Y-5417312D01*
X-756716Y-5431485D01*
X-762558Y-5446420D01*
X-766622Y-5461914D01*
X-768908Y-5477814D01*
X-769366Y-5493867D01*
X-767994Y-5509818D01*
X-764794Y-5525566D01*
X-759866Y-5540806D01*
X-753211Y-5555386D01*
X-744931Y-5569153D01*
X-735126Y-5581853D01*
X-723950Y-5593334D01*
X-711504Y-5603494D01*
X-698042Y-5612180D01*
X-683615Y-5619242D01*
X-668528Y-5624626D01*
X-652881Y-5628284D01*
G37*
G36*
X-685292Y-4602429D02*
G01*
X-685292Y-4530191D01*
X-757377Y-4530191D01*
X-753211Y-4539386D01*
X-744931Y-4553153D01*
X-735126Y-4565853D01*
X-723950Y-4577334D01*
X-711504Y-4587494D01*
X-698042Y-4596180D01*
G37*
G36*
X-757529Y-4417466D02*
G01*
X-685292Y-4417466D01*
X-685292Y-4345381D01*
X-690930Y-4347768D01*
X-704900Y-4355642D01*
X-717854Y-4365091D01*
X-729691Y-4375912D01*
X-740206Y-4388053D01*
X-749249Y-4401261D01*
X-756716Y-4415485D01*
G37*
G36*
X-681583Y-3501491D02*
G01*
X-681583Y-3429254D01*
X-753719Y-3429254D01*
X-749503Y-3438448D01*
X-741222Y-3452164D01*
X-731418Y-3464864D01*
X-720242Y-3476396D01*
X-707847Y-3486556D01*
X-694334Y-3495192D01*
G37*
G36*
X-568909Y-3501491D02*
G01*
X-556158Y-3495192D01*
X-542645Y-3486556D01*
X-530250Y-3476396D01*
X-519074Y-3464864D01*
X-509270Y-3452164D01*
X-500989Y-3438448D01*
X-496773Y-3429254D01*
X-568909Y-3429254D01*
G37*
G36*
X-568909Y-3316528D02*
G01*
X-496671Y-3316528D01*
X-497433Y-3314496D01*
X-504951Y-3300323D01*
X-513994Y-3287115D01*
X-524510Y-3274974D01*
X-536295Y-3264103D01*
X-549300Y-3254705D01*
X-563270Y-3246831D01*
X-568909Y-3244443D01*
G37*
G36*
X-753821Y-3316528D02*
G01*
X-681583Y-3316528D01*
X-681583Y-3244443D01*
X-687222Y-3246831D01*
X-701192Y-3254705D01*
X-714197Y-3264103D01*
X-725982Y-3274974D01*
X-736498Y-3287115D01*
X-745540Y-3300323D01*
X-753059Y-3314496D01*
G37*
G36*
X-1586890Y-3193288D02*
G01*
X-1586890Y-3147060D01*
X-1633067Y-3147060D01*
X-1628749Y-3157677D01*
X-1622856Y-3167227D01*
X-1615592Y-3175762D01*
X-1607058Y-3183077D01*
X-1597507Y-3188919D01*
G37*
G36*
X-1543202Y-3193288D02*
G01*
X-1532585Y-3188919D01*
X-1523034Y-3183077D01*
X-1514500Y-3175762D01*
X-1507236Y-3167227D01*
X-1501343Y-3157677D01*
X-1497025Y-3147060D01*
X-1543202Y-3147060D01*
G37*
G36*
X-1633067Y-3103372D02*
G01*
X-1586890Y-3103372D01*
X-1586890Y-3057194D01*
X-1597507Y-3061563D01*
X-1607058Y-3067405D01*
X-1615592Y-3074670D01*
X-1622856Y-3083204D01*
X-1628749Y-3092805D01*
G37*
G36*
X-1543202Y-3103372D02*
G01*
X-1497025Y-3103372D01*
X-1501343Y-3092805D01*
X-1507236Y-3083204D01*
X-1514500Y-3074670D01*
X-1523034Y-3067405D01*
X-1532585Y-3061563D01*
X-1543202Y-3057194D01*
G37*
G36*
X-468071Y-1828698D02*
G01*
X-354939Y-1828698D01*
X-354939Y-1764538D01*
X-509117Y-1764538D01*
X-509117Y-1787702D01*
X-508254Y-1796084D01*
X-505968Y-1803654D01*
X-502208Y-1810664D01*
X-497179Y-1816811D01*
X-491083Y-1821840D01*
X-484073Y-1825548D01*
X-476504Y-1827885D01*
G37*
G36*
X-509117Y-1691843D02*
G01*
X-354939Y-1691843D01*
X-354939Y-1627682D01*
X-468071Y-1627682D01*
X-476504Y-1628495D01*
X-484073Y-1630832D01*
X-491083Y-1634540D01*
X-497179Y-1639570D01*
X-502208Y-1645716D01*
X-505968Y-1652727D01*
X-508254Y-1660296D01*
X-509117Y-1668678D01*
G37*
G36*
X-468071Y-1318666D02*
G01*
X-354939Y-1318666D01*
X-354939Y-1254556D01*
X-509117Y-1254556D01*
X-509117Y-1277670D01*
X-508254Y-1286052D01*
X-505968Y-1293672D01*
X-502208Y-1300683D01*
X-497179Y-1306779D01*
X-491083Y-1311808D01*
X-484073Y-1315567D01*
X-476504Y-1317853D01*
G37*
G36*
X-509117Y-1181811D02*
G01*
X-354939Y-1181811D01*
X-354939Y-1117650D01*
X-468071Y-1117650D01*
X-476504Y-1118514D01*
X-484073Y-1120800D01*
X-491083Y-1124559D01*
X-497179Y-1129588D01*
X-502208Y-1135684D01*
X-505968Y-1142695D01*
X-508254Y-1150264D01*
X-509117Y-1158697D01*
G37*
G36*
X-681888Y-865428D02*
G01*
X-681888Y-756361D01*
X-791159Y-756361D01*
X-782015Y-773328D01*
X-770128Y-791362D01*
X-756666Y-808228D01*
X-741781Y-823823D01*
X-725525Y-837996D01*
X-708050Y-850696D01*
X-689508Y-861771D01*
G37*
G36*
X-469188Y-865428D02*
G01*
X-461619Y-861771D01*
X-443077Y-850696D01*
X-425602Y-837996D01*
X-409346Y-823823D01*
X-394462Y-808228D01*
X-381000Y-791362D01*
X-369112Y-773328D01*
X-359968Y-756361D01*
X-469188Y-756361D01*
G37*
G36*
X-8269173Y-865428D02*
G01*
X-8261603Y-861771D01*
X-8243062Y-850696D01*
X-8225586Y-837996D01*
X-8209330Y-823823D01*
X-8194446Y-808228D01*
X-8180984Y-791362D01*
X-8169097Y-773328D01*
X-8159953Y-756361D01*
X-8269173Y-756361D01*
G37*
G36*
X-8481872Y-865428D02*
G01*
X-8481872Y-756361D01*
X-8591143Y-756361D01*
X-8581999Y-773328D01*
X-8570112Y-791362D01*
X-8556650Y-808228D01*
X-8541766Y-823823D01*
X-8525510Y-837996D01*
X-8508034Y-850696D01*
X-8489492Y-861771D01*
G37*
G36*
X-1718056Y-715721D02*
G01*
X-1707438Y-711403D01*
X-1697888Y-705510D01*
X-1689354Y-698246D01*
X-1682089Y-689711D01*
X-1676196Y-680161D01*
X-1671878Y-669544D01*
X-1718056Y-669544D01*
G37*
G36*
X-1761743Y-715721D02*
G01*
X-1761743Y-669544D01*
X-1807921Y-669544D01*
X-1803603Y-680161D01*
X-1797710Y-689711D01*
X-1790446Y-698246D01*
X-1781911Y-705510D01*
X-1772361Y-711403D01*
G37*
G36*
X-6994144Y-715721D02*
G01*
X-6994144Y-669544D01*
X-7040321Y-669544D01*
X-7036003Y-680161D01*
X-7030110Y-689711D01*
X-7022846Y-698246D01*
X-7014311Y-705510D01*
X-7004761Y-711403D01*
G37*
G36*
X-6950456Y-715721D02*
G01*
X-6939838Y-711403D01*
X-6930288Y-705510D01*
X-6921753Y-698246D01*
X-6914489Y-689711D01*
X-6908596Y-680161D01*
X-6904278Y-669544D01*
X-6950456Y-669544D01*
G37*
G36*
X-7040321Y-625856D02*
G01*
X-6994144Y-625856D01*
X-6994144Y-579678D01*
X-7004761Y-583996D01*
X-7014311Y-589889D01*
X-7022846Y-597154D01*
X-7030110Y-605688D01*
X-7036003Y-615238D01*
G37*
G36*
X-1807921Y-625856D02*
G01*
X-1761743Y-625856D01*
X-1761743Y-579678D01*
X-1772361Y-583996D01*
X-1781911Y-589889D01*
X-1790446Y-597154D01*
X-1797710Y-605688D01*
X-1803603Y-615238D01*
G37*
G36*
X-1718056Y-625856D02*
G01*
X-1671878Y-625856D01*
X-1676196Y-615238D01*
X-1682089Y-605688D01*
X-1689354Y-597154D01*
X-1697888Y-589889D01*
X-1707438Y-583996D01*
X-1718056Y-579678D01*
G37*
G36*
X-6950456Y-625856D02*
G01*
X-6904278Y-625856D01*
X-6908596Y-615238D01*
X-6914489Y-605688D01*
X-6921753Y-597154D01*
X-6930288Y-589889D01*
X-6939838Y-583996D01*
X-6950456Y-579678D01*
G37*
G36*
X-791159Y-543661D02*
G01*
X-681888Y-543661D01*
X-681888Y-434543D01*
X-689508Y-438200D01*
X-708050Y-449275D01*
X-725525Y-461975D01*
X-741781Y-476148D01*
X-756666Y-491743D01*
X-770128Y-508609D01*
X-782015Y-526643D01*
G37*
G36*
X-469188Y-543661D02*
G01*
X-359968Y-543661D01*
X-369112Y-526643D01*
X-381000Y-508609D01*
X-394462Y-491743D01*
X-409346Y-476148D01*
X-425602Y-461975D01*
X-443077Y-449275D01*
X-461619Y-438200D01*
X-469188Y-434543D01*
G37*
G36*
X-8591143Y-543661D02*
G01*
X-8481872Y-543661D01*
X-8481872Y-434543D01*
X-8489492Y-438200D01*
X-8508034Y-449275D01*
X-8525510Y-461975D01*
X-8541766Y-476148D01*
X-8556650Y-491743D01*
X-8570112Y-508609D01*
X-8581999Y-526643D01*
G37*
G36*
X-8269173Y-543661D02*
G01*
X-8159953Y-543661D01*
X-8169097Y-526643D01*
X-8180984Y-508609D01*
X-8194446Y-491743D01*
X-8209330Y-476148D01*
X-8225586Y-461975D01*
X-8243062Y-449275D01*
X-8261603Y-438200D01*
X-8269173Y-434543D01*
G37*

%LPD*%
G36*
X-5266791Y-1001826D02*
G01*
X-5269890Y-1001318D01*
X-5272735Y-999896D01*
X-5276291Y-997305D01*
X-5279085Y-994156D01*
X-5280406Y-990142D01*
X-5279948Y-985926D01*
X-5277866Y-982268D01*
X-5274462Y-979830D01*
X-5270296Y-978916D01*
X-4915255Y-978916D01*
X-4911140Y-979830D01*
X-4907686Y-982268D01*
X-4905603Y-985926D01*
X-4905146Y-990142D01*
X-4906467Y-994156D01*
X-4909312Y-997305D01*
X-4912817Y-999896D01*
X-4915662Y-1001318D01*
X-4918811Y-1001826D01*
G37*

%LPD*%
G36*
X-5255666Y-1265834D02*
G01*
X-5259374Y-1265123D01*
X-5262626Y-1263040D01*
X-5271160Y-1255014D01*
X-5283200Y-1246276D01*
X-5296255Y-1239113D01*
X-5310073Y-1233627D01*
X-5324500Y-1229918D01*
X-5328666Y-1229410D01*
X-5332628Y-1228039D01*
X-5335676Y-1225245D01*
X-5337352Y-1221384D01*
X-5337352Y-1217218D01*
X-5335676Y-1213408D01*
X-5332628Y-1210614D01*
X-5328666Y-1209243D01*
X-5324500Y-1208735D01*
X-5310073Y-1205026D01*
X-5296255Y-1199540D01*
X-5283200Y-1192377D01*
X-5272735Y-1184757D01*
X-5269941Y-1183335D01*
X-5266791Y-1182827D01*
X-4918405Y-1182827D01*
X-4915306Y-1183335D01*
X-4912461Y-1184757D01*
X-4902200Y-1192225D01*
X-4889144Y-1199388D01*
X-4875326Y-1204874D01*
X-4860899Y-1208582D01*
X-4856683Y-1209090D01*
X-4852771Y-1210462D01*
X-4849672Y-1213307D01*
X-4848047Y-1217117D01*
X-4848047Y-1221282D01*
X-4849672Y-1225092D01*
X-4852771Y-1227937D01*
X-4856683Y-1229258D01*
X-4860899Y-1229817D01*
X-4875326Y-1233525D01*
X-4889144Y-1238961D01*
X-4902200Y-1246174D01*
X-4914239Y-1254912D01*
X-4922926Y-1263040D01*
X-4926126Y-1265123D01*
X-4929886Y-1265834D01*
G37*

%LPD*%
G36*
X-8303514Y-1265834D02*
G01*
X-8307273Y-1265123D01*
X-8310473Y-1263040D01*
X-8319160Y-1254912D01*
X-8331200Y-1246174D01*
X-8344255Y-1238961D01*
X-8358073Y-1233525D01*
X-8372500Y-1229817D01*
X-8376716Y-1229258D01*
X-8380628Y-1227937D01*
X-8383676Y-1225092D01*
X-8385352Y-1221282D01*
X-8385352Y-1217117D01*
X-8383676Y-1213307D01*
X-8380628Y-1210462D01*
X-8376716Y-1209090D01*
X-8372500Y-1208582D01*
X-8358073Y-1204874D01*
X-8344255Y-1199388D01*
X-8331200Y-1192225D01*
X-8319160Y-1183487D01*
X-8310778Y-1175613D01*
X-8307527Y-1173530D01*
X-8303818Y-1172819D01*
X-7977733Y-1172819D01*
X-7973974Y-1173530D01*
X-7970774Y-1175613D01*
X-7962239Y-1183640D01*
X-7950200Y-1192377D01*
X-7937144Y-1199540D01*
X-7923326Y-1205026D01*
X-7908899Y-1208735D01*
X-7904734Y-1209243D01*
X-7900771Y-1210614D01*
X-7897723Y-1213408D01*
X-7896047Y-1217218D01*
X-7896047Y-1221384D01*
X-7897723Y-1225245D01*
X-7900771Y-1228039D01*
X-7904734Y-1229410D01*
X-7908899Y-1229918D01*
X-7923326Y-1233627D01*
X-7937144Y-1239113D01*
X-7950200Y-1246276D01*
X-7962239Y-1255014D01*
X-7970774Y-1263040D01*
X-7974025Y-1265123D01*
X-7977733Y-1265834D01*
G37*

%LPD*%
G36*
X-8303514Y-1519834D02*
G01*
X-8307273Y-1519123D01*
X-8310473Y-1517040D01*
X-8319160Y-1508912D01*
X-8331200Y-1500174D01*
X-8344255Y-1492961D01*
X-8358073Y-1487525D01*
X-8372500Y-1483817D01*
X-8376716Y-1483258D01*
X-8380628Y-1481937D01*
X-8383676Y-1479092D01*
X-8385352Y-1475282D01*
X-8385352Y-1471117D01*
X-8383676Y-1467307D01*
X-8380628Y-1464462D01*
X-8376716Y-1463090D01*
X-8372500Y-1462582D01*
X-8358073Y-1458874D01*
X-8344255Y-1453388D01*
X-8331200Y-1446225D01*
X-8319160Y-1437487D01*
X-8310778Y-1429613D01*
X-8307527Y-1427530D01*
X-8303818Y-1426819D01*
X-7977733Y-1426819D01*
X-7973974Y-1427530D01*
X-7970774Y-1429613D01*
X-7962239Y-1437640D01*
X-7950200Y-1446377D01*
X-7937144Y-1453540D01*
X-7923326Y-1459026D01*
X-7908899Y-1462735D01*
X-7904734Y-1463243D01*
X-7900771Y-1464614D01*
X-7897723Y-1467408D01*
X-7896047Y-1471218D01*
X-7896047Y-1475384D01*
X-7897723Y-1479245D01*
X-7900771Y-1482039D01*
X-7904734Y-1483410D01*
X-7908899Y-1483918D01*
X-7923326Y-1487627D01*
X-7937144Y-1493113D01*
X-7950200Y-1500276D01*
X-7962239Y-1509014D01*
X-7970774Y-1517040D01*
X-7974025Y-1519123D01*
X-7977733Y-1519834D01*
G37*

%LPD*%
G36*
X-5255666Y-1519834D02*
G01*
X-5259374Y-1519123D01*
X-5262626Y-1517040D01*
X-5271160Y-1509014D01*
X-5283200Y-1500276D01*
X-5296255Y-1493113D01*
X-5310073Y-1487627D01*
X-5324500Y-1483918D01*
X-5328666Y-1483410D01*
X-5332628Y-1482039D01*
X-5335676Y-1479245D01*
X-5337352Y-1475384D01*
X-5337352Y-1471218D01*
X-5335676Y-1467408D01*
X-5332628Y-1464614D01*
X-5328666Y-1463243D01*
X-5324500Y-1462735D01*
X-5310073Y-1459026D01*
X-5296255Y-1453540D01*
X-5283200Y-1446377D01*
X-5271160Y-1437640D01*
X-5262626Y-1429613D01*
X-5259425Y-1427530D01*
X-5255666Y-1426819D01*
X-4929581Y-1426819D01*
X-4925872Y-1427530D01*
X-4922621Y-1429613D01*
X-4914239Y-1437487D01*
X-4902200Y-1446225D01*
X-4889144Y-1453388D01*
X-4875326Y-1458874D01*
X-4860899Y-1462582D01*
X-4856683Y-1463090D01*
X-4852771Y-1464462D01*
X-4849672Y-1467307D01*
X-4848047Y-1471117D01*
X-4848047Y-1475282D01*
X-4849672Y-1479092D01*
X-4852771Y-1481937D01*
X-4856683Y-1483258D01*
X-4860899Y-1483817D01*
X-4875326Y-1487525D01*
X-4889144Y-1492961D01*
X-4902200Y-1500174D01*
X-4914239Y-1508912D01*
X-4922926Y-1517040D01*
X-4926126Y-1519123D01*
X-4929886Y-1519834D01*
G37*

%LPD*%
G36*
X-5255666Y-1773834D02*
G01*
X-5259374Y-1773123D01*
X-5262626Y-1771040D01*
X-5271160Y-1763014D01*
X-5283200Y-1754276D01*
X-5296255Y-1747113D01*
X-5310073Y-1741627D01*
X-5324500Y-1737918D01*
X-5328666Y-1737410D01*
X-5332628Y-1736039D01*
X-5335676Y-1733245D01*
X-5337352Y-1729384D01*
X-5337352Y-1725218D01*
X-5335676Y-1721408D01*
X-5332628Y-1718614D01*
X-5328666Y-1717243D01*
X-5324500Y-1716735D01*
X-5310073Y-1713026D01*
X-5296255Y-1707540D01*
X-5283200Y-1700377D01*
X-5271160Y-1691639D01*
X-5262626Y-1683613D01*
X-5259425Y-1681530D01*
X-5255666Y-1680819D01*
X-4929581Y-1680819D01*
X-4925872Y-1681530D01*
X-4922621Y-1683613D01*
X-4914239Y-1691487D01*
X-4902200Y-1700225D01*
X-4889144Y-1707388D01*
X-4875326Y-1712874D01*
X-4860899Y-1716582D01*
X-4856683Y-1717090D01*
X-4852771Y-1718462D01*
X-4849672Y-1721307D01*
X-4848047Y-1725117D01*
X-4848047Y-1729282D01*
X-4849672Y-1733092D01*
X-4852771Y-1735937D01*
X-4856683Y-1737258D01*
X-4860899Y-1737817D01*
X-4875326Y-1741525D01*
X-4889144Y-1746961D01*
X-4902200Y-1754174D01*
X-4914239Y-1762912D01*
X-4922926Y-1771040D01*
X-4926126Y-1773123D01*
X-4929886Y-1773834D01*
G37*

%LPD*%
G36*
X-8303514Y-1773834D02*
G01*
X-8307273Y-1773123D01*
X-8310473Y-1771040D01*
X-8319160Y-1762912D01*
X-8331200Y-1754174D01*
X-8344255Y-1746961D01*
X-8358073Y-1741525D01*
X-8372500Y-1737817D01*
X-8376716Y-1737258D01*
X-8380628Y-1735937D01*
X-8383676Y-1733092D01*
X-8385352Y-1729282D01*
X-8385352Y-1725117D01*
X-8383676Y-1721307D01*
X-8380628Y-1718462D01*
X-8376716Y-1717090D01*
X-8372500Y-1716582D01*
X-8358073Y-1712874D01*
X-8344255Y-1707388D01*
X-8331200Y-1700225D01*
X-8319160Y-1691487D01*
X-8310778Y-1683613D01*
X-8307527Y-1681530D01*
X-8303818Y-1680819D01*
X-7977733Y-1680819D01*
X-7973974Y-1681530D01*
X-7970774Y-1683613D01*
X-7962239Y-1691639D01*
X-7950200Y-1700377D01*
X-7937144Y-1707540D01*
X-7923326Y-1713026D01*
X-7908899Y-1716735D01*
X-7904734Y-1717243D01*
X-7900771Y-1718614D01*
X-7897723Y-1721408D01*
X-7896047Y-1725218D01*
X-7896047Y-1729384D01*
X-7897723Y-1733245D01*
X-7900771Y-1736039D01*
X-7904734Y-1737410D01*
X-7908899Y-1737918D01*
X-7923326Y-1741627D01*
X-7937144Y-1747113D01*
X-7950200Y-1754276D01*
X-7962239Y-1763014D01*
X-7970774Y-1771040D01*
X-7974025Y-1773123D01*
X-7977733Y-1773834D01*
G37*

%LPD*%
G36*
X-8318296Y-2281834D02*
G01*
X-8321446Y-2281326D01*
X-8324291Y-2279904D01*
X-8331200Y-2274874D01*
X-8344255Y-2267661D01*
X-8358073Y-2262225D01*
X-8372500Y-2258517D01*
X-8376716Y-2257958D01*
X-8380628Y-2256637D01*
X-8383676Y-2253792D01*
X-8385352Y-2249982D01*
X-8385352Y-2245817D01*
X-8383676Y-2242007D01*
X-8380628Y-2239162D01*
X-8376716Y-2237790D01*
X-8372500Y-2237282D01*
X-8358073Y-2233574D01*
X-8344255Y-2228088D01*
X-8331200Y-2220925D01*
X-8319160Y-2212187D01*
X-8308340Y-2202027D01*
X-8300466Y-2192528D01*
X-8296960Y-2189784D01*
X-8292642Y-2188819D01*
X-7977733Y-2188819D01*
X-7973974Y-2189530D01*
X-7970774Y-2191613D01*
X-7962239Y-2199640D01*
X-7950200Y-2208377D01*
X-7937144Y-2215540D01*
X-7923326Y-2221026D01*
X-7908899Y-2224735D01*
X-7904734Y-2225243D01*
X-7900771Y-2226614D01*
X-7897723Y-2229408D01*
X-7896047Y-2233218D01*
X-7896047Y-2237384D01*
X-7897723Y-2241245D01*
X-7900771Y-2244039D01*
X-7904734Y-2245410D01*
X-7908899Y-2245918D01*
X-7923326Y-2249627D01*
X-7937144Y-2255113D01*
X-7950200Y-2262276D01*
X-7962239Y-2271014D01*
X-7970774Y-2279040D01*
X-7974025Y-2281123D01*
X-7977733Y-2281834D01*
G37*

%LPD*%
G36*
X-8472068Y-2525064D02*
G01*
X-8476488Y-2524912D01*
X-8480450Y-2522880D01*
X-8483193Y-2519375D01*
X-8484158Y-2515057D01*
X-8484158Y-2475992D01*
X-8483193Y-2471674D01*
X-8480450Y-2468168D01*
X-8476488Y-2466187D01*
X-8472068Y-2466035D01*
X-8468004Y-2467813D01*
X-8458200Y-2474925D01*
X-8445144Y-2482088D01*
X-8435086Y-2486101D01*
X-8431682Y-2488285D01*
X-8429447Y-2491587D01*
X-8428634Y-2495550D01*
X-8429447Y-2499461D01*
X-8431682Y-2502814D01*
X-8435086Y-2504998D01*
X-8445144Y-2508961D01*
X-8458200Y-2516174D01*
X-8468004Y-2523286D01*
G37*

%LPD*%
G36*
X-8303514Y-2535834D02*
G01*
X-8307273Y-2535123D01*
X-8310473Y-2533040D01*
X-8319160Y-2524912D01*
X-8331200Y-2516174D01*
X-8344255Y-2508961D01*
X-8354314Y-2504998D01*
X-8357717Y-2502814D01*
X-8359952Y-2499461D01*
X-8360765Y-2495550D01*
X-8359952Y-2491587D01*
X-8357717Y-2488285D01*
X-8354314Y-2486101D01*
X-8344255Y-2482088D01*
X-8331200Y-2474925D01*
X-8319160Y-2466187D01*
X-8308340Y-2456027D01*
X-8300466Y-2446528D01*
X-8296960Y-2443784D01*
X-8292642Y-2442819D01*
X-7977733Y-2442819D01*
X-7973974Y-2443530D01*
X-7970774Y-2445613D01*
X-7962239Y-2453640D01*
X-7950200Y-2462377D01*
X-7937144Y-2469540D01*
X-7923326Y-2475026D01*
X-7908899Y-2478735D01*
X-7904734Y-2479243D01*
X-7900771Y-2480614D01*
X-7897723Y-2483408D01*
X-7896047Y-2487218D01*
X-7896047Y-2491384D01*
X-7897723Y-2495245D01*
X-7900771Y-2498039D01*
X-7904734Y-2499410D01*
X-7908899Y-2499918D01*
X-7923326Y-2503627D01*
X-7937144Y-2509113D01*
X-7950200Y-2516276D01*
X-7962239Y-2525014D01*
X-7970774Y-2533040D01*
X-7974025Y-2535123D01*
X-7977733Y-2535834D01*
G37*

%LPD*%
G36*
X-8472068Y-2779064D02*
G01*
X-8476488Y-2778912D01*
X-8480450Y-2776880D01*
X-8483193Y-2773375D01*
X-8484158Y-2769057D01*
X-8484158Y-2717292D01*
X-8483193Y-2712974D01*
X-8480450Y-2709468D01*
X-8476488Y-2707487D01*
X-8472068Y-2707335D01*
X-8468004Y-2709113D01*
X-8458200Y-2716225D01*
X-8445144Y-2723388D01*
X-8431326Y-2728874D01*
X-8416899Y-2732582D01*
X-8412683Y-2733090D01*
X-8408771Y-2734462D01*
X-8405672Y-2737307D01*
X-8404047Y-2741117D01*
X-8404047Y-2745282D01*
X-8405672Y-2749092D01*
X-8408771Y-2751937D01*
X-8412683Y-2753258D01*
X-8416899Y-2753817D01*
X-8431326Y-2757525D01*
X-8445144Y-2762961D01*
X-8458200Y-2770174D01*
X-8468004Y-2777286D01*
G37*

%LPD*%
G36*
X-8303666Y-2789682D02*
G01*
X-8307374Y-2788970D01*
X-8310625Y-2786938D01*
X-8319160Y-2778912D01*
X-8331200Y-2770174D01*
X-8344255Y-2762961D01*
X-8358073Y-2757525D01*
X-8372500Y-2753817D01*
X-8376716Y-2753258D01*
X-8380628Y-2751937D01*
X-8383676Y-2749092D01*
X-8385352Y-2745282D01*
X-8385352Y-2741117D01*
X-8383676Y-2737307D01*
X-8380628Y-2734462D01*
X-8376716Y-2733090D01*
X-8372500Y-2732582D01*
X-8358073Y-2728874D01*
X-8344255Y-2723388D01*
X-8331200Y-2716225D01*
X-8319160Y-2707487D01*
X-8310778Y-2699613D01*
X-8307527Y-2697530D01*
X-8303818Y-2696819D01*
X-7977733Y-2696819D01*
X-7973974Y-2697530D01*
X-7970774Y-2699613D01*
X-7962239Y-2707640D01*
X-7950200Y-2716377D01*
X-7937144Y-2723540D01*
X-7923326Y-2729026D01*
X-7908899Y-2732735D01*
X-7904734Y-2733243D01*
X-7900771Y-2734614D01*
X-7897723Y-2737408D01*
X-7896047Y-2741218D01*
X-7896047Y-2745384D01*
X-7897723Y-2749245D01*
X-7900771Y-2752039D01*
X-7904734Y-2753410D01*
X-7908899Y-2753918D01*
X-7923326Y-2757627D01*
X-7937144Y-2763113D01*
X-7950200Y-2770276D01*
X-7962239Y-2779014D01*
X-7970672Y-2786938D01*
X-7973872Y-2788970D01*
X-7977631Y-2789682D01*
G37*

%LPD*%
G36*
X-5255666Y-2789834D02*
G01*
X-5259374Y-2789123D01*
X-5262626Y-2787040D01*
X-5271160Y-2779014D01*
X-5283200Y-2770276D01*
X-5296255Y-2763113D01*
X-5310073Y-2757627D01*
X-5324500Y-2753918D01*
X-5328666Y-2753410D01*
X-5332628Y-2752039D01*
X-5335676Y-2749245D01*
X-5337352Y-2745384D01*
X-5337352Y-2741218D01*
X-5335676Y-2737408D01*
X-5332628Y-2734614D01*
X-5328666Y-2733243D01*
X-5324500Y-2732735D01*
X-5310073Y-2729026D01*
X-5296255Y-2723540D01*
X-5283200Y-2716377D01*
X-5271160Y-2707640D01*
X-5262626Y-2699613D01*
X-5259425Y-2697530D01*
X-5255666Y-2696819D01*
X-4929581Y-2696819D01*
X-4925872Y-2697530D01*
X-4922621Y-2699613D01*
X-4914239Y-2707487D01*
X-4902200Y-2716225D01*
X-4889144Y-2723388D01*
X-4875326Y-2728874D01*
X-4860899Y-2732582D01*
X-4856683Y-2733090D01*
X-4852771Y-2734462D01*
X-4849672Y-2737307D01*
X-4848047Y-2741117D01*
X-4848047Y-2745282D01*
X-4849672Y-2749092D01*
X-4852771Y-2751937D01*
X-4856683Y-2753258D01*
X-4860899Y-2753817D01*
X-4875326Y-2757525D01*
X-4889144Y-2762961D01*
X-4902200Y-2770174D01*
X-4914239Y-2778912D01*
X-4922926Y-2787040D01*
X-4926126Y-2789123D01*
X-4929886Y-2789834D01*
G37*

%LPD*%
G36*
X-8472068Y-3033064D02*
G01*
X-8476488Y-3032912D01*
X-8480450Y-3030880D01*
X-8483193Y-3027375D01*
X-8484158Y-3023057D01*
X-8484158Y-2971292D01*
X-8483193Y-2966974D01*
X-8480450Y-2963468D01*
X-8476488Y-2961487D01*
X-8472068Y-2961335D01*
X-8468004Y-2963113D01*
X-8458200Y-2970225D01*
X-8445144Y-2977388D01*
X-8431326Y-2982874D01*
X-8416899Y-2986582D01*
X-8412683Y-2987090D01*
X-8408771Y-2988462D01*
X-8405672Y-2991307D01*
X-8404047Y-2995117D01*
X-8404047Y-2999282D01*
X-8405672Y-3003092D01*
X-8408771Y-3005937D01*
X-8412683Y-3007258D01*
X-8416899Y-3007817D01*
X-8431326Y-3011525D01*
X-8445144Y-3016961D01*
X-8458200Y-3024174D01*
X-8468004Y-3031286D01*
G37*

%LPD*%
G36*
X-8303666Y-3043682D02*
G01*
X-8307374Y-3042970D01*
X-8310625Y-3040938D01*
X-8319160Y-3032912D01*
X-8331200Y-3024174D01*
X-8344255Y-3016961D01*
X-8358073Y-3011525D01*
X-8372500Y-3007817D01*
X-8376716Y-3007258D01*
X-8380628Y-3005937D01*
X-8383676Y-3003092D01*
X-8385352Y-2999282D01*
X-8385352Y-2995117D01*
X-8383676Y-2991307D01*
X-8380628Y-2988462D01*
X-8376716Y-2987090D01*
X-8372500Y-2986582D01*
X-8358073Y-2982874D01*
X-8344255Y-2977388D01*
X-8331200Y-2970225D01*
X-8319160Y-2961487D01*
X-8310625Y-2953461D01*
X-8307425Y-2951429D01*
X-8303666Y-2950718D01*
X-7977886Y-2950718D01*
X-7974126Y-2951429D01*
X-7970926Y-2953461D01*
X-7962239Y-2961640D01*
X-7950200Y-2970377D01*
X-7937144Y-2977540D01*
X-7923326Y-2983026D01*
X-7908899Y-2986735D01*
X-7904734Y-2987243D01*
X-7900771Y-2988614D01*
X-7897723Y-2991408D01*
X-7896047Y-2995218D01*
X-7896047Y-2999384D01*
X-7897723Y-3003245D01*
X-7900771Y-3006039D01*
X-7904734Y-3007410D01*
X-7908899Y-3007918D01*
X-7923326Y-3011627D01*
X-7937144Y-3017113D01*
X-7950200Y-3024276D01*
X-7962239Y-3033014D01*
X-7970672Y-3040938D01*
X-7973872Y-3042970D01*
X-7977631Y-3043682D01*
G37*

%LPD*%
G36*
X-5255666Y-3043834D02*
G01*
X-5259374Y-3043123D01*
X-5262626Y-3041040D01*
X-5271160Y-3033014D01*
X-5283200Y-3024276D01*
X-5296255Y-3017113D01*
X-5310073Y-3011627D01*
X-5324500Y-3007918D01*
X-5328666Y-3007410D01*
X-5332628Y-3006039D01*
X-5335676Y-3003245D01*
X-5337352Y-2999384D01*
X-5337352Y-2995218D01*
X-5335676Y-2991408D01*
X-5332628Y-2988614D01*
X-5328666Y-2987243D01*
X-5324500Y-2986735D01*
X-5310073Y-2983026D01*
X-5296255Y-2977540D01*
X-5283200Y-2970377D01*
X-5271160Y-2961640D01*
X-5262626Y-2953613D01*
X-5259425Y-2951530D01*
X-5255666Y-2950819D01*
X-4929581Y-2950819D01*
X-4925872Y-2951530D01*
X-4922621Y-2953613D01*
X-4914239Y-2961487D01*
X-4902200Y-2970225D01*
X-4889144Y-2977388D01*
X-4875326Y-2982874D01*
X-4860899Y-2986582D01*
X-4856683Y-2987090D01*
X-4852771Y-2988462D01*
X-4849672Y-2991307D01*
X-4848047Y-2995117D01*
X-4848047Y-2999282D01*
X-4849672Y-3003092D01*
X-4852771Y-3005937D01*
X-4856683Y-3007258D01*
X-4860899Y-3007817D01*
X-4875326Y-3011525D01*
X-4889144Y-3016961D01*
X-4902200Y-3024174D01*
X-4914239Y-3032912D01*
X-4922926Y-3041040D01*
X-4926126Y-3043123D01*
X-4929886Y-3043834D01*
G37*

%LPD*%
G36*
X-3547110Y-3218281D02*
G01*
X-3551529Y-3217316D01*
X-3555034Y-3214471D01*
X-3557015Y-3210458D01*
X-3557015Y-3205937D01*
X-3555085Y-3201873D01*
X-3548634Y-3193643D01*
X-3541014Y-3180943D01*
X-3534968Y-3167380D01*
X-3530447Y-3152546D01*
X-3528314Y-3148787D01*
X-3524808Y-3146196D01*
X-3520541Y-3145383D01*
X-3516325Y-3146348D01*
X-3512921Y-3149041D01*
X-3510940Y-3152902D01*
X-3508197Y-3163163D01*
X-3502660Y-3176930D01*
X-3495497Y-3189884D01*
X-3486607Y-3202178D01*
X-3484829Y-3206242D01*
X-3484981Y-3210661D01*
X-3487013Y-3214624D01*
X-3490518Y-3217316D01*
X-3494836Y-3218281D01*
G37*

%LPD*%
G36*
X-3293110Y-3218281D02*
G01*
X-3297529Y-3217316D01*
X-3301034Y-3214471D01*
X-3303015Y-3210458D01*
X-3303015Y-3205937D01*
X-3301085Y-3201873D01*
X-3294634Y-3193643D01*
X-3287014Y-3180943D01*
X-3280968Y-3167380D01*
X-3276447Y-3152546D01*
X-3274314Y-3148787D01*
X-3270808Y-3146196D01*
X-3266541Y-3145383D01*
X-3262325Y-3146348D01*
X-3258921Y-3149041D01*
X-3256940Y-3152902D01*
X-3254197Y-3163163D01*
X-3248660Y-3176930D01*
X-3241497Y-3189884D01*
X-3232607Y-3202178D01*
X-3230829Y-3206242D01*
X-3230981Y-3210661D01*
X-3233013Y-3214624D01*
X-3236518Y-3217316D01*
X-3240836Y-3218281D01*
G37*

%LPD*%
G36*
X-3801110Y-3218281D02*
G01*
X-3805529Y-3217316D01*
X-3809034Y-3214471D01*
X-3811015Y-3210458D01*
X-3811015Y-3205937D01*
X-3809085Y-3201873D01*
X-3802634Y-3193643D01*
X-3795014Y-3180943D01*
X-3788968Y-3167380D01*
X-3784447Y-3152546D01*
X-3782314Y-3148787D01*
X-3778808Y-3146196D01*
X-3774541Y-3145383D01*
X-3770325Y-3146348D01*
X-3766921Y-3149041D01*
X-3764940Y-3152902D01*
X-3762197Y-3163163D01*
X-3756660Y-3176930D01*
X-3749497Y-3189884D01*
X-3740607Y-3202178D01*
X-3738829Y-3206242D01*
X-3738981Y-3210661D01*
X-3741013Y-3214624D01*
X-3744518Y-3217316D01*
X-3748836Y-3218281D01*
G37*

%LPD*%
G36*
X-4626559Y-3218281D02*
G01*
X-4630420Y-3217519D01*
X-4633722Y-3215335D01*
X-4717237Y-3131820D01*
X-4719320Y-3128772D01*
X-4720183Y-3125216D01*
X-4721148Y-3109315D01*
X-4723942Y-3094736D01*
X-4728514Y-3080562D01*
X-4734864Y-3067100D01*
X-4742840Y-3054553D01*
X-4752340Y-3043072D01*
X-4763160Y-3032912D01*
X-4775200Y-3024174D01*
X-4788255Y-3016961D01*
X-4802073Y-3011525D01*
X-4816500Y-3007817D01*
X-4820716Y-3007258D01*
X-4824628Y-3005937D01*
X-4827676Y-3003092D01*
X-4829352Y-2999282D01*
X-4829352Y-2995117D01*
X-4827676Y-2991307D01*
X-4824628Y-2988462D01*
X-4820716Y-2987090D01*
X-4816500Y-2986582D01*
X-4802073Y-2982874D01*
X-4788255Y-2977388D01*
X-4775200Y-2970225D01*
X-4763160Y-2961487D01*
X-4754626Y-2953461D01*
X-4751425Y-2951429D01*
X-4747666Y-2950718D01*
X-3997096Y-2950667D01*
X-3985158Y-2949346D01*
X-3976014Y-2947060D01*
X-3973525Y-2946247D01*
X-3964838Y-2942640D01*
X-3962501Y-2941472D01*
X-3954424Y-2936595D01*
X-3952290Y-2935071D01*
X-3945026Y-2929077D01*
X-3524351Y-2508402D01*
X-3518357Y-2501138D01*
X-3516833Y-2499004D01*
X-3511956Y-2490927D01*
X-3510787Y-2488590D01*
X-3507181Y-2479903D01*
X-3506368Y-2477414D01*
X-3504082Y-2468270D01*
X-3502761Y-2456332D01*
X-3502710Y-2267102D01*
X-3501948Y-2263241D01*
X-3499764Y-2259939D01*
X-2763215Y-1523390D01*
X-2759913Y-1521206D01*
X-2756001Y-1520393D01*
X-2753563Y-1520393D01*
X-2749194Y-1521409D01*
X-2745689Y-1524101D01*
X-2742082Y-1528521D01*
X-2737815Y-1532026D01*
X-2735072Y-1535531D01*
X-2734056Y-1539900D01*
X-2735072Y-1544218D01*
X-2737815Y-1547723D01*
X-2742082Y-1551279D01*
X-2747111Y-1557426D01*
X-2750870Y-1564386D01*
X-2753156Y-1572006D01*
X-2754020Y-1580388D01*
X-2754020Y-1699412D01*
X-2753156Y-1707794D01*
X-2750870Y-1715363D01*
X-2747111Y-1722374D01*
X-2742082Y-1728520D01*
X-2737815Y-1732025D01*
X-2735072Y-1735531D01*
X-2734056Y-1739900D01*
X-2735072Y-1744218D01*
X-2737815Y-1747723D01*
X-2742082Y-1751279D01*
X-2747111Y-1757425D01*
X-2750870Y-1764385D01*
X-2753156Y-1772005D01*
X-2754020Y-1780387D01*
X-2754020Y-1899412D01*
X-2753156Y-1907793D01*
X-2750870Y-1915363D01*
X-2747111Y-1922373D01*
X-2742082Y-1928520D01*
X-2737815Y-1932025D01*
X-2735072Y-1935530D01*
X-2734056Y-1939899D01*
X-2735072Y-1944217D01*
X-2737815Y-1947722D01*
X-2742082Y-1951278D01*
X-2747111Y-1957425D01*
X-2750870Y-1964385D01*
X-2753156Y-1972005D01*
X-2754020Y-1980387D01*
X-2754020Y-2099411D01*
X-2753156Y-2107793D01*
X-2750870Y-2115362D01*
X-2747111Y-2122373D01*
X-2742082Y-2128520D01*
X-2737815Y-2132025D01*
X-2735072Y-2135530D01*
X-2734056Y-2139899D01*
X-2735072Y-2144217D01*
X-2737815Y-2147722D01*
X-2742082Y-2151278D01*
X-2747111Y-2157425D01*
X-2750870Y-2164384D01*
X-2753156Y-2172004D01*
X-2754020Y-2180386D01*
X-2754020Y-2299411D01*
X-2753156Y-2307793D01*
X-2750870Y-2315362D01*
X-2747111Y-2322372D01*
X-2742082Y-2328519D01*
X-2737815Y-2332024D01*
X-2735072Y-2335530D01*
X-2734056Y-2339898D01*
X-2735072Y-2344216D01*
X-2737815Y-2347722D01*
X-2742082Y-2351278D01*
X-2747111Y-2357424D01*
X-2750870Y-2364435D01*
X-2753156Y-2372004D01*
X-2754020Y-2380386D01*
X-2754020Y-2499410D01*
X-2753156Y-2507792D01*
X-2750870Y-2515362D01*
X-2747111Y-2522372D01*
X-2742082Y-2528519D01*
X-2735986Y-2533548D01*
X-2728976Y-2537256D01*
X-2721406Y-2539593D01*
X-2712974Y-2540406D01*
X-2369566Y-2540406D01*
X-2365705Y-2541168D01*
X-2362403Y-2543352D01*
X-2360218Y-2546654D01*
X-2359406Y-2550566D01*
X-2359406Y-2992526D01*
X-2360218Y-2996438D01*
X-2362403Y-2999740D01*
X-2493975Y-3131312D01*
X-2497277Y-3133496D01*
X-2501138Y-3134309D01*
X-2504998Y-3133547D01*
X-2508300Y-3131362D01*
X-2510536Y-3128111D01*
X-2511348Y-3124250D01*
X-2512060Y-3064256D01*
X-2513025Y-3055874D01*
X-2515412Y-3048304D01*
X-2519222Y-3041396D01*
X-2524302Y-3035300D01*
X-2530500Y-3030372D01*
X-2537561Y-3026714D01*
X-2545181Y-3024479D01*
X-2553563Y-3023768D01*
X-2712567Y-3025698D01*
X-2720949Y-3026613D01*
X-2728518Y-3029051D01*
X-2735478Y-3032861D01*
X-2741523Y-3037941D01*
X-2746502Y-3044139D01*
X-2750159Y-3051200D01*
X-2752344Y-3058820D01*
X-2753055Y-3067202D01*
X-2752902Y-3081020D01*
X-2753512Y-3084169D01*
X-2752801Y-3087420D01*
X-2751937Y-3159810D01*
X-2752547Y-3163062D01*
X-2751836Y-3166160D01*
X-2751632Y-3186226D01*
X-2750667Y-3194608D01*
X-2746451Y-3207258D01*
X-2746959Y-3211372D01*
X-2749092Y-3214979D01*
X-2752496Y-3217418D01*
X-2756611Y-3218281D01*
X-2785110Y-3218281D01*
X-2789529Y-3217316D01*
X-2793034Y-3214471D01*
X-2795016Y-3210458D01*
X-2795016Y-3205937D01*
X-2793085Y-3201873D01*
X-2786634Y-3193643D01*
X-2779014Y-3180943D01*
X-2774238Y-3170224D01*
X-2838907Y-3171037D01*
X-2838500Y-3208020D01*
X-2839212Y-3211931D01*
X-2841396Y-3215284D01*
X-2844698Y-3217519D01*
X-2848660Y-3218281D01*
X-2921000Y-3218281D01*
X-2924860Y-3217519D01*
X-2928162Y-3215335D01*
X-2930398Y-3212084D01*
X-2931160Y-3208274D01*
X-2931617Y-3172155D01*
X-2996285Y-3172917D01*
X-2994660Y-3176930D01*
X-2987497Y-3189884D01*
X-2978607Y-3202178D01*
X-2976829Y-3206242D01*
X-2976981Y-3210661D01*
X-2979013Y-3214624D01*
X-2982518Y-3217316D01*
X-2986836Y-3218281D01*
X-3039110Y-3218281D01*
X-3043529Y-3217316D01*
X-3047034Y-3214471D01*
X-3049016Y-3210458D01*
X-3049016Y-3205937D01*
X-3047085Y-3201873D01*
X-3040634Y-3193643D01*
X-3033014Y-3180943D01*
X-3026968Y-3167380D01*
X-3022650Y-3153156D01*
X-3020110Y-3138576D01*
X-3019348Y-3123742D01*
X-3020466Y-3108960D01*
X-3023362Y-3094431D01*
X-3028035Y-3080359D01*
X-3034385Y-3066948D01*
X-3042361Y-3054400D01*
X-3051810Y-3042970D01*
X-3062579Y-3032760D01*
X-3074517Y-3023971D01*
X-3087471Y-3016707D01*
X-3101187Y-3011119D01*
X-3115513Y-3007207D01*
X-3130194Y-3005124D01*
X-3145028Y-3004870D01*
X-3159760Y-3006394D01*
X-3174238Y-3009747D01*
X-3188157Y-3014878D01*
X-3201365Y-3021634D01*
X-3213608Y-3029966D01*
X-3224784Y-3039770D01*
X-3234639Y-3050844D01*
X-3243072Y-3063036D01*
X-3249930Y-3076194D01*
X-3255111Y-3090113D01*
X-3256940Y-3097733D01*
X-3258565Y-3101289D01*
X-3261410Y-3103981D01*
X-3265017Y-3105404D01*
X-3268929Y-3105353D01*
X-3272536Y-3103778D01*
X-3275279Y-3100984D01*
X-3276752Y-3097377D01*
X-3277362Y-3094431D01*
X-3282035Y-3080359D01*
X-3288385Y-3066948D01*
X-3296361Y-3054400D01*
X-3305810Y-3042970D01*
X-3316579Y-3032760D01*
X-3328517Y-3023971D01*
X-3341471Y-3016707D01*
X-3355187Y-3011119D01*
X-3369513Y-3007207D01*
X-3384194Y-3005124D01*
X-3399028Y-3004870D01*
X-3413760Y-3006394D01*
X-3428237Y-3009747D01*
X-3442157Y-3014878D01*
X-3455365Y-3021634D01*
X-3467608Y-3029966D01*
X-3478784Y-3039770D01*
X-3488639Y-3050844D01*
X-3497072Y-3063036D01*
X-3503929Y-3076194D01*
X-3509111Y-3090113D01*
X-3510940Y-3097733D01*
X-3512565Y-3101289D01*
X-3515410Y-3103981D01*
X-3519017Y-3105404D01*
X-3522929Y-3105353D01*
X-3526536Y-3103778D01*
X-3529279Y-3100984D01*
X-3530752Y-3097377D01*
X-3531362Y-3094431D01*
X-3536035Y-3080359D01*
X-3542385Y-3066948D01*
X-3550361Y-3054400D01*
X-3559810Y-3042970D01*
X-3570579Y-3032760D01*
X-3582517Y-3023971D01*
X-3595471Y-3016707D01*
X-3609187Y-3011119D01*
X-3623513Y-3007207D01*
X-3638194Y-3005124D01*
X-3653028Y-3004870D01*
X-3667760Y-3006394D01*
X-3682237Y-3009747D01*
X-3696157Y-3014878D01*
X-3709365Y-3021634D01*
X-3721608Y-3029966D01*
X-3732784Y-3039770D01*
X-3742639Y-3050844D01*
X-3751072Y-3063036D01*
X-3757929Y-3076194D01*
X-3763111Y-3090113D01*
X-3764940Y-3097733D01*
X-3766565Y-3101289D01*
X-3769410Y-3103981D01*
X-3773017Y-3105404D01*
X-3776929Y-3105353D01*
X-3780536Y-3103778D01*
X-3783279Y-3100984D01*
X-3784752Y-3097377D01*
X-3785362Y-3094431D01*
X-3790035Y-3080359D01*
X-3796385Y-3066948D01*
X-3804361Y-3054400D01*
X-3813810Y-3042970D01*
X-3824579Y-3032760D01*
X-3836517Y-3023971D01*
X-3849471Y-3016707D01*
X-3863187Y-3011119D01*
X-3877513Y-3007207D01*
X-3892194Y-3005124D01*
X-3907028Y-3004870D01*
X-3921760Y-3006394D01*
X-3936237Y-3009747D01*
X-3950157Y-3014878D01*
X-3963365Y-3021634D01*
X-3975608Y-3029966D01*
X-3986784Y-3039770D01*
X-3996639Y-3050844D01*
X-4005072Y-3063036D01*
X-4011929Y-3076194D01*
X-4017111Y-3090113D01*
X-4020565Y-3104540D01*
X-4022191Y-3119272D01*
X-4021988Y-3134106D01*
X-4020007Y-3148838D01*
X-4016197Y-3163163D01*
X-4010660Y-3176930D01*
X-4003497Y-3189884D01*
X-3994607Y-3202178D01*
X-3992829Y-3206242D01*
X-3992981Y-3210661D01*
X-3995013Y-3214624D01*
X-3998518Y-3217316D01*
X-4002836Y-3218281D01*
G37*

%LPC*%
G36*
X-2997403Y-3080258D02*
G01*
X-2932734Y-3079445D01*
X-2933547Y-3014624D01*
X-2947365Y-3021634D01*
X-2959608Y-3029966D01*
X-2970784Y-3039770D01*
X-2980639Y-3050844D01*
X-2989072Y-3063036D01*
X-2995930Y-3076194D01*
G37*
G36*
X-2840075Y-3078327D02*
G01*
X-2775356Y-3077514D01*
X-2780385Y-3066948D01*
X-2788361Y-3054400D01*
X-2797810Y-3042970D01*
X-2808579Y-3032760D01*
X-2820517Y-3023971D01*
X-2833471Y-3016707D01*
X-2840837Y-3013710D01*
G37*

%LPD*%
G36*
X-8472068Y-3287064D02*
G01*
X-8476488Y-3286912D01*
X-8480450Y-3284880D01*
X-8483193Y-3281375D01*
X-8484158Y-3277057D01*
X-8484158Y-3225292D01*
X-8483193Y-3220974D01*
X-8480450Y-3217468D01*
X-8476488Y-3215487D01*
X-8472068Y-3215335D01*
X-8468004Y-3217113D01*
X-8458200Y-3224225D01*
X-8445144Y-3231388D01*
X-8431326Y-3236874D01*
X-8416899Y-3240582D01*
X-8412683Y-3241090D01*
X-8408771Y-3242462D01*
X-8405672Y-3245307D01*
X-8404047Y-3249117D01*
X-8404047Y-3253282D01*
X-8405672Y-3257092D01*
X-8408771Y-3259937D01*
X-8412683Y-3261258D01*
X-8416899Y-3261817D01*
X-8431326Y-3265525D01*
X-8445144Y-3270961D01*
X-8458200Y-3278174D01*
X-8468004Y-3285286D01*
G37*

%LPD*%
G36*
X-8303514Y-3297834D02*
G01*
X-8307273Y-3297123D01*
X-8310473Y-3295040D01*
X-8319160Y-3286912D01*
X-8331200Y-3278174D01*
X-8344255Y-3270961D01*
X-8358073Y-3265525D01*
X-8372500Y-3261817D01*
X-8376716Y-3261258D01*
X-8380628Y-3259937D01*
X-8383676Y-3257092D01*
X-8385352Y-3253282D01*
X-8385352Y-3249117D01*
X-8383676Y-3245307D01*
X-8380628Y-3242462D01*
X-8376716Y-3241090D01*
X-8372500Y-3240582D01*
X-8358073Y-3236874D01*
X-8344255Y-3231388D01*
X-8331200Y-3224225D01*
X-8319160Y-3215487D01*
X-8310625Y-3207461D01*
X-8307425Y-3205429D01*
X-8303666Y-3204718D01*
X-7977886Y-3204718D01*
X-7974126Y-3205429D01*
X-7970926Y-3207461D01*
X-7962239Y-3215640D01*
X-7950200Y-3224377D01*
X-7937144Y-3231540D01*
X-7923326Y-3237026D01*
X-7908899Y-3240735D01*
X-7904734Y-3241243D01*
X-7900771Y-3242614D01*
X-7897723Y-3245408D01*
X-7896047Y-3249218D01*
X-7896047Y-3253384D01*
X-7897723Y-3257245D01*
X-7900771Y-3260039D01*
X-7904734Y-3261410D01*
X-7908899Y-3261918D01*
X-7923326Y-3265627D01*
X-7937144Y-3271113D01*
X-7950200Y-3278276D01*
X-7962239Y-3287014D01*
X-7970774Y-3295040D01*
X-7974025Y-3297123D01*
X-7977733Y-3297834D01*
G37*

%LPD*%
G36*
X-5255666Y-3297834D02*
G01*
X-5259374Y-3297123D01*
X-5262626Y-3295040D01*
X-5271160Y-3287014D01*
X-5283200Y-3278276D01*
X-5296255Y-3271113D01*
X-5310073Y-3265627D01*
X-5324500Y-3261918D01*
X-5328666Y-3261410D01*
X-5332628Y-3260039D01*
X-5335676Y-3257245D01*
X-5337352Y-3253384D01*
X-5337352Y-3249218D01*
X-5335676Y-3245408D01*
X-5332628Y-3242614D01*
X-5328666Y-3241243D01*
X-5324500Y-3240735D01*
X-5310073Y-3237026D01*
X-5296255Y-3231540D01*
X-5283200Y-3224377D01*
X-5271160Y-3215640D01*
X-5262626Y-3207613D01*
X-5259425Y-3205530D01*
X-5255666Y-3204819D01*
X-4929581Y-3204819D01*
X-4925872Y-3205530D01*
X-4922621Y-3207613D01*
X-4914239Y-3215487D01*
X-4902200Y-3224225D01*
X-4889144Y-3231388D01*
X-4875326Y-3236874D01*
X-4860899Y-3240582D01*
X-4856683Y-3241090D01*
X-4852771Y-3242462D01*
X-4849672Y-3245307D01*
X-4848047Y-3249117D01*
X-4848047Y-3253282D01*
X-4849672Y-3257092D01*
X-4852771Y-3259937D01*
X-4856683Y-3261258D01*
X-4860899Y-3261817D01*
X-4875326Y-3265525D01*
X-4889144Y-3270961D01*
X-4902200Y-3278174D01*
X-4914239Y-3286912D01*
X-4922926Y-3295040D01*
X-4926126Y-3297123D01*
X-4929886Y-3297834D01*
G37*

%LPD*%
G36*
X-7757972Y-3385769D02*
G01*
X-7761782Y-3385108D01*
X-7765084Y-3383076D01*
X-7767370Y-3379978D01*
X-7768336Y-3376218D01*
X-7769148Y-3363468D01*
X-7771942Y-3348837D01*
X-7776514Y-3334715D01*
X-7782864Y-3321253D01*
X-7790840Y-3308654D01*
X-7800340Y-3297224D01*
X-7811160Y-3287014D01*
X-7823200Y-3278276D01*
X-7836255Y-3271113D01*
X-7850073Y-3265627D01*
X-7864500Y-3261918D01*
X-7868666Y-3261410D01*
X-7872628Y-3260039D01*
X-7875676Y-3257245D01*
X-7877352Y-3253384D01*
X-7877352Y-3249218D01*
X-7875676Y-3245408D01*
X-7872628Y-3242614D01*
X-7868666Y-3241243D01*
X-7864500Y-3240735D01*
X-7850073Y-3237026D01*
X-7836255Y-3231540D01*
X-7823200Y-3224377D01*
X-7811160Y-3215640D01*
X-7800340Y-3205429D01*
X-7790840Y-3193948D01*
X-7782864Y-3181400D01*
X-7776514Y-3167938D01*
X-7771942Y-3153765D01*
X-7769148Y-3139186D01*
X-7768183Y-3123184D01*
X-7767320Y-3119628D01*
X-7765237Y-3116580D01*
X-5496560Y-847902D01*
X-5493258Y-845718D01*
X-5489346Y-844905D01*
X-5469026Y-844905D01*
X-5465114Y-845718D01*
X-5461812Y-847902D01*
X-5459628Y-851204D01*
X-5458866Y-855065D01*
X-5459628Y-858977D01*
X-5461812Y-862279D01*
X-6689902Y-2090420D01*
X-6695897Y-2097633D01*
X-6697421Y-2099818D01*
X-6702298Y-2107844D01*
X-6703466Y-2110232D01*
X-6707073Y-2118918D01*
X-6707886Y-2121408D01*
X-6710172Y-2130552D01*
X-6711492Y-2142490D01*
X-6711543Y-2339086D01*
X-6712305Y-2342997D01*
X-6714490Y-2346299D01*
X-7751013Y-3382772D01*
X-7754213Y-3384956D01*
G37*

%LPD*%
G36*
X-8472068Y-3553764D02*
G01*
X-8476488Y-3553612D01*
X-8480450Y-3551580D01*
X-8483193Y-3548075D01*
X-8484158Y-3543757D01*
X-8484158Y-3479292D01*
X-8483193Y-3474974D01*
X-8480450Y-3471468D01*
X-8476488Y-3469487D01*
X-8472068Y-3469335D01*
X-8468004Y-3471113D01*
X-8458200Y-3478225D01*
X-8445144Y-3485387D01*
X-8431326Y-3490874D01*
X-8416899Y-3494582D01*
X-8402116Y-3496462D01*
X-8387232Y-3496462D01*
X-8372500Y-3494582D01*
X-8358073Y-3490874D01*
X-8344255Y-3485387D01*
X-8331200Y-3478225D01*
X-8319160Y-3469487D01*
X-8310778Y-3461613D01*
X-8307527Y-3459530D01*
X-8303818Y-3458819D01*
X-7977733Y-3458819D01*
X-7973974Y-3459530D01*
X-7970774Y-3461613D01*
X-7962239Y-3469640D01*
X-7950200Y-3478377D01*
X-7937144Y-3485540D01*
X-7923326Y-3491026D01*
X-7908899Y-3494735D01*
X-7904734Y-3495243D01*
X-7900771Y-3496614D01*
X-7897723Y-3499408D01*
X-7896047Y-3503218D01*
X-7896047Y-3507384D01*
X-7897723Y-3511245D01*
X-7900771Y-3514039D01*
X-7904734Y-3515410D01*
X-7908899Y-3515918D01*
X-7923326Y-3519627D01*
X-7937144Y-3525113D01*
X-7950200Y-3532276D01*
X-7962239Y-3541014D01*
X-7970774Y-3549040D01*
X-7974025Y-3551123D01*
X-7977733Y-3551834D01*
X-8318296Y-3551834D01*
X-8321446Y-3551326D01*
X-8324291Y-3549904D01*
X-8331200Y-3544874D01*
X-8344255Y-3537661D01*
X-8358073Y-3532225D01*
X-8372500Y-3528517D01*
X-8387232Y-3526637D01*
X-8402116Y-3526637D01*
X-8416899Y-3528517D01*
X-8431326Y-3532225D01*
X-8445144Y-3537661D01*
X-8458200Y-3544874D01*
X-8468004Y-3551986D01*
G37*

%LPD*%
G36*
X-8318296Y-3805834D02*
G01*
X-8321446Y-3805326D01*
X-8324291Y-3803904D01*
X-8331200Y-3798874D01*
X-8344255Y-3791661D01*
X-8358073Y-3786225D01*
X-8372500Y-3782517D01*
X-8376716Y-3781958D01*
X-8380628Y-3780637D01*
X-8383676Y-3777792D01*
X-8385352Y-3773982D01*
X-8385352Y-3769817D01*
X-8383676Y-3766007D01*
X-8380628Y-3763162D01*
X-8376716Y-3761790D01*
X-8372500Y-3761282D01*
X-8358073Y-3757574D01*
X-8344255Y-3752087D01*
X-8331200Y-3744925D01*
X-8319160Y-3736187D01*
X-8308340Y-3726027D01*
X-8300466Y-3716528D01*
X-8296960Y-3713784D01*
X-8292642Y-3712819D01*
X-7977733Y-3712819D01*
X-7973974Y-3713530D01*
X-7970774Y-3715613D01*
X-7962239Y-3723640D01*
X-7950200Y-3732377D01*
X-7937144Y-3739540D01*
X-7923326Y-3745026D01*
X-7908899Y-3748735D01*
X-7904734Y-3749243D01*
X-7900771Y-3750614D01*
X-7897723Y-3753408D01*
X-7896047Y-3757218D01*
X-7896047Y-3761384D01*
X-7897723Y-3765245D01*
X-7900771Y-3768039D01*
X-7904734Y-3769410D01*
X-7908899Y-3769918D01*
X-7923326Y-3773627D01*
X-7937144Y-3779113D01*
X-7950200Y-3786276D01*
X-7962239Y-3795014D01*
X-7970774Y-3803040D01*
X-7974025Y-3805123D01*
X-7977733Y-3805834D01*
G37*

%LPD*%
G36*
X-8472068Y-3807764D02*
G01*
X-8476488Y-3807612D01*
X-8480450Y-3805580D01*
X-8483193Y-3802075D01*
X-8484158Y-3797757D01*
X-8484158Y-3745992D01*
X-8483193Y-3741674D01*
X-8480450Y-3738168D01*
X-8476488Y-3736187D01*
X-8472068Y-3736035D01*
X-8468004Y-3737813D01*
X-8458200Y-3744925D01*
X-8445144Y-3752087D01*
X-8431326Y-3757574D01*
X-8416899Y-3761282D01*
X-8412683Y-3761790D01*
X-8408771Y-3763162D01*
X-8405672Y-3766007D01*
X-8404047Y-3769817D01*
X-8404047Y-3773982D01*
X-8405672Y-3777792D01*
X-8408771Y-3780637D01*
X-8412683Y-3781958D01*
X-8416899Y-3782517D01*
X-8431326Y-3786225D01*
X-8445144Y-3791661D01*
X-8458200Y-3798874D01*
X-8468004Y-3805986D01*
G37*

%LPD*%
G36*
X-5244642Y-3818382D02*
G01*
X-5248960Y-3817416D01*
X-5252466Y-3814724D01*
X-5260340Y-3805224D01*
X-5271160Y-3795014D01*
X-5283200Y-3786276D01*
X-5296255Y-3779113D01*
X-5310073Y-3773627D01*
X-5324500Y-3769918D01*
X-5328666Y-3769410D01*
X-5332628Y-3768039D01*
X-5335676Y-3765245D01*
X-5337352Y-3761384D01*
X-5337352Y-3757218D01*
X-5335676Y-3753408D01*
X-5332628Y-3750614D01*
X-5328666Y-3749243D01*
X-5324500Y-3748735D01*
X-5310073Y-3745026D01*
X-5296255Y-3739540D01*
X-5283200Y-3732377D01*
X-5271160Y-3723640D01*
X-5262626Y-3715613D01*
X-5259425Y-3713530D01*
X-5255666Y-3712819D01*
X-4940757Y-3712819D01*
X-4936439Y-3713784D01*
X-4932934Y-3716528D01*
X-4925060Y-3726027D01*
X-4914239Y-3736187D01*
X-4902200Y-3744925D01*
X-4889144Y-3752087D01*
X-4875326Y-3757574D01*
X-4860899Y-3761282D01*
X-4856683Y-3761790D01*
X-4852771Y-3763162D01*
X-4849672Y-3766007D01*
X-4848047Y-3769817D01*
X-4848047Y-3773982D01*
X-4849672Y-3777792D01*
X-4852771Y-3780637D01*
X-4856683Y-3781958D01*
X-4860899Y-3782517D01*
X-4875326Y-3786225D01*
X-4889144Y-3791661D01*
X-4902200Y-3798874D01*
X-4914239Y-3807612D01*
X-4922774Y-3815638D01*
X-4926025Y-3817670D01*
X-4929733Y-3818382D01*
G37*

%LPD*%
G36*
X-5255666Y-4059834D02*
G01*
X-5259374Y-4059123D01*
X-5262626Y-4057040D01*
X-5271160Y-4049014D01*
X-5283200Y-4040276D01*
X-5296255Y-4033113D01*
X-5310073Y-4027627D01*
X-5324500Y-4023918D01*
X-5328666Y-4023410D01*
X-5332628Y-4022039D01*
X-5335676Y-4019245D01*
X-5337352Y-4015384D01*
X-5337352Y-4011218D01*
X-5335676Y-4007408D01*
X-5332628Y-4004614D01*
X-5328666Y-4003243D01*
X-5324500Y-4002735D01*
X-5310073Y-3999026D01*
X-5296255Y-3993540D01*
X-5283200Y-3986377D01*
X-5276291Y-3981348D01*
X-5273446Y-3979926D01*
X-5270347Y-3979418D01*
X-4929733Y-3979418D01*
X-4925974Y-3980129D01*
X-4922774Y-3982161D01*
X-4914239Y-3990187D01*
X-4902200Y-3998925D01*
X-4889144Y-4006087D01*
X-4879086Y-4010101D01*
X-4875682Y-4012285D01*
X-4873447Y-4015587D01*
X-4872634Y-4019550D01*
X-4873447Y-4023461D01*
X-4875682Y-4026814D01*
X-4879086Y-4028998D01*
X-4889144Y-4032961D01*
X-4902200Y-4040174D01*
X-4914239Y-4048912D01*
X-4922926Y-4057040D01*
X-4926126Y-4059123D01*
X-4929886Y-4059834D01*
G37*

%LPD*%
G36*
X-5255666Y-4313834D02*
G01*
X-5259374Y-4313123D01*
X-5262626Y-4311040D01*
X-5271160Y-4303014D01*
X-5283200Y-4294276D01*
X-5296255Y-4287113D01*
X-5310073Y-4281627D01*
X-5324500Y-4277918D01*
X-5328666Y-4277410D01*
X-5332628Y-4276039D01*
X-5335676Y-4273245D01*
X-5337352Y-4269384D01*
X-5337352Y-4265218D01*
X-5335676Y-4261408D01*
X-5332628Y-4258614D01*
X-5328666Y-4257243D01*
X-5324500Y-4256735D01*
X-5310073Y-4253026D01*
X-5296255Y-4247540D01*
X-5283200Y-4240377D01*
X-5271160Y-4231640D01*
X-5262626Y-4223613D01*
X-5259425Y-4221530D01*
X-5255666Y-4220819D01*
X-4929581Y-4220819D01*
X-4925872Y-4221530D01*
X-4922621Y-4223613D01*
X-4914239Y-4231487D01*
X-4902200Y-4240225D01*
X-4889144Y-4247388D01*
X-4875326Y-4252874D01*
X-4860899Y-4256582D01*
X-4856683Y-4257090D01*
X-4852771Y-4258462D01*
X-4849672Y-4261307D01*
X-4848047Y-4265117D01*
X-4848047Y-4269282D01*
X-4849672Y-4273092D01*
X-4852771Y-4275937D01*
X-4856683Y-4277258D01*
X-4860899Y-4277817D01*
X-4875326Y-4281525D01*
X-4889144Y-4286961D01*
X-4902200Y-4294174D01*
X-4914239Y-4302912D01*
X-4922926Y-4311040D01*
X-4926126Y-4313123D01*
X-4929886Y-4313834D01*
G37*

%LPD*%
G36*
X-8472068Y-4557064D02*
G01*
X-8476488Y-4556912D01*
X-8480450Y-4554880D01*
X-8483193Y-4551375D01*
X-8484158Y-4547057D01*
X-8484158Y-4495292D01*
X-8483193Y-4490974D01*
X-8480450Y-4487468D01*
X-8476488Y-4485487D01*
X-8472068Y-4485335D01*
X-8468004Y-4487113D01*
X-8458200Y-4494225D01*
X-8445144Y-4501388D01*
X-8431326Y-4506874D01*
X-8416899Y-4510582D01*
X-8412683Y-4511090D01*
X-8408771Y-4512462D01*
X-8405672Y-4515307D01*
X-8404047Y-4519117D01*
X-8404047Y-4523282D01*
X-8405672Y-4527092D01*
X-8408771Y-4529937D01*
X-8412683Y-4531258D01*
X-8416899Y-4531817D01*
X-8431326Y-4535525D01*
X-8445144Y-4540961D01*
X-8458200Y-4548174D01*
X-8468004Y-4555286D01*
G37*

%LPD*%
G36*
X-5255666Y-4567834D02*
G01*
X-5259374Y-4567123D01*
X-5262626Y-4565040D01*
X-5271160Y-4557014D01*
X-5283200Y-4548276D01*
X-5296255Y-4541113D01*
X-5310073Y-4535627D01*
X-5324500Y-4531918D01*
X-5328666Y-4531410D01*
X-5332628Y-4530039D01*
X-5335676Y-4527245D01*
X-5337352Y-4523384D01*
X-5337352Y-4519218D01*
X-5335676Y-4515408D01*
X-5332628Y-4512614D01*
X-5328666Y-4511243D01*
X-5324500Y-4510735D01*
X-5310073Y-4507026D01*
X-5296255Y-4501540D01*
X-5283200Y-4494377D01*
X-5271160Y-4485640D01*
X-5262626Y-4477613D01*
X-5259425Y-4475530D01*
X-5255666Y-4474819D01*
X-4929581Y-4474819D01*
X-4925872Y-4475530D01*
X-4922621Y-4477613D01*
X-4914239Y-4485487D01*
X-4902200Y-4494225D01*
X-4889144Y-4501388D01*
X-4875326Y-4506874D01*
X-4860899Y-4510582D01*
X-4856683Y-4511090D01*
X-4852771Y-4512462D01*
X-4849672Y-4515307D01*
X-4848047Y-4519117D01*
X-4848047Y-4523282D01*
X-4849672Y-4527092D01*
X-4852771Y-4529937D01*
X-4856683Y-4531258D01*
X-4860899Y-4531817D01*
X-4875326Y-4535525D01*
X-4889144Y-4540961D01*
X-4902200Y-4548174D01*
X-4914239Y-4556912D01*
X-4922926Y-4565040D01*
X-4926126Y-4567123D01*
X-4929886Y-4567834D01*
G37*

%LPD*%
G36*
X-8303514Y-4567834D02*
G01*
X-8307273Y-4567123D01*
X-8310473Y-4565040D01*
X-8319160Y-4556912D01*
X-8331200Y-4548174D01*
X-8344255Y-4540961D01*
X-8358073Y-4535525D01*
X-8372500Y-4531817D01*
X-8376716Y-4531258D01*
X-8380628Y-4529937D01*
X-8383676Y-4527092D01*
X-8385352Y-4523282D01*
X-8385352Y-4519117D01*
X-8383676Y-4515307D01*
X-8380628Y-4512462D01*
X-8376716Y-4511090D01*
X-8372500Y-4510582D01*
X-8358073Y-4506874D01*
X-8344255Y-4501388D01*
X-8331200Y-4494225D01*
X-8319160Y-4485487D01*
X-8310778Y-4477613D01*
X-8307527Y-4475530D01*
X-8303818Y-4474819D01*
X-7977733Y-4474819D01*
X-7973974Y-4475530D01*
X-7970774Y-4477613D01*
X-7962239Y-4485640D01*
X-7950200Y-4494377D01*
X-7937144Y-4501540D01*
X-7923326Y-4507026D01*
X-7908899Y-4510735D01*
X-7904734Y-4511243D01*
X-7900771Y-4512614D01*
X-7897723Y-4515408D01*
X-7896047Y-4519218D01*
X-7896047Y-4523384D01*
X-7897723Y-4527245D01*
X-7900771Y-4530039D01*
X-7904734Y-4531410D01*
X-7908899Y-4531918D01*
X-7923326Y-4535627D01*
X-7937144Y-4541113D01*
X-7950200Y-4548276D01*
X-7962239Y-4557014D01*
X-7970774Y-4565040D01*
X-7974025Y-4567123D01*
X-7977733Y-4567834D01*
G37*

%LPD*%
G36*
X-8472068Y-4811064D02*
G01*
X-8476488Y-4810912D01*
X-8480450Y-4808880D01*
X-8483193Y-4805375D01*
X-8484158Y-4801057D01*
X-8484158Y-4749292D01*
X-8483193Y-4744974D01*
X-8480450Y-4741468D01*
X-8476488Y-4739487D01*
X-8472068Y-4739335D01*
X-8468004Y-4741113D01*
X-8458200Y-4748225D01*
X-8445144Y-4755388D01*
X-8431326Y-4760874D01*
X-8416899Y-4764582D01*
X-8412683Y-4765090D01*
X-8408771Y-4766462D01*
X-8405672Y-4769307D01*
X-8404047Y-4773117D01*
X-8404047Y-4777282D01*
X-8405672Y-4781092D01*
X-8408771Y-4783937D01*
X-8412683Y-4785258D01*
X-8416899Y-4785817D01*
X-8431326Y-4789525D01*
X-8445144Y-4794961D01*
X-8458200Y-4802174D01*
X-8468004Y-4809286D01*
G37*

%LPD*%
G36*
X-5255666Y-4821834D02*
G01*
X-5259374Y-4821123D01*
X-5262626Y-4819040D01*
X-5271160Y-4811014D01*
X-5283200Y-4802276D01*
X-5296255Y-4795113D01*
X-5310073Y-4789627D01*
X-5324500Y-4785918D01*
X-5328666Y-4785410D01*
X-5332628Y-4784039D01*
X-5335676Y-4781245D01*
X-5337352Y-4777384D01*
X-5337352Y-4773218D01*
X-5335676Y-4769408D01*
X-5332628Y-4766614D01*
X-5328666Y-4765243D01*
X-5324500Y-4764735D01*
X-5310073Y-4761026D01*
X-5296255Y-4755540D01*
X-5283200Y-4748377D01*
X-5271160Y-4739640D01*
X-5262626Y-4731613D01*
X-5259425Y-4729530D01*
X-5255666Y-4728819D01*
X-4929581Y-4728819D01*
X-4925872Y-4729530D01*
X-4922621Y-4731613D01*
X-4914239Y-4739487D01*
X-4902200Y-4748225D01*
X-4889144Y-4755388D01*
X-4875326Y-4760874D01*
X-4860899Y-4764582D01*
X-4856683Y-4765090D01*
X-4852771Y-4766462D01*
X-4849672Y-4769307D01*
X-4848047Y-4773117D01*
X-4848047Y-4777282D01*
X-4849672Y-4781092D01*
X-4852771Y-4783937D01*
X-4856683Y-4785258D01*
X-4860899Y-4785817D01*
X-4875326Y-4789525D01*
X-4889144Y-4794961D01*
X-4902200Y-4802174D01*
X-4914239Y-4810912D01*
X-4922926Y-4819040D01*
X-4926126Y-4821123D01*
X-4929886Y-4821834D01*
G37*

%LPD*%
G36*
X-8303514Y-4821834D02*
G01*
X-8307273Y-4821123D01*
X-8310473Y-4819040D01*
X-8319160Y-4810912D01*
X-8331200Y-4802174D01*
X-8344255Y-4794961D01*
X-8358073Y-4789525D01*
X-8372500Y-4785817D01*
X-8376716Y-4785258D01*
X-8380628Y-4783937D01*
X-8383676Y-4781092D01*
X-8385352Y-4777282D01*
X-8385352Y-4773117D01*
X-8383676Y-4769307D01*
X-8380628Y-4766462D01*
X-8376716Y-4765090D01*
X-8372500Y-4764582D01*
X-8358073Y-4760874D01*
X-8344255Y-4755388D01*
X-8331200Y-4748225D01*
X-8319160Y-4739487D01*
X-8310778Y-4731613D01*
X-8307527Y-4729530D01*
X-8303818Y-4728819D01*
X-7977733Y-4728819D01*
X-7973974Y-4729530D01*
X-7970774Y-4731613D01*
X-7962239Y-4739640D01*
X-7950200Y-4748377D01*
X-7937144Y-4755540D01*
X-7923326Y-4761026D01*
X-7908899Y-4764735D01*
X-7904734Y-4765243D01*
X-7900771Y-4766614D01*
X-7897723Y-4769408D01*
X-7896047Y-4773218D01*
X-7896047Y-4777384D01*
X-7897723Y-4781245D01*
X-7900771Y-4784039D01*
X-7904734Y-4785410D01*
X-7908899Y-4785918D01*
X-7923326Y-4789627D01*
X-7937144Y-4795113D01*
X-7950200Y-4802276D01*
X-7962239Y-4811014D01*
X-7970774Y-4819040D01*
X-7974025Y-4821123D01*
X-7977733Y-4821834D01*
G37*

%LPD*%
G36*
X-3353968Y-5023358D02*
G01*
X-3357879Y-5022545D01*
X-3361182Y-5020360D01*
X-3363366Y-5017058D01*
X-3364128Y-5013198D01*
X-3364128Y-4996992D01*
X-3363366Y-4993081D01*
X-3361131Y-4989779D01*
X-3354628Y-4983327D01*
X-3345434Y-4971643D01*
X-3337814Y-4958943D01*
X-3331768Y-4945380D01*
X-3327247Y-4930546D01*
X-3325114Y-4926787D01*
X-3321608Y-4924196D01*
X-3317341Y-4923383D01*
X-3313125Y-4924348D01*
X-3309721Y-4927041D01*
X-3307740Y-4930902D01*
X-3304997Y-4941163D01*
X-3299460Y-4954930D01*
X-3296716Y-4959908D01*
X-3295497Y-4964074D01*
X-3296107Y-4968341D01*
X-3298444Y-4971999D01*
X-3346805Y-5020360D01*
X-3350107Y-5022545D01*
G37*

%LPD*%
G36*
X-8472068Y-5077764D02*
G01*
X-8476488Y-5077612D01*
X-8480450Y-5075580D01*
X-8483193Y-5072075D01*
X-8484158Y-5067757D01*
X-8484158Y-5003292D01*
X-8483193Y-4998974D01*
X-8480450Y-4995468D01*
X-8476488Y-4993487D01*
X-8472068Y-4993335D01*
X-8468004Y-4995113D01*
X-8458200Y-5002225D01*
X-8445144Y-5009388D01*
X-8431326Y-5014874D01*
X-8416899Y-5018582D01*
X-8402116Y-5020462D01*
X-8387232Y-5020462D01*
X-8372500Y-5018582D01*
X-8358073Y-5014874D01*
X-8344255Y-5009388D01*
X-8331200Y-5002225D01*
X-8319160Y-4993487D01*
X-8310778Y-4985613D01*
X-8307527Y-4983530D01*
X-8303818Y-4982819D01*
X-7977733Y-4982819D01*
X-7973974Y-4983530D01*
X-7970774Y-4985613D01*
X-7962239Y-4993640D01*
X-7950200Y-5002377D01*
X-7937144Y-5009540D01*
X-7923326Y-5015026D01*
X-7908899Y-5018735D01*
X-7904734Y-5019243D01*
X-7900771Y-5020614D01*
X-7897723Y-5023408D01*
X-7896047Y-5027218D01*
X-7896047Y-5031384D01*
X-7897723Y-5035245D01*
X-7900771Y-5038039D01*
X-7904734Y-5039410D01*
X-7908899Y-5039918D01*
X-7923326Y-5043627D01*
X-7937144Y-5049113D01*
X-7950200Y-5056276D01*
X-7962239Y-5065014D01*
X-7970774Y-5073040D01*
X-7974025Y-5075123D01*
X-7977733Y-5075834D01*
X-8318296Y-5075834D01*
X-8321446Y-5075326D01*
X-8324291Y-5073904D01*
X-8331200Y-5068874D01*
X-8344255Y-5061661D01*
X-8358073Y-5056225D01*
X-8372500Y-5052517D01*
X-8387232Y-5050637D01*
X-8402116Y-5050637D01*
X-8416899Y-5052517D01*
X-8431326Y-5056225D01*
X-8445144Y-5061661D01*
X-8458200Y-5068874D01*
X-8468004Y-5075986D01*
G37*

%LPD*%
G36*
X-8318296Y-5329834D02*
G01*
X-8321446Y-5329326D01*
X-8324291Y-5327904D01*
X-8331200Y-5322874D01*
X-8344255Y-5315661D01*
X-8358073Y-5310225D01*
X-8372500Y-5306517D01*
X-8376716Y-5305958D01*
X-8380628Y-5304637D01*
X-8383676Y-5301792D01*
X-8385352Y-5297982D01*
X-8385352Y-5293817D01*
X-8383676Y-5290007D01*
X-8380628Y-5287162D01*
X-8376716Y-5285790D01*
X-8372500Y-5285282D01*
X-8358073Y-5281574D01*
X-8344255Y-5276088D01*
X-8331200Y-5268925D01*
X-8319160Y-5260187D01*
X-8308340Y-5250027D01*
X-8300466Y-5240528D01*
X-8296960Y-5237784D01*
X-8292642Y-5236819D01*
X-7977733Y-5236819D01*
X-7973974Y-5237530D01*
X-7970774Y-5239613D01*
X-7962239Y-5247640D01*
X-7950200Y-5256377D01*
X-7937144Y-5263540D01*
X-7923326Y-5269026D01*
X-7908899Y-5272735D01*
X-7904734Y-5273243D01*
X-7900771Y-5274614D01*
X-7897723Y-5277408D01*
X-7896047Y-5281218D01*
X-7896047Y-5285384D01*
X-7897723Y-5289245D01*
X-7900771Y-5292039D01*
X-7904734Y-5293410D01*
X-7908899Y-5293918D01*
X-7923326Y-5297627D01*
X-7937144Y-5303113D01*
X-7950200Y-5310276D01*
X-7962239Y-5319014D01*
X-7970774Y-5327040D01*
X-7974025Y-5329123D01*
X-7977733Y-5329834D01*
G37*

%LPD*%
G36*
X-5255666Y-5329834D02*
G01*
X-5259374Y-5329123D01*
X-5262626Y-5327040D01*
X-5271160Y-5319014D01*
X-5283200Y-5310276D01*
X-5296255Y-5303113D01*
X-5310073Y-5297627D01*
X-5324500Y-5293918D01*
X-5328666Y-5293410D01*
X-5332628Y-5292039D01*
X-5335676Y-5289245D01*
X-5337352Y-5285384D01*
X-5337352Y-5281218D01*
X-5335676Y-5277408D01*
X-5332628Y-5274614D01*
X-5328666Y-5273243D01*
X-5324500Y-5272735D01*
X-5310073Y-5269026D01*
X-5296255Y-5263540D01*
X-5283200Y-5256377D01*
X-5271160Y-5247640D01*
X-5262626Y-5239613D01*
X-5259425Y-5237530D01*
X-5255666Y-5236819D01*
X-4940757Y-5236819D01*
X-4936439Y-5237784D01*
X-4932934Y-5240528D01*
X-4925060Y-5250027D01*
X-4914239Y-5260187D01*
X-4902200Y-5268925D01*
X-4889144Y-5276088D01*
X-4875326Y-5281574D01*
X-4860899Y-5285282D01*
X-4856683Y-5285790D01*
X-4852771Y-5287162D01*
X-4849672Y-5290007D01*
X-4848047Y-5293817D01*
X-4848047Y-5297982D01*
X-4849672Y-5301792D01*
X-4852771Y-5304637D01*
X-4856683Y-5305958D01*
X-4860899Y-5306517D01*
X-4875326Y-5310225D01*
X-4889144Y-5315661D01*
X-4902200Y-5322874D01*
X-4909108Y-5327904D01*
X-4911953Y-5329326D01*
X-4915103Y-5329834D01*
G37*

%LPD*%
G36*
X-8472068Y-5331764D02*
G01*
X-8476488Y-5331612D01*
X-8480450Y-5329580D01*
X-8483193Y-5326075D01*
X-8484158Y-5321757D01*
X-8484158Y-5269992D01*
X-8483193Y-5265674D01*
X-8480450Y-5262168D01*
X-8476488Y-5260187D01*
X-8472068Y-5260035D01*
X-8468004Y-5261813D01*
X-8458200Y-5268925D01*
X-8445144Y-5276088D01*
X-8431326Y-5281574D01*
X-8416899Y-5285282D01*
X-8412683Y-5285790D01*
X-8408771Y-5287162D01*
X-8405672Y-5290007D01*
X-8404047Y-5293817D01*
X-8404047Y-5297982D01*
X-8405672Y-5301792D01*
X-8408771Y-5304637D01*
X-8412683Y-5305958D01*
X-8416899Y-5306517D01*
X-8431326Y-5310225D01*
X-8445144Y-5315661D01*
X-8458200Y-5322874D01*
X-8468004Y-5329986D01*
G37*

%LPD*%
G36*
X-5223611Y-5573826D02*
G01*
X-5227218Y-5573166D01*
X-5230317Y-5571286D01*
X-5232603Y-5568442D01*
X-5235041Y-5563819D01*
X-5240070Y-5557723D01*
X-5246217Y-5552694D01*
X-5253228Y-5548934D01*
X-5260797Y-5546648D01*
X-5269179Y-5545836D01*
X-5318455Y-5545836D01*
X-5322519Y-5544972D01*
X-5325922Y-5542534D01*
X-5328056Y-5538978D01*
X-5328564Y-5534812D01*
X-5327396Y-5530850D01*
X-5324703Y-5527649D01*
X-5320995Y-5525820D01*
X-5310073Y-5523026D01*
X-5296255Y-5517540D01*
X-5283200Y-5510377D01*
X-5271160Y-5501640D01*
X-5262626Y-5493613D01*
X-5259425Y-5491530D01*
X-5255666Y-5490819D01*
X-4940757Y-5490819D01*
X-4936439Y-5491784D01*
X-4932934Y-5494528D01*
X-4925060Y-5504027D01*
X-4914239Y-5514187D01*
X-4902200Y-5522925D01*
X-4889144Y-5530088D01*
X-4879086Y-5534101D01*
X-4875682Y-5536285D01*
X-4873447Y-5539587D01*
X-4872634Y-5543550D01*
X-4873447Y-5547461D01*
X-4875682Y-5550814D01*
X-4879086Y-5552998D01*
X-4889144Y-5556961D01*
X-4902200Y-5564174D01*
X-4912817Y-5571896D01*
X-4915662Y-5573318D01*
X-4918811Y-5573826D01*
G37*

%LPD*%
G36*
X-6420967Y-5741974D02*
G01*
X-6424879Y-5741212D01*
X-6428181Y-5739028D01*
X-7765237Y-4401921D01*
X-7767320Y-4398924D01*
X-7768183Y-4395368D01*
X-7769148Y-4379468D01*
X-7771942Y-4364837D01*
X-7776514Y-4350715D01*
X-7782864Y-4337253D01*
X-7790840Y-4324654D01*
X-7800340Y-4313224D01*
X-7811160Y-4303014D01*
X-7823200Y-4294276D01*
X-7836255Y-4287113D01*
X-7850073Y-4281627D01*
X-7864500Y-4277918D01*
X-7879283Y-4276090D01*
X-7894116Y-4276090D01*
X-7908899Y-4277918D01*
X-7923326Y-4281627D01*
X-7937144Y-4287113D01*
X-7950200Y-4294276D01*
X-7962239Y-4303014D01*
X-7970774Y-4311040D01*
X-7974025Y-4313123D01*
X-7977733Y-4313834D01*
X-8303514Y-4313834D01*
X-8307273Y-4313123D01*
X-8310473Y-4311040D01*
X-8319160Y-4302912D01*
X-8331200Y-4294174D01*
X-8344255Y-4286961D01*
X-8358073Y-4281525D01*
X-8372500Y-4277817D01*
X-8387232Y-4275937D01*
X-8402116Y-4275937D01*
X-8416899Y-4277817D01*
X-8431326Y-4281525D01*
X-8445144Y-4286961D01*
X-8458200Y-4294174D01*
X-8468004Y-4301286D01*
X-8472068Y-4303064D01*
X-8476488Y-4302912D01*
X-8480450Y-4300880D01*
X-8483193Y-4297375D01*
X-8484158Y-4293057D01*
X-8484158Y-4241292D01*
X-8483193Y-4236974D01*
X-8480450Y-4233468D01*
X-8476488Y-4231487D01*
X-8472068Y-4231335D01*
X-8468004Y-4233113D01*
X-8458200Y-4240225D01*
X-8445144Y-4247388D01*
X-8440064Y-4249420D01*
X-8440064Y-4185564D01*
X-8473998Y-4185564D01*
X-8477859Y-4184751D01*
X-8481161Y-4182567D01*
X-8483346Y-4179265D01*
X-8484158Y-4175404D01*
X-8484158Y-4104995D01*
X-8483346Y-4101134D01*
X-8481161Y-4097832D01*
X-8477859Y-4095597D01*
X-8473998Y-4094835D01*
X-8440064Y-4094835D01*
X-8440064Y-4030979D01*
X-8445144Y-4032961D01*
X-8458200Y-4040174D01*
X-8468004Y-4047286D01*
X-8472068Y-4049064D01*
X-8476488Y-4048912D01*
X-8480450Y-4046880D01*
X-8483193Y-4043375D01*
X-8484158Y-4039057D01*
X-8484158Y-3999992D01*
X-8483193Y-3995674D01*
X-8480450Y-3992168D01*
X-8476488Y-3990187D01*
X-8472068Y-3990035D01*
X-8468004Y-3991813D01*
X-8458200Y-3998925D01*
X-8445144Y-4006087D01*
X-8435086Y-4010101D01*
X-8431530Y-4012488D01*
X-8427364Y-4012590D01*
X-8416899Y-4015282D01*
X-8402116Y-4017162D01*
X-8387232Y-4017162D01*
X-8372500Y-4015282D01*
X-8362035Y-4012590D01*
X-8357717Y-4012285D01*
X-8354314Y-4010101D01*
X-8344255Y-4006087D01*
X-8331200Y-3998925D01*
X-8319160Y-3990187D01*
X-8308340Y-3980027D01*
X-8300466Y-3970528D01*
X-8296960Y-3967784D01*
X-8292642Y-3966819D01*
X-7977733Y-3966819D01*
X-7973974Y-3967530D01*
X-7970774Y-3969613D01*
X-7962239Y-3977640D01*
X-7950200Y-3986377D01*
X-7937144Y-3993540D01*
X-7923326Y-3999026D01*
X-7908899Y-4002735D01*
X-7894116Y-4004564D01*
X-7879283Y-4004564D01*
X-7864500Y-4002735D01*
X-7850073Y-3999026D01*
X-7836255Y-3993540D01*
X-7823200Y-3986377D01*
X-7811160Y-3977640D01*
X-7800340Y-3967429D01*
X-7790840Y-3955948D01*
X-7782864Y-3943400D01*
X-7776514Y-3929938D01*
X-7771942Y-3915765D01*
X-7769148Y-3901186D01*
X-7768183Y-3886301D01*
X-7769148Y-3871468D01*
X-7771942Y-3856837D01*
X-7776514Y-3842715D01*
X-7782864Y-3829253D01*
X-7790840Y-3816654D01*
X-7800340Y-3805224D01*
X-7811160Y-3795014D01*
X-7823200Y-3786276D01*
X-7836255Y-3779113D01*
X-7850073Y-3773627D01*
X-7864500Y-3769918D01*
X-7868666Y-3769410D01*
X-7872628Y-3768039D01*
X-7875676Y-3765245D01*
X-7877352Y-3761384D01*
X-7877352Y-3757218D01*
X-7875676Y-3753408D01*
X-7872628Y-3750614D01*
X-7868666Y-3749243D01*
X-7864500Y-3748735D01*
X-7850073Y-3745026D01*
X-7836255Y-3739540D01*
X-7823200Y-3732377D01*
X-7811160Y-3723640D01*
X-7800340Y-3713429D01*
X-7790840Y-3701948D01*
X-7782864Y-3689400D01*
X-7776514Y-3675938D01*
X-7771942Y-3661765D01*
X-7769148Y-3647186D01*
X-7768183Y-3631285D01*
X-7767320Y-3627729D01*
X-7765237Y-3624732D01*
X-6572148Y-2431542D01*
X-6566153Y-2424328D01*
X-6564630Y-2422144D01*
X-6559753Y-2414117D01*
X-6558584Y-2411730D01*
X-6554978Y-2403043D01*
X-6554165Y-2400554D01*
X-6551879Y-2391410D01*
X-6550558Y-2379472D01*
X-6550507Y-2182876D01*
X-6549745Y-2178964D01*
X-6547561Y-2175662D01*
X-5480202Y-1108354D01*
X-5476494Y-1105966D01*
X-5472176Y-1105408D01*
X-5468010Y-1106678D01*
X-5464759Y-1109573D01*
X-5463032Y-1113637D01*
X-5461457Y-1121765D01*
X-5456885Y-1135938D01*
X-5450535Y-1149400D01*
X-5442559Y-1161948D01*
X-5433060Y-1173429D01*
X-5422239Y-1183640D01*
X-5410200Y-1192377D01*
X-5397144Y-1199540D01*
X-5383326Y-1205026D01*
X-5368899Y-1208735D01*
X-5364734Y-1209243D01*
X-5360771Y-1210614D01*
X-5357723Y-1213408D01*
X-5356047Y-1217218D01*
X-5356047Y-1221384D01*
X-5357723Y-1225245D01*
X-5360771Y-1228039D01*
X-5364734Y-1229410D01*
X-5368899Y-1229918D01*
X-5383326Y-1233627D01*
X-5397144Y-1239113D01*
X-5410200Y-1246276D01*
X-5422239Y-1255014D01*
X-5433060Y-1265224D01*
X-5442559Y-1276654D01*
X-5450535Y-1289253D01*
X-5456885Y-1302715D01*
X-5461457Y-1316837D01*
X-5464251Y-1331468D01*
X-5465216Y-1346301D01*
X-5464251Y-1361186D01*
X-5461457Y-1375765D01*
X-5456885Y-1389938D01*
X-5450535Y-1403400D01*
X-5442559Y-1415948D01*
X-5433060Y-1427429D01*
X-5422239Y-1437640D01*
X-5410200Y-1446377D01*
X-5397144Y-1453540D01*
X-5383326Y-1459026D01*
X-5368899Y-1462735D01*
X-5364734Y-1463243D01*
X-5360771Y-1464614D01*
X-5357723Y-1467408D01*
X-5356047Y-1471218D01*
X-5356047Y-1475384D01*
X-5357723Y-1479245D01*
X-5360771Y-1482039D01*
X-5364734Y-1483410D01*
X-5368899Y-1483918D01*
X-5383326Y-1487627D01*
X-5397144Y-1493113D01*
X-5410200Y-1500276D01*
X-5422239Y-1509014D01*
X-5433060Y-1519224D01*
X-5442559Y-1530654D01*
X-5450535Y-1543253D01*
X-5456885Y-1556715D01*
X-5461457Y-1570837D01*
X-5464251Y-1585468D01*
X-5465216Y-1600301D01*
X-5464251Y-1615186D01*
X-5461457Y-1629765D01*
X-5456885Y-1643938D01*
X-5450535Y-1657400D01*
X-5442559Y-1669948D01*
X-5433060Y-1681429D01*
X-5422239Y-1691639D01*
X-5410200Y-1700377D01*
X-5397144Y-1707540D01*
X-5383326Y-1713026D01*
X-5368899Y-1716735D01*
X-5364734Y-1717243D01*
X-5360771Y-1718614D01*
X-5357723Y-1721408D01*
X-5356047Y-1725218D01*
X-5356047Y-1729384D01*
X-5357723Y-1733245D01*
X-5360771Y-1736039D01*
X-5364734Y-1737410D01*
X-5368899Y-1737918D01*
X-5383326Y-1741627D01*
X-5397144Y-1747113D01*
X-5410200Y-1754276D01*
X-5422239Y-1763014D01*
X-5433060Y-1773224D01*
X-5442559Y-1784654D01*
X-5450535Y-1797253D01*
X-5456885Y-1810715D01*
X-5461457Y-1824837D01*
X-5464251Y-1839468D01*
X-5465216Y-1854301D01*
X-5464251Y-1869186D01*
X-5461457Y-1883765D01*
X-5456885Y-1897938D01*
X-5450535Y-1911400D01*
X-5442559Y-1923948D01*
X-5433060Y-1935429D01*
X-5422239Y-1945639D01*
X-5410200Y-1954377D01*
X-5397144Y-1961540D01*
X-5383326Y-1967026D01*
X-5368899Y-1970735D01*
X-5364734Y-1971243D01*
X-5360771Y-1972614D01*
X-5357723Y-1975408D01*
X-5356047Y-1979218D01*
X-5356047Y-1983384D01*
X-5357723Y-1987245D01*
X-5360771Y-1990039D01*
X-5364734Y-1991410D01*
X-5368899Y-1991918D01*
X-5383326Y-1995627D01*
X-5397144Y-2001113D01*
X-5410200Y-2008276D01*
X-5422239Y-2017014D01*
X-5433060Y-2027224D01*
X-5442559Y-2038654D01*
X-5450535Y-2051253D01*
X-5456885Y-2064715D01*
X-5461457Y-2078837D01*
X-5464251Y-2093468D01*
X-5465216Y-2108301D01*
X-5464251Y-2123186D01*
X-5461457Y-2137765D01*
X-5456885Y-2151938D01*
X-5450535Y-2165400D01*
X-5442559Y-2177948D01*
X-5433060Y-2189429D01*
X-5422239Y-2199640D01*
X-5410200Y-2208377D01*
X-5397144Y-2215540D01*
X-5383326Y-2221026D01*
X-5368899Y-2224735D01*
X-5354116Y-2226564D01*
X-5339283Y-2226564D01*
X-5324500Y-2224735D01*
X-5310073Y-2221026D01*
X-5296255Y-2215540D01*
X-5283200Y-2208377D01*
X-5271160Y-2199640D01*
X-5262626Y-2191613D01*
X-5259425Y-2189530D01*
X-5255666Y-2188819D01*
X-4940757Y-2188819D01*
X-4936439Y-2189784D01*
X-4932934Y-2192528D01*
X-4925060Y-2202027D01*
X-4914239Y-2212187D01*
X-4902200Y-2220925D01*
X-4889144Y-2228088D01*
X-4875326Y-2233574D01*
X-4860899Y-2237282D01*
X-4846116Y-2239162D01*
X-4831232Y-2239162D01*
X-4816500Y-2237282D01*
X-4802073Y-2233574D01*
X-4788255Y-2228088D01*
X-4775200Y-2220925D01*
X-4763160Y-2212187D01*
X-4752340Y-2202027D01*
X-4742840Y-2190546D01*
X-4734864Y-2177999D01*
X-4728514Y-2164486D01*
X-4723942Y-2150364D01*
X-4721148Y-2135733D01*
X-4720234Y-2120900D01*
X-4721148Y-2106066D01*
X-4723942Y-2091436D01*
X-4728514Y-2077262D01*
X-4734864Y-2063800D01*
X-4742840Y-2051253D01*
X-4752340Y-2039772D01*
X-4763160Y-2029612D01*
X-4775200Y-2020874D01*
X-4788255Y-2013661D01*
X-4802073Y-2008225D01*
X-4816500Y-2004517D01*
X-4831232Y-2002637D01*
X-4846116Y-2002637D01*
X-4860899Y-2004517D01*
X-4875326Y-2008225D01*
X-4889144Y-2013661D01*
X-4902200Y-2020874D01*
X-4909108Y-2025904D01*
X-4911953Y-2027326D01*
X-4915103Y-2027834D01*
X-5255666Y-2027834D01*
X-5259374Y-2027123D01*
X-5262626Y-2025040D01*
X-5271160Y-2017014D01*
X-5283200Y-2008276D01*
X-5296255Y-2001113D01*
X-5310073Y-1995627D01*
X-5324500Y-1991918D01*
X-5328666Y-1991410D01*
X-5332628Y-1990039D01*
X-5335676Y-1987245D01*
X-5337352Y-1983384D01*
X-5337352Y-1979218D01*
X-5335676Y-1975408D01*
X-5332628Y-1972614D01*
X-5328666Y-1971243D01*
X-5324500Y-1970735D01*
X-5310073Y-1967026D01*
X-5296255Y-1961540D01*
X-5283200Y-1954377D01*
X-5271160Y-1945639D01*
X-5262626Y-1937613D01*
X-5259425Y-1935530D01*
X-5255666Y-1934819D01*
X-4929581Y-1934819D01*
X-4925872Y-1935530D01*
X-4922621Y-1937613D01*
X-4914239Y-1945487D01*
X-4902200Y-1954225D01*
X-4889144Y-1961388D01*
X-4875326Y-1966874D01*
X-4860899Y-1970582D01*
X-4846116Y-1972462D01*
X-4831232Y-1972462D01*
X-4816500Y-1970582D01*
X-4802073Y-1966874D01*
X-4788255Y-1961388D01*
X-4775200Y-1954225D01*
X-4763160Y-1945487D01*
X-4752340Y-1935327D01*
X-4742840Y-1923846D01*
X-4734864Y-1911299D01*
X-4728514Y-1897786D01*
X-4723942Y-1883664D01*
X-4721148Y-1869033D01*
X-4720234Y-1854200D01*
X-4721148Y-1839366D01*
X-4723942Y-1824736D01*
X-4728514Y-1810562D01*
X-4734864Y-1797100D01*
X-4742840Y-1784553D01*
X-4752340Y-1773072D01*
X-4763160Y-1762912D01*
X-4775200Y-1754174D01*
X-4788255Y-1746961D01*
X-4802073Y-1741525D01*
X-4816500Y-1737817D01*
X-4820716Y-1737258D01*
X-4824628Y-1735937D01*
X-4827676Y-1733092D01*
X-4829352Y-1729282D01*
X-4829352Y-1725117D01*
X-4827676Y-1721307D01*
X-4824628Y-1718462D01*
X-4820716Y-1717090D01*
X-4816500Y-1716582D01*
X-4802073Y-1712874D01*
X-4788255Y-1707388D01*
X-4775200Y-1700225D01*
X-4763160Y-1691487D01*
X-4752340Y-1681327D01*
X-4742840Y-1669846D01*
X-4734864Y-1657299D01*
X-4728514Y-1643786D01*
X-4723942Y-1629664D01*
X-4721148Y-1615033D01*
X-4720234Y-1600200D01*
X-4721148Y-1585366D01*
X-4723942Y-1570736D01*
X-4728514Y-1556562D01*
X-4734864Y-1543100D01*
X-4742840Y-1530553D01*
X-4752340Y-1519072D01*
X-4763160Y-1508912D01*
X-4775200Y-1500174D01*
X-4788255Y-1492961D01*
X-4802073Y-1487525D01*
X-4816500Y-1483817D01*
X-4820716Y-1483258D01*
X-4824628Y-1481937D01*
X-4827676Y-1479092D01*
X-4829352Y-1475282D01*
X-4829352Y-1471117D01*
X-4827676Y-1467307D01*
X-4824628Y-1464462D01*
X-4820716Y-1463090D01*
X-4816500Y-1462582D01*
X-4802073Y-1458874D01*
X-4788255Y-1453388D01*
X-4775200Y-1446225D01*
X-4763160Y-1437487D01*
X-4752340Y-1427327D01*
X-4742840Y-1415846D01*
X-4734864Y-1403299D01*
X-4728514Y-1389786D01*
X-4723942Y-1375664D01*
X-4721148Y-1361033D01*
X-4720234Y-1346200D01*
X-4721148Y-1331366D01*
X-4723942Y-1316736D01*
X-4728514Y-1302562D01*
X-4734864Y-1289100D01*
X-4742840Y-1276553D01*
X-4752340Y-1265072D01*
X-4763160Y-1254912D01*
X-4775200Y-1246174D01*
X-4788255Y-1238961D01*
X-4802073Y-1233525D01*
X-4816500Y-1229817D01*
X-4820716Y-1229258D01*
X-4824628Y-1227937D01*
X-4827676Y-1225092D01*
X-4829352Y-1221282D01*
X-4829352Y-1217117D01*
X-4827676Y-1213307D01*
X-4824628Y-1210462D01*
X-4820716Y-1209090D01*
X-4816500Y-1208582D01*
X-4802073Y-1204874D01*
X-4788255Y-1199388D01*
X-4775200Y-1192225D01*
X-4763160Y-1183487D01*
X-4752340Y-1173327D01*
X-4742840Y-1161846D01*
X-4734864Y-1149299D01*
X-4728514Y-1135786D01*
X-4723942Y-1121664D01*
X-4721148Y-1107033D01*
X-4720234Y-1092200D01*
X-4721148Y-1077366D01*
X-4723942Y-1062736D01*
X-4728514Y-1048562D01*
X-4734864Y-1035100D01*
X-4742840Y-1022553D01*
X-4752340Y-1011072D01*
X-4763160Y-1000912D01*
X-4768088Y-997305D01*
X-4770932Y-994156D01*
X-4772253Y-990142D01*
X-4771796Y-985926D01*
X-4769662Y-982268D01*
X-4766259Y-979830D01*
X-4762144Y-978916D01*
X-4164177Y-978916D01*
X-4160265Y-979728D01*
X-4156964Y-981913D01*
X-4154779Y-985215D01*
X-4154017Y-989076D01*
X-4154017Y-1099413D01*
X-4153204Y-1107795D01*
X-4150868Y-1115364D01*
X-4147159Y-1122375D01*
X-4142130Y-1128522D01*
X-4137812Y-1132027D01*
X-4135069Y-1135532D01*
X-4134104Y-1139901D01*
X-4135069Y-1144219D01*
X-4137812Y-1147724D01*
X-4142130Y-1151280D01*
X-4147159Y-1157427D01*
X-4150868Y-1164386D01*
X-4153204Y-1172006D01*
X-4154017Y-1180388D01*
X-4154017Y-1203553D01*
X-4032351Y-1203553D01*
X-4032351Y-1150569D01*
X-4031589Y-1146657D01*
X-4029354Y-1143355D01*
X-4026052Y-1141171D01*
X-4022191Y-1140409D01*
X-3854805Y-1140409D01*
X-3850944Y-1141171D01*
X-3847642Y-1143355D01*
X-3845407Y-1146657D01*
X-3844645Y-1150569D01*
X-3844645Y-1203553D01*
X-3722979Y-1203553D01*
X-3722979Y-1180388D01*
X-3723792Y-1172006D01*
X-3726129Y-1164386D01*
X-3729837Y-1157427D01*
X-3734866Y-1151280D01*
X-3738372Y-1148435D01*
X-3740962Y-1145235D01*
X-3742080Y-1141222D01*
X-3741521Y-1137158D01*
X-3739337Y-1133602D01*
X-3735984Y-1131265D01*
X-3731920Y-1130401D01*
X-2907690Y-1130401D01*
X-2894990Y-1129538D01*
X-2882900Y-1127048D01*
X-2871266Y-1122883D01*
X-2860344Y-1117193D01*
X-2850235Y-1110081D01*
X-2841193Y-1101648D01*
X-2833420Y-1092098D01*
X-2827020Y-1081532D01*
X-2822092Y-1070203D01*
X-2818739Y-1058316D01*
X-2817063Y-1046073D01*
X-2817063Y-1033729D01*
X-2818739Y-1021486D01*
X-2822092Y-1009599D01*
X-2827020Y-998270D01*
X-2829356Y-994359D01*
X-2830779Y-990346D01*
X-2830372Y-986078D01*
X-2828290Y-982370D01*
X-2824886Y-979830D01*
X-2820670Y-978916D01*
X-2764180Y-978916D01*
X-2760268Y-979728D01*
X-2756966Y-981913D01*
X-2754782Y-985215D01*
X-2754020Y-989076D01*
X-2754020Y-1099413D01*
X-2753156Y-1107795D01*
X-2750870Y-1115364D01*
X-2747111Y-1122375D01*
X-2742082Y-1128522D01*
X-2737815Y-1132027D01*
X-2735072Y-1135532D01*
X-2734056Y-1139901D01*
X-2735072Y-1144219D01*
X-2737815Y-1147724D01*
X-2742082Y-1151280D01*
X-2747111Y-1157427D01*
X-2750870Y-1164386D01*
X-2753156Y-1172006D01*
X-2754020Y-1180388D01*
X-2754020Y-1299413D01*
X-2753156Y-1307795D01*
X-2750870Y-1315364D01*
X-2747111Y-1322374D01*
X-2742082Y-1328521D01*
X-2737815Y-1332026D01*
X-2735072Y-1335532D01*
X-2734056Y-1339900D01*
X-2735072Y-1344218D01*
X-2737815Y-1347724D01*
X-2742082Y-1351280D01*
X-2745689Y-1355699D01*
X-2749245Y-1358442D01*
X-2753563Y-1359408D01*
X-2796387Y-1359458D01*
X-2805734Y-1360322D01*
X-2808325Y-1360779D01*
X-2817469Y-1363014D01*
X-2819958Y-1363827D01*
X-2828645Y-1367434D01*
X-2831033Y-1368653D01*
X-2839059Y-1373479D01*
X-2841244Y-1375003D01*
X-2848457Y-1380998D01*
X-3642106Y-2174646D01*
X-3648100Y-2181910D01*
X-3649624Y-2184044D01*
X-3654501Y-2192121D01*
X-3655669Y-2194458D01*
X-3659276Y-2203145D01*
X-3660089Y-2205634D01*
X-3662375Y-2214778D01*
X-3663696Y-2226716D01*
X-3663746Y-2415946D01*
X-3664508Y-2419807D01*
X-3666693Y-2423109D01*
X-3705656Y-2462072D01*
X-3708958Y-2464257D01*
X-3712819Y-2465019D01*
X-3716731Y-2464257D01*
X-3720033Y-2462072D01*
X-3722217Y-2458770D01*
X-3722979Y-2454859D01*
X-3722979Y-2380386D01*
X-3723792Y-2372004D01*
X-3726129Y-2364435D01*
X-3729837Y-2357424D01*
X-3734866Y-2351278D01*
X-3739184Y-2347722D01*
X-3741928Y-2344216D01*
X-3742893Y-2339898D01*
X-3741928Y-2335530D01*
X-3739184Y-2332024D01*
X-3734866Y-2328519D01*
X-3729837Y-2322372D01*
X-3726129Y-2315362D01*
X-3723792Y-2307793D01*
X-3722979Y-2299411D01*
X-3722979Y-2180386D01*
X-3723792Y-2172004D01*
X-3726129Y-2164384D01*
X-3729837Y-2157425D01*
X-3734866Y-2151278D01*
X-3739184Y-2147722D01*
X-3741928Y-2144217D01*
X-3742893Y-2139899D01*
X-3741928Y-2135530D01*
X-3739184Y-2132025D01*
X-3734866Y-2128520D01*
X-3729837Y-2122373D01*
X-3726129Y-2115362D01*
X-3723792Y-2107793D01*
X-3722979Y-2099411D01*
X-3722979Y-1980387D01*
X-3723792Y-1972005D01*
X-3726129Y-1964385D01*
X-3729837Y-1957425D01*
X-3734866Y-1951278D01*
X-3739184Y-1947722D01*
X-3741928Y-1944217D01*
X-3742893Y-1939899D01*
X-3741928Y-1935530D01*
X-3739184Y-1932025D01*
X-3734866Y-1928520D01*
X-3729837Y-1922373D01*
X-3726129Y-1915363D01*
X-3723792Y-1907793D01*
X-3722979Y-1899412D01*
X-3722979Y-1780387D01*
X-3723792Y-1772005D01*
X-3726129Y-1764385D01*
X-3729837Y-1757425D01*
X-3734866Y-1751279D01*
X-3739184Y-1747723D01*
X-3741928Y-1744218D01*
X-3742893Y-1739900D01*
X-3741928Y-1735531D01*
X-3739184Y-1732025D01*
X-3734866Y-1728520D01*
X-3729837Y-1722374D01*
X-3726129Y-1715363D01*
X-3723792Y-1707794D01*
X-3722979Y-1699412D01*
X-3722979Y-1580388D01*
X-3723792Y-1572006D01*
X-3726129Y-1564386D01*
X-3729837Y-1557426D01*
X-3734866Y-1551279D01*
X-3739184Y-1547723D01*
X-3741928Y-1544218D01*
X-3742893Y-1539900D01*
X-3741928Y-1535531D01*
X-3739184Y-1532026D01*
X-3734866Y-1528521D01*
X-3729837Y-1522374D01*
X-3726129Y-1515364D01*
X-3723792Y-1507794D01*
X-3722979Y-1499412D01*
X-3722979Y-1380388D01*
X-3723792Y-1372006D01*
X-3726129Y-1364386D01*
X-3729837Y-1357426D01*
X-3734866Y-1351280D01*
X-3739184Y-1347724D01*
X-3741928Y-1344218D01*
X-3742893Y-1339900D01*
X-3741928Y-1335532D01*
X-3739184Y-1332026D01*
X-3734866Y-1328521D01*
X-3729837Y-1322374D01*
X-3726129Y-1315364D01*
X-3723792Y-1307795D01*
X-3722979Y-1299413D01*
X-3722979Y-1276248D01*
X-3844645Y-1276248D01*
X-3844645Y-1329232D01*
X-3845407Y-1333093D01*
X-3847642Y-1336395D01*
X-3850944Y-1338630D01*
X-3854805Y-1339392D01*
X-4022191Y-1339392D01*
X-4026052Y-1338630D01*
X-4029354Y-1336395D01*
X-4031589Y-1333093D01*
X-4032351Y-1329232D01*
X-4032351Y-1276248D01*
X-4154017Y-1276248D01*
X-4154017Y-1299413D01*
X-4153204Y-1307795D01*
X-4150868Y-1315364D01*
X-4147159Y-1322374D01*
X-4142130Y-1328521D01*
X-4137812Y-1332026D01*
X-4135069Y-1335532D01*
X-4134104Y-1339900D01*
X-4135069Y-1344218D01*
X-4137812Y-1347724D01*
X-4142130Y-1351280D01*
X-4147159Y-1357426D01*
X-4150868Y-1364386D01*
X-4153204Y-1372006D01*
X-4154017Y-1380388D01*
X-4154017Y-1499412D01*
X-4153204Y-1507794D01*
X-4150868Y-1515364D01*
X-4147159Y-1522374D01*
X-4142130Y-1528521D01*
X-4137812Y-1532026D01*
X-4135069Y-1535531D01*
X-4134104Y-1539900D01*
X-4135069Y-1544218D01*
X-4137812Y-1547723D01*
X-4142130Y-1551279D01*
X-4147159Y-1557426D01*
X-4150868Y-1564386D01*
X-4153204Y-1572006D01*
X-4154017Y-1580388D01*
X-4154017Y-1699412D01*
X-4153204Y-1707794D01*
X-4150868Y-1715363D01*
X-4147159Y-1722374D01*
X-4142130Y-1728520D01*
X-4137812Y-1732025D01*
X-4135069Y-1735531D01*
X-4134104Y-1739900D01*
X-4135069Y-1744218D01*
X-4137812Y-1747723D01*
X-4142130Y-1751279D01*
X-4147159Y-1757425D01*
X-4150868Y-1764385D01*
X-4153204Y-1772005D01*
X-4154017Y-1780387D01*
X-4154017Y-1899412D01*
X-4153204Y-1907793D01*
X-4150868Y-1915363D01*
X-4147159Y-1922373D01*
X-4142130Y-1928520D01*
X-4137812Y-1932025D01*
X-4135069Y-1935530D01*
X-4134104Y-1939899D01*
X-4135069Y-1944217D01*
X-4137812Y-1947722D01*
X-4142130Y-1951278D01*
X-4147159Y-1957425D01*
X-4150868Y-1964385D01*
X-4153204Y-1972005D01*
X-4154017Y-1980387D01*
X-4154017Y-2099411D01*
X-4153204Y-2107793D01*
X-4150868Y-2115362D01*
X-4147159Y-2122373D01*
X-4142130Y-2128520D01*
X-4137812Y-2132025D01*
X-4135069Y-2135530D01*
X-4134104Y-2139899D01*
X-4135069Y-2144217D01*
X-4137812Y-2147722D01*
X-4142130Y-2151278D01*
X-4147159Y-2157425D01*
X-4150868Y-2164384D01*
X-4153204Y-2172004D01*
X-4154017Y-2180386D01*
X-4154017Y-2299411D01*
X-4153204Y-2307793D01*
X-4150868Y-2315362D01*
X-4147159Y-2322372D01*
X-4142130Y-2328519D01*
X-4137812Y-2332024D01*
X-4135069Y-2335530D01*
X-4134104Y-2339898D01*
X-4135069Y-2344216D01*
X-4137812Y-2347722D01*
X-4142130Y-2351278D01*
X-4147159Y-2357424D01*
X-4150868Y-2364435D01*
X-4153204Y-2372004D01*
X-4154017Y-2380386D01*
X-4154017Y-2499410D01*
X-4153204Y-2507792D01*
X-4150868Y-2515362D01*
X-4147159Y-2522372D01*
X-4142130Y-2528519D01*
X-4135983Y-2533548D01*
X-4128973Y-2537256D01*
X-4121404Y-2539593D01*
X-4113022Y-2540406D01*
X-3808526Y-2540406D01*
X-3804615Y-2541168D01*
X-3801364Y-2543352D01*
X-3799128Y-2546654D01*
X-3798366Y-2550566D01*
X-3799128Y-2554427D01*
X-3801364Y-2557729D01*
X-4030319Y-2786735D01*
X-4033621Y-2788920D01*
X-4037482Y-2789682D01*
X-4747666Y-2789682D01*
X-4751374Y-2788970D01*
X-4754626Y-2786938D01*
X-4763160Y-2778912D01*
X-4775200Y-2770174D01*
X-4788255Y-2762961D01*
X-4802073Y-2757525D01*
X-4816500Y-2753817D01*
X-4820716Y-2753258D01*
X-4824628Y-2751937D01*
X-4827676Y-2749092D01*
X-4829352Y-2745282D01*
X-4829352Y-2741117D01*
X-4827676Y-2737307D01*
X-4824628Y-2734462D01*
X-4820716Y-2733090D01*
X-4816500Y-2732582D01*
X-4802073Y-2728874D01*
X-4788255Y-2723388D01*
X-4775200Y-2716225D01*
X-4763160Y-2707487D01*
X-4752340Y-2697327D01*
X-4742840Y-2685846D01*
X-4734864Y-2673299D01*
X-4728514Y-2659786D01*
X-4723942Y-2645664D01*
X-4721148Y-2631033D01*
X-4720234Y-2616200D01*
X-4721148Y-2601366D01*
X-4723942Y-2586736D01*
X-4728514Y-2572562D01*
X-4734864Y-2559100D01*
X-4742840Y-2546553D01*
X-4752340Y-2535072D01*
X-4763160Y-2524912D01*
X-4775200Y-2516174D01*
X-4788255Y-2508961D01*
X-4798314Y-2504998D01*
X-4801870Y-2502611D01*
X-4806035Y-2502509D01*
X-4816500Y-2499817D01*
X-4831232Y-2497937D01*
X-4846116Y-2497937D01*
X-4860899Y-2499817D01*
X-4871364Y-2502509D01*
X-4875682Y-2502814D01*
X-4879086Y-2504998D01*
X-4889144Y-2508961D01*
X-4902200Y-2516174D01*
X-4914239Y-2524912D01*
X-4922926Y-2533040D01*
X-4926126Y-2535123D01*
X-4929886Y-2535834D01*
X-5255666Y-2535834D01*
X-5259374Y-2535123D01*
X-5262626Y-2533040D01*
X-5271160Y-2525014D01*
X-5283200Y-2516276D01*
X-5296255Y-2509113D01*
X-5310073Y-2503627D01*
X-5324500Y-2499918D01*
X-5339283Y-2498090D01*
X-5354116Y-2498090D01*
X-5368899Y-2499918D01*
X-5383326Y-2503627D01*
X-5397144Y-2509113D01*
X-5410200Y-2516276D01*
X-5422239Y-2525014D01*
X-5433060Y-2535224D01*
X-5442559Y-2546654D01*
X-5450535Y-2559253D01*
X-5456885Y-2572715D01*
X-5461457Y-2586837D01*
X-5464251Y-2601468D01*
X-5465216Y-2616301D01*
X-5464251Y-2631186D01*
X-5461457Y-2645765D01*
X-5456885Y-2659938D01*
X-5450535Y-2673400D01*
X-5442559Y-2685948D01*
X-5433060Y-2697429D01*
X-5422239Y-2707640D01*
X-5410200Y-2716377D01*
X-5397144Y-2723540D01*
X-5383326Y-2729026D01*
X-5368899Y-2732735D01*
X-5364734Y-2733243D01*
X-5360771Y-2734614D01*
X-5357723Y-2737408D01*
X-5356047Y-2741218D01*
X-5356047Y-2745384D01*
X-5357723Y-2749245D01*
X-5360771Y-2752039D01*
X-5364734Y-2753410D01*
X-5368899Y-2753918D01*
X-5383326Y-2757627D01*
X-5397144Y-2763113D01*
X-5410200Y-2770276D01*
X-5422239Y-2779014D01*
X-5433060Y-2789224D01*
X-5442559Y-2800654D01*
X-5450535Y-2813253D01*
X-5456885Y-2826715D01*
X-5461457Y-2840837D01*
X-5464251Y-2855468D01*
X-5465216Y-2870301D01*
X-5464251Y-2885186D01*
X-5461457Y-2899765D01*
X-5456885Y-2913938D01*
X-5450535Y-2927400D01*
X-5442559Y-2939948D01*
X-5433060Y-2951429D01*
X-5422239Y-2961640D01*
X-5410200Y-2970377D01*
X-5397144Y-2977540D01*
X-5383326Y-2983026D01*
X-5368899Y-2986735D01*
X-5364734Y-2987243D01*
X-5360771Y-2988614D01*
X-5357723Y-2991408D01*
X-5356047Y-2995218D01*
X-5356047Y-2999384D01*
X-5357723Y-3003245D01*
X-5360771Y-3006039D01*
X-5364734Y-3007410D01*
X-5368899Y-3007918D01*
X-5383326Y-3011627D01*
X-5397144Y-3017113D01*
X-5410200Y-3024276D01*
X-5422239Y-3033014D01*
X-5433060Y-3043224D01*
X-5442559Y-3054654D01*
X-5450535Y-3067253D01*
X-5456885Y-3080715D01*
X-5461457Y-3094837D01*
X-5464251Y-3109468D01*
X-5465216Y-3124301D01*
X-5464251Y-3139186D01*
X-5461457Y-3153765D01*
X-5456885Y-3167938D01*
X-5450535Y-3181400D01*
X-5442559Y-3193948D01*
X-5433060Y-3205429D01*
X-5422239Y-3215640D01*
X-5410200Y-3224377D01*
X-5397144Y-3231540D01*
X-5383326Y-3237026D01*
X-5368899Y-3240735D01*
X-5364734Y-3241243D01*
X-5360771Y-3242614D01*
X-5357723Y-3245408D01*
X-5356047Y-3249218D01*
X-5356047Y-3253384D01*
X-5357723Y-3257245D01*
X-5360771Y-3260039D01*
X-5364734Y-3261410D01*
X-5368899Y-3261918D01*
X-5383326Y-3265627D01*
X-5397144Y-3271113D01*
X-5410200Y-3278276D01*
X-5422239Y-3287014D01*
X-5433060Y-3297224D01*
X-5442559Y-3308654D01*
X-5450535Y-3321253D01*
X-5456885Y-3334715D01*
X-5461457Y-3348837D01*
X-5464251Y-3363468D01*
X-5465216Y-3378301D01*
X-5464251Y-3393186D01*
X-5461457Y-3407765D01*
X-5456885Y-3421938D01*
X-5450535Y-3435400D01*
X-5442559Y-3447948D01*
X-5433060Y-3459429D01*
X-5422239Y-3469640D01*
X-5410200Y-3478377D01*
X-5397144Y-3485540D01*
X-5383326Y-3491026D01*
X-5368899Y-3494735D01*
X-5364734Y-3495243D01*
X-5360771Y-3496614D01*
X-5357723Y-3499408D01*
X-5356047Y-3503218D01*
X-5356047Y-3507384D01*
X-5357723Y-3511245D01*
X-5360771Y-3514039D01*
X-5364734Y-3515410D01*
X-5368899Y-3515918D01*
X-5383326Y-3519627D01*
X-5397144Y-3525113D01*
X-5410200Y-3532276D01*
X-5422239Y-3541014D01*
X-5433060Y-3551224D01*
X-5442559Y-3562654D01*
X-5450535Y-3575253D01*
X-5456885Y-3588715D01*
X-5461457Y-3602837D01*
X-5464251Y-3617468D01*
X-5465216Y-3632301D01*
X-5464251Y-3647186D01*
X-5461457Y-3661765D01*
X-5456885Y-3675938D01*
X-5450535Y-3689400D01*
X-5442559Y-3701948D01*
X-5433060Y-3713429D01*
X-5422239Y-3723640D01*
X-5410200Y-3732377D01*
X-5397144Y-3739540D01*
X-5383326Y-3745026D01*
X-5368899Y-3748735D01*
X-5364734Y-3749243D01*
X-5360771Y-3750614D01*
X-5357723Y-3753408D01*
X-5356047Y-3757218D01*
X-5356047Y-3761384D01*
X-5357723Y-3765245D01*
X-5360771Y-3768039D01*
X-5364734Y-3769410D01*
X-5368899Y-3769918D01*
X-5383326Y-3773627D01*
X-5397144Y-3779113D01*
X-5410200Y-3786276D01*
X-5422239Y-3795014D01*
X-5433060Y-3805224D01*
X-5442559Y-3816654D01*
X-5450535Y-3829253D01*
X-5456885Y-3842715D01*
X-5461457Y-3856837D01*
X-5464251Y-3871468D01*
X-5465216Y-3886301D01*
X-5464251Y-3901186D01*
X-5461457Y-3915765D01*
X-5456885Y-3929938D01*
X-5450535Y-3943400D01*
X-5442559Y-3955948D01*
X-5433060Y-3967429D01*
X-5422239Y-3977640D01*
X-5410200Y-3986377D01*
X-5397144Y-3993540D01*
X-5383326Y-3999026D01*
X-5368899Y-4002735D01*
X-5364734Y-4003243D01*
X-5360771Y-4004614D01*
X-5357723Y-4007408D01*
X-5356047Y-4011218D01*
X-5356047Y-4015384D01*
X-5357723Y-4019245D01*
X-5360771Y-4022039D01*
X-5364734Y-4023410D01*
X-5368899Y-4023918D01*
X-5383326Y-4027627D01*
X-5397144Y-4033113D01*
X-5410200Y-4040276D01*
X-5422239Y-4049014D01*
X-5433060Y-4059224D01*
X-5442559Y-4070654D01*
X-5450535Y-4083253D01*
X-5456885Y-4096715D01*
X-5461457Y-4110837D01*
X-5464251Y-4125468D01*
X-5465216Y-4140301D01*
X-5464251Y-4155186D01*
X-5461457Y-4169765D01*
X-5456885Y-4183938D01*
X-5450535Y-4197400D01*
X-5442559Y-4209948D01*
X-5433060Y-4221429D01*
X-5422239Y-4231640D01*
X-5410200Y-4240377D01*
X-5397144Y-4247540D01*
X-5383326Y-4253026D01*
X-5368899Y-4256735D01*
X-5364734Y-4257243D01*
X-5360771Y-4258614D01*
X-5357723Y-4261408D01*
X-5356047Y-4265218D01*
X-5356047Y-4269384D01*
X-5357723Y-4273245D01*
X-5360771Y-4276039D01*
X-5364734Y-4277410D01*
X-5368899Y-4277918D01*
X-5383326Y-4281627D01*
X-5397144Y-4287113D01*
X-5410200Y-4294276D01*
X-5422239Y-4303014D01*
X-5433060Y-4313224D01*
X-5442559Y-4324654D01*
X-5450535Y-4337253D01*
X-5456885Y-4350715D01*
X-5461457Y-4364837D01*
X-5464251Y-4379468D01*
X-5465216Y-4394301D01*
X-5464251Y-4409186D01*
X-5461457Y-4423765D01*
X-5456885Y-4437938D01*
X-5450535Y-4451400D01*
X-5442559Y-4463948D01*
X-5433060Y-4475429D01*
X-5422239Y-4485640D01*
X-5410200Y-4494377D01*
X-5397144Y-4501540D01*
X-5383326Y-4507026D01*
X-5368899Y-4510735D01*
X-5364734Y-4511243D01*
X-5360771Y-4512614D01*
X-5357723Y-4515408D01*
X-5356047Y-4519218D01*
X-5356047Y-4523384D01*
X-5357723Y-4527245D01*
X-5360771Y-4530039D01*
X-5364734Y-4531410D01*
X-5368899Y-4531918D01*
X-5383326Y-4535627D01*
X-5397144Y-4541113D01*
X-5410200Y-4548276D01*
X-5422239Y-4557014D01*
X-5433060Y-4567224D01*
X-5442559Y-4578654D01*
X-5450535Y-4591253D01*
X-5456885Y-4604715D01*
X-5461457Y-4618837D01*
X-5464251Y-4633468D01*
X-5465216Y-4648301D01*
X-5464251Y-4663186D01*
X-5461457Y-4677765D01*
X-5456885Y-4691938D01*
X-5450535Y-4705400D01*
X-5442559Y-4717948D01*
X-5433060Y-4729429D01*
X-5422239Y-4739640D01*
X-5410200Y-4748377D01*
X-5397144Y-4755540D01*
X-5383326Y-4761026D01*
X-5368899Y-4764735D01*
X-5364734Y-4765243D01*
X-5360771Y-4766614D01*
X-5357723Y-4769408D01*
X-5356047Y-4773218D01*
X-5356047Y-4777384D01*
X-5357723Y-4781245D01*
X-5360771Y-4784039D01*
X-5364734Y-4785410D01*
X-5368899Y-4785918D01*
X-5383326Y-4789627D01*
X-5397144Y-4795113D01*
X-5410200Y-4802276D01*
X-5422239Y-4811014D01*
X-5433060Y-4821224D01*
X-5442559Y-4832654D01*
X-5450535Y-4845253D01*
X-5456885Y-4858715D01*
X-5461457Y-4872837D01*
X-5464251Y-4887468D01*
X-5465216Y-4902301D01*
X-5464251Y-4917186D01*
X-5461457Y-4931765D01*
X-5456885Y-4945938D01*
X-5450535Y-4959400D01*
X-5442559Y-4971948D01*
X-5433060Y-4983429D01*
X-5422239Y-4993640D01*
X-5410200Y-5002377D01*
X-5397144Y-5009540D01*
X-5383326Y-5015026D01*
X-5368899Y-5018735D01*
X-5364734Y-5019243D01*
X-5360771Y-5020614D01*
X-5357723Y-5023408D01*
X-5356047Y-5027218D01*
X-5356047Y-5031384D01*
X-5357723Y-5035245D01*
X-5360771Y-5038039D01*
X-5364734Y-5039410D01*
X-5368899Y-5039918D01*
X-5383326Y-5043627D01*
X-5397144Y-5049113D01*
X-5410200Y-5056276D01*
X-5422239Y-5065014D01*
X-5433060Y-5075224D01*
X-5442559Y-5086654D01*
X-5450535Y-5099253D01*
X-5456885Y-5112715D01*
X-5461457Y-5126837D01*
X-5464251Y-5141468D01*
X-5465216Y-5156301D01*
X-5464251Y-5171186D01*
X-5461457Y-5185765D01*
X-5456885Y-5199938D01*
X-5450535Y-5213400D01*
X-5442559Y-5225948D01*
X-5433060Y-5237429D01*
X-5422239Y-5247640D01*
X-5410200Y-5256377D01*
X-5397144Y-5263540D01*
X-5383326Y-5269026D01*
X-5368899Y-5272735D01*
X-5364734Y-5273243D01*
X-5360771Y-5274614D01*
X-5357723Y-5277408D01*
X-5356047Y-5281218D01*
X-5356047Y-5285384D01*
X-5357723Y-5289245D01*
X-5360771Y-5292039D01*
X-5364734Y-5293410D01*
X-5368899Y-5293918D01*
X-5383326Y-5297627D01*
X-5397144Y-5303113D01*
X-5410200Y-5310276D01*
X-5422239Y-5319014D01*
X-5433060Y-5329224D01*
X-5442559Y-5340654D01*
X-5450535Y-5353253D01*
X-5456885Y-5366715D01*
X-5461457Y-5380837D01*
X-5464251Y-5395468D01*
X-5465216Y-5410301D01*
X-5464251Y-5425186D01*
X-5461457Y-5439765D01*
X-5456885Y-5453938D01*
X-5450535Y-5467400D01*
X-5442559Y-5479948D01*
X-5433060Y-5491429D01*
X-5422239Y-5501640D01*
X-5410200Y-5510377D01*
X-5397144Y-5517540D01*
X-5383326Y-5523026D01*
X-5372404Y-5525820D01*
X-5368696Y-5527649D01*
X-5366004Y-5530850D01*
X-5364835Y-5534812D01*
X-5365343Y-5538978D01*
X-5367477Y-5542534D01*
X-5370880Y-5544972D01*
X-5374944Y-5545836D01*
X-5424220Y-5545836D01*
X-5432602Y-5546648D01*
X-5440172Y-5548934D01*
X-5447182Y-5552694D01*
X-5453329Y-5557723D01*
X-5458358Y-5563819D01*
X-5462066Y-5570829D01*
X-5464403Y-5578449D01*
X-5465216Y-5586831D01*
X-5465216Y-5731814D01*
X-5465978Y-5735726D01*
X-5468162Y-5739028D01*
X-5471464Y-5741212D01*
X-5475376Y-5741974D01*
G37*

%LPC*%
G36*
X-7932064Y-4249572D02*
G01*
X-7932064Y-4185665D01*
X-7996072Y-4185665D01*
X-7990535Y-4197400D01*
X-7982559Y-4209948D01*
X-7973059Y-4221429D01*
X-7962239Y-4231640D01*
X-7950200Y-4240377D01*
X-7937144Y-4247540D01*
G37*
G36*
X-7841335Y-4249572D02*
G01*
X-7836255Y-4247540D01*
X-7823200Y-4240377D01*
X-7811160Y-4231640D01*
X-7800340Y-4221429D01*
X-7790840Y-4209948D01*
X-7782864Y-4197400D01*
X-7777327Y-4185665D01*
X-7841335Y-4185665D01*
G37*
G36*
X-8349335Y-4249420D02*
G01*
X-8344255Y-4247388D01*
X-8331200Y-4240225D01*
X-8319160Y-4231487D01*
X-8308340Y-4221327D01*
X-8298840Y-4209846D01*
X-8290864Y-4197299D01*
X-8285327Y-4185564D01*
X-8349335Y-4185564D01*
G37*
G36*
X-7841335Y-4094987D02*
G01*
X-7777327Y-4094987D01*
X-7782864Y-4083253D01*
X-7790840Y-4070654D01*
X-7800340Y-4059224D01*
X-7811160Y-4049014D01*
X-7823200Y-4040276D01*
X-7836255Y-4033113D01*
X-7841335Y-4031081D01*
G37*
G36*
X-7996072Y-4094987D02*
G01*
X-7932064Y-4094987D01*
X-7932064Y-4031081D01*
X-7937144Y-4033113D01*
X-7950200Y-4040276D01*
X-7962239Y-4049014D01*
X-7973059Y-4059224D01*
X-7982559Y-4070654D01*
X-7990535Y-4083253D01*
G37*
G36*
X-8349335Y-4094835D02*
G01*
X-8285327Y-4094835D01*
X-8290864Y-4083100D01*
X-8298840Y-4070553D01*
X-8308340Y-4059072D01*
X-8319160Y-4048912D01*
X-8331200Y-4040174D01*
X-8344255Y-4032961D01*
X-8349335Y-4030979D01*
G37*
G36*
X-6854444Y-3331921D02*
G01*
X-6854444Y-3285744D01*
X-6900621Y-3285744D01*
X-6896303Y-3296361D01*
X-6890410Y-3305911D01*
X-6883146Y-3314446D01*
X-6874611Y-3321710D01*
X-6865061Y-3327603D01*
G37*
G36*
X-6810756Y-3331921D02*
G01*
X-6800138Y-3327603D01*
X-6790588Y-3321710D01*
X-6782053Y-3314446D01*
X-6774789Y-3305911D01*
X-6768896Y-3296361D01*
X-6764578Y-3285744D01*
X-6810756Y-3285744D01*
G37*
G36*
X-6810756Y-3242056D02*
G01*
X-6764578Y-3242056D01*
X-6768896Y-3231438D01*
X-6774789Y-3221888D01*
X-6782053Y-3213354D01*
X-6790588Y-3206089D01*
X-6800138Y-3200196D01*
X-6810756Y-3195878D01*
G37*
G36*
X-6900621Y-3242056D02*
G01*
X-6854444Y-3242056D01*
X-6854444Y-3195878D01*
X-6865061Y-3200196D01*
X-6874611Y-3206089D01*
X-6883146Y-3213354D01*
X-6890410Y-3221888D01*
X-6896303Y-3231438D01*
G37*
G36*
X-4884064Y-2484120D02*
G01*
X-4884064Y-2420264D01*
X-4948072Y-2420264D01*
X-4942535Y-2431999D01*
X-4934559Y-2444546D01*
X-4925060Y-2456027D01*
X-4914239Y-2466187D01*
X-4902200Y-2474925D01*
X-4889144Y-2482088D01*
G37*
G36*
X-4793335Y-2484120D02*
G01*
X-4788255Y-2482088D01*
X-4775200Y-2474925D01*
X-4763160Y-2466187D01*
X-4752340Y-2456027D01*
X-4742840Y-2444546D01*
X-4734864Y-2431999D01*
X-4729327Y-2420264D01*
X-4793335Y-2420264D01*
G37*
G36*
X-5392064Y-2471572D02*
G01*
X-5392064Y-2407666D01*
X-5456072Y-2407666D01*
X-5450535Y-2419400D01*
X-5442559Y-2431948D01*
X-5433060Y-2443429D01*
X-5422239Y-2453640D01*
X-5410200Y-2462377D01*
X-5397144Y-2469540D01*
G37*
G36*
X-5301335Y-2471572D02*
G01*
X-5296255Y-2469540D01*
X-5283200Y-2462377D01*
X-5271160Y-2453640D01*
X-5260340Y-2443429D01*
X-5250840Y-2431948D01*
X-5242864Y-2419400D01*
X-5237327Y-2407666D01*
X-5301335Y-2407666D01*
G37*
G36*
X-4793335Y-2329535D02*
G01*
X-4729327Y-2329535D01*
X-4734864Y-2317800D01*
X-4742840Y-2305253D01*
X-4752340Y-2293772D01*
X-4763160Y-2283612D01*
X-4775200Y-2274874D01*
X-4788255Y-2267661D01*
X-4793335Y-2265680D01*
G37*
G36*
X-4948072Y-2329535D02*
G01*
X-4884064Y-2329535D01*
X-4884064Y-2265680D01*
X-4889144Y-2267661D01*
X-4902200Y-2274874D01*
X-4914239Y-2283612D01*
X-4925060Y-2293772D01*
X-4934559Y-2305253D01*
X-4942535Y-2317800D01*
G37*
G36*
X-5301335Y-2316988D02*
G01*
X-5237327Y-2316988D01*
X-5242864Y-2305253D01*
X-5250840Y-2292654D01*
X-5260340Y-2281224D01*
X-5271160Y-2271014D01*
X-5283200Y-2262276D01*
X-5296255Y-2255113D01*
X-5301335Y-2253081D01*
G37*
G36*
X-5456072Y-2316988D02*
G01*
X-5392064Y-2316988D01*
X-5392064Y-2253081D01*
X-5397144Y-2255113D01*
X-5410200Y-2262276D01*
X-5422239Y-2271014D01*
X-5433060Y-2281224D01*
X-5442559Y-2292654D01*
X-5450535Y-2305253D01*
G37*

%LPD*%
G36*
X-7059675Y-5865317D02*
G01*
X-7063536Y-5864504D01*
X-7066838Y-5862320D01*
X-7765237Y-5163921D01*
X-7767320Y-5160924D01*
X-7768183Y-5157368D01*
X-7769148Y-5141468D01*
X-7771942Y-5126837D01*
X-7776514Y-5112715D01*
X-7782864Y-5099253D01*
X-7790840Y-5086654D01*
X-7800340Y-5075224D01*
X-7811160Y-5065014D01*
X-7823200Y-5056276D01*
X-7836255Y-5049113D01*
X-7850073Y-5043627D01*
X-7864500Y-5039918D01*
X-7868666Y-5039410D01*
X-7872628Y-5038039D01*
X-7875676Y-5035245D01*
X-7877352Y-5031384D01*
X-7877352Y-5027218D01*
X-7875676Y-5023408D01*
X-7872628Y-5020614D01*
X-7868666Y-5019243D01*
X-7864500Y-5018735D01*
X-7850073Y-5015026D01*
X-7836255Y-5009540D01*
X-7823200Y-5002377D01*
X-7811160Y-4993640D01*
X-7800340Y-4983429D01*
X-7790840Y-4971948D01*
X-7782864Y-4959400D01*
X-7776514Y-4945938D01*
X-7771942Y-4931765D01*
X-7769148Y-4917186D01*
X-7768183Y-4902301D01*
X-7769148Y-4887468D01*
X-7771942Y-4872837D01*
X-7776514Y-4858715D01*
X-7782864Y-4845253D01*
X-7790840Y-4832654D01*
X-7800340Y-4821224D01*
X-7811160Y-4811014D01*
X-7823200Y-4802276D01*
X-7836255Y-4795113D01*
X-7850073Y-4789627D01*
X-7864500Y-4785918D01*
X-7868666Y-4785410D01*
X-7872628Y-4784039D01*
X-7875676Y-4781245D01*
X-7877352Y-4777384D01*
X-7877352Y-4773218D01*
X-7875676Y-4769408D01*
X-7872628Y-4766614D01*
X-7868666Y-4765243D01*
X-7864500Y-4764735D01*
X-7850073Y-4761026D01*
X-7836255Y-4755540D01*
X-7823200Y-4748377D01*
X-7811160Y-4739640D01*
X-7800340Y-4729429D01*
X-7790840Y-4717948D01*
X-7782864Y-4705400D01*
X-7776514Y-4691938D01*
X-7771942Y-4677765D01*
X-7769148Y-4663186D01*
X-7768336Y-4650435D01*
X-7767370Y-4646676D01*
X-7765084Y-4643577D01*
X-7761782Y-4641545D01*
X-7757972Y-4640884D01*
X-7754213Y-4641697D01*
X-7751013Y-4643882D01*
X-6546900Y-5847943D01*
X-6544716Y-5851245D01*
X-6543954Y-5855157D01*
X-6544716Y-5859018D01*
X-6546900Y-5862320D01*
X-6550202Y-5864504D01*
X-6554114Y-5865317D01*
G37*

%LPD*%
G36*
X-8237677Y-6840474D02*
G01*
X-8241538Y-6839661D01*
X-8244840Y-6837476D01*
X-8481161Y-6601155D01*
X-8483346Y-6597853D01*
X-8484158Y-6593992D01*
X-8484158Y-5765292D01*
X-8483193Y-5760974D01*
X-8480450Y-5757468D01*
X-8476488Y-5755487D01*
X-8472068Y-5755335D01*
X-8468004Y-5757113D01*
X-8458200Y-5764225D01*
X-8445144Y-5771388D01*
X-8440064Y-5773420D01*
X-8440064Y-5709564D01*
X-8473998Y-5709564D01*
X-8477859Y-5708751D01*
X-8481161Y-5706567D01*
X-8483346Y-5703265D01*
X-8484158Y-5699404D01*
X-8484158Y-5628995D01*
X-8483346Y-5625134D01*
X-8481161Y-5621832D01*
X-8477859Y-5619597D01*
X-8473998Y-5618835D01*
X-8440064Y-5618835D01*
X-8440064Y-5554980D01*
X-8445144Y-5556961D01*
X-8458200Y-5564174D01*
X-8468004Y-5571286D01*
X-8472068Y-5573064D01*
X-8476488Y-5572912D01*
X-8480450Y-5570880D01*
X-8483193Y-5567375D01*
X-8484158Y-5563057D01*
X-8484158Y-5523992D01*
X-8483193Y-5519674D01*
X-8480450Y-5516168D01*
X-8476488Y-5514187D01*
X-8472068Y-5514035D01*
X-8468004Y-5515813D01*
X-8458200Y-5522925D01*
X-8445144Y-5530088D01*
X-8435086Y-5534101D01*
X-8431530Y-5536488D01*
X-8427364Y-5536590D01*
X-8416899Y-5539282D01*
X-8402116Y-5541162D01*
X-8387232Y-5541162D01*
X-8372500Y-5539282D01*
X-8362035Y-5536590D01*
X-8357717Y-5536285D01*
X-8354314Y-5534101D01*
X-8344255Y-5530088D01*
X-8331200Y-5522925D01*
X-8319160Y-5514187D01*
X-8308340Y-5504027D01*
X-8300466Y-5494528D01*
X-8296960Y-5491784D01*
X-8292642Y-5490819D01*
X-7977733Y-5490819D01*
X-7973974Y-5491530D01*
X-7970774Y-5493613D01*
X-7962239Y-5501640D01*
X-7950200Y-5510377D01*
X-7937144Y-5517540D01*
X-7923326Y-5523026D01*
X-7908899Y-5526735D01*
X-7894116Y-5528564D01*
X-7879283Y-5528564D01*
X-7864500Y-5526735D01*
X-7850073Y-5523026D01*
X-7836255Y-5517540D01*
X-7823200Y-5510377D01*
X-7811160Y-5501640D01*
X-7800340Y-5491429D01*
X-7790840Y-5479948D01*
X-7782864Y-5467400D01*
X-7776514Y-5453938D01*
X-7771942Y-5439765D01*
X-7769148Y-5425186D01*
X-7768336Y-5412435D01*
X-7767370Y-5408676D01*
X-7765084Y-5405577D01*
X-7761782Y-5403545D01*
X-7757972Y-5402884D01*
X-7754213Y-5403697D01*
X-7751013Y-5405882D01*
X-7152131Y-6004712D01*
X-7144867Y-6010706D01*
X-7142734Y-6012230D01*
X-7132320Y-6018276D01*
X-7123633Y-6021882D01*
X-7121144Y-6022695D01*
X-7112000Y-6024930D01*
X-7109409Y-6025388D01*
X-7100062Y-6026251D01*
X-4155541Y-6026251D01*
X-4146194Y-6025388D01*
X-4143603Y-6024930D01*
X-4134459Y-6022695D01*
X-4131970Y-6021882D01*
X-4123283Y-6018276D01*
X-4112869Y-6012230D01*
X-4110736Y-6010706D01*
X-4103471Y-6004712D01*
X-3131769Y-5032959D01*
X-3125774Y-5025745D01*
X-3124250Y-5023561D01*
X-3119374Y-5015534D01*
X-3114700Y-5004765D01*
X-3112719Y-4997246D01*
X-3111652Y-4994808D01*
X-3110026Y-4992674D01*
X-3100628Y-4983327D01*
X-3091434Y-4971643D01*
X-3083814Y-4958943D01*
X-3077768Y-4945380D01*
X-3073450Y-4931156D01*
X-3070910Y-4916576D01*
X-3070148Y-4901742D01*
X-3071266Y-4886960D01*
X-3074162Y-4872431D01*
X-3078835Y-4858359D01*
X-3085185Y-4844948D01*
X-3093161Y-4832400D01*
X-3102610Y-4820970D01*
X-3113379Y-4810760D01*
X-3125317Y-4801971D01*
X-3138271Y-4794707D01*
X-3151987Y-4789119D01*
X-3166313Y-4785207D01*
X-3180994Y-4783124D01*
X-3195828Y-4782870D01*
X-3210560Y-4784394D01*
X-3225038Y-4787747D01*
X-3238957Y-4792878D01*
X-3252165Y-4799634D01*
X-3264408Y-4807966D01*
X-3275584Y-4817770D01*
X-3285439Y-4828844D01*
X-3293872Y-4841036D01*
X-3300729Y-4854194D01*
X-3305911Y-4868113D01*
X-3307740Y-4875733D01*
X-3309365Y-4879289D01*
X-3312210Y-4881981D01*
X-3315817Y-4883404D01*
X-3319729Y-4883353D01*
X-3323336Y-4881778D01*
X-3326079Y-4878984D01*
X-3327552Y-4875377D01*
X-3328162Y-4872431D01*
X-3332835Y-4858359D01*
X-3339185Y-4844948D01*
X-3347161Y-4832400D01*
X-3356610Y-4820970D01*
X-3367379Y-4810760D01*
X-3379317Y-4801971D01*
X-3392271Y-4794707D01*
X-3405987Y-4789119D01*
X-3420313Y-4785207D01*
X-3434994Y-4783124D01*
X-3449828Y-4782870D01*
X-3464560Y-4784394D01*
X-3479037Y-4787747D01*
X-3492957Y-4792878D01*
X-3506165Y-4799634D01*
X-3518408Y-4807966D01*
X-3529584Y-4817770D01*
X-3539439Y-4828844D01*
X-3547872Y-4841036D01*
X-3554729Y-4854194D01*
X-3559911Y-4868113D01*
X-3561740Y-4875733D01*
X-3563365Y-4879289D01*
X-3566210Y-4881981D01*
X-3569817Y-4883404D01*
X-3573729Y-4883353D01*
X-3577336Y-4881778D01*
X-3580079Y-4878984D01*
X-3581552Y-4875377D01*
X-3582162Y-4872431D01*
X-3586835Y-4858359D01*
X-3593185Y-4844948D01*
X-3601161Y-4832400D01*
X-3610610Y-4820970D01*
X-3621379Y-4810760D01*
X-3633317Y-4801971D01*
X-3646271Y-4794707D01*
X-3659987Y-4789119D01*
X-3674313Y-4785207D01*
X-3688994Y-4783124D01*
X-3703828Y-4782870D01*
X-3718560Y-4784394D01*
X-3733037Y-4787747D01*
X-3746957Y-4792878D01*
X-3760165Y-4799634D01*
X-3772408Y-4807966D01*
X-3783584Y-4817770D01*
X-3793439Y-4828844D01*
X-3801872Y-4841036D01*
X-3808729Y-4854194D01*
X-3813911Y-4868113D01*
X-3815740Y-4875733D01*
X-3817365Y-4879289D01*
X-3820210Y-4881981D01*
X-3823817Y-4883404D01*
X-3827729Y-4883353D01*
X-3831336Y-4881778D01*
X-3834079Y-4878984D01*
X-3835552Y-4875377D01*
X-3836162Y-4872431D01*
X-3840835Y-4858359D01*
X-3847185Y-4844948D01*
X-3855161Y-4832400D01*
X-3864610Y-4820970D01*
X-3875379Y-4810760D01*
X-3887317Y-4801971D01*
X-3900271Y-4794707D01*
X-3913987Y-4789119D01*
X-3928313Y-4785207D01*
X-3942994Y-4783124D01*
X-3957828Y-4782870D01*
X-3972560Y-4784394D01*
X-3987037Y-4787747D01*
X-4000957Y-4792878D01*
X-4014165Y-4799634D01*
X-4026408Y-4807966D01*
X-4037584Y-4817770D01*
X-4047439Y-4828844D01*
X-4055872Y-4841036D01*
X-4062729Y-4854194D01*
X-4067911Y-4868113D01*
X-4071365Y-4882540D01*
X-4072991Y-4897272D01*
X-4072788Y-4912106D01*
X-4070807Y-4926838D01*
X-4066997Y-4941163D01*
X-4061460Y-4954930D01*
X-4054297Y-4967884D01*
X-4045559Y-4979924D01*
X-4035450Y-4990744D01*
X-4024071Y-5000244D01*
X-4011625Y-5008321D01*
X-3998264Y-5014772D01*
X-3984193Y-5019497D01*
X-3969664Y-5022494D01*
X-3954881Y-5023713D01*
X-3940048Y-5023053D01*
X-3925417Y-5020614D01*
X-3911193Y-5016398D01*
X-3897629Y-5010404D01*
X-3884879Y-5002834D01*
X-3873144Y-4993792D01*
X-3862628Y-4983327D01*
X-3853434Y-4971643D01*
X-3845814Y-4958943D01*
X-3839768Y-4945380D01*
X-3835247Y-4930546D01*
X-3833114Y-4926787D01*
X-3829608Y-4924196D01*
X-3825341Y-4923383D01*
X-3821125Y-4924348D01*
X-3817721Y-4927041D01*
X-3815740Y-4930902D01*
X-3812997Y-4941163D01*
X-3807460Y-4954930D01*
X-3800297Y-4967884D01*
X-3791559Y-4979924D01*
X-3781450Y-4990744D01*
X-3770071Y-5000244D01*
X-3757625Y-5008321D01*
X-3744264Y-5014772D01*
X-3730193Y-5019497D01*
X-3715664Y-5022494D01*
X-3700881Y-5023713D01*
X-3686048Y-5023053D01*
X-3671417Y-5020614D01*
X-3657193Y-5016398D01*
X-3643629Y-5010404D01*
X-3630879Y-5002834D01*
X-3619144Y-4993792D01*
X-3608628Y-4983327D01*
X-3599434Y-4971643D01*
X-3591814Y-4958943D01*
X-3585768Y-4945380D01*
X-3581247Y-4930546D01*
X-3579114Y-4926787D01*
X-3575608Y-4924196D01*
X-3571341Y-4923383D01*
X-3567125Y-4924348D01*
X-3563721Y-4927041D01*
X-3561740Y-4930902D01*
X-3558997Y-4941163D01*
X-3553460Y-4954930D01*
X-3546297Y-4967884D01*
X-3537559Y-4979924D01*
X-3527907Y-4990287D01*
X-3525875Y-4993487D01*
X-3525164Y-4997246D01*
X-3525164Y-5024374D01*
X-3525926Y-5028285D01*
X-3528110Y-5031587D01*
X-4132275Y-5635701D01*
X-4135526Y-5637885D01*
X-4139387Y-5638698D01*
X-4143248Y-5637936D01*
X-4146550Y-5635802D01*
X-4148785Y-5632551D01*
X-4153103Y-5622594D01*
X-4159504Y-5612028D01*
X-4167327Y-5602427D01*
X-4176318Y-5593994D01*
X-4186428Y-5586882D01*
X-4197400Y-5581192D01*
X-4209034Y-5577078D01*
X-4221124Y-5574538D01*
X-4233773Y-5573674D01*
X-4758791Y-5573674D01*
X-4761890Y-5573217D01*
X-4764735Y-5571744D01*
X-4775200Y-5564174D01*
X-4788255Y-5556961D01*
X-4798314Y-5552998D01*
X-4801717Y-5550814D01*
X-4803952Y-5547461D01*
X-4804765Y-5543550D01*
X-4803952Y-5539587D01*
X-4801717Y-5536285D01*
X-4798314Y-5534101D01*
X-4788255Y-5530088D01*
X-4775200Y-5522925D01*
X-4763160Y-5514187D01*
X-4752340Y-5504027D01*
X-4742840Y-5492546D01*
X-4734864Y-5479999D01*
X-4728514Y-5466486D01*
X-4723942Y-5452364D01*
X-4721148Y-5437733D01*
X-4720234Y-5422900D01*
X-4721148Y-5408066D01*
X-4723942Y-5393436D01*
X-4728514Y-5379262D01*
X-4734864Y-5365800D01*
X-4742840Y-5353253D01*
X-4752340Y-5341772D01*
X-4763160Y-5331612D01*
X-4775200Y-5322874D01*
X-4788255Y-5315661D01*
X-4802073Y-5310225D01*
X-4816500Y-5306517D01*
X-4820716Y-5305958D01*
X-4824628Y-5304637D01*
X-4827676Y-5301792D01*
X-4829352Y-5297982D01*
X-4829352Y-5293817D01*
X-4827676Y-5290007D01*
X-4824628Y-5287162D01*
X-4820716Y-5285790D01*
X-4816500Y-5285282D01*
X-4802073Y-5281574D01*
X-4788255Y-5276088D01*
X-4775200Y-5268925D01*
X-4763160Y-5260187D01*
X-4752340Y-5250027D01*
X-4742840Y-5238546D01*
X-4734864Y-5225999D01*
X-4728514Y-5212486D01*
X-4723942Y-5198364D01*
X-4721148Y-5183733D01*
X-4720234Y-5168900D01*
X-4721148Y-5154066D01*
X-4723942Y-5139436D01*
X-4728514Y-5125262D01*
X-4734864Y-5111800D01*
X-4742840Y-5099253D01*
X-4752340Y-5087772D01*
X-4763160Y-5077612D01*
X-4775200Y-5068874D01*
X-4788255Y-5061661D01*
X-4802073Y-5056225D01*
X-4816500Y-5052517D01*
X-4831232Y-5050637D01*
X-4846116Y-5050637D01*
X-4860899Y-5052517D01*
X-4875326Y-5056225D01*
X-4889144Y-5061661D01*
X-4902200Y-5068874D01*
X-4909108Y-5073904D01*
X-4911953Y-5075326D01*
X-4915103Y-5075834D01*
X-5255666Y-5075834D01*
X-5259374Y-5075123D01*
X-5262626Y-5073040D01*
X-5271160Y-5065014D01*
X-5283200Y-5056276D01*
X-5296255Y-5049113D01*
X-5310073Y-5043627D01*
X-5324500Y-5039918D01*
X-5328666Y-5039410D01*
X-5332628Y-5038039D01*
X-5335676Y-5035245D01*
X-5337352Y-5031384D01*
X-5337352Y-5027218D01*
X-5335676Y-5023408D01*
X-5332628Y-5020614D01*
X-5328666Y-5019243D01*
X-5324500Y-5018735D01*
X-5310073Y-5015026D01*
X-5296255Y-5009540D01*
X-5283200Y-5002377D01*
X-5271160Y-4993640D01*
X-5262626Y-4985613D01*
X-5259425Y-4983530D01*
X-5255666Y-4982819D01*
X-4929581Y-4982819D01*
X-4925872Y-4983530D01*
X-4922621Y-4985613D01*
X-4914239Y-4993487D01*
X-4902200Y-5002225D01*
X-4889144Y-5009388D01*
X-4875326Y-5014874D01*
X-4860899Y-5018582D01*
X-4846116Y-5020462D01*
X-4831232Y-5020462D01*
X-4816500Y-5018582D01*
X-4802073Y-5014874D01*
X-4788255Y-5009388D01*
X-4775200Y-5002225D01*
X-4763160Y-4993487D01*
X-4752340Y-4983327D01*
X-4742840Y-4971846D01*
X-4734864Y-4959299D01*
X-4728514Y-4945786D01*
X-4723942Y-4931664D01*
X-4721148Y-4917033D01*
X-4720234Y-4902200D01*
X-4721148Y-4887366D01*
X-4723942Y-4872736D01*
X-4728514Y-4858562D01*
X-4734864Y-4845100D01*
X-4742840Y-4832553D01*
X-4752340Y-4821072D01*
X-4763160Y-4810912D01*
X-4775200Y-4802174D01*
X-4788255Y-4794961D01*
X-4802073Y-4789525D01*
X-4816500Y-4785817D01*
X-4820716Y-4785258D01*
X-4824628Y-4783937D01*
X-4827676Y-4781092D01*
X-4829352Y-4777282D01*
X-4829352Y-4773117D01*
X-4827676Y-4769307D01*
X-4824628Y-4766462D01*
X-4820716Y-4765090D01*
X-4816500Y-4764582D01*
X-4802073Y-4760874D01*
X-4788255Y-4755388D01*
X-4775200Y-4748225D01*
X-4763160Y-4739487D01*
X-4752340Y-4729327D01*
X-4742840Y-4717846D01*
X-4734864Y-4705299D01*
X-4728514Y-4691786D01*
X-4723942Y-4677664D01*
X-4721148Y-4663033D01*
X-4720234Y-4648200D01*
X-4721148Y-4633366D01*
X-4723942Y-4618736D01*
X-4728514Y-4604562D01*
X-4734864Y-4591100D01*
X-4742840Y-4578553D01*
X-4752340Y-4567072D01*
X-4763160Y-4556912D01*
X-4775200Y-4548174D01*
X-4788255Y-4540961D01*
X-4802073Y-4535525D01*
X-4816500Y-4531817D01*
X-4820716Y-4531258D01*
X-4824628Y-4529937D01*
X-4827676Y-4527092D01*
X-4829352Y-4523282D01*
X-4829352Y-4519117D01*
X-4827676Y-4515307D01*
X-4824628Y-4512462D01*
X-4820716Y-4511090D01*
X-4816500Y-4510582D01*
X-4802073Y-4506874D01*
X-4788255Y-4501388D01*
X-4775200Y-4494225D01*
X-4763160Y-4485487D01*
X-4752340Y-4475327D01*
X-4742840Y-4463846D01*
X-4734864Y-4451299D01*
X-4728514Y-4437786D01*
X-4723942Y-4423664D01*
X-4721148Y-4409033D01*
X-4720234Y-4394200D01*
X-4721148Y-4379366D01*
X-4723942Y-4364736D01*
X-4728514Y-4350562D01*
X-4734864Y-4337100D01*
X-4742840Y-4324553D01*
X-4752340Y-4313072D01*
X-4763160Y-4302912D01*
X-4775200Y-4294174D01*
X-4788255Y-4286961D01*
X-4802073Y-4281525D01*
X-4816500Y-4277817D01*
X-4820716Y-4277258D01*
X-4824628Y-4275937D01*
X-4827676Y-4273092D01*
X-4829352Y-4269282D01*
X-4829352Y-4265117D01*
X-4827676Y-4261307D01*
X-4824628Y-4258462D01*
X-4820716Y-4257090D01*
X-4816500Y-4256582D01*
X-4802073Y-4252874D01*
X-4788255Y-4247388D01*
X-4775200Y-4240225D01*
X-4763160Y-4231487D01*
X-4752340Y-4221327D01*
X-4742840Y-4209846D01*
X-4734864Y-4197299D01*
X-4728514Y-4183786D01*
X-4723942Y-4169664D01*
X-4721148Y-4155033D01*
X-4720183Y-4139184D01*
X-4719320Y-4135628D01*
X-4717237Y-4132579D01*
X-4582871Y-3998214D01*
X-4579569Y-3996029D01*
X-4575708Y-3995267D01*
X-1864461Y-3995267D01*
X-1852066Y-3994353D01*
X-1840382Y-3991660D01*
X-1829155Y-3987241D01*
X-1818741Y-3981246D01*
X-1809343Y-3973728D01*
X-1801164Y-3964940D01*
X-1794408Y-3954983D01*
X-1789175Y-3944162D01*
X-1785620Y-3932682D01*
X-1783842Y-3920744D01*
X-1783842Y-3908755D01*
X-1785620Y-3896817D01*
X-1789175Y-3885336D01*
X-1794408Y-3874515D01*
X-1801164Y-3864559D01*
X-1809343Y-3855770D01*
X-1818741Y-3848252D01*
X-1829155Y-3842258D01*
X-1840382Y-3837838D01*
X-1852066Y-3835146D01*
X-1864461Y-3834231D01*
X-4616094Y-3834282D01*
X-4628032Y-3835603D01*
X-4637125Y-3837889D01*
X-4641494Y-3837990D01*
X-4645507Y-3836263D01*
X-4648454Y-3833012D01*
X-4649724Y-3828846D01*
X-4649114Y-3824528D01*
X-4646777Y-3820820D01*
X-4600194Y-3774236D01*
X-4596892Y-3772052D01*
X-4592980Y-3771239D01*
X-744270Y-3771239D01*
X-739952Y-3772204D01*
X-736498Y-3774846D01*
X-734466Y-3778758D01*
X-734212Y-3783126D01*
X-735888Y-3787190D01*
X-745540Y-3801211D01*
X-753059Y-3815384D01*
X-758850Y-3830370D01*
X-762914Y-3845864D01*
X-765200Y-3861765D01*
X-765657Y-3877767D01*
X-765403Y-3880815D01*
X-766013Y-3885184D01*
X-768350Y-3888892D01*
X-1689201Y-4809744D01*
X-1692503Y-4811979D01*
X-1696415Y-4812741D01*
X-2572258Y-4812741D01*
X-2575661Y-4812182D01*
X-2578608Y-4810506D01*
X-2581300Y-4808372D01*
X-2588361Y-4804714D01*
X-2595981Y-4802479D01*
X-2604363Y-4801768D01*
X-2763367Y-4803698D01*
X-2771749Y-4804613D01*
X-2779318Y-4807051D01*
X-2786278Y-4810861D01*
X-2792323Y-4815941D01*
X-2797302Y-4822139D01*
X-2800959Y-4829200D01*
X-2803144Y-4836820D01*
X-2803855Y-4845202D01*
X-2803702Y-4859020D01*
X-2804312Y-4862169D01*
X-2803601Y-4865420D01*
X-2803296Y-4891582D01*
X-2804058Y-4895545D01*
X-2806293Y-4898898D01*
X-2853080Y-4945684D01*
X-2856331Y-4947869D01*
X-2860141Y-4948631D01*
X-2889707Y-4949037D01*
X-2889402Y-4977638D01*
X-2890113Y-4981600D01*
X-2892348Y-4984953D01*
X-4612995Y-6705600D01*
X-4616297Y-6707835D01*
X-4620209Y-6708597D01*
X-7853934Y-6708597D01*
X-7857845Y-6707784D01*
X-7861198Y-6705498D01*
X-7870850Y-6695592D01*
X-7883245Y-6685432D01*
X-7896758Y-6676745D01*
X-7911134Y-6669684D01*
X-7926273Y-6664299D01*
X-7941868Y-6660642D01*
X-7957820Y-6658813D01*
X-7973872Y-6658813D01*
X-7989824Y-6660642D01*
X-8005419Y-6664299D01*
X-8020913Y-6669836D01*
X-8024774Y-6670395D01*
X-8028533Y-6669481D01*
X-8031683Y-6667246D01*
X-8033766Y-6663944D01*
X-8034477Y-6660083D01*
X-8033664Y-6656273D01*
X-8031530Y-6653072D01*
X-7991703Y-6613245D01*
X-7983626Y-6603847D01*
X-7977225Y-6593687D01*
X-7972399Y-6582664D01*
X-7969300Y-6571030D01*
X-7967929Y-6559092D01*
X-7968386Y-6547053D01*
X-7970621Y-6535216D01*
X-7974584Y-6523888D01*
X-7980222Y-6513271D01*
X-7987385Y-6503568D01*
X-7995869Y-6495084D01*
X-8005572Y-6487922D01*
X-8016189Y-6482283D01*
X-8027517Y-6478320D01*
X-8039353Y-6476085D01*
X-8051393Y-6475628D01*
X-8063331Y-6477000D01*
X-8074964Y-6480098D01*
X-8085988Y-6484924D01*
X-8096148Y-6491325D01*
X-8105546Y-6499402D01*
X-8205876Y-6599783D01*
X-8211870Y-6607048D01*
X-8213394Y-6609181D01*
X-8218271Y-6617258D01*
X-8219440Y-6619595D01*
X-8223046Y-6628282D01*
X-8223859Y-6630771D01*
X-8226145Y-6639915D01*
X-8227466Y-6651853D01*
X-8227517Y-6830314D01*
X-8228279Y-6834174D01*
X-8230463Y-6837476D01*
X-8233765Y-6839661D01*
G37*

%LPC*%
G36*
X-6848856Y-6430721D02*
G01*
X-6838238Y-6426403D01*
X-6828688Y-6420510D01*
X-6820153Y-6413246D01*
X-6812889Y-6404711D01*
X-6806996Y-6395161D01*
X-6802678Y-6384544D01*
X-6848856Y-6384544D01*
G37*
G36*
X-4441444Y-6430721D02*
G01*
X-4441444Y-6384544D01*
X-4487621Y-6384544D01*
X-4483303Y-6395161D01*
X-4477410Y-6404711D01*
X-4470146Y-6413246D01*
X-4461611Y-6420510D01*
X-4452061Y-6426403D01*
G37*
G36*
X-4397756Y-6430721D02*
G01*
X-4387138Y-6426403D01*
X-4377588Y-6420510D01*
X-4369054Y-6413246D01*
X-4361789Y-6404711D01*
X-4355896Y-6395161D01*
X-4351578Y-6384544D01*
X-4397756Y-6384544D01*
G37*
G36*
X-6892544Y-6430721D02*
G01*
X-6892544Y-6384544D01*
X-6938721Y-6384544D01*
X-6934403Y-6395161D01*
X-6928510Y-6404711D01*
X-6921246Y-6413246D01*
X-6912711Y-6420510D01*
X-6903161Y-6426403D01*
G37*
G36*
X-6848856Y-6340856D02*
G01*
X-6802678Y-6340856D01*
X-6806996Y-6330238D01*
X-6812889Y-6320688D01*
X-6820153Y-6312154D01*
X-6828688Y-6304889D01*
X-6838238Y-6298996D01*
X-6848856Y-6294678D01*
G37*
G36*
X-4487621Y-6340856D02*
G01*
X-4441444Y-6340856D01*
X-4441444Y-6294678D01*
X-4452061Y-6298996D01*
X-4461611Y-6304889D01*
X-4470146Y-6312154D01*
X-4477410Y-6320688D01*
X-4483303Y-6330238D01*
G37*
G36*
X-4397756Y-6340856D02*
G01*
X-4351578Y-6340856D01*
X-4355896Y-6330238D01*
X-4361789Y-6320688D01*
X-4369054Y-6312154D01*
X-4377588Y-6304889D01*
X-4387138Y-6298996D01*
X-4397756Y-6294678D01*
G37*
G36*
X-6938721Y-6340856D02*
G01*
X-6892544Y-6340856D01*
X-6892544Y-6294678D01*
X-6903161Y-6298996D01*
X-6912711Y-6304889D01*
X-6921246Y-6312154D01*
X-6928510Y-6320688D01*
X-6934403Y-6330238D01*
G37*
G36*
X-7841335Y-5773572D02*
G01*
X-7836255Y-5771540D01*
X-7823200Y-5764377D01*
X-7811160Y-5755640D01*
X-7800340Y-5745429D01*
X-7790840Y-5733948D01*
X-7782864Y-5721400D01*
X-7777327Y-5709666D01*
X-7841335Y-5709666D01*
G37*
G36*
X-7932064Y-5773572D02*
G01*
X-7932064Y-5709666D01*
X-7996072Y-5709666D01*
X-7990535Y-5721400D01*
X-7982559Y-5733948D01*
X-7973059Y-5745429D01*
X-7962239Y-5755640D01*
X-7950200Y-5764377D01*
X-7937144Y-5771540D01*
G37*
G36*
X-8349335Y-5773420D02*
G01*
X-8344255Y-5771388D01*
X-8331200Y-5764225D01*
X-8319160Y-5755487D01*
X-8308340Y-5745327D01*
X-8298840Y-5733846D01*
X-8290864Y-5721299D01*
X-8285327Y-5709564D01*
X-8349335Y-5709564D01*
G37*
G36*
X-7996072Y-5618988D02*
G01*
X-7932064Y-5618988D01*
X-7932064Y-5555081D01*
X-7937144Y-5557113D01*
X-7950200Y-5564276D01*
X-7962239Y-5573014D01*
X-7973059Y-5583224D01*
X-7982559Y-5594654D01*
X-7990535Y-5607253D01*
G37*
G36*
X-7841335Y-5618988D02*
G01*
X-7777327Y-5618988D01*
X-7782864Y-5607253D01*
X-7790840Y-5594654D01*
X-7800340Y-5583224D01*
X-7811160Y-5573014D01*
X-7823200Y-5564276D01*
X-7836255Y-5557113D01*
X-7841335Y-5555081D01*
G37*
G36*
X-8349335Y-5618835D02*
G01*
X-8285327Y-5618835D01*
X-8290864Y-5607100D01*
X-8298840Y-5594553D01*
X-8308340Y-5583072D01*
X-8319160Y-5572912D01*
X-8331200Y-5564174D01*
X-8344255Y-5556961D01*
X-8349335Y-5554980D01*
G37*
G36*
X-2981655Y-5014976D02*
G01*
X-2982417Y-4950155D01*
X-3047085Y-4950917D01*
X-3045460Y-4954930D01*
X-3038297Y-4967884D01*
X-3029559Y-4979924D01*
X-3019450Y-4990744D01*
X-3008071Y-5000244D01*
X-2995625Y-5008321D01*
G37*
G36*
X-3048203Y-4858258D02*
G01*
X-2983534Y-4857445D01*
X-2984347Y-4792624D01*
X-2998165Y-4799634D01*
X-3010408Y-4807966D01*
X-3021584Y-4817770D01*
X-3031439Y-4828844D01*
X-3039872Y-4841036D01*
X-3046730Y-4854194D01*
G37*
G36*
X-2890875Y-4856327D02*
G01*
X-2826156Y-4855514D01*
X-2831185Y-4844948D01*
X-2839161Y-4832400D01*
X-2848610Y-4820970D01*
X-2859379Y-4810760D01*
X-2871317Y-4801971D01*
X-2884271Y-4794707D01*
X-2891637Y-4791710D01*
G37*

%LPD*%
G36*
X-4486300Y-7778648D02*
G01*
X-4490516Y-7777683D01*
X-4493971Y-7774990D01*
X-4495952Y-7771130D01*
X-4498644Y-7760919D01*
X-4504182Y-7747152D01*
X-4511395Y-7734147D01*
X-4512716Y-7732318D01*
X-4514494Y-7728254D01*
X-4514342Y-7723784D01*
X-4512310Y-7719872D01*
X-4508804Y-7717129D01*
X-4504486Y-7716164D01*
X-4467606Y-7716164D01*
X-4463440Y-7717078D01*
X-4459986Y-7719568D01*
X-4457903Y-7723276D01*
X-4457547Y-7727543D01*
X-4458919Y-7731556D01*
X-4465878Y-7743139D01*
X-4471924Y-7756702D01*
X-4476394Y-7771485D01*
X-4478528Y-7775244D01*
X-4482033Y-7777835D01*
G37*

%LPD*%
G36*
X-4740300Y-7778699D02*
G01*
X-4744567Y-7777683D01*
X-4747971Y-7774990D01*
X-4749952Y-7771130D01*
X-4752644Y-7760919D01*
X-4758182Y-7747152D01*
X-4765395Y-7734147D01*
X-4766716Y-7732318D01*
X-4768494Y-7728254D01*
X-4768342Y-7723784D01*
X-4766310Y-7719872D01*
X-4762804Y-7717129D01*
X-4758486Y-7716164D01*
X-4721606Y-7716164D01*
X-4717440Y-7717078D01*
X-4713986Y-7719568D01*
X-4711903Y-7723276D01*
X-4711547Y-7727543D01*
X-4712919Y-7731556D01*
X-4719878Y-7743139D01*
X-4725924Y-7756702D01*
X-4730394Y-7771485D01*
X-4732528Y-7775295D01*
X-4736084Y-7777835D01*
G37*

%LPD*%
G36*
X-7853934Y-8301685D02*
G01*
X-7857845Y-8300872D01*
X-7861198Y-8298586D01*
X-7870850Y-8288680D01*
X-7883245Y-8278520D01*
X-7896758Y-8269833D01*
X-7911134Y-8262772D01*
X-7926273Y-8257387D01*
X-7941868Y-8253730D01*
X-7957820Y-8251901D01*
X-7973872Y-8251901D01*
X-7989824Y-8253730D01*
X-8005419Y-8257387D01*
X-8020558Y-8262772D01*
X-8034934Y-8269833D01*
X-8048447Y-8278520D01*
X-8054594Y-8283549D01*
X-8057946Y-8285378D01*
X-8061706Y-8285835D01*
X-8065414Y-8284870D01*
X-8068462Y-8282635D01*
X-8070494Y-8279434D01*
X-8071205Y-8275726D01*
X-8071205Y-8008061D01*
X-8070240Y-8003743D01*
X-8067497Y-8000238D01*
X-8063585Y-7998206D01*
X-8059115Y-7998104D01*
X-8055051Y-7999831D01*
X-8041792Y-8009483D01*
X-8027822Y-8017357D01*
X-8013039Y-8023606D01*
X-7997647Y-8028127D01*
X-7981848Y-8030870D01*
X-7965846Y-8031784D01*
X-7949844Y-8030870D01*
X-7934045Y-8028127D01*
X-7918653Y-8023606D01*
X-7903870Y-8017357D01*
X-7889900Y-8009483D01*
X-7876895Y-8000034D01*
X-7865109Y-7989214D01*
X-7854594Y-7977073D01*
X-7845552Y-7963814D01*
X-7838033Y-7949641D01*
X-7832242Y-7934706D01*
X-7828127Y-7919212D01*
X-7825892Y-7903311D01*
X-7825740Y-7899196D01*
X-7824876Y-7895437D01*
X-7822692Y-7892237D01*
X-7819440Y-7890103D01*
X-7815580Y-7889341D01*
X-4950256Y-7889341D01*
X-4947107Y-7889849D01*
X-4944262Y-7891322D01*
X-4932375Y-7900060D01*
X-4919421Y-7907324D01*
X-4905705Y-7912963D01*
X-4891379Y-7916824D01*
X-4883200Y-7917992D01*
X-4878984Y-7919618D01*
X-4875936Y-7922818D01*
X-4874514Y-7927035D01*
X-4875022Y-7931505D01*
X-4877409Y-7935264D01*
X-5240883Y-8298688D01*
X-5244185Y-8300923D01*
X-5248046Y-8301685D01*
G37*

%LPD*%
D10*
X-1587500Y-10033000D02*
G01*
X-4457700Y-10033000D01*
X-575563Y-9999979D02*
G01*
X-608584Y-10033000D01*
X-1587500Y-10033000D01*
X-4457700Y-10033000D02*
G01*
X-6845300Y-10033000D01*
X-6845300Y-10033000D02*
G01*
X-8342528Y-10033000D01*
X-8375548Y-9999979D01*
X-558672Y-1728215D02*
G01*
X-558672Y-1840712D01*
X-459892Y-1939493D01*
X-228600Y-1728215D02*
G01*
X-558672Y-1728215D01*
X-830910Y-6087897D02*
G01*
X-830910Y-4675784D01*
X-628954Y-4473829D01*
X-1625600Y-6375400D02*
G01*
X-1118412Y-6375400D01*
X-830910Y-6087897D01*
X-625246Y-6087897D02*
G01*
X-830910Y-6087897D01*
X-4419600Y-6362700D02*
G01*
X-6870700Y-6362700D01*
X-2936646Y-4903241D02*
G01*
X-2936646Y-4931079D01*
X-4368266Y-6362700D01*
X-4419600Y-6362700D01*
X-6832600Y-3263900D02*
G01*
X-7709027Y-4140327D01*
X-7886700Y-4140327D01*
X-5346700Y-2362327D02*
G01*
X-5931027Y-2362327D01*
X-6832600Y-3263900D01*
X-6972300Y-647700D02*
G01*
X-8373237Y-647700D01*
X-8375548Y-650011D01*
X-1739900Y-647700D02*
G01*
X-577875Y-647700D01*
X-575563Y-650011D01*
X-7886700Y-5664327D02*
G01*
X-7188327Y-6362700D01*
X-6870700Y-6362700D01*
X-7886700Y-5664327D02*
G01*
X-8394572Y-5664327D01*
X-8394700Y-5664200D01*
X-4838700Y-2374900D02*
G01*
X-4851272Y-2362327D01*
X-5346700Y-2362327D01*
X-228600Y-1218209D02*
G01*
X-558672Y-1218209D01*
X-558672Y-1218209D02*
G01*
X-558672Y-666902D01*
X-575563Y-650011D01*
X-228600Y-1728215D02*
G01*
X-228600Y-1218209D01*
X-7886700Y-4140327D02*
G01*
X-8394572Y-4140327D01*
X-8394700Y-4140200D01*
X-625246Y-3372891D02*
G01*
X-1317396Y-3372891D01*
X-1565046Y-3125241D01*
D11*
X-7886700Y-1092327D02*
G01*
X-8394572Y-1092327D01*
X-8394700Y-1092200D01*
X-7886700Y-1346327D02*
G01*
X-8394572Y-1346327D01*
X-8394700Y-1346200D01*
X-7886700Y-1600327D02*
G01*
X-8394572Y-1600327D01*
X-8394700Y-1600200D01*
X-7886700Y-1854327D02*
G01*
X-8394572Y-1854327D01*
X-8394700Y-1854200D01*
X-7886700Y-2108327D02*
G01*
X-8382127Y-2108327D01*
X-8394700Y-2120900D01*
X-625246Y-7668285D02*
G01*
X-1173734Y-7119797D01*
X-8076387Y-7119797D01*
X-8564651Y-6631533D01*
X-8564651Y-2290851D01*
X-8394700Y-2120900D01*
X-7886700Y-2362327D02*
G01*
X-8382127Y-2362327D01*
X-8394700Y-2374900D01*
X-7886700Y-3886327D02*
G01*
X-8382127Y-3886327D01*
X-8394700Y-3898900D01*
X-7886700Y-3632327D02*
G01*
X-8382127Y-3632327D01*
X-8394700Y-3644900D01*
X-2283434Y-1639900D02*
G01*
X-2269972Y-1626438D01*
X-2269972Y-948436D01*
X-2319985Y-898423D01*
X-5384139Y-898423D01*
X-6631025Y-2145309D01*
X-6631025Y-2376652D01*
X-7886700Y-3632327D01*
X-2538501Y-1639900D02*
G01*
X-2283434Y-1639900D01*
X-7886700Y-3378327D02*
G01*
X-8394572Y-3378327D01*
X-8394700Y-3378200D01*
X-7886700Y-3124200D02*
G01*
X-7886700Y-3124327D01*
X-625246Y-2773959D02*
G01*
X-2149246Y-1249959D01*
X-2149246Y-880287D01*
X-2265121Y-764412D01*
X-5526913Y-764412D01*
X-7886700Y-3124200D01*
X-7886700Y-3124200D02*
G01*
X-8394700Y-3124200D01*
X-7886700Y-2870200D02*
G01*
X-7886700Y-2870327D01*
X-625246Y-2273071D02*
G01*
X-625246Y-2222652D01*
X-2208606Y-639292D01*
X-5655792Y-639292D01*
X-7886700Y-2870200D01*
X-7886700Y-2870200D02*
G01*
X-8394700Y-2870200D01*
X-7886700Y-2616327D02*
G01*
X-8394572Y-2616327D01*
X-8394700Y-2616200D01*
X-625246Y-6588785D02*
G01*
X-1024280Y-6987819D01*
X-8032064Y-6987819D01*
X-8146999Y-6872884D01*
X-8146999Y-6654698D01*
X-8048370Y-6556070D01*
X-7886700Y-5410327D02*
G01*
X-8382127Y-5410327D01*
X-8394700Y-5422900D01*
X-7886700Y-5156327D02*
G01*
X-7097217Y-5945809D01*
X-4158386Y-5945809D01*
X-3190646Y-4978069D01*
X-3190646Y-4903241D01*
X-8394700Y-5168900D02*
G01*
X-8382127Y-5156327D01*
X-7886700Y-5156327D01*
X-7886700Y-4902327D02*
G01*
X-8394572Y-4902327D01*
X-8394700Y-4902200D01*
X-7886700Y-4648327D02*
G01*
X-8394572Y-4648327D01*
X-8394700Y-4648200D01*
X-7886700Y-4394327D02*
G01*
X-8394572Y-4394327D01*
X-8394700Y-4394200D01*
X-3444646Y-4903241D02*
G01*
X-3444646Y-5061940D01*
X-4205198Y-5822492D01*
X-6458534Y-5822492D01*
X-7886700Y-4394327D01*
X-5346700Y-4140327D02*
G01*
X-4838827Y-4140327D01*
X-4838700Y-4140200D01*
X-1864080Y-3914749D02*
G01*
X-4613249Y-3914749D01*
X-4838700Y-4140200D01*
X-5346700Y-4394327D02*
G01*
X-4838827Y-4394327D01*
X-4838700Y-4394200D01*
X-5346700Y-4648327D02*
G01*
X-4838827Y-4648327D01*
X-4838700Y-4648200D01*
X-5346700Y-4902327D02*
G01*
X-4838827Y-4902327D01*
X-4838700Y-4902200D01*
X-5346700Y-5156327D02*
G01*
X-4851272Y-5156327D01*
X-4838700Y-5168900D01*
X-5346700Y-5410327D02*
G01*
X-4851272Y-5410327D01*
X-4838700Y-5422900D01*
X-5346700Y-2616327D02*
G01*
X-4838827Y-2616327D01*
X-4838700Y-2616200D01*
X-5346700Y-2870327D02*
G01*
X-4838827Y-2870327D01*
X-4838700Y-2870200D01*
X-2538501Y-1439900D02*
G01*
X-2793568Y-1439900D01*
X-2793568Y-1439900D02*
G01*
X-3583228Y-2229561D01*
X-3583228Y-2453487D01*
X-3999941Y-2870200D01*
X-4838700Y-2870200D01*
X-5346700Y-3124327D02*
G01*
X-4838827Y-3124327D01*
X-4838700Y-3124200D01*
X-2538501Y-2039899D02*
G01*
X-2283434Y-2039899D01*
X-2283434Y-2039899D02*
G01*
X-2278913Y-2044420D01*
X-2278913Y-3030093D01*
X-2547620Y-3298799D01*
X-4664100Y-3298799D01*
X-4838700Y-3124200D01*
X-5346700Y-3378327D02*
G01*
X-4838827Y-3378327D01*
X-4838700Y-3378200D01*
X-5346700Y-3632327D02*
G01*
X-4851272Y-3632327D01*
X-4838700Y-3644900D01*
X-5346700Y-3886327D02*
G01*
X-5334127Y-3898900D01*
X-4838700Y-3898900D01*
X-628954Y-4981829D02*
G01*
X-433298Y-4786172D01*
X-433298Y-3793489D01*
X-536041Y-3690746D01*
X-4630547Y-3690746D01*
X-4838700Y-3898900D01*
X-5346700Y-2108327D02*
G01*
X-4851272Y-2108327D01*
X-4838700Y-2120900D01*
X-5346700Y-1854327D02*
G01*
X-4838827Y-1854327D01*
X-4838700Y-1854200D01*
X-5346700Y-1600327D02*
G01*
X-4838827Y-1600327D01*
X-4838700Y-1600200D01*
X-5346700Y-1346327D02*
G01*
X-4838827Y-1346327D01*
X-4838700Y-1346200D01*
D10*
X-5346700Y-1092327D02*
G01*
X-4838827Y-1092327D01*
X-4838700Y-1092200D01*
X-2682646Y-4903241D02*
G01*
X-1654708Y-4903241D01*
X-625246Y-3873779D01*
X-7965846Y-6799097D02*
G01*
X-4578502Y-6799097D01*
X-2682646Y-4903241D01*
X-5346700Y-5664327D02*
G01*
X-4838827Y-5664327D01*
X-4838700Y-5664200D01*
X-4838700Y-5664200D02*
G01*
X-4233443Y-5664200D01*
X-3938498Y-1039901D02*
G01*
X-2907334Y-1039901D01*
X-4105020Y-7798841D02*
G01*
X-4278198Y-7625664D01*
X-7969122Y-7625664D01*
X-8161705Y-7818246D01*
X-8161705Y-8774937D01*
X-7965846Y-8970797D01*
X-4359020Y-7798841D02*
G01*
X-6031865Y-9471685D01*
X-7965846Y-9471685D01*
X-4867020Y-7798841D02*
G01*
X-7873390Y-7798841D01*
X-7965846Y-7891297D01*
X-4613020Y-7798841D02*
G01*
X-5206365Y-8392185D01*
X-7965846Y-8392185D01*
D12*
G01*
X-228600Y-1218209D03*
G01*
X-228600Y-1728215D03*
D13*
G01*
X-587146Y-9424441D03*
G01*
X-2085746Y-9424441D03*
G01*
X-585622Y-8324367D03*
G01*
X-2085746Y-8319541D03*
D14*
G01*
X-7886700Y-1092327D03*
G01*
X-7886700Y-1346327D03*
G01*
X-7886700Y-1600327D03*
G01*
X-7886700Y-1854327D03*
G01*
X-7886700Y-2108327D03*
G01*
X-7886700Y-2362327D03*
G01*
X-7886700Y-2616327D03*
G01*
X-7886700Y-2870327D03*
G01*
X-7886700Y-3124327D03*
G01*
X-7886700Y-3378327D03*
G01*
X-7886700Y-3632327D03*
G01*
X-7886700Y-3886327D03*
G01*
X-7886700Y-4140327D03*
G01*
X-7886700Y-4394327D03*
G01*
X-7886700Y-4648327D03*
G01*
X-7886700Y-4902327D03*
G01*
X-7886700Y-5156327D03*
G01*
X-7886700Y-5410327D03*
G01*
X-7886700Y-5664327D03*
G01*
X-5346700Y-1346327D03*
G01*
X-5346700Y-1600327D03*
G01*
X-5346700Y-1854327D03*
G01*
X-5346700Y-2108327D03*
G01*
X-5346700Y-2362327D03*
G01*
X-5346700Y-2616327D03*
G01*
X-5346700Y-2870327D03*
G01*
X-5346700Y-3124327D03*
G01*
X-5346700Y-3378327D03*
G01*
X-5346700Y-3632327D03*
G01*
X-5346700Y-3886327D03*
G01*
X-5346700Y-4140327D03*
G01*
X-5346700Y-4394327D03*
G01*
X-5346700Y-4648327D03*
G01*
X-5346700Y-4902327D03*
G01*
X-5346700Y-5156327D03*
G01*
X-5346700Y-1092327D03*
G01*
X-5346700Y-5410327D03*
D15*
G01*
X-5346700Y-5664327D03*
D16*
G01*
X-625246Y-3873779D03*
G01*
X-625246Y-3372891D03*
G01*
X-625246Y-7668285D03*
G01*
X-625246Y-7167397D03*
G01*
X-625246Y-6588785D03*
G01*
X-625246Y-6087897D03*
G01*
X-628954Y-4473829D03*
G01*
X-628954Y-5489829D03*
G01*
X-628954Y-4981829D03*
G01*
X-625246Y-2773959D03*
G01*
X-625246Y-2273071D03*
G01*
X-7965846Y-7891297D03*
G01*
X-7965846Y-8392185D03*
G01*
X-7965846Y-6799097D03*
G01*
X-7965846Y-7299985D03*
G01*
X-7965846Y-8970797D03*
G01*
X-7965846Y-9471685D03*
D17*
G01*
X-3901846Y-3125241D03*
G01*
X-3647846Y-3125241D03*
G01*
X-3393846Y-3125241D03*
G01*
X-3139846Y-3125241D03*
G01*
X-2885846Y-3125241D03*
D18*
G01*
X-2631846Y-3125236D03*
D17*
G01*
X-3952646Y-4903241D03*
G01*
X-3698646Y-4903241D03*
G01*
X-3444646Y-4903241D03*
G01*
X-3190646Y-4903241D03*
G01*
X-2936646Y-4903241D03*
D18*
G01*
X-2682646Y-4903236D03*
D19*
G01*
X-3938498Y-1039901D03*
G01*
X-3938498Y-1239901D03*
G01*
X-3938498Y-1439900D03*
G01*
X-3938498Y-1639900D03*
G01*
X-3938498Y-1839899D03*
G01*
X-3938498Y-2039899D03*
G01*
X-3938498Y-2239898D03*
G01*
X-3938498Y-2439898D03*
G01*
X-2538501Y-2439898D03*
G01*
X-2538501Y-2239898D03*
G01*
X-2538501Y-2039899D03*
G01*
X-2538501Y-1839899D03*
G01*
X-2538501Y-1639900D03*
G01*
X-2538501Y-1439900D03*
G01*
X-2538501Y-1239901D03*
G01*
X-2538501Y-1039901D03*
D20*
G01*
X-4105033Y-7798838D03*
D17*
G01*
X-4359020Y-7798841D03*
G01*
X-4613020Y-7798841D03*
G01*
X-4867020Y-7798841D03*
D21*
G01*
X-8375548Y-9999979D03*
G01*
X-575563Y-9999979D03*
G01*
X-575563Y-650011D03*
G01*
X-8375548Y-650011D03*
D22*
G01*
X-4457700Y-10033000D03*
G01*
X-1587500Y-10033000D03*
G01*
X-6845300Y-10033000D03*
G01*
X-6870700Y-6362700D03*
G01*
X-1625600Y-6375400D03*
G01*
X-4419600Y-6362700D03*
G01*
X-6832600Y-3263900D03*
G01*
X-1565046Y-3125241D03*
G01*
X-6972300Y-647700D03*
G01*
X-1739900Y-647700D03*
D23*
G01*
X-8394700Y-1092200D03*
G01*
X-8394700Y-1346200D03*
G01*
X-8394700Y-1600200D03*
G01*
X-8394700Y-1854200D03*
G01*
X-8394700Y-2120900D03*
G01*
X-8394700Y-2374900D03*
G01*
X-8394700Y-3898900D03*
G01*
X-8394700Y-3644900D03*
G01*
X-8394700Y-3378200D03*
G01*
X-8394700Y-3124200D03*
G01*
X-8394700Y-2870200D03*
G01*
X-8394700Y-2616200D03*
G01*
X-8394700Y-5422900D03*
G01*
X-8394700Y-5168900D03*
G01*
X-8394700Y-4902200D03*
G01*
X-8394700Y-4648200D03*
G01*
X-8394700Y-4394200D03*
G01*
X-8394700Y-4140200D03*
G01*
X-8394700Y-5664200D03*
G01*
X-4838700Y-4140200D03*
G01*
X-4838700Y-4394200D03*
G01*
X-4838700Y-4648200D03*
G01*
X-4838700Y-4902200D03*
G01*
X-4838700Y-5168900D03*
G01*
X-4838700Y-5422900D03*
G01*
X-4838700Y-2616200D03*
G01*
X-4838700Y-2870200D03*
G01*
X-4838700Y-3124200D03*
G01*
X-4838700Y-3378200D03*
G01*
X-4838700Y-3644900D03*
G01*
X-4838700Y-3898900D03*
G01*
X-4838700Y-2374900D03*
G01*
X-4838700Y-2120900D03*
G01*
X-4838700Y-1854200D03*
G01*
X-4838700Y-1600200D03*
G01*
X-4838700Y-1346200D03*
G01*
X-4838700Y-1092200D03*
G01*
X-4838700Y-5664200D03*
D24*
G01*
X-459892Y-1939493D03*
G01*
X-8048370Y-6556070D03*
G01*
X-1864080Y-3914749D03*
G01*
X-4233443Y-5664200D03*
G01*
X-2907334Y-1039901D03*
M02*
