G04 Layer: TopLayer*
G04 EasyEDA v6.5.42, 2024-04-02 15:40:40*
G04 3ff643a6e98b40ca98db11d284ab65ea,acb5ada5342d49438264df6f97d5643c,10*
G04 Gerber Generator version 0.2*
G04 Scale: 100 percent, Rotated: No, Reflected: No *
G04 Dimensions in millimeters *
G04 leading zeros omitted , absolute positions ,4 integer and 5 decimal *
%FSLAX45Y45*%
%MOMM*%

%AMMACRO1*21,1,$1,$2,0,0,$3*%
%ADD10C,1.0000*%
%ADD11C,0.8000*%
%ADD12R,4.8000X1.2000*%
%ADD13R,1.5748X1.5748*%
%ADD14C,1.5601*%
%ADD15R,1.5601X1.5601*%
%ADD16C,2.0000*%
%ADD17C,1.6000*%
%ADD18MACRO1,1.6X1.2X0.7004*%
%ADD19R,3.5000X1.2000*%
%ADD20MACRO1,1.6X1.2X-179.2996*%
%ADD21C,4.0000*%
%ADD22C,0.6200*%
%ADD23C,1.5600*%
%ADD24C,0.7000*%
%ADD25C,0.0136*%

%LPD*%
G36*
X-3716070Y-1174546D02*
G01*
X-3720033Y-1173480D01*
X-3723284Y-1170990D01*
X-3725214Y-1167384D01*
X-3726129Y-1164386D01*
X-3729837Y-1157427D01*
X-3734866Y-1151280D01*
X-3739184Y-1147724D01*
X-3741928Y-1144219D01*
X-3742893Y-1139901D01*
X-3741928Y-1135532D01*
X-3739184Y-1132027D01*
X-3734866Y-1128522D01*
X-3729837Y-1122375D01*
X-3726129Y-1115364D01*
X-3725214Y-1112418D01*
X-3723284Y-1108811D01*
X-3720033Y-1106271D01*
X-3716070Y-1105204D01*
X-3712006Y-1105814D01*
X-3708501Y-1107998D01*
X-3706164Y-1111351D01*
X-3705351Y-1115364D01*
X-3705351Y-1164437D01*
X-3706164Y-1168450D01*
X-3708501Y-1171803D01*
X-3712006Y-1173937D01*
G37*

%LPD*%
G36*
X-3716070Y-1374546D02*
G01*
X-3720033Y-1373479D01*
X-3723284Y-1370990D01*
X-3725214Y-1367383D01*
X-3726129Y-1364386D01*
X-3729837Y-1357426D01*
X-3734866Y-1351280D01*
X-3739184Y-1347724D01*
X-3741928Y-1344218D01*
X-3742893Y-1339900D01*
X-3741928Y-1335532D01*
X-3739184Y-1332026D01*
X-3734866Y-1328521D01*
X-3729837Y-1322374D01*
X-3726129Y-1315364D01*
X-3725214Y-1312418D01*
X-3723284Y-1308811D01*
X-3720033Y-1306271D01*
X-3716070Y-1305204D01*
X-3712006Y-1305814D01*
X-3708501Y-1307998D01*
X-3706164Y-1311351D01*
X-3705351Y-1315364D01*
X-3705351Y-1364437D01*
X-3706164Y-1368450D01*
X-3708501Y-1371803D01*
X-3712006Y-1373936D01*
G37*

%LPD*%
G36*
X-2756001Y-2159406D02*
G01*
X-2759913Y-2158593D01*
X-2763215Y-2156409D01*
X-3541369Y-1378254D01*
X-3543554Y-1374952D01*
X-3544315Y-1371092D01*
X-3544315Y-1035964D01*
X-3543554Y-1032103D01*
X-3541369Y-1028801D01*
X-3538067Y-1026617D01*
X-3534156Y-1025804D01*
X-3530295Y-1026617D01*
X-3526993Y-1028801D01*
X-3064510Y-1491284D01*
X-3062325Y-1494586D01*
X-3061512Y-1498447D01*
X-3061462Y-1655267D01*
X-3060598Y-1664614D01*
X-3060141Y-1667205D01*
X-3057906Y-1676349D01*
X-3057093Y-1678838D01*
X-3053486Y-1687525D01*
X-3052267Y-1689912D01*
X-3047441Y-1697939D01*
X-3045917Y-1700123D01*
X-3039922Y-1707337D01*
X-2848457Y-1898802D01*
X-2841244Y-1904796D01*
X-2839059Y-1906320D01*
X-2831033Y-1911146D01*
X-2828645Y-1912366D01*
X-2819958Y-1915972D01*
X-2817469Y-1916785D01*
X-2808325Y-1919020D01*
X-2805734Y-1919478D01*
X-2796387Y-1920341D01*
X-2753563Y-1920392D01*
X-2749194Y-1921408D01*
X-2745689Y-1924100D01*
X-2742082Y-1928520D01*
X-2737815Y-1932025D01*
X-2735072Y-1935530D01*
X-2734056Y-1939899D01*
X-2735072Y-1944217D01*
X-2737815Y-1947722D01*
X-2742082Y-1951278D01*
X-2747111Y-1957425D01*
X-2750870Y-1964385D01*
X-2753156Y-1972005D01*
X-2754020Y-1980387D01*
X-2754020Y-2099411D01*
X-2753156Y-2107793D01*
X-2750870Y-2115362D01*
X-2747111Y-2122373D01*
X-2742082Y-2128520D01*
X-2737815Y-2132025D01*
X-2735072Y-2135530D01*
X-2734056Y-2139899D01*
X-2735072Y-2144217D01*
X-2737815Y-2147722D01*
X-2742082Y-2151278D01*
X-2745689Y-2155698D01*
X-2749245Y-2158441D01*
X-2753563Y-2159406D01*
G37*

%LPD*%
G36*
X-7955788Y-3027172D02*
G01*
X-7960207Y-3027019D01*
X-7964170Y-3024987D01*
X-7966913Y-3021482D01*
X-7967878Y-3017164D01*
X-7967878Y-2977489D01*
X-7966913Y-2973120D01*
X-7964170Y-2969615D01*
X-7960207Y-2967634D01*
X-7955788Y-2967482D01*
X-7951724Y-2969260D01*
X-7950200Y-2970377D01*
X-7937144Y-2977540D01*
X-7923326Y-2983026D01*
X-7908899Y-2986735D01*
X-7904734Y-2987243D01*
X-7900771Y-2988614D01*
X-7897723Y-2991408D01*
X-7896047Y-2995218D01*
X-7896047Y-2999384D01*
X-7897723Y-3003245D01*
X-7900771Y-3006039D01*
X-7904734Y-3007410D01*
X-7908899Y-3007918D01*
X-7923326Y-3011627D01*
X-7937144Y-3017113D01*
X-7950200Y-3024276D01*
X-7951724Y-3025394D01*
G37*

%LPD*%
G36*
X-7955788Y-3281172D02*
G01*
X-7960207Y-3281019D01*
X-7964170Y-3278987D01*
X-7966913Y-3275482D01*
X-7967878Y-3271164D01*
X-7967878Y-3231489D01*
X-7966913Y-3227120D01*
X-7964170Y-3223615D01*
X-7960207Y-3221634D01*
X-7955788Y-3221482D01*
X-7951724Y-3223260D01*
X-7950200Y-3224377D01*
X-7937144Y-3231540D01*
X-7923326Y-3237026D01*
X-7908899Y-3240735D01*
X-7904734Y-3241243D01*
X-7900771Y-3242614D01*
X-7897723Y-3245408D01*
X-7896047Y-3249218D01*
X-7896047Y-3253384D01*
X-7897723Y-3257245D01*
X-7900771Y-3260039D01*
X-7904734Y-3261410D01*
X-7908899Y-3261918D01*
X-7923326Y-3265627D01*
X-7937144Y-3271113D01*
X-7950200Y-3278276D01*
X-7951724Y-3279394D01*
G37*

%LPD*%
G36*
X-7955788Y-3535172D02*
G01*
X-7960207Y-3535019D01*
X-7964170Y-3532987D01*
X-7966913Y-3529482D01*
X-7967878Y-3525164D01*
X-7967878Y-3485489D01*
X-7966913Y-3481120D01*
X-7964170Y-3477615D01*
X-7960207Y-3475634D01*
X-7955788Y-3475482D01*
X-7951724Y-3477260D01*
X-7950200Y-3478377D01*
X-7937144Y-3485540D01*
X-7923326Y-3491026D01*
X-7908899Y-3494735D01*
X-7904734Y-3495243D01*
X-7900771Y-3496614D01*
X-7897723Y-3499408D01*
X-7896047Y-3503218D01*
X-7896047Y-3507384D01*
X-7897723Y-3511245D01*
X-7900771Y-3514039D01*
X-7904734Y-3515410D01*
X-7908899Y-3515918D01*
X-7923326Y-3519627D01*
X-7937144Y-3525113D01*
X-7950200Y-3532276D01*
X-7951724Y-3533394D01*
G37*

%LPD*%
G36*
X-7757972Y-3639769D02*
G01*
X-7761782Y-3639108D01*
X-7765084Y-3637076D01*
X-7767370Y-3633978D01*
X-7768336Y-3630218D01*
X-7769148Y-3617468D01*
X-7771942Y-3602837D01*
X-7776514Y-3588715D01*
X-7782864Y-3575253D01*
X-7790840Y-3562654D01*
X-7800340Y-3551224D01*
X-7811160Y-3541014D01*
X-7823200Y-3532276D01*
X-7836255Y-3525113D01*
X-7850073Y-3519627D01*
X-7864500Y-3515918D01*
X-7868666Y-3515410D01*
X-7872628Y-3514039D01*
X-7875676Y-3511245D01*
X-7877352Y-3507384D01*
X-7877352Y-3503218D01*
X-7875676Y-3499408D01*
X-7872628Y-3496614D01*
X-7868666Y-3495243D01*
X-7864500Y-3494735D01*
X-7850073Y-3491026D01*
X-7836255Y-3485540D01*
X-7823200Y-3478377D01*
X-7811160Y-3469640D01*
X-7800340Y-3459429D01*
X-7790840Y-3447948D01*
X-7782864Y-3435400D01*
X-7776514Y-3421938D01*
X-7771942Y-3407765D01*
X-7769148Y-3393186D01*
X-7768183Y-3377285D01*
X-7767320Y-3373729D01*
X-7765237Y-3370732D01*
X-7576007Y-3181400D01*
X-7570012Y-3174187D01*
X-7568488Y-3172002D01*
X-7563612Y-3163976D01*
X-7562443Y-3161588D01*
X-7558836Y-3152902D01*
X-7558024Y-3150412D01*
X-7555738Y-3141268D01*
X-7554417Y-3129330D01*
X-7554366Y-3022955D01*
X-7553604Y-3019094D01*
X-7551420Y-3015792D01*
X-7434021Y-2898394D01*
X-7430719Y-2896209D01*
X-7426807Y-2895396D01*
X-7422946Y-2896209D01*
X-7419644Y-2898394D01*
X-7417460Y-2901696D01*
X-7416647Y-2905556D01*
X-7416647Y-3298240D01*
X-7417460Y-3302101D01*
X-7419644Y-3305403D01*
X-7751013Y-3636772D01*
X-7754213Y-3638956D01*
G37*

%LPD*%
G36*
X-7955788Y-3789172D02*
G01*
X-7960207Y-3789019D01*
X-7964170Y-3786987D01*
X-7966913Y-3783482D01*
X-7967878Y-3779164D01*
X-7967878Y-3739489D01*
X-7966913Y-3735120D01*
X-7964170Y-3731615D01*
X-7960207Y-3729634D01*
X-7955788Y-3729482D01*
X-7951724Y-3731260D01*
X-7950200Y-3732377D01*
X-7937144Y-3739540D01*
X-7923326Y-3745026D01*
X-7908899Y-3748735D01*
X-7904734Y-3749243D01*
X-7900771Y-3750614D01*
X-7897723Y-3753408D01*
X-7896047Y-3757218D01*
X-7896047Y-3761384D01*
X-7897723Y-3765245D01*
X-7900771Y-3768039D01*
X-7904734Y-3769410D01*
X-7908899Y-3769918D01*
X-7923326Y-3773627D01*
X-7937144Y-3779113D01*
X-7950200Y-3786276D01*
X-7951724Y-3787394D01*
G37*

%LPD*%
G36*
X-7955788Y-4551172D02*
G01*
X-7960207Y-4551019D01*
X-7964170Y-4548987D01*
X-7966913Y-4545482D01*
X-7967878Y-4541164D01*
X-7967878Y-4501489D01*
X-7966913Y-4497120D01*
X-7964170Y-4493615D01*
X-7960207Y-4491634D01*
X-7955788Y-4491482D01*
X-7951724Y-4493260D01*
X-7950200Y-4494377D01*
X-7937144Y-4501540D01*
X-7923326Y-4507026D01*
X-7908899Y-4510735D01*
X-7904734Y-4511243D01*
X-7900771Y-4512614D01*
X-7897723Y-4515408D01*
X-7896047Y-4519218D01*
X-7896047Y-4523384D01*
X-7897723Y-4527245D01*
X-7900771Y-4530039D01*
X-7904734Y-4531410D01*
X-7908899Y-4531918D01*
X-7923326Y-4535627D01*
X-7937144Y-4541113D01*
X-7950200Y-4548276D01*
X-7951724Y-4549394D01*
G37*

%LPD*%
G36*
X-7955788Y-4805172D02*
G01*
X-7960207Y-4805019D01*
X-7964170Y-4802987D01*
X-7966913Y-4799482D01*
X-7967878Y-4795164D01*
X-7967878Y-4755489D01*
X-7966913Y-4751120D01*
X-7964170Y-4747615D01*
X-7960207Y-4745634D01*
X-7955788Y-4745482D01*
X-7951724Y-4747260D01*
X-7950200Y-4748377D01*
X-7937144Y-4755540D01*
X-7923326Y-4761026D01*
X-7908899Y-4764735D01*
X-7904734Y-4765243D01*
X-7900771Y-4766614D01*
X-7897723Y-4769408D01*
X-7896047Y-4773218D01*
X-7896047Y-4777384D01*
X-7897723Y-4781245D01*
X-7900771Y-4784039D01*
X-7904734Y-4785410D01*
X-7908899Y-4785918D01*
X-7923326Y-4789627D01*
X-7937144Y-4795113D01*
X-7950200Y-4802276D01*
X-7951724Y-4803394D01*
G37*

%LPD*%
G36*
X-7955788Y-5059172D02*
G01*
X-7960207Y-5059019D01*
X-7964170Y-5056987D01*
X-7966913Y-5053482D01*
X-7967878Y-5049164D01*
X-7967878Y-5009489D01*
X-7966913Y-5005120D01*
X-7964170Y-5001615D01*
X-7960207Y-4999634D01*
X-7955788Y-4999482D01*
X-7951724Y-5001260D01*
X-7950200Y-5002377D01*
X-7937144Y-5009540D01*
X-7923326Y-5015026D01*
X-7908899Y-5018735D01*
X-7904734Y-5019243D01*
X-7900771Y-5020614D01*
X-7897723Y-5023408D01*
X-7896047Y-5027218D01*
X-7896047Y-5031384D01*
X-7897723Y-5035245D01*
X-7900771Y-5038039D01*
X-7904734Y-5039410D01*
X-7908899Y-5039918D01*
X-7923326Y-5043627D01*
X-7937144Y-5049113D01*
X-7950200Y-5056276D01*
X-7951724Y-5057394D01*
G37*

%LPD*%
G36*
X-7955788Y-5313172D02*
G01*
X-7960207Y-5313019D01*
X-7964170Y-5310987D01*
X-7966913Y-5307482D01*
X-7967878Y-5303164D01*
X-7967878Y-5263489D01*
X-7966913Y-5259120D01*
X-7964170Y-5255615D01*
X-7960207Y-5253634D01*
X-7955788Y-5253482D01*
X-7951724Y-5255260D01*
X-7950200Y-5256377D01*
X-7937144Y-5263540D01*
X-7923326Y-5269026D01*
X-7908899Y-5272735D01*
X-7904734Y-5273243D01*
X-7900771Y-5274614D01*
X-7897723Y-5277408D01*
X-7896047Y-5281218D01*
X-7896047Y-5285384D01*
X-7897723Y-5289245D01*
X-7900771Y-5292039D01*
X-7904734Y-5293410D01*
X-7908899Y-5293918D01*
X-7923326Y-5297627D01*
X-7937144Y-5303113D01*
X-7950200Y-5310276D01*
X-7951724Y-5311394D01*
G37*

%LPD*%
G36*
X-8853932Y-10261092D02*
G01*
X-8857843Y-10260330D01*
X-8861094Y-10258094D01*
X-8863330Y-10254843D01*
X-8864092Y-10250932D01*
X-8864092Y-404368D01*
X-8863330Y-400456D01*
X-8861094Y-397205D01*
X-8857843Y-394970D01*
X-8853932Y-394208D01*
X40132Y-394208D01*
X44043Y-394970D01*
X47294Y-397205D01*
X49530Y-400456D01*
X50292Y-404368D01*
X50292Y-1107135D01*
X49530Y-1110996D01*
X47345Y-1114298D01*
X44043Y-1116482D01*
X40182Y-1117295D01*
X30124Y-1117346D01*
X23215Y-1118463D01*
X20320Y-1118616D01*
X10922Y-1117650D01*
X-102260Y-1117650D01*
X-102260Y-1181811D01*
X-4673Y-1181811D01*
X-762Y-1182624D01*
X2540Y-1184808D01*
X4724Y-1188110D01*
X5486Y-1191971D01*
X5486Y-1244396D01*
X4724Y-1248257D01*
X2540Y-1251559D01*
X-762Y-1253744D01*
X-4673Y-1254556D01*
X-102260Y-1254556D01*
X-102260Y-1318666D01*
X-4673Y-1318666D01*
X-762Y-1319479D01*
X2540Y-1321663D01*
X4724Y-1324965D01*
X5486Y-1328826D01*
X5486Y-1362506D01*
X4724Y-1366418D01*
X2540Y-1369720D01*
X-762Y-1371904D01*
X-4673Y-1372666D01*
X-468071Y-1372666D01*
X-476504Y-1373479D01*
X-484073Y-1375816D01*
X-491083Y-1379524D01*
X-495096Y-1382115D01*
X-498551Y-1382674D01*
X-983792Y-1382674D01*
X-987704Y-1381912D01*
X-991006Y-1379728D01*
X-1544828Y-825906D01*
X-1551990Y-819403D01*
X-1562100Y-812292D01*
X-1564487Y-810920D01*
X-1573072Y-806653D01*
X-1575612Y-805586D01*
X-1587398Y-801827D01*
X-1599539Y-799693D01*
X-1609242Y-799185D01*
X-2756865Y-799185D01*
X-2766568Y-799693D01*
X-2778760Y-801827D01*
X-2781401Y-802538D01*
X-2790494Y-805586D01*
X-2793034Y-806653D01*
X-2801670Y-810920D01*
X-2804007Y-812292D01*
X-2811983Y-817727D01*
X-2814116Y-819403D01*
X-2821330Y-825906D01*
X-2971088Y-975664D01*
X-2979420Y-985215D01*
X-2986227Y-995578D01*
X-2991510Y-1006703D01*
X-2995269Y-1018489D01*
X-2997352Y-1030630D01*
X-2997758Y-1042974D01*
X-2996488Y-1055268D01*
X-2993593Y-1067257D01*
X-2989072Y-1078738D01*
X-2982976Y-1089507D01*
X-2975508Y-1099362D01*
X-2966821Y-1108100D01*
X-2956966Y-1115568D01*
X-2946196Y-1121613D01*
X-2934716Y-1126134D01*
X-2922727Y-1129080D01*
X-2910433Y-1130350D01*
X-2898089Y-1129893D01*
X-2885897Y-1127810D01*
X-2874162Y-1124051D01*
X-2862986Y-1118768D01*
X-2852674Y-1112012D01*
X-2843072Y-1103630D01*
X-2771343Y-1031900D01*
X-2768041Y-1029716D01*
X-2764180Y-1028953D01*
X-2760268Y-1029716D01*
X-2756966Y-1031900D01*
X-2754782Y-1035202D01*
X-2754020Y-1039114D01*
X-2754020Y-1099413D01*
X-2753156Y-1107795D01*
X-2750870Y-1115364D01*
X-2747111Y-1122375D01*
X-2742082Y-1128522D01*
X-2737815Y-1132027D01*
X-2735072Y-1135532D01*
X-2734056Y-1139901D01*
X-2735072Y-1144219D01*
X-2737815Y-1147724D01*
X-2742082Y-1151280D01*
X-2747111Y-1157427D01*
X-2750870Y-1164386D01*
X-2753156Y-1172006D01*
X-2754020Y-1180388D01*
X-2754020Y-1299413D01*
X-2753156Y-1307795D01*
X-2750870Y-1315364D01*
X-2747111Y-1322374D01*
X-2742082Y-1328521D01*
X-2737815Y-1332026D01*
X-2735072Y-1335532D01*
X-2734056Y-1339900D01*
X-2735072Y-1344218D01*
X-2737815Y-1347724D01*
X-2742082Y-1351280D01*
X-2747111Y-1357426D01*
X-2750870Y-1364386D01*
X-2753156Y-1372006D01*
X-2754020Y-1380388D01*
X-2754020Y-1499412D01*
X-2753156Y-1507794D01*
X-2750870Y-1515364D01*
X-2747111Y-1522374D01*
X-2742082Y-1528521D01*
X-2737815Y-1532026D01*
X-2735072Y-1535531D01*
X-2734056Y-1539900D01*
X-2735072Y-1544218D01*
X-2737815Y-1547723D01*
X-2742082Y-1551279D01*
X-2747111Y-1557426D01*
X-2750870Y-1564386D01*
X-2753156Y-1572006D01*
X-2754020Y-1580388D01*
X-2754020Y-1699412D01*
X-2753156Y-1707794D01*
X-2750870Y-1715363D01*
X-2747111Y-1722374D01*
X-2742082Y-1728520D01*
X-2737815Y-1732025D01*
X-2735072Y-1735531D01*
X-2734056Y-1739900D01*
X-2735072Y-1744218D01*
X-2737815Y-1747723D01*
X-2742082Y-1751279D01*
X-2745689Y-1755698D01*
X-2749245Y-1758442D01*
X-2753563Y-1759407D01*
X-2756001Y-1759407D01*
X-2759913Y-1758594D01*
X-2763215Y-1756410D01*
X-2897530Y-1622094D01*
X-2899714Y-1618792D01*
X-2900527Y-1614881D01*
X-2900578Y-1458061D01*
X-2901442Y-1448714D01*
X-2901899Y-1446123D01*
X-2904134Y-1436979D01*
X-2904947Y-1434490D01*
X-2908554Y-1425803D01*
X-2914599Y-1415389D01*
X-2916123Y-1413256D01*
X-2922117Y-1405991D01*
X-3620211Y-707898D01*
X-3627475Y-701903D01*
X-3629609Y-700379D01*
X-3640023Y-694334D01*
X-3648710Y-690727D01*
X-3651199Y-689914D01*
X-3660343Y-687679D01*
X-3662934Y-687222D01*
X-3672281Y-686358D01*
X-5419090Y-686358D01*
X-5428437Y-687222D01*
X-5431028Y-687679D01*
X-5440172Y-689914D01*
X-5442661Y-690727D01*
X-5451348Y-694334D01*
X-5453735Y-695553D01*
X-5461762Y-700379D01*
X-5463946Y-701903D01*
X-5471160Y-707898D01*
X-7693761Y-2930499D01*
X-7699756Y-2937764D01*
X-7701280Y-2939897D01*
X-7706156Y-2947974D01*
X-7707325Y-2950311D01*
X-7710931Y-2958998D01*
X-7711744Y-2961487D01*
X-7714030Y-2970631D01*
X-7715351Y-2982569D01*
X-7715402Y-3088944D01*
X-7716164Y-3092856D01*
X-7718348Y-3096158D01*
X-7751013Y-3128772D01*
X-7754213Y-3130956D01*
X-7757972Y-3131769D01*
X-7761782Y-3131108D01*
X-7765084Y-3129076D01*
X-7767370Y-3125978D01*
X-7768336Y-3122218D01*
X-7769148Y-3109468D01*
X-7771942Y-3094837D01*
X-7776514Y-3080715D01*
X-7782864Y-3067253D01*
X-7790840Y-3054654D01*
X-7800340Y-3043224D01*
X-7811160Y-3033014D01*
X-7823200Y-3024276D01*
X-7836255Y-3017113D01*
X-7850073Y-3011627D01*
X-7864500Y-3007918D01*
X-7868666Y-3007410D01*
X-7872628Y-3006039D01*
X-7875676Y-3003245D01*
X-7877352Y-2999384D01*
X-7877352Y-2995218D01*
X-7875676Y-2991408D01*
X-7872628Y-2988614D01*
X-7868666Y-2987243D01*
X-7864500Y-2986735D01*
X-7850073Y-2983026D01*
X-7836255Y-2977540D01*
X-7823200Y-2970377D01*
X-7811160Y-2961640D01*
X-7800340Y-2951429D01*
X-7790840Y-2939948D01*
X-7782864Y-2927400D01*
X-7776514Y-2913938D01*
X-7771942Y-2899765D01*
X-7769148Y-2885186D01*
X-7768183Y-2870301D01*
X-7769148Y-2855468D01*
X-7771942Y-2840837D01*
X-7776514Y-2826715D01*
X-7782864Y-2813253D01*
X-7790840Y-2800654D01*
X-7800340Y-2789224D01*
X-7811160Y-2779014D01*
X-7823200Y-2770276D01*
X-7836255Y-2763113D01*
X-7850073Y-2757627D01*
X-7864500Y-2753918D01*
X-7868666Y-2753410D01*
X-7872628Y-2752039D01*
X-7875676Y-2749245D01*
X-7877352Y-2745384D01*
X-7877352Y-2741218D01*
X-7875676Y-2737408D01*
X-7872628Y-2734614D01*
X-7868666Y-2733243D01*
X-7864500Y-2732735D01*
X-7850073Y-2729026D01*
X-7836255Y-2723540D01*
X-7823200Y-2716377D01*
X-7811160Y-2707640D01*
X-7800340Y-2697429D01*
X-7790840Y-2685948D01*
X-7782864Y-2673400D01*
X-7776514Y-2659938D01*
X-7771942Y-2645765D01*
X-7769148Y-2631186D01*
X-7768183Y-2616301D01*
X-7769148Y-2601468D01*
X-7771942Y-2586837D01*
X-7776514Y-2572715D01*
X-7782864Y-2559253D01*
X-7790840Y-2546654D01*
X-7800340Y-2535224D01*
X-7811160Y-2525014D01*
X-7823200Y-2516276D01*
X-7836255Y-2509113D01*
X-7850073Y-2503627D01*
X-7864500Y-2499918D01*
X-7868666Y-2499410D01*
X-7872628Y-2498039D01*
X-7875676Y-2495245D01*
X-7877352Y-2491384D01*
X-7877352Y-2487218D01*
X-7875676Y-2483408D01*
X-7872628Y-2480614D01*
X-7868666Y-2479243D01*
X-7864500Y-2478735D01*
X-7850073Y-2475026D01*
X-7836255Y-2469540D01*
X-7823200Y-2462377D01*
X-7811160Y-2453640D01*
X-7800340Y-2443429D01*
X-7790840Y-2431948D01*
X-7782864Y-2419400D01*
X-7776514Y-2405938D01*
X-7771942Y-2391765D01*
X-7769148Y-2377186D01*
X-7768183Y-2362301D01*
X-7769148Y-2347468D01*
X-7771942Y-2332837D01*
X-7776514Y-2318715D01*
X-7782864Y-2305253D01*
X-7790840Y-2292654D01*
X-7800340Y-2281224D01*
X-7811160Y-2271014D01*
X-7823200Y-2262276D01*
X-7836255Y-2255113D01*
X-7850073Y-2249627D01*
X-7864500Y-2245918D01*
X-7868666Y-2245410D01*
X-7872628Y-2244039D01*
X-7875676Y-2241245D01*
X-7877352Y-2237384D01*
X-7877352Y-2233218D01*
X-7875676Y-2229408D01*
X-7872628Y-2226614D01*
X-7868666Y-2225243D01*
X-7864500Y-2224735D01*
X-7850073Y-2221026D01*
X-7836255Y-2215540D01*
X-7823200Y-2208377D01*
X-7811160Y-2199640D01*
X-7800340Y-2189429D01*
X-7790840Y-2177948D01*
X-7782864Y-2165400D01*
X-7776514Y-2151938D01*
X-7771942Y-2137765D01*
X-7769148Y-2123186D01*
X-7768183Y-2108301D01*
X-7769148Y-2093468D01*
X-7771942Y-2078837D01*
X-7776514Y-2064715D01*
X-7782864Y-2051253D01*
X-7790840Y-2038654D01*
X-7800340Y-2027224D01*
X-7811160Y-2017014D01*
X-7823200Y-2008276D01*
X-7836255Y-2001113D01*
X-7850073Y-1995627D01*
X-7864500Y-1991918D01*
X-7868666Y-1991410D01*
X-7872628Y-1990039D01*
X-7875676Y-1987245D01*
X-7877352Y-1983384D01*
X-7877352Y-1979218D01*
X-7875676Y-1975408D01*
X-7872628Y-1972614D01*
X-7868666Y-1971243D01*
X-7864500Y-1970735D01*
X-7850073Y-1967026D01*
X-7836255Y-1961540D01*
X-7823200Y-1954377D01*
X-7811160Y-1945639D01*
X-7800340Y-1935429D01*
X-7790840Y-1923948D01*
X-7782864Y-1911400D01*
X-7776514Y-1897938D01*
X-7771942Y-1883765D01*
X-7769148Y-1869186D01*
X-7768183Y-1854301D01*
X-7769148Y-1839468D01*
X-7771942Y-1824837D01*
X-7776514Y-1810715D01*
X-7782864Y-1797253D01*
X-7790840Y-1784654D01*
X-7800340Y-1773224D01*
X-7811160Y-1763014D01*
X-7823200Y-1754276D01*
X-7836255Y-1747113D01*
X-7850073Y-1741627D01*
X-7864500Y-1737918D01*
X-7868666Y-1737410D01*
X-7872628Y-1736039D01*
X-7875676Y-1733245D01*
X-7877352Y-1729384D01*
X-7877352Y-1725218D01*
X-7875676Y-1721408D01*
X-7872628Y-1718614D01*
X-7868666Y-1717243D01*
X-7864500Y-1716735D01*
X-7850073Y-1713026D01*
X-7836255Y-1707540D01*
X-7823200Y-1700377D01*
X-7811160Y-1691639D01*
X-7800340Y-1681429D01*
X-7790840Y-1669948D01*
X-7782864Y-1657400D01*
X-7776514Y-1643938D01*
X-7771942Y-1629765D01*
X-7769148Y-1615186D01*
X-7768183Y-1600301D01*
X-7769148Y-1585468D01*
X-7771942Y-1570837D01*
X-7776514Y-1556715D01*
X-7782864Y-1543253D01*
X-7790840Y-1530654D01*
X-7800340Y-1519224D01*
X-7811160Y-1509014D01*
X-7823200Y-1500276D01*
X-7836255Y-1493113D01*
X-7850073Y-1487627D01*
X-7864500Y-1483918D01*
X-7868666Y-1483410D01*
X-7872628Y-1482039D01*
X-7875676Y-1479245D01*
X-7877352Y-1475384D01*
X-7877352Y-1471218D01*
X-7875676Y-1467408D01*
X-7872628Y-1464614D01*
X-7868666Y-1463243D01*
X-7864500Y-1462735D01*
X-7850073Y-1459026D01*
X-7836255Y-1453540D01*
X-7823200Y-1446377D01*
X-7811160Y-1437640D01*
X-7800340Y-1427429D01*
X-7790840Y-1415948D01*
X-7782864Y-1403400D01*
X-7776514Y-1389938D01*
X-7771942Y-1375765D01*
X-7769148Y-1361186D01*
X-7768183Y-1346301D01*
X-7769148Y-1331468D01*
X-7771942Y-1316837D01*
X-7776514Y-1302715D01*
X-7782864Y-1289253D01*
X-7790840Y-1276654D01*
X-7800340Y-1265224D01*
X-7811160Y-1255014D01*
X-7823200Y-1246276D01*
X-7836255Y-1239113D01*
X-7850073Y-1233627D01*
X-7864500Y-1229918D01*
X-7868666Y-1229410D01*
X-7872628Y-1228039D01*
X-7875676Y-1225245D01*
X-7877352Y-1221384D01*
X-7877352Y-1217218D01*
X-7875676Y-1213408D01*
X-7872628Y-1210614D01*
X-7868666Y-1209243D01*
X-7864500Y-1208735D01*
X-7850073Y-1205026D01*
X-7836255Y-1199540D01*
X-7823200Y-1192377D01*
X-7811160Y-1183640D01*
X-7800340Y-1173429D01*
X-7790840Y-1161948D01*
X-7782864Y-1149400D01*
X-7776514Y-1135938D01*
X-7771942Y-1121765D01*
X-7769148Y-1107186D01*
X-7768183Y-1092301D01*
X-7769148Y-1077468D01*
X-7771942Y-1062837D01*
X-7776514Y-1048715D01*
X-7782864Y-1035253D01*
X-7790840Y-1022654D01*
X-7800340Y-1011224D01*
X-7811160Y-1001014D01*
X-7823200Y-992276D01*
X-7836255Y-985113D01*
X-7850073Y-979627D01*
X-7864500Y-975918D01*
X-7879283Y-974090D01*
X-7894116Y-974090D01*
X-7908899Y-975918D01*
X-7923326Y-979627D01*
X-7937144Y-985113D01*
X-7950200Y-992276D01*
X-7962239Y-1001014D01*
X-7973059Y-1011224D01*
X-7982559Y-1022654D01*
X-7990535Y-1035253D01*
X-7996885Y-1048715D01*
X-8001457Y-1062837D01*
X-8004251Y-1077468D01*
X-8005216Y-1092301D01*
X-8004251Y-1107186D01*
X-8001457Y-1121765D01*
X-7996885Y-1135938D01*
X-7990535Y-1149400D01*
X-7982559Y-1161948D01*
X-7973059Y-1173429D01*
X-7962239Y-1183640D01*
X-7950200Y-1192377D01*
X-7937144Y-1199540D01*
X-7923326Y-1205026D01*
X-7908899Y-1208735D01*
X-7904734Y-1209243D01*
X-7900771Y-1210614D01*
X-7897723Y-1213408D01*
X-7896047Y-1217218D01*
X-7896047Y-1221384D01*
X-7897723Y-1225245D01*
X-7900771Y-1228039D01*
X-7904734Y-1229410D01*
X-7908899Y-1229918D01*
X-7923326Y-1233627D01*
X-7937144Y-1239113D01*
X-7950200Y-1246276D01*
X-7962239Y-1255014D01*
X-7973059Y-1265224D01*
X-7982559Y-1276654D01*
X-7990535Y-1289253D01*
X-7996885Y-1302715D01*
X-8001457Y-1316837D01*
X-8004251Y-1331468D01*
X-8005216Y-1346301D01*
X-8004251Y-1361186D01*
X-8001457Y-1375765D01*
X-7996885Y-1389938D01*
X-7990535Y-1403400D01*
X-7982559Y-1415948D01*
X-7973059Y-1427429D01*
X-7962239Y-1437640D01*
X-7950200Y-1446377D01*
X-7937144Y-1453540D01*
X-7923326Y-1459026D01*
X-7908899Y-1462735D01*
X-7904734Y-1463243D01*
X-7900771Y-1464614D01*
X-7897723Y-1467408D01*
X-7896047Y-1471218D01*
X-7896047Y-1475384D01*
X-7897723Y-1479245D01*
X-7900771Y-1482039D01*
X-7904734Y-1483410D01*
X-7908899Y-1483918D01*
X-7923326Y-1487627D01*
X-7937144Y-1493113D01*
X-7950200Y-1500276D01*
X-7962239Y-1509014D01*
X-7973059Y-1519224D01*
X-7982559Y-1530654D01*
X-7990535Y-1543253D01*
X-7996885Y-1556715D01*
X-8001457Y-1570837D01*
X-8004251Y-1585468D01*
X-8005216Y-1600301D01*
X-8004251Y-1615186D01*
X-8001457Y-1629765D01*
X-7996885Y-1643938D01*
X-7990535Y-1657400D01*
X-7982559Y-1669948D01*
X-7973059Y-1681429D01*
X-7962239Y-1691639D01*
X-7950200Y-1700377D01*
X-7937144Y-1707540D01*
X-7923326Y-1713026D01*
X-7908899Y-1716735D01*
X-7904734Y-1717243D01*
X-7900771Y-1718614D01*
X-7897723Y-1721408D01*
X-7896047Y-1725218D01*
X-7896047Y-1729384D01*
X-7897723Y-1733245D01*
X-7900771Y-1736039D01*
X-7904734Y-1737410D01*
X-7908899Y-1737918D01*
X-7923326Y-1741627D01*
X-7937144Y-1747113D01*
X-7950200Y-1754276D01*
X-7962239Y-1763014D01*
X-7973059Y-1773224D01*
X-7982559Y-1784654D01*
X-7990535Y-1797253D01*
X-7996885Y-1810715D01*
X-8001457Y-1824837D01*
X-8004251Y-1839468D01*
X-8005216Y-1854301D01*
X-8004251Y-1869186D01*
X-8001457Y-1883765D01*
X-7996885Y-1897938D01*
X-7990535Y-1911400D01*
X-7982559Y-1923948D01*
X-7973059Y-1935429D01*
X-7962239Y-1945639D01*
X-7950200Y-1954377D01*
X-7937144Y-1961540D01*
X-7923326Y-1967026D01*
X-7908899Y-1970735D01*
X-7904734Y-1971243D01*
X-7900771Y-1972614D01*
X-7897723Y-1975408D01*
X-7896047Y-1979218D01*
X-7896047Y-1983384D01*
X-7897723Y-1987245D01*
X-7900771Y-1990039D01*
X-7904734Y-1991410D01*
X-7908899Y-1991918D01*
X-7923326Y-1995627D01*
X-7937144Y-2001113D01*
X-7950200Y-2008276D01*
X-7962239Y-2017014D01*
X-7973059Y-2027224D01*
X-7982559Y-2038654D01*
X-7990535Y-2051253D01*
X-7996885Y-2064715D01*
X-8001457Y-2078837D01*
X-8004251Y-2093468D01*
X-8005216Y-2108301D01*
X-8004251Y-2123186D01*
X-8001457Y-2137765D01*
X-7996885Y-2151938D01*
X-7990535Y-2165400D01*
X-7982559Y-2177948D01*
X-7973059Y-2189429D01*
X-7962239Y-2199640D01*
X-7950200Y-2208377D01*
X-7937144Y-2215540D01*
X-7923326Y-2221026D01*
X-7908899Y-2224735D01*
X-7904734Y-2225243D01*
X-7900771Y-2226614D01*
X-7897723Y-2229408D01*
X-7896047Y-2233218D01*
X-7896047Y-2237384D01*
X-7897723Y-2241245D01*
X-7900771Y-2244039D01*
X-7904734Y-2245410D01*
X-7908899Y-2245918D01*
X-7923326Y-2249627D01*
X-7937144Y-2255113D01*
X-7950200Y-2262276D01*
X-7962239Y-2271014D01*
X-7973059Y-2281224D01*
X-7982559Y-2292654D01*
X-7990535Y-2305253D01*
X-7996885Y-2318715D01*
X-8001457Y-2332837D01*
X-8004251Y-2347468D01*
X-8005216Y-2362301D01*
X-8004251Y-2377186D01*
X-8001457Y-2391765D01*
X-7996885Y-2405938D01*
X-7990535Y-2419400D01*
X-7982559Y-2431948D01*
X-7973059Y-2443429D01*
X-7962239Y-2453640D01*
X-7950200Y-2462377D01*
X-7937144Y-2469540D01*
X-7923326Y-2475026D01*
X-7908899Y-2478735D01*
X-7904734Y-2479243D01*
X-7900771Y-2480614D01*
X-7897723Y-2483408D01*
X-7896047Y-2487218D01*
X-7896047Y-2491384D01*
X-7897723Y-2495245D01*
X-7900771Y-2498039D01*
X-7904734Y-2499410D01*
X-7908899Y-2499918D01*
X-7923326Y-2503627D01*
X-7937144Y-2509113D01*
X-7950200Y-2516276D01*
X-7962239Y-2525014D01*
X-7973059Y-2535224D01*
X-7982559Y-2546654D01*
X-7990535Y-2559253D01*
X-7996885Y-2572715D01*
X-8001457Y-2586837D01*
X-8004251Y-2601468D01*
X-8005216Y-2617368D01*
X-8006080Y-2620924D01*
X-8008162Y-2623921D01*
X-8107273Y-2723083D01*
X-8113268Y-2730347D01*
X-8114792Y-2732481D01*
X-8120837Y-2742895D01*
X-8124444Y-2751582D01*
X-8125256Y-2754071D01*
X-8127492Y-2763215D01*
X-8127949Y-2765806D01*
X-8128812Y-2775153D01*
X-8128863Y-6555689D01*
X-8127949Y-6568084D01*
X-8125256Y-6579768D01*
X-8120888Y-6590995D01*
X-8114842Y-6601409D01*
X-8107375Y-6610807D01*
X-8098536Y-6618986D01*
X-8088630Y-6625742D01*
X-8077758Y-6630974D01*
X-8066278Y-6634530D01*
X-8054390Y-6636308D01*
X-8042351Y-6636308D01*
X-8030464Y-6634530D01*
X-8018983Y-6630974D01*
X-8008112Y-6625742D01*
X-7998206Y-6618986D01*
X-7989366Y-6610807D01*
X-7981899Y-6601409D01*
X-7975853Y-6590995D01*
X-7971485Y-6579768D01*
X-7968792Y-6568084D01*
X-7967878Y-6555689D01*
X-7967878Y-5771489D01*
X-7966913Y-5767120D01*
X-7964170Y-5763615D01*
X-7960207Y-5761634D01*
X-7955788Y-5761482D01*
X-7951724Y-5763260D01*
X-7950200Y-5764377D01*
X-7937144Y-5771540D01*
X-7932064Y-5773572D01*
X-7932064Y-5709666D01*
X-7957718Y-5709666D01*
X-7961579Y-5708904D01*
X-7964881Y-5706719D01*
X-7967065Y-5703417D01*
X-7967878Y-5699506D01*
X-7967878Y-5629148D01*
X-7967065Y-5625236D01*
X-7964881Y-5621934D01*
X-7961579Y-5619750D01*
X-7957718Y-5618988D01*
X-7932064Y-5618988D01*
X-7932064Y-5555081D01*
X-7937144Y-5557113D01*
X-7950200Y-5564276D01*
X-7951724Y-5565394D01*
X-7955788Y-5567172D01*
X-7960207Y-5567019D01*
X-7964170Y-5564987D01*
X-7966913Y-5561482D01*
X-7967878Y-5557164D01*
X-7967878Y-5517489D01*
X-7966913Y-5513120D01*
X-7964170Y-5509615D01*
X-7960207Y-5507634D01*
X-7955788Y-5507482D01*
X-7951724Y-5509260D01*
X-7950200Y-5510377D01*
X-7937144Y-5517540D01*
X-7923326Y-5523026D01*
X-7908899Y-5526735D01*
X-7894116Y-5528564D01*
X-7879283Y-5528564D01*
X-7864500Y-5526735D01*
X-7850073Y-5523026D01*
X-7836255Y-5517540D01*
X-7823200Y-5510377D01*
X-7811160Y-5501640D01*
X-7800340Y-5491429D01*
X-7790840Y-5479948D01*
X-7782864Y-5467400D01*
X-7776514Y-5453938D01*
X-7771942Y-5439765D01*
X-7769148Y-5425186D01*
X-7768183Y-5410301D01*
X-7769148Y-5395468D01*
X-7771942Y-5380837D01*
X-7776514Y-5366715D01*
X-7782864Y-5353253D01*
X-7790840Y-5340654D01*
X-7800340Y-5329224D01*
X-7811160Y-5319014D01*
X-7823200Y-5310276D01*
X-7836255Y-5303113D01*
X-7850073Y-5297627D01*
X-7864500Y-5293918D01*
X-7868666Y-5293410D01*
X-7872628Y-5292039D01*
X-7875676Y-5289245D01*
X-7877352Y-5285384D01*
X-7877352Y-5281218D01*
X-7875676Y-5277408D01*
X-7872628Y-5274614D01*
X-7868666Y-5273243D01*
X-7864500Y-5272735D01*
X-7850073Y-5269026D01*
X-7836255Y-5263540D01*
X-7823200Y-5256377D01*
X-7811160Y-5247640D01*
X-7800340Y-5237429D01*
X-7790840Y-5225948D01*
X-7782864Y-5213400D01*
X-7776514Y-5199938D01*
X-7771942Y-5185765D01*
X-7769148Y-5171186D01*
X-7768183Y-5156301D01*
X-7769148Y-5141468D01*
X-7771942Y-5126837D01*
X-7776514Y-5112715D01*
X-7782864Y-5099253D01*
X-7790840Y-5086654D01*
X-7800340Y-5075224D01*
X-7811160Y-5065014D01*
X-7823200Y-5056276D01*
X-7836255Y-5049113D01*
X-7850073Y-5043627D01*
X-7864500Y-5039918D01*
X-7868666Y-5039410D01*
X-7872628Y-5038039D01*
X-7875676Y-5035245D01*
X-7877352Y-5031384D01*
X-7877352Y-5027218D01*
X-7875676Y-5023408D01*
X-7872628Y-5020614D01*
X-7868666Y-5019243D01*
X-7864500Y-5018735D01*
X-7850073Y-5015026D01*
X-7836255Y-5009540D01*
X-7823200Y-5002377D01*
X-7811160Y-4993640D01*
X-7800340Y-4983429D01*
X-7790840Y-4971948D01*
X-7782864Y-4959400D01*
X-7776514Y-4945938D01*
X-7771942Y-4931765D01*
X-7769148Y-4917186D01*
X-7768183Y-4902301D01*
X-7769148Y-4887468D01*
X-7771942Y-4872837D01*
X-7776514Y-4858715D01*
X-7782864Y-4845253D01*
X-7790840Y-4832654D01*
X-7800340Y-4821224D01*
X-7811160Y-4811014D01*
X-7823200Y-4802276D01*
X-7836255Y-4795113D01*
X-7850073Y-4789627D01*
X-7864500Y-4785918D01*
X-7868666Y-4785410D01*
X-7872628Y-4784039D01*
X-7875676Y-4781245D01*
X-7877352Y-4777384D01*
X-7877352Y-4773218D01*
X-7875676Y-4769408D01*
X-7872628Y-4766614D01*
X-7868666Y-4765243D01*
X-7864500Y-4764735D01*
X-7850073Y-4761026D01*
X-7836255Y-4755540D01*
X-7823200Y-4748377D01*
X-7811160Y-4739640D01*
X-7800340Y-4729429D01*
X-7790840Y-4717948D01*
X-7782864Y-4705400D01*
X-7776514Y-4691938D01*
X-7771942Y-4677765D01*
X-7769148Y-4663186D01*
X-7768183Y-4648301D01*
X-7769148Y-4633468D01*
X-7771942Y-4618837D01*
X-7776514Y-4604715D01*
X-7782864Y-4591253D01*
X-7790840Y-4578654D01*
X-7800340Y-4567224D01*
X-7811160Y-4557014D01*
X-7823200Y-4548276D01*
X-7836255Y-4541113D01*
X-7850073Y-4535627D01*
X-7864500Y-4531918D01*
X-7868666Y-4531410D01*
X-7872628Y-4530039D01*
X-7875676Y-4527245D01*
X-7877352Y-4523384D01*
X-7877352Y-4519218D01*
X-7875676Y-4515408D01*
X-7872628Y-4512614D01*
X-7868666Y-4511243D01*
X-7864500Y-4510735D01*
X-7850073Y-4507026D01*
X-7836255Y-4501540D01*
X-7823200Y-4494377D01*
X-7811160Y-4485640D01*
X-7800340Y-4475429D01*
X-7790840Y-4463948D01*
X-7782864Y-4451400D01*
X-7776514Y-4437938D01*
X-7771942Y-4423765D01*
X-7769148Y-4409186D01*
X-7768183Y-4394301D01*
X-7769148Y-4379468D01*
X-7771942Y-4364837D01*
X-7776514Y-4350715D01*
X-7782864Y-4337253D01*
X-7790840Y-4324654D01*
X-7800340Y-4313224D01*
X-7811160Y-4303014D01*
X-7823200Y-4294276D01*
X-7836255Y-4287113D01*
X-7850073Y-4281627D01*
X-7864500Y-4277918D01*
X-7879283Y-4276090D01*
X-7894116Y-4276090D01*
X-7908899Y-4277918D01*
X-7923326Y-4281627D01*
X-7937144Y-4287113D01*
X-7950200Y-4294276D01*
X-7951724Y-4295394D01*
X-7955788Y-4297172D01*
X-7960207Y-4297019D01*
X-7964170Y-4294987D01*
X-7966913Y-4291482D01*
X-7967878Y-4287164D01*
X-7967878Y-4247489D01*
X-7966913Y-4243120D01*
X-7964170Y-4239615D01*
X-7960207Y-4237634D01*
X-7955788Y-4237482D01*
X-7951724Y-4239260D01*
X-7950200Y-4240377D01*
X-7937144Y-4247540D01*
X-7932064Y-4249572D01*
X-7932064Y-4185665D01*
X-7957718Y-4185665D01*
X-7961579Y-4184904D01*
X-7964881Y-4182719D01*
X-7967065Y-4179417D01*
X-7967878Y-4175506D01*
X-7967878Y-4105148D01*
X-7967065Y-4101236D01*
X-7964881Y-4097934D01*
X-7961579Y-4095750D01*
X-7957718Y-4094987D01*
X-7932064Y-4094987D01*
X-7932064Y-4031081D01*
X-7937144Y-4033113D01*
X-7950200Y-4040276D01*
X-7951724Y-4041394D01*
X-7955788Y-4043172D01*
X-7960207Y-4043019D01*
X-7964170Y-4040987D01*
X-7966913Y-4037482D01*
X-7967878Y-4033164D01*
X-7967878Y-3993489D01*
X-7966913Y-3989120D01*
X-7964170Y-3985615D01*
X-7960207Y-3983634D01*
X-7955788Y-3983482D01*
X-7951724Y-3985260D01*
X-7950200Y-3986377D01*
X-7937144Y-3993540D01*
X-7923326Y-3999026D01*
X-7908899Y-4002735D01*
X-7894116Y-4004564D01*
X-7879283Y-4004564D01*
X-7864500Y-4002735D01*
X-7850073Y-3999026D01*
X-7836255Y-3993540D01*
X-7823200Y-3986377D01*
X-7811160Y-3977640D01*
X-7800340Y-3967429D01*
X-7790840Y-3955948D01*
X-7782864Y-3943400D01*
X-7776514Y-3929938D01*
X-7771942Y-3915765D01*
X-7769148Y-3901186D01*
X-7768183Y-3885285D01*
X-7767320Y-3881729D01*
X-7765237Y-3878732D01*
X-7277252Y-3390696D01*
X-7271258Y-3383432D01*
X-7269734Y-3381298D01*
X-7263688Y-3370884D01*
X-7260081Y-3362198D01*
X-7259269Y-3359708D01*
X-7257034Y-3350564D01*
X-7256576Y-3347974D01*
X-7255713Y-3338626D01*
X-7255662Y-2894990D01*
X-7254849Y-2891129D01*
X-7252665Y-2887827D01*
X-6517843Y-2152954D01*
X-6514541Y-2150770D01*
X-6510629Y-2150008D01*
X-6506768Y-2150770D01*
X-6503466Y-2152954D01*
X-6501231Y-2156256D01*
X-6500469Y-2160168D01*
X-6500469Y-5201513D01*
X-6501231Y-5205425D01*
X-6503466Y-5208727D01*
X-7950606Y-6655866D01*
X-7953908Y-6658051D01*
X-7957769Y-6658813D01*
X-7973872Y-6658813D01*
X-7989824Y-6660642D01*
X-8005419Y-6664299D01*
X-8020558Y-6669684D01*
X-8034934Y-6676745D01*
X-8048447Y-6685432D01*
X-8060842Y-6695592D01*
X-8072018Y-6707073D01*
X-8081822Y-6719773D01*
X-8090103Y-6733540D01*
X-8096758Y-6748119D01*
X-8101736Y-6763359D01*
X-8104886Y-6779107D01*
X-8106257Y-6795058D01*
X-8105800Y-6811111D01*
X-8103514Y-6827012D01*
X-8099450Y-6842506D01*
X-8093659Y-6857441D01*
X-8086140Y-6871614D01*
X-8077098Y-6884873D01*
X-8066582Y-6897014D01*
X-8054797Y-6907834D01*
X-8041792Y-6917283D01*
X-8027822Y-6925157D01*
X-8013039Y-6931406D01*
X-7997647Y-6935927D01*
X-7981848Y-6938670D01*
X-7965846Y-6939584D01*
X-7949844Y-6938670D01*
X-7934045Y-6935927D01*
X-7918653Y-6931406D01*
X-7903870Y-6925157D01*
X-7889900Y-6917283D01*
X-7876895Y-6907834D01*
X-7865109Y-6897014D01*
X-7854594Y-6884873D01*
X-7845552Y-6871614D01*
X-7838033Y-6857441D01*
X-7832242Y-6842506D01*
X-7828127Y-6827012D01*
X-7825892Y-6811111D01*
X-7825435Y-6795058D01*
X-7825689Y-6792010D01*
X-7825079Y-6787692D01*
X-7822742Y-6783984D01*
X-6346139Y-5307380D01*
X-6339636Y-5300218D01*
X-6332575Y-5290108D01*
X-6331153Y-5287721D01*
X-6326886Y-5279136D01*
X-6325819Y-5276596D01*
X-6322060Y-5264810D01*
X-6320282Y-5255361D01*
X-6319977Y-5252669D01*
X-6319469Y-5242966D01*
X-6319469Y-2197303D01*
X-6318707Y-2193391D01*
X-6316472Y-2190089D01*
X-5481523Y-1355191D01*
X-5477865Y-1352804D01*
X-5473547Y-1352245D01*
X-5469331Y-1353515D01*
X-5466080Y-1356461D01*
X-5464403Y-1360474D01*
X-5461457Y-1375816D01*
X-5456885Y-1389938D01*
X-5450535Y-1403400D01*
X-5442559Y-1415948D01*
X-5433060Y-1427429D01*
X-5422239Y-1437640D01*
X-5410200Y-1446377D01*
X-5397144Y-1453540D01*
X-5383326Y-1459026D01*
X-5368899Y-1462735D01*
X-5364734Y-1463243D01*
X-5360771Y-1464614D01*
X-5357723Y-1467408D01*
X-5356047Y-1471218D01*
X-5356047Y-1475384D01*
X-5357723Y-1479245D01*
X-5360771Y-1482039D01*
X-5364734Y-1483410D01*
X-5368899Y-1483918D01*
X-5383326Y-1487627D01*
X-5397144Y-1493113D01*
X-5410200Y-1500276D01*
X-5422239Y-1509014D01*
X-5433060Y-1519224D01*
X-5442559Y-1530654D01*
X-5450535Y-1543253D01*
X-5456885Y-1556715D01*
X-5461457Y-1570837D01*
X-5464251Y-1585468D01*
X-5465216Y-1600301D01*
X-5464251Y-1615186D01*
X-5461457Y-1629765D01*
X-5456885Y-1643938D01*
X-5450535Y-1657400D01*
X-5442559Y-1669948D01*
X-5433060Y-1681429D01*
X-5422239Y-1691639D01*
X-5410200Y-1700377D01*
X-5397144Y-1707540D01*
X-5383326Y-1713026D01*
X-5368899Y-1716735D01*
X-5364734Y-1717243D01*
X-5360771Y-1718614D01*
X-5357723Y-1721408D01*
X-5356047Y-1725218D01*
X-5356047Y-1729384D01*
X-5357723Y-1733245D01*
X-5360771Y-1736039D01*
X-5364734Y-1737410D01*
X-5368899Y-1737918D01*
X-5383326Y-1741627D01*
X-5397144Y-1747113D01*
X-5410200Y-1754276D01*
X-5422239Y-1763014D01*
X-5433060Y-1773224D01*
X-5442559Y-1784654D01*
X-5450535Y-1797253D01*
X-5456885Y-1810715D01*
X-5461457Y-1824837D01*
X-5464251Y-1839468D01*
X-5465216Y-1854301D01*
X-5464251Y-1869186D01*
X-5461457Y-1883765D01*
X-5456885Y-1897938D01*
X-5450535Y-1911400D01*
X-5442559Y-1923948D01*
X-5433060Y-1935429D01*
X-5422239Y-1945639D01*
X-5410200Y-1954377D01*
X-5397144Y-1961540D01*
X-5383326Y-1967026D01*
X-5368899Y-1970735D01*
X-5364734Y-1971243D01*
X-5360771Y-1972614D01*
X-5357723Y-1975408D01*
X-5356047Y-1979218D01*
X-5356047Y-1983384D01*
X-5357723Y-1987245D01*
X-5360771Y-1990039D01*
X-5364734Y-1991410D01*
X-5368899Y-1991918D01*
X-5383326Y-1995627D01*
X-5397144Y-2001113D01*
X-5410200Y-2008276D01*
X-5422239Y-2017014D01*
X-5433060Y-2027224D01*
X-5442559Y-2038654D01*
X-5450535Y-2051253D01*
X-5456885Y-2064715D01*
X-5461457Y-2078837D01*
X-5464251Y-2093468D01*
X-5465216Y-2108301D01*
X-5464251Y-2123186D01*
X-5461457Y-2137765D01*
X-5456885Y-2151938D01*
X-5450535Y-2165400D01*
X-5442559Y-2177948D01*
X-5433060Y-2189429D01*
X-5422239Y-2199640D01*
X-5410200Y-2208377D01*
X-5397144Y-2215540D01*
X-5383326Y-2221026D01*
X-5368899Y-2224735D01*
X-5354116Y-2226564D01*
X-5339283Y-2226564D01*
X-5324500Y-2224735D01*
X-5310073Y-2221026D01*
X-5296255Y-2215540D01*
X-5283200Y-2208377D01*
X-5271160Y-2199640D01*
X-5260340Y-2189429D01*
X-5250840Y-2177948D01*
X-5242864Y-2165400D01*
X-5236514Y-2151938D01*
X-5231942Y-2137765D01*
X-5229148Y-2123186D01*
X-5228183Y-2108301D01*
X-5229148Y-2093468D01*
X-5231942Y-2078837D01*
X-5236514Y-2064715D01*
X-5242864Y-2051253D01*
X-5250840Y-2038654D01*
X-5260340Y-2027224D01*
X-5271160Y-2017014D01*
X-5283200Y-2008276D01*
X-5296255Y-2001113D01*
X-5310073Y-1995627D01*
X-5324500Y-1991918D01*
X-5328666Y-1991410D01*
X-5332628Y-1990039D01*
X-5335676Y-1987245D01*
X-5337352Y-1983384D01*
X-5337352Y-1979218D01*
X-5335676Y-1975408D01*
X-5332628Y-1972614D01*
X-5328666Y-1971243D01*
X-5324500Y-1970735D01*
X-5310073Y-1967026D01*
X-5296255Y-1961540D01*
X-5283200Y-1954377D01*
X-5271160Y-1945639D01*
X-5260340Y-1935429D01*
X-5250840Y-1923948D01*
X-5242864Y-1911400D01*
X-5236514Y-1897938D01*
X-5231942Y-1883765D01*
X-5229148Y-1869186D01*
X-5228183Y-1854301D01*
X-5229148Y-1839468D01*
X-5231942Y-1824837D01*
X-5236514Y-1810715D01*
X-5242864Y-1797253D01*
X-5250840Y-1784654D01*
X-5260340Y-1773224D01*
X-5271160Y-1763014D01*
X-5283200Y-1754276D01*
X-5296255Y-1747113D01*
X-5310073Y-1741627D01*
X-5324500Y-1737918D01*
X-5328666Y-1737410D01*
X-5332628Y-1736039D01*
X-5335676Y-1733245D01*
X-5337352Y-1729384D01*
X-5337352Y-1725218D01*
X-5335676Y-1721408D01*
X-5332628Y-1718614D01*
X-5328666Y-1717243D01*
X-5324500Y-1716735D01*
X-5310073Y-1713026D01*
X-5296255Y-1707540D01*
X-5283200Y-1700377D01*
X-5271160Y-1691639D01*
X-5260340Y-1681429D01*
X-5250840Y-1669948D01*
X-5242864Y-1657400D01*
X-5236514Y-1643938D01*
X-5231942Y-1629765D01*
X-5229148Y-1615186D01*
X-5228183Y-1600301D01*
X-5229148Y-1585468D01*
X-5231942Y-1570837D01*
X-5236514Y-1556715D01*
X-5242864Y-1543253D01*
X-5250840Y-1530654D01*
X-5260340Y-1519224D01*
X-5271160Y-1509014D01*
X-5283200Y-1500276D01*
X-5296255Y-1493113D01*
X-5310073Y-1487627D01*
X-5324500Y-1483918D01*
X-5328666Y-1483410D01*
X-5332628Y-1482039D01*
X-5335676Y-1479245D01*
X-5337352Y-1475384D01*
X-5337352Y-1471218D01*
X-5335676Y-1467408D01*
X-5332628Y-1464614D01*
X-5328666Y-1463243D01*
X-5324500Y-1462735D01*
X-5310073Y-1459026D01*
X-5296255Y-1453540D01*
X-5283200Y-1446377D01*
X-5271160Y-1437640D01*
X-5260340Y-1427429D01*
X-5250840Y-1415948D01*
X-5242864Y-1403400D01*
X-5236514Y-1389938D01*
X-5231942Y-1375765D01*
X-5229148Y-1361186D01*
X-5228183Y-1346301D01*
X-5229148Y-1331468D01*
X-5231942Y-1316837D01*
X-5236514Y-1302715D01*
X-5242864Y-1289253D01*
X-5250840Y-1276654D01*
X-5260340Y-1265224D01*
X-5271160Y-1255014D01*
X-5283200Y-1246276D01*
X-5296255Y-1239113D01*
X-5310073Y-1233627D01*
X-5324500Y-1229918D01*
X-5328666Y-1229410D01*
X-5332628Y-1228039D01*
X-5335676Y-1225245D01*
X-5337352Y-1221384D01*
X-5337352Y-1217218D01*
X-5335676Y-1213408D01*
X-5332628Y-1210614D01*
X-5328666Y-1209243D01*
X-5324500Y-1208735D01*
X-5310073Y-1205026D01*
X-5296255Y-1199540D01*
X-5283200Y-1192377D01*
X-5271160Y-1183640D01*
X-5260340Y-1173429D01*
X-5250840Y-1161948D01*
X-5242864Y-1149400D01*
X-5236514Y-1135938D01*
X-5231942Y-1121765D01*
X-5229148Y-1107186D01*
X-5228183Y-1092301D01*
X-5229148Y-1077468D01*
X-5231942Y-1062837D01*
X-5236514Y-1048715D01*
X-5242864Y-1035253D01*
X-5250840Y-1022654D01*
X-5260340Y-1011224D01*
X-5271160Y-1001014D01*
X-5283200Y-992276D01*
X-5290210Y-988415D01*
X-5293563Y-985469D01*
X-5295290Y-981405D01*
X-5295188Y-976985D01*
X-5293156Y-973023D01*
X-5289651Y-970330D01*
X-5285333Y-969365D01*
X-4900269Y-969365D01*
X-4895951Y-970330D01*
X-4892446Y-973023D01*
X-4890465Y-976985D01*
X-4890312Y-981405D01*
X-4892090Y-985469D01*
X-4895392Y-988415D01*
X-4902200Y-992174D01*
X-4914239Y-1000912D01*
X-4925060Y-1011072D01*
X-4934559Y-1022553D01*
X-4942535Y-1035100D01*
X-4948885Y-1048562D01*
X-4953457Y-1062736D01*
X-4956251Y-1077366D01*
X-4957165Y-1092200D01*
X-4956251Y-1107033D01*
X-4953457Y-1121664D01*
X-4948885Y-1135786D01*
X-4942535Y-1149299D01*
X-4934559Y-1161846D01*
X-4925060Y-1173327D01*
X-4914239Y-1183487D01*
X-4902200Y-1192225D01*
X-4889144Y-1199388D01*
X-4875326Y-1204874D01*
X-4860899Y-1208582D01*
X-4856683Y-1209090D01*
X-4852771Y-1210462D01*
X-4849672Y-1213307D01*
X-4848047Y-1217117D01*
X-4848047Y-1221282D01*
X-4849672Y-1225092D01*
X-4852771Y-1227937D01*
X-4856683Y-1229258D01*
X-4860899Y-1229817D01*
X-4875326Y-1233525D01*
X-4889144Y-1238961D01*
X-4902200Y-1246174D01*
X-4914239Y-1254912D01*
X-4925060Y-1265072D01*
X-4934559Y-1276553D01*
X-4942535Y-1289100D01*
X-4948885Y-1302562D01*
X-4953457Y-1316736D01*
X-4956251Y-1331366D01*
X-4957165Y-1346200D01*
X-4956251Y-1361033D01*
X-4953457Y-1375664D01*
X-4948885Y-1389786D01*
X-4942535Y-1403299D01*
X-4934559Y-1415846D01*
X-4925060Y-1427327D01*
X-4914239Y-1437487D01*
X-4902200Y-1446225D01*
X-4889144Y-1453388D01*
X-4875326Y-1458874D01*
X-4860899Y-1462582D01*
X-4856683Y-1463090D01*
X-4852771Y-1464462D01*
X-4849672Y-1467307D01*
X-4848047Y-1471117D01*
X-4848047Y-1475282D01*
X-4849672Y-1479092D01*
X-4852771Y-1481937D01*
X-4856683Y-1483258D01*
X-4860899Y-1483817D01*
X-4875326Y-1487525D01*
X-4889144Y-1492961D01*
X-4902200Y-1500174D01*
X-4914239Y-1508912D01*
X-4925060Y-1519072D01*
X-4934559Y-1530553D01*
X-4942535Y-1543100D01*
X-4948885Y-1556562D01*
X-4953457Y-1570736D01*
X-4956251Y-1585366D01*
X-4957165Y-1600200D01*
X-4956251Y-1615033D01*
X-4953457Y-1629664D01*
X-4948885Y-1643786D01*
X-4942535Y-1657299D01*
X-4934559Y-1669846D01*
X-4925060Y-1681327D01*
X-4914239Y-1691487D01*
X-4902200Y-1700225D01*
X-4889144Y-1707388D01*
X-4875326Y-1712874D01*
X-4860899Y-1716582D01*
X-4856683Y-1717090D01*
X-4852771Y-1718462D01*
X-4849672Y-1721307D01*
X-4848047Y-1725117D01*
X-4848047Y-1729282D01*
X-4849672Y-1733092D01*
X-4852771Y-1735937D01*
X-4856683Y-1737258D01*
X-4860899Y-1737817D01*
X-4875326Y-1741525D01*
X-4889144Y-1746961D01*
X-4902200Y-1754174D01*
X-4914239Y-1762912D01*
X-4925060Y-1773072D01*
X-4934559Y-1784553D01*
X-4942535Y-1797100D01*
X-4948885Y-1810562D01*
X-4953457Y-1824736D01*
X-4956251Y-1839366D01*
X-4957165Y-1854200D01*
X-4956251Y-1869033D01*
X-4953457Y-1883664D01*
X-4948885Y-1897786D01*
X-4942535Y-1911299D01*
X-4934559Y-1923846D01*
X-4925060Y-1935327D01*
X-4914239Y-1945487D01*
X-4902200Y-1954225D01*
X-4889144Y-1961388D01*
X-4875326Y-1966874D01*
X-4860899Y-1970582D01*
X-4846116Y-1972462D01*
X-4831232Y-1972462D01*
X-4816500Y-1970582D01*
X-4802073Y-1966874D01*
X-4788255Y-1961388D01*
X-4775200Y-1954225D01*
X-4763160Y-1945487D01*
X-4752340Y-1935327D01*
X-4742840Y-1923846D01*
X-4734864Y-1911299D01*
X-4728514Y-1897786D01*
X-4723942Y-1883664D01*
X-4721148Y-1869033D01*
X-4720234Y-1854200D01*
X-4721148Y-1839366D01*
X-4723942Y-1824736D01*
X-4728514Y-1810562D01*
X-4734864Y-1797100D01*
X-4742840Y-1784553D01*
X-4752340Y-1773072D01*
X-4763160Y-1762912D01*
X-4775200Y-1754174D01*
X-4788255Y-1746961D01*
X-4802073Y-1741525D01*
X-4816500Y-1737817D01*
X-4820716Y-1737258D01*
X-4824628Y-1735937D01*
X-4827676Y-1733092D01*
X-4829352Y-1729282D01*
X-4829352Y-1725117D01*
X-4827676Y-1721307D01*
X-4824628Y-1718462D01*
X-4820716Y-1717090D01*
X-4816500Y-1716582D01*
X-4802073Y-1712874D01*
X-4788255Y-1707388D01*
X-4775200Y-1700225D01*
X-4763160Y-1691487D01*
X-4752340Y-1681327D01*
X-4742840Y-1669846D01*
X-4734864Y-1657299D01*
X-4728514Y-1643786D01*
X-4723942Y-1629664D01*
X-4721148Y-1615033D01*
X-4720234Y-1600200D01*
X-4721148Y-1585366D01*
X-4723942Y-1570736D01*
X-4728514Y-1556562D01*
X-4734864Y-1543100D01*
X-4742840Y-1530553D01*
X-4752340Y-1519072D01*
X-4763160Y-1508912D01*
X-4775200Y-1500174D01*
X-4788255Y-1492961D01*
X-4802073Y-1487525D01*
X-4816500Y-1483817D01*
X-4820716Y-1483258D01*
X-4824628Y-1481937D01*
X-4827676Y-1479092D01*
X-4829352Y-1475282D01*
X-4829352Y-1471117D01*
X-4827676Y-1467307D01*
X-4824628Y-1464462D01*
X-4820716Y-1463090D01*
X-4816500Y-1462582D01*
X-4802073Y-1458874D01*
X-4788255Y-1453388D01*
X-4775200Y-1446225D01*
X-4763160Y-1437487D01*
X-4752340Y-1427327D01*
X-4742840Y-1415846D01*
X-4734864Y-1403299D01*
X-4728514Y-1389786D01*
X-4723942Y-1375664D01*
X-4721148Y-1361033D01*
X-4720234Y-1346200D01*
X-4721148Y-1331366D01*
X-4723942Y-1316736D01*
X-4728514Y-1302562D01*
X-4734864Y-1289100D01*
X-4742840Y-1276553D01*
X-4752340Y-1265072D01*
X-4763160Y-1254912D01*
X-4775200Y-1246174D01*
X-4788255Y-1238961D01*
X-4802073Y-1233525D01*
X-4816500Y-1229817D01*
X-4820716Y-1229258D01*
X-4824628Y-1227937D01*
X-4827676Y-1225092D01*
X-4829352Y-1221282D01*
X-4829352Y-1217117D01*
X-4827676Y-1213307D01*
X-4824628Y-1210462D01*
X-4820716Y-1209090D01*
X-4816500Y-1208582D01*
X-4802073Y-1204874D01*
X-4788255Y-1199388D01*
X-4775200Y-1192225D01*
X-4763160Y-1183487D01*
X-4752340Y-1173327D01*
X-4742840Y-1161846D01*
X-4734864Y-1149299D01*
X-4728514Y-1135786D01*
X-4723942Y-1121664D01*
X-4721148Y-1107033D01*
X-4720234Y-1092200D01*
X-4721148Y-1077366D01*
X-4723942Y-1062736D01*
X-4728514Y-1048562D01*
X-4734864Y-1035100D01*
X-4742840Y-1022553D01*
X-4752340Y-1011072D01*
X-4763160Y-1000912D01*
X-4775200Y-992174D01*
X-4782007Y-988415D01*
X-4785309Y-985469D01*
X-4787087Y-981405D01*
X-4786934Y-976985D01*
X-4784953Y-973023D01*
X-4781448Y-970330D01*
X-4777079Y-969365D01*
X-4164126Y-969365D01*
X-4160062Y-970229D01*
X-4156659Y-972667D01*
X-4154525Y-976223D01*
X-4154017Y-980389D01*
X-4154017Y-1099413D01*
X-4153204Y-1107795D01*
X-4150868Y-1115364D01*
X-4147159Y-1122375D01*
X-4142130Y-1128522D01*
X-4137812Y-1132027D01*
X-4135069Y-1135532D01*
X-4134104Y-1139901D01*
X-4135069Y-1144219D01*
X-4137812Y-1147724D01*
X-4142130Y-1151280D01*
X-4147159Y-1157427D01*
X-4150868Y-1164386D01*
X-4153204Y-1172006D01*
X-4154017Y-1180388D01*
X-4154017Y-1203553D01*
X-4032351Y-1203553D01*
X-4032351Y-1150569D01*
X-4031589Y-1146657D01*
X-4029354Y-1143355D01*
X-4026052Y-1141171D01*
X-4022191Y-1140409D01*
X-3854805Y-1140409D01*
X-3850944Y-1141171D01*
X-3847642Y-1143355D01*
X-3845407Y-1146657D01*
X-3844645Y-1150569D01*
X-3844645Y-1203553D01*
X-3715512Y-1203553D01*
X-3711600Y-1204315D01*
X-3708298Y-1206500D01*
X-3706114Y-1209802D01*
X-3705351Y-1213713D01*
X-3705351Y-1266088D01*
X-3706114Y-1269949D01*
X-3708298Y-1273251D01*
X-3711600Y-1275486D01*
X-3715512Y-1276248D01*
X-3844645Y-1276248D01*
X-3844645Y-1329232D01*
X-3845407Y-1333093D01*
X-3847642Y-1336395D01*
X-3850944Y-1338630D01*
X-3854805Y-1339392D01*
X-4022191Y-1339392D01*
X-4026052Y-1338630D01*
X-4029354Y-1336395D01*
X-4031589Y-1333093D01*
X-4032351Y-1329232D01*
X-4032351Y-1276248D01*
X-4154017Y-1276248D01*
X-4154017Y-1299413D01*
X-4153204Y-1307795D01*
X-4150868Y-1315364D01*
X-4147159Y-1322374D01*
X-4142130Y-1328521D01*
X-4137812Y-1332026D01*
X-4135069Y-1335532D01*
X-4134104Y-1339900D01*
X-4135069Y-1344218D01*
X-4137812Y-1347724D01*
X-4142130Y-1351280D01*
X-4147159Y-1357426D01*
X-4150868Y-1364386D01*
X-4153204Y-1372006D01*
X-4154017Y-1380388D01*
X-4154017Y-1499412D01*
X-4153204Y-1507794D01*
X-4150868Y-1515364D01*
X-4147159Y-1522374D01*
X-4142130Y-1528521D01*
X-4137812Y-1532026D01*
X-4135069Y-1535531D01*
X-4134104Y-1539900D01*
X-4135069Y-1544218D01*
X-4137812Y-1547723D01*
X-4142130Y-1551279D01*
X-4147159Y-1557426D01*
X-4150868Y-1564386D01*
X-4153204Y-1572006D01*
X-4154017Y-1580388D01*
X-4154017Y-1699412D01*
X-4153204Y-1707794D01*
X-4150868Y-1715363D01*
X-4147159Y-1722374D01*
X-4142130Y-1728520D01*
X-4137812Y-1732025D01*
X-4135069Y-1735531D01*
X-4134104Y-1739900D01*
X-4135069Y-1744218D01*
X-4137812Y-1747723D01*
X-4142130Y-1751279D01*
X-4147159Y-1757425D01*
X-4150868Y-1764385D01*
X-4153204Y-1772005D01*
X-4154017Y-1780387D01*
X-4154017Y-1899412D01*
X-4153204Y-1907793D01*
X-4150868Y-1915363D01*
X-4147159Y-1922373D01*
X-4142130Y-1928520D01*
X-4137812Y-1932025D01*
X-4135069Y-1935530D01*
X-4134104Y-1939899D01*
X-4135069Y-1944217D01*
X-4137812Y-1947722D01*
X-4142130Y-1951278D01*
X-4145737Y-1955698D01*
X-4149242Y-1958441D01*
X-4153560Y-1959406D01*
X-4196384Y-1959457D01*
X-4205732Y-1960321D01*
X-4208322Y-1960778D01*
X-4217466Y-1963013D01*
X-4219956Y-1963826D01*
X-4228642Y-1967433D01*
X-4231030Y-1968652D01*
X-4239056Y-1973478D01*
X-4241241Y-1975002D01*
X-4248454Y-1980996D01*
X-4613960Y-2346502D01*
X-4619955Y-2353767D01*
X-4621479Y-2355900D01*
X-4626356Y-2363978D01*
X-4627524Y-2366314D01*
X-4631131Y-2375001D01*
X-4631944Y-2377490D01*
X-4634230Y-2386634D01*
X-4635550Y-2398572D01*
X-4635601Y-3057042D01*
X-4636363Y-3060903D01*
X-4638548Y-3064205D01*
X-4703013Y-3128670D01*
X-4706213Y-3130804D01*
X-4709972Y-3131616D01*
X-4713782Y-3130956D01*
X-4717084Y-3128975D01*
X-4719370Y-3125876D01*
X-4720336Y-3122117D01*
X-4721148Y-3109366D01*
X-4723942Y-3094736D01*
X-4728514Y-3080562D01*
X-4734864Y-3067100D01*
X-4742840Y-3054553D01*
X-4752340Y-3043072D01*
X-4763160Y-3032912D01*
X-4775200Y-3024174D01*
X-4788255Y-3016961D01*
X-4802073Y-3011525D01*
X-4816500Y-3007817D01*
X-4820716Y-3007258D01*
X-4824628Y-3005937D01*
X-4827676Y-3003092D01*
X-4829352Y-2999282D01*
X-4829352Y-2995117D01*
X-4827676Y-2991307D01*
X-4824628Y-2988462D01*
X-4820716Y-2987090D01*
X-4816500Y-2986582D01*
X-4802073Y-2982874D01*
X-4788255Y-2977388D01*
X-4775200Y-2970225D01*
X-4763160Y-2961487D01*
X-4752340Y-2951327D01*
X-4742840Y-2939846D01*
X-4734864Y-2927299D01*
X-4728514Y-2913786D01*
X-4723942Y-2899664D01*
X-4721148Y-2885033D01*
X-4720234Y-2870200D01*
X-4721148Y-2855366D01*
X-4723942Y-2840736D01*
X-4728514Y-2826562D01*
X-4734864Y-2813100D01*
X-4742840Y-2800553D01*
X-4752340Y-2789072D01*
X-4763160Y-2778912D01*
X-4775200Y-2770174D01*
X-4788255Y-2762961D01*
X-4802073Y-2757525D01*
X-4816500Y-2753817D01*
X-4820716Y-2753258D01*
X-4824628Y-2751937D01*
X-4827676Y-2749092D01*
X-4829352Y-2745282D01*
X-4829352Y-2741117D01*
X-4827676Y-2737307D01*
X-4824628Y-2734462D01*
X-4820716Y-2733090D01*
X-4816500Y-2732582D01*
X-4802073Y-2728874D01*
X-4788255Y-2723388D01*
X-4775200Y-2716225D01*
X-4763160Y-2707487D01*
X-4752340Y-2697327D01*
X-4742840Y-2685846D01*
X-4734864Y-2673299D01*
X-4728514Y-2659786D01*
X-4723942Y-2645664D01*
X-4721148Y-2631033D01*
X-4720234Y-2616200D01*
X-4721148Y-2601366D01*
X-4723942Y-2586736D01*
X-4728514Y-2572562D01*
X-4734864Y-2559100D01*
X-4742840Y-2546553D01*
X-4752340Y-2535072D01*
X-4763160Y-2524912D01*
X-4775200Y-2516174D01*
X-4788255Y-2508961D01*
X-4798314Y-2504998D01*
X-4801870Y-2502611D01*
X-4806035Y-2502509D01*
X-4816500Y-2499817D01*
X-4831232Y-2497937D01*
X-4846116Y-2497937D01*
X-4860899Y-2499817D01*
X-4871364Y-2502509D01*
X-4875682Y-2502814D01*
X-4879086Y-2504998D01*
X-4889144Y-2508961D01*
X-4902200Y-2516174D01*
X-4914239Y-2524912D01*
X-4925060Y-2535072D01*
X-4934559Y-2546553D01*
X-4942535Y-2559100D01*
X-4948885Y-2572562D01*
X-4953457Y-2586736D01*
X-4956251Y-2601366D01*
X-4957165Y-2616200D01*
X-4956251Y-2631033D01*
X-4953457Y-2645664D01*
X-4948885Y-2659786D01*
X-4942535Y-2673299D01*
X-4934559Y-2685846D01*
X-4925060Y-2697327D01*
X-4914239Y-2707487D01*
X-4902200Y-2716225D01*
X-4889144Y-2723388D01*
X-4875326Y-2728874D01*
X-4860899Y-2732582D01*
X-4856683Y-2733090D01*
X-4852771Y-2734462D01*
X-4849672Y-2737307D01*
X-4848047Y-2741117D01*
X-4848047Y-2745282D01*
X-4849672Y-2749092D01*
X-4852771Y-2751937D01*
X-4856683Y-2753258D01*
X-4860899Y-2753817D01*
X-4875326Y-2757525D01*
X-4889144Y-2762961D01*
X-4902200Y-2770174D01*
X-4914239Y-2778912D01*
X-4925060Y-2789072D01*
X-4934559Y-2800553D01*
X-4942535Y-2813100D01*
X-4948885Y-2826562D01*
X-4953457Y-2840736D01*
X-4956251Y-2855366D01*
X-4957165Y-2870200D01*
X-4956251Y-2885033D01*
X-4953457Y-2899664D01*
X-4948885Y-2913786D01*
X-4942535Y-2927299D01*
X-4934559Y-2939846D01*
X-4925060Y-2951327D01*
X-4914239Y-2961487D01*
X-4902200Y-2970225D01*
X-4889144Y-2977388D01*
X-4875326Y-2982874D01*
X-4860899Y-2986582D01*
X-4856683Y-2987090D01*
X-4852771Y-2988462D01*
X-4849672Y-2991307D01*
X-4848047Y-2995117D01*
X-4848047Y-2999282D01*
X-4849672Y-3003092D01*
X-4852771Y-3005937D01*
X-4856683Y-3007258D01*
X-4860899Y-3007817D01*
X-4875326Y-3011525D01*
X-4889144Y-3016961D01*
X-4902200Y-3024174D01*
X-4914239Y-3032912D01*
X-4925060Y-3043072D01*
X-4934559Y-3054553D01*
X-4942535Y-3067100D01*
X-4948885Y-3080562D01*
X-4953457Y-3094736D01*
X-4956251Y-3109366D01*
X-4957165Y-3124200D01*
X-4956251Y-3139033D01*
X-4953457Y-3153664D01*
X-4948885Y-3167786D01*
X-4942535Y-3181299D01*
X-4934559Y-3193846D01*
X-4925060Y-3205327D01*
X-4914239Y-3215487D01*
X-4902200Y-3224225D01*
X-4889144Y-3231388D01*
X-4875326Y-3236874D01*
X-4860899Y-3240582D01*
X-4856683Y-3241090D01*
X-4852771Y-3242462D01*
X-4849672Y-3245307D01*
X-4848047Y-3249117D01*
X-4848047Y-3253282D01*
X-4849672Y-3257092D01*
X-4852771Y-3259937D01*
X-4856683Y-3261258D01*
X-4860899Y-3261817D01*
X-4875326Y-3265525D01*
X-4889144Y-3270961D01*
X-4902200Y-3278174D01*
X-4914239Y-3286912D01*
X-4925060Y-3297072D01*
X-4934559Y-3308553D01*
X-4942535Y-3321100D01*
X-4948885Y-3334562D01*
X-4953457Y-3348736D01*
X-4956251Y-3363366D01*
X-4957165Y-3378200D01*
X-4956251Y-3393033D01*
X-4953457Y-3407664D01*
X-4948885Y-3421786D01*
X-4942535Y-3435299D01*
X-4934559Y-3447846D01*
X-4925060Y-3459327D01*
X-4914239Y-3469487D01*
X-4902200Y-3478225D01*
X-4889144Y-3485387D01*
X-4875326Y-3490874D01*
X-4860899Y-3494582D01*
X-4846116Y-3496462D01*
X-4831232Y-3496462D01*
X-4816500Y-3494582D01*
X-4802073Y-3490874D01*
X-4788255Y-3485387D01*
X-4775200Y-3478225D01*
X-4763160Y-3469487D01*
X-4752340Y-3459327D01*
X-4742840Y-3447846D01*
X-4734864Y-3435299D01*
X-4728514Y-3421786D01*
X-4723942Y-3407664D01*
X-4721148Y-3393033D01*
X-4720183Y-3377184D01*
X-4719320Y-3373628D01*
X-4717237Y-3370579D01*
X-4496206Y-3149498D01*
X-4490212Y-3142234D01*
X-4488688Y-3140100D01*
X-4483811Y-3132023D01*
X-4482642Y-3129686D01*
X-4479036Y-3120999D01*
X-4478223Y-3118510D01*
X-4475937Y-3109366D01*
X-4474616Y-3097428D01*
X-4474565Y-2438958D01*
X-4473803Y-2435098D01*
X-4471619Y-2431796D01*
X-4163212Y-2123389D01*
X-4159910Y-2121204D01*
X-4155998Y-2120392D01*
X-4153560Y-2120392D01*
X-4149191Y-2121408D01*
X-4145686Y-2124100D01*
X-4142130Y-2128520D01*
X-4137812Y-2132025D01*
X-4135069Y-2135530D01*
X-4134104Y-2139899D01*
X-4135069Y-2144217D01*
X-4137812Y-2147722D01*
X-4142130Y-2151278D01*
X-4147159Y-2157425D01*
X-4150868Y-2164384D01*
X-4153204Y-2172004D01*
X-4154017Y-2180386D01*
X-4154017Y-2299411D01*
X-4153204Y-2307793D01*
X-4150868Y-2315362D01*
X-4147159Y-2322372D01*
X-4142130Y-2328519D01*
X-4137812Y-2332024D01*
X-4135069Y-2335530D01*
X-4134104Y-2339898D01*
X-4135069Y-2344216D01*
X-4137812Y-2347722D01*
X-4142130Y-2351278D01*
X-4147159Y-2357424D01*
X-4150868Y-2364435D01*
X-4153204Y-2372004D01*
X-4154017Y-2380386D01*
X-4154017Y-2499410D01*
X-4153204Y-2507792D01*
X-4150868Y-2515362D01*
X-4147159Y-2522372D01*
X-4142130Y-2528519D01*
X-4135983Y-2533548D01*
X-4128973Y-2537256D01*
X-4121404Y-2539593D01*
X-4113022Y-2540406D01*
X-3827932Y-2540406D01*
X-3824071Y-2541168D01*
X-3820769Y-2543352D01*
X-3818585Y-2546654D01*
X-3817772Y-2550566D01*
X-3818585Y-2554427D01*
X-3820769Y-2557729D01*
X-4297273Y-3034233D01*
X-4303776Y-3041446D01*
X-4305452Y-3043580D01*
X-4312259Y-3053892D01*
X-4316526Y-3062528D01*
X-4317593Y-3065068D01*
X-4320641Y-3074162D01*
X-4321352Y-3076803D01*
X-4323130Y-3086252D01*
X-4323943Y-3098698D01*
X-4323943Y-5663844D01*
X-4323080Y-5676544D01*
X-4320590Y-5688634D01*
X-4316425Y-5700268D01*
X-4310735Y-5711190D01*
X-4303623Y-5721299D01*
X-4295190Y-5730341D01*
X-4285640Y-5738114D01*
X-4275074Y-5744514D01*
X-4263745Y-5749442D01*
X-4251858Y-5752795D01*
X-4239615Y-5754471D01*
X-4227271Y-5754471D01*
X-4215028Y-5752795D01*
X-4203141Y-5749442D01*
X-4191812Y-5744514D01*
X-4181246Y-5738114D01*
X-4171696Y-5730341D01*
X-4163263Y-5721299D01*
X-4156151Y-5711190D01*
X-4150461Y-5700268D01*
X-4146296Y-5688634D01*
X-4143806Y-5676544D01*
X-4142943Y-5663844D01*
X-4142943Y-3140100D01*
X-4142181Y-3136239D01*
X-4139946Y-3132937D01*
X-3609492Y-2602433D01*
X-3602990Y-2595270D01*
X-3595878Y-2585161D01*
X-3594506Y-2582773D01*
X-3590239Y-2574188D01*
X-3589172Y-2571648D01*
X-3585413Y-2559862D01*
X-3583279Y-2547721D01*
X-3582771Y-2538018D01*
X-3582771Y-1840382D01*
X-3583635Y-1827682D01*
X-3586175Y-1815490D01*
X-3590290Y-1803958D01*
X-3593084Y-1798269D01*
X-3595979Y-1792986D01*
X-3599484Y-1787702D01*
X-3603040Y-1782978D01*
X-3609289Y-1776018D01*
X-3616350Y-1769668D01*
X-3621024Y-1766163D01*
X-3629101Y-1761032D01*
X-3637534Y-1756816D01*
X-3640074Y-1755749D01*
X-3649167Y-1752701D01*
X-3651808Y-1751990D01*
X-3661257Y-1750212D01*
X-3673703Y-1749399D01*
X-3731971Y-1749399D01*
X-3735984Y-1748536D01*
X-3739387Y-1746199D01*
X-3741521Y-1742643D01*
X-3742080Y-1738579D01*
X-3740962Y-1734566D01*
X-3738372Y-1731365D01*
X-3734866Y-1728520D01*
X-3729837Y-1722374D01*
X-3726129Y-1715363D01*
X-3723792Y-1707794D01*
X-3722979Y-1699412D01*
X-3722979Y-1580388D01*
X-3723792Y-1572006D01*
X-3726129Y-1564386D01*
X-3729837Y-1557426D01*
X-3734866Y-1551279D01*
X-3739184Y-1547723D01*
X-3741928Y-1544218D01*
X-3742893Y-1539900D01*
X-3741928Y-1535531D01*
X-3739184Y-1532026D01*
X-3734866Y-1528521D01*
X-3729837Y-1522374D01*
X-3726129Y-1515364D01*
X-3723792Y-1507794D01*
X-3722979Y-1499412D01*
X-3722979Y-1429867D01*
X-3722115Y-1425803D01*
X-3719677Y-1422400D01*
X-3716121Y-1420266D01*
X-3711956Y-1419758D01*
X-3707942Y-1420977D01*
X-3704793Y-1423670D01*
X-3702964Y-1427429D01*
X-3700881Y-1435049D01*
X-3697274Y-1443736D01*
X-3696106Y-1446072D01*
X-3691229Y-1454150D01*
X-3689705Y-1456283D01*
X-3683711Y-1463548D01*
X-2848457Y-2298801D01*
X-2841244Y-2304796D01*
X-2839059Y-2306320D01*
X-2831033Y-2311146D01*
X-2828645Y-2312365D01*
X-2819958Y-2315972D01*
X-2817469Y-2316784D01*
X-2808325Y-2319020D01*
X-2805734Y-2319477D01*
X-2796387Y-2320340D01*
X-2753563Y-2320391D01*
X-2749194Y-2321407D01*
X-2745689Y-2324100D01*
X-2742082Y-2328519D01*
X-2737815Y-2332024D01*
X-2735072Y-2335530D01*
X-2734056Y-2339898D01*
X-2735072Y-2344216D01*
X-2737815Y-2347722D01*
X-2742082Y-2351278D01*
X-2747111Y-2357424D01*
X-2750870Y-2364435D01*
X-2753156Y-2372004D01*
X-2754020Y-2380386D01*
X-2754020Y-2499410D01*
X-2753156Y-2507792D01*
X-2750870Y-2515362D01*
X-2747111Y-2522372D01*
X-2742082Y-2528519D01*
X-2735986Y-2533548D01*
X-2728976Y-2537256D01*
X-2721406Y-2539593D01*
X-2712974Y-2540406D01*
X-2363978Y-2540406D01*
X-2355596Y-2539593D01*
X-2348026Y-2537256D01*
X-2341016Y-2533548D01*
X-2334869Y-2528519D01*
X-2329840Y-2522372D01*
X-2326132Y-2515362D01*
X-2323795Y-2507792D01*
X-2322982Y-2499410D01*
X-2322982Y-2380386D01*
X-2323795Y-2372004D01*
X-2326132Y-2364435D01*
X-2329840Y-2357424D01*
X-2334869Y-2351278D01*
X-2339187Y-2347722D01*
X-2341930Y-2344216D01*
X-2342896Y-2339898D01*
X-2341930Y-2335530D01*
X-2339187Y-2332024D01*
X-2334869Y-2328519D01*
X-2329840Y-2322372D01*
X-2326132Y-2315362D01*
X-2323795Y-2307793D01*
X-2322982Y-2299411D01*
X-2322982Y-2180386D01*
X-2323795Y-2172004D01*
X-2326132Y-2164384D01*
X-2329840Y-2157425D01*
X-2334869Y-2151278D01*
X-2339187Y-2147722D01*
X-2341930Y-2144217D01*
X-2342896Y-2139899D01*
X-2341930Y-2135530D01*
X-2339187Y-2132025D01*
X-2334869Y-2128520D01*
X-2329840Y-2122373D01*
X-2326132Y-2115362D01*
X-2323795Y-2107793D01*
X-2322982Y-2099411D01*
X-2322982Y-1980387D01*
X-2323795Y-1972005D01*
X-2326132Y-1964385D01*
X-2329840Y-1957425D01*
X-2334869Y-1951278D01*
X-2339187Y-1947722D01*
X-2341930Y-1944217D01*
X-2342896Y-1939899D01*
X-2341930Y-1935530D01*
X-2339187Y-1932025D01*
X-2334869Y-1928520D01*
X-2329840Y-1922373D01*
X-2326132Y-1915363D01*
X-2323795Y-1907793D01*
X-2322982Y-1899412D01*
X-2322982Y-1780387D01*
X-2323795Y-1772005D01*
X-2326132Y-1764385D01*
X-2329840Y-1757425D01*
X-2334869Y-1751279D01*
X-2339187Y-1747723D01*
X-2341930Y-1744218D01*
X-2342896Y-1739900D01*
X-2341930Y-1735531D01*
X-2339187Y-1732025D01*
X-2334869Y-1728520D01*
X-2329840Y-1722374D01*
X-2326132Y-1715363D01*
X-2323795Y-1707794D01*
X-2322982Y-1699412D01*
X-2322982Y-1580388D01*
X-2323795Y-1572006D01*
X-2326132Y-1564386D01*
X-2329840Y-1557426D01*
X-2334869Y-1551279D01*
X-2339187Y-1547723D01*
X-2341930Y-1544218D01*
X-2342896Y-1539900D01*
X-2341930Y-1535531D01*
X-2339187Y-1532026D01*
X-2334869Y-1528521D01*
X-2329840Y-1522374D01*
X-2326132Y-1515364D01*
X-2323795Y-1507794D01*
X-2322982Y-1499412D01*
X-2322982Y-1380388D01*
X-2323795Y-1372006D01*
X-2326132Y-1364386D01*
X-2329840Y-1357426D01*
X-2334869Y-1351280D01*
X-2339187Y-1347724D01*
X-2341930Y-1344218D01*
X-2342896Y-1339900D01*
X-2341930Y-1335532D01*
X-2339187Y-1332026D01*
X-2334869Y-1328521D01*
X-2329840Y-1322374D01*
X-2326132Y-1315364D01*
X-2323795Y-1307795D01*
X-2322982Y-1299413D01*
X-2322982Y-1180388D01*
X-2323795Y-1172006D01*
X-2326132Y-1164386D01*
X-2329840Y-1157427D01*
X-2334869Y-1151280D01*
X-2339187Y-1147724D01*
X-2341930Y-1144219D01*
X-2342896Y-1139901D01*
X-2341930Y-1135532D01*
X-2339187Y-1132027D01*
X-2334869Y-1128522D01*
X-2329840Y-1122375D01*
X-2326132Y-1115364D01*
X-2323795Y-1107795D01*
X-2322982Y-1099413D01*
X-2322982Y-990396D01*
X-2322220Y-986485D01*
X-2320036Y-983183D01*
X-2316734Y-980998D01*
X-2312822Y-980236D01*
X-1650695Y-980236D01*
X-1646783Y-980998D01*
X-1643481Y-983183D01*
X-1089660Y-1537004D01*
X-1082497Y-1543507D01*
X-1072388Y-1550619D01*
X-1070000Y-1551990D01*
X-1061415Y-1556258D01*
X-1058875Y-1557324D01*
X-1047089Y-1561084D01*
X-1034948Y-1563217D01*
X-1025245Y-1563725D01*
X-498500Y-1563725D01*
X-495096Y-1564284D01*
X-491083Y-1566824D01*
X-484073Y-1570583D01*
X-476504Y-1572869D01*
X-468071Y-1573682D01*
X-4673Y-1573682D01*
X-762Y-1574444D01*
X2540Y-1576679D01*
X4724Y-1579981D01*
X5486Y-1583842D01*
X5486Y-1617522D01*
X4724Y-1621383D01*
X2540Y-1624685D01*
X-762Y-1626920D01*
X-4673Y-1627682D01*
X-102260Y-1627682D01*
X-102260Y-1691843D01*
X-4673Y-1691843D01*
X-762Y-1692605D01*
X2540Y-1694789D01*
X4724Y-1698091D01*
X5486Y-1702003D01*
X5486Y-1754378D01*
X4724Y-1758289D01*
X2540Y-1761540D01*
X-762Y-1763775D01*
X-4673Y-1764538D01*
X-102260Y-1764538D01*
X-102260Y-1828698D01*
X10871Y-1828698D01*
X20523Y-1827682D01*
X23418Y-1827784D01*
X30276Y-1829054D01*
X40182Y-1829104D01*
X44043Y-1829917D01*
X47345Y-1832102D01*
X49530Y-1835404D01*
X50292Y-1839264D01*
X50292Y-10250932D01*
X49530Y-10254843D01*
X47294Y-10258094D01*
X44043Y-10260330D01*
X40132Y-10261092D01*
G37*

%LPC*%
G36*
X-681888Y-10215422D02*
G01*
X-681888Y-10106304D01*
X-791159Y-10106304D01*
X-782015Y-10123322D01*
X-770128Y-10141356D01*
X-756666Y-10158222D01*
X-741781Y-10173817D01*
X-725525Y-10187990D01*
X-708050Y-10200690D01*
X-689508Y-10211765D01*
G37*
G36*
X-469188Y-10215422D02*
G01*
X-461619Y-10211765D01*
X-443077Y-10200690D01*
X-425602Y-10187990D01*
X-409346Y-10173817D01*
X-394462Y-10158222D01*
X-381000Y-10141356D01*
X-369112Y-10123322D01*
X-359968Y-10106304D01*
X-469188Y-10106304D01*
G37*
G36*
X-8269173Y-10215422D02*
G01*
X-8261603Y-10211765D01*
X-8243062Y-10200690D01*
X-8225586Y-10187990D01*
X-8209330Y-10173817D01*
X-8194446Y-10158222D01*
X-8180984Y-10141356D01*
X-8169097Y-10123322D01*
X-8159953Y-10106304D01*
X-8269173Y-10106304D01*
G37*
G36*
X-8481872Y-10215422D02*
G01*
X-8481872Y-10106304D01*
X-8591143Y-10106304D01*
X-8581999Y-10123322D01*
X-8570112Y-10141356D01*
X-8556650Y-10158222D01*
X-8541766Y-10173817D01*
X-8525510Y-10187990D01*
X-8508034Y-10200690D01*
X-8489492Y-10211765D01*
G37*
G36*
X-4479544Y-10101021D02*
G01*
X-4479544Y-10054844D01*
X-4525721Y-10054844D01*
X-4521403Y-10065461D01*
X-4515510Y-10075011D01*
X-4508246Y-10083546D01*
X-4499711Y-10090810D01*
X-4490161Y-10096703D01*
G37*
G36*
X-4435856Y-10101021D02*
G01*
X-4425238Y-10096703D01*
X-4415688Y-10090810D01*
X-4407154Y-10083546D01*
X-4399889Y-10075011D01*
X-4393996Y-10065461D01*
X-4389678Y-10054844D01*
X-4435856Y-10054844D01*
G37*
G36*
X-1609344Y-10101021D02*
G01*
X-1609344Y-10054844D01*
X-1655521Y-10054844D01*
X-1651203Y-10065461D01*
X-1645310Y-10075011D01*
X-1638046Y-10083546D01*
X-1629511Y-10090810D01*
X-1619961Y-10096703D01*
G37*
G36*
X-6823456Y-10101021D02*
G01*
X-6812838Y-10096703D01*
X-6803288Y-10090810D01*
X-6794753Y-10083546D01*
X-6787489Y-10075011D01*
X-6781596Y-10065461D01*
X-6777278Y-10054844D01*
X-6823456Y-10054844D01*
G37*
G36*
X-1565656Y-10101021D02*
G01*
X-1555038Y-10096703D01*
X-1545488Y-10090810D01*
X-1536954Y-10083546D01*
X-1529689Y-10075011D01*
X-1523796Y-10065461D01*
X-1519478Y-10054844D01*
X-1565656Y-10054844D01*
G37*
G36*
X-6867144Y-10101021D02*
G01*
X-6867144Y-10054844D01*
X-6913321Y-10054844D01*
X-6909003Y-10065461D01*
X-6903110Y-10075011D01*
X-6895846Y-10083546D01*
X-6887311Y-10090810D01*
X-6877761Y-10096703D01*
G37*
G36*
X-4525721Y-10011156D02*
G01*
X-4479544Y-10011156D01*
X-4479544Y-9964978D01*
X-4490161Y-9969296D01*
X-4499711Y-9975189D01*
X-4508246Y-9982454D01*
X-4515510Y-9990988D01*
X-4521403Y-10000538D01*
G37*
G36*
X-4435856Y-10011156D02*
G01*
X-4389678Y-10011156D01*
X-4393996Y-10000538D01*
X-4399889Y-9990988D01*
X-4407154Y-9982454D01*
X-4415688Y-9975189D01*
X-4425238Y-9969296D01*
X-4435856Y-9964978D01*
G37*
G36*
X-1655521Y-10011156D02*
G01*
X-1609344Y-10011156D01*
X-1609344Y-9964978D01*
X-1619961Y-9969296D01*
X-1629511Y-9975189D01*
X-1638046Y-9982454D01*
X-1645310Y-9990988D01*
X-1651203Y-10000538D01*
G37*
G36*
X-6823456Y-10011156D02*
G01*
X-6777278Y-10011156D01*
X-6781596Y-10000538D01*
X-6787489Y-9990988D01*
X-6794753Y-9982454D01*
X-6803288Y-9975189D01*
X-6812838Y-9969296D01*
X-6823456Y-9964978D01*
G37*
G36*
X-1565656Y-10011156D02*
G01*
X-1519478Y-10011156D01*
X-1523796Y-10000538D01*
X-1529689Y-9990988D01*
X-1536954Y-9982454D01*
X-1545488Y-9975189D01*
X-1555038Y-9969296D01*
X-1565656Y-9964978D01*
G37*
G36*
X-6913321Y-10011156D02*
G01*
X-6867144Y-10011156D01*
X-6867144Y-9964978D01*
X-6877761Y-9969296D01*
X-6887311Y-9975189D01*
X-6895846Y-9982454D01*
X-6903110Y-9990988D01*
X-6909003Y-10000538D01*
G37*
G36*
X-791159Y-9893604D02*
G01*
X-681888Y-9893604D01*
X-681888Y-9784537D01*
X-689508Y-9788194D01*
X-708050Y-9799269D01*
X-725525Y-9811969D01*
X-741781Y-9826142D01*
X-756666Y-9841738D01*
X-770128Y-9858603D01*
X-782015Y-9876637D01*
G37*
G36*
X-469188Y-9893604D02*
G01*
X-359968Y-9893604D01*
X-369112Y-9876637D01*
X-381000Y-9858603D01*
X-394462Y-9841738D01*
X-409346Y-9826142D01*
X-425602Y-9811969D01*
X-443077Y-9799269D01*
X-461619Y-9788194D01*
X-469188Y-9784537D01*
G37*
G36*
X-8269173Y-9893604D02*
G01*
X-8159953Y-9893604D01*
X-8169097Y-9876637D01*
X-8180984Y-9858603D01*
X-8194446Y-9841738D01*
X-8209330Y-9826142D01*
X-8225586Y-9811969D01*
X-8243062Y-9799269D01*
X-8261603Y-9788194D01*
X-8269173Y-9784537D01*
G37*
G36*
X-8591143Y-9893604D02*
G01*
X-8481872Y-9893604D01*
X-8481872Y-9784537D01*
X-8489492Y-9788194D01*
X-8508034Y-9799269D01*
X-8525510Y-9811969D01*
X-8541766Y-9826142D01*
X-8556650Y-9841738D01*
X-8570112Y-9858603D01*
X-8581999Y-9876637D01*
G37*
G36*
X-7965846Y-9612172D02*
G01*
X-7949844Y-9611258D01*
X-7934045Y-9608515D01*
X-7918653Y-9603994D01*
X-7903870Y-9597745D01*
X-7889900Y-9589871D01*
X-7876895Y-9580422D01*
X-7865109Y-9569602D01*
X-7854594Y-9557461D01*
X-7845552Y-9544202D01*
X-7838033Y-9530029D01*
X-7832242Y-9515094D01*
X-7828127Y-9499600D01*
X-7825892Y-9483699D01*
X-7825435Y-9467646D01*
X-7826806Y-9451695D01*
X-7829956Y-9435947D01*
X-7834934Y-9420707D01*
X-7841589Y-9406128D01*
X-7849870Y-9392361D01*
X-7859674Y-9379661D01*
X-7870850Y-9368180D01*
X-7883245Y-9358020D01*
X-7896758Y-9349333D01*
X-7911134Y-9342272D01*
X-7926273Y-9336887D01*
X-7941868Y-9333230D01*
X-7957820Y-9331401D01*
X-7973872Y-9331401D01*
X-7989824Y-9333230D01*
X-8005419Y-9336887D01*
X-8020558Y-9342272D01*
X-8034934Y-9349333D01*
X-8048447Y-9358020D01*
X-8060842Y-9368180D01*
X-8072018Y-9379661D01*
X-8081822Y-9392361D01*
X-8090103Y-9406128D01*
X-8096758Y-9420707D01*
X-8101736Y-9435947D01*
X-8104886Y-9451695D01*
X-8106257Y-9467646D01*
X-8105800Y-9483699D01*
X-8103514Y-9499600D01*
X-8099450Y-9515094D01*
X-8093659Y-9530029D01*
X-8086140Y-9544202D01*
X-8077098Y-9557461D01*
X-8066582Y-9569602D01*
X-8054797Y-9580422D01*
X-8041792Y-9589871D01*
X-8027822Y-9597745D01*
X-8013039Y-9603994D01*
X-7997647Y-9608515D01*
X-7981848Y-9611258D01*
G37*
G36*
X-2163978Y-9543694D02*
G01*
X-2007514Y-9543694D01*
X-1999132Y-9542830D01*
X-1991512Y-9540544D01*
X-1984502Y-9536836D01*
X-1978406Y-9531807D01*
X-1973376Y-9525660D01*
X-1969617Y-9518650D01*
X-1967331Y-9511080D01*
X-1966518Y-9502698D01*
X-1966518Y-9346184D01*
X-1967331Y-9337802D01*
X-1969617Y-9330232D01*
X-1973376Y-9323222D01*
X-1978406Y-9317075D01*
X-1984502Y-9312046D01*
X-1991512Y-9308338D01*
X-1999132Y-9306001D01*
X-2007514Y-9305188D01*
X-2163978Y-9305188D01*
X-2172360Y-9306001D01*
X-2179980Y-9308338D01*
X-2186940Y-9312046D01*
X-2193086Y-9317075D01*
X-2198116Y-9323222D01*
X-2200960Y-9328556D01*
X-2203246Y-9331401D01*
X-2206345Y-9333280D01*
X-2209952Y-9333941D01*
X-2945739Y-9333941D01*
X-2949600Y-9333179D01*
X-2952902Y-9330944D01*
X-4348581Y-7935315D01*
X-4350715Y-7932166D01*
X-4351528Y-7928457D01*
X-4350969Y-7924749D01*
X-4349038Y-7921447D01*
X-4346092Y-7919110D01*
X-4342434Y-7917992D01*
X-4339082Y-7917688D01*
X-4324654Y-7914335D01*
X-4310735Y-7909204D01*
X-4297527Y-7902448D01*
X-4285234Y-7894116D01*
X-4274108Y-7884312D01*
X-4264253Y-7873238D01*
X-4255820Y-7860995D01*
X-4248962Y-7847838D01*
X-4244746Y-7836509D01*
X-4242612Y-7833106D01*
X-4239361Y-7830769D01*
X-4235450Y-7829905D01*
X-4231538Y-7830566D01*
X-4228134Y-7832750D01*
X-4225899Y-7836001D01*
X-4225036Y-7839913D01*
X-4224782Y-7859826D01*
X-4223867Y-7868208D01*
X-4221480Y-7875727D01*
X-4217670Y-7882686D01*
X-4212539Y-7888782D01*
X-4206341Y-7893710D01*
X-4199331Y-7897368D01*
X-4191711Y-7899603D01*
X-4183278Y-7900314D01*
X-4024325Y-7898384D01*
X-4015943Y-7897418D01*
X-4008374Y-7895031D01*
X-4001414Y-7891221D01*
X-3995369Y-7886090D01*
X-3990390Y-7879943D01*
X-3986733Y-7872882D01*
X-3984548Y-7865262D01*
X-3983786Y-7856880D01*
X-3985260Y-7737856D01*
X-3986174Y-7729474D01*
X-3988562Y-7721904D01*
X-3992422Y-7714996D01*
X-3997502Y-7708900D01*
X-4003700Y-7703972D01*
X-4010761Y-7700314D01*
X-4018381Y-7698079D01*
X-4026763Y-7697368D01*
X-4185767Y-7699298D01*
X-4194149Y-7700213D01*
X-4201718Y-7702651D01*
X-4208627Y-7706461D01*
X-4214723Y-7711541D01*
X-4219651Y-7717739D01*
X-4223308Y-7724800D01*
X-4225544Y-7732420D01*
X-4226255Y-7740802D01*
X-4226102Y-7754467D01*
X-4226814Y-7758430D01*
X-4229049Y-7761731D01*
X-4232351Y-7763967D01*
X-4236262Y-7764780D01*
X-4240174Y-7763967D01*
X-4243476Y-7761731D01*
X-4245660Y-7758379D01*
X-4250182Y-7747152D01*
X-4257395Y-7734147D01*
X-4266082Y-7722158D01*
X-4276242Y-7711338D01*
X-4287621Y-7701788D01*
X-4300067Y-7693761D01*
X-4313428Y-7687309D01*
X-4327499Y-7682534D01*
X-4342028Y-7679537D01*
X-4356811Y-7678369D01*
X-4371594Y-7679029D01*
X-4386224Y-7681468D01*
X-4400448Y-7685684D01*
X-4414062Y-7691628D01*
X-4426813Y-7699197D01*
X-4438548Y-7708290D01*
X-4449064Y-7718755D01*
X-4458208Y-7730439D01*
X-4465878Y-7743139D01*
X-4471924Y-7756702D01*
X-4476394Y-7771485D01*
X-4478528Y-7775295D01*
X-4482084Y-7777835D01*
X-4486300Y-7778699D01*
X-4490567Y-7777683D01*
X-4493971Y-7774990D01*
X-4495952Y-7771130D01*
X-4498644Y-7760919D01*
X-4504182Y-7747152D01*
X-4511395Y-7734147D01*
X-4520082Y-7722158D01*
X-4530242Y-7711338D01*
X-4541621Y-7701788D01*
X-4554067Y-7693761D01*
X-4567428Y-7687309D01*
X-4581499Y-7682534D01*
X-4596028Y-7679537D01*
X-4599736Y-7678521D01*
X-4602784Y-7676235D01*
X-4604766Y-7672933D01*
X-4605375Y-7669174D01*
X-4604562Y-7665415D01*
X-4602429Y-7662265D01*
X-3888841Y-6948627D01*
X-3882339Y-6941464D01*
X-3875227Y-6931355D01*
X-3873855Y-6928967D01*
X-3869588Y-6920382D01*
X-3868521Y-6917842D01*
X-3864762Y-6906056D01*
X-3862628Y-6893915D01*
X-3862120Y-6884212D01*
X-3862120Y-4986223D01*
X-3861562Y-4982870D01*
X-3859987Y-4979924D01*
X-3853434Y-4971643D01*
X-3845814Y-4958943D01*
X-3839768Y-4945380D01*
X-3835247Y-4930546D01*
X-3833114Y-4926787D01*
X-3829608Y-4924196D01*
X-3825341Y-4923383D01*
X-3821125Y-4924348D01*
X-3817721Y-4927041D01*
X-3815740Y-4930902D01*
X-3812997Y-4941163D01*
X-3807460Y-4954930D01*
X-3800297Y-4967884D01*
X-3791559Y-4979924D01*
X-3781907Y-4990287D01*
X-3779875Y-4993487D01*
X-3779164Y-4997246D01*
X-3779113Y-6156960D01*
X-3777792Y-6168898D01*
X-3775506Y-6178042D01*
X-3774694Y-6180531D01*
X-3771087Y-6189218D01*
X-3769918Y-6191605D01*
X-3765042Y-6199632D01*
X-3763518Y-6201816D01*
X-3757523Y-6209030D01*
X-675690Y-9290964D01*
X-673404Y-9294469D01*
X-672693Y-9298533D01*
X-673709Y-9302597D01*
X-676249Y-9305899D01*
X-679907Y-9307880D01*
X-681380Y-9308338D01*
X-688340Y-9312046D01*
X-694486Y-9317075D01*
X-699516Y-9323222D01*
X-703275Y-9330232D01*
X-705561Y-9337802D01*
X-706374Y-9346184D01*
X-706374Y-9502698D01*
X-705561Y-9511080D01*
X-703275Y-9518650D01*
X-699516Y-9525660D01*
X-694486Y-9531807D01*
X-688340Y-9536836D01*
X-681380Y-9540544D01*
X-673760Y-9542830D01*
X-665378Y-9543694D01*
X-508914Y-9543694D01*
X-500532Y-9542830D01*
X-492912Y-9540544D01*
X-485901Y-9536836D01*
X-479806Y-9531807D01*
X-474776Y-9525660D01*
X-471017Y-9518650D01*
X-468731Y-9511080D01*
X-467918Y-9502698D01*
X-467918Y-9346184D01*
X-468731Y-9337802D01*
X-471017Y-9330232D01*
X-474776Y-9323222D01*
X-479806Y-9317075D01*
X-485901Y-9312046D01*
X-492912Y-9308338D01*
X-499414Y-9306356D01*
X-503174Y-9304274D01*
X-505714Y-9300819D01*
X-506628Y-9296603D01*
X-506679Y-9262821D01*
X-508000Y-9250883D01*
X-510285Y-9241739D01*
X-511098Y-9239250D01*
X-514705Y-9230563D01*
X-515874Y-9228175D01*
X-520750Y-9220149D01*
X-522274Y-9217964D01*
X-528269Y-9210751D01*
X-3615182Y-6123787D01*
X-3617366Y-6120485D01*
X-3618128Y-6116574D01*
X-3618128Y-4996992D01*
X-3617366Y-4993081D01*
X-3615131Y-4989779D01*
X-3608628Y-4983327D01*
X-3599434Y-4971643D01*
X-3591814Y-4958943D01*
X-3585768Y-4945380D01*
X-3581247Y-4930546D01*
X-3579114Y-4926787D01*
X-3575608Y-4924196D01*
X-3571341Y-4923383D01*
X-3567125Y-4924348D01*
X-3563721Y-4927041D01*
X-3561740Y-4930902D01*
X-3558997Y-4941163D01*
X-3553460Y-4954930D01*
X-3546297Y-4967884D01*
X-3537559Y-4979924D01*
X-3527450Y-4990744D01*
X-3516071Y-5000244D01*
X-3503625Y-5008321D01*
X-3490264Y-5014772D01*
X-3476193Y-5019497D01*
X-3461664Y-5022494D01*
X-3446881Y-5023713D01*
X-3432048Y-5023053D01*
X-3417417Y-5020614D01*
X-3403193Y-5016398D01*
X-3389629Y-5010404D01*
X-3376879Y-5002834D01*
X-3365144Y-4993792D01*
X-3354628Y-4983327D01*
X-3345434Y-4971643D01*
X-3337814Y-4958943D01*
X-3331768Y-4945380D01*
X-3327247Y-4930546D01*
X-3325114Y-4926787D01*
X-3321608Y-4924196D01*
X-3317341Y-4923383D01*
X-3313125Y-4924348D01*
X-3309721Y-4927041D01*
X-3307740Y-4930902D01*
X-3304997Y-4941163D01*
X-3299460Y-4954930D01*
X-3292297Y-4967884D01*
X-3283559Y-4979924D01*
X-3273450Y-4990744D01*
X-3262071Y-5000244D01*
X-3249625Y-5008321D01*
X-3236264Y-5014772D01*
X-3222193Y-5019497D01*
X-3207664Y-5022494D01*
X-3192881Y-5023713D01*
X-3178048Y-5023053D01*
X-3163417Y-5020614D01*
X-3149193Y-5016398D01*
X-3135630Y-5010404D01*
X-3122879Y-5002834D01*
X-3111144Y-4993792D01*
X-3100628Y-4983327D01*
X-3091434Y-4971643D01*
X-3083814Y-4958943D01*
X-3077768Y-4945380D01*
X-3073450Y-4931156D01*
X-3070910Y-4916576D01*
X-3070148Y-4901742D01*
X-3070555Y-4896713D01*
X-3070352Y-4893818D01*
X-3069336Y-4891125D01*
X-3067354Y-4887417D01*
X-3063798Y-4878832D01*
X-3062986Y-4876393D01*
X-3060496Y-4866030D01*
X-3058515Y-4862068D01*
X-3055061Y-4859274D01*
X-3050743Y-4858258D01*
X-2983534Y-4857445D01*
X-2984347Y-4792624D01*
X-2998165Y-4799634D01*
X-3010408Y-4807966D01*
X-3021584Y-4817770D01*
X-3031439Y-4828844D01*
X-3040176Y-4841646D01*
X-3043072Y-4845100D01*
X-3047136Y-4846929D01*
X-3051606Y-4846828D01*
X-3055620Y-4844846D01*
X-3058363Y-4841341D01*
X-3059328Y-4836972D01*
X-3059328Y-3218992D01*
X-3058566Y-3215081D01*
X-3056331Y-3211779D01*
X-3049828Y-3205327D01*
X-3040634Y-3193643D01*
X-3033014Y-3180943D01*
X-3026968Y-3167380D01*
X-3022650Y-3153156D01*
X-3020110Y-3138576D01*
X-3019348Y-3123742D01*
X-3020466Y-3108960D01*
X-3023362Y-3094431D01*
X-3028035Y-3080359D01*
X-3034385Y-3066948D01*
X-3042361Y-3054400D01*
X-3051810Y-3042970D01*
X-3062579Y-3032760D01*
X-3074517Y-3023971D01*
X-3087471Y-3016707D01*
X-3101187Y-3011119D01*
X-3115513Y-3007207D01*
X-3130194Y-3005124D01*
X-3145028Y-3004870D01*
X-3159760Y-3006394D01*
X-3174238Y-3009747D01*
X-3188157Y-3014878D01*
X-3201365Y-3021634D01*
X-3213608Y-3029966D01*
X-3224784Y-3039770D01*
X-3234639Y-3050844D01*
X-3243072Y-3063036D01*
X-3249930Y-3076194D01*
X-3255111Y-3090113D01*
X-3256940Y-3097733D01*
X-3258565Y-3101289D01*
X-3261410Y-3103981D01*
X-3265017Y-3105404D01*
X-3268929Y-3105353D01*
X-3272536Y-3103778D01*
X-3275279Y-3100984D01*
X-3276752Y-3097377D01*
X-3277362Y-3094431D01*
X-3282035Y-3080359D01*
X-3288385Y-3066948D01*
X-3296361Y-3054400D01*
X-3305810Y-3042970D01*
X-3316579Y-3032760D01*
X-3328517Y-3023971D01*
X-3341471Y-3016707D01*
X-3355187Y-3011119D01*
X-3369513Y-3007207D01*
X-3384194Y-3005124D01*
X-3399028Y-3004870D01*
X-3413760Y-3006394D01*
X-3428237Y-3009747D01*
X-3442157Y-3014878D01*
X-3455365Y-3021634D01*
X-3467608Y-3029966D01*
X-3478784Y-3039770D01*
X-3488639Y-3050844D01*
X-3497072Y-3063036D01*
X-3503929Y-3076194D01*
X-3509111Y-3090113D01*
X-3510940Y-3097733D01*
X-3512565Y-3101289D01*
X-3515410Y-3103981D01*
X-3519017Y-3105404D01*
X-3522929Y-3105353D01*
X-3526536Y-3103778D01*
X-3529279Y-3100984D01*
X-3530752Y-3097377D01*
X-3531362Y-3094431D01*
X-3536035Y-3080359D01*
X-3542385Y-3066948D01*
X-3550361Y-3054400D01*
X-3559810Y-3042970D01*
X-3570579Y-3032760D01*
X-3582517Y-3023971D01*
X-3595471Y-3016707D01*
X-3609187Y-3011119D01*
X-3623513Y-3007207D01*
X-3638194Y-3005124D01*
X-3653028Y-3004870D01*
X-3667760Y-3006394D01*
X-3682237Y-3009747D01*
X-3696157Y-3014878D01*
X-3709365Y-3021634D01*
X-3721608Y-3029966D01*
X-3732784Y-3039770D01*
X-3742639Y-3050844D01*
X-3751072Y-3063036D01*
X-3757929Y-3076194D01*
X-3763111Y-3090113D01*
X-3764940Y-3097733D01*
X-3766565Y-3101289D01*
X-3769410Y-3103981D01*
X-3773017Y-3105404D01*
X-3776929Y-3105353D01*
X-3780536Y-3103778D01*
X-3783279Y-3100984D01*
X-3784752Y-3097377D01*
X-3785362Y-3094431D01*
X-3790035Y-3080359D01*
X-3796385Y-3066948D01*
X-3804361Y-3054400D01*
X-3813810Y-3042970D01*
X-3824579Y-3032760D01*
X-3836517Y-3023971D01*
X-3849471Y-3016707D01*
X-3863187Y-3011119D01*
X-3877513Y-3007207D01*
X-3892194Y-3005124D01*
X-3907028Y-3004870D01*
X-3921760Y-3006394D01*
X-3936237Y-3009747D01*
X-3950157Y-3014878D01*
X-3963365Y-3021634D01*
X-3975608Y-3029966D01*
X-3986784Y-3039770D01*
X-3996639Y-3050844D01*
X-4005072Y-3063036D01*
X-4011929Y-3076194D01*
X-4017111Y-3090113D01*
X-4020565Y-3104540D01*
X-4022191Y-3119272D01*
X-4021988Y-3134106D01*
X-4020007Y-3148838D01*
X-4016197Y-3163163D01*
X-4010660Y-3176930D01*
X-4003497Y-3189884D01*
X-3994759Y-3201924D01*
X-3984650Y-3212744D01*
X-3973271Y-3222244D01*
X-3960825Y-3230321D01*
X-3947464Y-3236772D01*
X-3933393Y-3241497D01*
X-3918864Y-3244494D01*
X-3904081Y-3245713D01*
X-3889248Y-3245053D01*
X-3874617Y-3242614D01*
X-3860393Y-3238398D01*
X-3846829Y-3232404D01*
X-3834079Y-3224834D01*
X-3822344Y-3215792D01*
X-3811828Y-3205327D01*
X-3802634Y-3193643D01*
X-3795014Y-3180943D01*
X-3788968Y-3167380D01*
X-3784447Y-3152546D01*
X-3782314Y-3148787D01*
X-3778808Y-3146196D01*
X-3774541Y-3145383D01*
X-3770325Y-3146348D01*
X-3766921Y-3149041D01*
X-3764940Y-3152902D01*
X-3762197Y-3163163D01*
X-3756660Y-3176930D01*
X-3749497Y-3189884D01*
X-3740759Y-3201924D01*
X-3730650Y-3212744D01*
X-3719271Y-3222244D01*
X-3706825Y-3230321D01*
X-3693464Y-3236772D01*
X-3679393Y-3241497D01*
X-3664864Y-3244494D01*
X-3650081Y-3245713D01*
X-3635248Y-3245053D01*
X-3620617Y-3242614D01*
X-3606393Y-3238398D01*
X-3592829Y-3232404D01*
X-3580079Y-3224834D01*
X-3568344Y-3215792D01*
X-3557828Y-3205327D01*
X-3548634Y-3193643D01*
X-3541014Y-3180943D01*
X-3534968Y-3167380D01*
X-3530447Y-3152546D01*
X-3528314Y-3148787D01*
X-3524808Y-3146196D01*
X-3520541Y-3145383D01*
X-3516325Y-3146348D01*
X-3512921Y-3149041D01*
X-3510940Y-3152902D01*
X-3508197Y-3163163D01*
X-3502660Y-3176930D01*
X-3495497Y-3189884D01*
X-3486759Y-3201924D01*
X-3477107Y-3212287D01*
X-3475075Y-3215487D01*
X-3474364Y-3219246D01*
X-3474364Y-4778959D01*
X-3475177Y-4782972D01*
X-3477514Y-4786325D01*
X-3481019Y-4788509D01*
X-3492957Y-4792878D01*
X-3506165Y-4799634D01*
X-3518408Y-4807966D01*
X-3529584Y-4817770D01*
X-3539439Y-4828844D01*
X-3547872Y-4841036D01*
X-3554729Y-4854194D01*
X-3559911Y-4868113D01*
X-3561740Y-4875733D01*
X-3563365Y-4879289D01*
X-3566210Y-4881981D01*
X-3569817Y-4883404D01*
X-3573729Y-4883353D01*
X-3577336Y-4881778D01*
X-3580079Y-4878984D01*
X-3581552Y-4875377D01*
X-3582162Y-4872431D01*
X-3586835Y-4858359D01*
X-3593185Y-4844948D01*
X-3601161Y-4832400D01*
X-3610610Y-4820970D01*
X-3621379Y-4810760D01*
X-3633317Y-4801971D01*
X-3646271Y-4794707D01*
X-3659987Y-4789119D01*
X-3674313Y-4785207D01*
X-3688994Y-4783124D01*
X-3703828Y-4782870D01*
X-3718560Y-4784394D01*
X-3733037Y-4787747D01*
X-3746957Y-4792878D01*
X-3760165Y-4799634D01*
X-3772408Y-4807966D01*
X-3783584Y-4817770D01*
X-3793439Y-4828844D01*
X-3801872Y-4841036D01*
X-3808729Y-4854194D01*
X-3813911Y-4868113D01*
X-3815740Y-4875733D01*
X-3817365Y-4879289D01*
X-3820210Y-4881981D01*
X-3823817Y-4883404D01*
X-3827729Y-4883353D01*
X-3831336Y-4881778D01*
X-3834079Y-4878984D01*
X-3835552Y-4875377D01*
X-3836162Y-4872431D01*
X-3840835Y-4858359D01*
X-3847185Y-4844948D01*
X-3855161Y-4832400D01*
X-3864610Y-4820970D01*
X-3875379Y-4810760D01*
X-3887317Y-4801971D01*
X-3900271Y-4794707D01*
X-3913987Y-4789119D01*
X-3928313Y-4785207D01*
X-3942994Y-4783124D01*
X-3957828Y-4782870D01*
X-3972560Y-4784394D01*
X-3987037Y-4787747D01*
X-4000957Y-4792878D01*
X-4014165Y-4799634D01*
X-4026408Y-4807966D01*
X-4037584Y-4817770D01*
X-4047439Y-4828844D01*
X-4055872Y-4841036D01*
X-4062729Y-4854194D01*
X-4067911Y-4868113D01*
X-4071365Y-4882540D01*
X-4072991Y-4897272D01*
X-4072788Y-4912106D01*
X-4070807Y-4926838D01*
X-4066997Y-4941163D01*
X-4061460Y-4954930D01*
X-4054297Y-4967884D01*
X-4045102Y-4980533D01*
X-4043629Y-4983378D01*
X-4043172Y-4986528D01*
X-4043172Y-6842759D01*
X-4043934Y-6846671D01*
X-4046118Y-6849973D01*
X-4872177Y-7676032D01*
X-4875276Y-7678115D01*
X-4879594Y-7679029D01*
X-4894224Y-7681468D01*
X-4908448Y-7685684D01*
X-4922062Y-7691628D01*
X-4934813Y-7699197D01*
X-4946548Y-7708290D01*
X-4957064Y-7718755D01*
X-4966208Y-7730439D01*
X-4973878Y-7743139D01*
X-4979924Y-7756702D01*
X-4984242Y-7770875D01*
X-4986782Y-7785506D01*
X-4987493Y-7800289D01*
X-4986426Y-7815122D01*
X-4983530Y-7829651D01*
X-4978857Y-7843723D01*
X-4972456Y-7857134D01*
X-4964531Y-7869631D01*
X-4955082Y-7881112D01*
X-4944313Y-7891272D01*
X-4932375Y-7900060D01*
X-4919421Y-7907324D01*
X-4905705Y-7912963D01*
X-4891379Y-7916824D01*
X-4876698Y-7918958D01*
X-4861864Y-7919212D01*
X-4847082Y-7917688D01*
X-4832654Y-7914335D01*
X-4818735Y-7909204D01*
X-4805527Y-7902448D01*
X-4793234Y-7894116D01*
X-4782108Y-7884312D01*
X-4772253Y-7873238D01*
X-4763820Y-7860995D01*
X-4756962Y-7847838D01*
X-4751781Y-7833969D01*
X-4749952Y-7826298D01*
X-4748326Y-7822742D01*
X-4745482Y-7820050D01*
X-4741824Y-7818678D01*
X-4737912Y-7818729D01*
X-4734356Y-7820304D01*
X-4731613Y-7823047D01*
X-4730089Y-7826705D01*
X-4729530Y-7829651D01*
X-4724857Y-7843723D01*
X-4718456Y-7857134D01*
X-4710531Y-7869631D01*
X-4701082Y-7881112D01*
X-4690313Y-7891272D01*
X-4678375Y-7900060D01*
X-4665421Y-7907324D01*
X-4651705Y-7912963D01*
X-4637379Y-7916824D01*
X-4623968Y-7918754D01*
X-4620869Y-7919720D01*
X-4618228Y-7921650D01*
X-3051606Y-9488271D01*
X-3044393Y-9494774D01*
X-3042259Y-9496450D01*
X-3031947Y-9503257D01*
X-3023311Y-9507524D01*
X-3020771Y-9508591D01*
X-3011678Y-9511639D01*
X-3009036Y-9512350D01*
X-2999587Y-9514128D01*
X-2987141Y-9514941D01*
X-2209952Y-9514941D01*
X-2206345Y-9515602D01*
X-2203246Y-9517481D01*
X-2200960Y-9520326D01*
X-2198116Y-9525660D01*
X-2193086Y-9531807D01*
X-2186940Y-9536836D01*
X-2179980Y-9540544D01*
X-2172360Y-9542830D01*
G37*
G36*
X-7965846Y-9111284D02*
G01*
X-7949844Y-9110370D01*
X-7934045Y-9107627D01*
X-7918653Y-9103106D01*
X-7903870Y-9096857D01*
X-7889900Y-9088983D01*
X-7876895Y-9079534D01*
X-7865109Y-9068714D01*
X-7854594Y-9056573D01*
X-7845552Y-9043314D01*
X-7838033Y-9029141D01*
X-7832242Y-9014206D01*
X-7828127Y-8998712D01*
X-7825892Y-8982811D01*
X-7825435Y-8966758D01*
X-7826806Y-8950807D01*
X-7829956Y-8935059D01*
X-7834934Y-8919819D01*
X-7841589Y-8905240D01*
X-7849870Y-8891473D01*
X-7859674Y-8878773D01*
X-7870850Y-8867292D01*
X-7883245Y-8857132D01*
X-7896758Y-8848445D01*
X-7911134Y-8841384D01*
X-7926273Y-8835999D01*
X-7941868Y-8832342D01*
X-7957820Y-8830513D01*
X-7973872Y-8830513D01*
X-7989824Y-8832342D01*
X-8005419Y-8835999D01*
X-8020558Y-8841384D01*
X-8034934Y-8848445D01*
X-8048447Y-8857132D01*
X-8060842Y-8867292D01*
X-8072018Y-8878773D01*
X-8081822Y-8891473D01*
X-8090103Y-8905240D01*
X-8096758Y-8919819D01*
X-8101736Y-8935059D01*
X-8104886Y-8950807D01*
X-8106257Y-8966758D01*
X-8105800Y-8982811D01*
X-8103514Y-8998712D01*
X-8099450Y-9014206D01*
X-8093659Y-9029141D01*
X-8086140Y-9043314D01*
X-8077098Y-9056573D01*
X-8066582Y-9068714D01*
X-8054797Y-9079534D01*
X-8041792Y-9088983D01*
X-8027822Y-9096857D01*
X-8013039Y-9103106D01*
X-7997647Y-9107627D01*
X-7981848Y-9110370D01*
G37*
G36*
X-7965846Y-8532672D02*
G01*
X-7949844Y-8531758D01*
X-7934045Y-8529015D01*
X-7918653Y-8524494D01*
X-7903870Y-8518245D01*
X-7889900Y-8510371D01*
X-7876895Y-8500922D01*
X-7865109Y-8490102D01*
X-7854594Y-8477961D01*
X-7845552Y-8464702D01*
X-7838033Y-8450529D01*
X-7832242Y-8435594D01*
X-7828127Y-8420100D01*
X-7825892Y-8404199D01*
X-7825435Y-8388146D01*
X-7826806Y-8372195D01*
X-7829956Y-8356447D01*
X-7834934Y-8341207D01*
X-7841589Y-8326628D01*
X-7849870Y-8312861D01*
X-7859674Y-8300161D01*
X-7870850Y-8288680D01*
X-7883245Y-8278520D01*
X-7896758Y-8269833D01*
X-7911134Y-8262772D01*
X-7926273Y-8257387D01*
X-7941868Y-8253730D01*
X-7957820Y-8251901D01*
X-7973872Y-8251901D01*
X-7989824Y-8253730D01*
X-8005419Y-8257387D01*
X-8020558Y-8262772D01*
X-8034934Y-8269833D01*
X-8048447Y-8278520D01*
X-8060842Y-8288680D01*
X-8072018Y-8300161D01*
X-8081822Y-8312861D01*
X-8090103Y-8326628D01*
X-8096758Y-8341207D01*
X-8101736Y-8356447D01*
X-8104886Y-8372195D01*
X-8106257Y-8388146D01*
X-8105800Y-8404199D01*
X-8103514Y-8420100D01*
X-8099450Y-8435594D01*
X-8093659Y-8450529D01*
X-8086140Y-8464702D01*
X-8077098Y-8477961D01*
X-8066582Y-8490102D01*
X-8054797Y-8500922D01*
X-8041792Y-8510371D01*
X-8027822Y-8518245D01*
X-8013039Y-8524494D01*
X-7997647Y-8529015D01*
X-7981848Y-8531758D01*
G37*
G36*
X-663854Y-8443620D02*
G01*
X-507390Y-8443620D01*
X-499008Y-8442756D01*
X-491388Y-8440470D01*
X-484378Y-8436762D01*
X-478282Y-8431733D01*
X-473252Y-8425586D01*
X-469493Y-8418576D01*
X-467207Y-8411006D01*
X-466394Y-8402624D01*
X-466394Y-8246109D01*
X-467207Y-8237728D01*
X-469493Y-8230158D01*
X-473252Y-8223148D01*
X-478282Y-8217001D01*
X-484378Y-8211972D01*
X-489762Y-8209127D01*
X-492607Y-8206841D01*
X-494487Y-8203742D01*
X-495096Y-8200186D01*
X-495096Y-8197240D01*
X-494334Y-8193379D01*
X-492150Y-8190077D01*
X-216052Y-7913979D01*
X-209550Y-7906816D01*
X-202488Y-7896707D01*
X-201066Y-7894320D01*
X-196799Y-7885734D01*
X-195732Y-7883194D01*
X-191973Y-7871409D01*
X-190195Y-7861960D01*
X-189890Y-7859268D01*
X-189382Y-7849565D01*
X-189382Y-5044643D01*
X-190195Y-5032197D01*
X-191973Y-5022748D01*
X-192684Y-5020106D01*
X-195732Y-5011013D01*
X-196799Y-5008473D01*
X-201066Y-4999837D01*
X-207873Y-4989525D01*
X-209550Y-4987391D01*
X-216052Y-4980178D01*
X-532231Y-4663998D01*
X-539445Y-4657496D01*
X-541578Y-4655820D01*
X-551891Y-4649012D01*
X-560527Y-4644745D01*
X-563067Y-4643678D01*
X-572160Y-4640630D01*
X-574802Y-4639919D01*
X-584250Y-4638141D01*
X-596696Y-4637328D01*
X-608533Y-4637328D01*
X-612444Y-4636566D01*
X-615746Y-4634331D01*
X-682294Y-4567732D01*
X-684530Y-4564481D01*
X-685292Y-4560570D01*
X-685292Y-4530191D01*
X-715670Y-4530191D01*
X-719582Y-4529429D01*
X-722884Y-4527194D01*
X-725678Y-4524400D01*
X-727862Y-4521098D01*
X-728624Y-4517237D01*
X-728624Y-4427626D01*
X-727862Y-4423765D01*
X-725678Y-4420463D01*
X-722376Y-4418279D01*
X-718464Y-4417466D01*
X-685292Y-4417466D01*
X-685292Y-4345381D01*
X-690930Y-4347768D01*
X-704900Y-4355642D01*
X-712520Y-4361180D01*
X-716584Y-4362958D01*
X-721004Y-4362805D01*
X-724966Y-4360773D01*
X-727659Y-4357268D01*
X-728624Y-4352950D01*
X-728624Y-4109364D01*
X-727862Y-4105503D01*
X-725678Y-4102201D01*
X-640486Y-4017010D01*
X-637184Y-4014825D01*
X-633272Y-4014012D01*
X-617220Y-4014012D01*
X-601268Y-4012184D01*
X-585673Y-4008577D01*
X-570534Y-4003192D01*
X-556158Y-3996080D01*
X-542645Y-3987444D01*
X-530250Y-3977284D01*
X-519074Y-3965752D01*
X-509270Y-3953052D01*
X-500989Y-3939336D01*
X-494334Y-3924757D01*
X-489356Y-3909466D01*
X-486206Y-3893769D01*
X-484835Y-3877767D01*
X-485292Y-3861765D01*
X-487527Y-3845864D01*
X-491642Y-3830370D01*
X-497433Y-3815384D01*
X-504951Y-3801211D01*
X-513994Y-3788003D01*
X-524510Y-3775862D01*
X-536295Y-3764991D01*
X-549300Y-3755593D01*
X-563270Y-3747719D01*
X-578053Y-3741470D01*
X-593445Y-3736949D01*
X-609244Y-3734206D01*
X-625246Y-3733292D01*
X-641248Y-3734206D01*
X-657047Y-3736949D01*
X-672439Y-3741470D01*
X-687222Y-3747719D01*
X-701192Y-3755593D01*
X-714197Y-3764991D01*
X-725982Y-3775862D01*
X-736498Y-3788003D01*
X-745540Y-3801211D01*
X-753059Y-3815384D01*
X-758850Y-3830370D01*
X-762914Y-3845864D01*
X-765200Y-3861765D01*
X-765657Y-3877767D01*
X-765403Y-3880815D01*
X-766013Y-3885184D01*
X-768350Y-3888892D01*
X-882954Y-4003497D01*
X-889457Y-4010710D01*
X-891133Y-4012844D01*
X-896569Y-4020820D01*
X-897940Y-4023156D01*
X-902208Y-4031792D01*
X-903274Y-4034332D01*
X-906322Y-4043426D01*
X-907034Y-4046067D01*
X-909167Y-4058259D01*
X-909675Y-4067962D01*
X-909675Y-4558639D01*
X-909167Y-4568342D01*
X-907034Y-4580534D01*
X-906322Y-4583176D01*
X-903274Y-4592269D01*
X-902208Y-4594809D01*
X-897940Y-4603445D01*
X-896569Y-4605782D01*
X-891133Y-4613757D01*
X-889457Y-4615891D01*
X-882954Y-4623104D01*
X-714400Y-4791659D01*
X-707237Y-4798161D01*
X-697128Y-4805222D01*
X-694740Y-4806645D01*
X-686155Y-4810912D01*
X-683615Y-4811979D01*
X-671830Y-4815738D01*
X-662381Y-4817516D01*
X-659688Y-4817821D01*
X-649986Y-4818329D01*
X-638098Y-4818329D01*
X-634238Y-4819091D01*
X-630936Y-4821326D01*
X-627888Y-4824323D01*
X-625754Y-4827524D01*
X-624941Y-4831334D01*
X-625602Y-4835144D01*
X-627634Y-4838446D01*
X-630783Y-4840732D01*
X-634492Y-4841646D01*
X-644956Y-4842256D01*
X-660755Y-4844999D01*
X-676148Y-4849520D01*
X-690930Y-4855768D01*
X-704900Y-4863642D01*
X-717854Y-4873091D01*
X-729691Y-4883912D01*
X-740206Y-4896053D01*
X-749249Y-4909261D01*
X-756716Y-4923485D01*
X-762558Y-4938420D01*
X-766622Y-4953914D01*
X-768908Y-4969814D01*
X-769366Y-4985867D01*
X-767994Y-5001818D01*
X-764794Y-5017566D01*
X-759866Y-5032806D01*
X-753211Y-5047386D01*
X-744931Y-5061153D01*
X-735126Y-5073853D01*
X-723950Y-5085334D01*
X-711504Y-5095494D01*
X-698042Y-5104180D01*
X-683615Y-5111242D01*
X-668528Y-5116626D01*
X-652881Y-5120284D01*
X-636981Y-5122113D01*
X-620928Y-5122113D01*
X-604977Y-5120284D01*
X-589381Y-5116626D01*
X-574243Y-5111242D01*
X-559866Y-5104180D01*
X-546354Y-5095494D01*
X-533958Y-5085334D01*
X-522782Y-5073853D01*
X-512978Y-5061153D01*
X-504698Y-5047386D01*
X-498043Y-5032806D01*
X-493064Y-5017566D01*
X-489864Y-5001818D01*
X-488645Y-4987239D01*
X-487578Y-4983581D01*
X-485241Y-4980533D01*
X-481990Y-4978552D01*
X-478231Y-4977942D01*
X-474472Y-4978755D01*
X-471322Y-4980940D01*
X-373380Y-5078882D01*
X-371144Y-5082184D01*
X-370382Y-5086045D01*
X-370382Y-7808112D01*
X-371144Y-7812024D01*
X-373380Y-7815325D01*
X-649427Y-8091373D01*
X-655929Y-8098586D01*
X-657606Y-8100720D01*
X-663041Y-8108696D01*
X-664413Y-8111032D01*
X-668680Y-8119668D01*
X-669747Y-8122208D01*
X-672795Y-8131302D01*
X-673506Y-8133943D01*
X-675640Y-8146135D01*
X-676148Y-8155838D01*
X-676148Y-8200186D01*
X-676757Y-8203742D01*
X-678637Y-8206841D01*
X-681482Y-8209127D01*
X-686816Y-8211972D01*
X-692962Y-8217001D01*
X-697992Y-8223148D01*
X-701751Y-8230158D01*
X-704037Y-8237728D01*
X-704850Y-8246109D01*
X-704850Y-8402624D01*
X-704037Y-8411006D01*
X-701751Y-8418576D01*
X-697992Y-8425586D01*
X-692962Y-8431733D01*
X-686816Y-8436762D01*
X-679856Y-8440470D01*
X-672236Y-8442756D01*
G37*
G36*
X-2163978Y-8438794D02*
G01*
X-2131466Y-8438794D01*
X-2131466Y-8365236D01*
X-2204974Y-8365236D01*
X-2204974Y-8397798D01*
X-2204161Y-8406180D01*
X-2201875Y-8413750D01*
X-2198116Y-8420760D01*
X-2193086Y-8426907D01*
X-2186940Y-8431936D01*
X-2179980Y-8435644D01*
X-2172360Y-8437930D01*
G37*
G36*
X-2040026Y-8438794D02*
G01*
X-2007514Y-8438794D01*
X-1999132Y-8437930D01*
X-1991512Y-8435644D01*
X-1984502Y-8431936D01*
X-1978406Y-8426907D01*
X-1973376Y-8420760D01*
X-1969617Y-8413750D01*
X-1967331Y-8406180D01*
X-1966518Y-8397798D01*
X-1966518Y-8365236D01*
X-2040026Y-8365236D01*
G37*
G36*
X-2204974Y-8273796D02*
G01*
X-2131466Y-8273796D01*
X-2131466Y-8200288D01*
X-2163978Y-8200288D01*
X-2172360Y-8201101D01*
X-2179980Y-8203438D01*
X-2186940Y-8207146D01*
X-2193086Y-8212175D01*
X-2198116Y-8218322D01*
X-2201875Y-8225332D01*
X-2204161Y-8232902D01*
X-2204974Y-8241284D01*
G37*
G36*
X-2040026Y-8273796D02*
G01*
X-1966518Y-8273796D01*
X-1966518Y-8241284D01*
X-1967331Y-8232902D01*
X-1969617Y-8225332D01*
X-1973376Y-8218322D01*
X-1978406Y-8212175D01*
X-1984502Y-8207146D01*
X-1991512Y-8203438D01*
X-1999132Y-8201101D01*
X-2007514Y-8200288D01*
X-2040026Y-8200288D01*
G37*
G36*
X-7965846Y-8031784D02*
G01*
X-7949844Y-8030870D01*
X-7934045Y-8028127D01*
X-7918653Y-8023606D01*
X-7903870Y-8017357D01*
X-7889900Y-8009483D01*
X-7876895Y-8000034D01*
X-7865109Y-7989214D01*
X-7854594Y-7977073D01*
X-7845552Y-7963814D01*
X-7838033Y-7949641D01*
X-7832242Y-7934706D01*
X-7828127Y-7919212D01*
X-7825892Y-7903311D01*
X-7825435Y-7887258D01*
X-7826806Y-7871307D01*
X-7829956Y-7855559D01*
X-7834934Y-7840319D01*
X-7841589Y-7825740D01*
X-7849870Y-7811973D01*
X-7859674Y-7799273D01*
X-7870850Y-7787792D01*
X-7883245Y-7777632D01*
X-7896758Y-7768945D01*
X-7911134Y-7761884D01*
X-7926273Y-7756499D01*
X-7941868Y-7752842D01*
X-7957820Y-7751013D01*
X-7973872Y-7751013D01*
X-7989824Y-7752842D01*
X-8005419Y-7756499D01*
X-8020558Y-7761884D01*
X-8034934Y-7768945D01*
X-8048447Y-7777632D01*
X-8060842Y-7787792D01*
X-8072018Y-7799273D01*
X-8081822Y-7811973D01*
X-8090103Y-7825740D01*
X-8096758Y-7840319D01*
X-8101736Y-7855559D01*
X-8104886Y-7871307D01*
X-8106257Y-7887258D01*
X-8105800Y-7903311D01*
X-8103514Y-7919212D01*
X-8099450Y-7934706D01*
X-8093659Y-7949641D01*
X-8086140Y-7963814D01*
X-8077098Y-7977073D01*
X-8066582Y-7989214D01*
X-8054797Y-8000034D01*
X-8041792Y-8009483D01*
X-8027822Y-8017357D01*
X-8013039Y-8023606D01*
X-7997647Y-8028127D01*
X-7981848Y-8030870D01*
G37*
G36*
X-633272Y-7808518D02*
G01*
X-617220Y-7808518D01*
X-601268Y-7806690D01*
X-585673Y-7803083D01*
X-570534Y-7797698D01*
X-556158Y-7790586D01*
X-542645Y-7781950D01*
X-530250Y-7771790D01*
X-519074Y-7760258D01*
X-509270Y-7747558D01*
X-500989Y-7733842D01*
X-494334Y-7719263D01*
X-489356Y-7703972D01*
X-486206Y-7688275D01*
X-484835Y-7672273D01*
X-485292Y-7656271D01*
X-487527Y-7640370D01*
X-491642Y-7624876D01*
X-497433Y-7609890D01*
X-504951Y-7595717D01*
X-513994Y-7582509D01*
X-524510Y-7570368D01*
X-536295Y-7559497D01*
X-549300Y-7550099D01*
X-563270Y-7542225D01*
X-578053Y-7535976D01*
X-593445Y-7531455D01*
X-609244Y-7528712D01*
X-625246Y-7527798D01*
X-641248Y-7528712D01*
X-657047Y-7531455D01*
X-672439Y-7535976D01*
X-687222Y-7542225D01*
X-701192Y-7550099D01*
X-714197Y-7559497D01*
X-725982Y-7570368D01*
X-736498Y-7582509D01*
X-745540Y-7595717D01*
X-753059Y-7609890D01*
X-758850Y-7624876D01*
X-762914Y-7640370D01*
X-765200Y-7656271D01*
X-765657Y-7672273D01*
X-764286Y-7688275D01*
X-761136Y-7703972D01*
X-756158Y-7719263D01*
X-749503Y-7733842D01*
X-741222Y-7747558D01*
X-731418Y-7760258D01*
X-720242Y-7771790D01*
X-707847Y-7781950D01*
X-694334Y-7790586D01*
X-679958Y-7797698D01*
X-664819Y-7803083D01*
X-649224Y-7806690D01*
G37*
G36*
X-7909509Y-7428433D02*
G01*
X-7903870Y-7426045D01*
X-7889900Y-7418171D01*
X-7876895Y-7408722D01*
X-7865109Y-7397902D01*
X-7854594Y-7385761D01*
X-7845552Y-7372502D01*
X-7838033Y-7358329D01*
X-7837271Y-7356348D01*
X-7909509Y-7356348D01*
G37*
G36*
X-8022183Y-7428433D02*
G01*
X-8022183Y-7356348D01*
X-8094421Y-7356348D01*
X-8093608Y-7358329D01*
X-8086140Y-7372502D01*
X-8077098Y-7385761D01*
X-8066582Y-7397902D01*
X-8054797Y-7408722D01*
X-8041792Y-7418171D01*
X-8027822Y-7426045D01*
G37*
G36*
X-568909Y-7295997D02*
G01*
X-556158Y-7289698D01*
X-542645Y-7281062D01*
X-530250Y-7270902D01*
X-519074Y-7259370D01*
X-509270Y-7246670D01*
X-500989Y-7232954D01*
X-496773Y-7223759D01*
X-568909Y-7223759D01*
G37*
G36*
X-681583Y-7295997D02*
G01*
X-681583Y-7223759D01*
X-753719Y-7223759D01*
X-749503Y-7232954D01*
X-741222Y-7246670D01*
X-731418Y-7259370D01*
X-720242Y-7270902D01*
X-707847Y-7281062D01*
X-694334Y-7289698D01*
G37*
G36*
X-7909509Y-7243622D02*
G01*
X-7837373Y-7243622D01*
X-7841589Y-7234428D01*
X-7849870Y-7220661D01*
X-7859674Y-7207961D01*
X-7870850Y-7196480D01*
X-7883245Y-7186320D01*
X-7896758Y-7177633D01*
X-7909509Y-7171385D01*
G37*
G36*
X-8094319Y-7243622D02*
G01*
X-8022183Y-7243622D01*
X-8022183Y-7171385D01*
X-8034934Y-7177633D01*
X-8048447Y-7186320D01*
X-8060842Y-7196480D01*
X-8072018Y-7207961D01*
X-8081822Y-7220661D01*
X-8090103Y-7234428D01*
G37*
G36*
X-568909Y-7111034D02*
G01*
X-496671Y-7111034D01*
X-497433Y-7109002D01*
X-504951Y-7094829D01*
X-513994Y-7081621D01*
X-524510Y-7069480D01*
X-536295Y-7058609D01*
X-549300Y-7049211D01*
X-563270Y-7041337D01*
X-568909Y-7038949D01*
G37*
G36*
X-753821Y-7111034D02*
G01*
X-681583Y-7111034D01*
X-681583Y-7038949D01*
X-687222Y-7041337D01*
X-701192Y-7049211D01*
X-714197Y-7058609D01*
X-725982Y-7069480D01*
X-736498Y-7081621D01*
X-745540Y-7094829D01*
X-753008Y-7109002D01*
G37*
G36*
X-633272Y-6729018D02*
G01*
X-617220Y-6729018D01*
X-601268Y-6727190D01*
X-585673Y-6723583D01*
X-570534Y-6718198D01*
X-556158Y-6711086D01*
X-542645Y-6702450D01*
X-530250Y-6692290D01*
X-519074Y-6680758D01*
X-509270Y-6668058D01*
X-500989Y-6654342D01*
X-494334Y-6639763D01*
X-489356Y-6624472D01*
X-486206Y-6608775D01*
X-484835Y-6592773D01*
X-485292Y-6576771D01*
X-487527Y-6560870D01*
X-491642Y-6545376D01*
X-497433Y-6530390D01*
X-504951Y-6516217D01*
X-513994Y-6503009D01*
X-524510Y-6490868D01*
X-536295Y-6479997D01*
X-549300Y-6470599D01*
X-563270Y-6462725D01*
X-578053Y-6456476D01*
X-593445Y-6451955D01*
X-609244Y-6449212D01*
X-625246Y-6448298D01*
X-641248Y-6449212D01*
X-657047Y-6451955D01*
X-672439Y-6456476D01*
X-687222Y-6462725D01*
X-701192Y-6470599D01*
X-714197Y-6479997D01*
X-725982Y-6490868D01*
X-736498Y-6503009D01*
X-745540Y-6516217D01*
X-753059Y-6530390D01*
X-758850Y-6545376D01*
X-762914Y-6560870D01*
X-765200Y-6576771D01*
X-765657Y-6592773D01*
X-764286Y-6608775D01*
X-761136Y-6624472D01*
X-756158Y-6639763D01*
X-749503Y-6654342D01*
X-741222Y-6668058D01*
X-731418Y-6680758D01*
X-720242Y-6692290D01*
X-707847Y-6702450D01*
X-694334Y-6711086D01*
X-679958Y-6718198D01*
X-664819Y-6723583D01*
X-649224Y-6727190D01*
G37*
G36*
X-1647443Y-6443421D02*
G01*
X-1647443Y-6397244D01*
X-1693621Y-6397244D01*
X-1689303Y-6407861D01*
X-1683410Y-6417411D01*
X-1676146Y-6425946D01*
X-1667611Y-6433210D01*
X-1658061Y-6439103D01*
G37*
G36*
X-1603756Y-6443421D02*
G01*
X-1593138Y-6439103D01*
X-1583588Y-6433210D01*
X-1575054Y-6425946D01*
X-1567789Y-6417411D01*
X-1561896Y-6407861D01*
X-1557578Y-6397244D01*
X-1603756Y-6397244D01*
G37*
G36*
X-4441444Y-6430721D02*
G01*
X-4441444Y-6384544D01*
X-4487621Y-6384544D01*
X-4483303Y-6395161D01*
X-4477410Y-6404711D01*
X-4470146Y-6413246D01*
X-4461611Y-6420510D01*
X-4452061Y-6426403D01*
G37*
G36*
X-4397756Y-6430721D02*
G01*
X-4387138Y-6426403D01*
X-4377588Y-6420510D01*
X-4369054Y-6413246D01*
X-4361789Y-6404711D01*
X-4355896Y-6395161D01*
X-4351578Y-6384544D01*
X-4397756Y-6384544D01*
G37*
G36*
X-6892544Y-6430721D02*
G01*
X-6892544Y-6384544D01*
X-6938721Y-6384544D01*
X-6934403Y-6395161D01*
X-6928510Y-6404711D01*
X-6921246Y-6413246D01*
X-6912711Y-6420510D01*
X-6903161Y-6426403D01*
G37*
G36*
X-6848856Y-6430721D02*
G01*
X-6838238Y-6426403D01*
X-6828688Y-6420510D01*
X-6820153Y-6413246D01*
X-6812889Y-6404711D01*
X-6806996Y-6395161D01*
X-6802678Y-6384544D01*
X-6848856Y-6384544D01*
G37*
G36*
X-1693621Y-6353556D02*
G01*
X-1647443Y-6353556D01*
X-1647443Y-6307378D01*
X-1658061Y-6311696D01*
X-1667611Y-6317589D01*
X-1676146Y-6324854D01*
X-1683410Y-6333388D01*
X-1689303Y-6342938D01*
G37*
G36*
X-1603756Y-6353556D02*
G01*
X-1557578Y-6353556D01*
X-1561896Y-6342938D01*
X-1567789Y-6333388D01*
X-1575054Y-6324854D01*
X-1583588Y-6317589D01*
X-1593138Y-6311696D01*
X-1603756Y-6307378D01*
G37*
G36*
X-4487621Y-6340856D02*
G01*
X-4441444Y-6340856D01*
X-4441444Y-6294678D01*
X-4452061Y-6298996D01*
X-4461611Y-6304889D01*
X-4470146Y-6312154D01*
X-4477410Y-6320688D01*
X-4483303Y-6330238D01*
G37*
G36*
X-4397756Y-6340856D02*
G01*
X-4351578Y-6340856D01*
X-4355896Y-6330238D01*
X-4361789Y-6320688D01*
X-4369054Y-6312154D01*
X-4377588Y-6304889D01*
X-4387138Y-6298996D01*
X-4397756Y-6294678D01*
G37*
G36*
X-6938721Y-6340856D02*
G01*
X-6892544Y-6340856D01*
X-6892544Y-6294678D01*
X-6903161Y-6298996D01*
X-6912711Y-6304889D01*
X-6921246Y-6312154D01*
X-6928510Y-6320688D01*
X-6934403Y-6330238D01*
G37*
G36*
X-6848856Y-6340856D02*
G01*
X-6802678Y-6340856D01*
X-6806996Y-6330238D01*
X-6812889Y-6320688D01*
X-6820153Y-6312154D01*
X-6828688Y-6304889D01*
X-6838238Y-6298996D01*
X-6848856Y-6294678D01*
G37*
G36*
X-568909Y-6216497D02*
G01*
X-556158Y-6210198D01*
X-542645Y-6201562D01*
X-530250Y-6191402D01*
X-519074Y-6179870D01*
X-509270Y-6167170D01*
X-500989Y-6153454D01*
X-496773Y-6144260D01*
X-568909Y-6144260D01*
G37*
G36*
X-681583Y-6216497D02*
G01*
X-681583Y-6144260D01*
X-753719Y-6144260D01*
X-749503Y-6153454D01*
X-741222Y-6167170D01*
X-731418Y-6179870D01*
X-720242Y-6191402D01*
X-707847Y-6201562D01*
X-694334Y-6210198D01*
G37*
G36*
X-568909Y-6031534D02*
G01*
X-496671Y-6031534D01*
X-497433Y-6029502D01*
X-504951Y-6015329D01*
X-513994Y-6002121D01*
X-524510Y-5989980D01*
X-536295Y-5979109D01*
X-549300Y-5969711D01*
X-563270Y-5961837D01*
X-568909Y-5959449D01*
G37*
G36*
X-753821Y-6031534D02*
G01*
X-681583Y-6031534D01*
X-681583Y-5959449D01*
X-687222Y-5961837D01*
X-701192Y-5969711D01*
X-714197Y-5979109D01*
X-725982Y-5989980D01*
X-736498Y-6002121D01*
X-745540Y-6015329D01*
X-753059Y-6029502D01*
G37*
G36*
X-5424220Y-5782818D02*
G01*
X-5269179Y-5782818D01*
X-5260797Y-5782005D01*
X-5253228Y-5779719D01*
X-5246217Y-5775960D01*
X-5240070Y-5770930D01*
X-5235041Y-5764784D01*
X-5231333Y-5757824D01*
X-5228996Y-5750204D01*
X-5228183Y-5741822D01*
X-5228183Y-5586831D01*
X-5228996Y-5578449D01*
X-5231333Y-5570829D01*
X-5235041Y-5563819D01*
X-5240070Y-5557723D01*
X-5246217Y-5552694D01*
X-5253228Y-5548934D01*
X-5260797Y-5546648D01*
X-5269179Y-5545836D01*
X-5318455Y-5545836D01*
X-5322519Y-5544972D01*
X-5325922Y-5542534D01*
X-5328056Y-5538978D01*
X-5328564Y-5534812D01*
X-5327396Y-5530850D01*
X-5324703Y-5527649D01*
X-5320995Y-5525820D01*
X-5310073Y-5523026D01*
X-5296255Y-5517540D01*
X-5283200Y-5510377D01*
X-5271160Y-5501640D01*
X-5260340Y-5491429D01*
X-5250840Y-5479948D01*
X-5242864Y-5467400D01*
X-5236514Y-5453938D01*
X-5231942Y-5439765D01*
X-5229148Y-5425186D01*
X-5228183Y-5410301D01*
X-5229148Y-5395468D01*
X-5231942Y-5380837D01*
X-5236514Y-5366715D01*
X-5242864Y-5353253D01*
X-5250840Y-5340654D01*
X-5260340Y-5329224D01*
X-5271160Y-5319014D01*
X-5283200Y-5310276D01*
X-5296255Y-5303113D01*
X-5310073Y-5297627D01*
X-5324500Y-5293918D01*
X-5328666Y-5293410D01*
X-5332628Y-5292039D01*
X-5335676Y-5289245D01*
X-5337352Y-5285384D01*
X-5337352Y-5281218D01*
X-5335676Y-5277408D01*
X-5332628Y-5274614D01*
X-5328666Y-5273243D01*
X-5324500Y-5272735D01*
X-5310073Y-5269026D01*
X-5296255Y-5263540D01*
X-5283200Y-5256377D01*
X-5271160Y-5247640D01*
X-5260340Y-5237429D01*
X-5250840Y-5225948D01*
X-5242864Y-5213400D01*
X-5236514Y-5199938D01*
X-5231942Y-5185765D01*
X-5229148Y-5171186D01*
X-5228183Y-5156301D01*
X-5229148Y-5141468D01*
X-5231942Y-5126837D01*
X-5236514Y-5112715D01*
X-5242864Y-5099253D01*
X-5250840Y-5086654D01*
X-5260340Y-5075224D01*
X-5271160Y-5065014D01*
X-5283200Y-5056276D01*
X-5296255Y-5049113D01*
X-5310073Y-5043627D01*
X-5324500Y-5039918D01*
X-5328666Y-5039410D01*
X-5332628Y-5038039D01*
X-5335676Y-5035245D01*
X-5337352Y-5031384D01*
X-5337352Y-5027218D01*
X-5335676Y-5023408D01*
X-5332628Y-5020614D01*
X-5328666Y-5019243D01*
X-5324500Y-5018735D01*
X-5310073Y-5015026D01*
X-5296255Y-5009540D01*
X-5283200Y-5002377D01*
X-5271160Y-4993640D01*
X-5260340Y-4983429D01*
X-5250840Y-4971948D01*
X-5242864Y-4959400D01*
X-5236514Y-4945938D01*
X-5231942Y-4931765D01*
X-5229148Y-4917186D01*
X-5228183Y-4902301D01*
X-5229148Y-4887468D01*
X-5231942Y-4872837D01*
X-5236514Y-4858715D01*
X-5242864Y-4845253D01*
X-5250840Y-4832654D01*
X-5260340Y-4821224D01*
X-5271160Y-4811014D01*
X-5283200Y-4802276D01*
X-5296255Y-4795113D01*
X-5310073Y-4789627D01*
X-5324500Y-4785918D01*
X-5328666Y-4785410D01*
X-5332628Y-4784039D01*
X-5335676Y-4781245D01*
X-5337352Y-4777384D01*
X-5337352Y-4773218D01*
X-5335676Y-4769408D01*
X-5332628Y-4766614D01*
X-5328666Y-4765243D01*
X-5324500Y-4764735D01*
X-5310073Y-4761026D01*
X-5296255Y-4755540D01*
X-5283200Y-4748377D01*
X-5271160Y-4739640D01*
X-5260340Y-4729429D01*
X-5250840Y-4717948D01*
X-5242864Y-4705400D01*
X-5236514Y-4691938D01*
X-5231942Y-4677765D01*
X-5229148Y-4663186D01*
X-5228183Y-4648301D01*
X-5229148Y-4633468D01*
X-5231942Y-4618837D01*
X-5236514Y-4604715D01*
X-5242864Y-4591253D01*
X-5250840Y-4578654D01*
X-5260340Y-4567224D01*
X-5271160Y-4557014D01*
X-5283200Y-4548276D01*
X-5296255Y-4541113D01*
X-5310073Y-4535627D01*
X-5324500Y-4531918D01*
X-5328666Y-4531410D01*
X-5332628Y-4530039D01*
X-5335676Y-4527245D01*
X-5337352Y-4523384D01*
X-5337352Y-4519218D01*
X-5335676Y-4515408D01*
X-5332628Y-4512614D01*
X-5328666Y-4511243D01*
X-5324500Y-4510735D01*
X-5310073Y-4507026D01*
X-5296255Y-4501540D01*
X-5283200Y-4494377D01*
X-5271160Y-4485640D01*
X-5260340Y-4475429D01*
X-5250840Y-4463948D01*
X-5242864Y-4451400D01*
X-5236514Y-4437938D01*
X-5231942Y-4423765D01*
X-5229148Y-4409186D01*
X-5228183Y-4394301D01*
X-5229148Y-4379468D01*
X-5231942Y-4364837D01*
X-5236514Y-4350715D01*
X-5242864Y-4337253D01*
X-5250840Y-4324654D01*
X-5260340Y-4313224D01*
X-5271160Y-4303014D01*
X-5283200Y-4294276D01*
X-5296255Y-4287113D01*
X-5310073Y-4281627D01*
X-5324500Y-4277918D01*
X-5328666Y-4277410D01*
X-5332628Y-4276039D01*
X-5335676Y-4273245D01*
X-5337352Y-4269384D01*
X-5337352Y-4265218D01*
X-5335676Y-4261408D01*
X-5332628Y-4258614D01*
X-5328666Y-4257243D01*
X-5324500Y-4256735D01*
X-5310073Y-4253026D01*
X-5296255Y-4247540D01*
X-5283200Y-4240377D01*
X-5271160Y-4231640D01*
X-5260340Y-4221429D01*
X-5250840Y-4209948D01*
X-5242864Y-4197400D01*
X-5236514Y-4183938D01*
X-5231942Y-4169765D01*
X-5229148Y-4155186D01*
X-5228183Y-4140301D01*
X-5229148Y-4125468D01*
X-5231942Y-4110837D01*
X-5236514Y-4096715D01*
X-5242864Y-4083253D01*
X-5250840Y-4070654D01*
X-5260340Y-4059224D01*
X-5271160Y-4049014D01*
X-5283200Y-4040276D01*
X-5296255Y-4033113D01*
X-5310073Y-4027627D01*
X-5324500Y-4023918D01*
X-5328666Y-4023410D01*
X-5332628Y-4022039D01*
X-5335676Y-4019245D01*
X-5337352Y-4015384D01*
X-5337352Y-4011218D01*
X-5335676Y-4007408D01*
X-5332628Y-4004614D01*
X-5328666Y-4003243D01*
X-5324500Y-4002735D01*
X-5310073Y-3999026D01*
X-5296255Y-3993540D01*
X-5283200Y-3986377D01*
X-5271160Y-3977640D01*
X-5260340Y-3967429D01*
X-5250840Y-3955948D01*
X-5242864Y-3943400D01*
X-5236514Y-3929938D01*
X-5231942Y-3915765D01*
X-5229148Y-3901186D01*
X-5228183Y-3886301D01*
X-5229148Y-3871468D01*
X-5231942Y-3856837D01*
X-5236514Y-3842715D01*
X-5242864Y-3829253D01*
X-5250840Y-3816654D01*
X-5260340Y-3805224D01*
X-5271160Y-3795014D01*
X-5283200Y-3786276D01*
X-5296255Y-3779113D01*
X-5310073Y-3773627D01*
X-5324500Y-3769918D01*
X-5328666Y-3769410D01*
X-5332628Y-3768039D01*
X-5335676Y-3765245D01*
X-5337352Y-3761384D01*
X-5337352Y-3757218D01*
X-5335676Y-3753408D01*
X-5332628Y-3750614D01*
X-5328666Y-3749243D01*
X-5324500Y-3748735D01*
X-5310073Y-3745026D01*
X-5296255Y-3739540D01*
X-5283200Y-3732377D01*
X-5271160Y-3723640D01*
X-5260340Y-3713429D01*
X-5250840Y-3701948D01*
X-5242864Y-3689400D01*
X-5236514Y-3675938D01*
X-5231942Y-3661765D01*
X-5229148Y-3647186D01*
X-5228183Y-3632301D01*
X-5229148Y-3617468D01*
X-5231942Y-3602837D01*
X-5236514Y-3588715D01*
X-5242864Y-3575253D01*
X-5250840Y-3562654D01*
X-5260340Y-3551224D01*
X-5271160Y-3541014D01*
X-5283200Y-3532276D01*
X-5296255Y-3525113D01*
X-5310073Y-3519627D01*
X-5324500Y-3515918D01*
X-5328666Y-3515410D01*
X-5332628Y-3514039D01*
X-5335676Y-3511245D01*
X-5337352Y-3507384D01*
X-5337352Y-3503218D01*
X-5335676Y-3499408D01*
X-5332628Y-3496614D01*
X-5328666Y-3495243D01*
X-5324500Y-3494735D01*
X-5310073Y-3491026D01*
X-5296255Y-3485540D01*
X-5283200Y-3478377D01*
X-5271160Y-3469640D01*
X-5260340Y-3459429D01*
X-5250840Y-3447948D01*
X-5242864Y-3435400D01*
X-5236514Y-3421938D01*
X-5231942Y-3407765D01*
X-5229148Y-3393186D01*
X-5228183Y-3378301D01*
X-5229148Y-3363468D01*
X-5231942Y-3348837D01*
X-5236514Y-3334715D01*
X-5242864Y-3321253D01*
X-5250840Y-3308654D01*
X-5260340Y-3297224D01*
X-5271160Y-3287014D01*
X-5283200Y-3278276D01*
X-5296255Y-3271113D01*
X-5310073Y-3265627D01*
X-5324500Y-3261918D01*
X-5328666Y-3261410D01*
X-5332628Y-3260039D01*
X-5335676Y-3257245D01*
X-5337352Y-3253384D01*
X-5337352Y-3249218D01*
X-5335676Y-3245408D01*
X-5332628Y-3242614D01*
X-5328666Y-3241243D01*
X-5324500Y-3240735D01*
X-5310073Y-3237026D01*
X-5296255Y-3231540D01*
X-5283200Y-3224377D01*
X-5271160Y-3215640D01*
X-5260340Y-3205429D01*
X-5250840Y-3193948D01*
X-5242864Y-3181400D01*
X-5236514Y-3167938D01*
X-5231942Y-3153765D01*
X-5229148Y-3139186D01*
X-5228183Y-3124301D01*
X-5229148Y-3109468D01*
X-5231942Y-3094837D01*
X-5236514Y-3080715D01*
X-5242864Y-3067253D01*
X-5250840Y-3054654D01*
X-5260340Y-3043224D01*
X-5271160Y-3033014D01*
X-5283200Y-3024276D01*
X-5296255Y-3017113D01*
X-5310073Y-3011627D01*
X-5324500Y-3007918D01*
X-5328666Y-3007410D01*
X-5332628Y-3006039D01*
X-5335676Y-3003245D01*
X-5337352Y-2999384D01*
X-5337352Y-2995218D01*
X-5335676Y-2991408D01*
X-5332628Y-2988614D01*
X-5328666Y-2987243D01*
X-5324500Y-2986735D01*
X-5310073Y-2983026D01*
X-5296255Y-2977540D01*
X-5283200Y-2970377D01*
X-5271160Y-2961640D01*
X-5260340Y-2951429D01*
X-5250840Y-2939948D01*
X-5242864Y-2927400D01*
X-5236514Y-2913938D01*
X-5231942Y-2899765D01*
X-5229148Y-2885186D01*
X-5228183Y-2870301D01*
X-5229148Y-2855468D01*
X-5231942Y-2840837D01*
X-5236514Y-2826715D01*
X-5242864Y-2813253D01*
X-5250840Y-2800654D01*
X-5260340Y-2789224D01*
X-5271160Y-2779014D01*
X-5283200Y-2770276D01*
X-5296255Y-2763113D01*
X-5310073Y-2757627D01*
X-5324500Y-2753918D01*
X-5328666Y-2753410D01*
X-5332628Y-2752039D01*
X-5335676Y-2749245D01*
X-5337352Y-2745384D01*
X-5337352Y-2741218D01*
X-5335676Y-2737408D01*
X-5332628Y-2734614D01*
X-5328666Y-2733243D01*
X-5324500Y-2732735D01*
X-5310073Y-2729026D01*
X-5296255Y-2723540D01*
X-5283200Y-2716377D01*
X-5271160Y-2707640D01*
X-5260340Y-2697429D01*
X-5250840Y-2685948D01*
X-5242864Y-2673400D01*
X-5236514Y-2659938D01*
X-5231942Y-2645765D01*
X-5229148Y-2631186D01*
X-5228183Y-2616301D01*
X-5229148Y-2601468D01*
X-5231942Y-2586837D01*
X-5236514Y-2572715D01*
X-5242864Y-2559253D01*
X-5250840Y-2546654D01*
X-5260340Y-2535224D01*
X-5271160Y-2525014D01*
X-5283200Y-2516276D01*
X-5296255Y-2509113D01*
X-5310073Y-2503627D01*
X-5324500Y-2499918D01*
X-5339283Y-2498090D01*
X-5354116Y-2498090D01*
X-5368899Y-2499918D01*
X-5383326Y-2503627D01*
X-5397144Y-2509113D01*
X-5410200Y-2516276D01*
X-5422239Y-2525014D01*
X-5433060Y-2535224D01*
X-5442559Y-2546654D01*
X-5450535Y-2559253D01*
X-5456885Y-2572715D01*
X-5461457Y-2586837D01*
X-5464251Y-2601468D01*
X-5465216Y-2616301D01*
X-5464251Y-2631186D01*
X-5461457Y-2645765D01*
X-5456885Y-2659938D01*
X-5450535Y-2673400D01*
X-5442559Y-2685948D01*
X-5433060Y-2697429D01*
X-5422239Y-2707640D01*
X-5410200Y-2716377D01*
X-5397144Y-2723540D01*
X-5383326Y-2729026D01*
X-5368899Y-2732735D01*
X-5364734Y-2733243D01*
X-5360771Y-2734614D01*
X-5357723Y-2737408D01*
X-5356047Y-2741218D01*
X-5356047Y-2745384D01*
X-5357723Y-2749245D01*
X-5360771Y-2752039D01*
X-5364734Y-2753410D01*
X-5368899Y-2753918D01*
X-5383326Y-2757627D01*
X-5397144Y-2763113D01*
X-5410200Y-2770276D01*
X-5422239Y-2779014D01*
X-5433060Y-2789224D01*
X-5442559Y-2800654D01*
X-5450535Y-2813253D01*
X-5456885Y-2826715D01*
X-5461457Y-2840837D01*
X-5464251Y-2855468D01*
X-5465216Y-2870301D01*
X-5464251Y-2885186D01*
X-5461457Y-2899765D01*
X-5456885Y-2913938D01*
X-5450535Y-2927400D01*
X-5442559Y-2939948D01*
X-5433060Y-2951429D01*
X-5422239Y-2961640D01*
X-5410200Y-2970377D01*
X-5397144Y-2977540D01*
X-5383326Y-2983026D01*
X-5368899Y-2986735D01*
X-5364734Y-2987243D01*
X-5360771Y-2988614D01*
X-5357723Y-2991408D01*
X-5356047Y-2995218D01*
X-5356047Y-2999384D01*
X-5357723Y-3003245D01*
X-5360771Y-3006039D01*
X-5364734Y-3007410D01*
X-5368899Y-3007918D01*
X-5383326Y-3011627D01*
X-5397144Y-3017113D01*
X-5410200Y-3024276D01*
X-5422239Y-3033014D01*
X-5433060Y-3043224D01*
X-5442559Y-3054654D01*
X-5450535Y-3067253D01*
X-5456885Y-3080715D01*
X-5461457Y-3094837D01*
X-5464251Y-3109468D01*
X-5465216Y-3124301D01*
X-5464251Y-3139186D01*
X-5461457Y-3153765D01*
X-5456885Y-3167938D01*
X-5450535Y-3181400D01*
X-5442559Y-3193948D01*
X-5433060Y-3205429D01*
X-5422239Y-3215640D01*
X-5410200Y-3224377D01*
X-5397144Y-3231540D01*
X-5383326Y-3237026D01*
X-5368899Y-3240735D01*
X-5364734Y-3241243D01*
X-5360771Y-3242614D01*
X-5357723Y-3245408D01*
X-5356047Y-3249218D01*
X-5356047Y-3253384D01*
X-5357723Y-3257245D01*
X-5360771Y-3260039D01*
X-5364734Y-3261410D01*
X-5368899Y-3261918D01*
X-5383326Y-3265627D01*
X-5397144Y-3271113D01*
X-5410200Y-3278276D01*
X-5422239Y-3287014D01*
X-5433060Y-3297224D01*
X-5442559Y-3308654D01*
X-5450535Y-3321253D01*
X-5456885Y-3334715D01*
X-5461457Y-3348837D01*
X-5464251Y-3363468D01*
X-5465216Y-3378301D01*
X-5464251Y-3393186D01*
X-5461457Y-3407765D01*
X-5456885Y-3421938D01*
X-5450535Y-3435400D01*
X-5442559Y-3447948D01*
X-5433060Y-3459429D01*
X-5422239Y-3469640D01*
X-5410200Y-3478377D01*
X-5397144Y-3485540D01*
X-5383326Y-3491026D01*
X-5368899Y-3494735D01*
X-5364734Y-3495243D01*
X-5360771Y-3496614D01*
X-5357723Y-3499408D01*
X-5356047Y-3503218D01*
X-5356047Y-3507384D01*
X-5357723Y-3511245D01*
X-5360771Y-3514039D01*
X-5364734Y-3515410D01*
X-5368899Y-3515918D01*
X-5383326Y-3519627D01*
X-5397144Y-3525113D01*
X-5410200Y-3532276D01*
X-5422239Y-3541014D01*
X-5433060Y-3551224D01*
X-5442559Y-3562654D01*
X-5450535Y-3575253D01*
X-5456885Y-3588715D01*
X-5461457Y-3602837D01*
X-5464251Y-3617468D01*
X-5465216Y-3632301D01*
X-5464251Y-3647186D01*
X-5461457Y-3661765D01*
X-5456885Y-3675938D01*
X-5450535Y-3689400D01*
X-5442559Y-3701948D01*
X-5433060Y-3713429D01*
X-5422239Y-3723640D01*
X-5410200Y-3732377D01*
X-5397144Y-3739540D01*
X-5383326Y-3745026D01*
X-5368899Y-3748735D01*
X-5364734Y-3749243D01*
X-5360771Y-3750614D01*
X-5357723Y-3753408D01*
X-5356047Y-3757218D01*
X-5356047Y-3761384D01*
X-5357723Y-3765245D01*
X-5360771Y-3768039D01*
X-5364734Y-3769410D01*
X-5368899Y-3769918D01*
X-5383326Y-3773627D01*
X-5397144Y-3779113D01*
X-5410200Y-3786276D01*
X-5422239Y-3795014D01*
X-5433060Y-3805224D01*
X-5442559Y-3816654D01*
X-5450535Y-3829253D01*
X-5456885Y-3842715D01*
X-5461457Y-3856837D01*
X-5464251Y-3871468D01*
X-5465216Y-3886301D01*
X-5464251Y-3901186D01*
X-5461457Y-3915765D01*
X-5456885Y-3929938D01*
X-5450535Y-3943400D01*
X-5442559Y-3955948D01*
X-5433060Y-3967429D01*
X-5422239Y-3977640D01*
X-5410200Y-3986377D01*
X-5397144Y-3993540D01*
X-5383326Y-3999026D01*
X-5368899Y-4002735D01*
X-5364734Y-4003243D01*
X-5360771Y-4004614D01*
X-5357723Y-4007408D01*
X-5356047Y-4011218D01*
X-5356047Y-4015384D01*
X-5357723Y-4019245D01*
X-5360771Y-4022039D01*
X-5364734Y-4023410D01*
X-5368899Y-4023918D01*
X-5383326Y-4027627D01*
X-5397144Y-4033113D01*
X-5410200Y-4040276D01*
X-5422239Y-4049014D01*
X-5433060Y-4059224D01*
X-5442559Y-4070654D01*
X-5450535Y-4083253D01*
X-5456885Y-4096715D01*
X-5461457Y-4110837D01*
X-5464251Y-4125468D01*
X-5465216Y-4140301D01*
X-5464251Y-4155186D01*
X-5461457Y-4169765D01*
X-5456885Y-4183938D01*
X-5450535Y-4197400D01*
X-5442559Y-4209948D01*
X-5433060Y-4221429D01*
X-5422239Y-4231640D01*
X-5410200Y-4240377D01*
X-5397144Y-4247540D01*
X-5383326Y-4253026D01*
X-5368899Y-4256735D01*
X-5364734Y-4257243D01*
X-5360771Y-4258614D01*
X-5357723Y-4261408D01*
X-5356047Y-4265218D01*
X-5356047Y-4269384D01*
X-5357723Y-4273245D01*
X-5360771Y-4276039D01*
X-5364734Y-4277410D01*
X-5368899Y-4277918D01*
X-5383326Y-4281627D01*
X-5397144Y-4287113D01*
X-5410200Y-4294276D01*
X-5422239Y-4303014D01*
X-5433060Y-4313224D01*
X-5442559Y-4324654D01*
X-5450535Y-4337253D01*
X-5456885Y-4350715D01*
X-5461457Y-4364837D01*
X-5464251Y-4379468D01*
X-5465216Y-4394301D01*
X-5464251Y-4409186D01*
X-5461457Y-4423765D01*
X-5456885Y-4437938D01*
X-5450535Y-4451400D01*
X-5442559Y-4463948D01*
X-5433060Y-4475429D01*
X-5422239Y-4485640D01*
X-5410200Y-4494377D01*
X-5397144Y-4501540D01*
X-5383326Y-4507026D01*
X-5368899Y-4510735D01*
X-5364734Y-4511243D01*
X-5360771Y-4512614D01*
X-5357723Y-4515408D01*
X-5356047Y-4519218D01*
X-5356047Y-4523384D01*
X-5357723Y-4527245D01*
X-5360771Y-4530039D01*
X-5364734Y-4531410D01*
X-5368899Y-4531918D01*
X-5383326Y-4535627D01*
X-5397144Y-4541113D01*
X-5410200Y-4548276D01*
X-5422239Y-4557014D01*
X-5433060Y-4567224D01*
X-5442559Y-4578654D01*
X-5450535Y-4591253D01*
X-5456885Y-4604715D01*
X-5461457Y-4618837D01*
X-5464251Y-4633468D01*
X-5465216Y-4648301D01*
X-5464251Y-4663186D01*
X-5461457Y-4677765D01*
X-5456885Y-4691938D01*
X-5450535Y-4705400D01*
X-5442559Y-4717948D01*
X-5433060Y-4729429D01*
X-5422239Y-4739640D01*
X-5410200Y-4748377D01*
X-5397144Y-4755540D01*
X-5383326Y-4761026D01*
X-5368899Y-4764735D01*
X-5364734Y-4765243D01*
X-5360771Y-4766614D01*
X-5357723Y-4769408D01*
X-5356047Y-4773218D01*
X-5356047Y-4777384D01*
X-5357723Y-4781245D01*
X-5360771Y-4784039D01*
X-5364734Y-4785410D01*
X-5368899Y-4785918D01*
X-5383326Y-4789627D01*
X-5397144Y-4795113D01*
X-5410200Y-4802276D01*
X-5422239Y-4811014D01*
X-5433060Y-4821224D01*
X-5442559Y-4832654D01*
X-5450535Y-4845253D01*
X-5456885Y-4858715D01*
X-5461457Y-4872837D01*
X-5464251Y-4887468D01*
X-5465216Y-4902301D01*
X-5464251Y-4917186D01*
X-5461457Y-4931765D01*
X-5456885Y-4945938D01*
X-5450535Y-4959400D01*
X-5442559Y-4971948D01*
X-5433060Y-4983429D01*
X-5422239Y-4993640D01*
X-5410200Y-5002377D01*
X-5397144Y-5009540D01*
X-5383326Y-5015026D01*
X-5368899Y-5018735D01*
X-5364734Y-5019243D01*
X-5360771Y-5020614D01*
X-5357723Y-5023408D01*
X-5356047Y-5027218D01*
X-5356047Y-5031384D01*
X-5357723Y-5035245D01*
X-5360771Y-5038039D01*
X-5364734Y-5039410D01*
X-5368899Y-5039918D01*
X-5383326Y-5043627D01*
X-5397144Y-5049113D01*
X-5410200Y-5056276D01*
X-5422239Y-5065014D01*
X-5433060Y-5075224D01*
X-5442559Y-5086654D01*
X-5450535Y-5099253D01*
X-5456885Y-5112715D01*
X-5461457Y-5126837D01*
X-5464251Y-5141468D01*
X-5465216Y-5156301D01*
X-5464251Y-5171186D01*
X-5461457Y-5185765D01*
X-5456885Y-5199938D01*
X-5450535Y-5213400D01*
X-5442559Y-5225948D01*
X-5433060Y-5237429D01*
X-5422239Y-5247640D01*
X-5410200Y-5256377D01*
X-5397144Y-5263540D01*
X-5383326Y-5269026D01*
X-5368899Y-5272735D01*
X-5364734Y-5273243D01*
X-5360771Y-5274614D01*
X-5357723Y-5277408D01*
X-5356047Y-5281218D01*
X-5356047Y-5285384D01*
X-5357723Y-5289245D01*
X-5360771Y-5292039D01*
X-5364734Y-5293410D01*
X-5368899Y-5293918D01*
X-5383326Y-5297627D01*
X-5397144Y-5303113D01*
X-5410200Y-5310276D01*
X-5422239Y-5319014D01*
X-5433060Y-5329224D01*
X-5442559Y-5340654D01*
X-5450535Y-5353253D01*
X-5456885Y-5366715D01*
X-5461457Y-5380837D01*
X-5464251Y-5395468D01*
X-5465216Y-5410301D01*
X-5464251Y-5425186D01*
X-5461457Y-5439765D01*
X-5456885Y-5453938D01*
X-5450535Y-5467400D01*
X-5442559Y-5479948D01*
X-5433060Y-5491429D01*
X-5422239Y-5501640D01*
X-5410200Y-5510377D01*
X-5397144Y-5517540D01*
X-5383326Y-5523026D01*
X-5372404Y-5525820D01*
X-5368696Y-5527649D01*
X-5366004Y-5530850D01*
X-5364835Y-5534812D01*
X-5365343Y-5538978D01*
X-5367477Y-5542534D01*
X-5370880Y-5544972D01*
X-5374944Y-5545836D01*
X-5424220Y-5545836D01*
X-5432602Y-5546648D01*
X-5440172Y-5548934D01*
X-5447182Y-5552694D01*
X-5453329Y-5557723D01*
X-5458358Y-5563819D01*
X-5462066Y-5570829D01*
X-5464403Y-5578449D01*
X-5465216Y-5586831D01*
X-5465216Y-5741822D01*
X-5464403Y-5750204D01*
X-5462066Y-5757824D01*
X-5458358Y-5764784D01*
X-5453329Y-5770930D01*
X-5447182Y-5775960D01*
X-5440172Y-5779719D01*
X-5432602Y-5782005D01*
G37*
G36*
X-4846116Y-5782462D02*
G01*
X-4831232Y-5782462D01*
X-4816500Y-5780582D01*
X-4802073Y-5776874D01*
X-4788255Y-5771388D01*
X-4775200Y-5764225D01*
X-4763160Y-5755487D01*
X-4752340Y-5745327D01*
X-4742840Y-5733846D01*
X-4734864Y-5721299D01*
X-4728514Y-5707786D01*
X-4723942Y-5693664D01*
X-4721148Y-5679033D01*
X-4720234Y-5664200D01*
X-4721148Y-5649366D01*
X-4723942Y-5634736D01*
X-4728514Y-5620562D01*
X-4734864Y-5607100D01*
X-4742840Y-5594553D01*
X-4752340Y-5583072D01*
X-4763160Y-5572912D01*
X-4775200Y-5564174D01*
X-4788255Y-5556961D01*
X-4798314Y-5552998D01*
X-4801717Y-5550814D01*
X-4803952Y-5547461D01*
X-4804765Y-5543550D01*
X-4803952Y-5539587D01*
X-4801717Y-5536285D01*
X-4798314Y-5534101D01*
X-4788255Y-5530088D01*
X-4775200Y-5522925D01*
X-4763160Y-5514187D01*
X-4752340Y-5504027D01*
X-4742840Y-5492546D01*
X-4734864Y-5479999D01*
X-4728514Y-5466486D01*
X-4723942Y-5452364D01*
X-4721148Y-5437733D01*
X-4720234Y-5422900D01*
X-4721148Y-5408066D01*
X-4723942Y-5393436D01*
X-4728514Y-5379262D01*
X-4734864Y-5365800D01*
X-4742840Y-5353253D01*
X-4752340Y-5341772D01*
X-4763160Y-5331612D01*
X-4775200Y-5322874D01*
X-4788255Y-5315661D01*
X-4802073Y-5310225D01*
X-4816500Y-5306517D01*
X-4820716Y-5305958D01*
X-4824628Y-5304637D01*
X-4827676Y-5301792D01*
X-4829352Y-5297982D01*
X-4829352Y-5293817D01*
X-4827676Y-5290007D01*
X-4824628Y-5287162D01*
X-4820716Y-5285790D01*
X-4816500Y-5285282D01*
X-4802073Y-5281574D01*
X-4788255Y-5276088D01*
X-4775200Y-5268925D01*
X-4763160Y-5260187D01*
X-4752340Y-5250027D01*
X-4742840Y-5238546D01*
X-4734864Y-5225999D01*
X-4728514Y-5212486D01*
X-4723942Y-5198364D01*
X-4721148Y-5183733D01*
X-4720234Y-5168900D01*
X-4721148Y-5154066D01*
X-4723942Y-5139436D01*
X-4728514Y-5125262D01*
X-4734864Y-5111800D01*
X-4742840Y-5099253D01*
X-4752340Y-5087772D01*
X-4763160Y-5077612D01*
X-4775200Y-5068874D01*
X-4788255Y-5061661D01*
X-4802073Y-5056225D01*
X-4816500Y-5052517D01*
X-4831232Y-5050637D01*
X-4846116Y-5050637D01*
X-4860899Y-5052517D01*
X-4875326Y-5056225D01*
X-4889144Y-5061661D01*
X-4902200Y-5068874D01*
X-4914239Y-5077612D01*
X-4925060Y-5087772D01*
X-4934559Y-5099253D01*
X-4942535Y-5111800D01*
X-4948885Y-5125262D01*
X-4953457Y-5139436D01*
X-4956251Y-5154066D01*
X-4957165Y-5168900D01*
X-4956251Y-5183733D01*
X-4953457Y-5198364D01*
X-4948885Y-5212486D01*
X-4942535Y-5225999D01*
X-4934559Y-5238546D01*
X-4925060Y-5250027D01*
X-4914239Y-5260187D01*
X-4902200Y-5268925D01*
X-4889144Y-5276088D01*
X-4875326Y-5281574D01*
X-4860899Y-5285282D01*
X-4856683Y-5285790D01*
X-4852771Y-5287162D01*
X-4849672Y-5290007D01*
X-4848047Y-5293817D01*
X-4848047Y-5297982D01*
X-4849672Y-5301792D01*
X-4852771Y-5304637D01*
X-4856683Y-5305958D01*
X-4860899Y-5306517D01*
X-4875326Y-5310225D01*
X-4889144Y-5315661D01*
X-4902200Y-5322874D01*
X-4914239Y-5331612D01*
X-4925060Y-5341772D01*
X-4934559Y-5353253D01*
X-4942535Y-5365800D01*
X-4948885Y-5379262D01*
X-4953457Y-5393436D01*
X-4956251Y-5408066D01*
X-4957165Y-5422900D01*
X-4956251Y-5437733D01*
X-4953457Y-5452364D01*
X-4948885Y-5466486D01*
X-4942535Y-5479999D01*
X-4934559Y-5492546D01*
X-4925060Y-5504027D01*
X-4914239Y-5514187D01*
X-4902200Y-5522925D01*
X-4889144Y-5530088D01*
X-4879086Y-5534101D01*
X-4875682Y-5536285D01*
X-4873447Y-5539587D01*
X-4872634Y-5543550D01*
X-4873447Y-5547461D01*
X-4875682Y-5550814D01*
X-4879086Y-5552998D01*
X-4889144Y-5556961D01*
X-4902200Y-5564174D01*
X-4914239Y-5572912D01*
X-4925060Y-5583072D01*
X-4934559Y-5594553D01*
X-4942535Y-5607100D01*
X-4948885Y-5620562D01*
X-4953457Y-5634736D01*
X-4956251Y-5649366D01*
X-4957165Y-5664200D01*
X-4956251Y-5679033D01*
X-4953457Y-5693664D01*
X-4948885Y-5707786D01*
X-4942535Y-5721299D01*
X-4934559Y-5733846D01*
X-4925060Y-5745327D01*
X-4914239Y-5755487D01*
X-4902200Y-5764225D01*
X-4889144Y-5771388D01*
X-4875326Y-5776874D01*
X-4860899Y-5780582D01*
G37*
G36*
X-7841335Y-5773572D02*
G01*
X-7836255Y-5771540D01*
X-7823200Y-5764377D01*
X-7811160Y-5755640D01*
X-7800340Y-5745429D01*
X-7790840Y-5733948D01*
X-7782864Y-5721400D01*
X-7777327Y-5709666D01*
X-7841335Y-5709666D01*
G37*
G36*
X-8440064Y-5773420D02*
G01*
X-8440064Y-5709564D01*
X-8504072Y-5709564D01*
X-8498535Y-5721299D01*
X-8490559Y-5733846D01*
X-8481060Y-5745327D01*
X-8470239Y-5755487D01*
X-8458200Y-5764225D01*
X-8445144Y-5771388D01*
G37*
G36*
X-8349335Y-5773420D02*
G01*
X-8344255Y-5771388D01*
X-8331200Y-5764225D01*
X-8319160Y-5755487D01*
X-8308340Y-5745327D01*
X-8298840Y-5733846D01*
X-8290864Y-5721299D01*
X-8285327Y-5709564D01*
X-8349335Y-5709564D01*
G37*
G36*
X-636981Y-5630113D02*
G01*
X-620928Y-5630113D01*
X-604977Y-5628284D01*
X-589381Y-5624626D01*
X-574243Y-5619242D01*
X-559866Y-5612180D01*
X-546354Y-5603494D01*
X-533958Y-5593334D01*
X-522782Y-5581853D01*
X-512978Y-5569153D01*
X-504698Y-5555386D01*
X-498043Y-5540806D01*
X-493064Y-5525566D01*
X-489864Y-5509818D01*
X-488492Y-5493867D01*
X-488950Y-5477814D01*
X-491235Y-5461914D01*
X-495300Y-5446420D01*
X-501142Y-5431485D01*
X-508609Y-5417312D01*
X-517702Y-5404053D01*
X-528167Y-5391912D01*
X-540004Y-5381091D01*
X-553008Y-5371642D01*
X-566928Y-5363768D01*
X-581710Y-5357520D01*
X-597103Y-5352999D01*
X-612902Y-5350256D01*
X-628954Y-5349341D01*
X-644956Y-5350256D01*
X-648055Y-5350814D01*
X-651256Y-5350814D01*
X-654354Y-5349849D01*
X-656945Y-5347970D01*
X-1780590Y-4224324D01*
X-1782775Y-4221022D01*
X-1783588Y-4217162D01*
X-1783588Y-3915105D01*
X-1784502Y-3902760D01*
X-1787194Y-3891026D01*
X-1791563Y-3879850D01*
X-1797608Y-3869436D01*
X-1805076Y-3859987D01*
X-1813915Y-3851808D01*
X-1823821Y-3845051D01*
X-1834692Y-3839819D01*
X-1846173Y-3836263D01*
X-1858060Y-3834485D01*
X-1870100Y-3834485D01*
X-1881987Y-3836263D01*
X-1893468Y-3839819D01*
X-1904339Y-3845051D01*
X-1914245Y-3851808D01*
X-1923084Y-3859987D01*
X-1930552Y-3869436D01*
X-1936597Y-3879850D01*
X-1940966Y-3891026D01*
X-1943658Y-3902760D01*
X-1944573Y-3915105D01*
X-1944522Y-4257548D01*
X-1943658Y-4266895D01*
X-1943201Y-4269486D01*
X-1940966Y-4278630D01*
X-1940153Y-4281119D01*
X-1936546Y-4289806D01*
X-1930501Y-4300220D01*
X-1928977Y-4302353D01*
X-1922983Y-4309618D01*
X-770737Y-5461914D01*
X-768908Y-5464403D01*
X-767892Y-5467400D01*
X-767892Y-5470550D01*
X-768908Y-5477814D01*
X-769366Y-5493867D01*
X-767994Y-5509818D01*
X-764794Y-5525566D01*
X-759866Y-5540806D01*
X-753211Y-5555386D01*
X-744931Y-5569153D01*
X-735126Y-5581853D01*
X-723950Y-5593334D01*
X-711504Y-5603494D01*
X-698042Y-5612180D01*
X-683615Y-5619242D01*
X-668528Y-5624626D01*
X-652881Y-5628284D01*
G37*
G36*
X-7841335Y-5618988D02*
G01*
X-7777327Y-5618988D01*
X-7782864Y-5607253D01*
X-7790840Y-5594654D01*
X-7800340Y-5583224D01*
X-7811160Y-5573014D01*
X-7823200Y-5564276D01*
X-7836255Y-5557113D01*
X-7841335Y-5555081D01*
G37*
G36*
X-8349335Y-5618835D02*
G01*
X-8285327Y-5618835D01*
X-8290864Y-5607100D01*
X-8298840Y-5594553D01*
X-8308340Y-5583072D01*
X-8319160Y-5572912D01*
X-8331200Y-5564174D01*
X-8344255Y-5556961D01*
X-8349335Y-5554980D01*
G37*
G36*
X-8504072Y-5618835D02*
G01*
X-8440064Y-5618835D01*
X-8440064Y-5554980D01*
X-8445144Y-5556961D01*
X-8458200Y-5564174D01*
X-8470239Y-5572912D01*
X-8481060Y-5583072D01*
X-8490559Y-5594553D01*
X-8498535Y-5607100D01*
G37*
G36*
X-8402116Y-5541162D02*
G01*
X-8387232Y-5541162D01*
X-8372500Y-5539282D01*
X-8362035Y-5536590D01*
X-8357717Y-5536285D01*
X-8354314Y-5534101D01*
X-8344255Y-5530088D01*
X-8331200Y-5522925D01*
X-8319160Y-5514187D01*
X-8308340Y-5504027D01*
X-8298840Y-5492546D01*
X-8290864Y-5479999D01*
X-8284514Y-5466486D01*
X-8279942Y-5452364D01*
X-8277148Y-5437733D01*
X-8276234Y-5422900D01*
X-8277148Y-5408066D01*
X-8279942Y-5393436D01*
X-8284514Y-5379262D01*
X-8290864Y-5365800D01*
X-8298840Y-5353253D01*
X-8308340Y-5341772D01*
X-8319160Y-5331612D01*
X-8331200Y-5322874D01*
X-8344255Y-5315661D01*
X-8358073Y-5310225D01*
X-8372500Y-5306517D01*
X-8376716Y-5305958D01*
X-8380628Y-5304637D01*
X-8383676Y-5301792D01*
X-8385352Y-5297982D01*
X-8385352Y-5293817D01*
X-8383676Y-5290007D01*
X-8380628Y-5287162D01*
X-8376716Y-5285790D01*
X-8372500Y-5285282D01*
X-8358073Y-5281574D01*
X-8344255Y-5276088D01*
X-8331200Y-5268925D01*
X-8319160Y-5260187D01*
X-8308340Y-5250027D01*
X-8298840Y-5238546D01*
X-8290864Y-5225999D01*
X-8284514Y-5212486D01*
X-8279942Y-5198364D01*
X-8277148Y-5183733D01*
X-8276234Y-5168900D01*
X-8277148Y-5154066D01*
X-8279942Y-5139436D01*
X-8284514Y-5125262D01*
X-8290864Y-5111800D01*
X-8298840Y-5099253D01*
X-8308340Y-5087772D01*
X-8319160Y-5077612D01*
X-8331200Y-5068874D01*
X-8344255Y-5061661D01*
X-8358073Y-5056225D01*
X-8372500Y-5052517D01*
X-8387232Y-5050637D01*
X-8402116Y-5050637D01*
X-8416899Y-5052517D01*
X-8431326Y-5056225D01*
X-8445144Y-5061661D01*
X-8458200Y-5068874D01*
X-8470239Y-5077612D01*
X-8481060Y-5087772D01*
X-8490559Y-5099253D01*
X-8498535Y-5111800D01*
X-8504885Y-5125262D01*
X-8509457Y-5139436D01*
X-8512251Y-5154066D01*
X-8513165Y-5168900D01*
X-8512251Y-5183733D01*
X-8509457Y-5198364D01*
X-8504885Y-5212486D01*
X-8498535Y-5225999D01*
X-8490559Y-5238546D01*
X-8481060Y-5250027D01*
X-8470239Y-5260187D01*
X-8458200Y-5268925D01*
X-8445144Y-5276088D01*
X-8431326Y-5281574D01*
X-8416899Y-5285282D01*
X-8412683Y-5285790D01*
X-8408771Y-5287162D01*
X-8405672Y-5290007D01*
X-8404047Y-5293817D01*
X-8404047Y-5297982D01*
X-8405672Y-5301792D01*
X-8408771Y-5304637D01*
X-8412683Y-5305958D01*
X-8416899Y-5306517D01*
X-8431326Y-5310225D01*
X-8445144Y-5315661D01*
X-8458200Y-5322874D01*
X-8470239Y-5331612D01*
X-8481060Y-5341772D01*
X-8490559Y-5353253D01*
X-8498535Y-5365800D01*
X-8504885Y-5379262D01*
X-8509457Y-5393436D01*
X-8512251Y-5408066D01*
X-8513165Y-5422900D01*
X-8512251Y-5437733D01*
X-8509457Y-5452364D01*
X-8504885Y-5466486D01*
X-8498535Y-5479999D01*
X-8490559Y-5492546D01*
X-8481060Y-5504027D01*
X-8470239Y-5514187D01*
X-8458200Y-5522925D01*
X-8445144Y-5530088D01*
X-8435086Y-5534101D01*
X-8431530Y-5536488D01*
X-8427364Y-5536590D01*
X-8416899Y-5539282D01*
G37*
G36*
X-8402116Y-5020462D02*
G01*
X-8387232Y-5020462D01*
X-8372500Y-5018582D01*
X-8358073Y-5014874D01*
X-8344255Y-5009388D01*
X-8331200Y-5002225D01*
X-8319160Y-4993487D01*
X-8308340Y-4983327D01*
X-8298840Y-4971846D01*
X-8290864Y-4959299D01*
X-8284514Y-4945786D01*
X-8279942Y-4931664D01*
X-8277148Y-4917033D01*
X-8276234Y-4902200D01*
X-8277148Y-4887366D01*
X-8279942Y-4872736D01*
X-8284514Y-4858562D01*
X-8290864Y-4845100D01*
X-8298840Y-4832553D01*
X-8308340Y-4821072D01*
X-8319160Y-4810912D01*
X-8331200Y-4802174D01*
X-8344255Y-4794961D01*
X-8358073Y-4789525D01*
X-8372500Y-4785817D01*
X-8376716Y-4785258D01*
X-8380628Y-4783937D01*
X-8383676Y-4781092D01*
X-8385352Y-4777282D01*
X-8385352Y-4773117D01*
X-8383676Y-4769307D01*
X-8380628Y-4766462D01*
X-8376716Y-4765090D01*
X-8372500Y-4764582D01*
X-8358073Y-4760874D01*
X-8344255Y-4755388D01*
X-8331200Y-4748225D01*
X-8319160Y-4739487D01*
X-8308340Y-4729327D01*
X-8298840Y-4717846D01*
X-8290864Y-4705299D01*
X-8284514Y-4691786D01*
X-8279942Y-4677664D01*
X-8277148Y-4663033D01*
X-8276234Y-4648200D01*
X-8277148Y-4633366D01*
X-8279942Y-4618736D01*
X-8284514Y-4604562D01*
X-8290864Y-4591100D01*
X-8298840Y-4578553D01*
X-8308340Y-4567072D01*
X-8319160Y-4556912D01*
X-8331200Y-4548174D01*
X-8344255Y-4540961D01*
X-8358073Y-4535525D01*
X-8372500Y-4531817D01*
X-8376716Y-4531258D01*
X-8380628Y-4529937D01*
X-8383676Y-4527092D01*
X-8385352Y-4523282D01*
X-8385352Y-4519117D01*
X-8383676Y-4515307D01*
X-8380628Y-4512462D01*
X-8376716Y-4511090D01*
X-8372500Y-4510582D01*
X-8358073Y-4506874D01*
X-8344255Y-4501388D01*
X-8331200Y-4494225D01*
X-8319160Y-4485487D01*
X-8308340Y-4475327D01*
X-8298840Y-4463846D01*
X-8290864Y-4451299D01*
X-8284514Y-4437786D01*
X-8279942Y-4423664D01*
X-8277148Y-4409033D01*
X-8276234Y-4394200D01*
X-8277148Y-4379366D01*
X-8279942Y-4364736D01*
X-8284514Y-4350562D01*
X-8290864Y-4337100D01*
X-8298840Y-4324553D01*
X-8308340Y-4313072D01*
X-8319160Y-4302912D01*
X-8331200Y-4294174D01*
X-8344255Y-4286961D01*
X-8358073Y-4281525D01*
X-8372500Y-4277817D01*
X-8387232Y-4275937D01*
X-8402116Y-4275937D01*
X-8416899Y-4277817D01*
X-8431326Y-4281525D01*
X-8445144Y-4286961D01*
X-8458200Y-4294174D01*
X-8470239Y-4302912D01*
X-8481060Y-4313072D01*
X-8490559Y-4324553D01*
X-8498535Y-4337100D01*
X-8504885Y-4350562D01*
X-8509457Y-4364736D01*
X-8512251Y-4379366D01*
X-8513165Y-4394200D01*
X-8512251Y-4409033D01*
X-8509457Y-4423664D01*
X-8504885Y-4437786D01*
X-8498535Y-4451299D01*
X-8490559Y-4463846D01*
X-8481060Y-4475327D01*
X-8470239Y-4485487D01*
X-8458200Y-4494225D01*
X-8445144Y-4501388D01*
X-8431326Y-4506874D01*
X-8416899Y-4510582D01*
X-8412683Y-4511090D01*
X-8408771Y-4512462D01*
X-8405672Y-4515307D01*
X-8404047Y-4519117D01*
X-8404047Y-4523282D01*
X-8405672Y-4527092D01*
X-8408771Y-4529937D01*
X-8412683Y-4531258D01*
X-8416899Y-4531817D01*
X-8431326Y-4535525D01*
X-8445144Y-4540961D01*
X-8458200Y-4548174D01*
X-8470239Y-4556912D01*
X-8481060Y-4567072D01*
X-8490559Y-4578553D01*
X-8498535Y-4591100D01*
X-8504885Y-4604562D01*
X-8509457Y-4618736D01*
X-8512251Y-4633366D01*
X-8513165Y-4648200D01*
X-8512251Y-4663033D01*
X-8509457Y-4677664D01*
X-8504885Y-4691786D01*
X-8498535Y-4705299D01*
X-8490559Y-4717846D01*
X-8481060Y-4729327D01*
X-8470239Y-4739487D01*
X-8458200Y-4748225D01*
X-8445144Y-4755388D01*
X-8431326Y-4760874D01*
X-8416899Y-4764582D01*
X-8412683Y-4765090D01*
X-8408771Y-4766462D01*
X-8405672Y-4769307D01*
X-8404047Y-4773117D01*
X-8404047Y-4777282D01*
X-8405672Y-4781092D01*
X-8408771Y-4783937D01*
X-8412683Y-4785258D01*
X-8416899Y-4785817D01*
X-8431326Y-4789525D01*
X-8445144Y-4794961D01*
X-8458200Y-4802174D01*
X-8470239Y-4810912D01*
X-8481060Y-4821072D01*
X-8490559Y-4832553D01*
X-8498535Y-4845100D01*
X-8504885Y-4858562D01*
X-8509457Y-4872736D01*
X-8512251Y-4887366D01*
X-8513165Y-4902200D01*
X-8512251Y-4917033D01*
X-8509457Y-4931664D01*
X-8504885Y-4945786D01*
X-8498535Y-4959299D01*
X-8490559Y-4971846D01*
X-8481060Y-4983327D01*
X-8470239Y-4993487D01*
X-8458200Y-5002225D01*
X-8445144Y-5009388D01*
X-8431326Y-5014874D01*
X-8416899Y-5018582D01*
G37*
G36*
X-4846116Y-5020462D02*
G01*
X-4831232Y-5020462D01*
X-4816500Y-5018582D01*
X-4802073Y-5014874D01*
X-4788255Y-5009388D01*
X-4775200Y-5002225D01*
X-4763160Y-4993487D01*
X-4752340Y-4983327D01*
X-4742840Y-4971846D01*
X-4734864Y-4959299D01*
X-4728514Y-4945786D01*
X-4723942Y-4931664D01*
X-4721148Y-4917033D01*
X-4720234Y-4902200D01*
X-4721148Y-4887366D01*
X-4723942Y-4872736D01*
X-4728514Y-4858562D01*
X-4734864Y-4845100D01*
X-4742840Y-4832553D01*
X-4752340Y-4821072D01*
X-4763160Y-4810912D01*
X-4775200Y-4802174D01*
X-4788255Y-4794961D01*
X-4802073Y-4789525D01*
X-4816500Y-4785817D01*
X-4820716Y-4785258D01*
X-4824628Y-4783937D01*
X-4827676Y-4781092D01*
X-4829352Y-4777282D01*
X-4829352Y-4773117D01*
X-4827676Y-4769307D01*
X-4824628Y-4766462D01*
X-4820716Y-4765090D01*
X-4816500Y-4764582D01*
X-4802073Y-4760874D01*
X-4788255Y-4755388D01*
X-4775200Y-4748225D01*
X-4763160Y-4739487D01*
X-4752340Y-4729327D01*
X-4742840Y-4717846D01*
X-4734864Y-4705299D01*
X-4728514Y-4691786D01*
X-4723942Y-4677664D01*
X-4721148Y-4663033D01*
X-4720234Y-4648200D01*
X-4721148Y-4633366D01*
X-4723942Y-4618736D01*
X-4728514Y-4604562D01*
X-4734864Y-4591100D01*
X-4742840Y-4578553D01*
X-4752340Y-4567072D01*
X-4763160Y-4556912D01*
X-4775200Y-4548174D01*
X-4788255Y-4540961D01*
X-4802073Y-4535525D01*
X-4816500Y-4531817D01*
X-4820716Y-4531258D01*
X-4824628Y-4529937D01*
X-4827676Y-4527092D01*
X-4829352Y-4523282D01*
X-4829352Y-4519117D01*
X-4827676Y-4515307D01*
X-4824628Y-4512462D01*
X-4820716Y-4511090D01*
X-4816500Y-4510582D01*
X-4802073Y-4506874D01*
X-4788255Y-4501388D01*
X-4775200Y-4494225D01*
X-4763160Y-4485487D01*
X-4752340Y-4475327D01*
X-4742840Y-4463846D01*
X-4734864Y-4451299D01*
X-4728514Y-4437786D01*
X-4723942Y-4423664D01*
X-4721148Y-4409033D01*
X-4720234Y-4394200D01*
X-4721148Y-4379366D01*
X-4723942Y-4364736D01*
X-4728514Y-4350562D01*
X-4734864Y-4337100D01*
X-4742840Y-4324553D01*
X-4752340Y-4313072D01*
X-4763160Y-4302912D01*
X-4775200Y-4294174D01*
X-4788255Y-4286961D01*
X-4802073Y-4281525D01*
X-4816500Y-4277817D01*
X-4820716Y-4277258D01*
X-4824628Y-4275937D01*
X-4827676Y-4273092D01*
X-4829352Y-4269282D01*
X-4829352Y-4265117D01*
X-4827676Y-4261307D01*
X-4824628Y-4258462D01*
X-4820716Y-4257090D01*
X-4816500Y-4256582D01*
X-4802073Y-4252874D01*
X-4788255Y-4247388D01*
X-4775200Y-4240225D01*
X-4763160Y-4231487D01*
X-4752340Y-4221327D01*
X-4742840Y-4209846D01*
X-4734864Y-4197299D01*
X-4728514Y-4183786D01*
X-4723942Y-4169664D01*
X-4721148Y-4155033D01*
X-4720234Y-4140200D01*
X-4721148Y-4125366D01*
X-4723942Y-4110736D01*
X-4728514Y-4096562D01*
X-4734864Y-4083100D01*
X-4742840Y-4070553D01*
X-4752340Y-4059072D01*
X-4763160Y-4048912D01*
X-4775200Y-4040174D01*
X-4788255Y-4032961D01*
X-4798314Y-4028998D01*
X-4801717Y-4026814D01*
X-4803952Y-4023461D01*
X-4804765Y-4019550D01*
X-4803952Y-4015587D01*
X-4801717Y-4012285D01*
X-4798314Y-4010101D01*
X-4788255Y-4006087D01*
X-4775200Y-3998925D01*
X-4763160Y-3990187D01*
X-4752340Y-3980027D01*
X-4742840Y-3968546D01*
X-4734864Y-3955999D01*
X-4728514Y-3942486D01*
X-4723942Y-3928364D01*
X-4721148Y-3913733D01*
X-4720234Y-3898900D01*
X-4721148Y-3884066D01*
X-4723942Y-3869436D01*
X-4728514Y-3855262D01*
X-4734864Y-3841800D01*
X-4742840Y-3829253D01*
X-4752340Y-3817772D01*
X-4763160Y-3807612D01*
X-4775200Y-3798874D01*
X-4788255Y-3791661D01*
X-4802073Y-3786225D01*
X-4816500Y-3782517D01*
X-4820716Y-3781958D01*
X-4824628Y-3780637D01*
X-4827676Y-3777792D01*
X-4829352Y-3773982D01*
X-4829352Y-3769817D01*
X-4827676Y-3766007D01*
X-4824628Y-3763162D01*
X-4820716Y-3761790D01*
X-4816500Y-3761282D01*
X-4802073Y-3757574D01*
X-4788255Y-3752087D01*
X-4775200Y-3744925D01*
X-4763160Y-3736187D01*
X-4752340Y-3726027D01*
X-4742840Y-3714546D01*
X-4734864Y-3701999D01*
X-4728514Y-3688486D01*
X-4723942Y-3674364D01*
X-4721148Y-3659733D01*
X-4720234Y-3644900D01*
X-4721148Y-3630066D01*
X-4723942Y-3615436D01*
X-4728514Y-3601262D01*
X-4734864Y-3587800D01*
X-4742840Y-3575253D01*
X-4752340Y-3563772D01*
X-4763160Y-3553612D01*
X-4775200Y-3544874D01*
X-4788255Y-3537661D01*
X-4802073Y-3532225D01*
X-4816500Y-3528517D01*
X-4831232Y-3526637D01*
X-4846116Y-3526637D01*
X-4860899Y-3528517D01*
X-4875326Y-3532225D01*
X-4889144Y-3537661D01*
X-4902200Y-3544874D01*
X-4914239Y-3553612D01*
X-4925060Y-3563772D01*
X-4934559Y-3575253D01*
X-4942535Y-3587800D01*
X-4948885Y-3601262D01*
X-4953457Y-3615436D01*
X-4956251Y-3630066D01*
X-4957165Y-3644900D01*
X-4956251Y-3659733D01*
X-4953457Y-3674364D01*
X-4948885Y-3688486D01*
X-4942535Y-3701999D01*
X-4934559Y-3714546D01*
X-4925060Y-3726027D01*
X-4914239Y-3736187D01*
X-4902200Y-3744925D01*
X-4889144Y-3752087D01*
X-4875326Y-3757574D01*
X-4860899Y-3761282D01*
X-4856683Y-3761790D01*
X-4852771Y-3763162D01*
X-4849672Y-3766007D01*
X-4848047Y-3769817D01*
X-4848047Y-3773982D01*
X-4849672Y-3777792D01*
X-4852771Y-3780637D01*
X-4856683Y-3781958D01*
X-4860899Y-3782517D01*
X-4875326Y-3786225D01*
X-4889144Y-3791661D01*
X-4902200Y-3798874D01*
X-4914239Y-3807612D01*
X-4925060Y-3817772D01*
X-4934559Y-3829253D01*
X-4942535Y-3841800D01*
X-4948885Y-3855262D01*
X-4953457Y-3869436D01*
X-4956251Y-3884066D01*
X-4957165Y-3898900D01*
X-4956251Y-3913733D01*
X-4953457Y-3928364D01*
X-4948885Y-3942486D01*
X-4942535Y-3955999D01*
X-4934559Y-3968546D01*
X-4925060Y-3980027D01*
X-4914239Y-3990187D01*
X-4902200Y-3998925D01*
X-4889144Y-4006087D01*
X-4879086Y-4010101D01*
X-4875682Y-4012285D01*
X-4873447Y-4015587D01*
X-4872634Y-4019550D01*
X-4873447Y-4023461D01*
X-4875682Y-4026814D01*
X-4879086Y-4028998D01*
X-4889144Y-4032961D01*
X-4902200Y-4040174D01*
X-4914239Y-4048912D01*
X-4925060Y-4059072D01*
X-4934559Y-4070553D01*
X-4942535Y-4083100D01*
X-4948885Y-4096562D01*
X-4953457Y-4110736D01*
X-4956251Y-4125366D01*
X-4957165Y-4140200D01*
X-4956251Y-4155033D01*
X-4953457Y-4169664D01*
X-4948885Y-4183786D01*
X-4942535Y-4197299D01*
X-4934559Y-4209846D01*
X-4925060Y-4221327D01*
X-4914239Y-4231487D01*
X-4902200Y-4240225D01*
X-4889144Y-4247388D01*
X-4875326Y-4252874D01*
X-4860899Y-4256582D01*
X-4856683Y-4257090D01*
X-4852771Y-4258462D01*
X-4849672Y-4261307D01*
X-4848047Y-4265117D01*
X-4848047Y-4269282D01*
X-4849672Y-4273092D01*
X-4852771Y-4275937D01*
X-4856683Y-4277258D01*
X-4860899Y-4277817D01*
X-4875326Y-4281525D01*
X-4889144Y-4286961D01*
X-4902200Y-4294174D01*
X-4914239Y-4302912D01*
X-4925060Y-4313072D01*
X-4934559Y-4324553D01*
X-4942535Y-4337100D01*
X-4948885Y-4350562D01*
X-4953457Y-4364736D01*
X-4956251Y-4379366D01*
X-4957165Y-4394200D01*
X-4956251Y-4409033D01*
X-4953457Y-4423664D01*
X-4948885Y-4437786D01*
X-4942535Y-4451299D01*
X-4934559Y-4463846D01*
X-4925060Y-4475327D01*
X-4914239Y-4485487D01*
X-4902200Y-4494225D01*
X-4889144Y-4501388D01*
X-4875326Y-4506874D01*
X-4860899Y-4510582D01*
X-4856683Y-4511090D01*
X-4852771Y-4512462D01*
X-4849672Y-4515307D01*
X-4848047Y-4519117D01*
X-4848047Y-4523282D01*
X-4849672Y-4527092D01*
X-4852771Y-4529937D01*
X-4856683Y-4531258D01*
X-4860899Y-4531817D01*
X-4875326Y-4535525D01*
X-4889144Y-4540961D01*
X-4902200Y-4548174D01*
X-4914239Y-4556912D01*
X-4925060Y-4567072D01*
X-4934559Y-4578553D01*
X-4942535Y-4591100D01*
X-4948885Y-4604562D01*
X-4953457Y-4618736D01*
X-4956251Y-4633366D01*
X-4957165Y-4648200D01*
X-4956251Y-4663033D01*
X-4953457Y-4677664D01*
X-4948885Y-4691786D01*
X-4942535Y-4705299D01*
X-4934559Y-4717846D01*
X-4925060Y-4729327D01*
X-4914239Y-4739487D01*
X-4902200Y-4748225D01*
X-4889144Y-4755388D01*
X-4875326Y-4760874D01*
X-4860899Y-4764582D01*
X-4856683Y-4765090D01*
X-4852771Y-4766462D01*
X-4849672Y-4769307D01*
X-4848047Y-4773117D01*
X-4848047Y-4777282D01*
X-4849672Y-4781092D01*
X-4852771Y-4783937D01*
X-4856683Y-4785258D01*
X-4860899Y-4785817D01*
X-4875326Y-4789525D01*
X-4889144Y-4794961D01*
X-4902200Y-4802174D01*
X-4914239Y-4810912D01*
X-4925060Y-4821072D01*
X-4934559Y-4832553D01*
X-4942535Y-4845100D01*
X-4948885Y-4858562D01*
X-4953457Y-4872736D01*
X-4956251Y-4887366D01*
X-4957165Y-4902200D01*
X-4956251Y-4917033D01*
X-4953457Y-4931664D01*
X-4948885Y-4945786D01*
X-4942535Y-4959299D01*
X-4934559Y-4971846D01*
X-4925060Y-4983327D01*
X-4914239Y-4993487D01*
X-4902200Y-5002225D01*
X-4889144Y-5009388D01*
X-4875326Y-5014874D01*
X-4860899Y-5018582D01*
G37*
G36*
X-2981655Y-5014976D02*
G01*
X-2982417Y-4950155D01*
X-3047085Y-4950917D01*
X-3045460Y-4954930D01*
X-3038297Y-4967884D01*
X-3029559Y-4979924D01*
X-3019450Y-4990744D01*
X-3008071Y-5000244D01*
X-2995625Y-5008321D01*
G37*
G36*
X-2888945Y-5013655D02*
G01*
X-2881630Y-5010404D01*
X-2868879Y-5002834D01*
X-2857144Y-4993792D01*
X-2846628Y-4983327D01*
X-2837434Y-4971643D01*
X-2829814Y-4958943D01*
X-2825038Y-4948224D01*
X-2889707Y-4949037D01*
G37*
G36*
X-2760929Y-5004714D02*
G01*
X-2601925Y-5002784D01*
X-2593543Y-5001818D01*
X-2585974Y-4999431D01*
X-2579014Y-4995621D01*
X-2572969Y-4990490D01*
X-2567990Y-4984292D01*
X-2564333Y-4977282D01*
X-2562148Y-4969662D01*
X-2561437Y-4961280D01*
X-2561996Y-4913630D01*
X-2561539Y-4910582D01*
X-2560218Y-4907737D01*
X-2554427Y-4899304D01*
X-2553055Y-4896967D01*
X-2548788Y-4888331D01*
X-2547721Y-4885791D01*
X-2544673Y-4876698D01*
X-2543962Y-4874056D01*
X-2541828Y-4861864D01*
X-2541320Y-4852162D01*
X-2541320Y-3230829D01*
X-2540711Y-3227273D01*
X-2538882Y-3224174D01*
X-2536088Y-3221939D01*
X-2528214Y-3217621D01*
X-2522169Y-3212490D01*
X-2517190Y-3206292D01*
X-2513533Y-3199282D01*
X-2511348Y-3191662D01*
X-2510637Y-3183280D01*
X-2512060Y-3064256D01*
X-2513025Y-3055874D01*
X-2515412Y-3048304D01*
X-2519222Y-3041396D01*
X-2524302Y-3035300D01*
X-2530500Y-3030372D01*
X-2537561Y-3026714D01*
X-2545181Y-3024479D01*
X-2553563Y-3023768D01*
X-2712567Y-3025698D01*
X-2720949Y-3026613D01*
X-2728518Y-3029051D01*
X-2735478Y-3032861D01*
X-2741523Y-3037941D01*
X-2746502Y-3044139D01*
X-2750159Y-3051200D01*
X-2752344Y-3058820D01*
X-2753055Y-3067202D01*
X-2752902Y-3081020D01*
X-2753512Y-3084169D01*
X-2752801Y-3087420D01*
X-2751937Y-3159810D01*
X-2752547Y-3163062D01*
X-2751836Y-3166160D01*
X-2751632Y-3186226D01*
X-2750667Y-3194608D01*
X-2748280Y-3202127D01*
X-2744470Y-3209086D01*
X-2739339Y-3215182D01*
X-2733192Y-3220110D01*
X-2727858Y-3222904D01*
X-2724912Y-3225139D01*
X-2723032Y-3228289D01*
X-2722372Y-3231896D01*
X-2722372Y-4793183D01*
X-2723134Y-4797044D01*
X-2725267Y-4800295D01*
X-2728518Y-4802530D01*
X-2732379Y-4803343D01*
X-2763367Y-4803698D01*
X-2771749Y-4804613D01*
X-2779318Y-4807051D01*
X-2786278Y-4810861D01*
X-2792323Y-4815941D01*
X-2797302Y-4822139D01*
X-2800959Y-4829200D01*
X-2803144Y-4836820D01*
X-2803855Y-4845202D01*
X-2803702Y-4859020D01*
X-2804312Y-4862169D01*
X-2803601Y-4865420D01*
X-2802737Y-4937810D01*
X-2803347Y-4941062D01*
X-2802636Y-4944160D01*
X-2802432Y-4964226D01*
X-2801467Y-4972608D01*
X-2799080Y-4980127D01*
X-2795270Y-4987086D01*
X-2790139Y-4993182D01*
X-2783992Y-4998110D01*
X-2776931Y-5001768D01*
X-2769311Y-5004003D01*
G37*
G36*
X-2890875Y-4856327D02*
G01*
X-2826156Y-4855514D01*
X-2831185Y-4844948D01*
X-2839161Y-4832400D01*
X-2848610Y-4820970D01*
X-2859379Y-4810760D01*
X-2871317Y-4801971D01*
X-2884271Y-4794707D01*
X-2891637Y-4791710D01*
G37*
G36*
X-572566Y-4602429D02*
G01*
X-559866Y-4596180D01*
X-546354Y-4587494D01*
X-533958Y-4577334D01*
X-522782Y-4565853D01*
X-512978Y-4553153D01*
X-504698Y-4539386D01*
X-500481Y-4530191D01*
X-572566Y-4530191D01*
G37*
G36*
X-572566Y-4417466D02*
G01*
X-500380Y-4417466D01*
X-501142Y-4415485D01*
X-508609Y-4401261D01*
X-517702Y-4388053D01*
X-528167Y-4375912D01*
X-540004Y-4365091D01*
X-553008Y-4355642D01*
X-566928Y-4347768D01*
X-572566Y-4345381D01*
G37*
G36*
X-7841335Y-4249572D02*
G01*
X-7836255Y-4247540D01*
X-7823200Y-4240377D01*
X-7811160Y-4231640D01*
X-7800340Y-4221429D01*
X-7790840Y-4209948D01*
X-7782864Y-4197400D01*
X-7777327Y-4185665D01*
X-7841335Y-4185665D01*
G37*
G36*
X-8349335Y-4249420D02*
G01*
X-8344255Y-4247388D01*
X-8331200Y-4240225D01*
X-8319160Y-4231487D01*
X-8308340Y-4221327D01*
X-8298840Y-4209846D01*
X-8290864Y-4197299D01*
X-8285327Y-4185564D01*
X-8349335Y-4185564D01*
G37*
G36*
X-8440064Y-4249420D02*
G01*
X-8440064Y-4185564D01*
X-8504072Y-4185564D01*
X-8498535Y-4197299D01*
X-8490559Y-4209846D01*
X-8481060Y-4221327D01*
X-8470239Y-4231487D01*
X-8458200Y-4240225D01*
X-8445144Y-4247388D01*
G37*
G36*
X-7841335Y-4094987D02*
G01*
X-7777327Y-4094987D01*
X-7782864Y-4083253D01*
X-7790840Y-4070654D01*
X-7800340Y-4059224D01*
X-7811160Y-4049014D01*
X-7823200Y-4040276D01*
X-7836255Y-4033113D01*
X-7841335Y-4031081D01*
G37*
G36*
X-8349335Y-4094835D02*
G01*
X-8285327Y-4094835D01*
X-8290864Y-4083100D01*
X-8298840Y-4070553D01*
X-8308340Y-4059072D01*
X-8319160Y-4048912D01*
X-8331200Y-4040174D01*
X-8344255Y-4032961D01*
X-8349335Y-4030979D01*
G37*
G36*
X-8504072Y-4094835D02*
G01*
X-8440064Y-4094835D01*
X-8440064Y-4030979D01*
X-8445144Y-4032961D01*
X-8458200Y-4040174D01*
X-8470239Y-4048912D01*
X-8481060Y-4059072D01*
X-8490559Y-4070553D01*
X-8498535Y-4083100D01*
G37*
G36*
X-8402116Y-4017162D02*
G01*
X-8387232Y-4017162D01*
X-8372500Y-4015282D01*
X-8362035Y-4012590D01*
X-8357717Y-4012285D01*
X-8354314Y-4010101D01*
X-8344255Y-4006087D01*
X-8331200Y-3998925D01*
X-8319160Y-3990187D01*
X-8308340Y-3980027D01*
X-8298840Y-3968546D01*
X-8290864Y-3955999D01*
X-8284514Y-3942486D01*
X-8279942Y-3928364D01*
X-8277148Y-3913733D01*
X-8276234Y-3898900D01*
X-8277148Y-3884066D01*
X-8279942Y-3869436D01*
X-8284514Y-3855262D01*
X-8290864Y-3841800D01*
X-8298840Y-3829253D01*
X-8308340Y-3817772D01*
X-8319160Y-3807612D01*
X-8331200Y-3798874D01*
X-8344255Y-3791661D01*
X-8358073Y-3786225D01*
X-8372500Y-3782517D01*
X-8376716Y-3781958D01*
X-8380628Y-3780637D01*
X-8383676Y-3777792D01*
X-8385352Y-3773982D01*
X-8385352Y-3769817D01*
X-8383676Y-3766007D01*
X-8380628Y-3763162D01*
X-8376716Y-3761790D01*
X-8372500Y-3761282D01*
X-8358073Y-3757574D01*
X-8344255Y-3752087D01*
X-8331200Y-3744925D01*
X-8319160Y-3736187D01*
X-8308340Y-3726027D01*
X-8298840Y-3714546D01*
X-8290864Y-3701999D01*
X-8284514Y-3688486D01*
X-8279942Y-3674364D01*
X-8277148Y-3659733D01*
X-8276234Y-3644900D01*
X-8277148Y-3630066D01*
X-8279942Y-3615436D01*
X-8284514Y-3601262D01*
X-8290864Y-3587800D01*
X-8298840Y-3575253D01*
X-8308340Y-3563772D01*
X-8319160Y-3553612D01*
X-8331200Y-3544874D01*
X-8344255Y-3537661D01*
X-8358073Y-3532225D01*
X-8372500Y-3528517D01*
X-8387232Y-3526637D01*
X-8402116Y-3526637D01*
X-8416899Y-3528517D01*
X-8431326Y-3532225D01*
X-8445144Y-3537661D01*
X-8458200Y-3544874D01*
X-8470239Y-3553612D01*
X-8481060Y-3563772D01*
X-8490559Y-3575253D01*
X-8498535Y-3587800D01*
X-8504885Y-3601262D01*
X-8509457Y-3615436D01*
X-8512251Y-3630066D01*
X-8513165Y-3644900D01*
X-8512251Y-3659733D01*
X-8509457Y-3674364D01*
X-8504885Y-3688486D01*
X-8498535Y-3701999D01*
X-8490559Y-3714546D01*
X-8481060Y-3726027D01*
X-8470239Y-3736187D01*
X-8458200Y-3744925D01*
X-8445144Y-3752087D01*
X-8431326Y-3757574D01*
X-8416899Y-3761282D01*
X-8412683Y-3761790D01*
X-8408771Y-3763162D01*
X-8405672Y-3766007D01*
X-8404047Y-3769817D01*
X-8404047Y-3773982D01*
X-8405672Y-3777792D01*
X-8408771Y-3780637D01*
X-8412683Y-3781958D01*
X-8416899Y-3782517D01*
X-8431326Y-3786225D01*
X-8445144Y-3791661D01*
X-8458200Y-3798874D01*
X-8470239Y-3807612D01*
X-8481060Y-3817772D01*
X-8490559Y-3829253D01*
X-8498535Y-3841800D01*
X-8504885Y-3855262D01*
X-8509457Y-3869436D01*
X-8512251Y-3884066D01*
X-8513165Y-3898900D01*
X-8512251Y-3913733D01*
X-8509457Y-3928364D01*
X-8504885Y-3942486D01*
X-8498535Y-3955999D01*
X-8490559Y-3968546D01*
X-8481060Y-3980027D01*
X-8470239Y-3990187D01*
X-8458200Y-3998925D01*
X-8445144Y-4006087D01*
X-8435086Y-4010101D01*
X-8431530Y-4012488D01*
X-8427364Y-4012590D01*
X-8416899Y-4015282D01*
G37*
G36*
X-681583Y-3501491D02*
G01*
X-681583Y-3429254D01*
X-753719Y-3429254D01*
X-749503Y-3438448D01*
X-741222Y-3452164D01*
X-731418Y-3464864D01*
X-720242Y-3476396D01*
X-707847Y-3486556D01*
X-694334Y-3495192D01*
G37*
G36*
X-568909Y-3501491D02*
G01*
X-556158Y-3495192D01*
X-542645Y-3486556D01*
X-530250Y-3476396D01*
X-519074Y-3464864D01*
X-509270Y-3452164D01*
X-500989Y-3438448D01*
X-496773Y-3429254D01*
X-568909Y-3429254D01*
G37*
G36*
X-8402116Y-3496462D02*
G01*
X-8387232Y-3496462D01*
X-8372500Y-3494582D01*
X-8358073Y-3490874D01*
X-8344255Y-3485387D01*
X-8331200Y-3478225D01*
X-8319160Y-3469487D01*
X-8308340Y-3459327D01*
X-8298840Y-3447846D01*
X-8290864Y-3435299D01*
X-8284514Y-3421786D01*
X-8279942Y-3407664D01*
X-8277148Y-3393033D01*
X-8276234Y-3378200D01*
X-8277148Y-3363366D01*
X-8279942Y-3348736D01*
X-8284514Y-3334562D01*
X-8290864Y-3321100D01*
X-8298840Y-3308553D01*
X-8308340Y-3297072D01*
X-8319160Y-3286912D01*
X-8331200Y-3278174D01*
X-8344255Y-3270961D01*
X-8358073Y-3265525D01*
X-8372500Y-3261817D01*
X-8376716Y-3261258D01*
X-8380628Y-3259937D01*
X-8383676Y-3257092D01*
X-8385352Y-3253282D01*
X-8385352Y-3249117D01*
X-8383676Y-3245307D01*
X-8380628Y-3242462D01*
X-8376716Y-3241090D01*
X-8372500Y-3240582D01*
X-8358073Y-3236874D01*
X-8344255Y-3231388D01*
X-8331200Y-3224225D01*
X-8319160Y-3215487D01*
X-8308340Y-3205327D01*
X-8298840Y-3193846D01*
X-8290864Y-3181299D01*
X-8284514Y-3167786D01*
X-8279942Y-3153664D01*
X-8277148Y-3139033D01*
X-8276234Y-3124200D01*
X-8277148Y-3109366D01*
X-8279942Y-3094736D01*
X-8284514Y-3080562D01*
X-8290864Y-3067100D01*
X-8298840Y-3054553D01*
X-8308340Y-3043072D01*
X-8319160Y-3032912D01*
X-8331200Y-3024174D01*
X-8344255Y-3016961D01*
X-8358073Y-3011525D01*
X-8372500Y-3007817D01*
X-8376716Y-3007258D01*
X-8380628Y-3005937D01*
X-8383676Y-3003092D01*
X-8385352Y-2999282D01*
X-8385352Y-2995117D01*
X-8383676Y-2991307D01*
X-8380628Y-2988462D01*
X-8376716Y-2987090D01*
X-8372500Y-2986582D01*
X-8358073Y-2982874D01*
X-8344255Y-2977388D01*
X-8331200Y-2970225D01*
X-8319160Y-2961487D01*
X-8308340Y-2951327D01*
X-8298840Y-2939846D01*
X-8290864Y-2927299D01*
X-8284514Y-2913786D01*
X-8279942Y-2899664D01*
X-8277148Y-2885033D01*
X-8276234Y-2870200D01*
X-8277148Y-2855366D01*
X-8279942Y-2840736D01*
X-8284514Y-2826562D01*
X-8290864Y-2813100D01*
X-8298840Y-2800553D01*
X-8308340Y-2789072D01*
X-8319160Y-2778912D01*
X-8331200Y-2770174D01*
X-8344255Y-2762961D01*
X-8358073Y-2757525D01*
X-8372500Y-2753817D01*
X-8376716Y-2753258D01*
X-8380628Y-2751937D01*
X-8383676Y-2749092D01*
X-8385352Y-2745282D01*
X-8385352Y-2741117D01*
X-8383676Y-2737307D01*
X-8380628Y-2734462D01*
X-8376716Y-2733090D01*
X-8372500Y-2732582D01*
X-8358073Y-2728874D01*
X-8344255Y-2723388D01*
X-8331200Y-2716225D01*
X-8319160Y-2707487D01*
X-8308340Y-2697327D01*
X-8298840Y-2685846D01*
X-8290864Y-2673299D01*
X-8284514Y-2659786D01*
X-8279942Y-2645664D01*
X-8277148Y-2631033D01*
X-8276234Y-2616200D01*
X-8277148Y-2601366D01*
X-8279942Y-2586736D01*
X-8284514Y-2572562D01*
X-8290864Y-2559100D01*
X-8298840Y-2546553D01*
X-8308340Y-2535072D01*
X-8319160Y-2524912D01*
X-8331200Y-2516174D01*
X-8344255Y-2508961D01*
X-8354314Y-2504998D01*
X-8357717Y-2502814D01*
X-8359952Y-2499461D01*
X-8360765Y-2495550D01*
X-8359952Y-2491587D01*
X-8357717Y-2488285D01*
X-8354314Y-2486101D01*
X-8344255Y-2482088D01*
X-8331200Y-2474925D01*
X-8319160Y-2466187D01*
X-8308340Y-2456027D01*
X-8298840Y-2444546D01*
X-8290864Y-2431999D01*
X-8284514Y-2418486D01*
X-8279942Y-2404364D01*
X-8277148Y-2389733D01*
X-8276234Y-2374900D01*
X-8277148Y-2360066D01*
X-8279942Y-2345436D01*
X-8284514Y-2331262D01*
X-8290864Y-2317800D01*
X-8298840Y-2305253D01*
X-8308340Y-2293772D01*
X-8319160Y-2283612D01*
X-8331200Y-2274874D01*
X-8344255Y-2267661D01*
X-8358073Y-2262225D01*
X-8372500Y-2258517D01*
X-8376716Y-2257958D01*
X-8380628Y-2256637D01*
X-8383676Y-2253792D01*
X-8385352Y-2249982D01*
X-8385352Y-2245817D01*
X-8383676Y-2242007D01*
X-8380628Y-2239162D01*
X-8376716Y-2237790D01*
X-8372500Y-2237282D01*
X-8358073Y-2233574D01*
X-8344255Y-2228088D01*
X-8331200Y-2220925D01*
X-8319160Y-2212187D01*
X-8308340Y-2202027D01*
X-8298840Y-2190546D01*
X-8290864Y-2177999D01*
X-8284514Y-2164486D01*
X-8279942Y-2150364D01*
X-8277148Y-2135733D01*
X-8276234Y-2120900D01*
X-8277148Y-2106066D01*
X-8279942Y-2091436D01*
X-8284514Y-2077262D01*
X-8290864Y-2063800D01*
X-8298840Y-2051253D01*
X-8308340Y-2039772D01*
X-8319160Y-2029612D01*
X-8331200Y-2020874D01*
X-8344255Y-2013661D01*
X-8358073Y-2008225D01*
X-8372500Y-2004517D01*
X-8387232Y-2002637D01*
X-8402116Y-2002637D01*
X-8416899Y-2004517D01*
X-8431326Y-2008225D01*
X-8445144Y-2013661D01*
X-8458200Y-2020874D01*
X-8470239Y-2029612D01*
X-8481060Y-2039772D01*
X-8490559Y-2051253D01*
X-8498535Y-2063800D01*
X-8504885Y-2077262D01*
X-8509457Y-2091436D01*
X-8512251Y-2106066D01*
X-8513165Y-2120900D01*
X-8512251Y-2135733D01*
X-8509457Y-2150364D01*
X-8504885Y-2164486D01*
X-8498535Y-2177999D01*
X-8490559Y-2190546D01*
X-8481060Y-2202027D01*
X-8470239Y-2212187D01*
X-8458200Y-2220925D01*
X-8445144Y-2228088D01*
X-8431326Y-2233574D01*
X-8416899Y-2237282D01*
X-8412683Y-2237790D01*
X-8408771Y-2239162D01*
X-8405672Y-2242007D01*
X-8404047Y-2245817D01*
X-8404047Y-2249982D01*
X-8405672Y-2253792D01*
X-8408771Y-2256637D01*
X-8412683Y-2257958D01*
X-8416899Y-2258517D01*
X-8431326Y-2262225D01*
X-8445144Y-2267661D01*
X-8458200Y-2274874D01*
X-8470239Y-2283612D01*
X-8481060Y-2293772D01*
X-8490559Y-2305253D01*
X-8498535Y-2317800D01*
X-8504885Y-2331262D01*
X-8509457Y-2345436D01*
X-8512251Y-2360066D01*
X-8513165Y-2374900D01*
X-8512251Y-2389733D01*
X-8509457Y-2404364D01*
X-8504885Y-2418486D01*
X-8498535Y-2431999D01*
X-8490559Y-2444546D01*
X-8481060Y-2456027D01*
X-8470239Y-2466187D01*
X-8458200Y-2474925D01*
X-8445144Y-2482088D01*
X-8435086Y-2486101D01*
X-8431682Y-2488285D01*
X-8429447Y-2491587D01*
X-8428634Y-2495550D01*
X-8429447Y-2499461D01*
X-8431682Y-2502814D01*
X-8435086Y-2504998D01*
X-8445144Y-2508961D01*
X-8458200Y-2516174D01*
X-8470239Y-2524912D01*
X-8481060Y-2535072D01*
X-8490559Y-2546553D01*
X-8498535Y-2559100D01*
X-8504885Y-2572562D01*
X-8509457Y-2586736D01*
X-8512251Y-2601366D01*
X-8513165Y-2616200D01*
X-8512251Y-2631033D01*
X-8509457Y-2645664D01*
X-8504885Y-2659786D01*
X-8498535Y-2673299D01*
X-8490559Y-2685846D01*
X-8481060Y-2697327D01*
X-8470239Y-2707487D01*
X-8458200Y-2716225D01*
X-8445144Y-2723388D01*
X-8431326Y-2728874D01*
X-8416899Y-2732582D01*
X-8412683Y-2733090D01*
X-8408771Y-2734462D01*
X-8405672Y-2737307D01*
X-8404047Y-2741117D01*
X-8404047Y-2745282D01*
X-8405672Y-2749092D01*
X-8408771Y-2751937D01*
X-8412683Y-2753258D01*
X-8416899Y-2753817D01*
X-8431326Y-2757525D01*
X-8445144Y-2762961D01*
X-8458200Y-2770174D01*
X-8470239Y-2778912D01*
X-8481060Y-2789072D01*
X-8490559Y-2800553D01*
X-8498535Y-2813100D01*
X-8504885Y-2826562D01*
X-8509457Y-2840736D01*
X-8512251Y-2855366D01*
X-8513165Y-2870200D01*
X-8512251Y-2885033D01*
X-8509457Y-2899664D01*
X-8504885Y-2913786D01*
X-8498535Y-2927299D01*
X-8490559Y-2939846D01*
X-8481060Y-2951327D01*
X-8470239Y-2961487D01*
X-8458200Y-2970225D01*
X-8445144Y-2977388D01*
X-8431326Y-2982874D01*
X-8416899Y-2986582D01*
X-8412683Y-2987090D01*
X-8408771Y-2988462D01*
X-8405672Y-2991307D01*
X-8404047Y-2995117D01*
X-8404047Y-2999282D01*
X-8405672Y-3003092D01*
X-8408771Y-3005937D01*
X-8412683Y-3007258D01*
X-8416899Y-3007817D01*
X-8431326Y-3011525D01*
X-8445144Y-3016961D01*
X-8458200Y-3024174D01*
X-8470239Y-3032912D01*
X-8481060Y-3043072D01*
X-8490559Y-3054553D01*
X-8498535Y-3067100D01*
X-8504885Y-3080562D01*
X-8509457Y-3094736D01*
X-8512251Y-3109366D01*
X-8513165Y-3124200D01*
X-8512251Y-3139033D01*
X-8509457Y-3153664D01*
X-8504885Y-3167786D01*
X-8498535Y-3181299D01*
X-8490559Y-3193846D01*
X-8481060Y-3205327D01*
X-8470239Y-3215487D01*
X-8458200Y-3224225D01*
X-8445144Y-3231388D01*
X-8431326Y-3236874D01*
X-8416899Y-3240582D01*
X-8412683Y-3241090D01*
X-8408771Y-3242462D01*
X-8405672Y-3245307D01*
X-8404047Y-3249117D01*
X-8404047Y-3253282D01*
X-8405672Y-3257092D01*
X-8408771Y-3259937D01*
X-8412683Y-3261258D01*
X-8416899Y-3261817D01*
X-8431326Y-3265525D01*
X-8445144Y-3270961D01*
X-8458200Y-3278174D01*
X-8470239Y-3286912D01*
X-8481060Y-3297072D01*
X-8490559Y-3308553D01*
X-8498535Y-3321100D01*
X-8504885Y-3334562D01*
X-8509457Y-3348736D01*
X-8512251Y-3363366D01*
X-8513165Y-3378200D01*
X-8512251Y-3393033D01*
X-8509457Y-3407664D01*
X-8504885Y-3421786D01*
X-8498535Y-3435299D01*
X-8490559Y-3447846D01*
X-8481060Y-3459327D01*
X-8470239Y-3469487D01*
X-8458200Y-3478225D01*
X-8445144Y-3485387D01*
X-8431326Y-3490874D01*
X-8416899Y-3494582D01*
G37*
G36*
X-6810756Y-3331921D02*
G01*
X-6800138Y-3327603D01*
X-6790588Y-3321710D01*
X-6782053Y-3314446D01*
X-6774789Y-3305911D01*
X-6768896Y-3296361D01*
X-6764578Y-3285744D01*
X-6810756Y-3285744D01*
G37*
G36*
X-6854444Y-3331921D02*
G01*
X-6854444Y-3285744D01*
X-6900621Y-3285744D01*
X-6896303Y-3296361D01*
X-6890410Y-3305911D01*
X-6883146Y-3314446D01*
X-6874611Y-3321710D01*
X-6865061Y-3327603D01*
G37*
G36*
X-753821Y-3316528D02*
G01*
X-681583Y-3316528D01*
X-681583Y-3244443D01*
X-687222Y-3246831D01*
X-701192Y-3254705D01*
X-714197Y-3264103D01*
X-725982Y-3274974D01*
X-736498Y-3287115D01*
X-745540Y-3300323D01*
X-753008Y-3314496D01*
G37*
G36*
X-568909Y-3316528D02*
G01*
X-496671Y-3316528D01*
X-497433Y-3314496D01*
X-504951Y-3300323D01*
X-513994Y-3287115D01*
X-524510Y-3274974D01*
X-536295Y-3264103D01*
X-549300Y-3254705D01*
X-563270Y-3246831D01*
X-568909Y-3244443D01*
G37*
G36*
X-6810756Y-3242056D02*
G01*
X-6764578Y-3242056D01*
X-6768896Y-3231438D01*
X-6774789Y-3221888D01*
X-6782053Y-3213354D01*
X-6790588Y-3206089D01*
X-6800138Y-3200196D01*
X-6810756Y-3195878D01*
G37*
G36*
X-6900621Y-3242056D02*
G01*
X-6854444Y-3242056D01*
X-6854444Y-3195878D01*
X-6865061Y-3200196D01*
X-6874611Y-3206089D01*
X-6883146Y-3213354D01*
X-6890410Y-3221888D01*
X-6896303Y-3231438D01*
G37*
G36*
X-2930855Y-3236976D02*
G01*
X-2931617Y-3172155D01*
X-2996285Y-3172917D01*
X-2994660Y-3176930D01*
X-2987497Y-3189884D01*
X-2978759Y-3201924D01*
X-2968650Y-3212744D01*
X-2957271Y-3222244D01*
X-2944825Y-3230321D01*
G37*
G36*
X-2838145Y-3235655D02*
G01*
X-2830830Y-3232404D01*
X-2818079Y-3224834D01*
X-2806344Y-3215792D01*
X-2795828Y-3205327D01*
X-2786634Y-3193643D01*
X-2779014Y-3180943D01*
X-2774238Y-3170224D01*
X-2838907Y-3171037D01*
G37*
G36*
X-1586890Y-3193288D02*
G01*
X-1586890Y-3147060D01*
X-1633067Y-3147060D01*
X-1628749Y-3157677D01*
X-1622856Y-3167227D01*
X-1615592Y-3175762D01*
X-1607058Y-3183077D01*
X-1597507Y-3188919D01*
G37*
G36*
X-1543202Y-3193288D02*
G01*
X-1532585Y-3188919D01*
X-1523034Y-3183077D01*
X-1514500Y-3175762D01*
X-1507236Y-3167227D01*
X-1501343Y-3157677D01*
X-1497025Y-3147060D01*
X-1543202Y-3147060D01*
G37*
G36*
X-1633067Y-3103372D02*
G01*
X-1586890Y-3103372D01*
X-1586890Y-3057194D01*
X-1597507Y-3061563D01*
X-1607058Y-3067405D01*
X-1615592Y-3074670D01*
X-1622856Y-3083204D01*
X-1628749Y-3092805D01*
G37*
G36*
X-1543202Y-3103372D02*
G01*
X-1497025Y-3103372D01*
X-1501343Y-3092805D01*
X-1507236Y-3083204D01*
X-1514500Y-3074670D01*
X-1523034Y-3067405D01*
X-1532585Y-3061563D01*
X-1543202Y-3057194D01*
G37*
G36*
X-2997403Y-3080258D02*
G01*
X-2932734Y-3079445D01*
X-2933547Y-3014624D01*
X-2947365Y-3021634D01*
X-2959608Y-3029966D01*
X-2970784Y-3039770D01*
X-2980639Y-3050844D01*
X-2989072Y-3063036D01*
X-2995930Y-3076194D01*
G37*
G36*
X-2840075Y-3078327D02*
G01*
X-2775356Y-3077514D01*
X-2780385Y-3066948D01*
X-2788361Y-3054400D01*
X-2797810Y-3042970D01*
X-2808579Y-3032760D01*
X-2820517Y-3023971D01*
X-2833471Y-3016707D01*
X-2840837Y-3013710D01*
G37*
G36*
X-633272Y-2914192D02*
G01*
X-617220Y-2914192D01*
X-601268Y-2912364D01*
X-585673Y-2908757D01*
X-570534Y-2903372D01*
X-556158Y-2896260D01*
X-542645Y-2887624D01*
X-530250Y-2877464D01*
X-519074Y-2865932D01*
X-509270Y-2853232D01*
X-500989Y-2839516D01*
X-494334Y-2824937D01*
X-489356Y-2809646D01*
X-486206Y-2793949D01*
X-484835Y-2777947D01*
X-485292Y-2761945D01*
X-487527Y-2746044D01*
X-491642Y-2730550D01*
X-497433Y-2715564D01*
X-504951Y-2701391D01*
X-513994Y-2688183D01*
X-524510Y-2676042D01*
X-536295Y-2665171D01*
X-549300Y-2655773D01*
X-563270Y-2647899D01*
X-578053Y-2641650D01*
X-593445Y-2637129D01*
X-609244Y-2634386D01*
X-625246Y-2633472D01*
X-641248Y-2634386D01*
X-657047Y-2637129D01*
X-672439Y-2641650D01*
X-687222Y-2647899D01*
X-701192Y-2655773D01*
X-714197Y-2665171D01*
X-725982Y-2676042D01*
X-736498Y-2688183D01*
X-745540Y-2701391D01*
X-753059Y-2715564D01*
X-758850Y-2730550D01*
X-762914Y-2746044D01*
X-765200Y-2761945D01*
X-765657Y-2777947D01*
X-764286Y-2793949D01*
X-761136Y-2809646D01*
X-756158Y-2824937D01*
X-749503Y-2839516D01*
X-741222Y-2853232D01*
X-731418Y-2865932D01*
X-720242Y-2877464D01*
X-707847Y-2887624D01*
X-694334Y-2896260D01*
X-679958Y-2903372D01*
X-664819Y-2908757D01*
X-649224Y-2912364D01*
G37*
G36*
X-4793335Y-2484120D02*
G01*
X-4788255Y-2482088D01*
X-4775200Y-2474925D01*
X-4763160Y-2466187D01*
X-4752340Y-2456027D01*
X-4742840Y-2444546D01*
X-4734864Y-2431999D01*
X-4729327Y-2420264D01*
X-4793335Y-2420264D01*
G37*
G36*
X-4884064Y-2484120D02*
G01*
X-4884064Y-2420264D01*
X-4948072Y-2420264D01*
X-4942535Y-2431999D01*
X-4934559Y-2444546D01*
X-4925060Y-2456027D01*
X-4914239Y-2466187D01*
X-4902200Y-2474925D01*
X-4889144Y-2482088D01*
G37*
G36*
X-5301335Y-2471572D02*
G01*
X-5296255Y-2469540D01*
X-5283200Y-2462377D01*
X-5271160Y-2453640D01*
X-5260340Y-2443429D01*
X-5250840Y-2431948D01*
X-5242864Y-2419400D01*
X-5237327Y-2407666D01*
X-5301335Y-2407666D01*
G37*
G36*
X-5392064Y-2471572D02*
G01*
X-5392064Y-2407666D01*
X-5456072Y-2407666D01*
X-5450535Y-2419400D01*
X-5442559Y-2431948D01*
X-5433060Y-2443429D01*
X-5422239Y-2453640D01*
X-5410200Y-2462377D01*
X-5397144Y-2469540D01*
G37*
G36*
X-633272Y-2413304D02*
G01*
X-617220Y-2413304D01*
X-601268Y-2411476D01*
X-585673Y-2407869D01*
X-570534Y-2402484D01*
X-556158Y-2395372D01*
X-542645Y-2386736D01*
X-530250Y-2376576D01*
X-519074Y-2365044D01*
X-509270Y-2352344D01*
X-500989Y-2338628D01*
X-494334Y-2324049D01*
X-489356Y-2308758D01*
X-486206Y-2293061D01*
X-484835Y-2277059D01*
X-485292Y-2261057D01*
X-487527Y-2245156D01*
X-491642Y-2229662D01*
X-497433Y-2214676D01*
X-504951Y-2200503D01*
X-513994Y-2187295D01*
X-524510Y-2175154D01*
X-536295Y-2164283D01*
X-549300Y-2154885D01*
X-563270Y-2147011D01*
X-578053Y-2140762D01*
X-593445Y-2136241D01*
X-609244Y-2133498D01*
X-625246Y-2132584D01*
X-641248Y-2133498D01*
X-657047Y-2136241D01*
X-672439Y-2140762D01*
X-687222Y-2147011D01*
X-701192Y-2154885D01*
X-714197Y-2164283D01*
X-725982Y-2175154D01*
X-736498Y-2187295D01*
X-745540Y-2200503D01*
X-753059Y-2214676D01*
X-758850Y-2229662D01*
X-762914Y-2245156D01*
X-765200Y-2261057D01*
X-765657Y-2277059D01*
X-764286Y-2293061D01*
X-761136Y-2308758D01*
X-756158Y-2324049D01*
X-749503Y-2338628D01*
X-741222Y-2352344D01*
X-731418Y-2365044D01*
X-720242Y-2376576D01*
X-707847Y-2386736D01*
X-694334Y-2395372D01*
X-679958Y-2402484D01*
X-664819Y-2407869D01*
X-649224Y-2411476D01*
G37*
G36*
X-4793335Y-2329535D02*
G01*
X-4729327Y-2329535D01*
X-4734864Y-2317800D01*
X-4742840Y-2305253D01*
X-4752340Y-2293772D01*
X-4763160Y-2283612D01*
X-4775200Y-2274874D01*
X-4788255Y-2267661D01*
X-4793335Y-2265680D01*
G37*
G36*
X-4948072Y-2329535D02*
G01*
X-4884064Y-2329535D01*
X-4884064Y-2265680D01*
X-4889144Y-2267661D01*
X-4902200Y-2274874D01*
X-4914239Y-2283612D01*
X-4925060Y-2293772D01*
X-4934559Y-2305253D01*
X-4942535Y-2317800D01*
G37*
G36*
X-5301335Y-2316988D02*
G01*
X-5237327Y-2316988D01*
X-5242864Y-2305253D01*
X-5250840Y-2292654D01*
X-5260340Y-2281224D01*
X-5271160Y-2271014D01*
X-5283200Y-2262276D01*
X-5296255Y-2255113D01*
X-5301335Y-2253081D01*
G37*
G36*
X-5456072Y-2316988D02*
G01*
X-5392064Y-2316988D01*
X-5392064Y-2253081D01*
X-5397144Y-2255113D01*
X-5410200Y-2262276D01*
X-5422239Y-2271014D01*
X-5433060Y-2281224D01*
X-5442559Y-2292654D01*
X-5450535Y-2305253D01*
G37*
G36*
X-4846116Y-2239162D02*
G01*
X-4831232Y-2239162D01*
X-4816500Y-2237282D01*
X-4802073Y-2233574D01*
X-4788255Y-2228088D01*
X-4775200Y-2220925D01*
X-4763160Y-2212187D01*
X-4752340Y-2202027D01*
X-4742840Y-2190546D01*
X-4734864Y-2177999D01*
X-4728514Y-2164486D01*
X-4723942Y-2150364D01*
X-4721148Y-2135733D01*
X-4720234Y-2120900D01*
X-4721148Y-2106066D01*
X-4723942Y-2091436D01*
X-4728514Y-2077262D01*
X-4734864Y-2063800D01*
X-4742840Y-2051253D01*
X-4752340Y-2039772D01*
X-4763160Y-2029612D01*
X-4775200Y-2020874D01*
X-4788255Y-2013661D01*
X-4802073Y-2008225D01*
X-4816500Y-2004517D01*
X-4831232Y-2002637D01*
X-4846116Y-2002637D01*
X-4860899Y-2004517D01*
X-4875326Y-2008225D01*
X-4889144Y-2013661D01*
X-4902200Y-2020874D01*
X-4914239Y-2029612D01*
X-4925060Y-2039772D01*
X-4934559Y-2051253D01*
X-4942535Y-2063800D01*
X-4948885Y-2077262D01*
X-4953457Y-2091436D01*
X-4956251Y-2106066D01*
X-4957165Y-2120900D01*
X-4956251Y-2135733D01*
X-4953457Y-2150364D01*
X-4948885Y-2164486D01*
X-4942535Y-2177999D01*
X-4934559Y-2190546D01*
X-4925060Y-2202027D01*
X-4914239Y-2212187D01*
X-4902200Y-2220925D01*
X-4889144Y-2228088D01*
X-4875326Y-2233574D01*
X-4860899Y-2237282D01*
G37*
G36*
X-8402116Y-1972462D02*
G01*
X-8387232Y-1972462D01*
X-8372500Y-1970582D01*
X-8358073Y-1966874D01*
X-8344255Y-1961388D01*
X-8331200Y-1954225D01*
X-8319160Y-1945487D01*
X-8308340Y-1935327D01*
X-8298840Y-1923846D01*
X-8290864Y-1911299D01*
X-8284514Y-1897786D01*
X-8279942Y-1883664D01*
X-8277148Y-1869033D01*
X-8276234Y-1854200D01*
X-8277148Y-1839366D01*
X-8279942Y-1824736D01*
X-8284514Y-1810562D01*
X-8290864Y-1797100D01*
X-8298840Y-1784553D01*
X-8308340Y-1773072D01*
X-8319160Y-1762912D01*
X-8331200Y-1754174D01*
X-8344255Y-1746961D01*
X-8358073Y-1741525D01*
X-8372500Y-1737817D01*
X-8376716Y-1737258D01*
X-8380628Y-1735937D01*
X-8383676Y-1733092D01*
X-8385352Y-1729282D01*
X-8385352Y-1725117D01*
X-8383676Y-1721307D01*
X-8380628Y-1718462D01*
X-8376716Y-1717090D01*
X-8372500Y-1716582D01*
X-8358073Y-1712874D01*
X-8344255Y-1707388D01*
X-8331200Y-1700225D01*
X-8319160Y-1691487D01*
X-8308340Y-1681327D01*
X-8298840Y-1669846D01*
X-8290864Y-1657299D01*
X-8284514Y-1643786D01*
X-8279942Y-1629664D01*
X-8277148Y-1615033D01*
X-8276234Y-1600200D01*
X-8277148Y-1585366D01*
X-8279942Y-1570736D01*
X-8284514Y-1556562D01*
X-8290864Y-1543100D01*
X-8298840Y-1530553D01*
X-8308340Y-1519072D01*
X-8319160Y-1508912D01*
X-8331200Y-1500174D01*
X-8344255Y-1492961D01*
X-8358073Y-1487525D01*
X-8372500Y-1483817D01*
X-8376716Y-1483258D01*
X-8380628Y-1481937D01*
X-8383676Y-1479092D01*
X-8385352Y-1475282D01*
X-8385352Y-1471117D01*
X-8383676Y-1467307D01*
X-8380628Y-1464462D01*
X-8376716Y-1463090D01*
X-8372500Y-1462582D01*
X-8358073Y-1458874D01*
X-8344255Y-1453388D01*
X-8331200Y-1446225D01*
X-8319160Y-1437487D01*
X-8308340Y-1427327D01*
X-8298840Y-1415846D01*
X-8290864Y-1403299D01*
X-8284514Y-1389786D01*
X-8279942Y-1375664D01*
X-8277148Y-1361033D01*
X-8276234Y-1346200D01*
X-8277148Y-1331366D01*
X-8279942Y-1316736D01*
X-8284514Y-1302562D01*
X-8290864Y-1289100D01*
X-8298840Y-1276553D01*
X-8308340Y-1265072D01*
X-8319160Y-1254912D01*
X-8331200Y-1246174D01*
X-8344255Y-1238961D01*
X-8358073Y-1233525D01*
X-8372500Y-1229817D01*
X-8376716Y-1229258D01*
X-8380628Y-1227937D01*
X-8383676Y-1225092D01*
X-8385352Y-1221282D01*
X-8385352Y-1217117D01*
X-8383676Y-1213307D01*
X-8380628Y-1210462D01*
X-8376716Y-1209090D01*
X-8372500Y-1208582D01*
X-8358073Y-1204874D01*
X-8344255Y-1199388D01*
X-8331200Y-1192225D01*
X-8319160Y-1183487D01*
X-8308340Y-1173327D01*
X-8298840Y-1161846D01*
X-8290864Y-1149299D01*
X-8284514Y-1135786D01*
X-8279942Y-1121664D01*
X-8277148Y-1107033D01*
X-8276234Y-1092200D01*
X-8277148Y-1077366D01*
X-8279942Y-1062736D01*
X-8284514Y-1048562D01*
X-8290864Y-1035100D01*
X-8298840Y-1022553D01*
X-8308340Y-1011072D01*
X-8319160Y-1000912D01*
X-8331200Y-992174D01*
X-8344255Y-984961D01*
X-8358073Y-979525D01*
X-8372500Y-975817D01*
X-8387232Y-973937D01*
X-8402116Y-973937D01*
X-8416899Y-975817D01*
X-8431326Y-979525D01*
X-8445144Y-984961D01*
X-8458200Y-992174D01*
X-8470239Y-1000912D01*
X-8481060Y-1011072D01*
X-8490559Y-1022553D01*
X-8498535Y-1035100D01*
X-8504885Y-1048562D01*
X-8509457Y-1062736D01*
X-8512251Y-1077366D01*
X-8513165Y-1092200D01*
X-8512251Y-1107033D01*
X-8509457Y-1121664D01*
X-8504885Y-1135786D01*
X-8498535Y-1149299D01*
X-8490559Y-1161846D01*
X-8481060Y-1173327D01*
X-8470239Y-1183487D01*
X-8458200Y-1192225D01*
X-8445144Y-1199388D01*
X-8431326Y-1204874D01*
X-8416899Y-1208582D01*
X-8412683Y-1209090D01*
X-8408771Y-1210462D01*
X-8405672Y-1213307D01*
X-8404047Y-1217117D01*
X-8404047Y-1221282D01*
X-8405672Y-1225092D01*
X-8408771Y-1227937D01*
X-8412683Y-1229258D01*
X-8416899Y-1229817D01*
X-8431326Y-1233525D01*
X-8445144Y-1238961D01*
X-8458200Y-1246174D01*
X-8470239Y-1254912D01*
X-8481060Y-1265072D01*
X-8490559Y-1276553D01*
X-8498535Y-1289100D01*
X-8504885Y-1302562D01*
X-8509457Y-1316736D01*
X-8512251Y-1331366D01*
X-8513165Y-1346200D01*
X-8512251Y-1361033D01*
X-8509457Y-1375664D01*
X-8504885Y-1389786D01*
X-8498535Y-1403299D01*
X-8490559Y-1415846D01*
X-8481060Y-1427327D01*
X-8470239Y-1437487D01*
X-8458200Y-1446225D01*
X-8445144Y-1453388D01*
X-8431326Y-1458874D01*
X-8416899Y-1462582D01*
X-8412683Y-1463090D01*
X-8408771Y-1464462D01*
X-8405672Y-1467307D01*
X-8404047Y-1471117D01*
X-8404047Y-1475282D01*
X-8405672Y-1479092D01*
X-8408771Y-1481937D01*
X-8412683Y-1483258D01*
X-8416899Y-1483817D01*
X-8431326Y-1487525D01*
X-8445144Y-1492961D01*
X-8458200Y-1500174D01*
X-8470239Y-1508912D01*
X-8481060Y-1519072D01*
X-8490559Y-1530553D01*
X-8498535Y-1543100D01*
X-8504885Y-1556562D01*
X-8509457Y-1570736D01*
X-8512251Y-1585366D01*
X-8513165Y-1600200D01*
X-8512251Y-1615033D01*
X-8509457Y-1629664D01*
X-8504885Y-1643786D01*
X-8498535Y-1657299D01*
X-8490559Y-1669846D01*
X-8481060Y-1681327D01*
X-8470239Y-1691487D01*
X-8458200Y-1700225D01*
X-8445144Y-1707388D01*
X-8431326Y-1712874D01*
X-8416899Y-1716582D01*
X-8412683Y-1717090D01*
X-8408771Y-1718462D01*
X-8405672Y-1721307D01*
X-8404047Y-1725117D01*
X-8404047Y-1729282D01*
X-8405672Y-1733092D01*
X-8408771Y-1735937D01*
X-8412683Y-1737258D01*
X-8416899Y-1737817D01*
X-8431326Y-1741525D01*
X-8445144Y-1746961D01*
X-8458200Y-1754174D01*
X-8470239Y-1762912D01*
X-8481060Y-1773072D01*
X-8490559Y-1784553D01*
X-8498535Y-1797100D01*
X-8504885Y-1810562D01*
X-8509457Y-1824736D01*
X-8512251Y-1839366D01*
X-8513165Y-1854200D01*
X-8512251Y-1869033D01*
X-8509457Y-1883664D01*
X-8504885Y-1897786D01*
X-8498535Y-1911299D01*
X-8490559Y-1923846D01*
X-8481060Y-1935327D01*
X-8470239Y-1945487D01*
X-8458200Y-1954225D01*
X-8445144Y-1961388D01*
X-8431326Y-1966874D01*
X-8416899Y-1970582D01*
G37*
G36*
X-468071Y-1828698D02*
G01*
X-354939Y-1828698D01*
X-354939Y-1764538D01*
X-509117Y-1764538D01*
X-509117Y-1787702D01*
X-508254Y-1796084D01*
X-505968Y-1803654D01*
X-502208Y-1810664D01*
X-497179Y-1816811D01*
X-491083Y-1821840D01*
X-484073Y-1825548D01*
X-476504Y-1827885D01*
G37*
G36*
X-509117Y-1691843D02*
G01*
X-354939Y-1691843D01*
X-354939Y-1627682D01*
X-468071Y-1627682D01*
X-476504Y-1628495D01*
X-484073Y-1630832D01*
X-491083Y-1634540D01*
X-497179Y-1639570D01*
X-502208Y-1645716D01*
X-505968Y-1652727D01*
X-508254Y-1660296D01*
X-509117Y-1668678D01*
G37*
G36*
X-468071Y-1318666D02*
G01*
X-354939Y-1318666D01*
X-354939Y-1254556D01*
X-509117Y-1254556D01*
X-509117Y-1277670D01*
X-508254Y-1286052D01*
X-505968Y-1293672D01*
X-502208Y-1300683D01*
X-497179Y-1306779D01*
X-491083Y-1311808D01*
X-484073Y-1315567D01*
X-476504Y-1317853D01*
G37*
G36*
X-509117Y-1181811D02*
G01*
X-354939Y-1181811D01*
X-354939Y-1117650D01*
X-468071Y-1117650D01*
X-476504Y-1118514D01*
X-484073Y-1120800D01*
X-491083Y-1124559D01*
X-497179Y-1129588D01*
X-502208Y-1135684D01*
X-505968Y-1142695D01*
X-508254Y-1150264D01*
X-509117Y-1158697D01*
G37*
G36*
X-681888Y-865428D02*
G01*
X-681888Y-756361D01*
X-791159Y-756361D01*
X-782015Y-773328D01*
X-770128Y-791362D01*
X-756666Y-808228D01*
X-741781Y-823823D01*
X-725525Y-837996D01*
X-708050Y-850696D01*
X-689508Y-861771D01*
G37*
G36*
X-469188Y-865428D02*
G01*
X-461619Y-861771D01*
X-443077Y-850696D01*
X-425602Y-837996D01*
X-409346Y-823823D01*
X-394462Y-808228D01*
X-381000Y-791362D01*
X-369112Y-773328D01*
X-359968Y-756361D01*
X-469188Y-756361D01*
G37*
G36*
X-8481872Y-865428D02*
G01*
X-8481872Y-756361D01*
X-8591143Y-756361D01*
X-8581999Y-773328D01*
X-8570112Y-791362D01*
X-8556650Y-808228D01*
X-8541766Y-823823D01*
X-8525510Y-837996D01*
X-8508034Y-850696D01*
X-8489492Y-861771D01*
G37*
G36*
X-8269173Y-865428D02*
G01*
X-8261603Y-861771D01*
X-8243062Y-850696D01*
X-8225586Y-837996D01*
X-8209330Y-823823D01*
X-8194446Y-808228D01*
X-8180984Y-791362D01*
X-8169097Y-773328D01*
X-8159953Y-756361D01*
X-8269173Y-756361D01*
G37*
G36*
X-1718056Y-715721D02*
G01*
X-1707438Y-711403D01*
X-1697888Y-705510D01*
X-1689354Y-698246D01*
X-1682089Y-689711D01*
X-1676196Y-680161D01*
X-1671878Y-669544D01*
X-1718056Y-669544D01*
G37*
G36*
X-1761743Y-715721D02*
G01*
X-1761743Y-669544D01*
X-1807921Y-669544D01*
X-1803603Y-680161D01*
X-1797710Y-689711D01*
X-1790446Y-698246D01*
X-1781911Y-705510D01*
X-1772361Y-711403D01*
G37*
G36*
X-6994144Y-715721D02*
G01*
X-6994144Y-669544D01*
X-7040321Y-669544D01*
X-7036003Y-680161D01*
X-7030110Y-689711D01*
X-7022846Y-698246D01*
X-7014311Y-705510D01*
X-7004761Y-711403D01*
G37*
G36*
X-6950456Y-715721D02*
G01*
X-6939838Y-711403D01*
X-6930288Y-705510D01*
X-6921753Y-698246D01*
X-6914489Y-689711D01*
X-6908596Y-680161D01*
X-6904278Y-669544D01*
X-6950456Y-669544D01*
G37*
G36*
X-7040321Y-625856D02*
G01*
X-6994144Y-625856D01*
X-6994144Y-579678D01*
X-7004761Y-583996D01*
X-7014311Y-589889D01*
X-7022846Y-597154D01*
X-7030110Y-605688D01*
X-7036003Y-615238D01*
G37*
G36*
X-6950456Y-625856D02*
G01*
X-6904278Y-625856D01*
X-6908596Y-615238D01*
X-6914489Y-605688D01*
X-6921753Y-597154D01*
X-6930288Y-589889D01*
X-6939838Y-583996D01*
X-6950456Y-579678D01*
G37*
G36*
X-1718056Y-625856D02*
G01*
X-1671878Y-625856D01*
X-1676196Y-615238D01*
X-1682089Y-605688D01*
X-1689354Y-597154D01*
X-1697888Y-589889D01*
X-1707438Y-583996D01*
X-1718056Y-579678D01*
G37*
G36*
X-1807921Y-625856D02*
G01*
X-1761743Y-625856D01*
X-1761743Y-579678D01*
X-1772361Y-583996D01*
X-1781911Y-589889D01*
X-1790446Y-597154D01*
X-1797710Y-605688D01*
X-1803603Y-615238D01*
G37*
G36*
X-469188Y-543661D02*
G01*
X-359968Y-543661D01*
X-369112Y-526643D01*
X-381000Y-508609D01*
X-394462Y-491743D01*
X-409346Y-476148D01*
X-425602Y-461975D01*
X-443077Y-449275D01*
X-461619Y-438200D01*
X-469188Y-434543D01*
G37*
G36*
X-791159Y-543661D02*
G01*
X-681888Y-543661D01*
X-681888Y-434543D01*
X-689508Y-438200D01*
X-708050Y-449275D01*
X-725525Y-461975D01*
X-741781Y-476148D01*
X-756666Y-491743D01*
X-770128Y-508609D01*
X-782015Y-526643D01*
G37*
G36*
X-8591143Y-543661D02*
G01*
X-8481872Y-543661D01*
X-8481872Y-434543D01*
X-8489492Y-438200D01*
X-8508034Y-449275D01*
X-8525510Y-461975D01*
X-8541766Y-476148D01*
X-8556650Y-491743D01*
X-8570112Y-508609D01*
X-8581999Y-526643D01*
G37*
G36*
X-8269173Y-543661D02*
G01*
X-8159953Y-543661D01*
X-8169097Y-526643D01*
X-8180984Y-508609D01*
X-8194446Y-491743D01*
X-8209330Y-476148D01*
X-8225586Y-461975D01*
X-8243062Y-449275D01*
X-8261603Y-438200D01*
X-8269173Y-434543D01*
G37*

%LPD*%
G36*
X-3301136Y-4846929D02*
G01*
X-3305606Y-4846828D01*
X-3309620Y-4844846D01*
X-3312363Y-4841341D01*
X-3313328Y-4836972D01*
X-3313328Y-3218992D01*
X-3312566Y-3215081D01*
X-3310331Y-3211779D01*
X-3303828Y-3205327D01*
X-3294634Y-3193643D01*
X-3287014Y-3180943D01*
X-3280968Y-3167380D01*
X-3276447Y-3152546D01*
X-3274314Y-3148787D01*
X-3270808Y-3146196D01*
X-3266541Y-3145383D01*
X-3262325Y-3146348D01*
X-3258921Y-3149041D01*
X-3256940Y-3152902D01*
X-3254197Y-3163163D01*
X-3248660Y-3176930D01*
X-3241497Y-3189884D01*
X-3232759Y-3201924D01*
X-3223107Y-3212287D01*
X-3221075Y-3215487D01*
X-3220364Y-3219246D01*
X-3220364Y-4778959D01*
X-3221177Y-4782972D01*
X-3223514Y-4786325D01*
X-3227019Y-4788509D01*
X-3238957Y-4792878D01*
X-3252165Y-4799634D01*
X-3264408Y-4807966D01*
X-3275584Y-4817770D01*
X-3285439Y-4828844D01*
X-3294176Y-4841646D01*
X-3297072Y-4845100D01*
G37*

%LPD*%
D10*
X-8394700Y-4140200D02*
G01*
X-8217027Y-4317872D01*
X-8217027Y-5486527D01*
X-8394700Y-5664200D01*
X-8375548Y-650011D02*
G01*
X-8214334Y-811225D01*
X-8214334Y-3959834D01*
X-8394700Y-4140200D01*
X-7965846Y-7299985D02*
G01*
X-8375548Y-7709687D01*
X-8375548Y-9999979D01*
X-8394700Y-5664200D02*
G01*
X-8394700Y-6871131D01*
X-7965846Y-7299985D01*
X-459892Y-1939493D02*
G01*
X-431063Y-1968322D01*
X-431063Y-3372891D01*
X-558672Y-1728190D02*
G01*
X-558672Y-1840712D01*
X-459892Y-1939493D01*
X-431063Y-3372891D02*
G01*
X-431063Y-4275937D01*
X-628954Y-4473829D01*
X-431063Y-3372891D02*
G01*
X-625246Y-3372891D01*
X-228600Y-1728190D02*
G01*
X-558672Y-1728190D01*
X-228600Y-1218209D02*
G01*
X-558672Y-1218209D01*
X-558672Y-1218209D02*
G01*
X-558672Y-666902D01*
X-575563Y-650011D01*
X-2085746Y-8319541D02*
G01*
X-2085746Y-8488349D01*
X-2085746Y-8488349D02*
G01*
X-1587500Y-8986596D01*
X-1587500Y-10033000D01*
X-625246Y-7167397D02*
G01*
X-431063Y-6973214D01*
X-431063Y-6282080D01*
X-625246Y-6087897D01*
X-2885846Y-3125241D02*
G01*
X-2885846Y-3111931D01*
X-2738069Y-2964154D01*
X-1726133Y-2964154D01*
X-1565046Y-3125241D01*
X-2936646Y-4903241D02*
G01*
X-2936646Y-3176041D01*
X-2885846Y-3125241D01*
X-3938498Y-1239901D02*
G01*
X-4203572Y-1239901D01*
X-4203572Y-1239901D02*
G01*
X-4387545Y-1423873D01*
X-4387545Y-1923745D01*
X-4838700Y-2374900D01*
D11*
X-2538501Y-2239898D02*
G01*
X-2793568Y-2239898D01*
X-2793568Y-2239898D02*
G01*
X-3624834Y-1408633D01*
X-3624834Y-989152D01*
X-3725138Y-888847D01*
X-5367553Y-888847D01*
X-7336154Y-2857449D01*
X-7336154Y-3335781D01*
X-7886700Y-3886327D01*
X-2538501Y-1839899D02*
G01*
X-2793568Y-1839899D01*
X-7886700Y-3378327D02*
G01*
X-7634884Y-3126511D01*
X-7634884Y-2985414D01*
X-5416270Y-766800D01*
X-3675125Y-766800D01*
X-2981020Y-1460906D01*
X-2981020Y-1652447D01*
X-2793568Y-1839899D01*
X-7886700Y-2616327D02*
G01*
X-8048370Y-2777997D01*
X-8048370Y-6556070D01*
X-3190646Y-4903241D02*
G01*
X-3139846Y-4852441D01*
X-3139846Y-3125241D01*
X-3444646Y-4903241D02*
G01*
X-3393846Y-4852441D01*
X-3393846Y-3125241D01*
X-628954Y-5489829D02*
G01*
X-1864080Y-4254703D01*
X-1864080Y-3914749D01*
X-3938498Y-2039899D02*
G01*
X-4193565Y-2039899D01*
X-4193565Y-2039899D02*
G01*
X-4555083Y-2401417D01*
X-4555083Y-3094583D01*
X-4838700Y-3378200D01*
D10*
X-7965846Y-6799097D02*
G01*
X-6409969Y-5243220D01*
X-6409969Y-2155596D01*
X-5346700Y-1092327D01*
X-585622Y-8324367D02*
G01*
X-585622Y-8155559D01*
X-625246Y-3873779D02*
G01*
X-819150Y-4067682D01*
X-819150Y-4558919D01*
X-650240Y-4727829D01*
X-596417Y-4727829D01*
X-279882Y-5044363D01*
X-279882Y-7849819D01*
X-585622Y-8155559D01*
X-2682646Y-4903241D02*
G01*
X-2631846Y-4852441D01*
X-2631846Y-3125241D01*
X-3673424Y-1839899D02*
G01*
X-3673297Y-1840026D01*
X-3673297Y-2538272D01*
X-4233443Y-3098419D01*
X-4233443Y-5664200D01*
X-3938498Y-1839899D02*
G01*
X-3673424Y-1839899D01*
X-228600Y-1473200D02*
G01*
X-1025499Y-1473200D01*
X-1608988Y-889711D01*
X-2757144Y-889711D01*
X-2907334Y-1039901D01*
X-3952646Y-4903241D02*
G01*
X-3952646Y-6884466D01*
X-4867020Y-7798841D01*
X-4613020Y-7798841D02*
G01*
X-2987420Y-9424441D01*
X-2085746Y-9424441D01*
D11*
X-587146Y-9424441D02*
G01*
X-587146Y-9265640D01*
X-3698646Y-4903241D02*
G01*
X-3698646Y-6154140D01*
X-587146Y-9265640D01*
D12*
G01*
X-228600Y-1728190D03*
G01*
X-228600Y-1218209D03*
G01*
X-228600Y-1473200D03*
D13*
G01*
X-587146Y-9424441D03*
G01*
X-2085746Y-9424441D03*
G01*
X-585622Y-8324367D03*
G01*
X-2085746Y-8319541D03*
D14*
G01*
X-7886700Y-1092327D03*
G01*
X-7886700Y-1346327D03*
G01*
X-7886700Y-1600327D03*
G01*
X-7886700Y-1854327D03*
G01*
X-7886700Y-2108327D03*
G01*
X-7886700Y-2362327D03*
G01*
X-7886700Y-2616327D03*
G01*
X-7886700Y-2870327D03*
G01*
X-7886700Y-3124327D03*
G01*
X-7886700Y-3378327D03*
G01*
X-7886700Y-3632327D03*
G01*
X-7886700Y-3886327D03*
G01*
X-7886700Y-4140327D03*
G01*
X-7886700Y-4394327D03*
G01*
X-7886700Y-4648327D03*
G01*
X-7886700Y-4902327D03*
G01*
X-7886700Y-5156327D03*
G01*
X-7886700Y-5410327D03*
G01*
X-7886700Y-5664327D03*
G01*
X-5346700Y-1346327D03*
G01*
X-5346700Y-1600327D03*
G01*
X-5346700Y-1854327D03*
G01*
X-5346700Y-2108327D03*
G01*
X-5346700Y-2362327D03*
G01*
X-5346700Y-2616327D03*
G01*
X-5346700Y-2870327D03*
G01*
X-5346700Y-3124327D03*
G01*
X-5346700Y-3378327D03*
G01*
X-5346700Y-3632327D03*
G01*
X-5346700Y-3886327D03*
G01*
X-5346700Y-4140327D03*
G01*
X-5346700Y-4394327D03*
G01*
X-5346700Y-4648327D03*
G01*
X-5346700Y-4902327D03*
G01*
X-5346700Y-5156327D03*
G01*
X-5346700Y-1092327D03*
G01*
X-5346700Y-5410327D03*
D15*
G01*
X-5346700Y-5664327D03*
D16*
G01*
X-625246Y-3873779D03*
G01*
X-625246Y-3372891D03*
G01*
X-625246Y-7668285D03*
G01*
X-625246Y-7167397D03*
G01*
X-625246Y-6588785D03*
G01*
X-625246Y-6087897D03*
G01*
X-628954Y-4473829D03*
G01*
X-628954Y-5489829D03*
G01*
X-628954Y-4981829D03*
G01*
X-625246Y-2773959D03*
G01*
X-625246Y-2273071D03*
G01*
X-7965846Y-7891297D03*
G01*
X-7965846Y-8392185D03*
G01*
X-7965846Y-6799097D03*
G01*
X-7965846Y-7299985D03*
G01*
X-7965846Y-8970797D03*
G01*
X-7965846Y-9471685D03*
D17*
G01*
X-3901846Y-3125241D03*
G01*
X-3647846Y-3125241D03*
G01*
X-3393846Y-3125241D03*
G01*
X-3139846Y-3125241D03*
G01*
X-2885846Y-3125241D03*
D18*
G01*
X-2631846Y-3125236D03*
D17*
G01*
X-3952646Y-4903241D03*
G01*
X-3698646Y-4903241D03*
G01*
X-3444646Y-4903241D03*
G01*
X-3190646Y-4903241D03*
G01*
X-2936646Y-4903241D03*
D18*
G01*
X-2682646Y-4903236D03*
D19*
G01*
X-3938498Y-1039901D03*
G01*
X-3938498Y-1239901D03*
G01*
X-3938498Y-1439900D03*
G01*
X-3938498Y-1639900D03*
G01*
X-3938498Y-1839899D03*
G01*
X-3938498Y-2039899D03*
G01*
X-3938498Y-2239898D03*
G01*
X-3938498Y-2439898D03*
G01*
X-2538501Y-2439898D03*
G01*
X-2538501Y-2239898D03*
G01*
X-2538501Y-2039899D03*
G01*
X-2538501Y-1839899D03*
G01*
X-2538501Y-1639900D03*
G01*
X-2538501Y-1439900D03*
G01*
X-2538501Y-1239901D03*
G01*
X-2538501Y-1039901D03*
D20*
G01*
X-4105033Y-7798838D03*
D17*
G01*
X-4359020Y-7798841D03*
G01*
X-4613020Y-7798841D03*
G01*
X-4867020Y-7798841D03*
D21*
G01*
X-8375548Y-9999979D03*
G01*
X-575563Y-9999979D03*
G01*
X-575563Y-650011D03*
G01*
X-8375548Y-650011D03*
D22*
G01*
X-4457700Y-10033000D03*
G01*
X-1587500Y-10033000D03*
G01*
X-6845300Y-10033000D03*
G01*
X-6870700Y-6362700D03*
G01*
X-1625600Y-6375400D03*
G01*
X-4419600Y-6362700D03*
G01*
X-6832600Y-3263900D03*
G01*
X-1565046Y-3125241D03*
G01*
X-6972300Y-647700D03*
G01*
X-1739900Y-647700D03*
D23*
G01*
X-8394700Y-1092200D03*
G01*
X-8394700Y-1346200D03*
G01*
X-8394700Y-1600200D03*
G01*
X-8394700Y-1854200D03*
G01*
X-8394700Y-2120900D03*
G01*
X-8394700Y-2374900D03*
G01*
X-8394700Y-3898900D03*
G01*
X-8394700Y-3644900D03*
G01*
X-8394700Y-3378200D03*
G01*
X-8394700Y-3124200D03*
G01*
X-8394700Y-2870200D03*
G01*
X-8394700Y-2616200D03*
G01*
X-8394700Y-5422900D03*
G01*
X-8394700Y-5168900D03*
G01*
X-8394700Y-4902200D03*
G01*
X-8394700Y-4648200D03*
G01*
X-8394700Y-4394200D03*
G01*
X-8394700Y-4140200D03*
G01*
X-8394700Y-5664200D03*
G01*
X-4838700Y-4140200D03*
G01*
X-4838700Y-4394200D03*
G01*
X-4838700Y-4648200D03*
G01*
X-4838700Y-4902200D03*
G01*
X-4838700Y-5168900D03*
G01*
X-4838700Y-5422900D03*
G01*
X-4838700Y-2616200D03*
G01*
X-4838700Y-2870200D03*
G01*
X-4838700Y-3124200D03*
G01*
X-4838700Y-3378200D03*
G01*
X-4838700Y-3644900D03*
G01*
X-4838700Y-3898900D03*
G01*
X-4838700Y-2374900D03*
G01*
X-4838700Y-2120900D03*
G01*
X-4838700Y-1854200D03*
G01*
X-4838700Y-1600200D03*
G01*
X-4838700Y-1346200D03*
G01*
X-4838700Y-1092200D03*
G01*
X-4838700Y-5664200D03*
D24*
G01*
X-459892Y-1939493D03*
G01*
X-8048370Y-6556070D03*
G01*
X-1864080Y-3914749D03*
G01*
X-4233443Y-5664200D03*
G01*
X-2907334Y-1039901D03*
M02*
